<svg xmlns="http://www.w3.org/2000/svg" xmlns:xlink="http://www.w3.org/1999/xlink" xmlns:mei="http://www.music-encoding.org/ns/mei" width="1932px" height="280px" version="1.1" overflow="visible">
    <desc>Engraved by Verovio 4.3.0-dev-ba68db3-dirty</desc>
    <defs>
        <symbol id="E086-613qs4" viewBox="0 0 1000 1000" overflow="inherit">
            <path transform="scale(1,-1)" d="M284 -91c0 37 -28 92 -67 92c-35 0 -65 -54 -65 -111c0 -52 22 -104 68 -104c47 0 64 68 64 123zM230 214c-36 0 -90 -33 -90 -184l2 -36c40 24 81 36 120 36c80 0 140 -48 140 -121c0 -99 -99 -159 -182 -159c-160 0 -200 173 -200 244c0 21 2 43 7 71l10 35 c26 85 73 115 98 126c41 19 74 24 103 24c93 0 142 -63 142 -105c0 -58 -52 -72 -73 -72c-33 0 -59 24 -65 35c-3 5 -6 14 -7 25l11 30c6 15 9 27 9 35c0 11 -9 16 -25 16z"/>
        </symbol>
        <symbol id="E088-613qs4" viewBox="0 0 1000 1000" overflow="inherit">
            <path transform="scale(1,-1)" d="M195 -214c76 0 88 58 90 68c0 34 -35 60 -57 73l-52 29c-21 10 -32 17 -34 20c-39 -33 -58 -54 -62 -92c5 -23 23 -98 115 -98zM301 135c0 61 -72 76 -113 76c-40 0 -77 -17 -77 -51c3 -21 15 -38 26 -50c17 -15 33 -26 48 -34l65 -28c34 27 51 56 51 87zM176 -250 c-57 0 -166 26 -166 132c0 47 30 86 89 116c-33 15 -79 60 -79 119c0 79 85 132 178 132h18c5 0 21 1 28 -1c25 0 126 -30 126 -110c0 -37 -23 -76 -69 -116c43 -25 83 -71 83 -119c0 -101 -118 -153 -208 -153z"/>
        </symbol>
        <symbol id="E0A4-613qs4" viewBox="0 0 1000 1000" overflow="inherit">
            <path transform="scale(1,-1)" d="M0 -39c0 68 73 172 200 172c66 0 114 -37 114 -95c0 -84 -106 -171 -218 -171c-64 0 -96 30 -96 94z"/>
        </symbol>
        <symbol id="E4E6-613qs4" viewBox="0 0 1000 1000" overflow="inherit">
            <path transform="scale(1,-1)" d="M0 123c7 34 33 56 69 60c29 -3 43 -9 53 -29c4 -8 7 -15 10 -22c0 -21 -1 -25 -11 -35c-5 -8 -18 -14 -40 -20l12 -3l15 -1c44 0 97 26 122 56c10 11 18 26 24 42c7 1 15 2 22 3l-140 -424h-36l111 330c-10 -6 -27 -12 -53 -16l-52 -8h-10l-20 1c-1 0 -8 3 -21 6 c-37 9 -55 28 -55 60z"/>
        </symbol>
        <symbol id="E882-613qs4" viewBox="0 0 1000 1000" overflow="inherit">
            <path transform="scale(1,-1)" d="M166 311c60 0 94 -21 94 -80c0 -27 -12 -51 -40 -64l-70 -32c-37 -10 -69 -30 -96 -60h21l26 -2l12 -6c14 -6 28 -11 42 -17c6 -3 13 -4 21 -4l15 4l11 8c5 5 11 13 19 26l17 -9l-16 -28c-2 -4 -16 -28 -20 -31c-19 -21 -38 -31 -57 -31h-10c-13 6 -25 12 -36 20l-15 11 c-12 7 -23 10 -32 10c-10 -3 -19 -8 -24 -17l-5 -9h-23c0 27 6 51 20 72c7 10 14 16 19 21l28 25c20 11 40 22 59 33l19 9c16 7 29 18 39 30c12 15 19 30 19 45l1 12c0 13 -4 24 -12 31c-6 9 -15 14 -28 14c-29 0 -46 -15 -52 -44l3 -12l2 -16c0 -20 -8 -29 -25 -29 c-14 0 -26 13 -26 28c0 48 52 92 100 92z"/>
        </symbol>
        <symbol id="E883-613qs4" viewBox="0 0 1000 1000" overflow="inherit">
            <path transform="scale(1,-1)" d="M161 326c52 0 94 -17 94 -68c0 -50 -40 -76 -82 -94c26 -21 39 -42 39 -64c0 -52 -56 -100 -118 -100h-12c-40 0 -82 23 -82 56c0 30 12 49 37 49c17 0 31 -16 34 -31c0 -5 -4 -12 -11 -21c-7 -5 -13 -10 -13 -21l11 -9l17 -4c21 0 40 12 56 37c13 21 19 45 19 70 c-9 30 -28 35 -66 35l6 23c34 0 60 4 77 13c20 11 30 35 30 70c0 28 -12 38 -39 40l-20 -3c-8 -3 -12 -9 -12 -16c2 -7 4 -11 5 -14l4 -11l3 -10l-3 -12c-5 -6 -11 -11 -20 -13c-2 0 -4 -1 -6 -1c-16 0 -30 13 -30 28c0 39 43 71 82 71z"/>
        </symbol>
        <symbol id="E884-613qs4" viewBox="0 0 1000 1000" overflow="inherit">
            <path transform="scale(1,-1)" d="M259 110l-6 -21h-59l-16 -52c-3 -6 0 -11 9 -14l34 -2l-6 -21h-155l6 21l18 1l15 4c9 3 16 11 20 23l13 40h-132l5 21c12 10 26 22 39 39l33 43c13 18 27 41 40 68l21 51h97l-36 -49c-13 -16 -33 -34 -49 -49c-36 -35 -76 -67 -115 -100l108 -3l20 72l80 77h5l-44 -149 h55z"/>
        </symbol>
        <symbol id="E500-613qs4" viewBox="0 0 1000 1000" overflow="inherit">
            <path transform="scale(1,-1)" d="M508 242l-362 -484h-146l362 484h146zM52 118c0 13 4 25 13 34s19 14 32 15c14 0 26 -4 35 -12s14 -19 15 -33c0 -13 -4 -25 -13 -34s-19 -14 -32 -15c-14 0 -26 4 -35 12s-14 19 -15 33zM361 -121c0 13 4 25 13 34s19 14 32 15c14 0 26 -4 35 -12s14 -19 15 -33 c0 -13 -4 -25 -13 -34s-19 -14 -32 -15c-14 0 -26 4 -35 12s-14 19 -15 33z"/>
        </symbol>
        <symbol id="E220-613qs4" viewBox="0 0 1000 1000" overflow="inherit">
            <path transform="scale(1,-1)" d="M-163 -25l326 150v-100l-326 -150v100z"/>
        </symbol>
    </defs>
    <style type="text/css">g.page-margin{font-family:Times,serif;} g.ending, g.fing, g.reh, g.tempo{font-weight:bold;} g.dir, g.dynam, g.mNum{font-style:italic;} g.label{font-weight:normal;}</style>
    <svg class="definition-scale" color="black" viewBox="0 0 19320 2800">
        <g class="page-margin" transform="translate(500, 500)">
            <g id="m1l06i7s" class="mdiv pageMilestone"/>
            <g id="sfvcns4" class="score pageMilestone"/>
            <g id="s1yj4mfc" class="system">
                <g id="letgst3" class="label">
                    <text x="1105" y="990" text-anchor="end" font-size="0px">
                        <tspan id="t12ndbde" class="text">
                            <tspan font-size="405px">Piano</tspan>
                        </tspan>
                    </text>
                </g>
                <g id="sankwv4" class="section systemMilestone"/>
                <g id="pP1_m1" class="measure">
                    <g id="soqzscd" class="staff">
                        <path d="M1285 540 L4213 540" stroke="currentColor" stroke-width="13"/>
                        <path d="M1285 720 L4213 720" stroke="currentColor" stroke-width="13"/>
                        <path d="M1285 900 L4213 900" stroke="currentColor" stroke-width="13"/>
                        <path d="M1285 1080 L4213 1080" stroke="currentColor" stroke-width="13"/>
                        <path d="M1285 1260 L4213 1260" stroke="currentColor" stroke-width="13"/>
                        <g id="clef1_1" class="clef" visibility="hidden"/>
                        <g id="key1_1" class="keySig" visibility="hidden"/>
                        <g id="time1_1" class="meterSig">
                            <use xlink:href="#E086-613qs4" x="1361" y="720" height="720px" width="720px"/>
                            <use xlink:href="#E088-613qs4" x="1368" y="1080" height="720px" width="720px"/>
                        </g>
                        <g class="ledgerLines below">
                            <path d="M1872 1440 L2194 1440" stroke="currentColor" stroke-width="22"/>
                            <path d="M1872 1620 L2194 1620" stroke="currentColor" stroke-width="22"/>
                        </g>
                        <g id="l1944q6m" class="layer">
                            <g id="chord.note1_note2" class="chord">
                                <g id="chord.note1_note2.stem" class="stem">
                                    <path d="M2137 1592 L2137 540" stroke="currentColor" stroke-width="18"/>
                                </g>
                                <g id="note1" class="note">
                                    <g class="notehead" id="note1.notehead">
                                        <use xlink:href="#E0A4-613qs4" x="1920" y="1620" height="720px" width="720px"/>
                                    </g>
                                </g>
                                <g id="note2" class="note">
                                    <g class="notehead" id="note2.notehead">
                                        <use xlink:href="#E0A4-613qs4" x="1920" y="1170" height="720px" width="720px"/>
                                    </g>
                                    <g id="note2.accidental" class="accid"/>
                                </g>
                            </g>
                            <g id="rest1" class="rest">
                                <use xlink:href="#E4E6-613qs4" x="2610" y="900" height="720px" width="720px"/>
                            </g>
                            <g id="chord.note3_note4" class="chord">
                                <g id="chord.note3_note4.stem" class="stem">
                                    <path d="M3069 478 L3069 1560" stroke="currentColor" stroke-width="18"/>
                                </g>
                                <g id="note3" class="note">
                                    <g class="notehead" id="note3.notehead">
                                        <use xlink:href="#E0A4-613qs4" x="3060" y="990" height="720px" width="720px"/>
                                    </g>
                                </g>
                                <g id="note4" class="note">
                                    <g class="notehead" id="note4.notehead">
                                        <use xlink:href="#E0A4-613qs4" x="3060" y="450" height="720px" width="720px"/>
                                    </g>
                                </g>
                            </g>
                            <g id="rest2" class="rest">
                                <use xlink:href="#E4E6-613qs4" x="3750" y="900" height="720px" width="720px"/>
                            </g>
                        </g>
                    </g>
                    <g id="pP1_m1.right_barline" class="barLine">
                        <path id="pP1_m1.right_barline.barline_tok1" d="M4200 540 L4200 1260" stroke="currentColor" stroke-width="27" class="barline_tok"/>
                    </g>
                </g>
                <g id="pP1_m2" class="measure">
                    <g id="s1edxa1t" class="staff">
                        <path d="M4213 540 L6426 540" stroke="currentColor" stroke-width="13"/>
                        <path d="M4213 720 L6426 720" stroke="currentColor" stroke-width="13"/>
                        <path d="M4213 900 L6426 900" stroke="currentColor" stroke-width="13"/>
                        <path d="M4213 1080 L6426 1080" stroke="currentColor" stroke-width="13"/>
                        <path d="M4213 1260 L6426 1260" stroke="currentColor" stroke-width="13"/>
                        <g class="ledgerLines below">
                            <path d="M4795 1440 L5117 1440" stroke="currentColor" stroke-width="22"/>
                            <path d="M5485 1440 L5807 1440" stroke="currentColor" stroke-width="22"/>
                            <path d="M4795 1620 L5117 1620" stroke="currentColor" stroke-width="22"/>
                            <path d="M5485 1620 L5807 1620" stroke="currentColor" stroke-width="22"/>
                        </g>
                        <g id="lch2q9v" class="layer">
                            <g id="rest3" class="rest">
                                <use xlink:href="#E4E6-613qs4" x="4393" y="900" height="720px" width="720px"/>
                            </g>
                            <g id="note5.tremolo_single" class="bTrem">
                                <use xlink:href="#E220-613qs4" x="5060" y="900" height="720px" width="720px" id="note5.tremolo_single.line1" class="bTrem_line"/>
                                <g id="chord.note5_note6" class="chord">
                                    <g id="chord.note5_note6.stem" class="stem">
                                        <path d="M5060 1592 L5060 540" stroke="currentColor" stroke-width="18"/>
                                    </g>
                                    <g id="note5" class="note">
                                        <g class="notehead" id="note5.notehead">
                                            <use xlink:href="#E0A4-613qs4" x="4843" y="1620" height="720px" width="720px"/>
                                        </g>
                                    </g>
                                    <g id="note6" class="note">
                                        <g class="notehead" id="note6.notehead">
                                            <use xlink:href="#E0A4-613qs4" x="4843" y="1170" height="720px" width="720px"/>
                                        </g>
                                        <g id="note6.accidental" class="accid"/>
                                    </g>
                                </g>
                            </g>
                            <g id="note7.tremolo_single" class="bTrem">
                                <use xlink:href="#E220-613qs4" x="5750" y="900" height="720px" width="720px" id="note7.tremolo_single.line1" class="bTrem_line"/>
                                <g id="chord.note7_note8" class="chord">
                                    <g id="chord.note7_note8.dots_parent" class="dots">
                                        <ellipse cx="5849" cy="1530" rx="36" ry="36" class="single_dot" id="note7.dot1"/>
                                        <ellipse cx="5849" cy="1170" rx="36" ry="36" class="single_dot" id="note8.dot1"/>
                                    </g>
                                    <g id="chord.note7_note8.stem" class="stem">
                                        <path d="M5750 1592 L5750 540" stroke="currentColor" stroke-width="18"/>
                                    </g>
                                    <g id="note7" class="note">
                                        <g class="notehead" id="note7.notehead">
                                            <use xlink:href="#E0A4-613qs4" x="5533" y="1620" height="720px" width="720px"/>
                                        </g>
                                    </g>
                                    <g id="note8" class="note">
                                        <g class="notehead" id="note8.notehead">
                                            <use xlink:href="#E0A4-613qs4" x="5533" y="1170" height="720px" width="720px"/>
                                        </g>
                                        <g id="note8.accidental" class="accid"/>
                                    </g>
                                </g>
                            </g>
                        </g>
                    </g>
                    <g id="pP1_m2.right_barline" class="barLine">
                        <path id="pP1_m2.right_barline.barline_tok1" d="M6413 540 L6413 1260" stroke="currentColor" stroke-width="27" class="barline_tok"/>
                    </g>
                </g>
                <g id="pP1_m3" class="measure">
                    <g id="s1bb2sfd" class="staff">
                        <path d="M6426 540 L7869 540" stroke="currentColor" stroke-width="13"/>
                        <path d="M6426 720 L7869 720" stroke="currentColor" stroke-width="13"/>
                        <path d="M6426 900 L7869 900" stroke="currentColor" stroke-width="13"/>
                        <path d="M6426 1080 L7869 1080" stroke="currentColor" stroke-width="13"/>
                        <path d="M6426 1260 L7869 1260" stroke="currentColor" stroke-width="13"/>
                        <g id="l9zg317" class="layer">
                            <g id="pP1_m3.measure_repeat" class="mRpt">
                                <use xlink:href="#E500-613qs4" x="6952" y="900" height="720px" width="720px"/>
                                <use xlink:href="#E882-613qs4" x="7040" y="450" height="720px" width="720px"/>
                            </g>
                        </g>
                    </g>
                    <g id="pP1_m3.right_barline" class="barLine">
                        <path id="pP1_m3.right_barline.barline_tok1" d="M7856 540 L7856 1260" stroke="currentColor" stroke-width="27" class="barline_tok"/>
                    </g>
                </g>
                <g id="pP1_m4" class="measure">
                    <g id="sip1gj5" class="staff">
                        <path d="M7869 540 L9312 540" stroke="currentColor" stroke-width="13"/>
                        <path d="M7869 720 L9312 720" stroke="currentColor" stroke-width="13"/>
                        <path d="M7869 900 L9312 900" stroke="currentColor" stroke-width="13"/>
                        <path d="M7869 1080 L9312 1080" stroke="currentColor" stroke-width="13"/>
                        <path d="M7869 1260 L9312 1260" stroke="currentColor" stroke-width="13"/>
                        <g id="l151ntqs" class="layer">
                            <g id="pP1_m4.measure_repeat" class="mRpt">
                                <use xlink:href="#E500-613qs4" x="8395" y="900" height="720px" width="720px"/>
                                <use xlink:href="#E883-613qs4" x="8485" y="450" height="720px" width="720px"/>
                            </g>
                        </g>
                    </g>
                    <g id="pP1_m4.right_barline" class="barLine">
                        <path id="pP1_m4.right_barline.barline_tok1" d="M9299 540 L9299 1260" stroke="currentColor" stroke-width="27" class="barline_tok"/>
                    </g>
                </g>
                <g id="pP1_m5" class="measure">
                    <g id="sz6ldwh" class="staff">
                        <path d="M9312 540 L11525 540" stroke="currentColor" stroke-width="13"/>
                        <path d="M9312 720 L11525 720" stroke="currentColor" stroke-width="13"/>
                        <path d="M9312 900 L11525 900" stroke="currentColor" stroke-width="13"/>
                        <path d="M9312 1080 L11525 1080" stroke="currentColor" stroke-width="13"/>
                        <path d="M9312 1260 L11525 1260" stroke="currentColor" stroke-width="13"/>
                        <g class="ledgerLines below">
                            <path d="M9894 1440 L10216 1440" stroke="currentColor" stroke-width="22"/>
                            <path d="M10584 1440 L10906 1440" stroke="currentColor" stroke-width="22"/>
                            <path d="M9894 1620 L10216 1620" stroke="currentColor" stroke-width="22"/>
                            <path d="M10584 1620 L10906 1620" stroke="currentColor" stroke-width="22"/>
                        </g>
                        <g id="lihhmt7" class="layer">
                            <g id="rest6" class="rest">
                                <use xlink:href="#E4E6-613qs4" x="9492" y="900" height="720px" width="720px"/>
                            </g>
                            <g id="note17.tremolo_single" class="bTrem">
                                <use xlink:href="#E220-613qs4" x="10159" y="900" height="720px" width="720px" id="note17.tremolo_single.line1" class="bTrem_line"/>
                                <g id="chord.note17_note18" class="chord">
                                    <g id="chord.note17_note18.stem" class="stem">
                                        <path d="M10159 1592 L10159 630" stroke="currentColor" stroke-width="18"/>
                                    </g>
                                    <g id="note17" class="note">
                                        <g class="notehead" id="note17.notehead">
                                            <use xlink:href="#E0A4-613qs4" x="9942" y="1620" height="720px" width="720px"/>
                                        </g>
                                    </g>
                                    <g id="note18" class="note">
                                        <g class="notehead" id="note18.notehead">
                                            <use xlink:href="#E0A4-613qs4" x="9942" y="1260" height="720px" width="720px"/>
                                        </g>
                                    </g>
                                </g>
                            </g>
                            <g id="note19.tremolo_single" class="bTrem">
                                <use xlink:href="#E220-613qs4" x="10849" y="900" height="720px" width="720px" id="note19.tremolo_single.line1" class="bTrem_line"/>
                                <g id="chord.note19_note20" class="chord">
                                    <g id="chord.note19_note20.dots_parent" class="dots">
                                        <ellipse cx="10948" cy="1530" rx="36" ry="36" class="single_dot" id="note19.dot1"/>
                                        <ellipse cx="10948" cy="1170" rx="36" ry="36" class="single_dot" id="note20.dot1"/>
                                    </g>
                                    <g id="chord.note19_note20.stem" class="stem">
                                        <path d="M10849 1592 L10849 630" stroke="currentColor" stroke-width="18"/>
                                    </g>
                                    <g id="note19" class="note">
                                        <g class="notehead" id="note19.notehead">
                                            <use xlink:href="#E0A4-613qs4" x="10632" y="1620" height="720px" width="720px"/>
                                        </g>
                                    </g>
                                    <g id="note20" class="note">
                                        <g class="notehead" id="note20.notehead">
                                            <use xlink:href="#E0A4-613qs4" x="10632" y="1260" height="720px" width="720px"/>
                                        </g>
                                    </g>
                                </g>
                            </g>
                        </g>
                    </g>
                    <g id="pP1_m5.right_barline" class="barLine">
                        <path id="pP1_m5.right_barline.barline_tok1" d="M11512 540 L11512 1260" stroke="currentColor" stroke-width="27" class="barline_tok"/>
                    </g>
                </g>
                <g id="pP1_m6" class="measure">
                    <g id="szilmyd" class="staff">
                        <path d="M11525 540 L12968 540" stroke="currentColor" stroke-width="13"/>
                        <path d="M11525 720 L12968 720" stroke="currentColor" stroke-width="13"/>
                        <path d="M11525 900 L12968 900" stroke="currentColor" stroke-width="13"/>
                        <path d="M11525 1080 L12968 1080" stroke="currentColor" stroke-width="13"/>
                        <path d="M11525 1260 L12968 1260" stroke="currentColor" stroke-width="13"/>
                        <g id="l16txnuo" class="layer">
                            <g id="pP1_m6.measure_repeat" class="mRpt">
                                <use xlink:href="#E500-613qs4" x="12051" y="900" height="720px" width="720px"/>
                                <use xlink:href="#E882-613qs4" x="12139" y="450" height="720px" width="720px"/>
                            </g>
                        </g>
                    </g>
                    <g id="pP1_m6.right_barline" class="barLine">
                        <path id="pP1_m6.right_barline.barline_tok1" d="M12955 540 L12955 1260" stroke="currentColor" stroke-width="27" class="barline_tok"/>
                    </g>
                </g>
                <g id="pP1_m7" class="measure">
                    <g id="ssyiwly" class="staff">
                        <path d="M12968 540 L14411 540" stroke="currentColor" stroke-width="13"/>
                        <path d="M12968 720 L14411 720" stroke="currentColor" stroke-width="13"/>
                        <path d="M12968 900 L14411 900" stroke="currentColor" stroke-width="13"/>
                        <path d="M12968 1080 L14411 1080" stroke="currentColor" stroke-width="13"/>
                        <path d="M12968 1260 L14411 1260" stroke="currentColor" stroke-width="13"/>
                        <g id="l9ejvl0" class="layer">
                            <g id="pP1_m7.measure_repeat" class="mRpt">
                                <use xlink:href="#E500-613qs4" x="13494" y="900" height="720px" width="720px"/>
                                <use xlink:href="#E883-613qs4" x="13584" y="450" height="720px" width="720px"/>
                            </g>
                        </g>
                    </g>
                    <g id="pP1_m7.right_barline" class="barLine">
                        <path id="pP1_m7.right_barline.barline_tok1" d="M14398 540 L14398 1260" stroke="currentColor" stroke-width="27" class="barline_tok"/>
                    </g>
                </g>
                <g id="pP1_m8" class="measure">
                    <g id="s1velmw" class="staff">
                        <path d="M14411 540 L15854 540" stroke="currentColor" stroke-width="13"/>
                        <path d="M14411 720 L15854 720" stroke="currentColor" stroke-width="13"/>
                        <path d="M14411 900 L15854 900" stroke="currentColor" stroke-width="13"/>
                        <path d="M14411 1080 L15854 1080" stroke="currentColor" stroke-width="13"/>
                        <path d="M14411 1260 L15854 1260" stroke="currentColor" stroke-width="13"/>
                        <g id="l1kszowd" class="layer">
                            <g id="pP1_m8.measure_repeat" class="mRpt">
                                <use xlink:href="#E500-613qs4" x="14937" y="900" height="720px" width="720px"/>
                                <use xlink:href="#E884-613qs4" x="15026" y="450" height="720px" width="720px"/>
                            </g>
                        </g>
                    </g>
                    <g id="pP1_m8.right_barline" class="barLine">
                        <path id="pP1_m8.right_barline.barline_tok1" d="M15841 540 L15841 1260" stroke="currentColor" stroke-width="27" class="barline_tok"/>
                    </g>
                </g>
                <g id="pP1_m9" class="measure">
                    <g id="s1jq8l9e" class="staff">
                        <path d="M15854 540 L18327 540" stroke="currentColor" stroke-width="13"/>
                        <path d="M15854 720 L18327 720" stroke="currentColor" stroke-width="13"/>
                        <path d="M15854 900 L18327 900" stroke="currentColor" stroke-width="13"/>
                        <path d="M15854 1080 L18327 1080" stroke="currentColor" stroke-width="13"/>
                        <path d="M15854 1260 L18327 1260" stroke="currentColor" stroke-width="13"/>
                        <g class="ledgerLines below">
                            <path d="M16436 1440 L16758 1440" stroke="currentColor" stroke-width="22"/>
                            <path d="M17576 1440 L17898 1440" stroke="currentColor" stroke-width="22"/>
                            <path d="M16436 1620 L16758 1620" stroke="currentColor" stroke-width="22"/>
                            <path d="M17576 1620 L17898 1620" stroke="currentColor" stroke-width="22"/>
                        </g>
                        <g id="l117vbyj" class="layer">
                            <g id="rest10" class="rest">
                                <use xlink:href="#E4E6-613qs4" x="16034" y="900" height="720px" width="720px"/>
                            </g>
                            <g id="note33.tremolo_single" class="bTrem">
                                <use xlink:href="#E220-613qs4" x="16701" y="900" height="720px" width="720px" id="note33.tremolo_single.line1" class="bTrem_line"/>
                                <g id="chord.note33_note34" class="chord">
                                    <g id="chord.note33_note34.stem" class="stem">
                                        <path d="M16701 1592 L16701 630" stroke="currentColor" stroke-width="18"/>
                                    </g>
                                    <g id="note33" class="note">
                                        <g class="notehead" id="note33.notehead">
                                            <use xlink:href="#E0A4-613qs4" x="16484" y="1620" height="720px" width="720px"/>
                                        </g>
                                    </g>
                                    <g id="note34" class="note">
                                        <g class="notehead" id="note34.notehead">
                                            <use xlink:href="#E0A4-613qs4" x="16484" y="1260" height="720px" width="720px"/>
                                        </g>
                                    </g>
                                </g>
                            </g>
                            <g id="rest11" class="rest">
                                <use xlink:href="#E4E6-613qs4" x="17174" y="900" height="720px" width="720px"/>
                            </g>
                            <g id="note35.tremolo_single" class="bTrem">
                                <use xlink:href="#E220-613qs4" x="17841" y="900" height="720px" width="720px" id="note35.tremolo_single.line1" class="bTrem_line"/>
                                <g id="chord.note35_note36" class="chord">
                                    <g id="chord.note35_note36.stem" class="stem">
                                        <path d="M17841 1592 L17841 540" stroke="currentColor" stroke-width="18"/>
                                    </g>
                                    <g id="note35" class="note">
                                        <g class="notehead" id="note35.notehead">
                                            <use xlink:href="#E0A4-613qs4" x="17624" y="1620" height="720px" width="720px"/>
                                        </g>
                                    </g>
                                    <g id="note36" class="note">
                                        <g class="notehead" id="note36.notehead">
                                            <use xlink:href="#E0A4-613qs4" x="17624" y="1170" height="720px" width="720px"/>
                                        </g>
                                        <g id="note36.accidental" class="accid"/>
                                    </g>
                                </g>
                            </g>
                        </g>
                    </g>
                    <g id="pP1_m9.right_barline" class="barLine">
                        <path id="pP1_m9.right_barline.barline_tok1" d="M18314 540 L18314 1260" stroke="currentColor" stroke-width="27" class="barline_tok"/>
                    </g>
                </g>
                <g id="sk93izq" class="systemMilestoneEnd sankwv4"/>
            </g>
            <g id="pbxcsgw" class="pageMilestoneEnd sfvcns4"/>
            <g id="phekaim" class="pageMilestoneEnd m1l06i7s"/>
        </g>
    </svg>
</svg>