<svg xmlns="http://www.w3.org/2000/svg" xmlns:xlink="http://www.w3.org/1999/xlink" xmlns:mei="http://www.music-encoding.org/ns/mei" width="1691px" height="280px" version="1.1" overflow="visible">
    <desc>Engraved by Verovio 4.3.0-dev-ba68db3-dirty</desc>
    <defs>
        <symbol id="E086-vybniw" viewBox="0 0 1000 1000" overflow="inherit">
            <path transform="scale(1,-1)" d="M284 -91c0 37 -28 92 -67 92c-35 0 -65 -54 -65 -111c0 -52 22 -104 68 -104c47 0 64 68 64 123zM230 214c-36 0 -90 -33 -90 -184l2 -36c40 24 81 36 120 36c80 0 140 -48 140 -121c0 -99 -99 -159 -182 -159c-160 0 -200 173 -200 244c0 21 2 43 7 71l10 35 c26 85 73 115 98 126c41 19 74 24 103 24c93 0 142 -63 142 -105c0 -58 -52 -72 -73 -72c-33 0 -59 24 -65 35c-3 5 -6 14 -7 25l11 30c6 15 9 27 9 35c0 11 -9 16 -25 16z"/>
        </symbol>
        <symbol id="E088-vybniw" viewBox="0 0 1000 1000" overflow="inherit">
            <path transform="scale(1,-1)" d="M195 -214c76 0 88 58 90 68c0 34 -35 60 -57 73l-52 29c-21 10 -32 17 -34 20c-39 -33 -58 -54 -62 -92c5 -23 23 -98 115 -98zM301 135c0 61 -72 76 -113 76c-40 0 -77 -17 -77 -51c3 -21 15 -38 26 -50c17 -15 33 -26 48 -34l65 -28c34 27 51 56 51 87zM176 -250 c-57 0 -166 26 -166 132c0 47 30 86 89 116c-33 15 -79 60 -79 119c0 79 85 132 178 132h18c5 0 21 1 28 -1c25 0 126 -30 126 -110c0 -37 -23 -76 -69 -116c43 -25 83 -71 83 -119c0 -101 -118 -153 -208 -153z"/>
        </symbol>
        <symbol id="E0A4-vybniw" viewBox="0 0 1000 1000" overflow="inherit">
            <path transform="scale(1,-1)" d="M0 -39c0 68 73 172 200 172c66 0 114 -37 114 -95c0 -84 -106 -171 -218 -171c-64 0 -96 30 -96 94z"/>
        </symbol>
        <symbol id="E261-vybniw" viewBox="0 0 1000 1000" overflow="inherit">
            <path transform="scale(1,-1)" d="M0 -188v539h18v-191l139 22v-533h-17v186zM18 -100l122 17v176l-122 -19v-174z"/>
        </symbol>
        <symbol id="E4C0-vybniw" viewBox="0 0 1000 1000" overflow="inherit">
            <path transform="scale(1,-1)" d="M0 0c0 0 40 320 300 320s300 -320 300 -320h-32s-38 227 -268 227s-268 -227 -268 -227h-32zM355 52c0 -30 -25 -55 -55 -55s-55 25 -55 55s25 55 55 55s55 -25 55 -55z"/>
        </symbol>
        <symbol id="E241-vybniw" viewBox="0 0 1000 1000" overflow="inherit">
            <path transform="scale(1,-1)" d="M179 646c-4 8 -17 30 -18 33l-4 10c0 3 2 5 5 5s7 -2 13 -7c23 -33 46 -81 66 -132c22 -57 35 -125 35 -163c0 -104 -60 -183 -122 -241c-63 -59 -57 -53 -61 -56c-38 -34 -63 -95 -71 -95h-22v190c40 7 69 11 87 16c88 27 168 95 168 200c0 30 -12 89 -30 138 c-17 47 -31 73 -46 102z"/>
        </symbol>
        <symbol id="E4E5-vybniw" viewBox="0 0 1000 1000" overflow="inherit">
            <path transform="scale(1,-1)" d="M107 292c-13 24 -30 49 -52 71c-1 1 0 2 0 3l-2 2c3 3 4 4 6 4c12 0 26 -7 40 -20s44 -40 89 -81c26 -24 28 -29 46 -47c4 -4 8 -9 10 -14c6 -8 8 -16 8 -27c0 -19 -12 -40 -36 -61c-28 -23 -49 -38 -61 -73c-4 -11 -7 -27 -10 -50c13 -43 34 -83 59 -121 c31 -47 59 -79 101 -129c-8 0 -26 7 -54 20l-62 29l-21 6l-23 1c-25 0 -45 -10 -60 -30l-4 -14l-1 -12c0 -33 20 -56 39 -78c8 -9 17 -18 26 -26c17 -15 27 -24 28 -30l-3 -3c-11 5 -19 10 -25 15c-9 3 -37 21 -45 26c-24 14 -45 32 -63 51c-19 21 -37 44 -37 71 c0 63 27 95 80 95c41 0 86 -18 136 -52c-19 26 -37 48 -55 66c-23 23 -48 44 -73 65c-28 23 -47 40 -58 53s-17 26 -18 39c75 64 113 125 113 183c0 27 -7 48 -18 68z"/>
        </symbol>
        <symbol id="E4E6-vybniw" viewBox="0 0 1000 1000" overflow="inherit">
            <path transform="scale(1,-1)" d="M0 123c7 34 33 56 69 60c29 -3 43 -9 53 -29c4 -8 7 -15 10 -22c0 -21 -1 -25 -11 -35c-5 -8 -18 -14 -40 -20l12 -3l15 -1c44 0 97 26 122 56c10 11 18 26 24 42c7 1 15 2 22 3l-140 -424h-36l111 330c-10 -6 -27 -12 -53 -16l-52 -8h-10l-20 1c-1 0 -8 3 -21 6 c-37 9 -55 28 -55 60z"/>
        </symbol>
        <symbol id="E4E7-vybniw" viewBox="0 0 1000 1000" overflow="inherit">
            <path transform="scale(1,-1)" d="M133 -111c0 -33 -21 -50 -52 -55c10 -3 18 -4 25 -4c40 0 69 24 90 47l66 197c-36 -18 -64 -25 -112 -25c-23 0 -38 3 -45 8c-37 7 -55 27 -55 59c8 35 30 54 68 58c45 -6 49 -13 64 -48c0 -3 1 -5 1 -7c0 -27 -25 -46 -52 -49c6 -4 15 -6 26 -6c32 2 62 14 88 29 c32 19 44 36 59 71l7 1l10 2h4c-72 -220 -143 -439 -215 -659h-37l108 324c-20 -13 -51 -20 -82 -20c-21 0 -35 4 -43 10c-37 6 -55 26 -55 58c8 35 31 56 68 60c43 -8 48 -13 64 -51z"/>
        </symbol>
        <symbol id="E243-vybniw" viewBox="0 0 1000 1000" overflow="inherit">
            <path transform="scale(1,-1)" d="M216 730c-5 8 -10 13 -11 16l-4 10c0 3 2 5 5 5s7 -2 13 -7c35 -42 57 -101 57 -172c0 -34 -6 -65 -17 -94c10 -31 17 -64 17 -96c0 -104 -60 -183 -122 -241c-63 -59 -57 -53 -61 -56c-38 -34 -63 -95 -71 -95h-22v190v190c40 7 69 11 87 16c116 36 175 111 175 197 c0 44 -15 91 -46 137zM248 463c-23 -48 -58 -89 -94 -122c-63 -59 -57 -53 -61 -56c-30 -27 -44 -71 -53 -88c20 3 36 6 47 9c88 27 168 95 168 200c0 19 -3 39 -7 57z"/>
        </symbol>
        <symbol id="E4E4-vybniw" viewBox="0 0 1000 1000" overflow="inherit">
            <path transform="scale(1,-1)" d="M0 10v105c0 9 1 10 10 10h280c9 0 10 -1 10 -10v-105c0 -9 -1 -10 -10 -10h-280c-9 0 -10 1 -10 10z"/>
        </symbol>
    </defs>
    <style type="text/css">g.page-margin{font-family:Times,serif;} g.ending, g.fing, g.reh, g.tempo{font-weight:bold;} g.dir, g.dynam, g.mNum{font-style:italic;} g.label{font-weight:normal;}</style>
    <svg class="definition-scale" color="black" viewBox="0 0 16910 2800">
        <g class="page-margin" transform="translate(500, 500)">
            <g id="m1poipr" class="mdiv pageMilestone"/>
            <g id="sujgpm9" class="score pageMilestone"/>
            <g id="s1k6v7lz" class="system">
                <g id="lt09wha" class="label">
                    <text x="1088" y="990" text-anchor="end" font-size="0px">
                        <tspan id="tjtf9tt" class="text">
                            <tspan font-size="405px">Viol&#237;</tspan>
                        </tspan>
                    </text>
                </g>
                <g id="skbx0r9" class="section systemMilestone"/>
                <g id="pP1_m1" class="measure">
                    <g id="s14y24jc" class="staff">
                        <path d="M1268 540 L4406 540" stroke="currentColor" stroke-width="13"/>
                        <path d="M1268 720 L4406 720" stroke="currentColor" stroke-width="13"/>
                        <path d="M1268 900 L4406 900" stroke="currentColor" stroke-width="13"/>
                        <path d="M1268 1080 L4406 1080" stroke="currentColor" stroke-width="13"/>
                        <path d="M1268 1260 L4406 1260" stroke="currentColor" stroke-width="13"/>
                        <g id="clef1_1" class="clef" visibility="hidden"/>
                        <g id="key1_1" class="keySig" visibility="hidden"/>
                        <g id="time1_1" class="meterSig">
                            <use xlink:href="#E086-vybniw" x="1344" y="720" height="720px" width="720px"/>
                            <use xlink:href="#E088-vybniw" x="1351" y="1080" height="720px" width="720px"/>
                        </g>
                        <g id="l1t5x90m" class="layer">
                            <g id="note1" class="note">
                                <g class="notehead" id="note1.notehead">
                                    <use xlink:href="#E0A4-vybniw" x="1903" y="720" height="720px" width="720px"/>
                                </g>
                                <g id="note1.stem" class="stem">
                                    <path d="M1912 748 L1912 1350" stroke="currentColor" stroke-width="18"/>
                                    <g id="note1.stem.flag" class="flag">
                                        <use xlink:href="#E241-vybniw" x="1903" y="1350" height="720px" width="720px"/>
                                    </g>
                                </g>
                            </g>
                            <g id="note2" class="note">
                                <g class="notehead" id="note2.notehead">
                                    <use xlink:href="#E0A4-vybniw" x="2353" y="720" height="720px" width="720px"/>
                                </g>
                                <g id="note2.stem" class="stem">
                                    <path d="M2362 748 L2362 1350" stroke="currentColor" stroke-width="18"/>
                                    <g id="note2.stem.flag" class="flag">
                                        <use xlink:href="#E241-vybniw" x="2353" y="1350" height="720px" width="720px"/>
                                    </g>
                                </g>
                            </g>
                            <g id="rest1" class="rest">
                                <use xlink:href="#E4E6-vybniw" x="2803" y="900" height="720px" width="720px"/>
                            </g>
                            <g id="rest2" class="rest">
                                <use xlink:href="#E4E5-vybniw" x="3253" y="900" height="720px" width="720px"/>
                            </g>
                            <g id="rest3" class="rest">
                                <use xlink:href="#E4E6-vybniw" x="3943" y="900" height="720px" width="720px"/>
                            </g>
                        </g>
                    </g>
                    <g id="fermata1" class="fermata">
                        <use xlink:href="#E4C0-vybniw" x="3150" y="493" height="720px" width="720px"/>
                    </g>
                    <g id="pP1_m1.right_barline" class="barLine">
                        <path id="pP1_m1.right_barline.barline_tok1" d="M4393 540 L4393 1260" stroke="currentColor" stroke-width="27" class="barline_tok"/>
                    </g>
                </g>
                <g id="pP1_m2" class="measure">
                    <g id="s1tlkxdm" class="staff">
                        <path d="M4406 540 L5939 540" stroke="currentColor" stroke-width="13"/>
                        <path d="M4406 720 L5939 720" stroke="currentColor" stroke-width="13"/>
                        <path d="M4406 900 L5939 900" stroke="currentColor" stroke-width="13"/>
                        <path d="M4406 1080 L5939 1080" stroke="currentColor" stroke-width="13"/>
                        <path d="M4406 1260 L5939 1260" stroke="currentColor" stroke-width="13"/>
                        <g id="lvzzzy2" class="layer">
                            <g id="rest4" class="rest">
                                <use xlink:href="#E4E4-vybniw" x="4586" y="900" height="720px" width="720px"/>
                                <g class="ledgerLines"/>
                                <g id="rest4.dots_parent" class="dots">
                                    <ellipse cx="4901" cy="810" rx="36" ry="36" id="rest4.dot1" class="single_dot"/>
                                </g>
                            </g>
                        </g>
                    </g>
                    <g id="pP1_m2.right_barline" class="barLine">
                        <path id="pP1_m2.right_barline.barline_tok1" d="M5926 540 L5926 1260" stroke="currentColor" stroke-width="27" class="barline_tok"/>
                    </g>
                </g>
                <g id="pP1_m3" class="measure">
                    <g id="ss71ajp" class="staff">
                        <path d="M5939 540 L8565 540" stroke="currentColor" stroke-width="13"/>
                        <path d="M5939 720 L8565 720" stroke="currentColor" stroke-width="13"/>
                        <path d="M5939 900 L8565 900" stroke="currentColor" stroke-width="13"/>
                        <path d="M5939 1080 L8565 1080" stroke="currentColor" stroke-width="13"/>
                        <path d="M5939 1260 L8565 1260" stroke="currentColor" stroke-width="13"/>
                        <g id="lahp5gf" class="layer">
                            <g id="note3" class="note">
                                <g class="notehead" id="note3.notehead">
                                    <use xlink:href="#E0A4-vybniw" x="6119" y="1080" height="720px" width="720px"/>
                                </g>
                                <g id="note3.dots_parent" class="dots">
                                    <ellipse cx="6435" cy="990" rx="36" ry="36" id="note3.dot1" class="single_dot"/>
                                </g>
                                <g id="note3.stem" class="stem">
                                    <path d="M6128 1108 L6128 1620" stroke="currentColor" stroke-width="18"/>
                                </g>
                            </g>
                            <g id="beam1_parent" class="beam_parent">
                                <polygon points="6999,1665 7467,1620 7467,1530 6999,1575" id="beam1" class="beam"/>
                                <g id="note4" class="note">
                                    <g class="notehead" id="note4.notehead">
                                        <use xlink:href="#E0A4-vybniw" x="6999" y="1080" height="720px" width="720px"/>
                                    </g>
                                    <g id="note4.stem" class="stem">
                                        <path d="M7008 1108 L7008 1647" stroke="currentColor" stroke-width="18"/>
                                    </g>
                                </g>
                                <g id="note5" class="note">
                                    <g class="notehead" id="note5.notehead">
                                        <use xlink:href="#E0A4-vybniw" x="7449" y="990" height="720px" width="720px"/>
                                    </g>
                                    <g id="note5.stem" class="stem">
                                        <path d="M7458 1018 L7458 1602" stroke="currentColor" stroke-width="18"/>
                                    </g>
                                </g>
                            </g>
                            <g id="note6" class="note">
                                <g class="notehead" id="note6.notehead">
                                    <use xlink:href="#E0A4-vybniw" x="7899" y="900" height="720px" width="720px"/>
                                </g>
                                <g id="note6.stem" class="stem">
                                    <path d="M7908 928 L7908 1500" stroke="currentColor" stroke-width="18"/>
                                    <g id="note6.stem.flag" class="flag">
                                        <use xlink:href="#E243-vybniw" x="7899" y="1500" height="720px" width="720px"/>
                                    </g>
                                </g>
                            </g>
                            <g id="rest5" class="rest">
                                <use xlink:href="#E4E7-vybniw" x="8215" y="900" height="720px" width="720px"/>
                            </g>
                        </g>
                    </g>
                    <g id="tied1" class="tie">
                        <path d="M6390,878 C6521,724 6822,724 6954,878 C6803,773 6540,773 6390,878" stroke="currentColor" stroke-linecap="round" stroke-linejoin="round" stroke-width="9"/>
                    </g>
                    <g id="pP1_m3.right_barline" class="barLine">
                        <path id="pP1_m3.right_barline.barline_tok1" d="M8552 540 L8552 1260" stroke="currentColor" stroke-width="27" class="barline_tok"/>
                    </g>
                </g>
                <g id="pP1_m4" class="measure">
                    <g id="s1x0iuih" class="staff">
                        <path d="M8565 540 L10778 540" stroke="currentColor" stroke-width="13"/>
                        <path d="M8565 720 L10778 720" stroke="currentColor" stroke-width="13"/>
                        <path d="M8565 900 L10778 900" stroke="currentColor" stroke-width="13"/>
                        <path d="M8565 1080 L10778 1080" stroke="currentColor" stroke-width="13"/>
                        <path d="M8565 1260 L10778 1260" stroke="currentColor" stroke-width="13"/>
                        <g id="l1kxcxbe" class="layer">
                            <g id="note7" class="note">
                                <g class="notehead" id="note7.notehead">
                                    <use xlink:href="#E0A4-vybniw" x="8745" y="810" height="720px" width="720px"/>
                                </g>
                                <g id="note7.dots_parent" class="dots">
                                    <ellipse cx="9061" cy="810" rx="36" ry="36" id="note7.dot1" class="single_dot"/>
                                </g>
                                <g id="note7.stem" class="stem">
                                    <path d="M8754 838 L8754 1440" stroke="currentColor" stroke-width="18"/>
                                </g>
                            </g>
                            <g id="note8" class="note">
                                <g class="notehead" id="note8.notehead">
                                    <use xlink:href="#E0A4-vybniw" x="9625" y="810" height="720px" width="720px"/>
                                </g>
                                <g id="note8.stem" class="stem">
                                    <path d="M9634 838 L9634 1440" stroke="currentColor" stroke-width="18"/>
                                </g>
                            </g>
                            <g id="rest6" class="rest">
                                <use xlink:href="#E4E6-vybniw" x="10315" y="900" height="720px" width="720px"/>
                            </g>
                        </g>
                    </g>
                    <g id="pP1_m4.right_barline" class="barLine">
                        <path id="pP1_m4.right_barline.barline_tok1" d="M10765 540 L10765 1260" stroke="currentColor" stroke-width="27" class="barline_tok"/>
                    </g>
                </g>
                <g id="pP1_m5" class="measure">
                    <g id="s1o4ppoo" class="staff">
                        <path d="M10778 540 L13495 540" stroke="currentColor" stroke-width="13"/>
                        <path d="M10778 720 L13495 720" stroke="currentColor" stroke-width="13"/>
                        <path d="M10778 900 L13495 900" stroke="currentColor" stroke-width="13"/>
                        <path d="M10778 1080 L13495 1080" stroke="currentColor" stroke-width="13"/>
                        <path d="M10778 1260 L13495 1260" stroke="currentColor" stroke-width="13"/>
                        <g id="leysmt7" class="layer">
                            <g id="note9" class="note">
                                <g class="notehead" id="note9.notehead">
                                    <use xlink:href="#E0A4-vybniw" x="10958" y="630" height="720px" width="720px"/>
                                </g>
                                <g id="note9.stem" class="stem">
                                    <path d="M10967 658 L10967 1260" stroke="currentColor" stroke-width="18"/>
                                </g>
                            </g>
                            <g id="note10" class="note">
                                <g class="notehead" id="note10.notehead">
                                    <use xlink:href="#E0A4-vybniw" x="11648" y="630" height="720px" width="720px"/>
                                </g>
                                <g id="note10.stem" class="stem">
                                    <path d="M11657 658 L11657 1260" stroke="currentColor" stroke-width="18"/>
                                    <g id="note10.stem.flag" class="flag">
                                        <use xlink:href="#E241-vybniw" x="11648" y="1260" height="720px" width="720px"/>
                                    </g>
                                </g>
                            </g>
                            <g id="beam2_parent" class="beam_parent">
                                <polygon points="12098,1395 12590,1350 12590,1260 12098,1305" id="beam2" class="beam"/>
                                <g id="note11" class="note">
                                    <g class="notehead" id="note11.notehead">
                                        <use xlink:href="#E0A4-vybniw" x="12098" y="720" height="720px" width="720px"/>
                                    </g>
                                    <g id="note11.stem" class="stem">
                                        <path d="M12107 748 L12107 1377" stroke="currentColor" stroke-width="18"/>
                                    </g>
                                </g>
                                <g id="note12" class="note">
                                    <g class="notehead" id="note12.notehead">
                                        <use xlink:href="#E0A4-vybniw" x="12572" y="540" height="720px" width="720px"/>
                                    </g>
                                    <g id="note12.dots_parent" class="dots">
                                        <ellipse cx="12888" cy="450" rx="36" ry="36" id="note12.dot1" class="single_dot"/>
                                    </g>
                                    <g id="note12.stem" class="stem">
                                        <path d="M12581 568 L12581 1332" stroke="currentColor" stroke-width="18"/>
                                    </g>
                                    <g id="note12.accidental" class="accid">
                                        <use xlink:href="#E261-vybniw" x="12414" y="540" height="720px" width="720px"/>
                                    </g>
                                </g>
                            </g>
                            <g id="note13" class="note">
                                <g class="notehead" id="note13.notehead">
                                    <use xlink:href="#E0A4-vybniw" x="13152" y="630" height="720px" width="720px"/>
                                </g>
                                <g id="note13.stem" class="stem">
                                    <path d="M13161 658 L13161 1260" stroke="currentColor" stroke-width="18"/>
                                    <g id="note13.stem.flag" class="flag">
                                        <use xlink:href="#E243-vybniw" x="13152" y="1260" height="720px" width="720px"/>
                                    </g>
                                </g>
                            </g>
                        </g>
                    </g>
                    <g id="pP1_m5.right_barline" class="barLine">
                        <path id="pP1_m5.right_barline.barline_tok1" d="M13482 540 L13482 1260" stroke="currentColor" stroke-width="27" class="barline_tok"/>
                    </g>
                </g>
                <g id="pP1_m6" class="measure">
                    <g id="sn048fa" class="staff">
                        <path d="M13495 540 L15918 540" stroke="currentColor" stroke-width="13"/>
                        <path d="M13495 720 L15918 720" stroke="currentColor" stroke-width="13"/>
                        <path d="M13495 900 L15918 900" stroke="currentColor" stroke-width="13"/>
                        <path d="M13495 1080 L15918 1080" stroke="currentColor" stroke-width="13"/>
                        <path d="M13495 1260 L15918 1260" stroke="currentColor" stroke-width="13"/>
                        <g id="lia6wxk" class="layer">
                            <g id="note14" class="note">
                                <g class="notehead" id="note14.notehead">
                                    <use xlink:href="#E0A4-vybniw" x="13675" y="810" height="720px" width="720px"/>
                                </g>
                                <g id="note14.dots_parent" class="dots">
                                    <ellipse cx="13991" cy="810" rx="36" ry="36" id="note14.dot1" class="single_dot"/>
                                </g>
                                <g id="note14.stem" class="stem">
                                    <path d="M13684 838 L13684 1440" stroke="currentColor" stroke-width="18"/>
                                </g>
                            </g>
                            <g id="note15" class="note">
                                <g class="notehead" id="note15.notehead">
                                    <use xlink:href="#E0A4-vybniw" x="14555" y="810" height="720px" width="720px"/>
                                </g>
                                <g id="note15.stem" class="stem">
                                    <path d="M14564 838 L14564 1440" stroke="currentColor" stroke-width="18"/>
                                    <g id="note15.stem.flag" class="flag">
                                        <use xlink:href="#E241-vybniw" x="14555" y="1440" height="720px" width="720px"/>
                                    </g>
                                </g>
                            </g>
                            <g id="rest7" class="rest">
                                <use xlink:href="#E4E6-vybniw" x="15005" y="900" height="720px" width="720px"/>
                            </g>
                            <g id="note16" class="note">
                                <g class="notehead" id="note16.notehead">
                                    <use xlink:href="#E0A4-vybniw" x="15455" y="810" height="720px" width="720px"/>
                                </g>
                                <g id="note16.stem" class="stem">
                                    <path d="M15464 838 L15464 1440" stroke="currentColor" stroke-width="18"/>
                                    <g id="note16.stem.flag" class="flag">
                                        <use xlink:href="#E241-vybniw" x="15455" y="1440" height="720px" width="720px"/>
                                    </g>
                                </g>
                            </g>
                        </g>
                    </g>
                    <g id="pP1_m6.right_barline" class="barLine">
                        <path id="pP1_m6.right_barline.barline_tok1" d="M15905 540 L15905 1260" stroke="currentColor" stroke-width="27" class="barline_tok"/>
                    </g>
                </g>
                <g id="s1rwhd69" class="systemMilestoneEnd skbx0r9"/>
            </g>
            <g id="pnb0b4t" class="pageMilestoneEnd sujgpm9"/>
            <g id="p1m4i2t7" class="pageMilestoneEnd m1poipr"/>
        </g>
    </svg>
</svg>