<svg xmlns="http://www.w3.org/2000/svg" xmlns:xlink="http://www.w3.org/1999/xlink" xmlns:mei="http://www.music-encoding.org/ns/mei" width="1623px" height="289px" version="1.1" overflow="visible">
    <desc>Engraved by Verovio 4.3.0-dev-ba68db3-dirty</desc>
    <defs>
        <symbol id="E0A3-17athb1" viewBox="0 0 1000 1000" overflow="inherit">
            <path transform="scale(1,-1)" d="M278 64c0 22 -17 39 -43 39c-12 0 -26 -3 -41 -10c-85 -43 -165 -94 -165 -156c5 -25 15 -32 49 -32c67 11 200 95 200 159zM0 -36c0 68 73 174 200 174c66 0 114 -39 114 -97c0 -84 -106 -173 -218 -173c-64 0 -96 32 -96 96z"/>
        </symbol>
        <symbol id="E082-17athb1" viewBox="0 0 1000 1000" overflow="inherit">
            <path transform="scale(1,-1)" d="M124 -185c-18 0 -55 -14 -65 -65h-36l-3 30c0 25 6 45 18 63c11 19 22 30 39 43l121 82l37 29c15 11 27 29 38 54c12 24 18 47 18 70c0 40 -19 88 -94 88c-25 0 -32 0 -50 -8c-14 -5 -23 -12 -26 -22c3 -9 7 -15 10 -18l24 -17c12 -7 17 -11 27 -21c5 -7 7 -16 7 -27 c0 -12 0 -57 -79 -74c-30 0 -76 26 -76 94c0 66 81 135 197 135c72 0 181 -32 181 -150c0 -53 -32 -95 -113 -133l-91 -41c-26 -11 -45 -23 -57 -37l49 7c84 0 115 -41 148 -41c20 0 33 20 39 61h35c0 -152 -68 -168 -114 -168c-17 0 -65 0 -79 7h10l-28 17 c-49 37 -69 40 -87 42z"/>
        </symbol>
        <symbol id="E084-17athb1" viewBox="0 0 1000 1000" overflow="inherit">
            <path transform="scale(1,-1)" d="M20 -78c84 97 114 180 134 329h170c-13 -32 -82 -132 -99 -151l-84 -97c-33 -36 -59 -63 -80 -81h162v102l127 123v-225h57v-39h-57v-34c0 -43 19 -65 57 -65v-34h-244v36c48 0 60 26 60 70v27h-203v39z"/>
        </symbol>
        <symbol id="E0A4-17athb1" viewBox="0 0 1000 1000" overflow="inherit">
            <path transform="scale(1,-1)" d="M0 -39c0 68 73 172 200 172c66 0 114 -37 114 -95c0 -84 -106 -171 -218 -171c-64 0 -96 30 -96 94z"/>
        </symbol>
        <symbol id="E240-17athb1" viewBox="0 0 1000 1000" overflow="inherit">
            <path transform="scale(1,-1)" d="M179 -646c15 29 29 55 46 102c18 49 30 108 30 138c0 105 -80 173 -168 200c-18 5 -47 9 -87 16v190h22c8 0 33 -61 71 -95c4 -3 -2 3 61 -56c62 -58 122 -137 122 -241c0 -38 -13 -106 -35 -163c-20 -51 -43 -99 -66 -132c-6 -5 -10 -7 -13 -7s-5 2 -5 5l4 10 c1 3 14 25 18 33z"/>
        </symbol>
        <symbol id="E4E5-17athb1" viewBox="0 0 1000 1000" overflow="inherit">
            <path transform="scale(1,-1)" d="M107 292c-13 24 -30 49 -52 71c-1 1 0 2 0 3l-2 2c3 3 4 4 6 4c12 0 26 -7 40 -20s44 -40 89 -81c26 -24 28 -29 46 -47c4 -4 8 -9 10 -14c6 -8 8 -16 8 -27c0 -19 -12 -40 -36 -61c-28 -23 -49 -38 -61 -73c-4 -11 -7 -27 -10 -50c13 -43 34 -83 59 -121 c31 -47 59 -79 101 -129c-8 0 -26 7 -54 20l-62 29l-21 6l-23 1c-25 0 -45 -10 -60 -30l-4 -14l-1 -12c0 -33 20 -56 39 -78c8 -9 17 -18 26 -26c17 -15 27 -24 28 -30l-3 -3c-11 5 -19 10 -25 15c-9 3 -37 21 -45 26c-24 14 -45 32 -63 51c-19 21 -37 44 -37 71 c0 63 27 95 80 95c41 0 86 -18 136 -52c-19 26 -37 48 -55 66c-23 23 -48 44 -73 65c-28 23 -47 40 -58 53s-17 26 -18 39c75 64 113 125 113 183c0 27 -7 48 -18 68z"/>
        </symbol>
        <symbol id="E4E6-17athb1" viewBox="0 0 1000 1000" overflow="inherit">
            <path transform="scale(1,-1)" d="M0 123c7 34 33 56 69 60c29 -3 43 -9 53 -29c4 -8 7 -15 10 -22c0 -21 -1 -25 -11 -35c-5 -8 -18 -14 -40 -20l12 -3l15 -1c44 0 97 26 122 56c10 11 18 26 24 42c7 1 15 2 22 3l-140 -424h-36l111 330c-10 -6 -27 -12 -53 -16l-52 -8h-10l-20 1c-1 0 -8 3 -21 6 c-37 9 -55 28 -55 60z"/>
        </symbol>
        <symbol id="E4E2-17athb1" viewBox="0 0 1000 1000" overflow="inherit">
            <path transform="scale(1,-1)" d="M0 10v230c0 8 2 10 10 10h105c8 0 10 -2 10 -10v-230c0 -8 -2 -10 -10 -10h-105c-8 0 -10 2 -10 10z"/>
        </symbol>
    </defs>
    <style type="text/css">g.page-margin{font-family:Times,serif;} g.ending, g.fing, g.reh, g.tempo{font-weight:bold;} g.dir, g.dynam, g.mNum{font-style:italic;} g.label{font-weight:normal;}</style>
    <svg class="definition-scale" color="black" viewBox="0 0 16230 2890">
        <g class="page-margin" transform="translate(500, 500)">
            <g id="mnn0vmg" class="mdiv pageMilestone"/>
            <g id="sav5nlc" class="score pageMilestone"/>
            <g id="s191y3y1" class="system">
                <g id="l1j8uhil" class="label">
                    <text x="1105" y="990" text-anchor="end" font-size="0px">
                        <tspan id="ty1z9cs" class="text">
                            <tspan font-size="405px">Piano</tspan>
                        </tspan>
                    </text>
                </g>
                <g id="s167gteb" class="section systemMilestone"/>
                <g id="pP1_m1" class="measure">
                    <g id="sjg81ho" class="staff">
                        <path d="M1285 540 L3327 540" stroke="currentColor" stroke-width="13"/>
                        <path d="M1285 720 L3327 720" stroke="currentColor" stroke-width="13"/>
                        <path d="M1285 900 L3327 900" stroke="currentColor" stroke-width="13"/>
                        <path d="M1285 1080 L3327 1080" stroke="currentColor" stroke-width="13"/>
                        <path d="M1285 1260 L3327 1260" stroke="currentColor" stroke-width="13"/>
                        <g id="clef1_1" class="clef" visibility="hidden"/>
                        <g id="key1_1" class="keySig" visibility="hidden"/>
                        <g id="time1_1" class="meterSig">
                            <use xlink:href="#E082-17athb1" x="1361" y="720" height="720px" width="720px"/>
                            <use xlink:href="#E084-17athb1" x="1366" y="1080" height="720px" width="720px"/>
                        </g>
                        <g class="ledgerLines below">
                            <path d="M2630 1440 L2952 1440" stroke="currentColor" stroke-width="22"/>
                        </g>
                        <g id="lrejlft" class="layer">
                            <g id="rest1" class="rest">
                                <use xlink:href="#E4E5-17athb1" x="1934" y="900" height="720px" width="720px"/>
                            </g>
                            <g id="note1" class="note">
                                <g class="notehead" id="note1.notehead">
                                    <use xlink:href="#E0A4-17athb1" x="2624" y="990" height="720px" width="720px"/>
                                </g>
                                <g id="note1.stem" class="stem">
                                    <path d="M2633 1018 L2633 1560" stroke="currentColor" stroke-width="18"/>
                                </g>
                            </g>
                        </g>
                        <g id="l1b8ol8u" class="layer">
                            <g id="s3l9qqo" class="space"/>
                            <g id="note2" class="note">
                                <g class="notehead" id="note2.notehead">
                                    <use xlink:href="#E0A4-17athb1" x="2678" y="1440" height="720px" width="720px"/>
                                </g>
                                <g id="note2.stem" class="stem">
                                    <path d="M2687 1468 L2687 1890" stroke="currentColor" stroke-width="18"/>
                                </g>
                            </g>
                        </g>
                    </g>
                    <g id="pP1_m1.right_barline" class="barLine">
                        <path id="pP1_m1.right_barline.barline_tok1" d="M3314 540 L3314 1260" stroke="currentColor" stroke-width="27" class="barline_tok"/>
                    </g>
                </g>
                <g id="pP1_m2" class="measure">
                    <g id="sdckhv3" class="staff">
                        <path d="M3327 540 L4900 540" stroke="currentColor" stroke-width="13"/>
                        <path d="M3327 720 L4900 720" stroke="currentColor" stroke-width="13"/>
                        <path d="M3327 900 L4900 900" stroke="currentColor" stroke-width="13"/>
                        <path d="M3327 1080 L4900 1080" stroke="currentColor" stroke-width="13"/>
                        <path d="M3327 1260 L4900 1260" stroke="currentColor" stroke-width="13"/>
                        <g class="ledgerLines below">
                            <path d="M3459 1440 L3781 1440" stroke="currentColor" stroke-width="22"/>
                        </g>
                        <g id="l4vkmy8" class="layer">
                            <g id="note3" class="note">
                                <g class="notehead" id="note3.notehead">
                                    <use xlink:href="#E0A4-17athb1" x="3507" y="1170" height="720px" width="720px"/>
                                </g>
                                <g id="note3.stem" class="stem">
                                    <path d="M3724 1142 L3724 540" stroke="currentColor" stroke-width="18"/>
                                </g>
                            </g>
                            <g id="rest2" class="space"/>
                        </g>
                        <g id="l1ukv9kv" class="layer">
                            <g id="note4" class="note">
                                <g class="notehead" id="note4.notehead">
                                    <use xlink:href="#E0A4-17athb1" x="3507" y="1440" height="720px" width="720px"/>
                                </g>
                                <g id="note4.stem" class="stem">
                                    <path d="M3516 1468 L3516 1890" stroke="currentColor" stroke-width="18"/>
                                </g>
                            </g>
                            <g id="rest3" class="rest">
                                <use xlink:href="#E4E5-17athb1" x="4197" y="900" height="720px" width="720px"/>
                            </g>
                        </g>
                    </g>
                    <g id="pP1_m2.right_barline" class="barLine">
                        <path id="pP1_m2.right_barline.barline_tok1" d="M4887 540 L4887 1260" stroke="currentColor" stroke-width="27" class="barline_tok"/>
                    </g>
                </g>
                <g id="pP1_m3" class="measure">
                    <g id="svh1yvz" class="staff">
                        <path d="M4900 540 L6143 540" stroke="currentColor" stroke-width="13"/>
                        <path d="M4900 720 L6143 720" stroke="currentColor" stroke-width="13"/>
                        <path d="M4900 900 L6143 900" stroke="currentColor" stroke-width="13"/>
                        <path d="M4900 1080 L6143 1080" stroke="currentColor" stroke-width="13"/>
                        <path d="M4900 1260 L6143 1260" stroke="currentColor" stroke-width="13"/>
                        <g class="ledgerLines below">
                            <path d="M5032 1440 L5354 1440" stroke="currentColor" stroke-width="22"/>
                        </g>
                        <g id="ll8xf9h" class="layer">
                            <g id="note5" class="note">
                                <g class="notehead" id="note5.notehead">
                                    <use xlink:href="#E0A3-17athb1" x="5080" y="1080" height="720px" width="720px"/>
                                </g>
                                <g id="note5.stem" class="stem">
                                    <path d="M5297 1052 L5297 450" stroke="currentColor" stroke-width="18"/>
                                </g>
                            </g>
                        </g>
                        <g id="l190mhop" class="layer">
                            <g id="note6" class="note">
                                <g class="notehead" id="note6.notehead">
                                    <use xlink:href="#E0A3-17athb1" x="5080" y="1440" height="720px" width="720px"/>
                                </g>
                                <g id="note6.stem" class="stem">
                                    <path d="M5089 1465 L5089 1890" stroke="currentColor" stroke-width="18"/>
                                </g>
                            </g>
                        </g>
                    </g>
                    <g id="pP1_m3.right_barline" class="barLine">
                        <path id="pP1_m3.right_barline.barline_tok1" d="M6130 540 L6130 1260" stroke="currentColor" stroke-width="27" class="barline_tok"/>
                    </g>
                </g>
                <g id="pP1_m4" class="measure">
                    <g id="s8sa147" class="staff">
                        <path d="M6143 540 L7386 540" stroke="currentColor" stroke-width="13"/>
                        <path d="M6143 720 L7386 720" stroke="currentColor" stroke-width="13"/>
                        <path d="M6143 900 L7386 900" stroke="currentColor" stroke-width="13"/>
                        <path d="M6143 1080 L7386 1080" stroke="currentColor" stroke-width="13"/>
                        <path d="M6143 1260 L7386 1260" stroke="currentColor" stroke-width="13"/>
                        <g class="ledgerLines below">
                            <path d="M6275 1440 L6597 1440" stroke="currentColor" stroke-width="22"/>
                        </g>
                        <g id="ln121qf" class="layer">
                            <g id="note7" class="note">
                                <g class="notehead" id="note7.notehead">
                                    <use xlink:href="#E0A3-17athb1" x="6323" y="1170" height="720px" width="720px"/>
                                </g>
                                <g id="note7.stem" class="stem">
                                    <path d="M6540 1142 L6540 540" stroke="currentColor" stroke-width="18"/>
                                </g>
                            </g>
                        </g>
                        <g id="lzuas6j" class="layer">
                            <g id="note8" class="note">
                                <g class="notehead" id="note8.notehead">
                                    <use xlink:href="#E0A3-17athb1" x="6323" y="1440" height="720px" width="720px"/>
                                </g>
                                <g id="note8.stem" class="stem">
                                    <path d="M6332 1465 L6332 1890" stroke="currentColor" stroke-width="18"/>
                                </g>
                            </g>
                        </g>
                    </g>
                    <g id="pP1_m4.right_barline" class="barLine">
                        <path id="pP1_m4.right_barline.barline_tok1" d="M7373 540 L7373 1260" stroke="currentColor" stroke-width="27" class="barline_tok"/>
                    </g>
                </g>
                <g id="pP1_m5" class="measure">
                    <g id="s19rload" class="staff">
                        <path d="M7386 540 L8629 540" stroke="currentColor" stroke-width="13"/>
                        <path d="M7386 720 L8629 720" stroke="currentColor" stroke-width="13"/>
                        <path d="M7386 900 L8629 900" stroke="currentColor" stroke-width="13"/>
                        <path d="M7386 1080 L8629 1080" stroke="currentColor" stroke-width="13"/>
                        <path d="M7386 1260 L8629 1260" stroke="currentColor" stroke-width="13"/>
                        <g id="l1vzeohe" class="layer">
                            <g id="note9" class="note">
                                <g class="notehead" id="note9.notehead">
                                    <use xlink:href="#E0A3-17athb1" x="7566" y="1080" height="720px" width="720px"/>
                                </g>
                                <g id="note9.stem" class="stem">
                                    <path d="M7783 1052 L7783 450" stroke="currentColor" stroke-width="18"/>
                                </g>
                            </g>
                        </g>
                        <g id="l1wlho9c" class="layer">
                            <g id="note10" class="note">
                                <g class="notehead" id="note10.notehead">
                                    <use xlink:href="#E0A3-17athb1" x="7566" y="1260" height="720px" width="720px"/>
                                </g>
                                <g id="note10.stem" class="stem">
                                    <path d="M7575 1285 L7575 1740" stroke="currentColor" stroke-width="18"/>
                                </g>
                            </g>
                        </g>
                    </g>
                    <g id="pP1_m5.right_barline" class="barLine">
                        <path id="pP1_m5.right_barline.barline_tok1" d="M8616 540 L8616 1260" stroke="currentColor" stroke-width="27" class="barline_tok"/>
                    </g>
                </g>
                <g id="pP1_m6" class="measure">
                    <g id="si7ifs0" class="staff">
                        <path d="M8629 540 L10202 540" stroke="currentColor" stroke-width="13"/>
                        <path d="M8629 720 L10202 720" stroke="currentColor" stroke-width="13"/>
                        <path d="M8629 900 L10202 900" stroke="currentColor" stroke-width="13"/>
                        <path d="M8629 1080 L10202 1080" stroke="currentColor" stroke-width="13"/>
                        <path d="M8629 1260 L10202 1260" stroke="currentColor" stroke-width="13"/>
                        <g id="lam4jih" class="layer">
                            <g id="note11" class="note">
                                <g class="notehead" id="note11.notehead">
                                    <use xlink:href="#E0A4-17athb1" x="8809" y="1080" height="720px" width="720px"/>
                                </g>
                                <g id="note11.stem" class="stem">
                                    <path d="M9026 1052 L9026 450" stroke="currentColor" stroke-width="18"/>
                                </g>
                            </g>
                            <g id="rest4" class="space"/>
                        </g>
                        <g id="l1im5a9i" class="layer">
                            <g id="note12" class="note">
                                <g class="notehead" id="note12.notehead">
                                    <use xlink:href="#E0A4-17athb1" x="8809" y="1260" height="720px" width="720px"/>
                                </g>
                                <g id="note12.stem" class="stem">
                                    <path d="M8818 1288 L8818 1740" stroke="currentColor" stroke-width="18"/>
                                </g>
                            </g>
                            <g id="rest5" class="rest">
                                <use xlink:href="#E4E5-17athb1" x="9499" y="900" height="720px" width="720px"/>
                            </g>
                        </g>
                    </g>
                    <g id="pP1_m6.right_barline" class="barLine">
                        <path id="pP1_m6.right_barline.barline_tok1" d="M10189 540 L10189 1260" stroke="currentColor" stroke-width="27" class="barline_tok"/>
                    </g>
                </g>
                <g id="pP1_m7" class="measure">
                    <g id="s1fkuhqu" class="staff">
                        <path d="M10202 540 L11579 540" stroke="currentColor" stroke-width="13"/>
                        <path d="M10202 720 L11579 720" stroke="currentColor" stroke-width="13"/>
                        <path d="M10202 900 L11579 900" stroke="currentColor" stroke-width="13"/>
                        <path d="M10202 1080 L11579 1080" stroke="currentColor" stroke-width="13"/>
                        <path d="M10202 1260 L11579 1260" stroke="currentColor" stroke-width="13"/>
                        <g id="lesmuxz" class="layer">
                            <g id="pP1_m7.multi-rest.2" class="multiRest">
                                <use xlink:href="#E4E2-17athb1" x="10832" y="900" height="720px" width="720px"/>
                                <use xlink:href="#E082-17athb1" x="10718" y="270" height="720px" width="720px"/>
                            </g>
                        </g>
                    </g>
                    <g id="pP1_m7.right_barline" class="barLine">
                        <path id="pP1_m7.right_barline.barline_tok1" d="M11566 540 L11566 1260" stroke="currentColor" stroke-width="27" class="barline_tok"/>
                    </g>
                </g>
                <g id="pP1_m9" class="measure">
                    <g id="scy908m" class="staff">
                        <path d="M11579 540 L13152 540" stroke="currentColor" stroke-width="13"/>
                        <path d="M11579 720 L13152 720" stroke="currentColor" stroke-width="13"/>
                        <path d="M11579 900 L13152 900" stroke="currentColor" stroke-width="13"/>
                        <path d="M11579 1080 L13152 1080" stroke="currentColor" stroke-width="13"/>
                        <path d="M11579 1260 L13152 1260" stroke="currentColor" stroke-width="13"/>
                        <g id="l5xc5bz" class="layer">
                            <g id="rest8" class="rest">
                                <use xlink:href="#E4E5-17athb1" x="11759" y="900" height="720px" width="720px"/>
                            </g>
                            <g id="note13" class="note">
                                <g class="notehead" id="note13.notehead">
                                    <use xlink:href="#E0A4-17athb1" x="12449" y="990" height="720px" width="720px"/>
                                </g>
                                <g id="note13.stem" class="stem">
                                    <path d="M12666 962 L12666 360" stroke="currentColor" stroke-width="18"/>
                                </g>
                            </g>
                        </g>
                        <g id="lih9uyu" class="layer">
                            <g id="s1qwrfnh" class="space"/>
                            <g id="rest9" class="rest">
                                <use xlink:href="#E4E5-17athb1" x="12449" y="1620" height="720px" width="720px"/>
                            </g>
                        </g>
                    </g>
                    <g id="pP1_m9.right_barline" class="barLine">
                        <path id="pP1_m9.right_barline.barline_tok1" d="M13139 540 L13139 1260" stroke="currentColor" stroke-width="27" class="barline_tok"/>
                    </g>
                </g>
                <g id="pP1_m10" class="measure">
                    <g id="s5dhl0r" class="staff">
                        <path d="M13152 540 L15233 540" stroke="currentColor" stroke-width="13"/>
                        <path d="M13152 720 L15233 720" stroke="currentColor" stroke-width="13"/>
                        <path d="M13152 900 L15233 900" stroke="currentColor" stroke-width="13"/>
                        <path d="M13152 1080 L15233 1080" stroke="currentColor" stroke-width="13"/>
                        <path d="M13152 1260 L15233 1260" stroke="currentColor" stroke-width="13"/>
                        <g class="ledgerLines below">
                            <path d="M13536 1440 L13858 1440" stroke="currentColor" stroke-width="22"/>
                        </g>
                        <g id="lgc4pp3" class="layer">
                            <g id="note14" class="note">
                                <g class="notehead" id="note14.notehead">
                                    <use xlink:href="#E0A4-17athb1" x="13332" y="990" height="720px" width="720px"/>
                                </g>
                                <g id="note14.stem" class="stem">
                                    <path d="M13549 962 L13549 360" stroke="currentColor" stroke-width="18"/>
                                    <g id="note14.stem.flag" class="flag">
                                        <use xlink:href="#E240-17athb1" x="13540" y="360" height="720px" width="720px"/>
                                    </g>
                                </g>
                            </g>
                            <g id="rest10" class="space"/>
                            <g id="rest11" class="space"/>
                        </g>
                        <g id="l5mrc9m" class="layer">
                            <g id="note15" class="note">
                                <g class="notehead" id="note15.notehead">
                                    <use xlink:href="#E0A4-17athb1" x="13584" y="1440" height="720px" width="720px"/>
                                </g>
                                <g id="note15.stem" class="stem">
                                    <path d="M13801 1412 L13801 810" stroke="currentColor" stroke-width="18"/>
                                    <g id="note15.stem.flag" class="flag">
                                        <use xlink:href="#E240-17athb1" x="13792" y="810" height="720px" width="720px"/>
                                    </g>
                                </g>
                            </g>
                            <g id="rest12" class="rest">
                                <use xlink:href="#E4E6-17athb1" x="14080" y="900" height="720px" width="720px"/>
                            </g>
                            <g id="rest13" class="rest">
                                <use xlink:href="#E4E5-17athb1" x="14530" y="900" height="720px" width="720px"/>
                            </g>
                        </g>
                    </g>
                    <g id="pP1_m10.right_barline" class="barLine">
                        <path id="pP1_m10.right_barline.barline_tok1" d="M15220 540 L15220 1260" stroke="currentColor" stroke-width="27" class="barline_tok"/>
                    </g>
                </g>
                <g id="spoh9wy" class="systemMilestoneEnd s167gteb"/>
            </g>
            <g id="p1gfp24b" class="pageMilestoneEnd sav5nlc"/>
            <g id="p795o4i" class="pageMilestoneEnd mnn0vmg"/>
        </g>
    </svg>
</svg>