<svg xmlns="http://www.w3.org/2000/svg" xmlns:xlink="http://www.w3.org/1999/xlink" xmlns:mei="http://www.music-encoding.org/ns/mei" width="2385px" height="280px" version="1.1" overflow="visible">
    <desc>Engraved by Verovio 4.3.0-dev-ba68db3-dirty</desc>
    <defs>
        <symbol id="E0A3-qumqsg" viewBox="0 0 1000 1000" overflow="inherit">
            <path transform="scale(1,-1)" d="M278 64c0 22 -17 39 -43 39c-12 0 -26 -3 -41 -10c-85 -43 -165 -94 -165 -156c5 -25 15 -32 49 -32c67 11 200 95 200 159zM0 -36c0 68 73 174 200 174c66 0 114 -39 114 -97c0 -84 -106 -173 -218 -173c-64 0 -96 32 -96 96z"/>
        </symbol>
        <symbol id="E082-qumqsg" viewBox="0 0 1000 1000" overflow="inherit">
            <path transform="scale(1,-1)" d="M124 -185c-18 0 -55 -14 -65 -65h-36l-3 30c0 25 6 45 18 63c11 19 22 30 39 43l121 82l37 29c15 11 27 29 38 54c12 24 18 47 18 70c0 40 -19 88 -94 88c-25 0 -32 0 -50 -8c-14 -5 -23 -12 -26 -22c3 -9 7 -15 10 -18l24 -17c12 -7 17 -11 27 -21c5 -7 7 -16 7 -27 c0 -12 0 -57 -79 -74c-30 0 -76 26 -76 94c0 66 81 135 197 135c72 0 181 -32 181 -150c0 -53 -32 -95 -113 -133l-91 -41c-26 -11 -45 -23 -57 -37l49 7c84 0 115 -41 148 -41c20 0 33 20 39 61h35c0 -152 -68 -168 -114 -168c-17 0 -65 0 -79 7h10l-28 17 c-49 37 -69 40 -87 42z"/>
        </symbol>
        <symbol id="E083-qumqsg" viewBox="0 0 1000 1000" overflow="inherit">
            <path transform="scale(1,-1)" d="M208 250c97 0 177 -52 177 -116c0 -69 -40 -111 -118 -125c56 -5 125 -44 125 -116c0 -31 -10 -57 -31 -78c-19 -21 -45 -38 -78 -49l-50 -11c-15 -3 -36 -7 -55 -7c-50 0 -86 16 -113 38c-16 10 -23 18 -34 34c-7 13 -11 25 -11 38c0 43 27 83 68 83l3 -2 c61 0 75 -42 75 -70c0 -19 -24 -42 -26 -57c7 -17 20 -25 37 -25c44 0 94 29 94 78c0 75 -34 125 -138 125v36c84 0 131 22 131 98c0 54 -37 88 -87 88c-26 0 -43 -7 -51 -22c15 -22 44 -16 44 -70c0 -37 -37 -62 -71 -62c-22 0 -69 15 -69 76c0 79 101 116 178 116z"/>
        </symbol>
        <symbol id="E084-qumqsg" viewBox="0 0 1000 1000" overflow="inherit">
            <path transform="scale(1,-1)" d="M20 -78c84 97 114 180 134 329h170c-13 -32 -82 -132 -99 -151l-84 -97c-33 -36 -59 -63 -80 -81h162v102l127 123v-225h57v-39h-57v-34c0 -43 19 -65 57 -65v-34h-244v36c48 0 60 26 60 70v27h-203v39z"/>
        </symbol>
        <symbol id="E0A4-qumqsg" viewBox="0 0 1000 1000" overflow="inherit">
            <path transform="scale(1,-1)" d="M0 -39c0 68 73 172 200 172c66 0 114 -37 114 -95c0 -84 -106 -171 -218 -171c-64 0 -96 30 -96 94z"/>
        </symbol>
        <symbol id="E241-qumqsg" viewBox="0 0 1000 1000" overflow="inherit">
            <path transform="scale(1,-1)" d="M179 646c-4 8 -17 30 -18 33l-4 10c0 3 2 5 5 5s7 -2 13 -7c23 -33 46 -81 66 -132c22 -57 35 -125 35 -163c0 -104 -60 -183 -122 -241c-63 -59 -57 -53 -61 -56c-38 -34 -63 -95 -71 -95h-22v190c40 7 69 11 87 16c88 27 168 95 168 200c0 30 -12 89 -30 138 c-17 47 -31 73 -46 102z"/>
        </symbol>
        <symbol id="E4E5-qumqsg" viewBox="0 0 1000 1000" overflow="inherit">
            <path transform="scale(1,-1)" d="M107 292c-13 24 -30 49 -52 71c-1 1 0 2 0 3l-2 2c3 3 4 4 6 4c12 0 26 -7 40 -20s44 -40 89 -81c26 -24 28 -29 46 -47c4 -4 8 -9 10 -14c6 -8 8 -16 8 -27c0 -19 -12 -40 -36 -61c-28 -23 -49 -38 -61 -73c-4 -11 -7 -27 -10 -50c13 -43 34 -83 59 -121 c31 -47 59 -79 101 -129c-8 0 -26 7 -54 20l-62 29l-21 6l-23 1c-25 0 -45 -10 -60 -30l-4 -14l-1 -12c0 -33 20 -56 39 -78c8 -9 17 -18 26 -26c17 -15 27 -24 28 -30l-3 -3c-11 5 -19 10 -25 15c-9 3 -37 21 -45 26c-24 14 -45 32 -63 51c-19 21 -37 44 -37 71 c0 63 27 95 80 95c41 0 86 -18 136 -52c-19 26 -37 48 -55 66c-23 23 -48 44 -73 65c-28 23 -47 40 -58 53s-17 26 -18 39c75 64 113 125 113 183c0 27 -7 48 -18 68z"/>
        </symbol>
        <symbol id="E4E6-qumqsg" viewBox="0 0 1000 1000" overflow="inherit">
            <path transform="scale(1,-1)" d="M0 123c7 34 33 56 69 60c29 -3 43 -9 53 -29c4 -8 7 -15 10 -22c0 -21 -1 -25 -11 -35c-5 -8 -18 -14 -40 -20l12 -3l15 -1c44 0 97 26 122 56c10 11 18 26 24 42c7 1 15 2 22 3l-140 -424h-36l111 330c-10 -6 -27 -12 -53 -16l-52 -8h-10l-20 1c-1 0 -8 3 -21 6 c-37 9 -55 28 -55 60z"/>
        </symbol>
        <symbol id="E4E3-qumqsg" viewBox="0 0 1000 1000" overflow="inherit">
            <path transform="scale(1,-1)" d="M0 -115v105c0 9 1 10 10 10h280c9 0 10 -1 10 -10v-105c0 -9 -1 -10 -10 -10h-280c-9 0 -10 1 -10 10z"/>
        </symbol>
        <symbol id="E4E2-qumqsg" viewBox="0 0 1000 1000" overflow="inherit">
            <path transform="scale(1,-1)" d="M0 10v230c0 8 2 10 10 10h105c8 0 10 -2 10 -10v-230c0 -8 -2 -10 -10 -10h-105c-8 0 -10 2 -10 10z"/>
        </symbol>
    </defs>
    <style type="text/css">g.page-margin{font-family:Times,serif;} g.ending, g.fing, g.reh, g.tempo{font-weight:bold;} g.dir, g.dynam, g.mNum{font-style:italic;} g.label{font-weight:normal;}</style>
    <svg class="definition-scale" color="black" viewBox="0 0 23850 2800">
        <g class="page-margin" transform="translate(500, 500)">
            <g id="mpiaumb" class="mdiv pageMilestone"/>
            <g id="s1f9j229" class="score pageMilestone"/>
            <g id="s1ef2em" class="system">
                <g id="lsbtrx1" class="label">
                    <text x="1105" y="990" text-anchor="end" font-size="0px">
                        <tspan id="t1aesenp" class="text">
                            <tspan font-size="405px">Piano</tspan>
                        </tspan>
                    </text>
                </g>
                <g id="s16djz8u" class="section systemMilestone"/>
                <g id="pP1_m1" class="measure">
                    <g id="s1qhv6m3" class="staff">
                        <path d="M1285 540 L2997 540" stroke="currentColor" stroke-width="13"/>
                        <path d="M1285 720 L2997 720" stroke="currentColor" stroke-width="13"/>
                        <path d="M1285 900 L2997 900" stroke="currentColor" stroke-width="13"/>
                        <path d="M1285 1080 L2997 1080" stroke="currentColor" stroke-width="13"/>
                        <path d="M1285 1260 L2997 1260" stroke="currentColor" stroke-width="13"/>
                        <g id="clef1_1" class="clef" visibility="hidden"/>
                        <g id="key1_1" class="keySig" visibility="hidden"/>
                        <g id="time1_1" class="meterSig">
                            <use xlink:href="#E082-qumqsg" x="1361" y="720" height="720px" width="720px"/>
                            <use xlink:href="#E084-qumqsg" x="1366" y="1080" height="720px" width="720px"/>
                        </g>
                        <g id="l1nm5cmj" class="layer">
                            <g id="note1" class="note">
                                <g class="notehead" id="note1.notehead">
                                    <use xlink:href="#E0A3-qumqsg" x="1934" y="1080" height="720px" width="720px"/>
                                </g>
                                <g id="note1.stem" class="stem">
                                    <path d="M1943 1105 L1943 1620" stroke="currentColor" stroke-width="18"/>
                                </g>
                            </g>
                        </g>
                    </g>
                    <g id="pP1_m1.right_barline" class="barLine">
                        <path id="pP1_m1.right_barline.barline_tok1" d="M2984 540 L2984 1260" stroke="currentColor" stroke-width="27" class="barline_tok"/>
                    </g>
                </g>
                <g id="pP1_m2" class="measure">
                    <g id="s1qa3o7k" class="staff">
                        <path d="M2997 540 L4780 540" stroke="currentColor" stroke-width="13"/>
                        <path d="M2997 720 L4780 720" stroke="currentColor" stroke-width="13"/>
                        <path d="M2997 900 L4780 900" stroke="currentColor" stroke-width="13"/>
                        <path d="M2997 1080 L4780 1080" stroke="currentColor" stroke-width="13"/>
                        <path d="M2997 1260 L4780 1260" stroke="currentColor" stroke-width="13"/>
                        <g id="l1lm949v" class="layer">
                            <g id="note2" class="note">
                                <g class="notehead" id="note2.notehead">
                                    <use xlink:href="#E0A4-qumqsg" x="3177" y="990" height="720px" width="720px"/>
                                </g>
                                <g id="note2.stem" class="stem">
                                    <path d="M3186 1018 L3186 1560" stroke="currentColor" stroke-width="18"/>
                                    <g id="note2.stem.flag" class="flag">
                                        <use xlink:href="#E241-qumqsg" x="3177" y="1560" height="720px" width="720px"/>
                                    </g>
                                </g>
                            </g>
                            <g id="rest1" class="rest">
                                <use xlink:href="#E4E6-qumqsg" x="3627" y="900" height="720px" width="720px"/>
                            </g>
                            <g id="rest2" class="rest">
                                <use xlink:href="#E4E5-qumqsg" x="4077" y="900" height="720px" width="720px"/>
                            </g>
                        </g>
                    </g>
                    <g id="pP1_m2.right_barline" class="barLine">
                        <path id="pP1_m2.right_barline.barline_tok1" d="M4767 540 L4767 1260" stroke="currentColor" stroke-width="27" class="barline_tok"/>
                    </g>
                </g>
                <g id="pP1_m3" class="measure">
                    <g id="s1dxi1xz" class="staff">
                        <path d="M4780 540 L6157 540" stroke="currentColor" stroke-width="13"/>
                        <path d="M4780 720 L6157 720" stroke="currentColor" stroke-width="13"/>
                        <path d="M4780 900 L6157 900" stroke="currentColor" stroke-width="13"/>
                        <path d="M4780 1080 L6157 1080" stroke="currentColor" stroke-width="13"/>
                        <path d="M4780 1260 L6157 1260" stroke="currentColor" stroke-width="13"/>
                        <g id="l19ornyd" class="layer">
                            <g id="pP1_m3.multi-rest.3" class="multiRest">
                                <use xlink:href="#E4E2-qumqsg" x="5257" y="900" height="720px" width="720px"/>
                                <use xlink:href="#E4E3-qumqsg" x="5437" y="720" height="720px" width="720px"/>
                                <use xlink:href="#E083-qumqsg" x="5307" y="270" height="720px" width="720px"/>
                            </g>
                        </g>
                    </g>
                    <g id="pP1_m3.right_barline" class="barLine">
                        <path id="pP1_m3.right_barline.barline_tok1" d="M6144 540 L6144 1260" stroke="currentColor" stroke-width="27" class="barline_tok"/>
                    </g>
                </g>
                <g id="pP1_m6" class="measure">
                    <g id="s1e8fkfk" class="staff">
                        <path d="M6157 540 L7730 540" stroke="currentColor" stroke-width="13"/>
                        <path d="M6157 720 L7730 720" stroke="currentColor" stroke-width="13"/>
                        <path d="M6157 900 L7730 900" stroke="currentColor" stroke-width="13"/>
                        <path d="M6157 1080 L7730 1080" stroke="currentColor" stroke-width="13"/>
                        <path d="M6157 1260 L7730 1260" stroke="currentColor" stroke-width="13"/>
                        <g id="lica8a4" class="layer">
                            <g id="rest6" class="rest">
                                <use xlink:href="#E4E5-qumqsg" x="6337" y="900" height="720px" width="720px"/>
                            </g>
                            <g id="note3" class="note">
                                <g class="notehead" id="note3.notehead">
                                    <use xlink:href="#E0A4-qumqsg" x="7027" y="990" height="720px" width="720px"/>
                                </g>
                                <g id="note3.stem" class="stem">
                                    <path d="M7244 962 L7244 360" stroke="currentColor" stroke-width="18"/>
                                </g>
                            </g>
                        </g>
                    </g>
                    <g id="pP1_m6.right_barline" class="barLine">
                        <path id="pP1_m6.right_barline.barline_tok1" d="M7717 540 L7717 1260" stroke="currentColor" stroke-width="27" class="barline_tok"/>
                    </g>
                </g>
                <g id="pP1_m7" class="measure">
                    <g id="s1mwt9jo" class="staff">
                        <path d="M7730 540 L9303 540" stroke="currentColor" stroke-width="13"/>
                        <path d="M7730 720 L9303 720" stroke="currentColor" stroke-width="13"/>
                        <path d="M7730 900 L9303 900" stroke="currentColor" stroke-width="13"/>
                        <path d="M7730 1080 L9303 1080" stroke="currentColor" stroke-width="13"/>
                        <path d="M7730 1260 L9303 1260" stroke="currentColor" stroke-width="13"/>
                        <g id="l14ur5c4" class="layer">
                            <g id="note4" class="note">
                                <g class="notehead" id="note4.notehead">
                                    <use xlink:href="#E0A4-qumqsg" x="7910" y="1170" height="720px" width="720px"/>
                                </g>
                                <g id="note4.stem" class="stem">
                                    <path d="M8127 1142 L8127 540" stroke="currentColor" stroke-width="18"/>
                                </g>
                            </g>
                            <g id="rest7" class="rest">
                                <use xlink:href="#E4E5-qumqsg" x="8600" y="900" height="720px" width="720px"/>
                            </g>
                        </g>
                    </g>
                    <g id="pP1_m7.right_barline" class="barLine">
                        <path id="pP1_m7.right_barline.barline_tok1" d="M9290 540 L9290 1260" stroke="currentColor" stroke-width="27" class="barline_tok"/>
                    </g>
                </g>
                <g id="pP1_m8" class="measure">
                    <g id="s1g84vow" class="staff">
                        <path d="M9303 540 L10546 540" stroke="currentColor" stroke-width="13"/>
                        <path d="M9303 720 L10546 720" stroke="currentColor" stroke-width="13"/>
                        <path d="M9303 900 L10546 900" stroke="currentColor" stroke-width="13"/>
                        <path d="M9303 1080 L10546 1080" stroke="currentColor" stroke-width="13"/>
                        <path d="M9303 1260 L10546 1260" stroke="currentColor" stroke-width="13"/>
                        <g id="l1pgb4lf" class="layer">
                            <g id="note5" class="note">
                                <g class="notehead" id="note5.notehead">
                                    <use xlink:href="#E0A3-qumqsg" x="9483" y="1080" height="720px" width="720px"/>
                                </g>
                                <g id="note5.stem" class="stem">
                                    <path d="M9700 1052 L9700 450" stroke="currentColor" stroke-width="18"/>
                                </g>
                            </g>
                        </g>
                    </g>
                    <g id="pP1_m8.right_barline" class="barLine">
                        <path id="pP1_m8.right_barline.barline_tok1" d="M10533 540 L10533 1260" stroke="currentColor" stroke-width="27" class="barline_tok"/>
                    </g>
                </g>
                <g id="pP1_m9" class="measure">
                    <g id="sbq8fhn" class="staff">
                        <path d="M10546 540 L11789 540" stroke="currentColor" stroke-width="13"/>
                        <path d="M10546 720 L11789 720" stroke="currentColor" stroke-width="13"/>
                        <path d="M10546 900 L11789 900" stroke="currentColor" stroke-width="13"/>
                        <path d="M10546 1080 L11789 1080" stroke="currentColor" stroke-width="13"/>
                        <path d="M10546 1260 L11789 1260" stroke="currentColor" stroke-width="13"/>
                        <g id="l463ls5" class="layer">
                            <g id="note6" class="note">
                                <g class="notehead" id="note6.notehead">
                                    <use xlink:href="#E0A3-qumqsg" x="10726" y="1170" height="720px" width="720px"/>
                                </g>
                                <g id="note6.stem" class="stem">
                                    <path d="M10943 1142 L10943 540" stroke="currentColor" stroke-width="18"/>
                                </g>
                            </g>
                        </g>
                    </g>
                    <g id="pP1_m9.right_barline" class="barLine">
                        <path id="pP1_m9.right_barline.barline_tok1" d="M11776 540 L11776 1260" stroke="currentColor" stroke-width="27" class="barline_tok"/>
                    </g>
                </g>
                <g id="pP1_m10" class="measure">
                    <g id="s10joymh" class="staff">
                        <path d="M11789 540 L13032 540" stroke="currentColor" stroke-width="13"/>
                        <path d="M11789 720 L13032 720" stroke="currentColor" stroke-width="13"/>
                        <path d="M11789 900 L13032 900" stroke="currentColor" stroke-width="13"/>
                        <path d="M11789 1080 L13032 1080" stroke="currentColor" stroke-width="13"/>
                        <path d="M11789 1260 L13032 1260" stroke="currentColor" stroke-width="13"/>
                        <g id="laupxku" class="layer">
                            <g id="note7" class="note">
                                <g class="notehead" id="note7.notehead">
                                    <use xlink:href="#E0A3-qumqsg" x="11969" y="1080" height="720px" width="720px"/>
                                </g>
                                <g id="note7.stem" class="stem">
                                    <path d="M12186 1052 L12186 450" stroke="currentColor" stroke-width="18"/>
                                </g>
                            </g>
                        </g>
                    </g>
                    <g id="pP1_m10.right_barline" class="barLine">
                        <path id="pP1_m10.right_barline.barline_tok1" d="M13019 540 L13019 1260" stroke="currentColor" stroke-width="27" class="barline_tok"/>
                    </g>
                </g>
                <g id="pP1_m11" class="measure">
                    <g id="s8zv1n3" class="staff">
                        <path d="M13032 540 L14605 540" stroke="currentColor" stroke-width="13"/>
                        <path d="M13032 720 L14605 720" stroke="currentColor" stroke-width="13"/>
                        <path d="M13032 900 L14605 900" stroke="currentColor" stroke-width="13"/>
                        <path d="M13032 1080 L14605 1080" stroke="currentColor" stroke-width="13"/>
                        <path d="M13032 1260 L14605 1260" stroke="currentColor" stroke-width="13"/>
                        <g id="lzsiecd" class="layer">
                            <g id="note8" class="note">
                                <g class="notehead" id="note8.notehead">
                                    <use xlink:href="#E0A4-qumqsg" x="13212" y="1260" height="720px" width="720px"/>
                                </g>
                                <g id="note8.stem" class="stem">
                                    <path d="M13429 1232 L13429 630" stroke="currentColor" stroke-width="18"/>
                                </g>
                            </g>
                            <g id="rest8" class="rest">
                                <use xlink:href="#E4E5-qumqsg" x="13902" y="900" height="720px" width="720px"/>
                            </g>
                        </g>
                    </g>
                    <g id="pP1_m11.right_barline" class="barLine">
                        <path id="pP1_m11.right_barline.barline_tok1" d="M14592 540 L14592 1260" stroke="currentColor" stroke-width="27" class="barline_tok"/>
                    </g>
                </g>
                <g id="pP1_m12" class="measure">
                    <g id="srw4omw" class="staff">
                        <path d="M14605 540 L15982 540" stroke="currentColor" stroke-width="13"/>
                        <path d="M14605 720 L15982 720" stroke="currentColor" stroke-width="13"/>
                        <path d="M14605 900 L15982 900" stroke="currentColor" stroke-width="13"/>
                        <path d="M14605 1080 L15982 1080" stroke="currentColor" stroke-width="13"/>
                        <path d="M14605 1260 L15982 1260" stroke="currentColor" stroke-width="13"/>
                        <g id="l1bygx7p" class="layer">
                            <g id="pP1_m12.multi-rest.2" class="multiRest">
                                <use xlink:href="#E4E2-qumqsg" x="15235" y="900" height="720px" width="720px"/>
                                <use xlink:href="#E082-qumqsg" x="15121" y="270" height="720px" width="720px"/>
                            </g>
                        </g>
                    </g>
                    <g id="pP1_m12.right_barline" class="barLine">
                        <path id="pP1_m12.right_barline.barline_tok1" d="M15969 540 L15969 1260" stroke="currentColor" stroke-width="27" class="barline_tok"/>
                    </g>
                </g>
                <g id="pP1_m14" class="measure">
                    <g id="s33gwx" class="staff">
                        <path d="M15982 540 L17555 540" stroke="currentColor" stroke-width="13"/>
                        <path d="M15982 720 L17555 720" stroke="currentColor" stroke-width="13"/>
                        <path d="M15982 900 L17555 900" stroke="currentColor" stroke-width="13"/>
                        <path d="M15982 1080 L17555 1080" stroke="currentColor" stroke-width="13"/>
                        <path d="M15982 1260 L17555 1260" stroke="currentColor" stroke-width="13"/>
                        <g id="lczj0l" class="layer">
                            <g id="rest11" class="rest">
                                <use xlink:href="#E4E5-qumqsg" x="16162" y="900" height="720px" width="720px"/>
                            </g>
                            <g id="note9" class="note">
                                <g class="notehead" id="note9.notehead">
                                    <use xlink:href="#E0A4-qumqsg" x="16852" y="1080" height="720px" width="720px"/>
                                </g>
                                <g id="note9.stem" class="stem">
                                    <path d="M17069 1052 L17069 450" stroke="currentColor" stroke-width="18"/>
                                </g>
                            </g>
                        </g>
                    </g>
                    <g id="pP1_m14.right_barline" class="barLine">
                        <path id="pP1_m14.right_barline.barline_tok1" d="M17542 540 L17542 1260" stroke="currentColor" stroke-width="27" class="barline_tok"/>
                    </g>
                </g>
                <g id="pP1_m15" class="measure">
                    <g id="s1f9ampu" class="staff">
                        <path d="M17555 540 L19128 540" stroke="currentColor" stroke-width="13"/>
                        <path d="M17555 720 L19128 720" stroke="currentColor" stroke-width="13"/>
                        <path d="M17555 900 L19128 900" stroke="currentColor" stroke-width="13"/>
                        <path d="M17555 1080 L19128 1080" stroke="currentColor" stroke-width="13"/>
                        <path d="M17555 1260 L19128 1260" stroke="currentColor" stroke-width="13"/>
                        <g id="lkks4as" class="layer">
                            <g id="note10" class="note">
                                <g class="notehead" id="note10.notehead">
                                    <use xlink:href="#E0A4-qumqsg" x="17735" y="1260" height="720px" width="720px"/>
                                </g>
                                <g id="note10.stem" class="stem">
                                    <path d="M17952 1232 L17952 630" stroke="currentColor" stroke-width="18"/>
                                </g>
                            </g>
                            <g id="rest12" class="rest">
                                <use xlink:href="#E4E5-qumqsg" x="18425" y="900" height="720px" width="720px"/>
                            </g>
                        </g>
                    </g>
                    <g id="pP1_m15.right_barline" class="barLine">
                        <path id="pP1_m15.right_barline.barline_tok1" d="M19115 540 L19115 1260" stroke="currentColor" stroke-width="27" class="barline_tok"/>
                    </g>
                </g>
                <g id="pP1_m16" class="measure">
                    <g id="srtu7lg" class="staff">
                        <path d="M19128 540 L20371 540" stroke="currentColor" stroke-width="13"/>
                        <path d="M19128 720 L20371 720" stroke="currentColor" stroke-width="13"/>
                        <path d="M19128 900 L20371 900" stroke="currentColor" stroke-width="13"/>
                        <path d="M19128 1080 L20371 1080" stroke="currentColor" stroke-width="13"/>
                        <path d="M19128 1260 L20371 1260" stroke="currentColor" stroke-width="13"/>
                        <g id="ld5y89c" class="layer">
                            <g id="note11" class="note">
                                <g class="notehead" id="note11.notehead">
                                    <use xlink:href="#E0A3-qumqsg" x="19308" y="1350" height="720px" width="720px"/>
                                </g>
                                <g id="note11.stem" class="stem">
                                    <path d="M19525 1322 L19525 720" stroke="currentColor" stroke-width="18"/>
                                </g>
                            </g>
                        </g>
                    </g>
                    <g id="pP1_m16.right_barline" class="barLine">
                        <path id="pP1_m16.right_barline.barline_tok1" d="M20358 540 L20358 1260" stroke="currentColor" stroke-width="27" class="barline_tok"/>
                    </g>
                </g>
                <g id="pP1_m17" class="measure">
                    <g id="s1s3t9ea" class="staff">
                        <path d="M20371 540 L21614 540" stroke="currentColor" stroke-width="13"/>
                        <path d="M20371 720 L21614 720" stroke="currentColor" stroke-width="13"/>
                        <path d="M20371 900 L21614 900" stroke="currentColor" stroke-width="13"/>
                        <path d="M20371 1080 L21614 1080" stroke="currentColor" stroke-width="13"/>
                        <path d="M20371 1260 L21614 1260" stroke="currentColor" stroke-width="13"/>
                        <g class="ledgerLines below">
                            <path d="M20503 1440 L20825 1440" stroke="currentColor" stroke-width="22"/>
                        </g>
                        <g id="lnny43p" class="layer">
                            <g id="note12" class="note">
                                <g class="notehead" id="note12.notehead">
                                    <use xlink:href="#E0A3-qumqsg" x="20551" y="1440" height="720px" width="720px"/>
                                </g>
                                <g id="note12.stem" class="stem">
                                    <path d="M20768 1412 L20768 810" stroke="currentColor" stroke-width="18"/>
                                </g>
                            </g>
                        </g>
                    </g>
                    <g id="pP1_m17.right_barline" class="barLine">
                        <path id="pP1_m17.right_barline.barline_tok1" d="M21601 540 L21601 1260" stroke="currentColor" stroke-width="27" class="barline_tok"/>
                    </g>
                </g>
                <g id="pP1_m18" class="measure">
                    <g id="sc6j4lw" class="staff">
                        <path d="M21614 540 L22857 540" stroke="currentColor" stroke-width="13"/>
                        <path d="M21614 720 L22857 720" stroke="currentColor" stroke-width="13"/>
                        <path d="M21614 900 L22857 900" stroke="currentColor" stroke-width="13"/>
                        <path d="M21614 1080 L22857 1080" stroke="currentColor" stroke-width="13"/>
                        <path d="M21614 1260 L22857 1260" stroke="currentColor" stroke-width="13"/>
                        <g id="lv257xj" class="layer">
                            <g id="note13" class="note">
                                <g class="notehead" id="note13.notehead">
                                    <use xlink:href="#E0A3-qumqsg" x="21794" y="1350" height="720px" width="720px"/>
                                </g>
                                <g id="note13.stem" class="stem">
                                    <path d="M22011 1322 L22011 720" stroke="currentColor" stroke-width="18"/>
                                </g>
                            </g>
                        </g>
                    </g>
                    <g id="pP1_m18.right_barline" class="barLine">
                        <path id="pP1_m18.right_barline.barline_tok1" d="M22844 540 L22844 1260" stroke="currentColor" stroke-width="27" class="barline_tok"/>
                    </g>
                </g>
                <g id="s16vyi0i" class="systemMilestoneEnd s16djz8u"/>
            </g>
            <g id="p17pkvce" class="pageMilestoneEnd s1f9j229"/>
            <g id="poh46cl" class="pageMilestoneEnd mpiaumb"/>
        </g>
    </svg>
</svg>