<svg xmlns="http://www.w3.org/2000/svg" xmlns:xlink="http://www.w3.org/1999/xlink" xmlns:mei="http://www.music-encoding.org/ns/mei" width="1535px" height="280px" version="1.1" overflow="visible">
    <desc>Engraved by Verovio 4.3.0-dev-ba68db3-dirty</desc>
    <defs>
        <symbol id="E082-1y19nra" viewBox="0 0 1000 1000" overflow="inherit">
            <path transform="scale(1,-1)" d="M124 -185c-18 0 -55 -14 -65 -65h-36l-3 30c0 25 6 45 18 63c11 19 22 30 39 43l121 82l37 29c15 11 27 29 38 54c12 24 18 47 18 70c0 40 -19 88 -94 88c-25 0 -32 0 -50 -8c-14 -5 -23 -12 -26 -22c3 -9 7 -15 10 -18l24 -17c12 -7 17 -11 27 -21c5 -7 7 -16 7 -27 c0 -12 0 -57 -79 -74c-30 0 -76 26 -76 94c0 66 81 135 197 135c72 0 181 -32 181 -150c0 -53 -32 -95 -113 -133l-91 -41c-26 -11 -45 -23 -57 -37l49 7c84 0 115 -41 148 -41c20 0 33 20 39 61h35c0 -152 -68 -168 -114 -168c-17 0 -65 0 -79 7h10l-28 17 c-49 37 -69 40 -87 42z"/>
        </symbol>
        <symbol id="E084-1y19nra" viewBox="0 0 1000 1000" overflow="inherit">
            <path transform="scale(1,-1)" d="M20 -78c84 97 114 180 134 329h170c-13 -32 -82 -132 -99 -151l-84 -97c-33 -36 -59 -63 -80 -81h162v102l127 123v-225h57v-39h-57v-34c0 -43 19 -65 57 -65v-34h-244v36c48 0 60 26 60 70v27h-203v39z"/>
        </symbol>
        <symbol id="E0A4-1y19nra" viewBox="0 0 1000 1000" overflow="inherit">
            <path transform="scale(1,-1)" d="M0 -39c0 68 73 172 200 172c66 0 114 -37 114 -95c0 -84 -106 -171 -218 -171c-64 0 -96 30 -96 94z"/>
        </symbol>
        <symbol id="E050-1y19nra" viewBox="0 0 1000 1000" overflow="inherit">
            <path transform="scale(1,-1)" d="M441 -245c-23 -4 -48 -6 -76 -6c-59 0 -102 7 -130 20c-88 42 -150 93 -187 154c-26 44 -43 103 -48 176c0 6 -1 13 -1 19c0 54 15 111 45 170c29 57 65 106 110 148s96 85 153 127c-3 16 -8 46 -13 92c-4 43 -5 73 -5 89c0 117 16 172 69 257c34 54 64 82 89 82 c21 0 43 -30 69 -92s39 -115 41 -159v-15c0 -109 -21 -162 -67 -241c-13 -20 -63 -90 -98 -118c-13 -9 -25 -19 -37 -29l31 -181c8 1 18 2 28 2c58 0 102 -12 133 -35c59 -43 92 -104 98 -184c1 -7 1 -15 1 -22c0 -123 -87 -209 -181 -248c8 -57 17 -110 25 -162 c5 -31 6 -58 6 -80c0 -30 -5 -53 -14 -70c-35 -64 -88 -99 -158 -103c-5 0 -11 -1 -16 -1c-37 0 -72 10 -108 27c-50 24 -77 59 -80 105v11c0 29 7 55 20 76c18 28 45 42 79 44h6c49 0 93 -42 97 -87v-9c0 -51 -34 -86 -105 -106c17 -24 51 -36 102 -36c62 0 116 43 140 85 c9 16 13 41 13 74c0 20 -1 42 -5 67c-8 53 -18 106 -26 159zM461 939c-95 0 -135 -175 -135 -286c0 -24 2 -48 5 -71c50 39 92 82 127 128c40 53 60 100 60 140v8c-4 53 -22 81 -55 81h-2zM406 119l54 -326c73 25 110 78 110 161c0 7 0 15 -1 23c-7 95 -57 142 -151 142h-12 zM382 117c-72 -2 -128 -47 -128 -120v-7c2 -46 43 -99 75 -115c-3 -2 -7 -5 -10 -10c-70 33 -116 88 -123 172v11c0 68 44 126 88 159c23 17 49 29 78 36l-29 170c-21 -13 -52 -37 -92 -73c-50 -44 -86 -84 -109 -119c-45 -69 -67 -130 -67 -182v-13c5 -68 35 -127 93 -176 s125 -73 203 -73c25 0 50 3 75 9c-19 111 -36 221 -54 331z"/>
        </symbol>
        <symbol id="E262-1y19nra" viewBox="0 0 1000 1000" overflow="inherit">
            <path transform="scale(1,-1)" d="M136 186v169h17v-164l44 14v-91l-44 -14v-165l44 12v-91l-44 -13v-155h-17v150l-76 -22v-155h-17v149l-43 -13v90l43 14v167l-43 -14v92l43 13v169h17v-163zM60 73v-167l76 22v168z"/>
        </symbol>
        <symbol id="E4E6-1y19nra" viewBox="0 0 1000 1000" overflow="inherit">
            <path transform="scale(1,-1)" d="M0 123c7 34 33 56 69 60c29 -3 43 -9 53 -29c4 -8 7 -15 10 -22c0 -21 -1 -25 -11 -35c-5 -8 -18 -14 -40 -20l12 -3l15 -1c44 0 97 26 122 56c10 11 18 26 24 42c7 1 15 2 22 3l-140 -424h-36l111 330c-10 -6 -27 -12 -53 -16l-52 -8h-10l-20 1c-1 0 -8 3 -21 6 c-37 9 -55 28 -55 60z"/>
        </symbol>
        <symbol id="E882-1y19nra" viewBox="0 0 1000 1000" overflow="inherit">
            <path transform="scale(1,-1)" d="M166 311c60 0 94 -21 94 -80c0 -27 -12 -51 -40 -64l-70 -32c-37 -10 -69 -30 -96 -60h21l26 -2l12 -6c14 -6 28 -11 42 -17c6 -3 13 -4 21 -4l15 4l11 8c5 5 11 13 19 26l17 -9l-16 -28c-2 -4 -16 -28 -20 -31c-19 -21 -38 -31 -57 -31h-10c-13 6 -25 12 -36 20l-15 11 c-12 7 -23 10 -32 10c-10 -3 -19 -8 -24 -17l-5 -9h-23c0 27 6 51 20 72c7 10 14 16 19 21l28 25c20 11 40 22 59 33l19 9c16 7 29 18 39 30c12 15 19 30 19 45l1 12c0 13 -4 24 -12 31c-6 9 -15 14 -28 14c-29 0 -46 -15 -52 -44l3 -12l2 -16c0 -20 -8 -29 -25 -29 c-14 0 -26 13 -26 28c0 48 52 92 100 92z"/>
        </symbol>
        <symbol id="E883-1y19nra" viewBox="0 0 1000 1000" overflow="inherit">
            <path transform="scale(1,-1)" d="M161 326c52 0 94 -17 94 -68c0 -50 -40 -76 -82 -94c26 -21 39 -42 39 -64c0 -52 -56 -100 -118 -100h-12c-40 0 -82 23 -82 56c0 30 12 49 37 49c17 0 31 -16 34 -31c0 -5 -4 -12 -11 -21c-7 -5 -13 -10 -13 -21l11 -9l17 -4c21 0 40 12 56 37c13 21 19 45 19 70 c-9 30 -28 35 -66 35l6 23c34 0 60 4 77 13c20 11 30 35 30 70c0 28 -12 38 -39 40l-20 -3c-8 -3 -12 -9 -12 -16c2 -7 4 -11 5 -14l4 -11l3 -10l-3 -12c-5 -6 -11 -11 -20 -13c-2 0 -4 -1 -6 -1c-16 0 -30 13 -30 28c0 39 43 71 82 71z"/>
        </symbol>
        <symbol id="E884-1y19nra" viewBox="0 0 1000 1000" overflow="inherit">
            <path transform="scale(1,-1)" d="M259 110l-6 -21h-59l-16 -52c-3 -6 0 -11 9 -14l34 -2l-6 -21h-155l6 21l18 1l15 4c9 3 16 11 20 23l13 40h-132l5 21c12 10 26 22 39 39l33 43c13 18 27 41 40 68l21 51h97l-36 -49c-13 -16 -33 -34 -49 -49c-36 -35 -76 -67 -115 -100l108 -3l20 72l80 77h5l-44 -149 h55z"/>
        </symbol>
        <symbol id="E500-1y19nra" viewBox="0 0 1000 1000" overflow="inherit">
            <path transform="scale(1,-1)" d="M508 242l-362 -484h-146l362 484h146zM52 118c0 13 4 25 13 34s19 14 32 15c14 0 26 -4 35 -12s14 -19 15 -33c0 -13 -4 -25 -13 -34s-19 -14 -32 -15c-14 0 -26 4 -35 12s-14 19 -15 33zM361 -121c0 13 4 25 13 34s19 14 32 15c14 0 26 -4 35 -12s14 -19 15 -33 c0 -13 -4 -25 -13 -34s-19 -14 -32 -15c-14 0 -26 4 -35 12s-14 19 -15 33z"/>
        </symbol>
        <symbol id="E220-1y19nra" viewBox="0 0 1000 1000" overflow="inherit">
            <path transform="scale(1,-1)" d="M-163 -25l326 150v-100l-326 -150v100z"/>
        </symbol>
    </defs>
    <style type="text/css">g.page-margin{font-family:Times,serif;} g.ending, g.fing, g.reh, g.tempo{font-weight:bold;} g.dir, g.dynam, g.mNum{font-style:italic;} g.label{font-weight:normal;}</style>
    <svg class="definition-scale" color="black" viewBox="0 0 15350 2800">
        <g class="page-margin" transform="translate(500, 500)">
            <g id="mlk9zaw" class="mdiv pageMilestone"/>
            <g id="stcawhi" class="score pageMilestone"/>
            <g id="s7icae1" class="system">
                <g id="l3chkig" class="label">
                    <text x="1105" y="990" text-anchor="end" font-size="0px">
                        <tspan id="tu3y4jz" class="text">
                            <tspan font-size="405px">Piano</tspan>
                        </tspan>
                    </text>
                </g>
                <g id="s1v9qh90" class="section systemMilestone"/>
                <g id="pP1_m1" class="measure">
                    <g id="s11yl9vw" class="staff">
                        <path d="M1285 540 L4421 540" stroke="currentColor" stroke-width="13"/>
                        <path d="M1285 720 L4421 720" stroke="currentColor" stroke-width="13"/>
                        <path d="M1285 900 L4421 900" stroke="currentColor" stroke-width="13"/>
                        <path d="M1285 1080 L4421 1080" stroke="currentColor" stroke-width="13"/>
                        <path d="M1285 1260 L4421 1260" stroke="currentColor" stroke-width="13"/>
                        <g id="clef1_1" class="clef">
                            <use xlink:href="#E050-1y19nra" x="1375" y="1080" height="720px" width="720px"/>
                        </g>
                        <g id="key1_1" class="keySig">
                            <g id="key1_1.accidental1" class="keyAccid">
                                <use xlink:href="#E262-1y19nra" x="2020" y="540" height="720px" width="720px"/>
                            </g>
                            <g id="key1_1.accidental2" class="keyAccid">
                                <use xlink:href="#E262-1y19nra" x="2198" y="810" height="720px" width="720px"/>
                            </g>
                        </g>
                        <g id="time1_1" class="meterSig">
                            <use xlink:href="#E082-1y19nra" x="2505" y="720" height="720px" width="720px"/>
                            <use xlink:href="#E084-1y19nra" x="2510" y="1080" height="720px" width="720px"/>
                        </g>
                        <g class="ledgerLines below">
                            <path d="M3480 1440 L3802 1440" stroke="currentColor" stroke-width="22"/>
                            <path d="M3480 1620 L3802 1620" stroke="currentColor" stroke-width="22"/>
                        </g>
                        <g id="lt7n2pe" class="layer">
                            <g id="rest1" class="rest">
                                <use xlink:href="#E4E6-1y19nra" x="3078" y="900" height="720px" width="720px"/>
                            </g>
                            <g id="note1.tremolo_single" class="bTrem">
                                <use xlink:href="#E220-1y19nra" x="3745" y="900" height="720px" width="720px" id="note1.tremolo_single.line1" class="bTrem_line"/>
                                <g id="chord.note1_note2" class="chord">
                                    <g id="chord.note1_note2.dots_parent" class="dots">
                                        <ellipse cx="3844" cy="1530" rx="36" ry="36" class="single_dot" id="note1.dot1"/>
                                        <ellipse cx="3844" cy="1170" rx="36" ry="36" class="single_dot" id="note2.dot1"/>
                                    </g>
                                    <g id="chord.note1_note2.stem" class="stem">
                                        <path d="M3745 1592 L3745 540" stroke="currentColor" stroke-width="18"/>
                                    </g>
                                    <g id="note1" class="note">
                                        <g class="notehead" id="note1.notehead">
                                            <use xlink:href="#E0A4-1y19nra" x="3528" y="1620" height="720px" width="720px"/>
                                        </g>
                                    </g>
                                    <g id="note2" class="note">
                                        <g class="notehead" id="note2.notehead">
                                            <use xlink:href="#E0A4-1y19nra" x="3528" y="1170" height="720px" width="720px"/>
                                        </g>
                                        <g id="note2.accidental" class="accid"/>
                                    </g>
                                </g>
                            </g>
                        </g>
                    </g>
                    <g id="pP1_m1.right_barline" class="barLine">
                        <path id="pP1_m1.right_barline.barline_tok1" d="M4408 540 L4408 1260" stroke="currentColor" stroke-width="27" class="barline_tok"/>
                    </g>
                </g>
                <g id="pP1_m2" class="measure">
                    <g id="s3q1kn7" class="staff">
                        <path d="M4421 540 L5798 540" stroke="currentColor" stroke-width="13"/>
                        <path d="M4421 720 L5798 720" stroke="currentColor" stroke-width="13"/>
                        <path d="M4421 900 L5798 900" stroke="currentColor" stroke-width="13"/>
                        <path d="M4421 1080 L5798 1080" stroke="currentColor" stroke-width="13"/>
                        <path d="M4421 1260 L5798 1260" stroke="currentColor" stroke-width="13"/>
                        <g id="l1xarb0q" class="layer">
                            <g id="pP1_m2.measure_repeat" class="mRpt">
                                <use xlink:href="#E500-1y19nra" x="4914" y="900" height="720px" width="720px"/>
                                <use xlink:href="#E882-1y19nra" x="5002" y="450" height="720px" width="720px"/>
                            </g>
                        </g>
                    </g>
                    <g id="pP1_m2.right_barline" class="barLine">
                        <path id="pP1_m2.right_barline.barline_tok1" d="M5785 540 L5785 1260" stroke="currentColor" stroke-width="27" class="barline_tok"/>
                    </g>
                </g>
                <g id="pP1_m3" class="measure">
                    <g id="s3u7n2z" class="staff">
                        <path d="M5798 540 L7175 540" stroke="currentColor" stroke-width="13"/>
                        <path d="M5798 720 L7175 720" stroke="currentColor" stroke-width="13"/>
                        <path d="M5798 900 L7175 900" stroke="currentColor" stroke-width="13"/>
                        <path d="M5798 1080 L7175 1080" stroke="currentColor" stroke-width="13"/>
                        <path d="M5798 1260 L7175 1260" stroke="currentColor" stroke-width="13"/>
                        <g id="l2rtyvl" class="layer">
                            <g id="pP1_m3.measure_repeat" class="mRpt">
                                <use xlink:href="#E500-1y19nra" x="6291" y="900" height="720px" width="720px"/>
                                <use xlink:href="#E883-1y19nra" x="6381" y="450" height="720px" width="720px"/>
                            </g>
                        </g>
                    </g>
                    <g id="pP1_m3.right_barline" class="barLine">
                        <path id="pP1_m3.right_barline.barline_tok1" d="M7162 540 L7162 1260" stroke="currentColor" stroke-width="27" class="barline_tok"/>
                    </g>
                </g>
                <g id="pP1_m4" class="measure">
                    <g id="s1szaxsw" class="staff">
                        <path d="M7175 540 L8552 540" stroke="currentColor" stroke-width="13"/>
                        <path d="M7175 720 L8552 720" stroke="currentColor" stroke-width="13"/>
                        <path d="M7175 900 L8552 900" stroke="currentColor" stroke-width="13"/>
                        <path d="M7175 1080 L8552 1080" stroke="currentColor" stroke-width="13"/>
                        <path d="M7175 1260 L8552 1260" stroke="currentColor" stroke-width="13"/>
                        <g id="lbqizdr" class="layer">
                            <g id="pP1_m4.measure_repeat" class="mRpt">
                                <use xlink:href="#E500-1y19nra" x="7668" y="900" height="720px" width="720px"/>
                                <use xlink:href="#E884-1y19nra" x="7757" y="450" height="720px" width="720px"/>
                            </g>
                        </g>
                    </g>
                    <g id="pP1_m4.right_barline" class="barLine">
                        <path id="pP1_m4.right_barline.barline_tok1" d="M8539 540 L8539 1260" stroke="currentColor" stroke-width="27" class="barline_tok"/>
                    </g>
                </g>
                <g id="pP1_m5" class="measure">
                    <g id="s1igac8q" class="staff">
                        <path d="M8552 540 L10075 540" stroke="currentColor" stroke-width="13"/>
                        <path d="M8552 720 L10075 720" stroke="currentColor" stroke-width="13"/>
                        <path d="M8552 900 L10075 900" stroke="currentColor" stroke-width="13"/>
                        <path d="M8552 1080 L10075 1080" stroke="currentColor" stroke-width="13"/>
                        <path d="M8552 1260 L10075 1260" stroke="currentColor" stroke-width="13"/>
                        <g class="ledgerLines below">
                            <path d="M9134 1440 L9456 1440" stroke="currentColor" stroke-width="22"/>
                            <path d="M9134 1620 L9456 1620" stroke="currentColor" stroke-width="22"/>
                        </g>
                        <g id="lkesrma" class="layer">
                            <g id="rest5" class="rest">
                                <use xlink:href="#E4E6-1y19nra" x="8732" y="900" height="720px" width="720px"/>
                            </g>
                            <g id="note9.tremolo_single" class="bTrem">
                                <use xlink:href="#E220-1y19nra" x="9399" y="900" height="720px" width="720px" id="note9.tremolo_single.line1" class="bTrem_line"/>
                                <g id="chord.note9_note10" class="chord">
                                    <g id="chord.note9_note10.dots_parent" class="dots">
                                        <ellipse cx="9498" cy="1530" rx="36" ry="36" class="single_dot" id="note9.dot1"/>
                                        <ellipse cx="9498" cy="1170" rx="36" ry="36" class="single_dot" id="note10.dot1"/>
                                    </g>
                                    <g id="chord.note9_note10.stem" class="stem">
                                        <path d="M9399 1592 L9399 630" stroke="currentColor" stroke-width="18"/>
                                    </g>
                                    <g id="note9" class="note">
                                        <g class="notehead" id="note9.notehead">
                                            <use xlink:href="#E0A4-1y19nra" x="9182" y="1620" height="720px" width="720px"/>
                                        </g>
                                    </g>
                                    <g id="note10" class="note">
                                        <g class="notehead" id="note10.notehead">
                                            <use xlink:href="#E0A4-1y19nra" x="9182" y="1260" height="720px" width="720px"/>
                                        </g>
                                    </g>
                                </g>
                            </g>
                        </g>
                    </g>
                    <g id="pP1_m5.right_barline" class="barLine">
                        <path id="pP1_m5.right_barline.barline_tok1" d="M10062 540 L10062 1260" stroke="currentColor" stroke-width="27" class="barline_tok"/>
                    </g>
                </g>
                <g id="pP1_m6" class="measure">
                    <g id="s1cj9lj0" class="staff">
                        <path d="M10075 540 L11598 540" stroke="currentColor" stroke-width="13"/>
                        <path d="M10075 720 L11598 720" stroke="currentColor" stroke-width="13"/>
                        <path d="M10075 900 L11598 900" stroke="currentColor" stroke-width="13"/>
                        <path d="M10075 1080 L11598 1080" stroke="currentColor" stroke-width="13"/>
                        <path d="M10075 1260 L11598 1260" stroke="currentColor" stroke-width="13"/>
                        <g class="ledgerLines below">
                            <path d="M10657 1440 L10979 1440" stroke="currentColor" stroke-width="22"/>
                            <path d="M10657 1620 L10979 1620" stroke="currentColor" stroke-width="22"/>
                        </g>
                        <g id="lupnpk8" class="layer">
                            <g id="rest6" class="rest">
                                <use xlink:href="#E4E6-1y19nra" x="10255" y="900" height="720px" width="720px"/>
                            </g>
                            <g id="note11.tremolo_single" class="bTrem">
                                <use xlink:href="#E220-1y19nra" x="10922" y="900" height="720px" width="720px" id="note11.tremolo_single.line1" class="bTrem_line"/>
                                <g id="chord.note11_note12" class="chord">
                                    <g id="chord.note11_note12.dots_parent" class="dots">
                                        <ellipse cx="11021" cy="1530" rx="36" ry="36" class="single_dot" id="note11.dot1"/>
                                        <ellipse cx="11021" cy="1170" rx="36" ry="36" class="single_dot" id="note12.dot1"/>
                                    </g>
                                    <g id="chord.note11_note12.stem" class="stem">
                                        <path d="M10922 1592 L10922 540" stroke="currentColor" stroke-width="18"/>
                                    </g>
                                    <g id="note11" class="note">
                                        <g class="notehead" id="note11.notehead">
                                            <use xlink:href="#E0A4-1y19nra" x="10705" y="1620" height="720px" width="720px"/>
                                        </g>
                                    </g>
                                    <g id="note12" class="note">
                                        <g class="notehead" id="note12.notehead">
                                            <use xlink:href="#E0A4-1y19nra" x="10705" y="1170" height="720px" width="720px"/>
                                        </g>
                                        <g id="note12.accidental" class="accid"/>
                                    </g>
                                </g>
                            </g>
                        </g>
                    </g>
                    <g id="pP1_m6.right_barline" class="barLine">
                        <path id="pP1_m6.right_barline.barline_tok1" d="M11585 540 L11585 1260" stroke="currentColor" stroke-width="27" class="barline_tok"/>
                    </g>
                </g>
                <g id="pP1_m7" class="measure">
                    <g id="s1sxg8sk" class="staff">
                        <path d="M11598 540 L12975 540" stroke="currentColor" stroke-width="13"/>
                        <path d="M11598 720 L12975 720" stroke="currentColor" stroke-width="13"/>
                        <path d="M11598 900 L12975 900" stroke="currentColor" stroke-width="13"/>
                        <path d="M11598 1080 L12975 1080" stroke="currentColor" stroke-width="13"/>
                        <path d="M11598 1260 L12975 1260" stroke="currentColor" stroke-width="13"/>
                        <g id="lb2stfp" class="layer">
                            <g id="pP1_m7.measure_repeat" class="mRpt">
                                <use xlink:href="#E500-1y19nra" x="12091" y="900" height="720px" width="720px"/>
                                <use xlink:href="#E882-1y19nra" x="12179" y="450" height="720px" width="720px"/>
                            </g>
                        </g>
                    </g>
                    <g id="pP1_m7.right_barline" class="barLine">
                        <path id="pP1_m7.right_barline.barline_tok1" d="M12962 540 L12962 1260" stroke="currentColor" stroke-width="27" class="barline_tok"/>
                    </g>
                </g>
                <g id="pP1_m8" class="measure">
                    <g id="s1efjn8j" class="staff">
                        <path d="M12975 540 L14352 540" stroke="currentColor" stroke-width="13"/>
                        <path d="M12975 720 L14352 720" stroke="currentColor" stroke-width="13"/>
                        <path d="M12975 900 L14352 900" stroke="currentColor" stroke-width="13"/>
                        <path d="M12975 1080 L14352 1080" stroke="currentColor" stroke-width="13"/>
                        <path d="M12975 1260 L14352 1260" stroke="currentColor" stroke-width="13"/>
                        <g id="l18uxvhg" class="layer">
                            <g id="pP1_m8.measure_repeat" class="mRpt">
                                <use xlink:href="#E500-1y19nra" x="13468" y="900" height="720px" width="720px"/>
                                <use xlink:href="#E883-1y19nra" x="13558" y="450" height="720px" width="720px"/>
                            </g>
                        </g>
                    </g>
                    <g id="pP1_m8.right_barline" class="barLine">
                        <path id="pP1_m8.right_barline.barline_tok1" d="M14339 540 L14339 1260" stroke="currentColor" stroke-width="27" class="barline_tok"/>
                    </g>
                </g>
                <g id="sarcber" class="systemMilestoneEnd s1v9qh90"/>
            </g>
            <g id="puw75ar" class="pageMilestoneEnd stcawhi"/>
            <g id="p1rv41da" class="pageMilestoneEnd mlk9zaw"/>
        </g>
    </svg>
</svg>