<svg xmlns="http://www.w3.org/2000/svg" xmlns:xlink="http://www.w3.org/1999/xlink" xmlns:mei="http://www.music-encoding.org/ns/mei" width="2176px" height="280px" version="1.1" overflow="visible">
    <desc>Engraved by Verovio 4.3.0-dev-ba68db3-dirty</desc>
    <defs>
        <symbol id="E0A3-qgehl9" viewBox="0 0 1000 1000" overflow="inherit">
            <path transform="scale(1,-1)" d="M278 64c0 22 -17 39 -43 39c-12 0 -26 -3 -41 -10c-85 -43 -165 -94 -165 -156c5 -25 15 -32 49 -32c67 11 200 95 200 159zM0 -36c0 68 73 174 200 174c66 0 114 -39 114 -97c0 -84 -106 -173 -218 -173c-64 0 -96 32 -96 96z"/>
        </symbol>
        <symbol id="E082-qgehl9" viewBox="0 0 1000 1000" overflow="inherit">
            <path transform="scale(1,-1)" d="M124 -185c-18 0 -55 -14 -65 -65h-36l-3 30c0 25 6 45 18 63c11 19 22 30 39 43l121 82l37 29c15 11 27 29 38 54c12 24 18 47 18 70c0 40 -19 88 -94 88c-25 0 -32 0 -50 -8c-14 -5 -23 -12 -26 -22c3 -9 7 -15 10 -18l24 -17c12 -7 17 -11 27 -21c5 -7 7 -16 7 -27 c0 -12 0 -57 -79 -74c-30 0 -76 26 -76 94c0 66 81 135 197 135c72 0 181 -32 181 -150c0 -53 -32 -95 -113 -133l-91 -41c-26 -11 -45 -23 -57 -37l49 7c84 0 115 -41 148 -41c20 0 33 20 39 61h35c0 -152 -68 -168 -114 -168c-17 0 -65 0 -79 7h10l-28 17 c-49 37 -69 40 -87 42z"/>
        </symbol>
        <symbol id="E084-qgehl9" viewBox="0 0 1000 1000" overflow="inherit">
            <path transform="scale(1,-1)" d="M20 -78c84 97 114 180 134 329h170c-13 -32 -82 -132 -99 -151l-84 -97c-33 -36 -59 -63 -80 -81h162v102l127 123v-225h57v-39h-57v-34c0 -43 19 -65 57 -65v-34h-244v36c48 0 60 26 60 70v27h-203v39z"/>
        </symbol>
        <symbol id="E0A4-qgehl9" viewBox="0 0 1000 1000" overflow="inherit">
            <path transform="scale(1,-1)" d="M0 -39c0 68 73 172 200 172c66 0 114 -37 114 -95c0 -84 -106 -171 -218 -171c-64 0 -96 30 -96 94z"/>
        </symbol>
        <symbol id="E262-qgehl9" viewBox="0 0 1000 1000" overflow="inherit">
            <path transform="scale(1,-1)" d="M136 186v169h17v-164l44 14v-91l-44 -14v-165l44 12v-91l-44 -13v-155h-17v150l-76 -22v-155h-17v149l-43 -13v90l43 14v167l-43 -14v92l43 13v169h17v-163zM60 73v-167l76 22v168z"/>
        </symbol>
        <symbol id="E261-qgehl9" viewBox="0 0 1000 1000" overflow="inherit">
            <path transform="scale(1,-1)" d="M0 -188v539h18v-191l139 22v-533h-17v186zM18 -100l122 17v176l-122 -19v-174z"/>
        </symbol>
        <symbol id="E241-qgehl9" viewBox="0 0 1000 1000" overflow="inherit">
            <path transform="scale(1,-1)" d="M179 646c-4 8 -17 30 -18 33l-4 10c0 3 2 5 5 5s7 -2 13 -7c23 -33 46 -81 66 -132c22 -57 35 -125 35 -163c0 -104 -60 -183 -122 -241c-63 -59 -57 -53 -61 -56c-38 -34 -63 -95 -71 -95h-22v190c40 7 69 11 87 16c88 27 168 95 168 200c0 30 -12 89 -30 138 c-17 47 -31 73 -46 102z"/>
        </symbol>
        <symbol id="E882-qgehl9" viewBox="0 0 1000 1000" overflow="inherit">
            <path transform="scale(1,-1)" d="M166 311c60 0 94 -21 94 -80c0 -27 -12 -51 -40 -64l-70 -32c-37 -10 -69 -30 -96 -60h21l26 -2l12 -6c14 -6 28 -11 42 -17c6 -3 13 -4 21 -4l15 4l11 8c5 5 11 13 19 26l17 -9l-16 -28c-2 -4 -16 -28 -20 -31c-19 -21 -38 -31 -57 -31h-10c-13 6 -25 12 -36 20l-15 11 c-12 7 -23 10 -32 10c-10 -3 -19 -8 -24 -17l-5 -9h-23c0 27 6 51 20 72c7 10 14 16 19 21l28 25c20 11 40 22 59 33l19 9c16 7 29 18 39 30c12 15 19 30 19 45l1 12c0 13 -4 24 -12 31c-6 9 -15 14 -28 14c-29 0 -46 -15 -52 -44l3 -12l2 -16c0 -20 -8 -29 -25 -29 c-14 0 -26 13 -26 28c0 48 52 92 100 92z"/>
        </symbol>
        <symbol id="E500-qgehl9" viewBox="0 0 1000 1000" overflow="inherit">
            <path transform="scale(1,-1)" d="M508 242l-362 -484h-146l362 484h146zM52 118c0 13 4 25 13 34s19 14 32 15c14 0 26 -4 35 -12s14 -19 15 -33c0 -13 -4 -25 -13 -34s-19 -14 -32 -15c-14 0 -26 4 -35 12s-14 19 -15 33zM361 -121c0 13 4 25 13 34s19 14 32 15c14 0 26 -4 35 -12s14 -19 15 -33 c0 -13 -4 -25 -13 -34s-19 -14 -32 -15c-14 0 -26 4 -35 12s-14 19 -15 33z"/>
        </symbol>
        <symbol id="E4A0-qgehl9" viewBox="0 0 1000 1000" overflow="inherit">
            <path transform="scale(1,-1)" d="M0 236l347 -119l-347 -117v33l252 84l-252 86v33z"/>
        </symbol>
        <symbol id="E044-qgehl9" viewBox="0 0 1000 1000" overflow="inherit">
            <path transform="scale(1,-1)" d="M0 0c0 28 22 50 50 50s50 -22 50 -50s-22 -50 -50 -50s-50 22 -50 50z"/>
        </symbol>
    </defs>
    <style type="text/css">g.page-margin{font-family:Times,serif;} g.ending, g.fing, g.reh, g.tempo{font-weight:bold;} g.dir, g.dynam, g.mNum{font-style:italic;} g.label{font-weight:normal;}</style>
    <svg class="definition-scale" color="black" viewBox="0 0 21760 2800">
        <g class="page-margin" transform="translate(500, 500)">
            <g id="m1r8137y" class="mdiv pageMilestone"/>
            <g id="s1po9vq5" class="score pageMilestone"/>
            <g id="s1la779l" class="system">
                <g id="ln2ks8r" class="label">
                    <text x="1105" y="990" text-anchor="end" font-size="0px">
                        <tspan id="tmlchuw" class="text">
                            <tspan font-size="405px">Piano</tspan>
                        </tspan>
                    </text>
                </g>
                <g id="syisr4z" class="section systemMilestone"/>
                <g id="pP1_m1" class="measure">
                    <g id="sbloo90" class="staff">
                        <path d="M1285 540 L4121 540" stroke="currentColor" stroke-width="13"/>
                        <path d="M1285 720 L4121 720" stroke="currentColor" stroke-width="13"/>
                        <path d="M1285 900 L4121 900" stroke="currentColor" stroke-width="13"/>
                        <path d="M1285 1080 L4121 1080" stroke="currentColor" stroke-width="13"/>
                        <path d="M1285 1260 L4121 1260" stroke="currentColor" stroke-width="13"/>
                        <g id="clef1_1" class="clef" visibility="hidden"/>
                        <g id="key1_1" class="keySig" visibility="hidden"/>
                        <g id="time1_1" class="meterSig">
                            <use xlink:href="#E082-qgehl9" x="1361" y="720" height="720px" width="720px"/>
                            <use xlink:href="#E084-qgehl9" x="1366" y="1080" height="720px" width="720px"/>
                        </g>
                        <g id="l15b0ljg" class="layer">
                            <g id="beam1_parent" class="beam_parent">
                                <polygon points="1934,1485 2900,1485 2900,1395 1934,1395" id="beam1" class="beam"/>
                                <polygon points="1934,1350 2900,1350 2900,1260 1934,1260" id="beam2" class="beam"/>
                                <g id="note1" class="note">
                                    <g class="notehead" id="note1.notehead">
                                        <use xlink:href="#E0A4-qgehl9" x="1934" y="720" height="720px" width="720px"/>
                                    </g>
                                    <g id="note1.stem" class="stem">
                                        <path d="M1943 748 L1943 1467" stroke="currentColor" stroke-width="18"/>
                                    </g>
                                </g>
                                <g id="note2" class="note">
                                    <g class="notehead" id="note2.notehead">
                                        <use xlink:href="#E0A4-qgehl9" x="2250" y="900" height="720px" width="720px"/>
                                    </g>
                                    <g id="note2.stem" class="stem">
                                        <path d="M2259 928 L2259 1467" stroke="currentColor" stroke-width="18"/>
                                    </g>
                                </g>
                                <g id="note3" class="note">
                                    <g class="notehead" id="note3.notehead">
                                        <use xlink:href="#E0A4-qgehl9" x="2566" y="810" height="720px" width="720px"/>
                                    </g>
                                    <g id="note3.stem" class="stem">
                                        <path d="M2575 838 L2575 1467" stroke="currentColor" stroke-width="18"/>
                                    </g>
                                    <g id="note3.accidental" class="accid"/>
                                </g>
                                <g id="note4" class="note">
                                    <g class="notehead" id="note4.notehead">
                                        <use xlink:href="#E0A4-qgehl9" x="2882" y="720" height="720px" width="720px"/>
                                    </g>
                                    <g id="note4.stem" class="stem">
                                        <path d="M2891 748 L2891 1467" stroke="currentColor" stroke-width="18"/>
                                    </g>
                                </g>
                            </g>
                            <g id="beam3_parent" class="beam_parent">
                                <polygon points="3198,1260 3796,1350 3796,1260 3198,1170" id="beam3" class="beam"/>
                                <polygon points="3570,1183 3796,1215 3796,1125 3570,1093" id="beam4" class="beam"/>
                                <g id="note5" class="note">
                                    <g class="notehead" id="note5.notehead">
                                        <use xlink:href="#E0A4-qgehl9" x="3198" y="630" height="720px" width="720px"/>
                                    </g>
                                    <g id="note5.dots_parent" class="dots">
                                        <ellipse cx="3514" cy="630" rx="36" ry="36" id="note5.dot1" class="single_dot"/>
                                    </g>
                                    <g id="note5.stem" class="stem">
                                        <path d="M3207 658 L3207 1242" stroke="currentColor" stroke-width="18"/>
                                    </g>
                                </g>
                                <g id="note6" class="note">
                                    <g class="notehead" id="note6.notehead">
                                        <use xlink:href="#E0A4-qgehl9" x="3778" y="720" height="720px" width="720px"/>
                                    </g>
                                    <g id="note6.stem" class="stem">
                                        <path d="M3787 748 L3787 1332" stroke="currentColor" stroke-width="18"/>
                                    </g>
                                </g>
                            </g>
                        </g>
                    </g>
                    <g id="pP1_m1.right_barline" class="barLine">
                        <path id="pP1_m1.right_barline.barline_tok1" d="M4108 540 L4108 1260" stroke="currentColor" stroke-width="27" class="barline_tok"/>
                    </g>
                </g>
                <g id="pP1_m2" class="measure">
                    <g id="s1t2og7o" class="staff">
                        <path d="M4121 540 L5904 540" stroke="currentColor" stroke-width="13"/>
                        <path d="M4121 720 L5904 720" stroke="currentColor" stroke-width="13"/>
                        <path d="M4121 900 L5904 900" stroke="currentColor" stroke-width="13"/>
                        <path d="M4121 1080 L5904 1080" stroke="currentColor" stroke-width="13"/>
                        <path d="M4121 1260 L5904 1260" stroke="currentColor" stroke-width="13"/>
                        <g id="lrvo9rk" class="layer">
                            <g id="note7" class="note">
                                <g class="notehead" id="note7.notehead">
                                    <use xlink:href="#E0A4-qgehl9" x="4301" y="720" height="720px" width="720px"/>
                                </g>
                                <g id="note7.stem" class="stem">
                                    <path d="M4310 748 L4310 1350" stroke="currentColor" stroke-width="18"/>
                                    <g id="note7.stem.flag" class="flag">
                                        <use xlink:href="#E241-qgehl9" x="4301" y="1350" height="720px" width="720px"/>
                                    </g>
                                </g>
                            </g>
                            <g id="note8" class="note">
                                <g class="notehead" id="note8.notehead">
                                    <use xlink:href="#E0A4-qgehl9" x="4751" y="810" height="720px" width="720px"/>
                                </g>
                                <g id="note8.stem" class="stem">
                                    <path d="M4760 838 L4760 1440" stroke="currentColor" stroke-width="18"/>
                                </g>
                                <g id="note8.accidental" class="accid"/>
                                <g id="note8.articulation1.accent" class="artic">
                                    <use xlink:href="#E4A0-qgehl9" x="4740" y="473" height="720px" width="720px"/>
                                </g>
                            </g>
                            <g id="note9" class="note">
                                <g class="notehead" id="note9.notehead">
                                    <use xlink:href="#E0A4-qgehl9" x="5441" y="900" height="720px" width="720px"/>
                                </g>
                                <g id="note9.stem" class="stem">
                                    <path d="M5450 928 L5450 1500" stroke="currentColor" stroke-width="18"/>
                                    <g id="note9.stem.flag" class="flag">
                                        <use xlink:href="#E241-qgehl9" x="5441" y="1500" height="720px" width="720px"/>
                                    </g>
                                </g>
                            </g>
                        </g>
                    </g>
                    <g id="pP1_m2.right_barline" class="barLine">
                        <path id="pP1_m2.right_barline.barline_tok1" d="M5891 540 L5891 1260" stroke="currentColor" stroke-width="27" class="barline_tok"/>
                    </g>
                </g>
                <g id="pP1_m3" class="measure">
                    <g id="soamo59" class="staff">
                        <path d="M5904 540 L7884 540" stroke="currentColor" stroke-width="13"/>
                        <path d="M5904 720 L7884 720" stroke="currentColor" stroke-width="13"/>
                        <path d="M5904 900 L7884 900" stroke="currentColor" stroke-width="13"/>
                        <path d="M5904 1080 L7884 1080" stroke="currentColor" stroke-width="13"/>
                        <path d="M5904 1260 L7884 1260" stroke="currentColor" stroke-width="13"/>
                        <g class="ledgerLines above">
                            <path d="M6486 360 L6808 360" stroke="currentColor" stroke-width="22"/>
                            <path d="M6936 360 L7258 360" stroke="currentColor" stroke-width="22"/>
                            <path d="M7386 360 L7708 360" stroke="currentColor" stroke-width="22"/>
                        </g>
                        <g id="l4rld14" class="layer">
                            <g id="beam5_parent" class="beam_parent">
                                <polygon points="6084,1485 6552,1440 6552,1350 6084,1395" id="beam5" class="beam"/>
                                <g id="note10" class="note">
                                    <g class="notehead" id="note10.notehead">
                                        <use xlink:href="#E0A4-qgehl9" x="6084" y="810" height="720px" width="720px"/>
                                    </g>
                                    <g id="note10.stem" class="stem">
                                        <path d="M6093 838 L6093 1467" stroke="currentColor" stroke-width="18"/>
                                    </g>
                                    <g id="note10.accidental" class="accid"/>
                                </g>
                                <g id="note11" class="note">
                                    <g class="notehead" id="note11.notehead">
                                        <use xlink:href="#E0A4-qgehl9" x="6534" y="360" height="720px" width="720px"/>
                                    </g>
                                    <g id="note11.stem" class="stem">
                                        <path d="M6543 388 L6543 1422" stroke="currentColor" stroke-width="18"/>
                                    </g>
                                </g>
                            </g>
                            <g id="beam6_parent" class="beam_parent">
                                <polygon points="6984,945 7452,945 7452,855 6984,855" id="beam6" class="beam"/>
                                <g id="note12" class="note">
                                    <g class="notehead" id="note12.notehead">
                                        <use xlink:href="#E0A4-qgehl9" x="6984" y="360" height="720px" width="720px"/>
                                    </g>
                                    <g id="note12.stem" class="stem">
                                        <path d="M6993 388 L6993 927" stroke="currentColor" stroke-width="18"/>
                                    </g>
                                </g>
                                <g id="note13" class="note">
                                    <g class="notehead" id="note13.notehead">
                                        <use xlink:href="#E0A4-qgehl9" x="7434" y="360" height="720px" width="720px"/>
                                    </g>
                                    <g id="note13.stem" class="stem">
                                        <path d="M7443 388 L7443 927" stroke="currentColor" stroke-width="18"/>
                                    </g>
                                </g>
                            </g>
                        </g>
                    </g>
                </g>
                <g id="pP1_m4" class="measure">
                    <g id="s1gfrt93" class="staff">
                        <path d="M7884 540 L9510 540" stroke="currentColor" stroke-width="13"/>
                        <path d="M7884 720 L9510 720" stroke="currentColor" stroke-width="13"/>
                        <path d="M7884 900 L9510 900" stroke="currentColor" stroke-width="13"/>
                        <path d="M7884 1080 L9510 1080" stroke="currentColor" stroke-width="13"/>
                        <path d="M7884 1260 L9510 1260" stroke="currentColor" stroke-width="13"/>
                        <g class="ledgerLines above">
                            <path d="M8399 360 L8721 360" stroke="currentColor" stroke-width="22"/>
                        </g>
                        <g id="l1k8my75" class="layer">
                            <g id="note14" class="note">
                                <g class="notehead" id="note14.notehead">
                                    <use xlink:href="#E0A3-qgehl9" x="8447" y="360" height="720px" width="720px"/>
                                </g>
                                <g id="note14.stem" class="stem">
                                    <path d="M8456 385 L8456 990" stroke="currentColor" stroke-width="18"/>
                                </g>
                            </g>
                        </g>
                    </g>
                    <g id="barline1" class="barLine">
                        <path id="barline1.barline_tok1" d="M8019 540 L8019 1260" stroke="currentColor" stroke-width="90" class="barline_tok"/>
                        <path id="barline1.barline_tok2" d="M8149 540 L8149 1260" stroke="currentColor" stroke-width="27" class="barline_tok"/>
                        <g id="barline1.repeat_forward1" class="repeat">
                            <use xlink:href="#E044-qgehl9" x="8195" y="810" height="720px" width="720px"/>
                            <use xlink:href="#E044-qgehl9" x="8195" y="990" height="720px" width="720px"/>
                        </g>
                    </g>
                    <g id="pP1_m4.right_barline" class="barLine">
                        <path id="pP1_m4.right_barline.barline_tok1" d="M9497 540 L9497 1260" stroke="currentColor" stroke-width="27" class="barline_tok"/>
                    </g>
                </g>
                <g id="pP1_m5" class="measure">
                    <g id="s1hti0i" class="staff">
                        <path d="M9510 540 L10753 540" stroke="currentColor" stroke-width="13"/>
                        <path d="M9510 720 L10753 720" stroke="currentColor" stroke-width="13"/>
                        <path d="M9510 900 L10753 900" stroke="currentColor" stroke-width="13"/>
                        <path d="M9510 1080 L10753 1080" stroke="currentColor" stroke-width="13"/>
                        <path d="M9510 1260 L10753 1260" stroke="currentColor" stroke-width="13"/>
                        <g class="ledgerLines above">
                            <path d="M9642 360 L9964 360" stroke="currentColor" stroke-width="22"/>
                        </g>
                        <g id="l1xu4m2k" class="layer">
                            <g id="note15" class="note">
                                <g class="notehead" id="note15.notehead">
                                    <use xlink:href="#E0A3-qgehl9" x="9690" y="360" height="720px" width="720px"/>
                                </g>
                                <g id="note15.stem" class="stem">
                                    <path d="M9699 385 L9699 990" stroke="currentColor" stroke-width="18"/>
                                </g>
                            </g>
                        </g>
                    </g>
                    <g id="pP1_m5.right_barline" class="barLine">
                        <path id="pP1_m5.right_barline.barline_tok1" d="M10740 540 L10740 1260" stroke="currentColor" stroke-width="27" class="barline_tok"/>
                    </g>
                </g>
                <g id="pP1_m6" class="measure">
                    <g id="skv5v8m" class="staff">
                        <path d="M10753 540 L12130 540" stroke="currentColor" stroke-width="13"/>
                        <path d="M10753 720 L12130 720" stroke="currentColor" stroke-width="13"/>
                        <path d="M10753 900 L12130 900" stroke="currentColor" stroke-width="13"/>
                        <path d="M10753 1080 L12130 1080" stroke="currentColor" stroke-width="13"/>
                        <path d="M10753 1260 L12130 1260" stroke="currentColor" stroke-width="13"/>
                        <g id="lo44pwk" class="layer">
                            <g id="pP1_m6.measure_repeat" class="mRpt">
                                <use xlink:href="#E500-qgehl9" x="11246" y="900" height="720px" width="720px"/>
                                <use xlink:href="#E882-qgehl9" x="11334" y="450" height="720px" width="720px"/>
                            </g>
                        </g>
                    </g>
                    <g id="pP1_m6.right_barline" class="barLine">
                        <path id="pP1_m6.right_barline.barline_tok1" d="M12117 540 L12117 1260" stroke="currentColor" stroke-width="27" class="barline_tok"/>
                    </g>
                </g>
                <g id="pP1_m7" class="measure">
                    <g id="s7xcfwt" class="staff">
                        <path d="M12130 540 L13703 540" stroke="currentColor" stroke-width="13"/>
                        <path d="M12130 720 L13703 720" stroke="currentColor" stroke-width="13"/>
                        <path d="M12130 900 L13703 900" stroke="currentColor" stroke-width="13"/>
                        <path d="M12130 1080 L13703 1080" stroke="currentColor" stroke-width="13"/>
                        <path d="M12130 1260 L13703 1260" stroke="currentColor" stroke-width="13"/>
                        <g class="ledgerLines above">
                            <path d="M12262 360 L12584 360" stroke="currentColor" stroke-width="22"/>
                        </g>
                        <g id="l11jfae8" class="layer">
                            <g id="note17" class="note">
                                <g class="notehead" id="note17.notehead">
                                    <use xlink:href="#E0A4-qgehl9" x="12310" y="360" height="720px" width="720px"/>
                                </g>
                                <g id="note17.stem" class="stem">
                                    <path d="M12319 388 L12319 990" stroke="currentColor" stroke-width="18"/>
                                </g>
                            </g>
                            <g id="note18" class="note">
                                <g class="notehead" id="note18.notehead">
                                    <use xlink:href="#E0A4-qgehl9" x="13000" y="810" height="720px" width="720px"/>
                                </g>
                                <g id="note18.stem" class="stem">
                                    <path d="M13009 838 L13009 1440" stroke="currentColor" stroke-width="18"/>
                                </g>
                                <g id="note18.accidental" class="accid"/>
                            </g>
                        </g>
                    </g>
                    <g id="pP1_m7.right_barline" class="barLine">
                        <path id="pP1_m7.right_barline.barline_tok1" d="M13690 540 L13690 1260" stroke="currentColor" stroke-width="27" class="barline_tok"/>
                    </g>
                </g>
                <g id="pP1_m8" class="measure">
                    <g id="snz4k0q" class="staff">
                        <path d="M13703 540 L14946 540" stroke="currentColor" stroke-width="13"/>
                        <path d="M13703 720 L14946 720" stroke="currentColor" stroke-width="13"/>
                        <path d="M13703 900 L14946 900" stroke="currentColor" stroke-width="13"/>
                        <path d="M13703 1080 L14946 1080" stroke="currentColor" stroke-width="13"/>
                        <path d="M13703 1260 L14946 1260" stroke="currentColor" stroke-width="13"/>
                        <g id="l7wu981" class="layer">
                            <g id="note19" class="note">
                                <g class="notehead" id="note19.notehead">
                                    <use xlink:href="#E0A3-qgehl9" x="13883" y="720" height="720px" width="720px"/>
                                </g>
                                <g id="note19.stem" class="stem">
                                    <path d="M13892 745 L13892 1350" stroke="currentColor" stroke-width="18"/>
                                </g>
                            </g>
                        </g>
                    </g>
                    <g id="pP1_m8.right_barline" class="barLine">
                        <path id="pP1_m8.right_barline.barline_tok1" d="M14933 540 L14933 1260" stroke="currentColor" stroke-width="27" class="barline_tok"/>
                    </g>
                </g>
                <g id="pP1_m9" class="measure">
                    <g id="sad194w" class="staff">
                        <path d="M14946 540 L16189 540" stroke="currentColor" stroke-width="13"/>
                        <path d="M14946 720 L16189 720" stroke="currentColor" stroke-width="13"/>
                        <path d="M14946 900 L16189 900" stroke="currentColor" stroke-width="13"/>
                        <path d="M14946 1080 L16189 1080" stroke="currentColor" stroke-width="13"/>
                        <path d="M14946 1260 L16189 1260" stroke="currentColor" stroke-width="13"/>
                        <g id="l7nsukj" class="layer">
                            <g id="note20" class="note">
                                <g class="notehead" id="note20.notehead">
                                    <use xlink:href="#E0A3-qgehl9" x="15126" y="720" height="720px" width="720px"/>
                                </g>
                                <g id="note20.stem" class="stem">
                                    <path d="M15135 745 L15135 1350" stroke="currentColor" stroke-width="18"/>
                                </g>
                            </g>
                        </g>
                    </g>
                    <g id="pP1_m9.right_barline" class="barLine">
                        <path id="pP1_m9.right_barline.barline_tok1" d="M16176 540 L16176 1260" stroke="currentColor" stroke-width="27" class="barline_tok"/>
                    </g>
                </g>
                <g id="pP1_m10" class="measure">
                    <g id="snmf4uu" class="staff">
                        <path d="M16189 540 L17762 540" stroke="currentColor" stroke-width="13"/>
                        <path d="M16189 720 L17762 720" stroke="currentColor" stroke-width="13"/>
                        <path d="M16189 900 L17762 900" stroke="currentColor" stroke-width="13"/>
                        <path d="M16189 1080 L17762 1080" stroke="currentColor" stroke-width="13"/>
                        <path d="M16189 1260 L17762 1260" stroke="currentColor" stroke-width="13"/>
                        <g id="l1toa1tf" class="layer">
                            <g id="note21" class="note">
                                <g class="notehead" id="note21.notehead">
                                    <use xlink:href="#E0A4-qgehl9" x="16369" y="720" height="720px" width="720px"/>
                                </g>
                                <g id="note21.stem" class="stem">
                                    <path d="M16378 748 L16378 1350" stroke="currentColor" stroke-width="18"/>
                                </g>
                            </g>
                            <g id="note22" class="note">
                                <g class="notehead" id="note22.notehead">
                                    <use xlink:href="#E0A4-qgehl9" x="17059" y="630" height="720px" width="720px"/>
                                </g>
                                <g id="note22.stem" class="stem">
                                    <path d="M17068 658 L17068 1260" stroke="currentColor" stroke-width="18"/>
                                </g>
                            </g>
                        </g>
                    </g>
                    <g id="pP1_m10.right_barline" class="barLine">
                        <path id="pP1_m10.right_barline.barline_tok1" d="M17749 540 L17749 1260" stroke="currentColor" stroke-width="27" class="barline_tok"/>
                    </g>
                </g>
                <g id="pP1_m11" class="measure">
                    <g id="s1nbco4x" class="staff">
                        <path d="M17762 540 L19335 540" stroke="currentColor" stroke-width="13"/>
                        <path d="M17762 720 L19335 720" stroke="currentColor" stroke-width="13"/>
                        <path d="M17762 900 L19335 900" stroke="currentColor" stroke-width="13"/>
                        <path d="M17762 1080 L19335 1080" stroke="currentColor" stroke-width="13"/>
                        <path d="M17762 1260 L19335 1260" stroke="currentColor" stroke-width="13"/>
                        <g id="l197g000" class="layer">
                            <g id="note23" class="note">
                                <g class="notehead" id="note23.notehead">
                                    <use xlink:href="#E0A4-qgehl9" x="17942" y="720" height="720px" width="720px"/>
                                </g>
                                <g id="note23.stem" class="stem">
                                    <path d="M17951 748 L17951 1350" stroke="currentColor" stroke-width="18"/>
                                </g>
                            </g>
                            <g id="note24" class="note">
                                <g class="notehead" id="note24.notehead">
                                    <use xlink:href="#E0A4-qgehl9" x="18632" y="810" height="720px" width="720px"/>
                                </g>
                                <g id="note24.stem" class="stem">
                                    <path d="M18641 838 L18641 1440" stroke="currentColor" stroke-width="18"/>
                                </g>
                                <g id="note24.accidental" class="accid">
                                    <use xlink:href="#E261-qgehl9" x="18474" y="810" height="720px" width="720px"/>
                                </g>
                            </g>
                        </g>
                    </g>
                    <g id="pP1_m11.right_barline" class="barLine">
                        <path id="pP1_m11.right_barline.barline_tok1" d="M19322 540 L19322 1260" stroke="currentColor" stroke-width="27" class="barline_tok"/>
                    </g>
                </g>
                <g id="pP1_m12" class="measure">
                    <g id="sp4vl4p" class="staff">
                        <path d="M19335 540 L20764 540" stroke="currentColor" stroke-width="13"/>
                        <path d="M19335 720 L20764 720" stroke="currentColor" stroke-width="13"/>
                        <path d="M19335 900 L20764 900" stroke="currentColor" stroke-width="13"/>
                        <path d="M19335 1080 L20764 1080" stroke="currentColor" stroke-width="13"/>
                        <path d="M19335 1260 L20764 1260" stroke="currentColor" stroke-width="13"/>
                        <g id="l8rlnl" class="layer">
                            <g id="note25" class="note">
                                <g class="notehead" id="note25.notehead">
                                    <use xlink:href="#E0A3-qgehl9" x="19701" y="810" height="720px" width="720px"/>
                                </g>
                                <g id="note25.stem" class="stem">
                                    <path d="M19710 835 L19710 1440" stroke="currentColor" stroke-width="18"/>
                                </g>
                                <g id="note25.accidental" class="accid">
                                    <use xlink:href="#E262-qgehl9" x="19515" y="810" height="720px" width="720px"/>
                                </g>
                            </g>
                        </g>
                    </g>
                    <g id="pP1_m12.right_barline" class="barLine">
                        <path id="pP1_m12.right_barline.barline_tok1" d="M20751 540 L20751 1260" stroke="currentColor" stroke-width="27" class="barline_tok"/>
                    </g>
                </g>
                <g id="s18t0pzi" class="systemMilestoneEnd syisr4z"/>
            </g>
            <g id="p1hiufdw" class="pageMilestoneEnd s1po9vq5"/>
            <g id="pxwd7k6" class="pageMilestoneEnd m1r8137y"/>
        </g>
    </svg>
</svg>