<svg xmlns="http://www.w3.org/2000/svg" xmlns:xlink="http://www.w3.org/1999/xlink" xmlns:mei="http://www.music-encoding.org/ns/mei" width="2907px" height="280px" version="1.1" overflow="visible">
    <desc>Engraved by Verovio 4.3.0-dev-ba68db3-dirty</desc>
    <defs>
        <symbol id="E086-1vr1hxa" viewBox="0 0 1000 1000" overflow="inherit">
            <path transform="scale(1,-1)" d="M284 -91c0 37 -28 92 -67 92c-35 0 -65 -54 -65 -111c0 -52 22 -104 68 -104c47 0 64 68 64 123zM230 214c-36 0 -90 -33 -90 -184l2 -36c40 24 81 36 120 36c80 0 140 -48 140 -121c0 -99 -99 -159 -182 -159c-160 0 -200 173 -200 244c0 21 2 43 7 71l10 35 c26 85 73 115 98 126c41 19 74 24 103 24c93 0 142 -63 142 -105c0 -58 -52 -72 -73 -72c-33 0 -59 24 -65 35c-3 5 -6 14 -7 25l11 30c6 15 9 27 9 35c0 11 -9 16 -25 16z"/>
        </symbol>
        <symbol id="E088-1vr1hxa" viewBox="0 0 1000 1000" overflow="inherit">
            <path transform="scale(1,-1)" d="M195 -214c76 0 88 58 90 68c0 34 -35 60 -57 73l-52 29c-21 10 -32 17 -34 20c-39 -33 -58 -54 -62 -92c5 -23 23 -98 115 -98zM301 135c0 61 -72 76 -113 76c-40 0 -77 -17 -77 -51c3 -21 15 -38 26 -50c17 -15 33 -26 48 -34l65 -28c34 27 51 56 51 87zM176 -250 c-57 0 -166 26 -166 132c0 47 30 86 89 116c-33 15 -79 60 -79 119c0 79 85 132 178 132h18c5 0 21 1 28 -1c25 0 126 -30 126 -110c0 -37 -23 -76 -69 -116c43 -25 83 -71 83 -119c0 -101 -118 -153 -208 -153z"/>
        </symbol>
        <symbol id="E0A4-1vr1hxa" viewBox="0 0 1000 1000" overflow="inherit">
            <path transform="scale(1,-1)" d="M0 -39c0 68 73 172 200 172c66 0 114 -37 114 -95c0 -84 -106 -171 -218 -171c-64 0 -96 30 -96 94z"/>
        </symbol>
        <symbol id="E261-1vr1hxa" viewBox="0 0 1000 1000" overflow="inherit">
            <path transform="scale(1,-1)" d="M0 -188v539h18v-191l139 22v-533h-17v186zM18 -100l122 17v176l-122 -19v-174z"/>
        </symbol>
        <symbol id="E4E5-1vr1hxa" viewBox="0 0 1000 1000" overflow="inherit">
            <path transform="scale(1,-1)" d="M107 292c-13 24 -30 49 -52 71c-1 1 0 2 0 3l-2 2c3 3 4 4 6 4c12 0 26 -7 40 -20s44 -40 89 -81c26 -24 28 -29 46 -47c4 -4 8 -9 10 -14c6 -8 8 -16 8 -27c0 -19 -12 -40 -36 -61c-28 -23 -49 -38 -61 -73c-4 -11 -7 -27 -10 -50c13 -43 34 -83 59 -121 c31 -47 59 -79 101 -129c-8 0 -26 7 -54 20l-62 29l-21 6l-23 1c-25 0 -45 -10 -60 -30l-4 -14l-1 -12c0 -33 20 -56 39 -78c8 -9 17 -18 26 -26c17 -15 27 -24 28 -30l-3 -3c-11 5 -19 10 -25 15c-9 3 -37 21 -45 26c-24 14 -45 32 -63 51c-19 21 -37 44 -37 71 c0 63 27 95 80 95c41 0 86 -18 136 -52c-19 26 -37 48 -55 66c-23 23 -48 44 -73 65c-28 23 -47 40 -58 53s-17 26 -18 39c75 64 113 125 113 183c0 27 -7 48 -18 68z"/>
        </symbol>
        <symbol id="E4E6-1vr1hxa" viewBox="0 0 1000 1000" overflow="inherit">
            <path transform="scale(1,-1)" d="M0 123c7 34 33 56 69 60c29 -3 43 -9 53 -29c4 -8 7 -15 10 -22c0 -21 -1 -25 -11 -35c-5 -8 -18 -14 -40 -20l12 -3l15 -1c44 0 97 26 122 56c10 11 18 26 24 42c7 1 15 2 22 3l-140 -424h-36l111 330c-10 -6 -27 -12 -53 -16l-52 -8h-10l-20 1c-1 0 -8 3 -21 6 c-37 9 -55 28 -55 60z"/>
        </symbol>
        <symbol id="E882-1vr1hxa" viewBox="0 0 1000 1000" overflow="inherit">
            <path transform="scale(1,-1)" d="M166 311c60 0 94 -21 94 -80c0 -27 -12 -51 -40 -64l-70 -32c-37 -10 -69 -30 -96 -60h21l26 -2l12 -6c14 -6 28 -11 42 -17c6 -3 13 -4 21 -4l15 4l11 8c5 5 11 13 19 26l17 -9l-16 -28c-2 -4 -16 -28 -20 -31c-19 -21 -38 -31 -57 -31h-10c-13 6 -25 12 -36 20l-15 11 c-12 7 -23 10 -32 10c-10 -3 -19 -8 -24 -17l-5 -9h-23c0 27 6 51 20 72c7 10 14 16 19 21l28 25c20 11 40 22 59 33l19 9c16 7 29 18 39 30c12 15 19 30 19 45l1 12c0 13 -4 24 -12 31c-6 9 -15 14 -28 14c-29 0 -46 -15 -52 -44l3 -12l2 -16c0 -20 -8 -29 -25 -29 c-14 0 -26 13 -26 28c0 48 52 92 100 92z"/>
        </symbol>
        <symbol id="E500-1vr1hxa" viewBox="0 0 1000 1000" overflow="inherit">
            <path transform="scale(1,-1)" d="M508 242l-362 -484h-146l362 484h146zM52 118c0 13 4 25 13 34s19 14 32 15c14 0 26 -4 35 -12s14 -19 15 -33c0 -13 -4 -25 -13 -34s-19 -14 -32 -15c-14 0 -26 4 -35 12s-14 19 -15 33zM361 -121c0 13 4 25 13 34s19 14 32 15c14 0 26 -4 35 -12s14 -19 15 -33 c0 -13 -4 -25 -13 -34s-19 -14 -32 -15c-14 0 -26 4 -35 12s-14 19 -15 33z"/>
        </symbol>
    </defs>
    <style type="text/css">g.page-margin{font-family:Times,serif;} g.ending, g.fing, g.reh, g.tempo{font-weight:bold;} g.dir, g.dynam, g.mNum{font-style:italic;} g.label{font-weight:normal;}</style>
    <svg class="definition-scale" color="black" viewBox="0 0 29070 2800">
        <g class="page-margin" transform="translate(500, 500)">
            <g id="m1sq5o30" class="mdiv pageMilestone"/>
            <g id="sb9qr3a" class="score pageMilestone"/>
            <g id="s1iqpkv6" class="system">
                <g id="l1krie1t" class="label">
                    <text x="1105" y="990" text-anchor="end" font-size="0px">
                        <tspan id="thw6qq7" class="text">
                            <tspan font-size="405px">Piano</tspan>
                        </tspan>
                    </text>
                </g>
                <g id="s19coeg" class="section systemMilestone"/>
                <g id="pP1_m1" class="measure">
                    <g id="s1bv7475" class="staff">
                        <path d="M1285 540 L4213 540" stroke="currentColor" stroke-width="13"/>
                        <path d="M1285 720 L4213 720" stroke="currentColor" stroke-width="13"/>
                        <path d="M1285 900 L4213 900" stroke="currentColor" stroke-width="13"/>
                        <path d="M1285 1080 L4213 1080" stroke="currentColor" stroke-width="13"/>
                        <path d="M1285 1260 L4213 1260" stroke="currentColor" stroke-width="13"/>
                        <g id="clef1_1" class="clef" visibility="hidden"/>
                        <g id="key1_1" class="keySig" visibility="hidden"/>
                        <g id="time1_1" class="meterSig">
                            <use xlink:href="#E086-1vr1hxa" x="1361" y="720" height="720px" width="720px"/>
                            <use xlink:href="#E088-1vr1hxa" x="1368" y="1080" height="720px" width="720px"/>
                        </g>
                        <g id="l19kah8j" class="layer">
                            <g id="note1" class="note">
                                <g class="notehead" id="note1.notehead">
                                    <use xlink:href="#E0A4-1vr1hxa" x="1920" y="1080" height="720px" width="720px"/>
                                </g>
                                <g id="note1.stem" class="stem">
                                    <path d="M2137 1052 L2137 450" stroke="currentColor" stroke-width="18"/>
                                </g>
                            </g>
                            <g id="rest1" class="rest">
                                <use xlink:href="#E4E6-1vr1hxa" x="2610" y="900" height="720px" width="720px"/>
                            </g>
                            <g id="rest2" class="rest">
                                <use xlink:href="#E4E5-1vr1hxa" x="3060" y="900" height="720px" width="720px"/>
                            </g>
                            <g id="rest3" class="rest">
                                <use xlink:href="#E4E6-1vr1hxa" x="3750" y="900" height="720px" width="720px"/>
                            </g>
                        </g>
                    </g>
                    <g id="pP1_m1.right_barline" class="barLine">
                        <path id="pP1_m1.right_barline.barline_tok1" d="M4200 540 L4200 1260" stroke="currentColor" stroke-width="27" class="barline_tok"/>
                    </g>
                </g>
                <g id="pP1_m2" class="measure">
                    <g id="sqmbjve" class="staff">
                        <path d="M4213 540 L6686 540" stroke="currentColor" stroke-width="13"/>
                        <path d="M4213 720 L6686 720" stroke="currentColor" stroke-width="13"/>
                        <path d="M4213 900 L6686 900" stroke="currentColor" stroke-width="13"/>
                        <path d="M4213 1080 L6686 1080" stroke="currentColor" stroke-width="13"/>
                        <path d="M4213 1260 L6686 1260" stroke="currentColor" stroke-width="13"/>
                        <g id="l1hqfqgd" class="layer">
                            <g id="note2" class="note">
                                <g class="notehead" id="note2.notehead">
                                    <use xlink:href="#E0A4-1vr1hxa" x="4393" y="810" height="720px" width="720px"/>
                                </g>
                                <g id="note2.stem" class="stem">
                                    <path d="M4402 838 L4402 1440" stroke="currentColor" stroke-width="18"/>
                                </g>
                            </g>
                            <g id="rest4" class="rest">
                                <use xlink:href="#E4E6-1vr1hxa" x="5083" y="900" height="720px" width="720px"/>
                            </g>
                            <g id="rest5" class="rest">
                                <use xlink:href="#E4E5-1vr1hxa" x="5533" y="900" height="720px" width="720px"/>
                            </g>
                            <g id="rest6" class="rest">
                                <use xlink:href="#E4E6-1vr1hxa" x="6223" y="900" height="720px" width="720px"/>
                            </g>
                        </g>
                    </g>
                    <g id="pP1_m2.right_barline" class="barLine">
                        <path id="pP1_m2.right_barline.barline_tok1" d="M6673 540 L6673 1260" stroke="currentColor" stroke-width="27" class="barline_tok"/>
                    </g>
                </g>
                <g id="pP1_m3" class="measure">
                    <g id="s1dn4zex" class="staff">
                        <path d="M6686 540 L9159 540" stroke="currentColor" stroke-width="13"/>
                        <path d="M6686 720 L9159 720" stroke="currentColor" stroke-width="13"/>
                        <path d="M6686 900 L9159 900" stroke="currentColor" stroke-width="13"/>
                        <path d="M6686 1080 L9159 1080" stroke="currentColor" stroke-width="13"/>
                        <path d="M6686 1260 L9159 1260" stroke="currentColor" stroke-width="13"/>
                        <g id="l11476dl" class="layer">
                            <g id="note3" class="note">
                                <g class="notehead" id="note3.notehead">
                                    <use xlink:href="#E0A4-1vr1hxa" x="6866" y="540" height="720px" width="720px"/>
                                </g>
                                <g id="note3.stem" class="stem">
                                    <path d="M6875 568 L6875 1170" stroke="currentColor" stroke-width="18"/>
                                </g>
                            </g>
                            <g id="rest7" class="rest">
                                <use xlink:href="#E4E6-1vr1hxa" x="7556" y="900" height="720px" width="720px"/>
                            </g>
                            <g id="rest8" class="rest">
                                <use xlink:href="#E4E5-1vr1hxa" x="8006" y="900" height="720px" width="720px"/>
                            </g>
                            <g id="rest9" class="rest">
                                <use xlink:href="#E4E6-1vr1hxa" x="8696" y="900" height="720px" width="720px"/>
                            </g>
                        </g>
                    </g>
                    <g id="pP1_m3.right_barline" class="barLine">
                        <path id="pP1_m3.right_barline.barline_tok1" d="M9146 540 L9146 1260" stroke="currentColor" stroke-width="27" class="barline_tok"/>
                    </g>
                </g>
                <g id="pP1_m4" class="measure">
                    <g id="s17pf7ty" class="staff">
                        <path d="M9159 540 L11632 540" stroke="currentColor" stroke-width="13"/>
                        <path d="M9159 720 L11632 720" stroke="currentColor" stroke-width="13"/>
                        <path d="M9159 900 L11632 900" stroke="currentColor" stroke-width="13"/>
                        <path d="M9159 1080 L11632 1080" stroke="currentColor" stroke-width="13"/>
                        <path d="M9159 1260 L11632 1260" stroke="currentColor" stroke-width="13"/>
                        <g id="lsjwwix" class="layer">
                            <g id="note4" class="note">
                                <g class="notehead" id="note4.notehead">
                                    <use xlink:href="#E0A4-1vr1hxa" x="9339" y="630" height="720px" width="720px"/>
                                </g>
                                <g id="note4.stem" class="stem">
                                    <path d="M9348 658 L9348 1260" stroke="currentColor" stroke-width="18"/>
                                </g>
                            </g>
                            <g id="rest10" class="rest">
                                <use xlink:href="#E4E6-1vr1hxa" x="10029" y="900" height="720px" width="720px"/>
                            </g>
                            <g id="rest11" class="rest">
                                <use xlink:href="#E4E5-1vr1hxa" x="10479" y="900" height="720px" width="720px"/>
                            </g>
                            <g id="rest12" class="rest">
                                <use xlink:href="#E4E6-1vr1hxa" x="11169" y="900" height="720px" width="720px"/>
                            </g>
                        </g>
                    </g>
                    <g id="pP1_m4.right_barline" class="barLine">
                        <path id="pP1_m4.right_barline.barline_tok1" d="M11619 540 L11619 1260" stroke="currentColor" stroke-width="27" class="barline_tok"/>
                    </g>
                </g>
                <g id="pP1_m5" class="measure">
                    <g id="s6eskd" class="staff">
                        <path d="M11632 540 L14105 540" stroke="currentColor" stroke-width="13"/>
                        <path d="M11632 720 L14105 720" stroke="currentColor" stroke-width="13"/>
                        <path d="M11632 900 L14105 900" stroke="currentColor" stroke-width="13"/>
                        <path d="M11632 1080 L14105 1080" stroke="currentColor" stroke-width="13"/>
                        <path d="M11632 1260 L14105 1260" stroke="currentColor" stroke-width="13"/>
                        <g id="llt0xau" class="layer">
                            <g id="note5" class="note">
                                <g class="notehead" id="note5.notehead">
                                    <use xlink:href="#E0A4-1vr1hxa" x="11812" y="720" height="720px" width="720px"/>
                                </g>
                                <g id="note5.stem" class="stem">
                                    <path d="M11821 748 L11821 1350" stroke="currentColor" stroke-width="18"/>
                                </g>
                                <g id="note5.accidental" class="accid"/>
                            </g>
                            <g id="rest13" class="rest">
                                <use xlink:href="#E4E6-1vr1hxa" x="12502" y="900" height="720px" width="720px"/>
                            </g>
                            <g id="rest14" class="rest">
                                <use xlink:href="#E4E5-1vr1hxa" x="12952" y="900" height="720px" width="720px"/>
                            </g>
                            <g id="rest15" class="rest">
                                <use xlink:href="#E4E6-1vr1hxa" x="13642" y="900" height="720px" width="720px"/>
                            </g>
                        </g>
                    </g>
                    <g id="pP1_m5.right_barline" class="barLine">
                        <path id="pP1_m5.right_barline.barline_tok1" d="M14092 540 L14092 1260" stroke="currentColor" stroke-width="27" class="barline_tok"/>
                    </g>
                </g>
                <g id="pP1_m6" class="measure">
                    <g id="s18zamp3" class="staff">
                        <path d="M14105 540 L16736 540" stroke="currentColor" stroke-width="13"/>
                        <path d="M14105 720 L16736 720" stroke="currentColor" stroke-width="13"/>
                        <path d="M14105 900 L16736 900" stroke="currentColor" stroke-width="13"/>
                        <path d="M14105 1080 L16736 1080" stroke="currentColor" stroke-width="13"/>
                        <path d="M14105 1260 L16736 1260" stroke="currentColor" stroke-width="13"/>
                        <g id="luem2fm" class="layer">
                            <g id="note6" class="note">
                                <g class="notehead" id="note6.notehead">
                                    <use xlink:href="#E0A4-1vr1hxa" x="14443" y="720" height="720px" width="720px"/>
                                </g>
                                <g id="note6.stem" class="stem">
                                    <path d="M14452 748 L14452 1350" stroke="currentColor" stroke-width="18"/>
                                </g>
                                <g id="note6.accidental" class="accid">
                                    <use xlink:href="#E261-1vr1hxa" x="14285" y="720" height="720px" width="720px"/>
                                </g>
                            </g>
                            <g id="rest16" class="rest">
                                <use xlink:href="#E4E6-1vr1hxa" x="15133" y="900" height="720px" width="720px"/>
                            </g>
                            <g id="rest17" class="rest">
                                <use xlink:href="#E4E5-1vr1hxa" x="15583" y="900" height="720px" width="720px"/>
                            </g>
                            <g id="rest18" class="rest">
                                <use xlink:href="#E4E6-1vr1hxa" x="16273" y="900" height="720px" width="720px"/>
                            </g>
                        </g>
                    </g>
                    <g id="pP1_m6.right_barline" class="barLine">
                        <path id="pP1_m6.right_barline.barline_tok1" d="M16723 540 L16723 1260" stroke="currentColor" stroke-width="27" class="barline_tok"/>
                    </g>
                </g>
                <g id="pP1_m7" class="measure">
                    <g id="s16l9976" class="staff">
                        <path d="M16736 540 L19209 540" stroke="currentColor" stroke-width="13"/>
                        <path d="M16736 720 L19209 720" stroke="currentColor" stroke-width="13"/>
                        <path d="M16736 900 L19209 900" stroke="currentColor" stroke-width="13"/>
                        <path d="M16736 1080 L19209 1080" stroke="currentColor" stroke-width="13"/>
                        <path d="M16736 1260 L19209 1260" stroke="currentColor" stroke-width="13"/>
                        <g id="losr4lh" class="layer">
                            <g id="note7" class="note">
                                <g class="notehead" id="note7.notehead">
                                    <use xlink:href="#E0A4-1vr1hxa" x="16916" y="810" height="720px" width="720px"/>
                                </g>
                                <g id="note7.stem" class="stem">
                                    <path d="M16925 838 L16925 1440" stroke="currentColor" stroke-width="18"/>
                                </g>
                            </g>
                            <g id="rest19" class="rest">
                                <use xlink:href="#E4E6-1vr1hxa" x="17606" y="900" height="720px" width="720px"/>
                            </g>
                            <g id="rest20" class="rest">
                                <use xlink:href="#E4E5-1vr1hxa" x="18056" y="900" height="720px" width="720px"/>
                            </g>
                            <g id="rest21" class="rest">
                                <use xlink:href="#E4E6-1vr1hxa" x="18746" y="900" height="720px" width="720px"/>
                            </g>
                        </g>
                    </g>
                    <g id="pP1_m7.right_barline" class="barLine">
                        <path id="pP1_m7.right_barline.barline_tok1" d="M19196 540 L19196 1260" stroke="currentColor" stroke-width="27" class="barline_tok"/>
                    </g>
                </g>
                <g id="pP1_m8" class="measure">
                    <g id="s92r36j" class="staff">
                        <path d="M19209 540 L20652 540" stroke="currentColor" stroke-width="13"/>
                        <path d="M19209 720 L20652 720" stroke="currentColor" stroke-width="13"/>
                        <path d="M19209 900 L20652 900" stroke="currentColor" stroke-width="13"/>
                        <path d="M19209 1080 L20652 1080" stroke="currentColor" stroke-width="13"/>
                        <path d="M19209 1260 L20652 1260" stroke="currentColor" stroke-width="13"/>
                        <g id="l1vahhu2" class="layer">
                            <g id="pP1_m8.measure_repeat" class="mRpt">
                                <use xlink:href="#E500-1vr1hxa" x="19735" y="900" height="720px" width="720px"/>
                                <use xlink:href="#E882-1vr1hxa" x="19823" y="450" height="720px" width="720px"/>
                            </g>
                        </g>
                    </g>
                    <g id="pP1_m8.right_barline" class="barLine">
                        <path id="pP1_m8.right_barline.barline_tok1" d="M20639 540 L20639 1260" stroke="currentColor" stroke-width="27" class="barline_tok"/>
                    </g>
                </g>
                <g id="pP1_m9" class="measure">
                    <g id="s1wl6z51" class="staff">
                        <path d="M20652 540 L23125 540" stroke="currentColor" stroke-width="13"/>
                        <path d="M20652 720 L23125 720" stroke="currentColor" stroke-width="13"/>
                        <path d="M20652 900 L23125 900" stroke="currentColor" stroke-width="13"/>
                        <path d="M20652 1080 L23125 1080" stroke="currentColor" stroke-width="13"/>
                        <path d="M20652 1260 L23125 1260" stroke="currentColor" stroke-width="13"/>
                        <g id="lsns3q4" class="layer">
                            <g id="note9" class="note">
                                <g class="notehead" id="note9.notehead">
                                    <use xlink:href="#E0A4-1vr1hxa" x="20832" y="1170" height="720px" width="720px"/>
                                </g>
                                <g id="note9.stem" class="stem">
                                    <path d="M21049 1142 L21049 540" stroke="currentColor" stroke-width="18"/>
                                </g>
                            </g>
                            <g id="rest25" class="rest">
                                <use xlink:href="#E4E6-1vr1hxa" x="21522" y="900" height="720px" width="720px"/>
                            </g>
                            <g id="rest26" class="rest">
                                <use xlink:href="#E4E5-1vr1hxa" x="21972" y="900" height="720px" width="720px"/>
                            </g>
                            <g id="rest27" class="rest">
                                <use xlink:href="#E4E6-1vr1hxa" x="22662" y="900" height="720px" width="720px"/>
                            </g>
                        </g>
                    </g>
                    <g id="pP1_m9.right_barline" class="barLine">
                        <path id="pP1_m9.right_barline.barline_tok1" d="M23112 540 L23112 1260" stroke="currentColor" stroke-width="27" class="barline_tok"/>
                    </g>
                </g>
                <g id="pP1_m10" class="measure">
                    <g id="s1w062xy" class="staff">
                        <path d="M23125 540 L25598 540" stroke="currentColor" stroke-width="13"/>
                        <path d="M23125 720 L25598 720" stroke="currentColor" stroke-width="13"/>
                        <path d="M23125 900 L25598 900" stroke="currentColor" stroke-width="13"/>
                        <path d="M23125 1080 L25598 1080" stroke="currentColor" stroke-width="13"/>
                        <path d="M23125 1260 L25598 1260" stroke="currentColor" stroke-width="13"/>
                        <g id="key2" class="keySig" visibility="hidden"/>
                        <g id="l3sqolq" class="layer">
                            <g id="note10" class="note">
                                <g class="notehead" id="note10.notehead">
                                    <use xlink:href="#E0A4-1vr1hxa" x="23305" y="810" height="720px" width="720px"/>
                                </g>
                                <g id="note10.stem" class="stem">
                                    <path d="M23314 838 L23314 1440" stroke="currentColor" stroke-width="18"/>
                                </g>
                            </g>
                            <g id="rest28" class="rest">
                                <use xlink:href="#E4E6-1vr1hxa" x="23995" y="900" height="720px" width="720px"/>
                            </g>
                            <g id="rest29" class="rest">
                                <use xlink:href="#E4E5-1vr1hxa" x="24445" y="900" height="720px" width="720px"/>
                            </g>
                            <g id="rest30" class="rest">
                                <use xlink:href="#E4E6-1vr1hxa" x="25135" y="900" height="720px" width="720px"/>
                            </g>
                        </g>
                    </g>
                    <g id="pP1_m10.right_barline" class="barLine">
                        <path id="pP1_m10.right_barline.barline_tok1" d="M25585 540 L25585 1260" stroke="currentColor" stroke-width="27" class="barline_tok"/>
                    </g>
                </g>
                <g id="pP1_m11" class="measure">
                    <g id="s3x893s" class="staff">
                        <path d="M25598 540 L28071 540" stroke="currentColor" stroke-width="13"/>
                        <path d="M25598 720 L28071 720" stroke="currentColor" stroke-width="13"/>
                        <path d="M25598 900 L28071 900" stroke="currentColor" stroke-width="13"/>
                        <path d="M25598 1080 L28071 1080" stroke="currentColor" stroke-width="13"/>
                        <path d="M25598 1260 L28071 1260" stroke="currentColor" stroke-width="13"/>
                        <g id="l1q6r3kr" class="layer">
                            <g id="note11" class="note">
                                <g class="notehead" id="note11.notehead">
                                    <use xlink:href="#E0A4-1vr1hxa" x="25778" y="540" height="720px" width="720px"/>
                                </g>
                                <g id="note11.stem" class="stem">
                                    <path d="M25787 568 L25787 1170" stroke="currentColor" stroke-width="18"/>
                                </g>
                            </g>
                            <g id="rest31" class="rest">
                                <use xlink:href="#E4E6-1vr1hxa" x="26468" y="900" height="720px" width="720px"/>
                            </g>
                            <g id="note12" class="note">
                                <g class="notehead" id="note12.notehead">
                                    <use xlink:href="#E0A4-1vr1hxa" x="26918" y="630" height="720px" width="720px"/>
                                </g>
                                <g id="note12.stem" class="stem">
                                    <path d="M26927 658 L26927 1260" stroke="currentColor" stroke-width="18"/>
                                </g>
                            </g>
                            <g id="rest32" class="rest">
                                <use xlink:href="#E4E6-1vr1hxa" x="27608" y="900" height="720px" width="720px"/>
                            </g>
                        </g>
                    </g>
                    <g id="pP1_m11.right_barline" class="barLine">
                        <path id="pP1_m11.right_barline.barline_tok1" d="M28058 540 L28058 1260" stroke="currentColor" stroke-width="27" class="barline_tok"/>
                    </g>
                </g>
                <g id="sdtyq1e" class="systemMilestoneEnd s19coeg"/>
            </g>
            <g id="pm4z4ur" class="pageMilestoneEnd sb9qr3a"/>
            <g id="p18vdtit" class="pageMilestoneEnd m1sq5o30"/>
        </g>
    </svg>
</svg>