<svg xmlns="http://www.w3.org/2000/svg" xmlns:xlink="http://www.w3.org/1999/xlink" xmlns:mei="http://www.music-encoding.org/ns/mei" width="2172px" height="286px" version="1.1" overflow="visible">
    <desc>Engraved by Verovio 4.3.0-dev-ba68db3-dirty</desc>
    <defs>
        <symbol id="E086-1pxczm3" viewBox="0 0 1000 1000" overflow="inherit">
            <path transform="scale(1,-1)" d="M284 -91c0 37 -28 92 -67 92c-35 0 -65 -54 -65 -111c0 -52 22 -104 68 -104c47 0 64 68 64 123zM230 214c-36 0 -90 -33 -90 -184l2 -36c40 24 81 36 120 36c80 0 140 -48 140 -121c0 -99 -99 -159 -182 -159c-160 0 -200 173 -200 244c0 21 2 43 7 71l10 35 c26 85 73 115 98 126c41 19 74 24 103 24c93 0 142 -63 142 -105c0 -58 -52 -72 -73 -72c-33 0 -59 24 -65 35c-3 5 -6 14 -7 25l11 30c6 15 9 27 9 35c0 11 -9 16 -25 16z"/>
        </symbol>
        <symbol id="E088-1pxczm3" viewBox="0 0 1000 1000" overflow="inherit">
            <path transform="scale(1,-1)" d="M195 -214c76 0 88 58 90 68c0 34 -35 60 -57 73l-52 29c-21 10 -32 17 -34 20c-39 -33 -58 -54 -62 -92c5 -23 23 -98 115 -98zM301 135c0 61 -72 76 -113 76c-40 0 -77 -17 -77 -51c3 -21 15 -38 26 -50c17 -15 33 -26 48 -34l65 -28c34 27 51 56 51 87zM176 -250 c-57 0 -166 26 -166 132c0 47 30 86 89 116c-33 15 -79 60 -79 119c0 79 85 132 178 132h18c5 0 21 1 28 -1c25 0 126 -30 126 -110c0 -37 -23 -76 -69 -116c43 -25 83 -71 83 -119c0 -101 -118 -153 -208 -153z"/>
        </symbol>
        <symbol id="E0A4-1pxczm3" viewBox="0 0 1000 1000" overflow="inherit">
            <path transform="scale(1,-1)" d="M0 -39c0 68 73 172 200 172c66 0 114 -37 114 -95c0 -84 -106 -171 -218 -171c-64 0 -96 30 -96 94z"/>
        </symbol>
        <symbol id="E262-1pxczm3" viewBox="0 0 1000 1000" overflow="inherit">
            <path transform="scale(1,-1)" d="M136 186v169h17v-164l44 14v-91l-44 -14v-165l44 12v-91l-44 -13v-155h-17v150l-76 -22v-155h-17v149l-43 -13v90l43 14v167l-43 -14v92l43 13v169h17v-163zM60 73v-167l76 22v168z"/>
        </symbol>
        <symbol id="E4E6-1pxczm3" viewBox="0 0 1000 1000" overflow="inherit">
            <path transform="scale(1,-1)" d="M0 123c7 34 33 56 69 60c29 -3 43 -9 53 -29c4 -8 7 -15 10 -22c0 -21 -1 -25 -11 -35c-5 -8 -18 -14 -40 -20l12 -3l15 -1c44 0 97 26 122 56c10 11 18 26 24 42c7 1 15 2 22 3l-140 -424h-36l111 330c-10 -6 -27 -12 -53 -16l-52 -8h-10l-20 1c-1 0 -8 3 -21 6 c-37 9 -55 28 -55 60z"/>
        </symbol>
        <symbol id="E882-1pxczm3" viewBox="0 0 1000 1000" overflow="inherit">
            <path transform="scale(1,-1)" d="M166 311c60 0 94 -21 94 -80c0 -27 -12 -51 -40 -64l-70 -32c-37 -10 -69 -30 -96 -60h21l26 -2l12 -6c14 -6 28 -11 42 -17c6 -3 13 -4 21 -4l15 4l11 8c5 5 11 13 19 26l17 -9l-16 -28c-2 -4 -16 -28 -20 -31c-19 -21 -38 -31 -57 -31h-10c-13 6 -25 12 -36 20l-15 11 c-12 7 -23 10 -32 10c-10 -3 -19 -8 -24 -17l-5 -9h-23c0 27 6 51 20 72c7 10 14 16 19 21l28 25c20 11 40 22 59 33l19 9c16 7 29 18 39 30c12 15 19 30 19 45l1 12c0 13 -4 24 -12 31c-6 9 -15 14 -28 14c-29 0 -46 -15 -52 -44l3 -12l2 -16c0 -20 -8 -29 -25 -29 c-14 0 -26 13 -26 28c0 48 52 92 100 92z"/>
        </symbol>
        <symbol id="E883-1pxczm3" viewBox="0 0 1000 1000" overflow="inherit">
            <path transform="scale(1,-1)" d="M161 326c52 0 94 -17 94 -68c0 -50 -40 -76 -82 -94c26 -21 39 -42 39 -64c0 -52 -56 -100 -118 -100h-12c-40 0 -82 23 -82 56c0 30 12 49 37 49c17 0 31 -16 34 -31c0 -5 -4 -12 -11 -21c-7 -5 -13 -10 -13 -21l11 -9l17 -4c21 0 40 12 56 37c13 21 19 45 19 70 c-9 30 -28 35 -66 35l6 23c34 0 60 4 77 13c20 11 30 35 30 70c0 28 -12 38 -39 40l-20 -3c-8 -3 -12 -9 -12 -16c2 -7 4 -11 5 -14l4 -11l3 -10l-3 -12c-5 -6 -11 -11 -20 -13c-2 0 -4 -1 -6 -1c-16 0 -30 13 -30 28c0 39 43 71 82 71z"/>
        </symbol>
        <symbol id="E884-1pxczm3" viewBox="0 0 1000 1000" overflow="inherit">
            <path transform="scale(1,-1)" d="M259 110l-6 -21h-59l-16 -52c-3 -6 0 -11 9 -14l34 -2l-6 -21h-155l6 21l18 1l15 4c9 3 16 11 20 23l13 40h-132l5 21c12 10 26 22 39 39l33 43c13 18 27 41 40 68l21 51h97l-36 -49c-13 -16 -33 -34 -49 -49c-36 -35 -76 -67 -115 -100l108 -3l20 72l80 77h5l-44 -149 h55z"/>
        </symbol>
        <symbol id="E500-1pxczm3" viewBox="0 0 1000 1000" overflow="inherit">
            <path transform="scale(1,-1)" d="M508 242l-362 -484h-146l362 484h146zM52 118c0 13 4 25 13 34s19 14 32 15c14 0 26 -4 35 -12s14 -19 15 -33c0 -13 -4 -25 -13 -34s-19 -14 -32 -15c-14 0 -26 4 -35 12s-14 19 -15 33zM361 -121c0 13 4 25 13 34s19 14 32 15c14 0 26 -4 35 -12s14 -19 15 -33 c0 -13 -4 -25 -13 -34s-19 -14 -32 -15c-14 0 -26 4 -35 12s-14 19 -15 33z"/>
        </symbol>
        <symbol id="E220-1pxczm3" viewBox="0 0 1000 1000" overflow="inherit">
            <path transform="scale(1,-1)" d="M-163 -25l326 150v-100l-326 -150v100z"/>
        </symbol>
    </defs>
    <style type="text/css">g.page-margin{font-family:Times,serif;} g.ending, g.fing, g.reh, g.tempo{font-weight:bold;} g.dir, g.dynam, g.mNum{font-style:italic;} g.label{font-weight:normal;}</style>
    <svg class="definition-scale" color="black" viewBox="0 0 21720 2860">
        <g class="page-margin" transform="translate(500, 500)">
            <g id="mky05tm" class="mdiv pageMilestone"/>
            <g id="szyy3ol" class="score pageMilestone"/>
            <g id="sd4qd4j" class="system">
                <g id="lmrhf8t" class="label">
                    <text x="1105" y="990" text-anchor="end" font-size="0px">
                        <tspan id="tlgppbv" class="text">
                            <tspan font-size="405px">Piano</tspan>
                        </tspan>
                    </text>
                </g>
                <g id="srw9adu" class="section systemMilestone"/>
                <g id="pP1_m1" class="measure">
                    <g id="s18wlxkl" class="staff">
                        <path d="M1285 540 L4213 540" stroke="currentColor" stroke-width="13"/>
                        <path d="M1285 720 L4213 720" stroke="currentColor" stroke-width="13"/>
                        <path d="M1285 900 L4213 900" stroke="currentColor" stroke-width="13"/>
                        <path d="M1285 1080 L4213 1080" stroke="currentColor" stroke-width="13"/>
                        <path d="M1285 1260 L4213 1260" stroke="currentColor" stroke-width="13"/>
                        <g id="clef1_1" class="clef" visibility="hidden"/>
                        <g id="key1_1" class="keySig" visibility="hidden"/>
                        <g id="time1_1" class="meterSig">
                            <use xlink:href="#E086-1pxczm3" x="1361" y="720" height="720px" width="720px"/>
                            <use xlink:href="#E088-1pxczm3" x="1368" y="1080" height="720px" width="720px"/>
                        </g>
                        <g id="lhixu9r" class="layer">
                            <g id="note1" class="note">
                                <g class="notehead" id="note1.notehead">
                                    <use xlink:href="#E0A4-1pxczm3" x="1920" y="1350" height="720px" width="720px"/>
                                </g>
                                <g id="note1.stem" class="stem">
                                    <path d="M2137 1322 L2137 720" stroke="currentColor" stroke-width="18"/>
                                </g>
                            </g>
                            <g id="rest1" class="rest">
                                <use xlink:href="#E4E6-1pxczm3" x="2610" y="900" height="720px" width="720px"/>
                            </g>
                            <g id="chord.note2_note3" class="chord">
                                <g id="chord.note2_note3.stem" class="stem">
                                    <path d="M3069 658 L3069 1560" stroke="currentColor" stroke-width="18"/>
                                </g>
                                <g id="note2" class="note">
                                    <g class="notehead" id="note2.notehead">
                                        <use xlink:href="#E0A4-1pxczm3" x="3060" y="990" height="720px" width="720px"/>
                                    </g>
                                </g>
                                <g id="note3" class="note">
                                    <g class="notehead" id="note3.notehead">
                                        <use xlink:href="#E0A4-1pxczm3" x="3060" y="630" height="720px" width="720px"/>
                                    </g>
                                </g>
                            </g>
                            <g id="rest2" class="rest">
                                <use xlink:href="#E4E6-1pxczm3" x="3750" y="900" height="720px" width="720px"/>
                            </g>
                        </g>
                    </g>
                    <g id="pP1_m1.right_barline" class="barLine">
                        <path id="pP1_m1.right_barline.barline_tok1" d="M4200 540 L4200 1260" stroke="currentColor" stroke-width="27" class="barline_tok"/>
                    </g>
                </g>
                <g id="pP1_m2" class="measure">
                    <g id="skrdtcp" class="staff">
                        <path d="M4213 540 L6516 540" stroke="currentColor" stroke-width="13"/>
                        <path d="M4213 720 L6516 720" stroke="currentColor" stroke-width="13"/>
                        <path d="M4213 900 L6516 900" stroke="currentColor" stroke-width="13"/>
                        <path d="M4213 1080 L6516 1080" stroke="currentColor" stroke-width="13"/>
                        <path d="M4213 1260 L6516 1260" stroke="currentColor" stroke-width="13"/>
                        <g id="l1kb04jj" class="layer">
                            <g id="rest3" class="rest">
                                <use xlink:href="#E4E6-1pxczm3" x="4393" y="900" height="720px" width="720px"/>
                            </g>
                            <g id="note4.tremolo_single" class="bTrem">
                                <use xlink:href="#E220-1pxczm3" x="5060" y="1080" height="720px" width="720px" id="note4.tremolo_single.line1" class="bTrem_line"/>
                                <g id="note4" class="note">
                                    <g class="notehead" id="note4.notehead">
                                        <use xlink:href="#E0A4-1pxczm3" x="4843" y="1350" height="720px" width="720px"/>
                                    </g>
                                    <g id="note4.stem" class="stem">
                                        <path d="M5060 1322 L5060 720" stroke="currentColor" stroke-width="18"/>
                                    </g>
                                </g>
                            </g>
                            <g id="note5.tremolo_single" class="bTrem">
                                <use xlink:href="#E220-1pxczm3" x="5750" y="1080" height="720px" width="720px" id="note5.tremolo_single.line1" class="bTrem_line"/>
                                <g id="note5" class="note">
                                    <g class="notehead" id="note5.notehead">
                                        <use xlink:href="#E0A4-1pxczm3" x="5533" y="1350" height="720px" width="720px"/>
                                    </g>
                                    <g id="note5.dots_parent" class="dots">
                                        <ellipse cx="5849" cy="1350" rx="36" ry="36" id="note5.dot1" class="single_dot"/>
                                    </g>
                                    <g id="note5.stem" class="stem">
                                        <path d="M5750 1322 L5750 720" stroke="currentColor" stroke-width="18"/>
                                    </g>
                                </g>
                            </g>
                        </g>
                    </g>
                    <g id="pP1_m2.right_barline" class="barLine">
                        <path id="pP1_m2.right_barline.barline_tok1" d="M6503 540 L6503 1260" stroke="currentColor" stroke-width="27" class="barline_tok"/>
                    </g>
                </g>
                <g id="pP1_m3" class="measure">
                    <g id="s6lg9gs" class="staff">
                        <path d="M6516 540 L7959 540" stroke="currentColor" stroke-width="13"/>
                        <path d="M6516 720 L7959 720" stroke="currentColor" stroke-width="13"/>
                        <path d="M6516 900 L7959 900" stroke="currentColor" stroke-width="13"/>
                        <path d="M6516 1080 L7959 1080" stroke="currentColor" stroke-width="13"/>
                        <path d="M6516 1260 L7959 1260" stroke="currentColor" stroke-width="13"/>
                        <g id="l1o2snxa" class="layer">
                            <g id="pP1_m3.measure_repeat" class="mRpt">
                                <use xlink:href="#E500-1pxczm3" x="7042" y="900" height="720px" width="720px"/>
                                <use xlink:href="#E882-1pxczm3" x="7130" y="450" height="720px" width="720px"/>
                            </g>
                        </g>
                    </g>
                    <g id="pP1_m3.right_barline" class="barLine">
                        <path id="pP1_m3.right_barline.barline_tok1" d="M7946 540 L7946 1260" stroke="currentColor" stroke-width="27" class="barline_tok"/>
                    </g>
                </g>
                <g id="pP1_m4" class="measure">
                    <g id="s11zkzm9" class="staff">
                        <path d="M7959 540 L9402 540" stroke="currentColor" stroke-width="13"/>
                        <path d="M7959 720 L9402 720" stroke="currentColor" stroke-width="13"/>
                        <path d="M7959 900 L9402 900" stroke="currentColor" stroke-width="13"/>
                        <path d="M7959 1080 L9402 1080" stroke="currentColor" stroke-width="13"/>
                        <path d="M7959 1260 L9402 1260" stroke="currentColor" stroke-width="13"/>
                        <g id="l1v2oh9c" class="layer">
                            <g id="pP1_m4.measure_repeat" class="mRpt">
                                <use xlink:href="#E500-1pxczm3" x="8485" y="900" height="720px" width="720px"/>
                                <use xlink:href="#E883-1pxczm3" x="8575" y="450" height="720px" width="720px"/>
                            </g>
                        </g>
                    </g>
                    <g id="pP1_m4.right_barline" class="barLine">
                        <path id="pP1_m4.right_barline.barline_tok1" d="M9389 540 L9389 1260" stroke="currentColor" stroke-width="27" class="barline_tok"/>
                    </g>
                </g>
                <g id="pP1_m5" class="measure">
                    <g id="sthpf4c" class="staff">
                        <path d="M9402 540 L11705 540" stroke="currentColor" stroke-width="13"/>
                        <path d="M9402 720 L11705 720" stroke="currentColor" stroke-width="13"/>
                        <path d="M9402 900 L11705 900" stroke="currentColor" stroke-width="13"/>
                        <path d="M9402 1080 L11705 1080" stroke="currentColor" stroke-width="13"/>
                        <path d="M9402 1260 L11705 1260" stroke="currentColor" stroke-width="13"/>
                        <g id="l1ub4tow" class="layer">
                            <g id="rest6" class="rest">
                                <use xlink:href="#E4E6-1pxczm3" x="9582" y="900" height="720px" width="720px"/>
                            </g>
                            <g id="note10.tremolo_single" class="bTrem">
                                <use xlink:href="#E220-1pxczm3" x="10249" y="1080" height="720px" width="720px" id="note10.tremolo_single.line1" class="bTrem_line"/>
                                <g id="note10" class="note">
                                    <g class="notehead" id="note10.notehead">
                                        <use xlink:href="#E0A4-1pxczm3" x="10032" y="1350" height="720px" width="720px"/>
                                    </g>
                                    <g id="note10.stem" class="stem">
                                        <path d="M10249 1322 L10249 720" stroke="currentColor" stroke-width="18"/>
                                    </g>
                                </g>
                            </g>
                            <g id="note11.tremolo_single" class="bTrem">
                                <use xlink:href="#E220-1pxczm3" x="10939" y="1080" height="720px" width="720px" id="note11.tremolo_single.line1" class="bTrem_line"/>
                                <g id="note11" class="note">
                                    <g class="notehead" id="note11.notehead">
                                        <use xlink:href="#E0A4-1pxczm3" x="10722" y="1350" height="720px" width="720px"/>
                                    </g>
                                    <g id="note11.dots_parent" class="dots">
                                        <ellipse cx="11038" cy="1350" rx="36" ry="36" id="note11.dot1" class="single_dot"/>
                                    </g>
                                    <g id="note11.stem" class="stem">
                                        <path d="M10939 1322 L10939 720" stroke="currentColor" stroke-width="18"/>
                                    </g>
                                </g>
                            </g>
                        </g>
                    </g>
                    <g id="pP1_m5.right_barline" class="barLine">
                        <path id="pP1_m5.right_barline.barline_tok1" d="M11692 540 L11692 1260" stroke="currentColor" stroke-width="27" class="barline_tok"/>
                    </g>
                </g>
                <g id="pP1_m6" class="measure">
                    <g id="s1ahidnq" class="staff">
                        <path d="M11705 540 L13148 540" stroke="currentColor" stroke-width="13"/>
                        <path d="M11705 720 L13148 720" stroke="currentColor" stroke-width="13"/>
                        <path d="M11705 900 L13148 900" stroke="currentColor" stroke-width="13"/>
                        <path d="M11705 1080 L13148 1080" stroke="currentColor" stroke-width="13"/>
                        <path d="M11705 1260 L13148 1260" stroke="currentColor" stroke-width="13"/>
                        <g id="l1k10ccc" class="layer">
                            <g id="pP1_m6.measure_repeat" class="mRpt">
                                <use xlink:href="#E500-1pxczm3" x="12231" y="900" height="720px" width="720px"/>
                                <use xlink:href="#E882-1pxczm3" x="12319" y="450" height="720px" width="720px"/>
                            </g>
                        </g>
                    </g>
                    <g id="pP1_m6.right_barline" class="barLine">
                        <path id="pP1_m6.right_barline.barline_tok1" d="M13135 540 L13135 1260" stroke="currentColor" stroke-width="27" class="barline_tok"/>
                    </g>
                </g>
                <g id="pP1_m7" class="measure">
                    <g id="s8ygfx" class="staff">
                        <path d="M13148 540 L14591 540" stroke="currentColor" stroke-width="13"/>
                        <path d="M13148 720 L14591 720" stroke="currentColor" stroke-width="13"/>
                        <path d="M13148 900 L14591 900" stroke="currentColor" stroke-width="13"/>
                        <path d="M13148 1080 L14591 1080" stroke="currentColor" stroke-width="13"/>
                        <path d="M13148 1260 L14591 1260" stroke="currentColor" stroke-width="13"/>
                        <g id="l5qgcih" class="layer">
                            <g id="pP1_m7.measure_repeat" class="mRpt">
                                <use xlink:href="#E500-1pxczm3" x="13674" y="900" height="720px" width="720px"/>
                                <use xlink:href="#E883-1pxczm3" x="13764" y="450" height="720px" width="720px"/>
                            </g>
                        </g>
                    </g>
                    <g id="pP1_m7.right_barline" class="barLine">
                        <path id="pP1_m7.right_barline.barline_tok1" d="M14578 540 L14578 1260" stroke="currentColor" stroke-width="27" class="barline_tok"/>
                    </g>
                </g>
                <g id="pP1_m8" class="measure">
                    <g id="s1z090ew" class="staff">
                        <path d="M14591 540 L16034 540" stroke="currentColor" stroke-width="13"/>
                        <path d="M14591 720 L16034 720" stroke="currentColor" stroke-width="13"/>
                        <path d="M14591 900 L16034 900" stroke="currentColor" stroke-width="13"/>
                        <path d="M14591 1080 L16034 1080" stroke="currentColor" stroke-width="13"/>
                        <path d="M14591 1260 L16034 1260" stroke="currentColor" stroke-width="13"/>
                        <g id="lleupe4" class="layer">
                            <g id="pP1_m8.measure_repeat" class="mRpt">
                                <use xlink:href="#E500-1pxczm3" x="15117" y="900" height="720px" width="720px"/>
                                <use xlink:href="#E884-1pxczm3" x="15206" y="450" height="720px" width="720px"/>
                            </g>
                        </g>
                    </g>
                    <g id="pP1_m8.right_barline" class="barLine">
                        <path id="pP1_m8.right_barline.barline_tok1" d="M16021 540 L16021 1260" stroke="currentColor" stroke-width="27" class="barline_tok"/>
                    </g>
                </g>
                <g id="pP1_m9" class="measure">
                    <g id="s17l0d15" class="staff">
                        <path d="M16034 540 L18507 540" stroke="currentColor" stroke-width="13"/>
                        <path d="M16034 720 L18507 720" stroke="currentColor" stroke-width="13"/>
                        <path d="M16034 900 L18507 900" stroke="currentColor" stroke-width="13"/>
                        <path d="M16034 1080 L18507 1080" stroke="currentColor" stroke-width="13"/>
                        <path d="M16034 1260 L18507 1260" stroke="currentColor" stroke-width="13"/>
                        <g class="ledgerLines below">
                            <path d="M16616 1440 L16938 1440" stroke="currentColor" stroke-width="22"/>
                            <path d="M17756 1440 L18078 1440" stroke="currentColor" stroke-width="22"/>
                            <path d="M16616 1620 L16938 1620" stroke="currentColor" stroke-width="22"/>
                            <path d="M17756 1620 L18078 1620" stroke="currentColor" stroke-width="22"/>
                        </g>
                        <g id="l11q9gbj" class="layer">
                            <g id="rest10" class="rest">
                                <use xlink:href="#E4E6-1pxczm3" x="16214" y="900" height="720px" width="720px"/>
                            </g>
                            <g id="note18.tremolo_single" class="bTrem">
                                <use xlink:href="#E220-1pxczm3" x="16881" y="900" height="720px" width="720px" id="note18.tremolo_single.line1" class="bTrem_line"/>
                                <g id="chord.note18_note19" class="chord">
                                    <g id="chord.note18_note19.stem" class="stem">
                                        <path d="M16881 1592 L16881 630" stroke="currentColor" stroke-width="18"/>
                                    </g>
                                    <g id="note18" class="note">
                                        <g class="notehead" id="note18.notehead">
                                            <use xlink:href="#E0A4-1pxczm3" x="16664" y="1620" height="720px" width="720px"/>
                                        </g>
                                    </g>
                                    <g id="note19" class="note">
                                        <g class="notehead" id="note19.notehead">
                                            <use xlink:href="#E0A4-1pxczm3" x="16664" y="1260" height="720px" width="720px"/>
                                        </g>
                                    </g>
                                </g>
                            </g>
                            <g id="rest11" class="rest">
                                <use xlink:href="#E4E6-1pxczm3" x="17354" y="900" height="720px" width="720px"/>
                            </g>
                            <g id="note20.tremolo_single" class="bTrem">
                                <use xlink:href="#E220-1pxczm3" x="18021" y="900" height="720px" width="720px" id="note20.tremolo_single.line1" class="bTrem_line"/>
                                <g id="chord.note20_note21" class="chord">
                                    <g id="chord.note20_note21.stem" class="stem">
                                        <path d="M18021 1592 L18021 630" stroke="currentColor" stroke-width="18"/>
                                    </g>
                                    <g id="note20" class="note">
                                        <g class="notehead" id="note20.notehead">
                                            <use xlink:href="#E0A4-1pxczm3" x="17804" y="1620" height="720px" width="720px"/>
                                        </g>
                                    </g>
                                    <g id="note21" class="note">
                                        <g class="notehead" id="note21.notehead">
                                            <use xlink:href="#E0A4-1pxczm3" x="17804" y="1260" height="720px" width="720px"/>
                                        </g>
                                    </g>
                                </g>
                            </g>
                        </g>
                    </g>
                    <g id="pP1_m9.right_barline" class="barLine">
                        <path id="pP1_m9.right_barline.barline_tok1" d="M18494 540 L18494 1260" stroke="currentColor" stroke-width="27" class="barline_tok"/>
                    </g>
                </g>
                <g id="pP1_m10" class="measure">
                    <g id="s6ltyer" class="staff">
                        <path d="M18507 540 L20720 540" stroke="currentColor" stroke-width="13"/>
                        <path d="M18507 720 L20720 720" stroke="currentColor" stroke-width="13"/>
                        <path d="M18507 900 L20720 900" stroke="currentColor" stroke-width="13"/>
                        <path d="M18507 1080 L20720 1080" stroke="currentColor" stroke-width="13"/>
                        <path d="M18507 1260 L20720 1260" stroke="currentColor" stroke-width="13"/>
                        <g class="ledgerLines below">
                            <path d="M19089 1440 L19411 1440" stroke="currentColor" stroke-width="22"/>
                            <path d="M19779 1440 L20101 1440" stroke="currentColor" stroke-width="22"/>
                            <path d="M19089 1620 L19411 1620" stroke="currentColor" stroke-width="22"/>
                            <path d="M19779 1620 L20101 1620" stroke="currentColor" stroke-width="22"/>
                        </g>
                        <g id="l16ilvc1" class="layer">
                            <g id="rest12" class="rest">
                                <use xlink:href="#E4E6-1pxczm3" x="18687" y="900" height="720px" width="720px"/>
                            </g>
                            <g id="note22.tremolo_single" class="bTrem">
                                <use xlink:href="#E220-1pxczm3" x="19354" y="900" height="720px" width="720px" id="note22.tremolo_single.line1" class="bTrem_line"/>
                                <g id="chord.note22_note23" class="chord">
                                    <g id="chord.note22_note23.stem" class="stem">
                                        <path d="M19354 1592 L19354 540" stroke="currentColor" stroke-width="18"/>
                                    </g>
                                    <g id="note22" class="note">
                                        <g class="notehead" id="note22.notehead">
                                            <use xlink:href="#E0A4-1pxczm3" x="19137" y="1620" height="720px" width="720px"/>
                                        </g>
                                        <g id="note22.accidental" class="accid">
                                            <use xlink:href="#E262-1pxczm3" x="18925" y="1620" height="720px" width="720px"/>
                                        </g>
                                    </g>
                                    <g id="note23" class="note">
                                        <g class="notehead" id="note23.notehead">
                                            <use xlink:href="#E0A4-1pxczm3" x="19137" y="1170" height="720px" width="720px"/>
                                        </g>
                                        <g id="note23.accidental" class="accid"/>
                                    </g>
                                </g>
                            </g>
                            <g id="note24.tremolo_single" class="bTrem">
                                <use xlink:href="#E220-1pxczm3" x="20044" y="900" height="720px" width="720px" id="note24.tremolo_single.line1" class="bTrem_line"/>
                                <g id="chord.note24_note25" class="chord">
                                    <g id="chord.note24_note25.dots_parent" class="dots">
                                        <ellipse cx="20143" cy="1530" rx="36" ry="36" class="single_dot" id="note24.dot1"/>
                                        <ellipse cx="20143" cy="1170" rx="36" ry="36" class="single_dot" id="note25.dot1"/>
                                    </g>
                                    <g id="chord.note24_note25.stem" class="stem">
                                        <path d="M20044 1592 L20044 540" stroke="currentColor" stroke-width="18"/>
                                    </g>
                                    <g id="note24" class="note">
                                        <g class="notehead" id="note24.notehead">
                                            <use xlink:href="#E0A4-1pxczm3" x="19827" y="1620" height="720px" width="720px"/>
                                        </g>
                                        <g id="note24.accidental" class="accid"/>
                                    </g>
                                    <g id="note25" class="note">
                                        <g class="notehead" id="note25.notehead">
                                            <use xlink:href="#E0A4-1pxczm3" x="19827" y="1170" height="720px" width="720px"/>
                                        </g>
                                        <g id="note25.accidental" class="accid"/>
                                    </g>
                                </g>
                            </g>
                        </g>
                    </g>
                    <g id="pP1_m10.right_barline" class="barLine">
                        <path id="pP1_m10.right_barline.barline_tok1" d="M20707 540 L20707 1260" stroke="currentColor" stroke-width="27" class="barline_tok"/>
                    </g>
                </g>
                <g id="s251sq6" class="systemMilestoneEnd srw9adu"/>
            </g>
            <g id="ppo3gup" class="pageMilestoneEnd szyy3ol"/>
            <g id="p1pl74c7" class="pageMilestoneEnd mky05tm"/>
        </g>
    </svg>
</svg>