<svg xmlns="http://www.w3.org/2000/svg" xmlns:xlink="http://www.w3.org/1999/xlink" xmlns:mei="http://www.music-encoding.org/ns/mei" width="2467px" height="280px" version="1.1" overflow="visible">
    <desc>Engraved by Verovio 4.3.0-dev-ba68db3-dirty</desc>
    <defs>
        <symbol id="E0A3-tjrby0" viewBox="0 0 1000 1000" overflow="inherit">
            <path transform="scale(1,-1)" d="M278 64c0 22 -17 39 -43 39c-12 0 -26 -3 -41 -10c-85 -43 -165 -94 -165 -156c5 -25 15 -32 49 -32c67 11 200 95 200 159zM0 -36c0 68 73 174 200 174c66 0 114 -39 114 -97c0 -84 -106 -173 -218 -173c-64 0 -96 32 -96 96z"/>
        </symbol>
        <symbol id="E082-tjrby0" viewBox="0 0 1000 1000" overflow="inherit">
            <path transform="scale(1,-1)" d="M124 -185c-18 0 -55 -14 -65 -65h-36l-3 30c0 25 6 45 18 63c11 19 22 30 39 43l121 82l37 29c15 11 27 29 38 54c12 24 18 47 18 70c0 40 -19 88 -94 88c-25 0 -32 0 -50 -8c-14 -5 -23 -12 -26 -22c3 -9 7 -15 10 -18l24 -17c12 -7 17 -11 27 -21c5 -7 7 -16 7 -27 c0 -12 0 -57 -79 -74c-30 0 -76 26 -76 94c0 66 81 135 197 135c72 0 181 -32 181 -150c0 -53 -32 -95 -113 -133l-91 -41c-26 -11 -45 -23 -57 -37l49 7c84 0 115 -41 148 -41c20 0 33 20 39 61h35c0 -152 -68 -168 -114 -168c-17 0 -65 0 -79 7h10l-28 17 c-49 37 -69 40 -87 42z"/>
        </symbol>
        <symbol id="E083-tjrby0" viewBox="0 0 1000 1000" overflow="inherit">
            <path transform="scale(1,-1)" d="M208 250c97 0 177 -52 177 -116c0 -69 -40 -111 -118 -125c56 -5 125 -44 125 -116c0 -31 -10 -57 -31 -78c-19 -21 -45 -38 -78 -49l-50 -11c-15 -3 -36 -7 -55 -7c-50 0 -86 16 -113 38c-16 10 -23 18 -34 34c-7 13 -11 25 -11 38c0 43 27 83 68 83l3 -2 c61 0 75 -42 75 -70c0 -19 -24 -42 -26 -57c7 -17 20 -25 37 -25c44 0 94 29 94 78c0 75 -34 125 -138 125v36c84 0 131 22 131 98c0 54 -37 88 -87 88c-26 0 -43 -7 -51 -22c15 -22 44 -16 44 -70c0 -37 -37 -62 -71 -62c-22 0 -69 15 -69 76c0 79 101 116 178 116z"/>
        </symbol>
        <symbol id="E084-tjrby0" viewBox="0 0 1000 1000" overflow="inherit">
            <path transform="scale(1,-1)" d="M20 -78c84 97 114 180 134 329h170c-13 -32 -82 -132 -99 -151l-84 -97c-33 -36 -59 -63 -80 -81h162v102l127 123v-225h57v-39h-57v-34c0 -43 19 -65 57 -65v-34h-244v36c48 0 60 26 60 70v27h-203v39z"/>
        </symbol>
        <symbol id="E088-tjrby0" viewBox="0 0 1000 1000" overflow="inherit">
            <path transform="scale(1,-1)" d="M195 -214c76 0 88 58 90 68c0 34 -35 60 -57 73l-52 29c-21 10 -32 17 -34 20c-39 -33 -58 -54 -62 -92c5 -23 23 -98 115 -98zM301 135c0 61 -72 76 -113 76c-40 0 -77 -17 -77 -51c3 -21 15 -38 26 -50c17 -15 33 -26 48 -34l65 -28c34 27 51 56 51 87zM176 -250 c-57 0 -166 26 -166 132c0 47 30 86 89 116c-33 15 -79 60 -79 119c0 79 85 132 178 132h18c5 0 21 1 28 -1c25 0 126 -30 126 -110c0 -37 -23 -76 -69 -116c43 -25 83 -71 83 -119c0 -101 -118 -153 -208 -153z"/>
        </symbol>
        <symbol id="E0A4-tjrby0" viewBox="0 0 1000 1000" overflow="inherit">
            <path transform="scale(1,-1)" d="M0 -39c0 68 73 172 200 172c66 0 114 -37 114 -95c0 -84 -106 -171 -218 -171c-64 0 -96 30 -96 94z"/>
        </symbol>
        <symbol id="E240-tjrby0" viewBox="0 0 1000 1000" overflow="inherit">
            <path transform="scale(1,-1)" d="M179 -646c15 29 29 55 46 102c18 49 30 108 30 138c0 105 -80 173 -168 200c-18 5 -47 9 -87 16v190h22c8 0 33 -61 71 -95c4 -3 -2 3 61 -56c62 -58 122 -137 122 -241c0 -38 -13 -106 -35 -163c-20 -51 -43 -99 -66 -132c-6 -5 -10 -7 -13 -7s-5 2 -5 5l4 10 c1 3 14 25 18 33z"/>
        </symbol>
        <symbol id="E241-tjrby0" viewBox="0 0 1000 1000" overflow="inherit">
            <path transform="scale(1,-1)" d="M179 646c-4 8 -17 30 -18 33l-4 10c0 3 2 5 5 5s7 -2 13 -7c23 -33 46 -81 66 -132c22 -57 35 -125 35 -163c0 -104 -60 -183 -122 -241c-63 -59 -57 -53 -61 -56c-38 -34 -63 -95 -71 -95h-22v190c40 7 69 11 87 16c88 27 168 95 168 200c0 30 -12 89 -30 138 c-17 47 -31 73 -46 102z"/>
        </symbol>
        <symbol id="E4E5-tjrby0" viewBox="0 0 1000 1000" overflow="inherit">
            <path transform="scale(1,-1)" d="M107 292c-13 24 -30 49 -52 71c-1 1 0 2 0 3l-2 2c3 3 4 4 6 4c12 0 26 -7 40 -20s44 -40 89 -81c26 -24 28 -29 46 -47c4 -4 8 -9 10 -14c6 -8 8 -16 8 -27c0 -19 -12 -40 -36 -61c-28 -23 -49 -38 -61 -73c-4 -11 -7 -27 -10 -50c13 -43 34 -83 59 -121 c31 -47 59 -79 101 -129c-8 0 -26 7 -54 20l-62 29l-21 6l-23 1c-25 0 -45 -10 -60 -30l-4 -14l-1 -12c0 -33 20 -56 39 -78c8 -9 17 -18 26 -26c17 -15 27 -24 28 -30l-3 -3c-11 5 -19 10 -25 15c-9 3 -37 21 -45 26c-24 14 -45 32 -63 51c-19 21 -37 44 -37 71 c0 63 27 95 80 95c41 0 86 -18 136 -52c-19 26 -37 48 -55 66c-23 23 -48 44 -73 65c-28 23 -47 40 -58 53s-17 26 -18 39c75 64 113 125 113 183c0 27 -7 48 -18 68z"/>
        </symbol>
        <symbol id="E4E6-tjrby0" viewBox="0 0 1000 1000" overflow="inherit">
            <path transform="scale(1,-1)" d="M0 123c7 34 33 56 69 60c29 -3 43 -9 53 -29c4 -8 7 -15 10 -22c0 -21 -1 -25 -11 -35c-5 -8 -18 -14 -40 -20l12 -3l15 -1c44 0 97 26 122 56c10 11 18 26 24 42c7 1 15 2 22 3l-140 -424h-36l111 330c-10 -6 -27 -12 -53 -16l-52 -8h-10l-20 1c-1 0 -8 3 -21 6 c-37 9 -55 28 -55 60z"/>
        </symbol>
        <symbol id="E4A0-tjrby0" viewBox="0 0 1000 1000" overflow="inherit">
            <path transform="scale(1,-1)" d="M0 236l347 -119l-347 -117v33l252 84l-252 86v33z"/>
        </symbol>
        <symbol id="E4A1-tjrby0" viewBox="0 0 1000 1000" overflow="inherit">
            <path transform="scale(1,-1)" d="M0 -236v33l252 86l-252 84v33l347 -117z"/>
        </symbol>
        <symbol id="E4E3-tjrby0" viewBox="0 0 1000 1000" overflow="inherit">
            <path transform="scale(1,-1)" d="M0 -115v105c0 9 1 10 10 10h280c9 0 10 -1 10 -10v-105c0 -9 -1 -10 -10 -10h-280c-9 0 -10 1 -10 10z"/>
        </symbol>
        <symbol id="E4E2-tjrby0" viewBox="0 0 1000 1000" overflow="inherit">
            <path transform="scale(1,-1)" d="M0 10v230c0 8 2 10 10 10h105c8 0 10 -2 10 -10v-230c0 -8 -2 -10 -10 -10h-105c-8 0 -10 2 -10 10z"/>
        </symbol>
    </defs>
    <style type="text/css">g.page-margin{font-family:Times,serif;} g.ending, g.fing, g.reh, g.tempo{font-weight:bold;} g.dir, g.dynam, g.mNum{font-style:italic;} g.label{font-weight:normal;}</style>
    <svg class="definition-scale" color="black" viewBox="0 0 24670 2800">
        <g class="page-margin" transform="translate(500, 500)">
            <g id="mtleifb" class="mdiv pageMilestone"/>
            <g id="s1eune4j" class="score pageMilestone"/>
            <g id="s99o4i5" class="system">
                <g id="l1m71uuo" class="label">
                    <text x="1105" y="990" text-anchor="end" font-size="0px">
                        <tspan id="t16hvlk3" class="text">
                            <tspan font-size="405px">Piano</tspan>
                        </tspan>
                    </text>
                </g>
                <g id="sutb0au" class="section systemMilestone"/>
                <g id="pP1_m1" class="measure">
                    <g id="s48zgpu" class="staff">
                        <path d="M1285 540 L3537 540" stroke="currentColor" stroke-width="13"/>
                        <path d="M1285 720 L3537 720" stroke="currentColor" stroke-width="13"/>
                        <path d="M1285 900 L3537 900" stroke="currentColor" stroke-width="13"/>
                        <path d="M1285 1080 L3537 1080" stroke="currentColor" stroke-width="13"/>
                        <path d="M1285 1260 L3537 1260" stroke="currentColor" stroke-width="13"/>
                        <g id="clef1_1" class="clef" visibility="hidden"/>
                        <g id="key1_1" class="keySig" visibility="hidden"/>
                        <g id="time1_1" class="meterSig">
                            <use xlink:href="#E082-tjrby0" x="1361" y="720" height="720px" width="720px"/>
                            <use xlink:href="#E084-tjrby0" x="1366" y="1080" height="720px" width="720px"/>
                        </g>
                        <g class="ledgerLines below">
                            <path d="M1886 1440 L2208 1440" stroke="currentColor" stroke-width="22"/>
                        </g>
                        <g id="l70slka" class="layer">
                            <g id="note1" class="note">
                                <g class="notehead" id="note1.notehead">
                                    <use xlink:href="#E0A4-tjrby0" x="1934" y="1440" height="720px" width="720px"/>
                                </g>
                                <g id="note1.stem" class="stem">
                                    <path d="M2151 1412 L2151 810" stroke="currentColor" stroke-width="18"/>
                                </g>
                            </g>
                            <g id="rest1" class="rest">
                                <use xlink:href="#E4E6-tjrby0" x="2624" y="900" height="720px" width="720px"/>
                            </g>
                            <g id="note2" class="note">
                                <g class="notehead" id="note2.notehead">
                                    <use xlink:href="#E0A4-tjrby0" x="3074" y="810" height="720px" width="720px"/>
                                </g>
                                <g id="note2.stem" class="stem">
                                    <path d="M3083 838 L3083 1440" stroke="currentColor" stroke-width="18"/>
                                    <g id="note2.stem.flag" class="flag">
                                        <use xlink:href="#E241-tjrby0" x="3074" y="1440" height="720px" width="720px"/>
                                    </g>
                                </g>
                                <g id="note2.articulation1.accent" class="artic">
                                    <use xlink:href="#E4A0-tjrby0" x="3063" y="473" height="720px" width="720px"/>
                                </g>
                            </g>
                        </g>
                    </g>
                    <g id="pP1_m1.right_barline" class="barLine">
                        <path id="pP1_m1.right_barline.barline_tok1" d="M3524 540 L3524 1260" stroke="currentColor" stroke-width="27" class="barline_tok"/>
                    </g>
                </g>
                <g id="pP1_m2" class="measure">
                    <g id="slzkvd7" class="staff">
                        <path d="M3537 540 L5530 540" stroke="currentColor" stroke-width="13"/>
                        <path d="M3537 720 L5530 720" stroke="currentColor" stroke-width="13"/>
                        <path d="M3537 900 L5530 900" stroke="currentColor" stroke-width="13"/>
                        <path d="M3537 1080 L5530 1080" stroke="currentColor" stroke-width="13"/>
                        <path d="M3537 1260 L5530 1260" stroke="currentColor" stroke-width="13"/>
                        <g id="l3zuzei" class="layer">
                            <g id="beam1_parent" class="beam_parent">
                                <polygon points="3717,1485 5085,1665 5085,1575 3717,1395" id="beam1" class="beam"/>
                                <g id="note3" class="note">
                                    <g class="notehead" id="note3.notehead">
                                        <use xlink:href="#E0A4-tjrby0" x="3717" y="900" height="720px" width="720px"/>
                                    </g>
                                    <g id="note3.stem" class="stem">
                                        <path d="M3726 928 L3726 1467" stroke="currentColor" stroke-width="18"/>
                                    </g>
                                    <g id="note3.accidental" class="accid"/>
                                    <g id="note3.articulation1.accent" class="artic">
                                        <use xlink:href="#E4A0-tjrby0" x="3706" y="473" height="720px" width="720px"/>
                                    </g>
                                </g>
                                <g id="note4" class="note">
                                    <g class="notehead" id="note4.notehead">
                                        <use xlink:href="#E0A4-tjrby0" x="4167" y="990" height="720px" width="720px"/>
                                    </g>
                                    <g id="note4.stem" class="stem">
                                        <path d="M4176 1018 L4176 1527" stroke="currentColor" stroke-width="18"/>
                                    </g>
                                    <g id="note4.articulation1.accent" class="artic">
                                        <use xlink:href="#E4A0-tjrby0" x="4156" y="473" height="720px" width="720px"/>
                                    </g>
                                </g>
                                <g id="note5" class="note">
                                    <g class="notehead" id="note5.notehead">
                                        <use xlink:href="#E0A4-tjrby0" x="4617" y="1080" height="720px" width="720px"/>
                                    </g>
                                    <g id="note5.stem" class="stem">
                                        <path d="M4626 1108 L4626 1587" stroke="currentColor" stroke-width="18"/>
                                    </g>
                                    <g id="note5.articulation1.accent" class="artic">
                                        <use xlink:href="#E4A0-tjrby0" x="4606" y="473" height="720px" width="720px"/>
                                    </g>
                                </g>
                                <g id="note6" class="note">
                                    <g class="notehead" id="note6.notehead">
                                        <use xlink:href="#E0A4-tjrby0" x="5067" y="1170" height="720px" width="720px"/>
                                    </g>
                                    <g id="note6.stem" class="stem">
                                        <path d="M5076 1198 L5076 1647" stroke="currentColor" stroke-width="18"/>
                                    </g>
                                    <g id="note6.articulation1.accent" class="artic">
                                        <use xlink:href="#E4A0-tjrby0" x="5056" y="473" height="720px" width="720px"/>
                                    </g>
                                </g>
                            </g>
                        </g>
                    </g>
                    <g id="pP1_m2.right_barline" class="barLine">
                        <path id="pP1_m2.right_barline.barline_tok1" d="M5517 540 L5517 1260" stroke="currentColor" stroke-width="27" class="barline_tok"/>
                    </g>
                </g>
                <g id="pP1_m3" class="measure">
                    <g id="s1rwxkfm" class="staff">
                        <path d="M5530 540 L7901 540" stroke="currentColor" stroke-width="13"/>
                        <path d="M5530 720 L7901 720" stroke="currentColor" stroke-width="13"/>
                        <path d="M5530 900 L7901 900" stroke="currentColor" stroke-width="13"/>
                        <path d="M5530 1080 L7901 1080" stroke="currentColor" stroke-width="13"/>
                        <path d="M5530 1260 L7901 1260" stroke="currentColor" stroke-width="13"/>
                        <g class="ledgerLines below">
                            <path d="M6562 1440 L6884 1440" stroke="currentColor" stroke-width="22"/>
                        </g>
                        <g id="lr4drtc" class="layer">
                            <g id="beam2_parent" class="beam_parent">
                                <polygon points="5918,630 6386,675 6386,765 5918,720" id="beam2" class="beam"/>
                                <g id="note7" class="note">
                                    <g class="notehead" id="note7.notehead">
                                        <use xlink:href="#E0A4-tjrby0" x="5710" y="1260" height="720px" width="720px"/>
                                    </g>
                                    <g id="note7.stem" class="stem">
                                        <path d="M5927 1232 L5927 648" stroke="currentColor" stroke-width="18"/>
                                    </g>
                                    <g id="note7.articulation1.accent" class="artic">
                                        <use xlink:href="#E4A1-tjrby0" x="5699" y="1417" height="720px" width="720px"/>
                                    </g>
                                </g>
                                <g id="note8" class="note">
                                    <g class="notehead" id="note8.notehead">
                                        <use xlink:href="#E0A4-tjrby0" x="6160" y="1350" height="720px" width="720px"/>
                                    </g>
                                    <g id="note8.stem" class="stem">
                                        <path d="M6377 1322 L6377 693" stroke="currentColor" stroke-width="18"/>
                                    </g>
                                    <g id="note8.articulation1.accent" class="artic">
                                        <use xlink:href="#E4A1-tjrby0" x="6149" y="1507" height="720px" width="720px"/>
                                    </g>
                                </g>
                            </g>
                            <g id="beam3_parent" class="beam_parent">
                                <polygon points="6818,315 7784,315 7784,405 6818,405" id="beam3" class="beam"/>
                                <polygon points="6818,450 7784,450 7784,540 6818,540" id="beam4" class="beam"/>
                                <g id="note9" class="note">
                                    <g class="notehead" id="note9.notehead">
                                        <use xlink:href="#E0A4-tjrby0" x="6610" y="1440" height="720px" width="720px"/>
                                    </g>
                                    <g id="note9.stem" class="stem">
                                        <path d="M6827 1412 L6827 333" stroke="currentColor" stroke-width="18"/>
                                    </g>
                                </g>
                                <g id="note10" class="note">
                                    <g class="notehead" id="note10.notehead">
                                        <use xlink:href="#E0A4-tjrby0" x="6926" y="900" height="720px" width="720px"/>
                                    </g>
                                    <g id="note10.stem" class="stem">
                                        <path d="M7143 872 L7143 333" stroke="currentColor" stroke-width="18"/>
                                    </g>
                                    <g id="note10.accidental" class="accid"/>
                                </g>
                                <g id="note11" class="note">
                                    <g class="notehead" id="note11.notehead">
                                        <use xlink:href="#E0A4-tjrby0" x="7242" y="990" height="720px" width="720px"/>
                                    </g>
                                    <g id="note11.stem" class="stem">
                                        <path d="M7459 962 L7459 333" stroke="currentColor" stroke-width="18"/>
                                    </g>
                                </g>
                                <g id="note12" class="note">
                                    <g class="notehead" id="note12.notehead">
                                        <use xlink:href="#E0A4-tjrby0" x="7558" y="1080" height="720px" width="720px"/>
                                    </g>
                                    <g id="note12.stem" class="stem">
                                        <path d="M7775 1052 L7775 333" stroke="currentColor" stroke-width="18"/>
                                    </g>
                                </g>
                            </g>
                        </g>
                    </g>
                    <g id="pP1_m3.right_barline" class="barLine">
                        <path id="pP1_m3.right_barline.barline_tok1" d="M7888 540 L7888 1260" stroke="currentColor" stroke-width="27" class="barline_tok"/>
                    </g>
                </g>
                <g id="pP1_m4" class="measure">
                    <g id="swadw4" class="staff">
                        <path d="M7901 540 L9730 540" stroke="currentColor" stroke-width="13"/>
                        <path d="M7901 720 L9730 720" stroke="currentColor" stroke-width="13"/>
                        <path d="M7901 900 L9730 900" stroke="currentColor" stroke-width="13"/>
                        <path d="M7901 1080 L9730 1080" stroke="currentColor" stroke-width="13"/>
                        <path d="M7901 1260 L9730 1260" stroke="currentColor" stroke-width="13"/>
                        <g id="l1wgnpal" class="layer">
                            <g id="note13" class="note">
                                <g class="notehead" id="note13.notehead">
                                    <use xlink:href="#E0A4-tjrby0" x="8081" y="1170" height="720px" width="720px"/>
                                </g>
                                <g id="note13.stem" class="stem">
                                    <path d="M8298 1142 L8298 540" stroke="currentColor" stroke-width="18"/>
                                    <g id="note13.stem.flag" class="flag">
                                        <use xlink:href="#E240-tjrby0" x="8289" y="540" height="720px" width="720px"/>
                                    </g>
                                </g>
                            </g>
                            <g id="rest2" class="rest">
                                <use xlink:href="#E4E6-tjrby0" x="8577" y="900" height="720px" width="720px"/>
                            </g>
                            <g id="rest3" class="rest">
                                <use xlink:href="#E4E5-tjrby0" x="9027" y="900" height="720px" width="720px"/>
                            </g>
                        </g>
                    </g>
                    <g id="pP1_m4.right_barline" class="barLine">
                        <path id="pP1_m4.right_barline.barline_tok1" d="M9717 540 L9717 1260" stroke="currentColor" stroke-width="27" class="barline_tok"/>
                    </g>
                </g>
                <g id="pP1_m5" class="measure">
                    <g id="sq59zxu" class="staff">
                        <path d="M9730 540 L11107 540" stroke="currentColor" stroke-width="13"/>
                        <path d="M9730 720 L11107 720" stroke="currentColor" stroke-width="13"/>
                        <path d="M9730 900 L11107 900" stroke="currentColor" stroke-width="13"/>
                        <path d="M9730 1080 L11107 1080" stroke="currentColor" stroke-width="13"/>
                        <path d="M9730 1260 L11107 1260" stroke="currentColor" stroke-width="13"/>
                        <g id="l1pwejwy" class="layer">
                            <g id="pP1_m5.multi-rest.3" class="multiRest">
                                <use xlink:href="#E4E2-tjrby0" x="10207" y="900" height="720px" width="720px"/>
                                <use xlink:href="#E4E3-tjrby0" x="10387" y="720" height="720px" width="720px"/>
                                <use xlink:href="#E083-tjrby0" x="10257" y="270" height="720px" width="720px"/>
                            </g>
                        </g>
                    </g>
                    <g id="pP1_m5.right_barline" class="barLine">
                        <path id="pP1_m5.right_barline.barline_tok1" d="M11094 540 L11094 1260" stroke="currentColor" stroke-width="27" class="barline_tok"/>
                    </g>
                </g>
                <g id="pP1_m8" class="measure">
                    <g id="s1jisz02" class="staff">
                        <path d="M11107 540 L12350 540" stroke="currentColor" stroke-width="13"/>
                        <path d="M11107 720 L12350 720" stroke="currentColor" stroke-width="13"/>
                        <path d="M11107 900 L12350 900" stroke="currentColor" stroke-width="13"/>
                        <path d="M11107 1080 L12350 1080" stroke="currentColor" stroke-width="13"/>
                        <path d="M11107 1260 L12350 1260" stroke="currentColor" stroke-width="13"/>
                        <g id="l39boqf" class="layer">
                            <g id="note14" class="note">
                                <g class="notehead" id="note14.notehead">
                                    <use xlink:href="#E0A3-tjrby0" x="11287" y="1080" height="720px" width="720px"/>
                                </g>
                                <g id="note14.stem" class="stem">
                                    <path d="M11504 1052 L11504 450" stroke="currentColor" stroke-width="18"/>
                                </g>
                            </g>
                        </g>
                    </g>
                    <g id="pP1_m8.right_barline" class="barLine">
                        <path id="pP1_m8.right_barline.barline_tok1" d="M12337 540 L12337 1260" stroke="currentColor" stroke-width="27" class="barline_tok"/>
                    </g>
                </g>
                <g id="pP1_m9" class="measure">
                    <g id="s13h1kf1" class="staff">
                        <path d="M12350 540 L13593 540" stroke="currentColor" stroke-width="13"/>
                        <path d="M12350 720 L13593 720" stroke="currentColor" stroke-width="13"/>
                        <path d="M12350 900 L13593 900" stroke="currentColor" stroke-width="13"/>
                        <path d="M12350 1080 L13593 1080" stroke="currentColor" stroke-width="13"/>
                        <path d="M12350 1260 L13593 1260" stroke="currentColor" stroke-width="13"/>
                        <g id="l1ua4jd4" class="layer">
                            <g id="note15" class="note">
                                <g class="notehead" id="note15.notehead">
                                    <use xlink:href="#E0A3-tjrby0" x="12530" y="1170" height="720px" width="720px"/>
                                </g>
                                <g id="note15.stem" class="stem">
                                    <path d="M12747 1142 L12747 540" stroke="currentColor" stroke-width="18"/>
                                </g>
                            </g>
                        </g>
                    </g>
                    <g id="pP1_m9.right_barline" class="barLine">
                        <path id="pP1_m9.right_barline.barline_tok1" d="M13580 540 L13580 1260" stroke="currentColor" stroke-width="27" class="barline_tok"/>
                    </g>
                </g>
                <g id="pP1_m10" class="measure">
                    <g id="s1brkvn5" class="staff">
                        <path d="M13593 540 L14836 540" stroke="currentColor" stroke-width="13"/>
                        <path d="M13593 720 L14836 720" stroke="currentColor" stroke-width="13"/>
                        <path d="M13593 900 L14836 900" stroke="currentColor" stroke-width="13"/>
                        <path d="M13593 1080 L14836 1080" stroke="currentColor" stroke-width="13"/>
                        <path d="M13593 1260 L14836 1260" stroke="currentColor" stroke-width="13"/>
                        <g id="l1t0mlqb" class="layer">
                            <g id="note16" class="note">
                                <g class="notehead" id="note16.notehead">
                                    <use xlink:href="#E0A3-tjrby0" x="13773" y="1260" height="720px" width="720px"/>
                                </g>
                                <g id="note16.stem" class="stem">
                                    <path d="M13990 1232 L13990 630" stroke="currentColor" stroke-width="18"/>
                                </g>
                            </g>
                        </g>
                    </g>
                    <g id="pP1_m10.right_barline" class="barLine">
                        <path id="pP1_m10.right_barline.barline_tok1" d="M14823 540 L14823 1260" stroke="currentColor" stroke-width="27" class="barline_tok"/>
                    </g>
                </g>
                <g id="pP1_m11" class="measure">
                    <g id="s14iiu4w" class="staff">
                        <path d="M14836 540 L16665 540" stroke="currentColor" stroke-width="13"/>
                        <path d="M14836 720 L16665 720" stroke="currentColor" stroke-width="13"/>
                        <path d="M14836 900 L16665 900" stroke="currentColor" stroke-width="13"/>
                        <path d="M14836 1080 L16665 1080" stroke="currentColor" stroke-width="13"/>
                        <path d="M14836 1260 L16665 1260" stroke="currentColor" stroke-width="13"/>
                        <g id="l1rhijhg" class="layer">
                            <g id="note17" class="note">
                                <g class="notehead" id="note17.notehead">
                                    <use xlink:href="#E0A4-tjrby0" x="15016" y="1170" height="720px" width="720px"/>
                                </g>
                                <g id="note17.stem" class="stem">
                                    <path d="M15233 1142 L15233 540" stroke="currentColor" stroke-width="18"/>
                                    <g id="note17.stem.flag" class="flag">
                                        <use xlink:href="#E240-tjrby0" x="15224" y="540" height="720px" width="720px"/>
                                    </g>
                                </g>
                            </g>
                            <g id="rest7" class="rest">
                                <use xlink:href="#E4E6-tjrby0" x="15512" y="900" height="720px" width="720px"/>
                            </g>
                            <g id="rest8" class="rest">
                                <use xlink:href="#E4E5-tjrby0" x="15962" y="900" height="720px" width="720px"/>
                            </g>
                        </g>
                    </g>
                    <g id="pP1_m11.right_barline" class="barLine">
                        <path id="pP1_m11.right_barline.barline_tok1" d="M16652 540 L16652 1260" stroke="currentColor" stroke-width="27" class="barline_tok"/>
                    </g>
                </g>
                <g id="pP1_m12" class="measure">
                    <g id="sh374ju" class="staff">
                        <path d="M16665 540 L18042 540" stroke="currentColor" stroke-width="13"/>
                        <path d="M16665 720 L18042 720" stroke="currentColor" stroke-width="13"/>
                        <path d="M16665 900 L18042 900" stroke="currentColor" stroke-width="13"/>
                        <path d="M16665 1080 L18042 1080" stroke="currentColor" stroke-width="13"/>
                        <path d="M16665 1260 L18042 1260" stroke="currentColor" stroke-width="13"/>
                        <g id="l28puyd" class="layer">
                            <g id="pP1_m12.multi-rest.8" class="multiRest">
                                <rect x="16845" y="810" height="180" width="990"/>
                                <rect x="16845" y="720" height="360" width="36"/>
                                <rect x="17799" y="720" height="360" width="36"/>
                                <use xlink:href="#E088-tjrby0" x="17195" y="270" height="720px" width="720px"/>
                            </g>
                        </g>
                    </g>
                    <g id="pP1_m12.right_barline" class="barLine">
                        <path id="pP1_m12.right_barline.barline_tok1" d="M18029 540 L18029 1260" stroke="currentColor" stroke-width="27" class="barline_tok"/>
                    </g>
                </g>
                <g id="pP1_m20" class="measure">
                    <g id="s1vj57he" class="staff">
                        <path d="M18042 540 L19285 540" stroke="currentColor" stroke-width="13"/>
                        <path d="M18042 720 L19285 720" stroke="currentColor" stroke-width="13"/>
                        <path d="M18042 900 L19285 900" stroke="currentColor" stroke-width="13"/>
                        <path d="M18042 1080 L19285 1080" stroke="currentColor" stroke-width="13"/>
                        <path d="M18042 1260 L19285 1260" stroke="currentColor" stroke-width="13"/>
                        <g id="l1kr8gn7" class="layer">
                            <g id="note18" class="note">
                                <g class="notehead" id="note18.notehead">
                                    <use xlink:href="#E0A3-tjrby0" x="18222" y="990" height="720px" width="720px"/>
                                </g>
                                <g id="note18.stem" class="stem">
                                    <path d="M18231 1015 L18231 1560" stroke="currentColor" stroke-width="18"/>
                                </g>
                            </g>
                        </g>
                    </g>
                    <g id="tied1" class="tie">
                        <path d="M18493,945 C18717,792 19192,792 19420,945 C19179,840 18730,840 18493,945" stroke="currentColor" stroke-linecap="round" stroke-linejoin="round" stroke-width="9"/>
                    </g>
                    <g id="pP1_m20.right_barline" class="barLine">
                        <path id="pP1_m20.right_barline.barline_tok1" d="M19272 540 L19272 1260" stroke="currentColor" stroke-width="27" class="barline_tok"/>
                    </g>
                </g>
                <g id="pP1_m21" class="measure">
                    <g id="skl29nt" class="staff">
                        <path d="M19285 540 L20858 540" stroke="currentColor" stroke-width="13"/>
                        <path d="M19285 720 L20858 720" stroke="currentColor" stroke-width="13"/>
                        <path d="M19285 900 L20858 900" stroke="currentColor" stroke-width="13"/>
                        <path d="M19285 1080 L20858 1080" stroke="currentColor" stroke-width="13"/>
                        <path d="M19285 1260 L20858 1260" stroke="currentColor" stroke-width="13"/>
                        <g id="lkyj2xb" class="layer">
                            <g id="note19" class="note">
                                <g class="notehead" id="note19.notehead">
                                    <use xlink:href="#E0A4-tjrby0" x="19465" y="990" height="720px" width="720px"/>
                                </g>
                                <g id="note19.stem" class="stem">
                                    <path d="M19474 1018 L19474 1560" stroke="currentColor" stroke-width="18"/>
                                </g>
                            </g>
                            <g id="rest17" class="rest">
                                <use xlink:href="#E4E5-tjrby0" x="20155" y="900" height="720px" width="720px"/>
                            </g>
                        </g>
                    </g>
                    <g id="pP1_m21.right_barline" class="barLine">
                        <path id="pP1_m21.right_barline.barline_tok1" d="M20845 540 L20845 1260" stroke="currentColor" stroke-width="27" class="barline_tok"/>
                    </g>
                </g>
                <g id="pP1_m22" class="measure">
                    <g id="s1t1zgdl" class="staff">
                        <path d="M20858 540 L22101 540" stroke="currentColor" stroke-width="13"/>
                        <path d="M20858 720 L22101 720" stroke="currentColor" stroke-width="13"/>
                        <path d="M20858 900 L22101 900" stroke="currentColor" stroke-width="13"/>
                        <path d="M20858 1080 L22101 1080" stroke="currentColor" stroke-width="13"/>
                        <path d="M20858 1260 L22101 1260" stroke="currentColor" stroke-width="13"/>
                        <g id="ldb8k82" class="layer">
                            <g id="note20" class="note">
                                <g class="notehead" id="note20.notehead">
                                    <use xlink:href="#E0A3-tjrby0" x="21038" y="990" height="720px" width="720px"/>
                                </g>
                                <g id="note20.stem" class="stem">
                                    <path d="M21047 1015 L21047 1560" stroke="currentColor" stroke-width="18"/>
                                </g>
                            </g>
                        </g>
                    </g>
                    <g id="pP1_m22.right_barline" class="barLine">
                        <path id="pP1_m22.right_barline.barline_tok1" d="M22088 540 L22088 1260" stroke="currentColor" stroke-width="27" class="barline_tok"/>
                    </g>
                </g>
                <g id="pP1_m23" class="measure">
                    <g id="stj94ph" class="staff">
                        <path d="M22101 540 L23674 540" stroke="currentColor" stroke-width="13"/>
                        <path d="M22101 720 L23674 720" stroke="currentColor" stroke-width="13"/>
                        <path d="M22101 900 L23674 900" stroke="currentColor" stroke-width="13"/>
                        <path d="M22101 1080 L23674 1080" stroke="currentColor" stroke-width="13"/>
                        <path d="M22101 1260 L23674 1260" stroke="currentColor" stroke-width="13"/>
                        <g id="l1kru7ji" class="layer">
                            <g id="note21" class="note">
                                <g class="notehead" id="note21.notehead">
                                    <use xlink:href="#E0A4-tjrby0" x="22281" y="1080" height="720px" width="720px"/>
                                </g>
                                <g id="note21.stem" class="stem">
                                    <path d="M22290 1108 L22290 1620" stroke="currentColor" stroke-width="18"/>
                                </g>
                            </g>
                            <g id="rest18" class="rest">
                                <use xlink:href="#E4E5-tjrby0" x="22971" y="900" height="720px" width="720px"/>
                            </g>
                        </g>
                    </g>
                    <g id="pP1_m23.right_barline" class="barLine">
                        <path id="pP1_m23.right_barline.barline_tok1" d="M23661 540 L23661 1260" stroke="currentColor" stroke-width="27" class="barline_tok"/>
                    </g>
                </g>
                <g id="s1are58b" class="systemMilestoneEnd sutb0au"/>
            </g>
            <g id="p1e6qkms" class="pageMilestoneEnd s1eune4j"/>
            <g id="pwujnvk" class="pageMilestoneEnd mtleifb"/>
        </g>
    </svg>
</svg>