<svg xmlns="http://www.w3.org/2000/svg" xmlns:xlink="http://www.w3.org/1999/xlink" xmlns:mei="http://www.music-encoding.org/ns/mei" width="2399px" height="282px" version="1.1" overflow="visible">
    <desc>Engraved by Verovio 4.3.0-dev-ba68db3-dirty</desc>
    <defs>
        <symbol id="E0A3-v93hki" viewBox="0 0 1000 1000" overflow="inherit">
            <path transform="scale(1,-1)" d="M278 64c0 22 -17 39 -43 39c-12 0 -26 -3 -41 -10c-85 -43 -165 -94 -165 -156c5 -25 15 -32 49 -32c67 11 200 95 200 159zM0 -36c0 68 73 174 200 174c66 0 114 -39 114 -97c0 -84 -106 -173 -218 -173c-64 0 -96 32 -96 96z"/>
        </symbol>
        <symbol id="E082-v93hki" viewBox="0 0 1000 1000" overflow="inherit">
            <path transform="scale(1,-1)" d="M124 -185c-18 0 -55 -14 -65 -65h-36l-3 30c0 25 6 45 18 63c11 19 22 30 39 43l121 82l37 29c15 11 27 29 38 54c12 24 18 47 18 70c0 40 -19 88 -94 88c-25 0 -32 0 -50 -8c-14 -5 -23 -12 -26 -22c3 -9 7 -15 10 -18l24 -17c12 -7 17 -11 27 -21c5 -7 7 -16 7 -27 c0 -12 0 -57 -79 -74c-30 0 -76 26 -76 94c0 66 81 135 197 135c72 0 181 -32 181 -150c0 -53 -32 -95 -113 -133l-91 -41c-26 -11 -45 -23 -57 -37l49 7c84 0 115 -41 148 -41c20 0 33 20 39 61h35c0 -152 -68 -168 -114 -168c-17 0 -65 0 -79 7h10l-28 17 c-49 37 -69 40 -87 42z"/>
        </symbol>
        <symbol id="E084-v93hki" viewBox="0 0 1000 1000" overflow="inherit">
            <path transform="scale(1,-1)" d="M20 -78c84 97 114 180 134 329h170c-13 -32 -82 -132 -99 -151l-84 -97c-33 -36 -59 -63 -80 -81h162v102l127 123v-225h57v-39h-57v-34c0 -43 19 -65 57 -65v-34h-244v36c48 0 60 26 60 70v27h-203v39z"/>
        </symbol>
        <symbol id="E0A4-v93hki" viewBox="0 0 1000 1000" overflow="inherit">
            <path transform="scale(1,-1)" d="M0 -39c0 68 73 172 200 172c66 0 114 -37 114 -95c0 -84 -106 -171 -218 -171c-64 0 -96 30 -96 94z"/>
        </symbol>
        <symbol id="E261-v93hki" viewBox="0 0 1000 1000" overflow="inherit">
            <path transform="scale(1,-1)" d="M0 -188v539h18v-191l139 22v-533h-17v186zM18 -100l122 17v176l-122 -19v-174z"/>
        </symbol>
        <symbol id="E4E5-v93hki" viewBox="0 0 1000 1000" overflow="inherit">
            <path transform="scale(1,-1)" d="M107 292c-13 24 -30 49 -52 71c-1 1 0 2 0 3l-2 2c3 3 4 4 6 4c12 0 26 -7 40 -20s44 -40 89 -81c26 -24 28 -29 46 -47c4 -4 8 -9 10 -14c6 -8 8 -16 8 -27c0 -19 -12 -40 -36 -61c-28 -23 -49 -38 -61 -73c-4 -11 -7 -27 -10 -50c13 -43 34 -83 59 -121 c31 -47 59 -79 101 -129c-8 0 -26 7 -54 20l-62 29l-21 6l-23 1c-25 0 -45 -10 -60 -30l-4 -14l-1 -12c0 -33 20 -56 39 -78c8 -9 17 -18 26 -26c17 -15 27 -24 28 -30l-3 -3c-11 5 -19 10 -25 15c-9 3 -37 21 -45 26c-24 14 -45 32 -63 51c-19 21 -37 44 -37 71 c0 63 27 95 80 95c41 0 86 -18 136 -52c-19 26 -37 48 -55 66c-23 23 -48 44 -73 65c-28 23 -47 40 -58 53s-17 26 -18 39c75 64 113 125 113 183c0 27 -7 48 -18 68z"/>
        </symbol>
        <symbol id="E220-v93hki" viewBox="0 0 1000 1000" overflow="inherit">
            <path transform="scale(1,-1)" d="M-163 -25l326 150v-100l-326 -150v100z"/>
        </symbol>
        <symbol id="E044-v93hki" viewBox="0 0 1000 1000" overflow="inherit">
            <path transform="scale(1,-1)" d="M0 0c0 28 22 50 50 50s50 -22 50 -50s-22 -50 -50 -50s-50 22 -50 50z"/>
        </symbol>
    </defs>
    <style type="text/css">g.page-margin{font-family:Times,serif;} g.ending, g.fing, g.reh, g.tempo{font-weight:bold;} g.dir, g.dynam, g.mNum{font-style:italic;} g.label{font-weight:normal;}</style>
    <svg class="definition-scale" color="black" viewBox="0 0 23990 2820">
        <g class="page-margin" transform="translate(500, 500)">
            <g id="m17a4en0" class="mdiv pageMilestone"/>
            <g id="sq3as32" class="score pageMilestone"/>
            <g id="sa78rti" class="system">
                <g id="ln1rx5l" class="label">
                    <text x="1105" y="1013" text-anchor="end" font-size="0px">
                        <tspan id="t11vrje6" class="text">
                            <tspan font-size="405px">Piano</tspan>
                        </tspan>
                    </text>
                </g>
                <g id="sujenuc" class="section systemMilestone"/>
                <g id="pP1_m1" class="measure">
                    <g id="s1of1dst" class="staff">
                        <path d="M1285 563 L2984 563" stroke="currentColor" stroke-width="13"/>
                        <path d="M1285 743 L2984 743" stroke="currentColor" stroke-width="13"/>
                        <path d="M1285 923 L2984 923" stroke="currentColor" stroke-width="13"/>
                        <path d="M1285 1103 L2984 1103" stroke="currentColor" stroke-width="13"/>
                        <path d="M1285 1283 L2984 1283" stroke="currentColor" stroke-width="13"/>
                        <g id="clef1_1" class="clef" visibility="hidden"/>
                        <g id="key1_1" class="keySig" visibility="hidden"/>
                        <g id="time1_1" class="meterSig">
                            <use xlink:href="#E082-v93hki" x="1361" y="743" height="720px" width="720px"/>
                            <use xlink:href="#E084-v93hki" x="1366" y="1103" height="720px" width="720px"/>
                        </g>
                        <g id="l15oloww" class="layer">
                            <g id="note1.tremolo_single" class="bTrem">
                                <use xlink:href="#E220-v93hki" x="1943" y="1283" height="720px" width="720px" id="note1.tremolo_single.line1" class="bTrem_line"/>
                                <g id="note1" class="note">
                                    <g class="notehead" id="note1.notehead">
                                        <use xlink:href="#E0A3-v93hki" x="1934" y="1013" height="720px" width="720px"/>
                                    </g>
                                    <g id="note1.stem" class="stem">
                                        <path d="M1943 1038 L1943 1583" stroke="currentColor" stroke-width="18"/>
                                    </g>
                                </g>
                            </g>
                        </g>
                    </g>
                </g>
                <g id="pP1_m2" class="measure">
                    <g id="s9wzh7k" class="staff">
                        <path d="M2984 563 L5086 563" stroke="currentColor" stroke-width="13"/>
                        <path d="M2984 743 L5086 743" stroke="currentColor" stroke-width="13"/>
                        <path d="M2984 923 L5086 923" stroke="currentColor" stroke-width="13"/>
                        <path d="M2984 1103 L5086 1103" stroke="currentColor" stroke-width="13"/>
                        <path d="M2984 1283 L5086 1283" stroke="currentColor" stroke-width="13"/>
                        <g id="l14zdjla" class="layer">
                            <g id="note2" class="note">
                                <g class="notehead" id="note2.notehead">
                                    <use xlink:href="#E0A4-v93hki" x="3547" y="1193" height="720px" width="720px"/>
                                </g>
                                <g id="note2.dots_parent" class="dots">
                                    <ellipse cx="3863" cy="1193" rx="36" ry="36" id="note2.dot1" class="single_dot"/>
                                </g>
                                <g id="note2.stem" class="stem">
                                    <path d="M3556 1221 L3556 1703" stroke="currentColor" stroke-width="18"/>
                                </g>
                            </g>
                            <g id="beam1_parent" class="beam_parent">
                                <polygon points="4427,1688 4761,1643 4761,1553 4427,1598" id="beam1" class="beam"/>
                                <polygon points="4427,1553 4761,1508 4761,1418 4427,1463" id="beam2" class="beam"/>
                                <g id="note3" class="note">
                                    <g class="notehead" id="note3.notehead">
                                        <use xlink:href="#E0A4-v93hki" x="4427" y="1013" height="720px" width="720px"/>
                                    </g>
                                    <g id="note3.stem" class="stem">
                                        <path d="M4436 1041 L4436 1670" stroke="currentColor" stroke-width="18"/>
                                    </g>
                                </g>
                                <g id="note4" class="note">
                                    <g class="notehead" id="note4.notehead">
                                        <use xlink:href="#E0A4-v93hki" x="4743" y="833" height="720px" width="720px"/>
                                    </g>
                                    <g id="note4.stem" class="stem">
                                        <path d="M4752 861 L4752 1625" stroke="currentColor" stroke-width="18"/>
                                    </g>
                                </g>
                            </g>
                        </g>
                    </g>
                    <g id="barline1" class="barLine">
                        <path id="barline1.barline_tok1" d="M3119 563 L3119 1283" stroke="currentColor" stroke-width="90" class="barline_tok"/>
                        <path id="barline1.barline_tok2" d="M3249 563 L3249 1283" stroke="currentColor" stroke-width="27" class="barline_tok"/>
                        <g id="barline1.repeat_forward1" class="repeat">
                            <use xlink:href="#E044-v93hki" x="3295" y="833" height="720px" width="720px"/>
                            <use xlink:href="#E044-v93hki" x="3295" y="1013" height="720px" width="720px"/>
                        </g>
                    </g>
                    <g id="pP1_m2.right_barline" class="barLine">
                        <path id="pP1_m2.right_barline.barline_tok1" d="M5073 563 L5073 1283" stroke="currentColor" stroke-width="27" class="barline_tok"/>
                    </g>
                </g>
                <g id="pP1_m3" class="measure">
                    <g id="s1hsc5m1" class="staff">
                        <path d="M5086 563 L6805 563" stroke="currentColor" stroke-width="13"/>
                        <path d="M5086 743 L6805 743" stroke="currentColor" stroke-width="13"/>
                        <path d="M5086 923 L6805 923" stroke="currentColor" stroke-width="13"/>
                        <path d="M5086 1103 L6805 1103" stroke="currentColor" stroke-width="13"/>
                        <path d="M5086 1283 L6805 1283" stroke="currentColor" stroke-width="13"/>
                        <g id="l1ymm8hr" class="layer">
                            <g id="note5" class="note">
                                <g class="notehead" id="note5.notehead">
                                    <use xlink:href="#E0A4-v93hki" x="5266" y="563" height="720px" width="720px"/>
                                </g>
                                <g id="note5.dots_parent" class="dots">
                                    <ellipse cx="5582" cy="473" rx="36" ry="36" id="note5.dot1" class="single_dot"/>
                                </g>
                                <g id="note5.stem" class="stem">
                                    <path d="M5275 591 L5275 1193" stroke="currentColor" stroke-width="18"/>
                                </g>
                            </g>
                            <g id="beam3_parent" class="beam_parent">
                                <polygon points="6146,1463 6480,1508 6480,1418 6146,1373" id="beam3" class="beam"/>
                                <polygon points="6146,1328 6480,1373 6480,1283 6146,1238" id="beam4" class="beam"/>
                                <g id="note6" class="note">
                                    <g class="notehead" id="note6.notehead">
                                        <use xlink:href="#E0A4-v93hki" x="6146" y="653" height="720px" width="720px"/>
                                    </g>
                                    <g id="note6.stem" class="stem">
                                        <path d="M6155 681 L6155 1445" stroke="currentColor" stroke-width="18"/>
                                    </g>
                                </g>
                                <g id="note7" class="note">
                                    <g class="notehead" id="note7.notehead">
                                        <use xlink:href="#E0A4-v93hki" x="6462" y="833" height="720px" width="720px"/>
                                    </g>
                                    <g id="note7.stem" class="stem">
                                        <path d="M6471 861 L6471 1490" stroke="currentColor" stroke-width="18"/>
                                    </g>
                                </g>
                            </g>
                        </g>
                    </g>
                    <g id="pP1_m3.right_barline" class="barLine">
                        <path id="pP1_m3.right_barline.barline_tok1" d="M6792 563 L6792 1283" stroke="currentColor" stroke-width="27" class="barline_tok"/>
                    </g>
                </g>
                <g id="pP1_m4" class="measure">
                    <g id="stjhy7l" class="staff">
                        <path d="M6805 563 L8798 563" stroke="currentColor" stroke-width="13"/>
                        <path d="M6805 743 L8798 743" stroke="currentColor" stroke-width="13"/>
                        <path d="M6805 923 L8798 923" stroke="currentColor" stroke-width="13"/>
                        <path d="M6805 1103 L8798 1103" stroke="currentColor" stroke-width="13"/>
                        <path d="M6805 1283 L8798 1283" stroke="currentColor" stroke-width="13"/>
                        <g id="lwm0dft" class="layer">
                            <g id="beam5_parent" class="beam_parent">
                                <polygon points="6985,1463 8353,1643 8353,1553 6985,1373" id="beam5" class="beam"/>
                                <g id="note8" class="note">
                                    <g class="notehead" id="note8.notehead">
                                        <use xlink:href="#E0A4-v93hki" x="6985" y="833" height="720px" width="720px"/>
                                    </g>
                                    <g id="note8.stem" class="stem">
                                        <path d="M6994 861 L6994 1445" stroke="currentColor" stroke-width="18"/>
                                    </g>
                                </g>
                                <g id="note9" class="note">
                                    <g class="notehead" id="note9.notehead">
                                        <use xlink:href="#E0A4-v93hki" x="7435" y="923" height="720px" width="720px"/>
                                    </g>
                                    <g id="note9.stem" class="stem">
                                        <path d="M7444 951 L7444 1505" stroke="currentColor" stroke-width="18"/>
                                    </g>
                                    <g id="note9.accidental" class="accid"/>
                                </g>
                                <g id="note10" class="note">
                                    <g class="notehead" id="note10.notehead">
                                        <use xlink:href="#E0A4-v93hki" x="7885" y="1013" height="720px" width="720px"/>
                                    </g>
                                    <g id="note10.stem" class="stem">
                                        <path d="M7894 1041 L7894 1565" stroke="currentColor" stroke-width="18"/>
                                    </g>
                                </g>
                                <g id="note11" class="note">
                                    <g class="notehead" id="note11.notehead">
                                        <use xlink:href="#E0A4-v93hki" x="8335" y="1103" height="720px" width="720px"/>
                                    </g>
                                    <g id="note11.stem" class="stem">
                                        <path d="M8344 1131 L8344 1625" stroke="currentColor" stroke-width="18"/>
                                    </g>
                                </g>
                            </g>
                        </g>
                    </g>
                    <g id="pP1_m4.right_barline" class="barLine">
                        <path id="pP1_m4.right_barline.barline_tok1" d="M8785 563 L8785 1283" stroke="currentColor" stroke-width="27" class="barline_tok"/>
                    </g>
                </g>
                <g id="pP1_m5" class="measure">
                    <g id="s1tda533" class="staff">
                        <path d="M8798 563 L10371 563" stroke="currentColor" stroke-width="13"/>
                        <path d="M8798 743 L10371 743" stroke="currentColor" stroke-width="13"/>
                        <path d="M8798 923 L10371 923" stroke="currentColor" stroke-width="13"/>
                        <path d="M8798 1103 L10371 1103" stroke="currentColor" stroke-width="13"/>
                        <path d="M8798 1283 L10371 1283" stroke="currentColor" stroke-width="13"/>
                        <g id="l19apme7" class="layer">
                            <g id="note12" class="note">
                                <g class="notehead" id="note12.notehead">
                                    <use xlink:href="#E0A4-v93hki" x="8978" y="1193" height="720px" width="720px"/>
                                </g>
                                <g id="note12.stem" class="stem">
                                    <path d="M8987 1221 L8987 1703" stroke="currentColor" stroke-width="18"/>
                                </g>
                            </g>
                            <g id="note13" class="note">
                                <g class="notehead" id="note13.notehead">
                                    <use xlink:href="#E0A4-v93hki" x="9668" y="743" height="720px" width="720px"/>
                                </g>
                                <g id="note13.stem" class="stem">
                                    <path d="M9677 771 L9677 1373" stroke="currentColor" stroke-width="18"/>
                                </g>
                            </g>
                        </g>
                    </g>
                    <g id="pP1_m5.right_barline" class="barLine">
                        <path id="pP1_m5.right_barline.barline_tok1" d="M10358 563 L10358 1283" stroke="currentColor" stroke-width="27" class="barline_tok"/>
                    </g>
                </g>
                <g id="pP1_m6" class="measure">
                    <g id="sfssp0t" class="staff">
                        <path d="M10371 563 L12090 563" stroke="currentColor" stroke-width="13"/>
                        <path d="M10371 743 L12090 743" stroke="currentColor" stroke-width="13"/>
                        <path d="M10371 923 L12090 923" stroke="currentColor" stroke-width="13"/>
                        <path d="M10371 1103 L12090 1103" stroke="currentColor" stroke-width="13"/>
                        <path d="M10371 1283 L12090 1283" stroke="currentColor" stroke-width="13"/>
                        <g id="l1njsax0" class="layer">
                            <g id="note14" class="note">
                                <g class="notehead" id="note14.notehead">
                                    <use xlink:href="#E0A4-v93hki" x="10551" y="1103" height="720px" width="720px"/>
                                </g>
                                <g id="note14.dots_parent" class="dots">
                                    <ellipse cx="10867" cy="1013" rx="36" ry="36" id="note14.dot1" class="single_dot"/>
                                </g>
                                <g id="note14.stem" class="stem">
                                    <path d="M10560 1131 L10560 1643" stroke="currentColor" stroke-width="18"/>
                                </g>
                            </g>
                            <g id="beam6_parent" class="beam_parent">
                                <polygon points="11431,1598 11765,1553 11765,1463 11431,1508" id="beam6" class="beam"/>
                                <polygon points="11431,1463 11765,1418 11765,1328 11431,1373" id="beam7" class="beam"/>
                                <g id="note15" class="note">
                                    <g class="notehead" id="note15.notehead">
                                        <use xlink:href="#E0A4-v93hki" x="11431" y="923" height="720px" width="720px"/>
                                    </g>
                                    <g id="note15.stem" class="stem">
                                        <path d="M11440 951 L11440 1580" stroke="currentColor" stroke-width="18"/>
                                    </g>
                                    <g id="note15.accidental" class="accid"/>
                                </g>
                                <g id="note16" class="note">
                                    <g class="notehead" id="note16.notehead">
                                        <use xlink:href="#E0A4-v93hki" x="11747" y="743" height="720px" width="720px"/>
                                    </g>
                                    <g id="note16.stem" class="stem">
                                        <path d="M11756 771 L11756 1535" stroke="currentColor" stroke-width="18"/>
                                    </g>
                                </g>
                            </g>
                        </g>
                    </g>
                    <g id="pP1_m6.right_barline" class="barLine">
                        <path id="pP1_m6.right_barline.barline_tok1" d="M12077 563 L12077 1283" stroke="currentColor" stroke-width="27" class="barline_tok"/>
                    </g>
                </g>
                <g id="pP1_m7" class="measure">
                    <g id="s1jt18or" class="staff">
                        <path d="M12090 563 L13967 563" stroke="currentColor" stroke-width="13"/>
                        <path d="M12090 743 L13967 743" stroke="currentColor" stroke-width="13"/>
                        <path d="M12090 923 L13967 923" stroke="currentColor" stroke-width="13"/>
                        <path d="M12090 1103 L13967 1103" stroke="currentColor" stroke-width="13"/>
                        <path d="M12090 1283 L13967 1283" stroke="currentColor" stroke-width="13"/>
                        <g id="l1lfgbpy" class="layer">
                            <g id="note17" class="note">
                                <g class="notehead" id="note17.notehead">
                                    <use xlink:href="#E0A4-v93hki" x="12270" y="473" height="720px" width="720px"/>
                                </g>
                                <g id="note17.dots_parent" class="dots">
                                    <ellipse cx="12586" cy="473" rx="36" ry="36" id="note17.dot1" class="single_dot"/>
                                </g>
                                <g id="note17.stem" class="stem">
                                    <path d="M12279 501 L12279 1103" stroke="currentColor" stroke-width="18"/>
                                </g>
                            </g>
                            <g id="beam8_parent" class="beam_parent">
                                <polygon points="13150,1283 13642,1328 13642,1238 13150,1193" id="beam8" class="beam"/>
                                <polygon points="13150,1148 13642,1193 13642,1103 13150,1058" id="beam9" class="beam"/>
                                <g id="note18" class="note">
                                    <g class="notehead" id="note18.notehead">
                                        <use xlink:href="#E0A4-v93hki" x="13150" y="563" height="720px" width="720px"/>
                                    </g>
                                    <g id="note18.stem" class="stem">
                                        <path d="M13159 591 L13159 1265" stroke="currentColor" stroke-width="18"/>
                                    </g>
                                </g>
                                <g id="note19" class="note">
                                    <g class="notehead" id="note19.notehead">
                                        <use xlink:href="#E0A4-v93hki" x="13624" y="653" height="720px" width="720px"/>
                                    </g>
                                    <g id="note19.stem" class="stem">
                                        <path d="M13633 681 L13633 1310" stroke="currentColor" stroke-width="18"/>
                                    </g>
                                    <g id="note19.accidental" class="accid">
                                        <use xlink:href="#E261-v93hki" x="13466" y="653" height="720px" width="720px"/>
                                    </g>
                                </g>
                            </g>
                        </g>
                    </g>
                    <g id="pP1_m7.right_barline" class="barLine">
                        <path id="pP1_m7.right_barline.barline_tok1" d="M13954 563 L13954 1283" stroke="currentColor" stroke-width="27" class="barline_tok"/>
                    </g>
                </g>
                <g id="pP1_m8" class="measure">
                    <g id="s12q3zeh" class="staff">
                        <path d="M13967 563 L15960 563" stroke="currentColor" stroke-width="13"/>
                        <path d="M13967 743 L15960 743" stroke="currentColor" stroke-width="13"/>
                        <path d="M13967 923 L15960 923" stroke="currentColor" stroke-width="13"/>
                        <path d="M13967 1103 L15960 1103" stroke="currentColor" stroke-width="13"/>
                        <path d="M13967 1283 L15960 1283" stroke="currentColor" stroke-width="13"/>
                        <g id="lvp8v9a" class="layer">
                            <g id="beam10_parent" class="beam_parent">
                                <polygon points="14147,1373 15515,1553 15515,1463 14147,1283" id="beam10" class="beam"/>
                                <g id="note20" class="note">
                                    <g class="notehead" id="note20.notehead">
                                        <use xlink:href="#E0A4-v93hki" x="14147" y="743" height="720px" width="720px"/>
                                    </g>
                                    <g id="note20.stem" class="stem">
                                        <path d="M14156 771 L14156 1355" stroke="currentColor" stroke-width="18"/>
                                    </g>
                                </g>
                                <g id="note21" class="note">
                                    <g class="notehead" id="note21.notehead">
                                        <use xlink:href="#E0A4-v93hki" x="14597" y="833" height="720px" width="720px"/>
                                    </g>
                                    <g id="note21.stem" class="stem">
                                        <path d="M14606 861 L14606 1415" stroke="currentColor" stroke-width="18"/>
                                    </g>
                                </g>
                                <g id="note22" class="note">
                                    <g class="notehead" id="note22.notehead">
                                        <use xlink:href="#E0A4-v93hki" x="15047" y="923" height="720px" width="720px"/>
                                    </g>
                                    <g id="note22.stem" class="stem">
                                        <path d="M15056 951 L15056 1475" stroke="currentColor" stroke-width="18"/>
                                    </g>
                                    <g id="note22.accidental" class="accid"/>
                                </g>
                                <g id="note23" class="note">
                                    <g class="notehead" id="note23.notehead">
                                        <use xlink:href="#E0A4-v93hki" x="15497" y="1013" height="720px" width="720px"/>
                                    </g>
                                    <g id="note23.stem" class="stem">
                                        <path d="M15506 1041 L15506 1535" stroke="currentColor" stroke-width="18"/>
                                    </g>
                                </g>
                            </g>
                        </g>
                    </g>
                    <g id="pP1_m8.right_barline" class="barLine">
                        <path id="pP1_m8.right_barline.barline_tok1" d="M15947 563 L15947 1283" stroke="currentColor" stroke-width="27" class="barline_tok"/>
                    </g>
                </g>
                <g id="pP1_m9" class="measure">
                    <g id="swxf9sc" class="staff">
                        <path d="M15960 563 L17533 563" stroke="currentColor" stroke-width="13"/>
                        <path d="M15960 743 L17533 743" stroke="currentColor" stroke-width="13"/>
                        <path d="M15960 923 L17533 923" stroke="currentColor" stroke-width="13"/>
                        <path d="M15960 1103 L17533 1103" stroke="currentColor" stroke-width="13"/>
                        <path d="M15960 1283 L17533 1283" stroke="currentColor" stroke-width="13"/>
                        <g id="lqp1zqd" class="layer">
                            <g id="note24" class="note">
                                <g class="notehead" id="note24.notehead">
                                    <use xlink:href="#E0A4-v93hki" x="16140" y="1103" height="720px" width="720px"/>
                                </g>
                                <g id="note24.stem" class="stem">
                                    <path d="M16149 1131 L16149 1643" stroke="currentColor" stroke-width="18"/>
                                </g>
                            </g>
                            <g id="note25" class="note">
                                <g class="notehead" id="note25.notehead">
                                    <use xlink:href="#E0A4-v93hki" x="16830" y="653" height="720px" width="720px"/>
                                </g>
                                <g id="note25.stem" class="stem">
                                    <path d="M16839 681 L16839 1283" stroke="currentColor" stroke-width="18"/>
                                </g>
                            </g>
                        </g>
                    </g>
                    <g id="pP1_m9.right_barline" class="barLine">
                        <path id="pP1_m9.right_barline.barline_tok1" d="M17520 563 L17520 1283" stroke="currentColor" stroke-width="27" class="barline_tok"/>
                    </g>
                </g>
                <g id="pP1_m10" class="measure">
                    <g id="s13xvwgw" class="staff">
                        <path d="M17533 563 L18776 563" stroke="currentColor" stroke-width="13"/>
                        <path d="M17533 743 L18776 743" stroke="currentColor" stroke-width="13"/>
                        <path d="M17533 923 L18776 923" stroke="currentColor" stroke-width="13"/>
                        <path d="M17533 1103 L18776 1103" stroke="currentColor" stroke-width="13"/>
                        <path d="M17533 1283 L18776 1283" stroke="currentColor" stroke-width="13"/>
                        <g id="l4y9ffj" class="layer">
                            <g id="note26" class="note">
                                <g class="notehead" id="note26.notehead">
                                    <use xlink:href="#E0A3-v93hki" x="17713" y="743" height="720px" width="720px"/>
                                </g>
                                <g id="note26.stem" class="stem">
                                    <path d="M17722 768 L17722 1373" stroke="currentColor" stroke-width="18"/>
                                </g>
                            </g>
                        </g>
                    </g>
                    <g id="pP1_m10.right_barline" class="barLine">
                        <path id="pP1_m10.right_barline.barline_tok1" d="M18763 563 L18763 1283" stroke="currentColor" stroke-width="27" class="barline_tok"/>
                    </g>
                </g>
                <g id="pP1_m11" class="measure">
                    <g id="szespri" class="staff">
                        <path d="M18776 563 L20019 563" stroke="currentColor" stroke-width="13"/>
                        <path d="M18776 743 L20019 743" stroke="currentColor" stroke-width="13"/>
                        <path d="M18776 923 L20019 923" stroke="currentColor" stroke-width="13"/>
                        <path d="M18776 1103 L20019 1103" stroke="currentColor" stroke-width="13"/>
                        <path d="M18776 1283 L20019 1283" stroke="currentColor" stroke-width="13"/>
                        <g id="l1q1inck" class="layer">
                            <g id="note27" class="note">
                                <g class="notehead" id="note27.notehead">
                                    <use xlink:href="#E0A3-v93hki" x="18956" y="833" height="720px" width="720px"/>
                                </g>
                                <g id="note27.stem" class="stem">
                                    <path d="M18965 858 L18965 1463" stroke="currentColor" stroke-width="18"/>
                                </g>
                            </g>
                        </g>
                    </g>
                    <g id="pP1_m11.right_barline" class="barLine">
                        <path id="pP1_m11.right_barline.barline_tok1" d="M20006 563 L20006 1283" stroke="currentColor" stroke-width="27" class="barline_tok"/>
                    </g>
                </g>
                <g id="pP1_m12" class="measure">
                    <g id="skuvdqg" class="staff">
                        <path d="M20019 563 L21262 563" stroke="currentColor" stroke-width="13"/>
                        <path d="M20019 743 L21262 743" stroke="currentColor" stroke-width="13"/>
                        <path d="M20019 923 L21262 923" stroke="currentColor" stroke-width="13"/>
                        <path d="M20019 1103 L21262 1103" stroke="currentColor" stroke-width="13"/>
                        <path d="M20019 1283 L21262 1283" stroke="currentColor" stroke-width="13"/>
                        <g id="l11w4m8f" class="layer">
                            <g id="note28" class="note">
                                <g class="notehead" id="note28.notehead">
                                    <use xlink:href="#E0A3-v93hki" x="20199" y="653" height="720px" width="720px"/>
                                </g>
                                <g id="note28.stem" class="stem">
                                    <path d="M20208 678 L20208 1283" stroke="currentColor" stroke-width="18"/>
                                </g>
                            </g>
                        </g>
                    </g>
                    <g id="pP1_m12.right_barline" class="barLine">
                        <path id="pP1_m12.right_barline.barline_tok1" d="M21249 563 L21249 1283" stroke="currentColor" stroke-width="27" class="barline_tok"/>
                    </g>
                </g>
                <g id="e1ez7nb8" class="ending systemMilestone">
                    <g class="voltaBracket" id="e1ez7nb8.bracket">
                        <text x="21322" y="334" font-size="0px">
                            <tspan id="tn16zym" class="text">
                                <tspan font-size="405px">1.</tspan>
                            </tspan>
                        </text>
                        <path d="M21249 6 L22992 6" stroke="currentColor" stroke-width="13" stroke-linecap="square"/>
                        <path d="M21249 6 L21249 334" stroke="currentColor" stroke-width="13" stroke-linecap="square"/>
                        <path d="M22992 6 L22992 334" stroke="currentColor" stroke-width="13" stroke-linecap="square"/>
                    </g>
                </g>
                <g id="pP1_m13" class="measure">
                    <g id="sjw3d2m" class="staff">
                        <path d="M21262 563 L22997 563" stroke="currentColor" stroke-width="13"/>
                        <path d="M21262 743 L22997 743" stroke="currentColor" stroke-width="13"/>
                        <path d="M21262 923 L22997 923" stroke="currentColor" stroke-width="13"/>
                        <path d="M21262 1103 L22997 1103" stroke="currentColor" stroke-width="13"/>
                        <path d="M21262 1283 L22997 1283" stroke="currentColor" stroke-width="13"/>
                        <g id="l11d3ml4" class="layer">
                            <g id="note29" class="note">
                                <g class="notehead" id="note29.notehead">
                                    <use xlink:href="#E0A4-v93hki" x="21442" y="563" height="720px" width="720px"/>
                                </g>
                                <g id="note29.stem" class="stem">
                                    <path d="M21451 591 L21451 1193" stroke="currentColor" stroke-width="18"/>
                                </g>
                            </g>
                            <g id="rest1" class="rest">
                                <use xlink:href="#E4E5-v93hki" x="22132" y="923" height="720px" width="720px"/>
                            </g>
                        </g>
                    </g>
                    <g id="barline3" class="barLine">
                        <path id="barline3.barline_tok1" d="M22822 563 L22822 1283" stroke="currentColor" stroke-width="27" class="barline_tok"/>
                        <path id="barline3.barline_tok2" d="M22952 563 L22952 1283" stroke="currentColor" stroke-width="90" class="barline_tok"/>
                        <g id="barline3.repeat_backward1" class="repeat">
                            <use xlink:href="#E044-v93hki" x="22705" y="833" height="720px" width="720px"/>
                            <use xlink:href="#E044-v93hki" x="22705" y="1013" height="720px" width="720px"/>
                        </g>
                    </g>
                </g>
                <g id="s1sbejno" class="systemMilestoneEnd e1ez7nb8"/>
                <g id="s7e58tv" class="systemMilestoneEnd sujenuc"/>
            </g>
            <g id="p6epyhz" class="pageMilestoneEnd sq3as32"/>
            <g id="p2nyfcj" class="pageMilestoneEnd m17a4en0"/>
        </g>
    </svg>
</svg>