<svg xmlns="http://www.w3.org/2000/svg" xmlns:xlink="http://www.w3.org/1999/xlink" xmlns:mei="http://www.music-encoding.org/ns/mei" width="1694px" height="280px" version="1.1" overflow="visible">
    <desc>Engraved by Verovio 4.3.0-dev-ba68db3-dirty</desc>
    <defs>
        <symbol id="E0A3-1mgeqz0" viewBox="0 0 1000 1000" overflow="inherit">
            <path transform="scale(1,-1)" d="M278 64c0 22 -17 39 -43 39c-12 0 -26 -3 -41 -10c-85 -43 -165 -94 -165 -156c5 -25 15 -32 49 -32c67 11 200 95 200 159zM0 -36c0 68 73 174 200 174c66 0 114 -39 114 -97c0 -84 -106 -173 -218 -173c-64 0 -96 32 -96 96z"/>
        </symbol>
        <symbol id="E082-1mgeqz0" viewBox="0 0 1000 1000" overflow="inherit">
            <path transform="scale(1,-1)" d="M124 -185c-18 0 -55 -14 -65 -65h-36l-3 30c0 25 6 45 18 63c11 19 22 30 39 43l121 82l37 29c15 11 27 29 38 54c12 24 18 47 18 70c0 40 -19 88 -94 88c-25 0 -32 0 -50 -8c-14 -5 -23 -12 -26 -22c3 -9 7 -15 10 -18l24 -17c12 -7 17 -11 27 -21c5 -7 7 -16 7 -27 c0 -12 0 -57 -79 -74c-30 0 -76 26 -76 94c0 66 81 135 197 135c72 0 181 -32 181 -150c0 -53 -32 -95 -113 -133l-91 -41c-26 -11 -45 -23 -57 -37l49 7c84 0 115 -41 148 -41c20 0 33 20 39 61h35c0 -152 -68 -168 -114 -168c-17 0 -65 0 -79 7h10l-28 17 c-49 37 -69 40 -87 42z"/>
        </symbol>
        <symbol id="E084-1mgeqz0" viewBox="0 0 1000 1000" overflow="inherit">
            <path transform="scale(1,-1)" d="M20 -78c84 97 114 180 134 329h170c-13 -32 -82 -132 -99 -151l-84 -97c-33 -36 -59 -63 -80 -81h162v102l127 123v-225h57v-39h-57v-34c0 -43 19 -65 57 -65v-34h-244v36c48 0 60 26 60 70v27h-203v39z"/>
        </symbol>
        <symbol id="E0A4-1mgeqz0" viewBox="0 0 1000 1000" overflow="inherit">
            <path transform="scale(1,-1)" d="M0 -39c0 68 73 172 200 172c66 0 114 -37 114 -95c0 -84 -106 -171 -218 -171c-64 0 -96 30 -96 94z"/>
        </symbol>
        <symbol id="E262-1mgeqz0" viewBox="0 0 1000 1000" overflow="inherit">
            <path transform="scale(1,-1)" d="M136 186v169h17v-164l44 14v-91l-44 -14v-165l44 12v-91l-44 -13v-155h-17v150l-76 -22v-155h-17v149l-43 -13v90l43 14v167l-43 -14v92l43 13v169h17v-163zM60 73v-167l76 22v168z"/>
        </symbol>
        <symbol id="E241-1mgeqz0" viewBox="0 0 1000 1000" overflow="inherit">
            <path transform="scale(1,-1)" d="M179 646c-4 8 -17 30 -18 33l-4 10c0 3 2 5 5 5s7 -2 13 -7c23 -33 46 -81 66 -132c22 -57 35 -125 35 -163c0 -104 -60 -183 -122 -241c-63 -59 -57 -53 -61 -56c-38 -34 -63 -95 -71 -95h-22v190c40 7 69 11 87 16c88 27 168 95 168 200c0 30 -12 89 -30 138 c-17 47 -31 73 -46 102z"/>
        </symbol>
        <symbol id="E4E6-1mgeqz0" viewBox="0 0 1000 1000" overflow="inherit">
            <path transform="scale(1,-1)" d="M0 123c7 34 33 56 69 60c29 -3 43 -9 53 -29c4 -8 7 -15 10 -22c0 -21 -1 -25 -11 -35c-5 -8 -18 -14 -40 -20l12 -3l15 -1c44 0 97 26 122 56c10 11 18 26 24 42c7 1 15 2 22 3l-140 -424h-36l111 330c-10 -6 -27 -12 -53 -16l-52 -8h-10l-20 1c-1 0 -8 3 -21 6 c-37 9 -55 28 -55 60z"/>
        </symbol>
        <symbol id="E221-1mgeqz0" viewBox="0 0 1000 1000" overflow="inherit">
            <path transform="scale(1,-1)" d="M-163 -112l326 150v-100l-326 -150v100zM-163 63l326 150v-100l-326 -150v100z"/>
        </symbol>
    </defs>
    <style type="text/css">g.page-margin{font-family:Times,serif;} g.ending, g.fing, g.reh, g.tempo{font-weight:bold;} g.dir, g.dynam, g.mNum{font-style:italic;} g.label{font-weight:normal;}</style>
    <svg class="definition-scale" color="black" viewBox="0 0 16940 2800">
        <g class="page-margin" transform="translate(500, 500)">
            <g id="m1axypxb" class="mdiv pageMilestone"/>
            <g id="s1ik6imd" class="score pageMilestone"/>
            <g id="s15b61vq" class="system">
                <g id="lu6btqm" class="label">
                    <text x="1105" y="990" text-anchor="end" font-size="0px">
                        <tspan id="t1jw27kl" class="text">
                            <tspan font-size="405px">Piano</tspan>
                        </tspan>
                    </text>
                </g>
                <g id="szwsnyd" class="section systemMilestone"/>
                <g id="pP1_m1" class="measure">
                    <g id="s4jtf9e" class="staff">
                        <path d="M1285 540 L4675 540" stroke="currentColor" stroke-width="13"/>
                        <path d="M1285 720 L4675 720" stroke="currentColor" stroke-width="13"/>
                        <path d="M1285 900 L4675 900" stroke="currentColor" stroke-width="13"/>
                        <path d="M1285 1080 L4675 1080" stroke="currentColor" stroke-width="13"/>
                        <path d="M1285 1260 L4675 1260" stroke="currentColor" stroke-width="13"/>
                        <g id="clef1_1" class="clef" visibility="hidden"/>
                        <g id="key1_1" class="keySig" visibility="hidden"/>
                        <g id="time1_1" class="meterSig">
                            <use xlink:href="#E082-1mgeqz0" x="1361" y="720" height="720px" width="720px"/>
                            <use xlink:href="#E084-1mgeqz0" x="1366" y="1080" height="720px" width="720px"/>
                        </g>
                        <g id="l1cb1j1r" class="layer">
                            <g id="beam1_parent" class="beam_parent">
                                <polygon points="1934,1575 3086,1575 3086,1485 1934,1485" id="beam1" class="beam"/>
                                <polygon points="1934,1440 3086,1440 3086,1350 1934,1350" id="beam2" class="beam"/>
                                <g id="note1" class="note">
                                    <g class="notehead" id="note1.notehead">
                                        <use xlink:href="#E0A4-1mgeqz0" x="1934" y="900" height="720px" width="720px"/>
                                    </g>
                                    <g id="note1.stem" class="stem">
                                        <path d="M1943 928 L1943 1557" stroke="currentColor" stroke-width="18"/>
                                    </g>
                                </g>
                                <g id="note2" class="note">
                                    <g class="notehead" id="note2.notehead">
                                        <use xlink:href="#E0A4-1mgeqz0" x="2436" y="990" height="720px" width="720px"/>
                                    </g>
                                    <g id="note2.stem" class="stem">
                                        <path d="M2445 1018 L2445 1557" stroke="currentColor" stroke-width="18"/>
                                    </g>
                                    <g id="note2.accidental" class="accid">
                                        <use xlink:href="#E262-1mgeqz0" x="2250" y="990" height="720px" width="720px"/>
                                    </g>
                                </g>
                                <g id="note3" class="note">
                                    <g class="notehead" id="note3.notehead">
                                        <use xlink:href="#E0A4-1mgeqz0" x="2752" y="900" height="720px" width="720px"/>
                                    </g>
                                    <g id="note3.stem" class="stem">
                                        <path d="M2761 928 L2761 1557" stroke="currentColor" stroke-width="18"/>
                                    </g>
                                </g>
                                <g id="note4" class="note">
                                    <g class="notehead" id="note4.notehead">
                                        <use xlink:href="#E0A4-1mgeqz0" x="3068" y="810" height="720px" width="720px"/>
                                    </g>
                                    <g id="note4.stem" class="stem">
                                        <path d="M3077 838 L3077 1557" stroke="currentColor" stroke-width="18"/>
                                    </g>
                                    <g id="note4.accidental" class="accid"/>
                                </g>
                            </g>
                            <g id="beam3_parent" class="beam_parent">
                                <polygon points="3384,1350 4350,1170 4350,1080 3384,1260" id="beam3" class="beam"/>
                                <polygon points="3384,1215 4350,1035 4350,945 3384,1125" id="beam4" class="beam"/>
                                <g id="note5" class="note">
                                    <g class="notehead" id="note5.notehead">
                                        <use xlink:href="#E0A4-1mgeqz0" x="3384" y="720" height="720px" width="720px"/>
                                    </g>
                                    <g id="note5.stem" class="stem">
                                        <path d="M3393 748 L3393 1332" stroke="currentColor" stroke-width="18"/>
                                    </g>
                                </g>
                                <g id="note6" class="note">
                                    <g class="notehead" id="note6.notehead">
                                        <use xlink:href="#E0A4-1mgeqz0" x="3700" y="630" height="720px" width="720px"/>
                                    </g>
                                    <g id="note6.stem" class="stem">
                                        <path d="M3709 658 L3709 1272" stroke="currentColor" stroke-width="18"/>
                                    </g>
                                </g>
                                <g id="note7" class="note">
                                    <g class="notehead" id="note7.notehead">
                                        <use xlink:href="#E0A4-1mgeqz0" x="4016" y="540" height="720px" width="720px"/>
                                    </g>
                                    <g id="note7.stem" class="stem">
                                        <path d="M4025 568 L4025 1212" stroke="currentColor" stroke-width="18"/>
                                    </g>
                                    <g id="note7.accidental" class="accid"/>
                                </g>
                                <g id="note8" class="note">
                                    <g class="notehead" id="note8.notehead">
                                        <use xlink:href="#E0A4-1mgeqz0" x="4332" y="450" height="720px" width="720px"/>
                                    </g>
                                    <g id="note8.stem" class="stem">
                                        <path d="M4341 478 L4341 1152" stroke="currentColor" stroke-width="18"/>
                                    </g>
                                </g>
                            </g>
                        </g>
                    </g>
                    <g id="pP1_m1.right_barline" class="barLine">
                        <path id="pP1_m1.right_barline.barline_tok1" d="M4662 540 L4662 1260" stroke="currentColor" stroke-width="27" class="barline_tok"/>
                    </g>
                </g>
                <g id="pP1_m2" class="measure">
                    <g id="suozx8m" class="staff">
                        <path d="M4675 540 L7032 540" stroke="currentColor" stroke-width="13"/>
                        <path d="M4675 720 L7032 720" stroke="currentColor" stroke-width="13"/>
                        <path d="M4675 900 L7032 900" stroke="currentColor" stroke-width="13"/>
                        <path d="M4675 1080 L7032 1080" stroke="currentColor" stroke-width="13"/>
                        <path d="M4675 1260 L7032 1260" stroke="currentColor" stroke-width="13"/>
                        <g id="l16pq7xg" class="layer">
                            <g id="beam5_parent" class="beam_parent">
                                <polygon points="4855,1125 5821,1305 5821,1215 4855,1035" id="beam5" class="beam"/>
                                <polygon points="4855,990 5821,1170 5821,1080 4855,900" id="beam6" class="beam"/>
                                <g id="note9" class="note">
                                    <g class="notehead" id="note9.notehead">
                                        <use xlink:href="#E0A4-1mgeqz0" x="4855" y="450" height="720px" width="720px"/>
                                    </g>
                                    <g id="note9.stem" class="stem">
                                        <path d="M4864 478 L4864 1107" stroke="currentColor" stroke-width="18"/>
                                    </g>
                                </g>
                                <g id="note10" class="note">
                                    <g class="notehead" id="note10.notehead">
                                        <use xlink:href="#E0A4-1mgeqz0" x="5171" y="540" height="720px" width="720px"/>
                                    </g>
                                    <g id="note10.stem" class="stem">
                                        <path d="M5180 568 L5180 1167" stroke="currentColor" stroke-width="18"/>
                                    </g>
                                    <g id="note10.accidental" class="accid"/>
                                </g>
                                <g id="note11" class="note">
                                    <g class="notehead" id="note11.notehead">
                                        <use xlink:href="#E0A4-1mgeqz0" x="5487" y="630" height="720px" width="720px"/>
                                    </g>
                                    <g id="note11.stem" class="stem">
                                        <path d="M5496 658 L5496 1227" stroke="currentColor" stroke-width="18"/>
                                    </g>
                                </g>
                                <g id="note12" class="note">
                                    <g class="notehead" id="note12.notehead">
                                        <use xlink:href="#E0A4-1mgeqz0" x="5803" y="720" height="720px" width="720px"/>
                                    </g>
                                    <g id="note12.stem" class="stem">
                                        <path d="M5812 748 L5812 1287" stroke="currentColor" stroke-width="18"/>
                                    </g>
                                </g>
                            </g>
                            <g id="note13" class="note">
                                <g class="notehead" id="note13.notehead">
                                    <use xlink:href="#E0A4-1mgeqz0" x="6119" y="810" height="720px" width="720px"/>
                                </g>
                                <g id="note13.stem" class="stem">
                                    <path d="M6128 838 L6128 1440" stroke="currentColor" stroke-width="18"/>
                                    <g id="note13.stem.flag" class="flag">
                                        <use xlink:href="#E241-1mgeqz0" x="6119" y="1440" height="720px" width="720px"/>
                                    </g>
                                </g>
                                <g id="note13.accidental" class="accid"/>
                            </g>
                            <g id="rest1" class="rest">
                                <use xlink:href="#E4E6-1mgeqz0" x="6569" y="900" height="720px" width="720px"/>
                            </g>
                        </g>
                    </g>
                    <g id="pP1_m2.right_barline" class="barLine">
                        <path id="pP1_m2.right_barline.barline_tok1" d="M7019 540 L7019 1260" stroke="currentColor" stroke-width="27" class="barline_tok"/>
                    </g>
                </g>
                <g id="pP1_m3" class="measure">
                    <g id="s14khgue" class="staff">
                        <path d="M7032 540 L8487 540" stroke="currentColor" stroke-width="13"/>
                        <path d="M7032 720 L8487 720" stroke="currentColor" stroke-width="13"/>
                        <path d="M7032 900 L8487 900" stroke="currentColor" stroke-width="13"/>
                        <path d="M7032 1080 L8487 1080" stroke="currentColor" stroke-width="13"/>
                        <path d="M7032 1260 L8487 1260" stroke="currentColor" stroke-width="13"/>
                        <g class="ledgerLines above">
                            <path d="M7376 360 L7698 360" stroke="currentColor" stroke-width="22"/>
                        </g>
                        <g id="ld7xm27" class="layer">
                            <g id="note14.tremolo_single" class="bTrem">
                                <use xlink:href="#E221-1mgeqz0" x="7433" y="1143" height="720px" width="720px" id="note14.tremolo_single.line1" class="bTrem_line"/>
                                <g id="chord.note14_note15" class="chord">
                                    <g id="chord.note14_note15.stem" class="stem">
                                        <path d="M7433 385 L7433 1440" stroke="currentColor" stroke-width="18"/>
                                    </g>
                                    <g id="note14" class="note">
                                        <g class="notehead" id="note14.notehead">
                                            <use xlink:href="#E0A3-1mgeqz0" x="7424" y="810" height="720px" width="720px"/>
                                        </g>
                                        <g id="note14.accidental" class="accid"/>
                                    </g>
                                    <g id="note15" class="note">
                                        <g class="notehead" id="note15.notehead">
                                            <use xlink:href="#E0A3-1mgeqz0" x="7424" y="360" height="720px" width="720px"/>
                                        </g>
                                        <g id="note15.accidental" class="accid">
                                            <use xlink:href="#E262-1mgeqz0" x="7212" y="360" height="720px" width="720px"/>
                                        </g>
                                    </g>
                                </g>
                            </g>
                        </g>
                    </g>
                    <g id="pP1_m3.right_barline" class="barLine">
                        <path id="pP1_m3.right_barline.barline_tok1" d="M8474 540 L8474 1260" stroke="currentColor" stroke-width="27" class="barline_tok"/>
                    </g>
                </g>
                <g id="pP1_m4" class="measure">
                    <g id="s2muj0y" class="staff">
                        <path d="M8487 540 L10482 540" stroke="currentColor" stroke-width="13"/>
                        <path d="M8487 720 L10482 720" stroke="currentColor" stroke-width="13"/>
                        <path d="M8487 900 L10482 900" stroke="currentColor" stroke-width="13"/>
                        <path d="M8487 1080 L10482 1080" stroke="currentColor" stroke-width="13"/>
                        <path d="M8487 1260 L10482 1260" stroke="currentColor" stroke-width="13"/>
                        <g class="ledgerLines above">
                            <path d="M8831 360 L9153 360" stroke="currentColor" stroke-width="22"/>
                            <path d="M9521 360 L9843 360" stroke="currentColor" stroke-width="22"/>
                        </g>
                        <g id="l1um1jk2" class="layer">
                            <g id="note16.tremolo_single" class="bTrem">
                                <use xlink:href="#E221-1mgeqz0" x="8888" y="1143" height="720px" width="720px" id="note16.tremolo_single.line1" class="bTrem_line"/>
                                <g id="chord.note16_note17" class="chord">
                                    <g id="chord.note16_note17.stem" class="stem">
                                        <path d="M8888 388 L8888 1440" stroke="currentColor" stroke-width="18"/>
                                    </g>
                                    <g id="note16" class="note">
                                        <g class="notehead" id="note16.notehead">
                                            <use xlink:href="#E0A4-1mgeqz0" x="8879" y="810" height="720px" width="720px"/>
                                        </g>
                                        <g id="note16.accidental" class="accid"/>
                                    </g>
                                    <g id="note17" class="note">
                                        <g class="notehead" id="note17.notehead">
                                            <use xlink:href="#E0A4-1mgeqz0" x="8879" y="360" height="720px" width="720px"/>
                                        </g>
                                        <g id="note17.accidental" class="accid">
                                            <use xlink:href="#E262-1mgeqz0" x="8667" y="360" height="720px" width="720px"/>
                                        </g>
                                    </g>
                                </g>
                            </g>
                            <g id="chord.note18_note19" class="chord">
                                <g id="chord.note18_note19.stem" class="stem">
                                    <path d="M9578 388 L9578 1440" stroke="currentColor" stroke-width="18"/>
                                    <g id="chord.note18_note19.stem.flag" class="flag">
                                        <use xlink:href="#E241-1mgeqz0" x="9569" y="1440" height="720px" width="720px"/>
                                    </g>
                                </g>
                                <g id="note18" class="note">
                                    <g class="notehead" id="note18.notehead">
                                        <use xlink:href="#E0A4-1mgeqz0" x="9569" y="810" height="720px" width="720px"/>
                                    </g>
                                    <g id="note18.accidental" class="accid"/>
                                </g>
                                <g id="note19" class="note">
                                    <g class="notehead" id="note19.notehead">
                                        <use xlink:href="#E0A4-1mgeqz0" x="9569" y="360" height="720px" width="720px"/>
                                    </g>
                                    <g id="note19.accidental" class="accid">
                                        <use xlink:href="#E262-1mgeqz0" x="9357" y="360" height="720px" width="720px"/>
                                    </g>
                                </g>
                            </g>
                            <g id="rest2" class="rest">
                                <use xlink:href="#E4E6-1mgeqz0" x="10019" y="900" height="720px" width="720px"/>
                            </g>
                        </g>
                    </g>
                    <g id="pP1_m4.right_barline" class="barLine">
                        <path id="pP1_m4.right_barline.barline_tok1" d="M10469 540 L10469 1260" stroke="currentColor" stroke-width="27" class="barline_tok"/>
                    </g>
                </g>
                <g id="pP1_m5" class="measure">
                    <g id="s1toljvd" class="staff">
                        <path d="M10482 540 L13589 540" stroke="currentColor" stroke-width="13"/>
                        <path d="M10482 720 L13589 720" stroke="currentColor" stroke-width="13"/>
                        <path d="M10482 900 L13589 900" stroke="currentColor" stroke-width="13"/>
                        <path d="M10482 1080 L13589 1080" stroke="currentColor" stroke-width="13"/>
                        <path d="M10482 1260 L13589 1260" stroke="currentColor" stroke-width="13"/>
                        <g id="l1vqu4jz" class="layer">
                            <g id="beam7_parent" class="beam_parent">
                                <polygon points="10848,1665 12000,1665 12000,1575 10848,1575" id="beam7" class="beam"/>
                                <polygon points="10848,1530 12000,1530 12000,1440 10848,1440" id="beam8" class="beam"/>
                                <g id="note20" class="note">
                                    <g class="notehead" id="note20.notehead">
                                        <use xlink:href="#E0A4-1mgeqz0" x="10848" y="990" height="720px" width="720px"/>
                                    </g>
                                    <g id="note20.stem" class="stem">
                                        <path d="M10857 1018 L10857 1647" stroke="currentColor" stroke-width="18"/>
                                    </g>
                                    <g id="note20.accidental" class="accid">
                                        <use xlink:href="#E262-1mgeqz0" x="10662" y="990" height="720px" width="720px"/>
                                    </g>
                                </g>
                                <g id="note21" class="note">
                                    <g class="notehead" id="note21.notehead">
                                        <use xlink:href="#E0A4-1mgeqz0" x="11350" y="1080" height="720px" width="720px"/>
                                    </g>
                                    <g id="note21.stem" class="stem">
                                        <path d="M11359 1108 L11359 1647" stroke="currentColor" stroke-width="18"/>
                                    </g>
                                    <g id="note21.accidental" class="accid">
                                        <use xlink:href="#E262-1mgeqz0" x="11164" y="1080" height="720px" width="720px"/>
                                    </g>
                                </g>
                                <g id="note22" class="note">
                                    <g class="notehead" id="note22.notehead">
                                        <use xlink:href="#E0A4-1mgeqz0" x="11666" y="990" height="720px" width="720px"/>
                                    </g>
                                    <g id="note22.stem" class="stem">
                                        <path d="M11675 1018 L11675 1647" stroke="currentColor" stroke-width="18"/>
                                    </g>
                                    <g id="note22.accidental" class="accid"/>
                                </g>
                                <g id="note23" class="note">
                                    <g class="notehead" id="note23.notehead">
                                        <use xlink:href="#E0A4-1mgeqz0" x="11982" y="900" height="720px" width="720px"/>
                                    </g>
                                    <g id="note23.stem" class="stem">
                                        <path d="M11991 928 L11991 1647" stroke="currentColor" stroke-width="18"/>
                                    </g>
                                </g>
                            </g>
                            <g id="beam9_parent" class="beam_parent">
                                <polygon points="12298,1440 13264,1260 13264,1170 12298,1350" id="beam9" class="beam"/>
                                <polygon points="12298,1305 13264,1125 13264,1035 12298,1215" id="beam10" class="beam"/>
                                <g id="note24" class="note">
                                    <g class="notehead" id="note24.notehead">
                                        <use xlink:href="#E0A4-1mgeqz0" x="12298" y="810" height="720px" width="720px"/>
                                    </g>
                                    <g id="note24.stem" class="stem">
                                        <path d="M12307 838 L12307 1422" stroke="currentColor" stroke-width="18"/>
                                    </g>
                                    <g id="note24.accidental" class="accid"/>
                                </g>
                                <g id="note25" class="note">
                                    <g class="notehead" id="note25.notehead">
                                        <use xlink:href="#E0A4-1mgeqz0" x="12614" y="720" height="720px" width="720px"/>
                                    </g>
                                    <g id="note25.stem" class="stem">
                                        <path d="M12623 748 L12623 1362" stroke="currentColor" stroke-width="18"/>
                                    </g>
                                </g>
                                <g id="note26" class="note">
                                    <g class="notehead" id="note26.notehead">
                                        <use xlink:href="#E0A4-1mgeqz0" x="12930" y="630" height="720px" width="720px"/>
                                    </g>
                                    <g id="note26.stem" class="stem">
                                        <path d="M12939 658 L12939 1302" stroke="currentColor" stroke-width="18"/>
                                    </g>
                                </g>
                                <g id="note27" class="note">
                                    <g class="notehead" id="note27.notehead">
                                        <use xlink:href="#E0A4-1mgeqz0" x="13246" y="540" height="720px" width="720px"/>
                                    </g>
                                    <g id="note27.stem" class="stem">
                                        <path d="M13255 568 L13255 1242" stroke="currentColor" stroke-width="18"/>
                                    </g>
                                    <g id="note27.accidental" class="accid"/>
                                </g>
                            </g>
                        </g>
                    </g>
                    <g id="pP1_m5.right_barline" class="barLine">
                        <path id="pP1_m5.right_barline.barline_tok1" d="M13576 540 L13576 1260" stroke="currentColor" stroke-width="27" class="barline_tok"/>
                    </g>
                </g>
                <g id="pP1_m6" class="measure">
                    <g id="si3a2gs" class="staff">
                        <path d="M13589 540 L15946 540" stroke="currentColor" stroke-width="13"/>
                        <path d="M13589 720 L15946 720" stroke="currentColor" stroke-width="13"/>
                        <path d="M13589 900 L15946 900" stroke="currentColor" stroke-width="13"/>
                        <path d="M13589 1080 L15946 1080" stroke="currentColor" stroke-width="13"/>
                        <path d="M13589 1260 L15946 1260" stroke="currentColor" stroke-width="13"/>
                        <g id="l19eyvmd" class="layer">
                            <g id="beam11_parent" class="beam_parent">
                                <polygon points="13769,1260 14735,1440 14735,1350 13769,1170" id="beam11" class="beam"/>
                                <polygon points="13769,1125 14735,1305 14735,1215 13769,1035" id="beam12" class="beam"/>
                                <g id="note28" class="note">
                                    <g class="notehead" id="note28.notehead">
                                        <use xlink:href="#E0A4-1mgeqz0" x="13769" y="540" height="720px" width="720px"/>
                                    </g>
                                    <g id="note28.stem" class="stem">
                                        <path d="M13778 568 L13778 1242" stroke="currentColor" stroke-width="18"/>
                                    </g>
                                    <g id="note28.accidental" class="accid"/>
                                </g>
                                <g id="note29" class="note">
                                    <g class="notehead" id="note29.notehead">
                                        <use xlink:href="#E0A4-1mgeqz0" x="14085" y="630" height="720px" width="720px"/>
                                    </g>
                                    <g id="note29.stem" class="stem">
                                        <path d="M14094 658 L14094 1302" stroke="currentColor" stroke-width="18"/>
                                    </g>
                                </g>
                                <g id="note30" class="note">
                                    <g class="notehead" id="note30.notehead">
                                        <use xlink:href="#E0A4-1mgeqz0" x="14401" y="720" height="720px" width="720px"/>
                                    </g>
                                    <g id="note30.stem" class="stem">
                                        <path d="M14410 748 L14410 1362" stroke="currentColor" stroke-width="18"/>
                                    </g>
                                </g>
                                <g id="note31" class="note">
                                    <g class="notehead" id="note31.notehead">
                                        <use xlink:href="#E0A4-1mgeqz0" x="14717" y="810" height="720px" width="720px"/>
                                    </g>
                                    <g id="note31.stem" class="stem">
                                        <path d="M14726 838 L14726 1422" stroke="currentColor" stroke-width="18"/>
                                    </g>
                                    <g id="note31.accidental" class="accid"/>
                                </g>
                            </g>
                            <g id="note32" class="note">
                                <g class="notehead" id="note32.notehead">
                                    <use xlink:href="#E0A4-1mgeqz0" x="15033" y="900" height="720px" width="720px"/>
                                </g>
                                <g id="note32.stem" class="stem">
                                    <path d="M15042 928 L15042 1500" stroke="currentColor" stroke-width="18"/>
                                    <g id="note32.stem.flag" class="flag">
                                        <use xlink:href="#E241-1mgeqz0" x="15033" y="1500" height="720px" width="720px"/>
                                    </g>
                                </g>
                            </g>
                            <g id="rest3" class="rest">
                                <use xlink:href="#E4E6-1mgeqz0" x="15483" y="900" height="720px" width="720px"/>
                            </g>
                        </g>
                    </g>
                    <g id="pP1_m6.right_barline" class="barLine">
                        <path id="pP1_m6.right_barline.barline_tok1" d="M15933 540 L15933 1260" stroke="currentColor" stroke-width="27" class="barline_tok"/>
                    </g>
                </g>
                <g id="s1q45m6i" class="systemMilestoneEnd szwsnyd"/>
            </g>
            <g id="p1w5cy5z" class="pageMilestoneEnd s1ik6imd"/>
            <g id="pfgkiqb" class="pageMilestoneEnd m1axypxb"/>
        </g>
    </svg>
</svg>