<svg xmlns="http://www.w3.org/2000/svg" xmlns:xlink="http://www.w3.org/1999/xlink" xmlns:mei="http://www.music-encoding.org/ns/mei" width="2151px" height="280px" version="1.1" overflow="visible">
    <desc>Engraved by Verovio 4.3.0-dev-ba68db3-dirty</desc>
    <defs>
        <symbol id="E082-2x9c66" viewBox="0 0 1000 1000" overflow="inherit">
            <path transform="scale(1,-1)" d="M124 -185c-18 0 -55 -14 -65 -65h-36l-3 30c0 25 6 45 18 63c11 19 22 30 39 43l121 82l37 29c15 11 27 29 38 54c12 24 18 47 18 70c0 40 -19 88 -94 88c-25 0 -32 0 -50 -8c-14 -5 -23 -12 -26 -22c3 -9 7 -15 10 -18l24 -17c12 -7 17 -11 27 -21c5 -7 7 -16 7 -27 c0 -12 0 -57 -79 -74c-30 0 -76 26 -76 94c0 66 81 135 197 135c72 0 181 -32 181 -150c0 -53 -32 -95 -113 -133l-91 -41c-26 -11 -45 -23 -57 -37l49 7c84 0 115 -41 148 -41c20 0 33 20 39 61h35c0 -152 -68 -168 -114 -168c-17 0 -65 0 -79 7h10l-28 17 c-49 37 -69 40 -87 42z"/>
        </symbol>
        <symbol id="E084-2x9c66" viewBox="0 0 1000 1000" overflow="inherit">
            <path transform="scale(1,-1)" d="M20 -78c84 97 114 180 134 329h170c-13 -32 -82 -132 -99 -151l-84 -97c-33 -36 -59 -63 -80 -81h162v102l127 123v-225h57v-39h-57v-34c0 -43 19 -65 57 -65v-34h-244v36c48 0 60 26 60 70v27h-203v39z"/>
        </symbol>
        <symbol id="E0A4-2x9c66" viewBox="0 0 1000 1000" overflow="inherit">
            <path transform="scale(1,-1)" d="M0 -39c0 68 73 172 200 172c66 0 114 -37 114 -95c0 -84 -106 -171 -218 -171c-64 0 -96 30 -96 94z"/>
        </symbol>
        <symbol id="E241-2x9c66" viewBox="0 0 1000 1000" overflow="inherit">
            <path transform="scale(1,-1)" d="M179 646c-4 8 -17 30 -18 33l-4 10c0 3 2 5 5 5s7 -2 13 -7c23 -33 46 -81 66 -132c22 -57 35 -125 35 -163c0 -104 -60 -183 -122 -241c-63 -59 -57 -53 -61 -56c-38 -34 -63 -95 -71 -95h-22v190c40 7 69 11 87 16c88 27 168 95 168 200c0 30 -12 89 -30 138 c-17 47 -31 73 -46 102z"/>
        </symbol>
        <symbol id="E4E5-2x9c66" viewBox="0 0 1000 1000" overflow="inherit">
            <path transform="scale(1,-1)" d="M107 292c-13 24 -30 49 -52 71c-1 1 0 2 0 3l-2 2c3 3 4 4 6 4c12 0 26 -7 40 -20s44 -40 89 -81c26 -24 28 -29 46 -47c4 -4 8 -9 10 -14c6 -8 8 -16 8 -27c0 -19 -12 -40 -36 -61c-28 -23 -49 -38 -61 -73c-4 -11 -7 -27 -10 -50c13 -43 34 -83 59 -121 c31 -47 59 -79 101 -129c-8 0 -26 7 -54 20l-62 29l-21 6l-23 1c-25 0 -45 -10 -60 -30l-4 -14l-1 -12c0 -33 20 -56 39 -78c8 -9 17 -18 26 -26c17 -15 27 -24 28 -30l-3 -3c-11 5 -19 10 -25 15c-9 3 -37 21 -45 26c-24 14 -45 32 -63 51c-19 21 -37 44 -37 71 c0 63 27 95 80 95c41 0 86 -18 136 -52c-19 26 -37 48 -55 66c-23 23 -48 44 -73 65c-28 23 -47 40 -58 53s-17 26 -18 39c75 64 113 125 113 183c0 27 -7 48 -18 68z"/>
        </symbol>
        <symbol id="E4E6-2x9c66" viewBox="0 0 1000 1000" overflow="inherit">
            <path transform="scale(1,-1)" d="M0 123c7 34 33 56 69 60c29 -3 43 -9 53 -29c4 -8 7 -15 10 -22c0 -21 -1 -25 -11 -35c-5 -8 -18 -14 -40 -20l12 -3l15 -1c44 0 97 26 122 56c10 11 18 26 24 42c7 1 15 2 22 3l-140 -424h-36l111 330c-10 -6 -27 -12 -53 -16l-52 -8h-10l-20 1c-1 0 -8 3 -21 6 c-37 9 -55 28 -55 60z"/>
        </symbol>
        <symbol id="E882-2x9c66" viewBox="0 0 1000 1000" overflow="inherit">
            <path transform="scale(1,-1)" d="M166 311c60 0 94 -21 94 -80c0 -27 -12 -51 -40 -64l-70 -32c-37 -10 -69 -30 -96 -60h21l26 -2l12 -6c14 -6 28 -11 42 -17c6 -3 13 -4 21 -4l15 4l11 8c5 5 11 13 19 26l17 -9l-16 -28c-2 -4 -16 -28 -20 -31c-19 -21 -38 -31 -57 -31h-10c-13 6 -25 12 -36 20l-15 11 c-12 7 -23 10 -32 10c-10 -3 -19 -8 -24 -17l-5 -9h-23c0 27 6 51 20 72c7 10 14 16 19 21l28 25c20 11 40 22 59 33l19 9c16 7 29 18 39 30c12 15 19 30 19 45l1 12c0 13 -4 24 -12 31c-6 9 -15 14 -28 14c-29 0 -46 -15 -52 -44l3 -12l2 -16c0 -20 -8 -29 -25 -29 c-14 0 -26 13 -26 28c0 48 52 92 100 92z"/>
        </symbol>
        <symbol id="E883-2x9c66" viewBox="0 0 1000 1000" overflow="inherit">
            <path transform="scale(1,-1)" d="M161 326c52 0 94 -17 94 -68c0 -50 -40 -76 -82 -94c26 -21 39 -42 39 -64c0 -52 -56 -100 -118 -100h-12c-40 0 -82 23 -82 56c0 30 12 49 37 49c17 0 31 -16 34 -31c0 -5 -4 -12 -11 -21c-7 -5 -13 -10 -13 -21l11 -9l17 -4c21 0 40 12 56 37c13 21 19 45 19 70 c-9 30 -28 35 -66 35l6 23c34 0 60 4 77 13c20 11 30 35 30 70c0 28 -12 38 -39 40l-20 -3c-8 -3 -12 -9 -12 -16c2 -7 4 -11 5 -14l4 -11l3 -10l-3 -12c-5 -6 -11 -11 -20 -13c-2 0 -4 -1 -6 -1c-16 0 -30 13 -30 28c0 39 43 71 82 71z"/>
        </symbol>
        <symbol id="E500-2x9c66" viewBox="0 0 1000 1000" overflow="inherit">
            <path transform="scale(1,-1)" d="M508 242l-362 -484h-146l362 484h146zM52 118c0 13 4 25 13 34s19 14 32 15c14 0 26 -4 35 -12s14 -19 15 -33c0 -13 -4 -25 -13 -34s-19 -14 -32 -15c-14 0 -26 4 -35 12s-14 19 -15 33zM361 -121c0 13 4 25 13 34s19 14 32 15c14 0 26 -4 35 -12s14 -19 15 -33 c0 -13 -4 -25 -13 -34s-19 -14 -32 -15c-14 0 -26 4 -35 12s-14 19 -15 33z"/>
        </symbol>
        <symbol id="E243-2x9c66" viewBox="0 0 1000 1000" overflow="inherit">
            <path transform="scale(1,-1)" d="M216 730c-5 8 -10 13 -11 16l-4 10c0 3 2 5 5 5s7 -2 13 -7c35 -42 57 -101 57 -172c0 -34 -6 -65 -17 -94c10 -31 17 -64 17 -96c0 -104 -60 -183 -122 -241c-63 -59 -57 -53 -61 -56c-38 -34 -63 -95 -71 -95h-22v190v190c40 7 69 11 87 16c116 36 175 111 175 197 c0 44 -15 91 -46 137zM248 463c-23 -48 -58 -89 -94 -122c-63 -59 -57 -53 -61 -56c-30 -27 -44 -71 -53 -88c20 3 36 6 47 9c88 27 168 95 168 200c0 19 -3 39 -7 57z"/>
        </symbol>
    </defs>
    <style type="text/css">g.page-margin{font-family:Times,serif;} g.ending, g.fing, g.reh, g.tempo{font-weight:bold;} g.dir, g.dynam, g.mNum{font-style:italic;} g.label{font-weight:normal;}</style>
    <svg class="definition-scale" color="black" viewBox="0 0 21510 2800">
        <g class="page-margin" transform="translate(500, 500)">
            <g id="mppz1j6" class="mdiv pageMilestone"/>
            <g id="s12hyity" class="score pageMilestone"/>
            <g id="sr00bor" class="system">
                <g id="l100vbqh" class="label">
                    <text x="1105" y="990" text-anchor="end" font-size="0px">
                        <tspan id="tp3gyo" class="text">
                            <tspan font-size="405px">Piano</tspan>
                        </tspan>
                    </text>
                </g>
                <g id="srpmo3x" class="section systemMilestone"/>
                <g id="pP1_m1" class="measure">
                    <g id="swrypva" class="staff">
                        <path d="M1285 540 L3537 540" stroke="currentColor" stroke-width="13"/>
                        <path d="M1285 720 L3537 720" stroke="currentColor" stroke-width="13"/>
                        <path d="M1285 900 L3537 900" stroke="currentColor" stroke-width="13"/>
                        <path d="M1285 1080 L3537 1080" stroke="currentColor" stroke-width="13"/>
                        <path d="M1285 1260 L3537 1260" stroke="currentColor" stroke-width="13"/>
                        <g id="clef1_1" class="clef" visibility="hidden"/>
                        <g id="key1_1" class="keySig" visibility="hidden"/>
                        <g id="time1_1" class="meterSig">
                            <use xlink:href="#E082-2x9c66" x="1361" y="720" height="720px" width="720px"/>
                            <use xlink:href="#E084-2x9c66" x="1366" y="1080" height="720px" width="720px"/>
                        </g>
                        <g id="lmi28dd" class="layer">
                            <g id="note1" class="note">
                                <g class="notehead" id="note1.notehead">
                                    <use xlink:href="#E0A4-2x9c66" x="1934" y="900" height="720px" width="720px"/>
                                </g>
                                <g id="note1.stem" class="stem">
                                    <path d="M1943 928 L1943 1500" stroke="currentColor" stroke-width="18"/>
                                    <g id="note1.stem.flag" class="flag">
                                        <use xlink:href="#E241-2x9c66" x="1934" y="1500" height="720px" width="720px"/>
                                    </g>
                                </g>
                            </g>
                            <g id="rest1" class="rest">
                                <use xlink:href="#E4E6-2x9c66" x="2384" y="900" height="720px" width="720px"/>
                            </g>
                            <g id="rest2" class="rest">
                                <use xlink:href="#E4E5-2x9c66" x="2834" y="900" height="720px" width="720px"/>
                            </g>
                        </g>
                    </g>
                    <g id="pP1_m1.right_barline" class="barLine">
                        <path id="pP1_m1.right_barline.barline_tok1" d="M3524 540 L3524 1260" stroke="currentColor" stroke-width="27" class="barline_tok"/>
                    </g>
                </g>
                <g id="pP1_m2" class="measure">
                    <g id="scj9h9z" class="staff">
                        <path d="M3537 540 L4914 540" stroke="currentColor" stroke-width="13"/>
                        <path d="M3537 720 L4914 720" stroke="currentColor" stroke-width="13"/>
                        <path d="M3537 900 L4914 900" stroke="currentColor" stroke-width="13"/>
                        <path d="M3537 1080 L4914 1080" stroke="currentColor" stroke-width="13"/>
                        <path d="M3537 1260 L4914 1260" stroke="currentColor" stroke-width="13"/>
                        <g id="l1xjasa6" class="layer">
                            <g id="pP1_m2.measure_repeat" class="mRpt">
                                <use xlink:href="#E500-2x9c66" x="4030" y="900" height="720px" width="720px"/>
                                <use xlink:href="#E882-2x9c66" x="4118" y="450" height="720px" width="720px"/>
                            </g>
                        </g>
                    </g>
                    <g id="pP1_m2.right_barline" class="barLine">
                        <path id="pP1_m2.right_barline.barline_tok1" d="M4901 540 L4901 1260" stroke="currentColor" stroke-width="27" class="barline_tok"/>
                    </g>
                </g>
                <g id="pP1_m3" class="measure">
                    <g id="s1vyqqdt" class="staff">
                        <path d="M4914 540 L6291 540" stroke="currentColor" stroke-width="13"/>
                        <path d="M4914 720 L6291 720" stroke="currentColor" stroke-width="13"/>
                        <path d="M4914 900 L6291 900" stroke="currentColor" stroke-width="13"/>
                        <path d="M4914 1080 L6291 1080" stroke="currentColor" stroke-width="13"/>
                        <path d="M4914 1260 L6291 1260" stroke="currentColor" stroke-width="13"/>
                        <g id="l17zudxm" class="layer">
                            <g id="pP1_m3.measure_repeat" class="mRpt">
                                <use xlink:href="#E500-2x9c66" x="5407" y="900" height="720px" width="720px"/>
                                <use xlink:href="#E883-2x9c66" x="5497" y="450" height="720px" width="720px"/>
                            </g>
                        </g>
                    </g>
                    <g id="pP1_m3.right_barline" class="barLine">
                        <path id="pP1_m3.right_barline.barline_tok1" d="M6278 540 L6278 1260" stroke="currentColor" stroke-width="27" class="barline_tok"/>
                    </g>
                </g>
                <g id="pP1_m4" class="measure">
                    <g id="s1paeiop" class="staff">
                        <path d="M6291 540 L8074 540" stroke="currentColor" stroke-width="13"/>
                        <path d="M6291 720 L8074 720" stroke="currentColor" stroke-width="13"/>
                        <path d="M6291 900 L8074 900" stroke="currentColor" stroke-width="13"/>
                        <path d="M6291 1080 L8074 1080" stroke="currentColor" stroke-width="13"/>
                        <path d="M6291 1260 L8074 1260" stroke="currentColor" stroke-width="13"/>
                        <g id="l173qml7" class="layer">
                            <g id="note4" class="note">
                                <g class="notehead" id="note4.notehead">
                                    <use xlink:href="#E0A4-2x9c66" x="6471" y="990" height="720px" width="720px"/>
                                </g>
                                <g id="note4.stem" class="stem">
                                    <path d="M6480 1018 L6480 1560" stroke="currentColor" stroke-width="18"/>
                                    <g id="note4.stem.flag" class="flag">
                                        <use xlink:href="#E241-2x9c66" x="6471" y="1560" height="720px" width="720px"/>
                                    </g>
                                </g>
                                <g id="note4.accidental" class="accid"/>
                            </g>
                            <g id="rest7" class="rest">
                                <use xlink:href="#E4E6-2x9c66" x="6921" y="900" height="720px" width="720px"/>
                            </g>
                            <g id="rest8" class="rest">
                                <use xlink:href="#E4E5-2x9c66" x="7371" y="900" height="720px" width="720px"/>
                            </g>
                        </g>
                    </g>
                    <g id="pP1_m4.right_barline" class="barLine">
                        <path id="pP1_m4.right_barline.barline_tok1" d="M8061 540 L8061 1260" stroke="currentColor" stroke-width="27" class="barline_tok"/>
                    </g>
                </g>
                <g id="pP1_m5" class="measure">
                    <g id="s1g68caq" class="staff">
                        <path d="M8074 540 L9867 540" stroke="currentColor" stroke-width="13"/>
                        <path d="M8074 720 L9867 720" stroke="currentColor" stroke-width="13"/>
                        <path d="M8074 900 L9867 900" stroke="currentColor" stroke-width="13"/>
                        <path d="M8074 1080 L9867 1080" stroke="currentColor" stroke-width="13"/>
                        <path d="M8074 1260 L9867 1260" stroke="currentColor" stroke-width="13"/>
                        <g id="l1xcxftx" class="layer">
                            <g id="note5" class="note">
                                <g class="notehead" id="note5.notehead">
                                    <use xlink:href="#E0A4-2x9c66" x="8254" y="720" height="720px" width="720px"/>
                                </g>
                                <g id="note5.stem" class="stem">
                                    <path d="M8263 748 L8263 1350" stroke="currentColor" stroke-width="18"/>
                                </g>
                                <g id="note5.accidental" class="accid"/>
                            </g>
                            <g id="rest9" class="rest">
                                <use xlink:href="#E4E6-2x9c66" x="8944" y="900" height="720px" width="720px"/>
                                <g id="rest9.dots_parent" class="dots">
                                    <ellipse cx="9232" cy="810" rx="36" ry="36" id="rest9.dot1" class="single_dot"/>
                                </g>
                            </g>
                            <g id="note6" class="note">
                                <g class="notehead" id="note6.notehead">
                                    <use xlink:href="#E0A4-2x9c66" x="9524" y="720" height="720px" width="720px"/>
                                </g>
                                <g id="note6.stem" class="stem">
                                    <path d="M9533 748 L9533 1350" stroke="currentColor" stroke-width="18"/>
                                    <g id="note6.stem.flag" class="flag">
                                        <use xlink:href="#E243-2x9c66" x="9524" y="1350" height="720px" width="720px"/>
                                    </g>
                                </g>
                                <g id="note6.accidental" class="accid"/>
                            </g>
                        </g>
                    </g>
                    <g id="pP1_m5.right_barline" class="barLine">
                        <path id="pP1_m5.right_barline.barline_tok1" d="M9854 540 L9854 1260" stroke="currentColor" stroke-width="27" class="barline_tok"/>
                    </g>
                </g>
                <g id="pP1_m6" class="measure">
                    <g id="s16p8gvg" class="staff">
                        <path d="M9867 540 L11660 540" stroke="currentColor" stroke-width="13"/>
                        <path d="M9867 720 L11660 720" stroke="currentColor" stroke-width="13"/>
                        <path d="M9867 900 L11660 900" stroke="currentColor" stroke-width="13"/>
                        <path d="M9867 1080 L11660 1080" stroke="currentColor" stroke-width="13"/>
                        <path d="M9867 1260 L11660 1260" stroke="currentColor" stroke-width="13"/>
                        <g id="lyt9t66" class="layer">
                            <g id="note7" class="note">
                                <g class="notehead" id="note7.notehead">
                                    <use xlink:href="#E0A4-2x9c66" x="10047" y="540" height="720px" width="720px"/>
                                </g>
                                <g id="note7.stem" class="stem">
                                    <path d="M10056 568 L10056 1170" stroke="currentColor" stroke-width="18"/>
                                </g>
                            </g>
                            <g id="beam1_parent" class="beam_parent">
                                <polygon points="10737,1260 11335,1440 11335,1350 10737,1170" id="beam1" class="beam"/>
                                <polygon points="11109,1241 11335,1305 11335,1215 11109,1151" id="beam2" class="beam"/>
                                <g id="note8" class="note">
                                    <g class="notehead" id="note8.notehead">
                                        <use xlink:href="#E0A4-2x9c66" x="10737" y="540" height="720px" width="720px"/>
                                    </g>
                                    <g id="note8.dots_parent" class="dots">
                                        <ellipse cx="11053" cy="450" rx="36" ry="36" id="note8.dot1" class="single_dot"/>
                                    </g>
                                    <g id="note8.stem" class="stem">
                                        <path d="M10746 568 L10746 1242" stroke="currentColor" stroke-width="18"/>
                                    </g>
                                </g>
                                <g id="note9" class="note">
                                    <g class="notehead" id="note9.notehead">
                                        <use xlink:href="#E0A4-2x9c66" x="11317" y="810" height="720px" width="720px"/>
                                    </g>
                                    <g id="note9.stem" class="stem">
                                        <path d="M11326 838 L11326 1422" stroke="currentColor" stroke-width="18"/>
                                    </g>
                                </g>
                            </g>
                        </g>
                    </g>
                    <g id="tied1" class="tie">
                        <path d="M10318,495 C10398,341 10609,341 10692,495 C10584,390 10423,390 10318,495" stroke="currentColor" stroke-linecap="round" stroke-linejoin="round" stroke-width="9"/>
                    </g>
                    <g id="pP1_m6.right_barline" class="barLine">
                        <path id="pP1_m6.right_barline.barline_tok1" d="M11647 540 L11647 1260" stroke="currentColor" stroke-width="27" class="barline_tok"/>
                    </g>
                </g>
                <g id="pP1_m7" class="measure">
                    <g id="syfxoyt" class="staff">
                        <path d="M11660 540 L13233 540" stroke="currentColor" stroke-width="13"/>
                        <path d="M11660 720 L13233 720" stroke="currentColor" stroke-width="13"/>
                        <path d="M11660 900 L13233 900" stroke="currentColor" stroke-width="13"/>
                        <path d="M11660 1080 L13233 1080" stroke="currentColor" stroke-width="13"/>
                        <path d="M11660 1260 L13233 1260" stroke="currentColor" stroke-width="13"/>
                        <g id="l1iuy1f3" class="layer">
                            <g id="note10" class="note">
                                <g class="notehead" id="note10.notehead">
                                    <use xlink:href="#E0A4-2x9c66" x="11840" y="630" height="720px" width="720px"/>
                                </g>
                                <g id="note10.stem" class="stem">
                                    <path d="M11849 658 L11849 1260" stroke="currentColor" stroke-width="18"/>
                                </g>
                            </g>
                            <g id="note11" class="note">
                                <g class="notehead" id="note11.notehead">
                                    <use xlink:href="#E0A4-2x9c66" x="12530" y="810" height="720px" width="720px"/>
                                </g>
                                <g id="note11.stem" class="stem">
                                    <path d="M12539 838 L12539 1440" stroke="currentColor" stroke-width="18"/>
                                </g>
                            </g>
                        </g>
                    </g>
                    <g id="pP1_m7.right_barline" class="barLine">
                        <path id="pP1_m7.right_barline.barline_tok1" d="M13220 540 L13220 1260" stroke="currentColor" stroke-width="27" class="barline_tok"/>
                    </g>
                </g>
                <g id="pP1_m8" class="measure">
                    <g id="s14g7wwa" class="staff">
                        <path d="M13233 540 L15786 540" stroke="currentColor" stroke-width="13"/>
                        <path d="M13233 720 L15786 720" stroke="currentColor" stroke-width="13"/>
                        <path d="M13233 900 L15786 900" stroke="currentColor" stroke-width="13"/>
                        <path d="M13233 1080 L15786 1080" stroke="currentColor" stroke-width="13"/>
                        <path d="M13233 1260 L15786 1260" stroke="currentColor" stroke-width="13"/>
                        <g class="ledgerLines above">
                            <path d="M13815 360 L14137 360" stroke="currentColor" stroke-width="22"/>
                        </g>
                        <g id="l1c0rgvn" class="layer">
                            <g id="beam3_parent" class="beam_parent">
                                <polygon points="13413,1530 14197,1710 14197,1620 13413,1440" id="beam3" class="beam"/>
                                <polygon points="13872,1501 14197,1575 14197,1485 13872,1411" id="beam4" class="beam"/>
                                <g id="note12" class="note">
                                    <g class="notehead" id="note12.notehead">
                                        <use xlink:href="#E0A4-2x9c66" x="13413" y="900" height="720px" width="720px"/>
                                    </g>
                                    <g id="note12.stem" class="stem">
                                        <path d="M13422 928 L13422 1512" stroke="currentColor" stroke-width="18"/>
                                    </g>
                                </g>
                                <g id="chord.note13_note14" class="chord">
                                    <g id="chord.note13_note14.stem" class="stem">
                                        <path d="M13872 388 L13872 1618" stroke="currentColor" stroke-width="18"/>
                                    </g>
                                    <g id="note13" class="note">
                                        <g class="notehead" id="note13.notehead">
                                            <use xlink:href="#E0A4-2x9c66" x="13863" y="990" height="720px" width="720px"/>
                                        </g>
                                        <g id="note13.accidental" class="accid"/>
                                    </g>
                                    <g id="note14" class="note">
                                        <g class="notehead" id="note14.notehead">
                                            <use xlink:href="#E0A4-2x9c66" x="13863" y="360" height="720px" width="720px"/>
                                        </g>
                                        <g id="note14.accidental" class="accid"/>
                                    </g>
                                </g>
                                <g id="chord.note15_note16" class="chord">
                                    <g id="chord.note15_note16.stem" class="stem">
                                        <path d="M14188 478 L14188 1692" stroke="currentColor" stroke-width="18"/>
                                    </g>
                                    <g id="note15" class="note">
                                        <g class="notehead" id="note15.notehead">
                                            <use xlink:href="#E0A4-2x9c66" x="14179" y="1080" height="720px" width="720px"/>
                                        </g>
                                    </g>
                                    <g id="note16" class="note">
                                        <g class="notehead" id="note16.notehead">
                                            <use xlink:href="#E0A4-2x9c66" x="14179" y="450" height="720px" width="720px"/>
                                        </g>
                                    </g>
                                </g>
                            </g>
                            <g id="beam5_parent" class="beam_parent">
                                <polygon points="14495,1260 15461,1440 15461,1350 14495,1170" id="beam5" class="beam"/>
                                <polygon points="14495,1125 15461,1305 15461,1215 14495,1035" id="beam6" class="beam"/>
                                <g id="note17" class="note">
                                    <g class="notehead" id="note17.notehead">
                                        <use xlink:href="#E0A4-2x9c66" x="14495" y="540" height="720px" width="720px"/>
                                    </g>
                                    <g id="note17.stem" class="stem">
                                        <path d="M14504 568 L14504 1242" stroke="currentColor" stroke-width="18"/>
                                    </g>
                                </g>
                                <g id="note18" class="note">
                                    <g class="notehead" id="note18.notehead">
                                        <use xlink:href="#E0A4-2x9c66" x="14811" y="630" height="720px" width="720px"/>
                                    </g>
                                    <g id="note18.stem" class="stem">
                                        <path d="M14820 658 L14820 1302" stroke="currentColor" stroke-width="18"/>
                                    </g>
                                </g>
                                <g id="note19" class="note">
                                    <g class="notehead" id="note19.notehead">
                                        <use xlink:href="#E0A4-2x9c66" x="15127" y="720" height="720px" width="720px"/>
                                    </g>
                                    <g id="note19.stem" class="stem">
                                        <path d="M15136 748 L15136 1362" stroke="currentColor" stroke-width="18"/>
                                    </g>
                                    <g id="note19.accidental" class="accid"/>
                                </g>
                                <g id="note20" class="note">
                                    <g class="notehead" id="note20.notehead">
                                        <use xlink:href="#E0A4-2x9c66" x="15443" y="810" height="720px" width="720px"/>
                                    </g>
                                    <g id="note20.stem" class="stem">
                                        <path d="M15452 838 L15452 1422" stroke="currentColor" stroke-width="18"/>
                                    </g>
                                </g>
                            </g>
                        </g>
                    </g>
                    <g id="pP1_m8.right_barline" class="barLine">
                        <path id="pP1_m8.right_barline.barline_tok1" d="M15773 540 L15773 1260" stroke="currentColor" stroke-width="27" class="barline_tok"/>
                    </g>
                </g>
                <g id="pP1_m9" class="measure">
                    <g id="sj1op62" class="staff">
                        <path d="M15786 540 L17359 540" stroke="currentColor" stroke-width="13"/>
                        <path d="M15786 720 L17359 720" stroke="currentColor" stroke-width="13"/>
                        <path d="M15786 900 L17359 900" stroke="currentColor" stroke-width="13"/>
                        <path d="M15786 1080 L17359 1080" stroke="currentColor" stroke-width="13"/>
                        <path d="M15786 1260 L17359 1260" stroke="currentColor" stroke-width="13"/>
                        <g id="la1vpkq" class="layer">
                            <g id="note21" class="note">
                                <g class="notehead" id="note21.notehead">
                                    <use xlink:href="#E0A4-2x9c66" x="15966" y="900" height="720px" width="720px"/>
                                </g>
                                <g id="note21.stem" class="stem">
                                    <path d="M15975 928 L15975 1500" stroke="currentColor" stroke-width="18"/>
                                </g>
                            </g>
                            <g id="rest10" class="rest">
                                <use xlink:href="#E4E5-2x9c66" x="16656" y="900" height="720px" width="720px"/>
                            </g>
                        </g>
                    </g>
                    <g id="pP1_m9.right_barline" class="barLine">
                        <path id="pP1_m9.right_barline.barline_tok1" d="M17346 540 L17346 1260" stroke="currentColor" stroke-width="27" class="barline_tok"/>
                    </g>
                </g>
                <g id="pP1_m10" class="measure">
                    <g id="su0dkj7" class="staff">
                        <path d="M17359 540 L19142 540" stroke="currentColor" stroke-width="13"/>
                        <path d="M17359 720 L19142 720" stroke="currentColor" stroke-width="13"/>
                        <path d="M17359 900 L19142 900" stroke="currentColor" stroke-width="13"/>
                        <path d="M17359 1080 L19142 1080" stroke="currentColor" stroke-width="13"/>
                        <path d="M17359 1260 L19142 1260" stroke="currentColor" stroke-width="13"/>
                        <g id="l1gsjz6l" class="layer">
                            <g id="note22" class="note">
                                <g class="notehead" id="note22.notehead">
                                    <use xlink:href="#E0A4-2x9c66" x="17539" y="900" height="720px" width="720px"/>
                                </g>
                                <g id="note22.stem" class="stem">
                                    <path d="M17548 928 L17548 1500" stroke="currentColor" stroke-width="18"/>
                                    <g id="note22.stem.flag" class="flag">
                                        <use xlink:href="#E241-2x9c66" x="17539" y="1500" height="720px" width="720px"/>
                                    </g>
                                </g>
                            </g>
                            <g id="rest11" class="rest">
                                <use xlink:href="#E4E6-2x9c66" x="17989" y="900" height="720px" width="720px"/>
                            </g>
                            <g id="rest12" class="rest">
                                <use xlink:href="#E4E5-2x9c66" x="18439" y="900" height="720px" width="720px"/>
                            </g>
                        </g>
                    </g>
                    <g id="pP1_m10.right_barline" class="barLine">
                        <path id="pP1_m10.right_barline.barline_tok1" d="M19129 540 L19129 1260" stroke="currentColor" stroke-width="27" class="barline_tok"/>
                    </g>
                </g>
                <g id="pP1_m11" class="measure">
                    <g id="spdyr01" class="staff">
                        <path d="M19142 540 L20519 540" stroke="currentColor" stroke-width="13"/>
                        <path d="M19142 720 L20519 720" stroke="currentColor" stroke-width="13"/>
                        <path d="M19142 900 L20519 900" stroke="currentColor" stroke-width="13"/>
                        <path d="M19142 1080 L20519 1080" stroke="currentColor" stroke-width="13"/>
                        <path d="M19142 1260 L20519 1260" stroke="currentColor" stroke-width="13"/>
                        <g id="lkp32yq" class="layer">
                            <g id="pP1_m11.measure_repeat" class="mRpt">
                                <use xlink:href="#E500-2x9c66" x="19635" y="900" height="720px" width="720px"/>
                                <use xlink:href="#E882-2x9c66" x="19723" y="450" height="720px" width="720px"/>
                            </g>
                        </g>
                    </g>
                    <g id="pP1_m11.right_barline" class="barLine">
                        <path id="pP1_m11.right_barline.barline_tok1" d="M20506 540 L20506 1260" stroke="currentColor" stroke-width="27" class="barline_tok"/>
                    </g>
                </g>
                <g id="seabhyu" class="systemMilestoneEnd srpmo3x"/>
            </g>
            <g id="p2rp45u" class="pageMilestoneEnd s12hyity"/>
            <g id="pp9scyi" class="pageMilestoneEnd mppz1j6"/>
        </g>
    </svg>
</svg>