<svg xmlns="http://www.w3.org/2000/svg" xmlns:xlink="http://www.w3.org/1999/xlink" xmlns:mei="http://www.music-encoding.org/ns/mei" width="1834px" height="280px" version="1.1" overflow="visible">
    <desc>Engraved by Verovio 4.3.0-dev-ba68db3-dirty</desc>
    <defs>
        <symbol id="E0A3-1jiryvj" viewBox="0 0 1000 1000" overflow="inherit">
            <path transform="scale(1,-1)" d="M278 64c0 22 -17 39 -43 39c-12 0 -26 -3 -41 -10c-85 -43 -165 -94 -165 -156c5 -25 15 -32 49 -32c67 11 200 95 200 159zM0 -36c0 68 73 174 200 174c66 0 114 -39 114 -97c0 -84 -106 -173 -218 -173c-64 0 -96 32 -96 96z"/>
        </symbol>
        <symbol id="E086-1jiryvj" viewBox="0 0 1000 1000" overflow="inherit">
            <path transform="scale(1,-1)" d="M284 -91c0 37 -28 92 -67 92c-35 0 -65 -54 -65 -111c0 -52 22 -104 68 -104c47 0 64 68 64 123zM230 214c-36 0 -90 -33 -90 -184l2 -36c40 24 81 36 120 36c80 0 140 -48 140 -121c0 -99 -99 -159 -182 -159c-160 0 -200 173 -200 244c0 21 2 43 7 71l10 35 c26 85 73 115 98 126c41 19 74 24 103 24c93 0 142 -63 142 -105c0 -58 -52 -72 -73 -72c-33 0 -59 24 -65 35c-3 5 -6 14 -7 25l11 30c6 15 9 27 9 35c0 11 -9 16 -25 16z"/>
        </symbol>
        <symbol id="E088-1jiryvj" viewBox="0 0 1000 1000" overflow="inherit">
            <path transform="scale(1,-1)" d="M195 -214c76 0 88 58 90 68c0 34 -35 60 -57 73l-52 29c-21 10 -32 17 -34 20c-39 -33 -58 -54 -62 -92c5 -23 23 -98 115 -98zM301 135c0 61 -72 76 -113 76c-40 0 -77 -17 -77 -51c3 -21 15 -38 26 -50c17 -15 33 -26 48 -34l65 -28c34 27 51 56 51 87zM176 -250 c-57 0 -166 26 -166 132c0 47 30 86 89 116c-33 15 -79 60 -79 119c0 79 85 132 178 132h18c5 0 21 1 28 -1c25 0 126 -30 126 -110c0 -37 -23 -76 -69 -116c43 -25 83 -71 83 -119c0 -101 -118 -153 -208 -153z"/>
        </symbol>
        <symbol id="E0A4-1jiryvj" viewBox="0 0 1000 1000" overflow="inherit">
            <path transform="scale(1,-1)" d="M0 -39c0 68 73 172 200 172c66 0 114 -37 114 -95c0 -84 -106 -171 -218 -171c-64 0 -96 30 -96 94z"/>
        </symbol>
        <symbol id="E240-1jiryvj" viewBox="0 0 1000 1000" overflow="inherit">
            <path transform="scale(1,-1)" d="M179 -646c15 29 29 55 46 102c18 49 30 108 30 138c0 105 -80 173 -168 200c-18 5 -47 9 -87 16v190h22c8 0 33 -61 71 -95c4 -3 -2 3 61 -56c62 -58 122 -137 122 -241c0 -38 -13 -106 -35 -163c-20 -51 -43 -99 -66 -132c-6 -5 -10 -7 -13 -7s-5 2 -5 5l4 10 c1 3 14 25 18 33z"/>
        </symbol>
        <symbol id="E4E6-1jiryvj" viewBox="0 0 1000 1000" overflow="inherit">
            <path transform="scale(1,-1)" d="M0 123c7 34 33 56 69 60c29 -3 43 -9 53 -29c4 -8 7 -15 10 -22c0 -21 -1 -25 -11 -35c-5 -8 -18 -14 -40 -20l12 -3l15 -1c44 0 97 26 122 56c10 11 18 26 24 42c7 1 15 2 22 3l-140 -424h-36l111 330c-10 -6 -27 -12 -53 -16l-52 -8h-10l-20 1c-1 0 -8 3 -21 6 c-37 9 -55 28 -55 60z"/>
        </symbol>
        <symbol id="E882-1jiryvj" viewBox="0 0 1000 1000" overflow="inherit">
            <path transform="scale(1,-1)" d="M166 311c60 0 94 -21 94 -80c0 -27 -12 -51 -40 -64l-70 -32c-37 -10 -69 -30 -96 -60h21l26 -2l12 -6c14 -6 28 -11 42 -17c6 -3 13 -4 21 -4l15 4l11 8c5 5 11 13 19 26l17 -9l-16 -28c-2 -4 -16 -28 -20 -31c-19 -21 -38 -31 -57 -31h-10c-13 6 -25 12 -36 20l-15 11 c-12 7 -23 10 -32 10c-10 -3 -19 -8 -24 -17l-5 -9h-23c0 27 6 51 20 72c7 10 14 16 19 21l28 25c20 11 40 22 59 33l19 9c16 7 29 18 39 30c12 15 19 30 19 45l1 12c0 13 -4 24 -12 31c-6 9 -15 14 -28 14c-29 0 -46 -15 -52 -44l3 -12l2 -16c0 -20 -8 -29 -25 -29 c-14 0 -26 13 -26 28c0 48 52 92 100 92z"/>
        </symbol>
        <symbol id="E883-1jiryvj" viewBox="0 0 1000 1000" overflow="inherit">
            <path transform="scale(1,-1)" d="M161 326c52 0 94 -17 94 -68c0 -50 -40 -76 -82 -94c26 -21 39 -42 39 -64c0 -52 -56 -100 -118 -100h-12c-40 0 -82 23 -82 56c0 30 12 49 37 49c17 0 31 -16 34 -31c0 -5 -4 -12 -11 -21c-7 -5 -13 -10 -13 -21l11 -9l17 -4c21 0 40 12 56 37c13 21 19 45 19 70 c-9 30 -28 35 -66 35l6 23c34 0 60 4 77 13c20 11 30 35 30 70c0 28 -12 38 -39 40l-20 -3c-8 -3 -12 -9 -12 -16c2 -7 4 -11 5 -14l4 -11l3 -10l-3 -12c-5 -6 -11 -11 -20 -13c-2 0 -4 -1 -6 -1c-16 0 -30 13 -30 28c0 39 43 71 82 71z"/>
        </symbol>
        <symbol id="E500-1jiryvj" viewBox="0 0 1000 1000" overflow="inherit">
            <path transform="scale(1,-1)" d="M508 242l-362 -484h-146l362 484h146zM52 118c0 13 4 25 13 34s19 14 32 15c14 0 26 -4 35 -12s14 -19 15 -33c0 -13 -4 -25 -13 -34s-19 -14 -32 -15c-14 0 -26 4 -35 12s-14 19 -15 33zM361 -121c0 13 4 25 13 34s19 14 32 15c14 0 26 -4 35 -12s14 -19 15 -33 c0 -13 -4 -25 -13 -34s-19 -14 -32 -15c-14 0 -26 4 -35 12s-14 19 -15 33z"/>
        </symbol>
        <symbol id="E220-1jiryvj" viewBox="0 0 1000 1000" overflow="inherit">
            <path transform="scale(1,-1)" d="M-163 -25l326 150v-100l-326 -150v100z"/>
        </symbol>
        <symbol id="E221-1jiryvj" viewBox="0 0 1000 1000" overflow="inherit">
            <path transform="scale(1,-1)" d="M-163 -112l326 150v-100l-326 -150v100zM-163 63l326 150v-100l-326 -150v100z"/>
        </symbol>
    </defs>
    <style type="text/css">g.page-margin{font-family:Times,serif;} g.ending, g.fing, g.reh, g.tempo{font-weight:bold;} g.dir, g.dynam, g.mNum{font-style:italic;} g.label{font-weight:normal;}</style>
    <svg class="definition-scale" color="black" viewBox="0 0 18340 2800">
        <g class="page-margin" transform="translate(500, 500)">
            <g id="mp2vrt3" class="mdiv pageMilestone"/>
            <g id="s1lzrbfg" class="score pageMilestone"/>
            <g id="swayltz" class="system">
                <g id="ledubqb" class="label">
                    <text x="1105" y="990" text-anchor="end" font-size="0px">
                        <tspan id="tyiig8o" class="text">
                            <tspan font-size="405px">Piano</tspan>
                        </tspan>
                    </text>
                </g>
                <g id="s1wqokr2" class="section systemMilestone"/>
                <g id="pP1_m1" class="measure">
                    <g id="st0ndu4" class="staff">
                        <path d="M1285 540 L4043 540" stroke="currentColor" stroke-width="13"/>
                        <path d="M1285 720 L4043 720" stroke="currentColor" stroke-width="13"/>
                        <path d="M1285 900 L4043 900" stroke="currentColor" stroke-width="13"/>
                        <path d="M1285 1080 L4043 1080" stroke="currentColor" stroke-width="13"/>
                        <path d="M1285 1260 L4043 1260" stroke="currentColor" stroke-width="13"/>
                        <g id="clef1_1" class="clef" visibility="hidden"/>
                        <g id="key1_1" class="keySig" visibility="hidden"/>
                        <g id="time1_1" class="meterSig">
                            <use xlink:href="#E086-1jiryvj" x="1361" y="720" height="720px" width="720px"/>
                            <use xlink:href="#E088-1jiryvj" x="1368" y="1080" height="720px" width="720px"/>
                        </g>
                        <g id="lda2dsz" class="layer">
                            <g id="rest1" class="rest">
                                <use xlink:href="#E4E6-1jiryvj" x="1920" y="900" height="720px" width="720px"/>
                            </g>
                            <g id="note1.tremolo_single" class="bTrem">
                                <use xlink:href="#E220-1jiryvj" x="2587" y="900" height="720px" width="720px" id="note1.tremolo_single.line1" class="bTrem_line"/>
                                <g id="note1" class="note">
                                    <g class="notehead" id="note1.notehead">
                                        <use xlink:href="#E0A4-1jiryvj" x="2370" y="1260" height="720px" width="720px"/>
                                    </g>
                                    <g id="note1.stem" class="stem">
                                        <path d="M2587 1232 L2587 630" stroke="currentColor" stroke-width="18"/>
                                    </g>
                                </g>
                            </g>
                            <g id="note2.tremolo_single" class="bTrem">
                                <use xlink:href="#E220-1jiryvj" x="3277" y="900" height="720px" width="720px" id="note2.tremolo_single.line1" class="bTrem_line"/>
                                <g id="note2" class="note">
                                    <g class="notehead" id="note2.notehead">
                                        <use xlink:href="#E0A4-1jiryvj" x="3060" y="1260" height="720px" width="720px"/>
                                    </g>
                                    <g id="note2.dots_parent" class="dots">
                                        <ellipse cx="3376" cy="1170" rx="36" ry="36" id="note2.dot1" class="single_dot"/>
                                    </g>
                                    <g id="note2.stem" class="stem">
                                        <path d="M3277 1232 L3277 630" stroke="currentColor" stroke-width="18"/>
                                    </g>
                                </g>
                            </g>
                        </g>
                    </g>
                    <g id="pP1_m1.right_barline" class="barLine">
                        <path id="pP1_m1.right_barline.barline_tok1" d="M4030 540 L4030 1260" stroke="currentColor" stroke-width="27" class="barline_tok"/>
                    </g>
                </g>
                <g id="pP1_m2" class="measure">
                    <g id="sf4ek5b" class="staff">
                        <path d="M4043 540 L5486 540" stroke="currentColor" stroke-width="13"/>
                        <path d="M4043 720 L5486 720" stroke="currentColor" stroke-width="13"/>
                        <path d="M4043 900 L5486 900" stroke="currentColor" stroke-width="13"/>
                        <path d="M4043 1080 L5486 1080" stroke="currentColor" stroke-width="13"/>
                        <path d="M4043 1260 L5486 1260" stroke="currentColor" stroke-width="13"/>
                        <g id="l1n3u6ur" class="layer">
                            <g id="pP1_m2.measure_repeat" class="mRpt">
                                <use xlink:href="#E500-1jiryvj" x="4569" y="900" height="720px" width="720px"/>
                                <use xlink:href="#E882-1jiryvj" x="4657" y="450" height="720px" width="720px"/>
                            </g>
                        </g>
                    </g>
                    <g id="pP1_m2.right_barline" class="barLine">
                        <path id="pP1_m2.right_barline.barline_tok1" d="M5473 540 L5473 1260" stroke="currentColor" stroke-width="27" class="barline_tok"/>
                    </g>
                </g>
                <g id="pP1_m3" class="measure">
                    <g id="s150341l" class="staff">
                        <path d="M5486 540 L6929 540" stroke="currentColor" stroke-width="13"/>
                        <path d="M5486 720 L6929 720" stroke="currentColor" stroke-width="13"/>
                        <path d="M5486 900 L6929 900" stroke="currentColor" stroke-width="13"/>
                        <path d="M5486 1080 L6929 1080" stroke="currentColor" stroke-width="13"/>
                        <path d="M5486 1260 L6929 1260" stroke="currentColor" stroke-width="13"/>
                        <g id="l1naui84" class="layer">
                            <g id="pP1_m3.measure_repeat" class="mRpt">
                                <use xlink:href="#E500-1jiryvj" x="6012" y="900" height="720px" width="720px"/>
                                <use xlink:href="#E883-1jiryvj" x="6102" y="450" height="720px" width="720px"/>
                            </g>
                        </g>
                    </g>
                    <g id="pP1_m3.right_barline" class="barLine">
                        <path id="pP1_m3.right_barline.barline_tok1" d="M6916 540 L6916 1260" stroke="currentColor" stroke-width="27" class="barline_tok"/>
                    </g>
                </g>
                <g id="pP1_m4" class="measure">
                    <g id="s15466lf" class="staff">
                        <path d="M6929 540 L9142 540" stroke="currentColor" stroke-width="13"/>
                        <path d="M6929 720 L9142 720" stroke="currentColor" stroke-width="13"/>
                        <path d="M6929 900 L9142 900" stroke="currentColor" stroke-width="13"/>
                        <path d="M6929 1080 L9142 1080" stroke="currentColor" stroke-width="13"/>
                        <path d="M6929 1260 L9142 1260" stroke="currentColor" stroke-width="13"/>
                        <g class="ledgerLines above">
                            <path d="M8201 360 L8523 360" stroke="currentColor" stroke-width="22"/>
                        </g>
                        <g id="lgdgvmf" class="layer">
                            <g id="rest4" class="rest">
                                <use xlink:href="#E4E6-1jiryvj" x="7109" y="900" height="720px" width="720px"/>
                            </g>
                            <g id="note7.tremolo_single" class="bTrem">
                                <use xlink:href="#E220-1jiryvj" x="7776" y="900" height="720px" width="720px" id="note7.tremolo_single.line1" class="bTrem_line"/>
                                <g id="note7" class="note">
                                    <g class="notehead" id="note7.notehead">
                                        <use xlink:href="#E0A4-1jiryvj" x="7559" y="1260" height="720px" width="720px"/>
                                    </g>
                                    <g id="note7.stem" class="stem">
                                        <path d="M7776 1232 L7776 630" stroke="currentColor" stroke-width="18"/>
                                    </g>
                                </g>
                            </g>
                            <g id="note8.tremolo_single" class="bTrem">
                                <use xlink:href="#E221-1jiryvj" x="8258" y="1323" height="720px" width="720px" id="note8.tremolo_single.line1" class="bTrem_line"/>
                                <g id="chord.note8_note9" class="chord">
                                    <g id="chord.note8_note9.dots_parent" class="dots">
                                        <ellipse cx="8565" cy="990" rx="36" ry="36" class="single_dot" id="note8.dot1"/>
                                        <ellipse cx="8565" cy="270" rx="36" ry="36" class="single_dot" id="note9.dot1"/>
                                    </g>
                                    <g id="chord.note8_note9.stem" class="stem">
                                        <path d="M8258 388 L8258 1560" stroke="currentColor" stroke-width="18"/>
                                    </g>
                                    <g id="note8" class="note">
                                        <g class="notehead" id="note8.notehead">
                                            <use xlink:href="#E0A4-1jiryvj" x="8249" y="990" height="720px" width="720px"/>
                                        </g>
                                    </g>
                                    <g id="note9" class="note">
                                        <g class="notehead" id="note9.notehead">
                                            <use xlink:href="#E0A4-1jiryvj" x="8249" y="360" height="720px" width="720px"/>
                                        </g>
                                    </g>
                                </g>
                            </g>
                        </g>
                    </g>
                    <g id="pP1_m4.right_barline" class="barLine">
                        <path id="pP1_m4.right_barline.barline_tok1" d="M9129 540 L9129 1260" stroke="currentColor" stroke-width="27" class="barline_tok"/>
                    </g>
                </g>
                <g id="pP1_m5" class="measure">
                    <g id="s1ttfwuy" class="staff">
                        <path d="M9142 540 L10675 540" stroke="currentColor" stroke-width="13"/>
                        <path d="M9142 720 L10675 720" stroke="currentColor" stroke-width="13"/>
                        <path d="M9142 900 L10675 900" stroke="currentColor" stroke-width="13"/>
                        <path d="M9142 1080 L10675 1080" stroke="currentColor" stroke-width="13"/>
                        <path d="M9142 1260 L10675 1260" stroke="currentColor" stroke-width="13"/>
                        <g class="ledgerLines above">
                            <path d="M9274 360 L9596 360" stroke="currentColor" stroke-width="22"/>
                        </g>
                        <g id="lelpfph" class="layer">
                            <g id="note10.tremolo_single" class="bTrem">
                                <use xlink:href="#E221-1jiryvj" x="9331" y="1323" height="720px" width="720px" id="note10.tremolo_single.line1" class="bTrem_line"/>
                                <g id="chord.note10_note11" class="chord">
                                    <g id="chord.note10_note11.dots_parent" class="dots">
                                        <ellipse cx="9638" cy="990" rx="36" ry="36" class="single_dot" id="note10.dot1"/>
                                        <ellipse cx="9638" cy="270" rx="36" ry="36" class="single_dot" id="note11.dot1"/>
                                    </g>
                                    <g id="chord.note10_note11.stem" class="stem">
                                        <path d="M9331 385 L9331 1560" stroke="currentColor" stroke-width="18"/>
                                    </g>
                                    <g id="note10" class="note">
                                        <g class="notehead" id="note10.notehead">
                                            <use xlink:href="#E0A3-1jiryvj" x="9322" y="990" height="720px" width="720px"/>
                                        </g>
                                    </g>
                                    <g id="note11" class="note">
                                        <g class="notehead" id="note11.notehead">
                                            <use xlink:href="#E0A3-1jiryvj" x="9322" y="360" height="720px" width="720px"/>
                                        </g>
                                    </g>
                                </g>
                            </g>
                        </g>
                    </g>
                    <g id="pP1_m5.right_barline" class="barLine">
                        <path id="pP1_m5.right_barline.barline_tok1" d="M10662 540 L10662 1260" stroke="currentColor" stroke-width="27" class="barline_tok"/>
                    </g>
                </g>
                <g id="pP1_m6" class="measure">
                    <g id="s1i3y5du" class="staff">
                        <path d="M10675 540 L13238 540" stroke="currentColor" stroke-width="13"/>
                        <path d="M10675 720 L13238 720" stroke="currentColor" stroke-width="13"/>
                        <path d="M10675 900 L13238 900" stroke="currentColor" stroke-width="13"/>
                        <path d="M10675 1080 L13238 1080" stroke="currentColor" stroke-width="13"/>
                        <path d="M10675 1260 L13238 1260" stroke="currentColor" stroke-width="13"/>
                        <g id="l1oomo1f" class="layer">
                            <g id="note12.tremolo_single" class="bTrem">
                                <use xlink:href="#E220-1jiryvj" x="11072" y="720" height="720px" width="720px" id="note12.tremolo_single.line1" class="bTrem_line"/>
                                <g id="note12" class="note">
                                    <g class="notehead" id="note12.notehead">
                                        <use xlink:href="#E0A4-1jiryvj" x="10855" y="990" height="720px" width="720px"/>
                                    </g>
                                    <g id="note12.stem" class="stem">
                                        <path d="M11072 962 L11072 360" stroke="currentColor" stroke-width="18"/>
                                        <g id="note12.stem.flag" class="flag">
                                            <use xlink:href="#E240-1jiryvj" x="11063" y="360" height="720px" width="720px"/>
                                        </g>
                                    </g>
                                </g>
                            </g>
                            <g id="note13.tremolo_single" class="bTrem">
                                <use xlink:href="#E220-1jiryvj" x="11522" y="900" height="720px" width="720px" id="note13.tremolo_single.line1" class="bTrem_line"/>
                                <g id="note13" class="note">
                                    <g class="notehead" id="note13.notehead">
                                        <use xlink:href="#E0A4-1jiryvj" x="11305" y="1260" height="720px" width="720px"/>
                                    </g>
                                    <g id="note13.stem" class="stem">
                                        <path d="M11522 1232 L11522 630" stroke="currentColor" stroke-width="18"/>
                                    </g>
                                </g>
                            </g>
                            <g id="rest5" class="rest">
                                <use xlink:href="#E4E6-1jiryvj" x="11995" y="900" height="720px" width="720px"/>
                            </g>
                            <g id="note14.tremolo_single" class="bTrem">
                                <use xlink:href="#E220-1jiryvj" x="12662" y="900" height="720px" width="720px" id="note14.tremolo_single.line1" class="bTrem_line"/>
                                <g id="note14" class="note">
                                    <g class="notehead" id="note14.notehead">
                                        <use xlink:href="#E0A4-1jiryvj" x="12445" y="1260" height="720px" width="720px"/>
                                    </g>
                                    <g id="note14.stem" class="stem">
                                        <path d="M12662 1232 L12662 630" stroke="currentColor" stroke-width="18"/>
                                    </g>
                                </g>
                            </g>
                        </g>
                    </g>
                    <g id="pP1_m6.right_barline" class="barLine">
                        <path id="pP1_m6.right_barline.barline_tok1" d="M13225 540 L13225 1260" stroke="currentColor" stroke-width="27" class="barline_tok"/>
                    </g>
                </g>
                <g id="pP1_m7" class="measure">
                    <g id="s10o8wys" class="staff">
                        <path d="M13238 540 L15711 540" stroke="currentColor" stroke-width="13"/>
                        <path d="M13238 720 L15711 720" stroke="currentColor" stroke-width="13"/>
                        <path d="M13238 900 L15711 900" stroke="currentColor" stroke-width="13"/>
                        <path d="M13238 1080 L15711 1080" stroke="currentColor" stroke-width="13"/>
                        <path d="M13238 1260 L15711 1260" stroke="currentColor" stroke-width="13"/>
                        <g id="l3ou6da" class="layer">
                            <g id="note15" class="note">
                                <g class="notehead" id="note15.notehead">
                                    <use xlink:href="#E0A4-1jiryvj" x="13418" y="1260" height="720px" width="720px"/>
                                </g>
                                <g id="note15.stem" class="stem">
                                    <path d="M13635 1232 L13635 630" stroke="currentColor" stroke-width="18"/>
                                </g>
                            </g>
                            <g id="rest6" class="rest">
                                <use xlink:href="#E4E6-1jiryvj" x="14108" y="900" height="720px" width="720px"/>
                            </g>
                            <g id="chord.note16_note17" class="chord">
                                <g id="chord.note16_note17.stem" class="stem">
                                    <path d="M14775 1232 L14775 240" stroke="currentColor" stroke-width="18"/>
                                </g>
                                <g id="note16" class="note">
                                    <g class="notehead" id="note16.notehead">
                                        <use xlink:href="#E0A4-1jiryvj" x="14558" y="1260" height="720px" width="720px"/>
                                    </g>
                                </g>
                                <g id="note17" class="note">
                                    <g class="notehead" id="note17.notehead">
                                        <use xlink:href="#E0A4-1jiryvj" x="14558" y="810" height="720px" width="720px"/>
                                    </g>
                                    <g id="note17.accidental" class="accid"/>
                                </g>
                            </g>
                            <g id="rest7" class="rest">
                                <use xlink:href="#E4E6-1jiryvj" x="15248" y="900" height="720px" width="720px"/>
                            </g>
                        </g>
                    </g>
                    <g id="pP1_m7.right_barline" class="barLine">
                        <path id="pP1_m7.right_barline.barline_tok1" d="M15698 540 L15698 1260" stroke="currentColor" stroke-width="27" class="barline_tok"/>
                    </g>
                </g>
                <g id="pP1_m8" class="measure">
                    <g id="snjywfg" class="staff">
                        <path d="M15711 540 L17343 540" stroke="currentColor" stroke-width="13"/>
                        <path d="M15711 720 L17343 720" stroke="currentColor" stroke-width="13"/>
                        <path d="M15711 900 L17343 900" stroke="currentColor" stroke-width="13"/>
                        <path d="M15711 1080 L17343 1080" stroke="currentColor" stroke-width="13"/>
                        <path d="M15711 1260 L17343 1260" stroke="currentColor" stroke-width="13"/>
                        <g id="l1br41ud" class="layer">
                            <g id="chord.note18_note19" class="chord">
                                <g id="chord.note18_note19.dots_parent" class="dots">
                                    <ellipse cx="16207" cy="990" rx="36" ry="36" class="single_dot" id="note18.dot1"/>
                                    <ellipse cx="16207" cy="630" rx="36" ry="36" class="single_dot" id="note19.dot1"/>
                                </g>
                                <g id="chord.note18_note19.stem" class="stem">
                                    <path d="M15900 655 L15900 1560" stroke="currentColor" stroke-width="18"/>
                                </g>
                                <g id="note18" class="note">
                                    <g class="notehead" id="note18.notehead">
                                        <use xlink:href="#E0A3-1jiryvj" x="15891" y="990" height="720px" width="720px"/>
                                    </g>
                                </g>
                                <g id="note19" class="note">
                                    <g class="notehead" id="note19.notehead">
                                        <use xlink:href="#E0A3-1jiryvj" x="15891" y="630" height="720px" width="720px"/>
                                    </g>
                                </g>
                            </g>
                        </g>
                    </g>
                    <g id="barline1" class="barLine">
                        <path id="barline1.barline_tok1" d="M17231 540 L17231 1260" stroke="currentColor" stroke-width="27" class="barline_tok"/>
                        <path id="barline1.barline_tok2" d="M17330 540 L17330 1260" stroke="currentColor" stroke-width="27" class="barline_tok"/>
                    </g>
                </g>
                <g id="stmyxpm" class="systemMilestoneEnd s1wqokr2"/>
            </g>
            <g id="p1e3xqdz" class="pageMilestoneEnd s1lzrbfg"/>
            <g id="pdog1mt" class="pageMilestoneEnd mp2vrt3"/>
        </g>
    </svg>
</svg>