<svg xmlns="http://www.w3.org/2000/svg" xmlns:xlink="http://www.w3.org/1999/xlink" xmlns:mei="http://www.music-encoding.org/ns/mei" width="1973px" height="280px" version="1.1" overflow="visible">
    <desc>Engraved by Verovio 4.3.0-dev-ba68db3-dirty</desc>
    <defs>
        <symbol id="E0A3-1i6vr39" viewBox="0 0 1000 1000" overflow="inherit">
            <path transform="scale(1,-1)" d="M278 64c0 22 -17 39 -43 39c-12 0 -26 -3 -41 -10c-85 -43 -165 -94 -165 -156c5 -25 15 -32 49 -32c67 11 200 95 200 159zM0 -36c0 68 73 174 200 174c66 0 114 -39 114 -97c0 -84 -106 -173 -218 -173c-64 0 -96 32 -96 96z"/>
        </symbol>
        <symbol id="E082-1i6vr39" viewBox="0 0 1000 1000" overflow="inherit">
            <path transform="scale(1,-1)" d="M124 -185c-18 0 -55 -14 -65 -65h-36l-3 30c0 25 6 45 18 63c11 19 22 30 39 43l121 82l37 29c15 11 27 29 38 54c12 24 18 47 18 70c0 40 -19 88 -94 88c-25 0 -32 0 -50 -8c-14 -5 -23 -12 -26 -22c3 -9 7 -15 10 -18l24 -17c12 -7 17 -11 27 -21c5 -7 7 -16 7 -27 c0 -12 0 -57 -79 -74c-30 0 -76 26 -76 94c0 66 81 135 197 135c72 0 181 -32 181 -150c0 -53 -32 -95 -113 -133l-91 -41c-26 -11 -45 -23 -57 -37l49 7c84 0 115 -41 148 -41c20 0 33 20 39 61h35c0 -152 -68 -168 -114 -168c-17 0 -65 0 -79 7h10l-28 17 c-49 37 -69 40 -87 42z"/>
        </symbol>
        <symbol id="E084-1i6vr39" viewBox="0 0 1000 1000" overflow="inherit">
            <path transform="scale(1,-1)" d="M20 -78c84 97 114 180 134 329h170c-13 -32 -82 -132 -99 -151l-84 -97c-33 -36 -59 -63 -80 -81h162v102l127 123v-225h57v-39h-57v-34c0 -43 19 -65 57 -65v-34h-244v36c48 0 60 26 60 70v27h-203v39z"/>
        </symbol>
        <symbol id="E0A4-1i6vr39" viewBox="0 0 1000 1000" overflow="inherit">
            <path transform="scale(1,-1)" d="M0 -39c0 68 73 172 200 172c66 0 114 -37 114 -95c0 -84 -106 -171 -218 -171c-64 0 -96 30 -96 94z"/>
        </symbol>
        <symbol id="E262-1i6vr39" viewBox="0 0 1000 1000" overflow="inherit">
            <path transform="scale(1,-1)" d="M136 186v169h17v-164l44 14v-91l-44 -14v-165l44 12v-91l-44 -13v-155h-17v150l-76 -22v-155h-17v149l-43 -13v90l43 14v167l-43 -14v92l43 13v169h17v-163zM60 73v-167l76 22v168z"/>
        </symbol>
        <symbol id="E240-1i6vr39" viewBox="0 0 1000 1000" overflow="inherit">
            <path transform="scale(1,-1)" d="M179 -646c15 29 29 55 46 102c18 49 30 108 30 138c0 105 -80 173 -168 200c-18 5 -47 9 -87 16v190h22c8 0 33 -61 71 -95c4 -3 -2 3 61 -56c62 -58 122 -137 122 -241c0 -38 -13 -106 -35 -163c-20 -51 -43 -99 -66 -132c-6 -5 -10 -7 -13 -7s-5 2 -5 5l4 10 c1 3 14 25 18 33z"/>
        </symbol>
        <symbol id="E241-1i6vr39" viewBox="0 0 1000 1000" overflow="inherit">
            <path transform="scale(1,-1)" d="M179 646c-4 8 -17 30 -18 33l-4 10c0 3 2 5 5 5s7 -2 13 -7c23 -33 46 -81 66 -132c22 -57 35 -125 35 -163c0 -104 -60 -183 -122 -241c-63 -59 -57 -53 -61 -56c-38 -34 -63 -95 -71 -95h-22v190c40 7 69 11 87 16c88 27 168 95 168 200c0 30 -12 89 -30 138 c-17 47 -31 73 -46 102z"/>
        </symbol>
        <symbol id="E4E6-1i6vr39" viewBox="0 0 1000 1000" overflow="inherit">
            <path transform="scale(1,-1)" d="M0 123c7 34 33 56 69 60c29 -3 43 -9 53 -29c4 -8 7 -15 10 -22c0 -21 -1 -25 -11 -35c-5 -8 -18 -14 -40 -20l12 -3l15 -1c44 0 97 26 122 56c10 11 18 26 24 42c7 1 15 2 22 3l-140 -424h-36l111 330c-10 -6 -27 -12 -53 -16l-52 -8h-10l-20 1c-1 0 -8 3 -21 6 c-37 9 -55 28 -55 60z"/>
        </symbol>
        <symbol id="E220-1i6vr39" viewBox="0 0 1000 1000" overflow="inherit">
            <path transform="scale(1,-1)" d="M-163 -25l326 150v-100l-326 -150v100z"/>
        </symbol>
        <symbol id="E221-1i6vr39" viewBox="0 0 1000 1000" overflow="inherit">
            <path transform="scale(1,-1)" d="M-163 -112l326 150v-100l-326 -150v100zM-163 63l326 150v-100l-326 -150v100z"/>
        </symbol>
    </defs>
    <style type="text/css">g.page-margin{font-family:Times,serif;} g.ending, g.fing, g.reh, g.tempo{font-weight:bold;} g.dir, g.dynam, g.mNum{font-style:italic;} g.label{font-weight:normal;}</style>
    <svg class="definition-scale" color="black" viewBox="0 0 19730 2800">
        <g class="page-margin" transform="translate(500, 500)">
            <g id="m1thz09w" class="mdiv pageMilestone"/>
            <g id="s1is1zsk" class="score pageMilestone"/>
            <g id="s2d8rzx" class="system">
                <g id="l8qjgs4" class="label">
                    <text x="1105" y="990" text-anchor="end" font-size="0px">
                        <tspan id="t1k4eaju" class="text">
                            <tspan font-size="405px">Piano</tspan>
                        </tspan>
                    </text>
                </g>
                <g id="s175477u" class="section systemMilestone"/>
                <g id="pP1_m1" class="measure">
                    <g id="s1l69tyg" class="staff">
                        <path d="M1285 540 L2997 540" stroke="currentColor" stroke-width="13"/>
                        <path d="M1285 720 L2997 720" stroke="currentColor" stroke-width="13"/>
                        <path d="M1285 900 L2997 900" stroke="currentColor" stroke-width="13"/>
                        <path d="M1285 1080 L2997 1080" stroke="currentColor" stroke-width="13"/>
                        <path d="M1285 1260 L2997 1260" stroke="currentColor" stroke-width="13"/>
                        <g id="clef1_1" class="clef" visibility="hidden"/>
                        <g id="key1_1" class="keySig" visibility="hidden"/>
                        <g id="time1_1" class="meterSig">
                            <use xlink:href="#E082-1i6vr39" x="1361" y="720" height="720px" width="720px"/>
                            <use xlink:href="#E084-1i6vr39" x="1366" y="1080" height="720px" width="720px"/>
                        </g>
                        <g id="ligvdin" class="layer">
                            <g id="note1.tremolo_single" class="bTrem">
                                <use xlink:href="#E221-1i6vr39" x="1943" y="1323" height="720px" width="720px" id="note1.tremolo_single.line1" class="bTrem_line"/>
                                <g id="chord.note1_note2" class="chord">
                                    <g id="chord.note1_note2.stem" class="stem">
                                        <path d="M1943 655 L1943 1545" stroke="currentColor" stroke-width="18"/>
                                    </g>
                                    <g id="note1" class="note">
                                        <g class="notehead" id="note1.notehead">
                                            <use xlink:href="#E0A3-1i6vr39" x="1934" y="900" height="720px" width="720px"/>
                                        </g>
                                    </g>
                                    <g id="note2" class="note">
                                        <g class="notehead" id="note2.notehead">
                                            <use xlink:href="#E0A3-1i6vr39" x="1934" y="630" height="720px" width="720px"/>
                                        </g>
                                    </g>
                                </g>
                            </g>
                        </g>
                    </g>
                    <g id="pP1_m1.right_barline" class="barLine">
                        <path id="pP1_m1.right_barline.barline_tok1" d="M2984 540 L2984 1260" stroke="currentColor" stroke-width="27" class="barline_tok"/>
                    </g>
                </g>
                <g id="pP1_m2" class="measure">
                    <g id="s1dlbbau" class="staff">
                        <path d="M2997 540 L4780 540" stroke="currentColor" stroke-width="13"/>
                        <path d="M2997 720 L4780 720" stroke="currentColor" stroke-width="13"/>
                        <path d="M2997 900 L4780 900" stroke="currentColor" stroke-width="13"/>
                        <path d="M2997 1080 L4780 1080" stroke="currentColor" stroke-width="13"/>
                        <path d="M2997 1260 L4780 1260" stroke="currentColor" stroke-width="13"/>
                        <g id="lkrqeha" class="layer">
                            <g id="note3.tremolo_single" class="bTrem">
                                <use xlink:href="#E221-1i6vr39" x="3186" y="1323" height="720px" width="720px" id="note3.tremolo_single.line1" class="bTrem_line"/>
                                <g id="chord.note3_note4" class="chord">
                                    <g id="chord.note3_note4.stem" class="stem">
                                        <path d="M3186 658 L3186 1545" stroke="currentColor" stroke-width="18"/>
                                    </g>
                                    <g id="note3" class="note">
                                        <g class="notehead" id="note3.notehead">
                                            <use xlink:href="#E0A4-1i6vr39" x="3177" y="900" height="720px" width="720px"/>
                                        </g>
                                    </g>
                                    <g id="note4" class="note">
                                        <g class="notehead" id="note4.notehead">
                                            <use xlink:href="#E0A4-1i6vr39" x="3177" y="630" height="720px" width="720px"/>
                                        </g>
                                    </g>
                                </g>
                            </g>
                            <g id="chord.note5_note6" class="chord">
                                <g id="chord.note5_note6.stem" class="stem">
                                    <path d="M3876 658 L3876 1500" stroke="currentColor" stroke-width="18"/>
                                    <g id="chord.note5_note6.stem.flag" class="flag">
                                        <use xlink:href="#E241-1i6vr39" x="3867" y="1500" height="720px" width="720px"/>
                                    </g>
                                </g>
                                <g id="note5" class="note">
                                    <g class="notehead" id="note5.notehead">
                                        <use xlink:href="#E0A4-1i6vr39" x="3867" y="900" height="720px" width="720px"/>
                                    </g>
                                </g>
                                <g id="note6" class="note">
                                    <g class="notehead" id="note6.notehead">
                                        <use xlink:href="#E0A4-1i6vr39" x="3867" y="630" height="720px" width="720px"/>
                                    </g>
                                </g>
                            </g>
                            <g id="rest1" class="rest">
                                <use xlink:href="#E4E6-1i6vr39" x="4317" y="900" height="720px" width="720px"/>
                            </g>
                        </g>
                    </g>
                    <g id="pP1_m2.right_barline" class="barLine">
                        <path id="pP1_m2.right_barline.barline_tok1" d="M4767 540 L4767 1260" stroke="currentColor" stroke-width="27" class="barline_tok"/>
                    </g>
                </g>
                <g id="pP1_m3" class="measure">
                    <g id="s4em0h8" class="staff">
                        <path d="M4780 540 L6209 540" stroke="currentColor" stroke-width="13"/>
                        <path d="M4780 720 L6209 720" stroke="currentColor" stroke-width="13"/>
                        <path d="M4780 900 L6209 900" stroke="currentColor" stroke-width="13"/>
                        <path d="M4780 1080 L6209 1080" stroke="currentColor" stroke-width="13"/>
                        <path d="M4780 1260 L6209 1260" stroke="currentColor" stroke-width="13"/>
                        <g class="ledgerLines below">
                            <path d="M5098 1440 L5420 1440" stroke="currentColor" stroke-width="22"/>
                        </g>
                        <g id="l16w9djg" class="layer">
                            <g id="note7.tremolo_single" class="bTrem">
                                <use xlink:href="#E220-1i6vr39" x="5363" y="720" height="720px" width="720px" id="note7.tremolo_single.line1" class="bTrem_line"/>
                                <g id="chord.note7_note8" class="chord">
                                    <g id="chord.note7_note8.stem" class="stem">
                                        <path d="M5363 1502 L5363 450" stroke="currentColor" stroke-width="18"/>
                                    </g>
                                    <g id="note7" class="note">
                                        <g class="notehead" id="note7.notehead">
                                            <use xlink:href="#E0A3-1i6vr39" x="5146" y="1530" height="720px" width="720px"/>
                                        </g>
                                    </g>
                                    <g id="note8" class="note">
                                        <g class="notehead" id="note8.notehead">
                                            <use xlink:href="#E0A3-1i6vr39" x="5146" y="1080" height="720px" width="720px"/>
                                        </g>
                                        <g id="note8.accidental" class="accid">
                                            <use xlink:href="#E262-1i6vr39" x="4960" y="1080" height="720px" width="720px"/>
                                        </g>
                                    </g>
                                </g>
                            </g>
                        </g>
                    </g>
                    <g id="pP1_m3.right_barline" class="barLine">
                        <path id="pP1_m3.right_barline.barline_tok1" d="M6196 540 L6196 1260" stroke="currentColor" stroke-width="27" class="barline_tok"/>
                    </g>
                </g>
                <g id="pP1_m4" class="measure">
                    <g id="s1ebqtni" class="staff">
                        <path d="M6209 540 L8626 540" stroke="currentColor" stroke-width="13"/>
                        <path d="M6209 720 L8626 720" stroke="currentColor" stroke-width="13"/>
                        <path d="M6209 900 L8626 900" stroke="currentColor" stroke-width="13"/>
                        <path d="M6209 1080 L8626 1080" stroke="currentColor" stroke-width="13"/>
                        <path d="M6209 1260 L8626 1260" stroke="currentColor" stroke-width="13"/>
                        <g class="ledgerLines below">
                            <path d="M6341 1440 L6663 1440" stroke="currentColor" stroke-width="22"/>
                        </g>
                        <g id="l3nyhme" class="layer">
                            <g id="chord.note9_note10" class="chord">
                                <g id="chord.note9_note10.stem" class="stem">
                                    <path d="M6606 1412 L6606 360" stroke="currentColor" stroke-width="18"/>
                                    <g id="chord.note9_note10.stem.flag" class="flag">
                                        <use xlink:href="#E240-1i6vr39" x="6597" y="360" height="720px" width="720px"/>
                                    </g>
                                </g>
                                <g id="note9" class="note">
                                    <g class="notehead" id="note9.notehead">
                                        <use xlink:href="#E0A4-1i6vr39" x="6389" y="1440" height="720px" width="720px"/>
                                    </g>
                                    <g id="note9.accidental" class="accid"/>
                                </g>
                                <g id="note10" class="note">
                                    <g class="notehead" id="note10.notehead">
                                        <use xlink:href="#E0A4-1i6vr39" x="6389" y="990" height="720px" width="720px"/>
                                    </g>
                                </g>
                            </g>
                            <g id="beam1_parent" class="beam_parent">
                                <polygon points="6885,1485 7219,1440 7219,1350 6885,1395" id="beam1" class="beam"/>
                                <polygon points="6885,1350 7219,1305 7219,1215 6885,1260" id="beam2" class="beam"/>
                                <g id="note11" class="note">
                                    <g class="notehead" id="note11.notehead">
                                        <use xlink:href="#E0A4-1i6vr39" x="6885" y="810" height="720px" width="720px"/>
                                    </g>
                                    <g id="note11.stem" class="stem">
                                        <path d="M6894 838 L6894 1467" stroke="currentColor" stroke-width="18"/>
                                    </g>
                                    <g id="note11.accidental" class="accid"/>
                                </g>
                                <g id="note12" class="note">
                                    <g class="notehead" id="note12.notehead">
                                        <use xlink:href="#E0A4-1i6vr39" x="7201" y="720" height="720px" width="720px"/>
                                    </g>
                                    <g id="note12.stem" class="stem">
                                        <path d="M7210 748 L7210 1422" stroke="currentColor" stroke-width="18"/>
                                    </g>
                                </g>
                            </g>
                            <g id="beam3_parent" class="beam_parent">
                                <polygon points="7517,1440 8301,1440 8301,1350 7517,1350" id="beam3" class="beam"/>
                                <polygon points="7976,1305 8301,1305 8301,1215 7976,1215" id="beam4" class="beam"/>
                                <g id="note13" class="note">
                                    <g class="notehead" id="note13.notehead">
                                        <use xlink:href="#E0A4-1i6vr39" x="7517" y="630" height="720px" width="720px"/>
                                    </g>
                                    <g id="note13.stem" class="stem">
                                        <path d="M7526 658 L7526 1422" stroke="currentColor" stroke-width="18"/>
                                    </g>
                                </g>
                                <g id="note14" class="note">
                                    <g class="notehead" id="note14.notehead">
                                        <use xlink:href="#E0A4-1i6vr39" x="7967" y="810" height="720px" width="720px"/>
                                    </g>
                                    <g id="note14.stem" class="stem">
                                        <path d="M7976 838 L7976 1422" stroke="currentColor" stroke-width="18"/>
                                    </g>
                                    <g id="note14.accidental" class="accid"/>
                                </g>
                                <g id="note15" class="note">
                                    <g class="notehead" id="note15.notehead">
                                        <use xlink:href="#E0A4-1i6vr39" x="8283" y="720" height="720px" width="720px"/>
                                    </g>
                                    <g id="note15.stem" class="stem">
                                        <path d="M8292 748 L8292 1422" stroke="currentColor" stroke-width="18"/>
                                    </g>
                                </g>
                            </g>
                        </g>
                    </g>
                    <g id="pP1_m4.right_barline" class="barLine">
                        <path id="pP1_m4.right_barline.barline_tok1" d="M8613 540 L8613 1260" stroke="currentColor" stroke-width="27" class="barline_tok"/>
                    </g>
                </g>
                <g id="pP1_m5" class="measure">
                    <g id="smlnepq" class="staff">
                        <path d="M8626 540 L11179 540" stroke="currentColor" stroke-width="13"/>
                        <path d="M8626 720 L11179 720" stroke="currentColor" stroke-width="13"/>
                        <path d="M8626 900 L11179 900" stroke="currentColor" stroke-width="13"/>
                        <path d="M8626 1080 L11179 1080" stroke="currentColor" stroke-width="13"/>
                        <path d="M8626 1260 L11179 1260" stroke="currentColor" stroke-width="13"/>
                        <g id="l72aw5p" class="layer">
                            <g id="beam5_parent" class="beam_parent">
                                <polygon points="8806,1440 9590,1440 9590,1350 8806,1350" id="beam5" class="beam"/>
                                <polygon points="9265,1305 9590,1305 9590,1215 9265,1215" id="beam6" class="beam"/>
                                <g id="note16" class="note">
                                    <g class="notehead" id="note16.notehead">
                                        <use xlink:href="#E0A4-1i6vr39" x="8806" y="630" height="720px" width="720px"/>
                                    </g>
                                    <g id="note16.stem" class="stem">
                                        <path d="M8815 658 L8815 1422" stroke="currentColor" stroke-width="18"/>
                                    </g>
                                </g>
                                <g id="note17" class="note">
                                    <g class="notehead" id="note17.notehead">
                                        <use xlink:href="#E0A4-1i6vr39" x="9256" y="810" height="720px" width="720px"/>
                                    </g>
                                    <g id="note17.stem" class="stem">
                                        <path d="M9265 838 L9265 1422" stroke="currentColor" stroke-width="18"/>
                                    </g>
                                    <g id="note17.accidental" class="accid"/>
                                </g>
                                <g id="note18" class="note">
                                    <g class="notehead" id="note18.notehead">
                                        <use xlink:href="#E0A4-1i6vr39" x="9572" y="720" height="720px" width="720px"/>
                                    </g>
                                    <g id="note18.stem" class="stem">
                                        <path d="M9581 748 L9581 1422" stroke="currentColor" stroke-width="18"/>
                                    </g>
                                </g>
                            </g>
                            <g id="beam7_parent" class="beam_parent">
                                <polygon points="9888,1440 10854,1440 10854,1350 9888,1350" id="beam7" class="beam"/>
                                <polygon points="9888,1305 10854,1305 10854,1215 9888,1215" id="beam8" class="beam"/>
                                <g id="note19" class="note">
                                    <g class="notehead" id="note19.notehead">
                                        <use xlink:href="#E0A4-1i6vr39" x="9888" y="630" height="720px" width="720px"/>
                                    </g>
                                    <g id="note19.stem" class="stem">
                                        <path d="M9897 658 L9897 1422" stroke="currentColor" stroke-width="18"/>
                                    </g>
                                </g>
                                <g id="note20" class="note">
                                    <g class="notehead" id="note20.notehead">
                                        <use xlink:href="#E0A4-1i6vr39" x="10204" y="810" height="720px" width="720px"/>
                                    </g>
                                    <g id="note20.stem" class="stem">
                                        <path d="M10213 838 L10213 1422" stroke="currentColor" stroke-width="18"/>
                                    </g>
                                    <g id="note20.accidental" class="accid"/>
                                </g>
                                <g id="note21" class="note">
                                    <g class="notehead" id="note21.notehead">
                                        <use xlink:href="#E0A4-1i6vr39" x="10520" y="720" height="720px" width="720px"/>
                                    </g>
                                    <g id="note21.stem" class="stem">
                                        <path d="M10529 748 L10529 1422" stroke="currentColor" stroke-width="18"/>
                                    </g>
                                </g>
                                <g id="note22" class="note">
                                    <g class="notehead" id="note22.notehead">
                                        <use xlink:href="#E0A4-1i6vr39" x="10836" y="630" height="720px" width="720px"/>
                                    </g>
                                    <g id="note22.stem" class="stem">
                                        <path d="M10845 658 L10845 1422" stroke="currentColor" stroke-width="18"/>
                                    </g>
                                </g>
                            </g>
                        </g>
                    </g>
                    <g id="pP1_m5.right_barline" class="barLine">
                        <path id="pP1_m5.right_barline.barline_tok1" d="M11166 540 L11166 1260" stroke="currentColor" stroke-width="27" class="barline_tok"/>
                    </g>
                </g>
                <g id="pP1_m6" class="measure">
                    <g id="s1n7ayl1" class="staff">
                        <path d="M11179 540 L13598 540" stroke="currentColor" stroke-width="13"/>
                        <path d="M11179 720 L13598 720" stroke="currentColor" stroke-width="13"/>
                        <path d="M11179 900 L13598 900" stroke="currentColor" stroke-width="13"/>
                        <path d="M11179 1080 L13598 1080" stroke="currentColor" stroke-width="13"/>
                        <path d="M11179 1260 L13598 1260" stroke="currentColor" stroke-width="13"/>
                        <g id="l1lut6bs" class="layer">
                            <g id="beam9_parent" class="beam_parent">
                                <polygon points="11359,1305 12167,1305 12167,1215 11359,1215" id="beam9" class="beam"/>
                                <polygon points="11842,1170 12167,1170 12167,1080 11842,1080" id="beam10" class="beam"/>
                                <g id="note23" class="note">
                                    <g class="notehead" id="note23.notehead">
                                        <use xlink:href="#E0A4-1i6vr39" x="11359" y="540" height="720px" width="720px"/>
                                    </g>
                                    <g id="note23.stem" class="stem">
                                        <path d="M11368 568 L11368 1287" stroke="currentColor" stroke-width="18"/>
                                    </g>
                                    <g id="note23.accidental" class="accid"/>
                                </g>
                                <g id="note24" class="note">
                                    <g class="notehead" id="note24.notehead">
                                        <use xlink:href="#E0A4-1i6vr39" x="11833" y="720" height="720px" width="720px"/>
                                    </g>
                                    <g id="note24.stem" class="stem">
                                        <path d="M11842 748 L11842 1287" stroke="currentColor" stroke-width="18"/>
                                    </g>
                                    <g id="note24.accidental" class="accid">
                                        <use xlink:href="#E262-1i6vr39" x="11647" y="720" height="720px" width="720px"/>
                                    </g>
                                </g>
                                <g id="note25" class="note">
                                    <g class="notehead" id="note25.notehead">
                                        <use xlink:href="#E0A4-1i6vr39" x="12149" y="630" height="720px" width="720px"/>
                                    </g>
                                    <g id="note25.stem" class="stem">
                                        <path d="M12158 658 L12158 1287" stroke="currentColor" stroke-width="18"/>
                                    </g>
                                </g>
                            </g>
                            <g id="beam11_parent" class="beam_parent">
                                <polygon points="12465,1305 13273,1305 13273,1215 12465,1215" id="beam11" class="beam"/>
                                <polygon points="12948,1170 13273,1170 13273,1080 12948,1080" id="beam12" class="beam"/>
                                <g id="note26" class="note">
                                    <g class="notehead" id="note26.notehead">
                                        <use xlink:href="#E0A4-1i6vr39" x="12465" y="540" height="720px" width="720px"/>
                                    </g>
                                    <g id="note26.stem" class="stem">
                                        <path d="M12474 568 L12474 1287" stroke="currentColor" stroke-width="18"/>
                                    </g>
                                    <g id="note26.accidental" class="accid"/>
                                </g>
                                <g id="note27" class="note">
                                    <g class="notehead" id="note27.notehead">
                                        <use xlink:href="#E0A4-1i6vr39" x="12939" y="720" height="720px" width="720px"/>
                                    </g>
                                    <g id="note27.stem" class="stem">
                                        <path d="M12948 748 L12948 1287" stroke="currentColor" stroke-width="18"/>
                                    </g>
                                    <g id="note27.accidental" class="accid">
                                        <use xlink:href="#E262-1i6vr39" x="12753" y="720" height="720px" width="720px"/>
                                    </g>
                                </g>
                                <g id="note28" class="note">
                                    <g class="notehead" id="note28.notehead">
                                        <use xlink:href="#E0A4-1i6vr39" x="13255" y="630" height="720px" width="720px"/>
                                    </g>
                                    <g id="note28.stem" class="stem">
                                        <path d="M13264 658 L13264 1287" stroke="currentColor" stroke-width="18"/>
                                    </g>
                                </g>
                            </g>
                        </g>
                    </g>
                    <g id="pP1_m6.right_barline" class="barLine">
                        <path id="pP1_m6.right_barline.barline_tok1" d="M13585 540 L13585 1260" stroke="currentColor" stroke-width="27" class="barline_tok"/>
                    </g>
                </g>
                <g id="pP1_m7" class="measure">
                    <g id="samuls" class="staff">
                        <path d="M13598 540 L16175 540" stroke="currentColor" stroke-width="13"/>
                        <path d="M13598 720 L16175 720" stroke="currentColor" stroke-width="13"/>
                        <path d="M13598 900 L16175 900" stroke="currentColor" stroke-width="13"/>
                        <path d="M13598 1080 L16175 1080" stroke="currentColor" stroke-width="13"/>
                        <path d="M13598 1260 L16175 1260" stroke="currentColor" stroke-width="13"/>
                        <g id="lkqlozv" class="layer">
                            <g id="beam13_parent" class="beam_parent">
                                <polygon points="13778,1305 14586,1305 14586,1215 13778,1215" id="beam13" class="beam"/>
                                <polygon points="14261,1170 14586,1170 14586,1080 14261,1080" id="beam14" class="beam"/>
                                <g id="note29" class="note">
                                    <g class="notehead" id="note29.notehead">
                                        <use xlink:href="#E0A4-1i6vr39" x="13778" y="540" height="720px" width="720px"/>
                                    </g>
                                    <g id="note29.stem" class="stem">
                                        <path d="M13787 568 L13787 1287" stroke="currentColor" stroke-width="18"/>
                                    </g>
                                    <g id="note29.accidental" class="accid"/>
                                </g>
                                <g id="note30" class="note">
                                    <g class="notehead" id="note30.notehead">
                                        <use xlink:href="#E0A4-1i6vr39" x="14252" y="720" height="720px" width="720px"/>
                                    </g>
                                    <g id="note30.stem" class="stem">
                                        <path d="M14261 748 L14261 1287" stroke="currentColor" stroke-width="18"/>
                                    </g>
                                    <g id="note30.accidental" class="accid">
                                        <use xlink:href="#E262-1i6vr39" x="14066" y="720" height="720px" width="720px"/>
                                    </g>
                                </g>
                                <g id="note31" class="note">
                                    <g class="notehead" id="note31.notehead">
                                        <use xlink:href="#E0A4-1i6vr39" x="14568" y="630" height="720px" width="720px"/>
                                    </g>
                                    <g id="note31.stem" class="stem">
                                        <path d="M14577 658 L14577 1287" stroke="currentColor" stroke-width="18"/>
                                    </g>
                                </g>
                            </g>
                            <g id="beam15_parent" class="beam_parent">
                                <polygon points="14884,1305 15850,1305 15850,1215 14884,1215" id="beam15" class="beam"/>
                                <polygon points="14884,1170 15850,1170 15850,1080 14884,1080" id="beam16" class="beam"/>
                                <g id="note32" class="note">
                                    <g class="notehead" id="note32.notehead">
                                        <use xlink:href="#E0A4-1i6vr39" x="14884" y="540" height="720px" width="720px"/>
                                    </g>
                                    <g id="note32.stem" class="stem">
                                        <path d="M14893 568 L14893 1287" stroke="currentColor" stroke-width="18"/>
                                    </g>
                                    <g id="note32.accidental" class="accid"/>
                                </g>
                                <g id="note33" class="note">
                                    <g class="notehead" id="note33.notehead">
                                        <use xlink:href="#E0A4-1i6vr39" x="15200" y="720" height="720px" width="720px"/>
                                    </g>
                                    <g id="note33.stem" class="stem">
                                        <path d="M15209 748 L15209 1287" stroke="currentColor" stroke-width="18"/>
                                    </g>
                                    <g id="note33.accidental" class="accid"/>
                                </g>
                                <g id="note34" class="note">
                                    <g class="notehead" id="note34.notehead">
                                        <use xlink:href="#E0A4-1i6vr39" x="15516" y="630" height="720px" width="720px"/>
                                    </g>
                                    <g id="note34.stem" class="stem">
                                        <path d="M15525 658 L15525 1287" stroke="currentColor" stroke-width="18"/>
                                    </g>
                                </g>
                                <g id="note35" class="note">
                                    <g class="notehead" id="note35.notehead">
                                        <use xlink:href="#E0A4-1i6vr39" x="15832" y="540" height="720px" width="720px"/>
                                    </g>
                                    <g id="note35.stem" class="stem">
                                        <path d="M15841 568 L15841 1287" stroke="currentColor" stroke-width="18"/>
                                    </g>
                                    <g id="note35.accidental" class="accid"/>
                                </g>
                            </g>
                        </g>
                    </g>
                    <g id="pP1_m7.right_barline" class="barLine">
                        <path id="pP1_m7.right_barline.barline_tok1" d="M16162 540 L16162 1260" stroke="currentColor" stroke-width="27" class="barline_tok"/>
                    </g>
                </g>
                <g id="pP1_m8" class="measure">
                    <g id="sfmjcdh" class="staff">
                        <path d="M16175 540 L18732 540" stroke="currentColor" stroke-width="13"/>
                        <path d="M16175 720 L18732 720" stroke="currentColor" stroke-width="13"/>
                        <path d="M16175 900 L18732 900" stroke="currentColor" stroke-width="13"/>
                        <path d="M16175 1080 L18732 1080" stroke="currentColor" stroke-width="13"/>
                        <path d="M16175 1260 L18732 1260" stroke="currentColor" stroke-width="13"/>
                        <g id="l1g6katv" class="layer">
                            <g id="beam17_parent" class="beam_parent">
                                <polygon points="16541,1665 17325,1665 17325,1575 16541,1575" id="beam17" class="beam"/>
                                <polygon points="17000,1530 17325,1530 17325,1440 17000,1440" id="beam18" class="beam"/>
                                <g id="note36" class="note">
                                    <g class="notehead" id="note36.notehead">
                                        <use xlink:href="#E0A4-1i6vr39" x="16541" y="450" height="720px" width="720px"/>
                                    </g>
                                    <g id="note36.stem" class="stem">
                                        <path d="M16550 478 L16550 1647" stroke="currentColor" stroke-width="18"/>
                                    </g>
                                    <g id="note36.accidental" class="accid">
                                        <use xlink:href="#E262-1i6vr39" x="16355" y="450" height="720px" width="720px"/>
                                    </g>
                                </g>
                                <g id="note37" class="note">
                                    <g class="notehead" id="note37.notehead">
                                        <use xlink:href="#E0A4-1i6vr39" x="16991" y="1080" height="720px" width="720px"/>
                                    </g>
                                    <g id="note37.stem" class="stem">
                                        <path d="M17000 1108 L17000 1647" stroke="currentColor" stroke-width="18"/>
                                    </g>
                                    <g id="note37.accidental" class="accid">
                                        <use xlink:href="#E262-1i6vr39" x="16805" y="1080" height="720px" width="720px"/>
                                    </g>
                                </g>
                                <g id="note38" class="note">
                                    <g class="notehead" id="note38.notehead">
                                        <use xlink:href="#E0A4-1i6vr39" x="17307" y="990" height="720px" width="720px"/>
                                    </g>
                                    <g id="note38.stem" class="stem">
                                        <path d="M17316 1018 L17316 1647" stroke="currentColor" stroke-width="18"/>
                                    </g>
                                </g>
                            </g>
                            <g id="beam19_parent" class="beam_parent">
                                <polygon points="17623,1665 18407,1665 18407,1575 17623,1575" id="beam19" class="beam"/>
                                <polygon points="18082,1530 18407,1530 18407,1440 18082,1440" id="beam20" class="beam"/>
                                <g id="note39" class="note">
                                    <g class="notehead" id="note39.notehead">
                                        <use xlink:href="#E0A4-1i6vr39" x="17623" y="900" height="720px" width="720px"/>
                                    </g>
                                    <g id="note39.stem" class="stem">
                                        <path d="M17632 928 L17632 1647" stroke="currentColor" stroke-width="18"/>
                                    </g>
                                </g>
                                <g id="note40" class="note">
                                    <g class="notehead" id="note40.notehead">
                                        <use xlink:href="#E0A4-1i6vr39" x="18073" y="1080" height="720px" width="720px"/>
                                    </g>
                                    <g id="note40.stem" class="stem">
                                        <path d="M18082 1108 L18082 1647" stroke="currentColor" stroke-width="18"/>
                                    </g>
                                    <g id="note40.accidental" class="accid"/>
                                </g>
                                <g id="note41" class="note">
                                    <g class="notehead" id="note41.notehead">
                                        <use xlink:href="#E0A4-1i6vr39" x="18389" y="990" height="720px" width="720px"/>
                                    </g>
                                    <g id="note41.stem" class="stem">
                                        <path d="M18398 1018 L18398 1647" stroke="currentColor" stroke-width="18"/>
                                    </g>
                                </g>
                            </g>
                        </g>
                    </g>
                    <g id="pP1_m8.right_barline" class="barLine">
                        <path id="pP1_m8.right_barline.barline_tok1" d="M18719 540 L18719 1260" stroke="currentColor" stroke-width="27" class="barline_tok"/>
                    </g>
                </g>
                <g id="s1esgcn5" class="systemMilestoneEnd s175477u"/>
            </g>
            <g id="p1fet255" class="pageMilestoneEnd s1is1zsk"/>
            <g id="p1hlip9n" class="pageMilestoneEnd m1thz09w"/>
        </g>
    </svg>
</svg>