<svg xmlns="http://www.w3.org/2000/svg" xmlns:xlink="http://www.w3.org/1999/xlink" xmlns:mei="http://www.music-encoding.org/ns/mei" width="1887px" height="280px" version="1.1" overflow="visible">
    <desc>Engraved by Verovio 4.3.0-dev-ba68db3-dirty</desc>
    <defs>
        <symbol id="E086-h911" viewBox="0 0 1000 1000" overflow="inherit">
            <path transform="scale(1,-1)" d="M284 -91c0 37 -28 92 -67 92c-35 0 -65 -54 -65 -111c0 -52 22 -104 68 -104c47 0 64 68 64 123zM230 214c-36 0 -90 -33 -90 -184l2 -36c40 24 81 36 120 36c80 0 140 -48 140 -121c0 -99 -99 -159 -182 -159c-160 0 -200 173 -200 244c0 21 2 43 7 71l10 35 c26 85 73 115 98 126c41 19 74 24 103 24c93 0 142 -63 142 -105c0 -58 -52 -72 -73 -72c-33 0 -59 24 -65 35c-3 5 -6 14 -7 25l11 30c6 15 9 27 9 35c0 11 -9 16 -25 16z"/>
        </symbol>
        <symbol id="E088-h911" viewBox="0 0 1000 1000" overflow="inherit">
            <path transform="scale(1,-1)" d="M195 -214c76 0 88 58 90 68c0 34 -35 60 -57 73l-52 29c-21 10 -32 17 -34 20c-39 -33 -58 -54 -62 -92c5 -23 23 -98 115 -98zM301 135c0 61 -72 76 -113 76c-40 0 -77 -17 -77 -51c3 -21 15 -38 26 -50c17 -15 33 -26 48 -34l65 -28c34 27 51 56 51 87zM176 -250 c-57 0 -166 26 -166 132c0 47 30 86 89 116c-33 15 -79 60 -79 119c0 79 85 132 178 132h18c5 0 21 1 28 -1c25 0 126 -30 126 -110c0 -37 -23 -76 -69 -116c43 -25 83 -71 83 -119c0 -101 -118 -153 -208 -153z"/>
        </symbol>
        <symbol id="E0A4-h911" viewBox="0 0 1000 1000" overflow="inherit">
            <path transform="scale(1,-1)" d="M0 -39c0 68 73 172 200 172c66 0 114 -37 114 -95c0 -84 -106 -171 -218 -171c-64 0 -96 30 -96 94z"/>
        </symbol>
        <symbol id="E262-h911" viewBox="0 0 1000 1000" overflow="inherit">
            <path transform="scale(1,-1)" d="M136 186v169h17v-164l44 14v-91l-44 -14v-165l44 12v-91l-44 -13v-155h-17v150l-76 -22v-155h-17v149l-43 -13v90l43 14v167l-43 -14v92l43 13v169h17v-163zM60 73v-167l76 22v168z"/>
        </symbol>
        <symbol id="E4C0-h911" viewBox="0 0 1000 1000" overflow="inherit">
            <path transform="scale(1,-1)" d="M0 0c0 0 40 320 300 320s300 -320 300 -320h-32s-38 227 -268 227s-268 -227 -268 -227h-32zM355 52c0 -30 -25 -55 -55 -55s-55 25 -55 55s25 55 55 55s55 -25 55 -55z"/>
        </symbol>
        <symbol id="E241-h911" viewBox="0 0 1000 1000" overflow="inherit">
            <path transform="scale(1,-1)" d="M179 646c-4 8 -17 30 -18 33l-4 10c0 3 2 5 5 5s7 -2 13 -7c23 -33 46 -81 66 -132c22 -57 35 -125 35 -163c0 -104 -60 -183 -122 -241c-63 -59 -57 -53 -61 -56c-38 -34 -63 -95 -71 -95h-22v190c40 7 69 11 87 16c88 27 168 95 168 200c0 30 -12 89 -30 138 c-17 47 -31 73 -46 102z"/>
        </symbol>
        <symbol id="E4E5-h911" viewBox="0 0 1000 1000" overflow="inherit">
            <path transform="scale(1,-1)" d="M107 292c-13 24 -30 49 -52 71c-1 1 0 2 0 3l-2 2c3 3 4 4 6 4c12 0 26 -7 40 -20s44 -40 89 -81c26 -24 28 -29 46 -47c4 -4 8 -9 10 -14c6 -8 8 -16 8 -27c0 -19 -12 -40 -36 -61c-28 -23 -49 -38 -61 -73c-4 -11 -7 -27 -10 -50c13 -43 34 -83 59 -121 c31 -47 59 -79 101 -129c-8 0 -26 7 -54 20l-62 29l-21 6l-23 1c-25 0 -45 -10 -60 -30l-4 -14l-1 -12c0 -33 20 -56 39 -78c8 -9 17 -18 26 -26c17 -15 27 -24 28 -30l-3 -3c-11 5 -19 10 -25 15c-9 3 -37 21 -45 26c-24 14 -45 32 -63 51c-19 21 -37 44 -37 71 c0 63 27 95 80 95c41 0 86 -18 136 -52c-19 26 -37 48 -55 66c-23 23 -48 44 -73 65c-28 23 -47 40 -58 53s-17 26 -18 39c75 64 113 125 113 183c0 27 -7 48 -18 68z"/>
        </symbol>
        <symbol id="E4E6-h911" viewBox="0 0 1000 1000" overflow="inherit">
            <path transform="scale(1,-1)" d="M0 123c7 34 33 56 69 60c29 -3 43 -9 53 -29c4 -8 7 -15 10 -22c0 -21 -1 -25 -11 -35c-5 -8 -18 -14 -40 -20l12 -3l15 -1c44 0 97 26 122 56c10 11 18 26 24 42c7 1 15 2 22 3l-140 -424h-36l111 330c-10 -6 -27 -12 -53 -16l-52 -8h-10l-20 1c-1 0 -8 3 -21 6 c-37 9 -55 28 -55 60z"/>
        </symbol>
        <symbol id="E4E7-h911" viewBox="0 0 1000 1000" overflow="inherit">
            <path transform="scale(1,-1)" d="M133 -111c0 -33 -21 -50 -52 -55c10 -3 18 -4 25 -4c40 0 69 24 90 47l66 197c-36 -18 -64 -25 -112 -25c-23 0 -38 3 -45 8c-37 7 -55 27 -55 59c8 35 30 54 68 58c45 -6 49 -13 64 -48c0 -3 1 -5 1 -7c0 -27 -25 -46 -52 -49c6 -4 15 -6 26 -6c32 2 62 14 88 29 c32 19 44 36 59 71l7 1l10 2h4c-72 -220 -143 -439 -215 -659h-37l108 324c-20 -13 -51 -20 -82 -20c-21 0 -35 4 -43 10c-37 6 -55 26 -55 58c8 35 31 56 68 60c43 -8 48 -13 64 -51z"/>
        </symbol>
        <symbol id="E243-h911" viewBox="0 0 1000 1000" overflow="inherit">
            <path transform="scale(1,-1)" d="M216 730c-5 8 -10 13 -11 16l-4 10c0 3 2 5 5 5s7 -2 13 -7c35 -42 57 -101 57 -172c0 -34 -6 -65 -17 -94c10 -31 17 -64 17 -96c0 -104 -60 -183 -122 -241c-63 -59 -57 -53 -61 -56c-38 -34 -63 -95 -71 -95h-22v190v190c40 7 69 11 87 16c116 36 175 111 175 197 c0 44 -15 91 -46 137zM248 463c-23 -48 -58 -89 -94 -122c-63 -59 -57 -53 -61 -56c-30 -27 -44 -71 -53 -88c20 3 36 6 47 9c88 27 168 95 168 200c0 19 -3 39 -7 57z"/>
        </symbol>
    </defs>
    <style type="text/css">g.page-margin{font-family:Times,serif;} g.ending, g.fing, g.reh, g.tempo{font-weight:bold;} g.dir, g.dynam, g.mNum{font-style:italic;} g.label{font-weight:normal;}</style>
    <svg class="definition-scale" color="black" viewBox="0 0 18870 2800">
        <g class="page-margin" transform="translate(500, 500)">
            <g id="m1vv8jn9" class="mdiv pageMilestone"/>
            <g id="s1tgwqmu" class="score pageMilestone"/>
            <g id="s1ntwn69" class="system">
                <g id="l1ok1km" class="label">
                    <text x="1088" y="990" text-anchor="end" font-size="0px">
                        <tspan id="t1tvjfsv" class="text">
                            <tspan font-size="405px">Viol&#237;</tspan>
                        </tspan>
                    </text>
                </g>
                <g id="s1o3f7n6" class="section systemMilestone"/>
                <g id="pP1_m1" class="measure">
                    <g id="s14i0lk4" class="staff">
                        <path d="M1268 540 L3936 540" stroke="currentColor" stroke-width="13"/>
                        <path d="M1268 720 L3936 720" stroke="currentColor" stroke-width="13"/>
                        <path d="M1268 900 L3936 900" stroke="currentColor" stroke-width="13"/>
                        <path d="M1268 1080 L3936 1080" stroke="currentColor" stroke-width="13"/>
                        <path d="M1268 1260 L3936 1260" stroke="currentColor" stroke-width="13"/>
                        <g id="clef1_1" class="clef" visibility="hidden"/>
                        <g id="key1_1" class="keySig" visibility="hidden"/>
                        <g id="time1_1" class="meterSig">
                            <use xlink:href="#E086-h911" x="1344" y="720" height="720px" width="720px"/>
                            <use xlink:href="#E088-h911" x="1351" y="1080" height="720px" width="720px"/>
                        </g>
                        <g id="lgkbhe8" class="layer">
                            <g id="note1" class="note">
                                <g class="notehead" id="note1.notehead">
                                    <use xlink:href="#E0A4-h911" x="1903" y="900" height="720px" width="720px"/>
                                </g>
                                <g id="note1.dots_parent" class="dots">
                                    <ellipse cx="2219" cy="810" rx="36" ry="36" id="note1.dot1" class="single_dot"/>
                                </g>
                                <g id="note1.stem" class="stem">
                                    <path d="M1912 928 L1912 1500" stroke="currentColor" stroke-width="18"/>
                                </g>
                            </g>
                            <g id="note2" class="note">
                                <g class="notehead" id="note2.notehead">
                                    <use xlink:href="#E0A4-h911" x="2783" y="990" height="720px" width="720px"/>
                                </g>
                                <g id="note2.stem" class="stem">
                                    <path d="M2792 1018 L2792 1560" stroke="currentColor" stroke-width="18"/>
                                </g>
                            </g>
                            <g id="note3" class="note">
                                <g class="notehead" id="note3.notehead">
                                    <use xlink:href="#E0A4-h911" x="3473" y="720" height="720px" width="720px"/>
                                </g>
                                <g id="note3.stem" class="stem">
                                    <path d="M3482 748 L3482 1350" stroke="currentColor" stroke-width="18"/>
                                    <g id="note3.stem.flag" class="flag">
                                        <use xlink:href="#E241-h911" x="3473" y="1350" height="720px" width="720px"/>
                                    </g>
                                </g>
                            </g>
                        </g>
                    </g>
                    <g id="pP1_m1.right_barline" class="barLine">
                        <path id="pP1_m1.right_barline.barline_tok1" d="M3923 540 L3923 1260" stroke="currentColor" stroke-width="27" class="barline_tok"/>
                    </g>
                </g>
                <g id="pP1_m2" class="measure">
                    <g id="s1g20ljn" class="staff">
                        <path d="M3936 540 L6629 540" stroke="currentColor" stroke-width="13"/>
                        <path d="M3936 720 L6629 720" stroke="currentColor" stroke-width="13"/>
                        <path d="M3936 900 L6629 900" stroke="currentColor" stroke-width="13"/>
                        <path d="M3936 1080 L6629 1080" stroke="currentColor" stroke-width="13"/>
                        <path d="M3936 1260 L6629 1260" stroke="currentColor" stroke-width="13"/>
                        <g id="l16yl7ar" class="layer">
                            <g id="note4" class="note">
                                <g class="notehead" id="note4.notehead">
                                    <use xlink:href="#E0A4-h911" x="4116" y="720" height="720px" width="720px"/>
                                </g>
                                <g id="note4.stem" class="stem">
                                    <path d="M4125 748 L4125 1350" stroke="currentColor" stroke-width="18"/>
                                    <g id="note4.stem.flag" class="flag">
                                        <use xlink:href="#E241-h911" x="4116" y="1350" height="720px" width="720px"/>
                                    </g>
                                </g>
                            </g>
                            <g id="note5" class="note">
                                <g class="notehead" id="note5.notehead">
                                    <use xlink:href="#E0A4-h911" x="4566" y="720" height="720px" width="720px"/>
                                </g>
                                <g id="note5.stem" class="stem">
                                    <path d="M4575 748 L4575 1350" stroke="currentColor" stroke-width="18"/>
                                </g>
                            </g>
                            <g id="note6" class="note">
                                <g class="notehead" id="note6.notehead">
                                    <use xlink:href="#E0A4-h911" x="5256" y="720" height="720px" width="720px"/>
                                </g>
                                <g id="note6.stem" class="stem">
                                    <path d="M5265 748 L5265 1350" stroke="currentColor" stroke-width="18"/>
                                    <g id="note6.stem.flag" class="flag">
                                        <use xlink:href="#E241-h911" x="5256" y="1350" height="720px" width="720px"/>
                                    </g>
                                </g>
                            </g>
                            <g id="note7" class="note">
                                <g class="notehead" id="note7.notehead">
                                    <use xlink:href="#E0A4-h911" x="5706" y="630" height="720px" width="720px"/>
                                </g>
                                <g id="note7.dots_parent" class="dots">
                                    <ellipse cx="6022" cy="630" rx="36" ry="36" id="note7.dot1" class="single_dot"/>
                                </g>
                                <g id="note7.stem" class="stem">
                                    <path d="M5715 658 L5715 1260" stroke="currentColor" stroke-width="18"/>
                                    <g id="note7.stem.flag" class="flag">
                                        <use xlink:href="#E241-h911" x="5706" y="1260" height="720px" width="720px"/>
                                    </g>
                                </g>
                            </g>
                            <g id="note8" class="note">
                                <g class="notehead" id="note8.notehead">
                                    <use xlink:href="#E0A4-h911" x="6286" y="900" height="720px" width="720px"/>
                                </g>
                                <g id="note8.stem" class="stem">
                                    <path d="M6295 928 L6295 1500" stroke="currentColor" stroke-width="18"/>
                                    <g id="note8.stem.flag" class="flag">
                                        <use xlink:href="#E243-h911" x="6286" y="1500" height="720px" width="720px"/>
                                    </g>
                                </g>
                            </g>
                        </g>
                    </g>
                    <g id="tied1" class="tie">
                        <path d="M4837,675 C4917,521 5128,521 5211,675 C5103,570 4942,570 4837,675" stroke="currentColor" stroke-linecap="round" stroke-linejoin="round" stroke-width="9"/>
                    </g>
                    <g id="pP1_m2.right_barline" class="barLine">
                        <path id="pP1_m2.right_barline.barline_tok1" d="M6616 540 L6616 1260" stroke="currentColor" stroke-width="27" class="barline_tok"/>
                    </g>
                </g>
                <g id="pP1_m3" class="measure">
                    <g id="sjtgbtx" class="staff">
                        <path d="M6629 540 L9539 540" stroke="currentColor" stroke-width="13"/>
                        <path d="M6629 720 L9539 720" stroke="currentColor" stroke-width="13"/>
                        <path d="M6629 900 L9539 900" stroke="currentColor" stroke-width="13"/>
                        <path d="M6629 1080 L9539 1080" stroke="currentColor" stroke-width="13"/>
                        <path d="M6629 1260 L9539 1260" stroke="currentColor" stroke-width="13"/>
                        <g id="l1pnvqjn" class="layer">
                            <g id="note9" class="note">
                                <g class="notehead" id="note9.notehead">
                                    <use xlink:href="#E0A4-h911" x="6809" y="720" height="720px" width="720px"/>
                                </g>
                                <g id="note9.stem" class="stem">
                                    <path d="M6818 748 L6818 1350" stroke="currentColor" stroke-width="18"/>
                                    <g id="note9.stem.flag" class="flag">
                                        <use xlink:href="#E241-h911" x="6809" y="1350" height="720px" width="720px"/>
                                    </g>
                                </g>
                            </g>
                            <g id="note10" class="note">
                                <g class="notehead" id="note10.notehead">
                                    <use xlink:href="#E0A4-h911" x="7259" y="810" height="720px" width="720px"/>
                                </g>
                                <g id="note10.stem" class="stem">
                                    <path d="M7268 838 L7268 1440" stroke="currentColor" stroke-width="18"/>
                                </g>
                            </g>
                            <g id="beam1_parent" class="beam_parent">
                                <polygon points="7949,1485 8417,1440 8417,1350 7949,1395" id="beam1" class="beam"/>
                                <g id="note11" class="note">
                                    <g class="notehead" id="note11.notehead">
                                        <use xlink:href="#E0A4-h911" x="7949" y="810" height="720px" width="720px"/>
                                    </g>
                                    <g id="note11.stem" class="stem">
                                        <path d="M7958 838 L7958 1467" stroke="currentColor" stroke-width="18"/>
                                    </g>
                                </g>
                                <g id="note12" class="note">
                                    <g class="notehead" id="note12.notehead">
                                        <use xlink:href="#E0A4-h911" x="8399" y="720" height="720px" width="720px"/>
                                    </g>
                                    <g id="note12.stem" class="stem">
                                        <path d="M8408 748 L8408 1422" stroke="currentColor" stroke-width="18"/>
                                    </g>
                                </g>
                            </g>
                            <g id="note13" class="note">
                                <g class="notehead" id="note13.notehead">
                                    <use xlink:href="#E0A4-h911" x="8873" y="990" height="720px" width="720px"/>
                                </g>
                                <g id="note13.stem" class="stem">
                                    <path d="M8882 1018 L8882 1560" stroke="currentColor" stroke-width="18"/>
                                    <g id="note13.stem.flag" class="flag">
                                        <use xlink:href="#E243-h911" x="8873" y="1560" height="720px" width="720px"/>
                                    </g>
                                </g>
                                <g id="note13.accidental" class="accid">
                                    <use xlink:href="#E262-h911" x="8687" y="990" height="720px" width="720px"/>
                                </g>
                            </g>
                            <g id="rest1" class="rest">
                                <use xlink:href="#E4E7-h911" x="9189" y="900" height="720px" width="720px"/>
                            </g>
                        </g>
                    </g>
                    <g id="pP1_m3.right_barline" class="barLine">
                        <path id="pP1_m3.right_barline.barline_tok1" d="M9526 540 L9526 1260" stroke="currentColor" stroke-width="27" class="barline_tok"/>
                    </g>
                </g>
                <g id="pP1_m4" class="measure">
                    <g id="slevxzy" class="staff">
                        <path d="M9539 540 L12418 540" stroke="currentColor" stroke-width="13"/>
                        <path d="M9539 720 L12418 720" stroke="currentColor" stroke-width="13"/>
                        <path d="M9539 900 L12418 900" stroke="currentColor" stroke-width="13"/>
                        <path d="M9539 1080 L12418 1080" stroke="currentColor" stroke-width="13"/>
                        <path d="M9539 1260 L12418 1260" stroke="currentColor" stroke-width="13"/>
                        <g id="li91mrd" class="layer">
                            <g id="note14" class="note">
                                <g class="notehead" id="note14.notehead">
                                    <use xlink:href="#E0A4-h911" x="9719" y="900" height="720px" width="720px"/>
                                </g>
                                <g id="note14.stem" class="stem">
                                    <path d="M9728 928 L9728 1500" stroke="currentColor" stroke-width="18"/>
                                    <g id="note14.stem.flag" class="flag">
                                        <use xlink:href="#E241-h911" x="9719" y="1500" height="720px" width="720px"/>
                                    </g>
                                </g>
                            </g>
                            <g id="note15" class="note">
                                <g class="notehead" id="note15.notehead">
                                    <use xlink:href="#E0A4-h911" x="10169" y="900" height="720px" width="720px"/>
                                </g>
                                <g id="note15.stem" class="stem">
                                    <path d="M10178 928 L10178 1500" stroke="currentColor" stroke-width="18"/>
                                </g>
                            </g>
                            <g id="beam2_parent" class="beam_parent">
                                <polygon points="10859,1485 12093,1440 12093,1350 10859,1395" id="beam2" class="beam"/>
                                <polygon points="11768,1317 12093,1305 12093,1215 11768,1227" id="beam3" class="beam"/>
                                <g id="note16" class="note">
                                    <g class="notehead" id="note16.notehead">
                                        <use xlink:href="#E0A4-h911" x="10859" y="900" height="720px" width="720px"/>
                                    </g>
                                    <g id="note16.stem" class="stem">
                                        <path d="M10868 928 L10868 1467" stroke="currentColor" stroke-width="18"/>
                                    </g>
                                </g>
                                <g id="note17" class="note">
                                    <g class="notehead" id="note17.notehead">
                                        <use xlink:href="#E0A4-h911" x="11309" y="450" height="720px" width="720px"/>
                                    </g>
                                    <g id="note17.stem" class="stem">
                                        <path d="M11318 478 L11318 1451" stroke="currentColor" stroke-width="18"/>
                                    </g>
                                </g>
                                <g id="note18" class="note">
                                    <g class="notehead" id="note18.notehead">
                                        <use xlink:href="#E0A4-h911" x="11759" y="630" height="720px" width="720px"/>
                                    </g>
                                    <g id="note18.stem" class="stem">
                                        <path d="M11768 658 L11768 1434" stroke="currentColor" stroke-width="18"/>
                                    </g>
                                </g>
                                <g id="note19" class="note">
                                    <g class="notehead" id="note19.notehead">
                                        <use xlink:href="#E0A4-h911" x="12075" y="810" height="720px" width="720px"/>
                                    </g>
                                    <g id="note19.stem" class="stem">
                                        <path d="M12084 838 L12084 1422" stroke="currentColor" stroke-width="18"/>
                                    </g>
                                </g>
                            </g>
                        </g>
                    </g>
                    <g id="tied2" class="tie">
                        <path d="M10440,855 C10520,701 10731,701 10814,855 C10706,750 10545,750 10440,855" stroke="currentColor" stroke-linecap="round" stroke-linejoin="round" stroke-width="9"/>
                    </g>
                    <g id="pP1_m4.right_barline" class="barLine">
                        <path id="pP1_m4.right_barline.barline_tok1" d="M12405 540 L12405 1260" stroke="currentColor" stroke-width="27" class="barline_tok"/>
                    </g>
                </g>
                <g id="pP1_m5" class="measure">
                    <g id="sgz5d1k" class="staff">
                        <path d="M12418 540 L15405 540" stroke="currentColor" stroke-width="13"/>
                        <path d="M12418 720 L15405 720" stroke="currentColor" stroke-width="13"/>
                        <path d="M12418 900 L15405 900" stroke="currentColor" stroke-width="13"/>
                        <path d="M12418 1080 L15405 1080" stroke="currentColor" stroke-width="13"/>
                        <path d="M12418 1260 L15405 1260" stroke="currentColor" stroke-width="13"/>
                        <g id="l1rdppsl" class="layer">
                            <g id="note20" class="note">
                                <g class="notehead" id="note20.notehead">
                                    <use xlink:href="#E0A4-h911" x="12598" y="900" height="720px" width="720px"/>
                                </g>
                                <g id="note20.dots_parent" class="dots">
                                    <ellipse cx="12914" cy="810" rx="36" ry="36" id="note20.dot1" class="single_dot"/>
                                </g>
                                <g id="note20.stem" class="stem">
                                    <path d="M12607 928 L12607 1500" stroke="currentColor" stroke-width="18"/>
                                </g>
                            </g>
                            <g id="beam4_parent" class="beam_parent">
                                <polygon points="13478,1800 15080,1800 15080,1710 13478,1710" id="beam4" class="beam"/>
                                <polygon points="13989,1665 14305,1665 14305,1575 13989,1575" id="beam5" class="beam"/>
                                <polygon points="14854,1665 15080,1665 15080,1575 14854,1575" id="beam6" class="beam"/>
                                <polygon points="13989,1530 14305,1530 14305,1440 13989,1440" id="beam7" class="beam"/>
                                <g id="note21" class="note">
                                    <g class="notehead" id="note21.notehead">
                                        <use xlink:href="#E0A4-h911" x="13478" y="990" height="720px" width="720px"/>
                                    </g>
                                    <g id="note21.stem" class="stem">
                                        <path d="M13487 1018 L13487 1782" stroke="currentColor" stroke-width="18"/>
                                    </g>
                                </g>
                                <g id="note22" class="note">
                                    <g class="notehead" id="note22.notehead">
                                        <use xlink:href="#E0A4-h911" x="13980" y="1080" height="720px" width="720px"/>
                                    </g>
                                    <g id="note22.stem" class="stem">
                                        <path d="M13989 1108 L13989 1782" stroke="currentColor" stroke-width="18"/>
                                    </g>
                                    <g id="note22.accidental" class="accid">
                                        <use xlink:href="#E262-h911" x="13794" y="1080" height="720px" width="720px"/>
                                    </g>
                                </g>
                                <g id="note23" class="note">
                                    <g class="notehead" id="note23.notehead">
                                        <use xlink:href="#E0A4-h911" x="14296" y="990" height="720px" width="720px"/>
                                    </g>
                                    <g id="note23.stem" class="stem">
                                        <path d="M14305 1018 L14305 1782" stroke="currentColor" stroke-width="18"/>
                                    </g>
                                </g>
                                <g id="note24" class="note">
                                    <g class="notehead" id="note24.notehead">
                                        <use xlink:href="#E0A4-h911" x="14612" y="810" height="720px" width="720px"/>
                                    </g>
                                    <g id="note24.stem" class="stem">
                                        <path d="M14621 838 L14621 1782" stroke="currentColor" stroke-width="18"/>
                                    </g>
                                </g>
                                <g id="note25" class="note">
                                    <g class="notehead" id="note25.notehead">
                                        <use xlink:href="#E0A4-h911" x="15062" y="900" height="720px" width="720px"/>
                                    </g>
                                    <g id="note25.stem" class="stem">
                                        <path d="M15071 928 L15071 1782" stroke="currentColor" stroke-width="18"/>
                                    </g>
                                </g>
                            </g>
                        </g>
                    </g>
                    <g id="fermata1" class="fermata">
                        <use xlink:href="#E4C0-h911" x="13375" y="493" height="720px" width="720px"/>
                    </g>
                    <g id="pP1_m5.right_barline" class="barLine">
                        <path id="pP1_m5.right_barline.barline_tok1" d="M15392 540 L15392 1260" stroke="currentColor" stroke-width="27" class="barline_tok"/>
                    </g>
                </g>
                <g id="pP1_m6" class="measure">
                    <g id="s1jqyzxu" class="staff">
                        <path d="M15405 540 L17878 540" stroke="currentColor" stroke-width="13"/>
                        <path d="M15405 720 L17878 720" stroke="currentColor" stroke-width="13"/>
                        <path d="M15405 900 L17878 900" stroke="currentColor" stroke-width="13"/>
                        <path d="M15405 1080 L17878 1080" stroke="currentColor" stroke-width="13"/>
                        <path d="M15405 1260 L17878 1260" stroke="currentColor" stroke-width="13"/>
                        <g id="key2" class="keySig" visibility="hidden"/>
                        <g id="l1po0ejs" class="layer">
                            <g id="note26" class="note">
                                <g class="notehead" id="note26.notehead">
                                    <use xlink:href="#E0A4-h911" x="15585" y="1080" height="720px" width="720px"/>
                                </g>
                                <g id="note26.stem" class="stem">
                                    <path d="M15594 1108 L15594 1620" stroke="currentColor" stroke-width="18"/>
                                </g>
                            </g>
                            <g id="rest2" class="rest">
                                <use xlink:href="#E4E6-h911" x="16275" y="900" height="720px" width="720px"/>
                            </g>
                            <g id="rest3" class="rest">
                                <use xlink:href="#E4E5-h911" x="16725" y="900" height="720px" width="720px"/>
                            </g>
                            <g id="rest4" class="rest">
                                <use xlink:href="#E4E6-h911" x="17415" y="900" height="720px" width="720px"/>
                            </g>
                        </g>
                    </g>
                    <g id="pP1_m6.right_barline" class="barLine">
                        <path id="pP1_m6.right_barline.barline_tok1" d="M17865 540 L17865 1260" stroke="currentColor" stroke-width="27" class="barline_tok"/>
                    </g>
                </g>
                <g id="sbj8i77" class="systemMilestoneEnd s1o3f7n6"/>
            </g>
            <g id="pptq4fr" class="pageMilestoneEnd s1tgwqmu"/>
            <g id="p13nbn4q" class="pageMilestoneEnd m1vv8jn9"/>
        </g>
    </svg>
</svg>