<svg xmlns="http://www.w3.org/2000/svg" xmlns:xlink="http://www.w3.org/1999/xlink" xmlns:mei="http://www.music-encoding.org/ns/mei" width="1659px" height="296px" version="1.1" overflow="visible">
    <desc>Engraved by Verovio 4.3.0-dev-ba68db3-dirty</desc>
    <defs>
        <symbol id="E086-i1tm93" viewBox="0 0 1000 1000" overflow="inherit">
            <path transform="scale(1,-1)" d="M284 -91c0 37 -28 92 -67 92c-35 0 -65 -54 -65 -111c0 -52 22 -104 68 -104c47 0 64 68 64 123zM230 214c-36 0 -90 -33 -90 -184l2 -36c40 24 81 36 120 36c80 0 140 -48 140 -121c0 -99 -99 -159 -182 -159c-160 0 -200 173 -200 244c0 21 2 43 7 71l10 35 c26 85 73 115 98 126c41 19 74 24 103 24c93 0 142 -63 142 -105c0 -58 -52 -72 -73 -72c-33 0 -59 24 -65 35c-3 5 -6 14 -7 25l11 30c6 15 9 27 9 35c0 11 -9 16 -25 16z"/>
        </symbol>
        <symbol id="E088-i1tm93" viewBox="0 0 1000 1000" overflow="inherit">
            <path transform="scale(1,-1)" d="M195 -214c76 0 88 58 90 68c0 34 -35 60 -57 73l-52 29c-21 10 -32 17 -34 20c-39 -33 -58 -54 -62 -92c5 -23 23 -98 115 -98zM301 135c0 61 -72 76 -113 76c-40 0 -77 -17 -77 -51c3 -21 15 -38 26 -50c17 -15 33 -26 48 -34l65 -28c34 27 51 56 51 87zM176 -250 c-57 0 -166 26 -166 132c0 47 30 86 89 116c-33 15 -79 60 -79 119c0 79 85 132 178 132h18c5 0 21 1 28 -1c25 0 126 -30 126 -110c0 -37 -23 -76 -69 -116c43 -25 83 -71 83 -119c0 -101 -118 -153 -208 -153z"/>
        </symbol>
        <symbol id="E0A4-i1tm93" viewBox="0 0 1000 1000" overflow="inherit">
            <path transform="scale(1,-1)" d="M0 -39c0 68 73 172 200 172c66 0 114 -37 114 -95c0 -84 -106 -171 -218 -171c-64 0 -96 30 -96 94z"/>
        </symbol>
        <symbol id="E262-i1tm93" viewBox="0 0 1000 1000" overflow="inherit">
            <path transform="scale(1,-1)" d="M136 186v169h17v-164l44 14v-91l-44 -14v-165l44 12v-91l-44 -13v-155h-17v150l-76 -22v-155h-17v149l-43 -13v90l43 14v167l-43 -14v92l43 13v169h17v-163zM60 73v-167l76 22v168z"/>
        </symbol>
        <symbol id="E261-i1tm93" viewBox="0 0 1000 1000" overflow="inherit">
            <path transform="scale(1,-1)" d="M0 -188v539h18v-191l139 22v-533h-17v186zM18 -100l122 17v176l-122 -19v-174z"/>
        </symbol>
        <symbol id="E241-i1tm93" viewBox="0 0 1000 1000" overflow="inherit">
            <path transform="scale(1,-1)" d="M179 646c-4 8 -17 30 -18 33l-4 10c0 3 2 5 5 5s7 -2 13 -7c23 -33 46 -81 66 -132c22 -57 35 -125 35 -163c0 -104 -60 -183 -122 -241c-63 -59 -57 -53 -61 -56c-38 -34 -63 -95 -71 -95h-22v190c40 7 69 11 87 16c88 27 168 95 168 200c0 30 -12 89 -30 138 c-17 47 -31 73 -46 102z"/>
        </symbol>
        <symbol id="E4E6-i1tm93" viewBox="0 0 1000 1000" overflow="inherit">
            <path transform="scale(1,-1)" d="M0 123c7 34 33 56 69 60c29 -3 43 -9 53 -29c4 -8 7 -15 10 -22c0 -21 -1 -25 -11 -35c-5 -8 -18 -14 -40 -20l12 -3l15 -1c44 0 97 26 122 56c10 11 18 26 24 42c7 1 15 2 22 3l-140 -424h-36l111 330c-10 -6 -27 -12 -53 -16l-52 -8h-10l-20 1c-1 0 -8 3 -21 6 c-37 9 -55 28 -55 60z"/>
        </symbol>
        <symbol id="E220-i1tm93" viewBox="0 0 1000 1000" overflow="inherit">
            <path transform="scale(1,-1)" d="M-163 -25l326 150v-100l-326 -150v100z"/>
        </symbol>
        <symbol id="E221-i1tm93" viewBox="0 0 1000 1000" overflow="inherit">
            <path transform="scale(1,-1)" d="M-163 -112l326 150v-100l-326 -150v100zM-163 63l326 150v-100l-326 -150v100z"/>
        </symbol>
        <symbol id="E044-i1tm93" viewBox="0 0 1000 1000" overflow="inherit">
            <path transform="scale(1,-1)" d="M0 0c0 28 22 50 50 50s50 -22 50 -50s-22 -50 -50 -50s-50 22 -50 50z"/>
        </symbol>
    </defs>
    <style type="text/css">g.page-margin{font-family:Times,serif;} g.ending, g.fing, g.reh, g.tempo{font-weight:bold;} g.dir, g.dynam, g.mNum{font-style:italic;} g.label{font-weight:normal;}</style>
    <svg class="definition-scale" color="black" viewBox="0 0 16590 2960">
        <g class="page-margin" transform="translate(500, 500)">
            <g id="m182zv0n" class="mdiv pageMilestone"/>
            <g id="s1oezgm8" class="score pageMilestone"/>
            <g id="sfh1ygg" class="system">
                <g id="lbc630b" class="label">
                    <text x="1105" y="1155" text-anchor="end" font-size="0px">
                        <tspan id="t5eij81" class="text">
                            <tspan font-size="405px">Piano</tspan>
                        </tspan>
                    </text>
                </g>
                <g id="shpmb85" class="section systemMilestone"/>
                <g id="pP1_m1" class="measure">
                    <g id="s15gk2aw" class="staff">
                        <path d="M1285 705 L3940 705" stroke="currentColor" stroke-width="13"/>
                        <path d="M1285 885 L3940 885" stroke="currentColor" stroke-width="13"/>
                        <path d="M1285 1065 L3940 1065" stroke="currentColor" stroke-width="13"/>
                        <path d="M1285 1245 L3940 1245" stroke="currentColor" stroke-width="13"/>
                        <path d="M1285 1425 L3940 1425" stroke="currentColor" stroke-width="13"/>
                        <g id="clef1_1" class="clef" visibility="hidden"/>
                        <g id="key1_1" class="keySig" visibility="hidden"/>
                        <g id="time1_1" class="meterSig">
                            <use xlink:href="#E086-i1tm93" x="1361" y="885" height="720px" width="720px"/>
                            <use xlink:href="#E088-i1tm93" x="1368" y="1245" height="720px" width="720px"/>
                        </g>
                        <g id="l10k5rlt" class="layer">
                            <g id="rest1" class="rest">
                                <use xlink:href="#E4E6-i1tm93" x="1920" y="1065" height="720px" width="720px"/>
                            </g>
                            <g id="note1.tremolo_single" class="bTrem">
                                <use xlink:href="#E220-i1tm93" x="2587" y="885" height="720px" width="720px" id="note1.tremolo_single.line1" class="bTrem_line"/>
                                <g id="chord.note1_note2" class="chord">
                                    <g id="chord.note1_note2.stem" class="stem">
                                        <path d="M2587 1307 L2587 525" stroke="currentColor" stroke-width="18"/>
                                    </g>
                                    <g id="note1" class="note">
                                        <g class="notehead" id="note1.notehead">
                                            <use xlink:href="#E0A4-i1tm93" x="2370" y="1335" height="720px" width="720px"/>
                                        </g>
                                        <g id="note1.accidental" class="accid">
                                            <use xlink:href="#E261-i1tm93" x="2212" y="1335" height="720px" width="720px"/>
                                        </g>
                                    </g>
                                    <g id="note2" class="note">
                                        <g class="notehead" id="note2.notehead">
                                            <use xlink:href="#E0A4-i1tm93" x="2370" y="1155" height="720px" width="720px"/>
                                        </g>
                                    </g>
                                </g>
                            </g>
                            <g id="note3.tremolo_single" class="bTrem">
                                <use xlink:href="#E220-i1tm93" x="3277" y="885" height="720px" width="720px" id="note3.tremolo_single.line1" class="bTrem_line"/>
                                <g id="chord.note3_note4" class="chord">
                                    <g id="chord.note3_note4.dots_parent" class="dots">
                                        <ellipse cx="3376" cy="1335" rx="36" ry="36" class="single_dot" id="note3.dot1"/>
                                        <ellipse cx="3376" cy="1155" rx="36" ry="36" class="single_dot" id="note4.dot1"/>
                                    </g>
                                    <g id="chord.note3_note4.stem" class="stem">
                                        <path d="M3277 1307 L3277 525" stroke="currentColor" stroke-width="18"/>
                                    </g>
                                    <g id="note3" class="note">
                                        <g class="notehead" id="note3.notehead">
                                            <use xlink:href="#E0A4-i1tm93" x="3060" y="1335" height="720px" width="720px"/>
                                        </g>
                                    </g>
                                    <g id="note4" class="note">
                                        <g class="notehead" id="note4.notehead">
                                            <use xlink:href="#E0A4-i1tm93" x="3060" y="1155" height="720px" width="720px"/>
                                        </g>
                                    </g>
                                </g>
                            </g>
                        </g>
                    </g>
                </g>
                <g id="pP1_m2" class="measure">
                    <g id="sefwgs6" class="staff">
                        <path d="M3940 705 L6536 705" stroke="currentColor" stroke-width="13"/>
                        <path d="M3940 885 L6536 885" stroke="currentColor" stroke-width="13"/>
                        <path d="M3940 1065 L6536 1065" stroke="currentColor" stroke-width="13"/>
                        <path d="M3940 1245 L6536 1245" stroke="currentColor" stroke-width="13"/>
                        <path d="M3940 1425 L6536 1425" stroke="currentColor" stroke-width="13"/>
                        <g class="ledgerLines below">
                            <path d="M4905 1605 L5227 1605" stroke="currentColor" stroke-width="22"/>
                            <path d="M5595 1605 L5917 1605" stroke="currentColor" stroke-width="22"/>
                        </g>
                        <g id="liqot3t" class="layer">
                            <g id="rest2" class="rest">
                                <use xlink:href="#E4E6-i1tm93" x="4503" y="1065" height="720px" width="720px"/>
                            </g>
                            <g id="note5.tremolo_single" class="bTrem">
                                <use xlink:href="#E220-i1tm93" x="5170" y="885" height="720px" width="720px" id="note5.tremolo_single.line1" class="bTrem_line"/>
                                <g id="chord.note5_note6" class="chord">
                                    <g id="chord.note5_note6.stem" class="stem">
                                        <path d="M5170 1577 L5170 525" stroke="currentColor" stroke-width="18"/>
                                    </g>
                                    <g id="note5" class="note">
                                        <g class="notehead" id="note5.notehead">
                                            <use xlink:href="#E0A4-i1tm93" x="4953" y="1605" height="720px" width="720px"/>
                                        </g>
                                        <g id="note5.accidental" class="accid"/>
                                    </g>
                                    <g id="note6" class="note">
                                        <g class="notehead" id="note6.notehead">
                                            <use xlink:href="#E0A4-i1tm93" x="4953" y="1155" height="720px" width="720px"/>
                                        </g>
                                    </g>
                                </g>
                            </g>
                            <g id="note7.tremolo_single" class="bTrem">
                                <use xlink:href="#E220-i1tm93" x="5860" y="885" height="720px" width="720px" id="note7.tremolo_single.line1" class="bTrem_line"/>
                                <g id="chord.note7_note8" class="chord">
                                    <g id="chord.note7_note8.dots_parent" class="dots">
                                        <ellipse cx="5959" cy="1515" rx="36" ry="36" class="single_dot" id="note7.dot1"/>
                                        <ellipse cx="5959" cy="1155" rx="36" ry="36" class="single_dot" id="note8.dot1"/>
                                    </g>
                                    <g id="chord.note7_note8.stem" class="stem">
                                        <path d="M5860 1577 L5860 525" stroke="currentColor" stroke-width="18"/>
                                    </g>
                                    <g id="note7" class="note">
                                        <g class="notehead" id="note7.notehead">
                                            <use xlink:href="#E0A4-i1tm93" x="5643" y="1605" height="720px" width="720px"/>
                                        </g>
                                        <g id="note7.accidental" class="accid"/>
                                    </g>
                                    <g id="note8" class="note">
                                        <g class="notehead" id="note8.notehead">
                                            <use xlink:href="#E0A4-i1tm93" x="5643" y="1155" height="720px" width="720px"/>
                                        </g>
                                    </g>
                                </g>
                            </g>
                        </g>
                    </g>
                    <g id="barline1" class="barLine">
                        <path id="barline1.barline_tok1" d="M4075 705 L4075 1425" stroke="currentColor" stroke-width="90" class="barline_tok"/>
                        <path id="barline1.barline_tok2" d="M4205 705 L4205 1425" stroke="currentColor" stroke-width="27" class="barline_tok"/>
                        <g id="barline1.repeat_forward1" class="repeat">
                            <use xlink:href="#E044-i1tm93" x="4251" y="975" height="720px" width="720px"/>
                            <use xlink:href="#E044-i1tm93" x="4251" y="1155" height="720px" width="720px"/>
                        </g>
                    </g>
                    <g id="pP1_m2.right_barline" class="barLine">
                        <path id="pP1_m2.right_barline.barline_tok1" d="M6523 705 L6523 1425" stroke="currentColor" stroke-width="27" class="barline_tok"/>
                    </g>
                </g>
                <g id="pP1_m3" class="measure">
                    <g id="s117gxpl" class="staff">
                        <path d="M6536 705 L8935 705" stroke="currentColor" stroke-width="13"/>
                        <path d="M6536 885 L8935 885" stroke="currentColor" stroke-width="13"/>
                        <path d="M6536 1065 L8935 1065" stroke="currentColor" stroke-width="13"/>
                        <path d="M6536 1245 L8935 1245" stroke="currentColor" stroke-width="13"/>
                        <path d="M6536 1425 L8935 1425" stroke="currentColor" stroke-width="13"/>
                        <g class="ledgerLines below">
                            <path d="M7142 1605 L7464 1605" stroke="currentColor" stroke-width="22"/>
                            <path d="M7832 1605 L8154 1605" stroke="currentColor" stroke-width="22"/>
                        </g>
                        <g id="l1u8yxxq" class="layer">
                            <g id="rest3" class="rest">
                                <use xlink:href="#E4E6-i1tm93" x="6716" y="1065" height="720px" width="720px"/>
                            </g>
                            <g id="note9.tremolo_single" class="bTrem">
                                <use xlink:href="#E220-i1tm93" x="7407" y="885" height="720px" width="720px" id="note9.tremolo_single.line1" class="bTrem_line"/>
                                <g id="chord.note9_note10" class="chord">
                                    <g id="chord.note9_note10.stem" class="stem">
                                        <path d="M7407 1667 L7407 615" stroke="currentColor" stroke-width="18"/>
                                    </g>
                                    <g id="note9" class="note">
                                        <g class="notehead" id="note9.notehead">
                                            <use xlink:href="#E0A4-i1tm93" x="7190" y="1695" height="720px" width="720px"/>
                                        </g>
                                    </g>
                                    <g id="note10" class="note">
                                        <g class="notehead" id="note10.notehead">
                                            <use xlink:href="#E0A4-i1tm93" x="7190" y="1245" height="720px" width="720px"/>
                                        </g>
                                        <g id="note10.accidental" class="accid">
                                            <use xlink:href="#E262-i1tm93" x="7004" y="1245" height="720px" width="720px"/>
                                        </g>
                                    </g>
                                </g>
                            </g>
                            <g id="note11.tremolo_single" class="bTrem">
                                <use xlink:href="#E220-i1tm93" x="8097" y="885" height="720px" width="720px" id="note11.tremolo_single.line1" class="bTrem_line"/>
                                <g id="chord.note11_note12" class="chord">
                                    <g id="chord.note11_note12.dots_parent" class="dots">
                                        <ellipse cx="8196" cy="1695" rx="36" ry="36" class="single_dot" id="note11.dot1"/>
                                        <ellipse cx="8196" cy="1155" rx="36" ry="36" class="single_dot" id="note12.dot1"/>
                                    </g>
                                    <g id="chord.note11_note12.stem" class="stem">
                                        <path d="M8097 1667 L8097 615" stroke="currentColor" stroke-width="18"/>
                                    </g>
                                    <g id="note11" class="note">
                                        <g class="notehead" id="note11.notehead">
                                            <use xlink:href="#E0A4-i1tm93" x="7880" y="1695" height="720px" width="720px"/>
                                        </g>
                                    </g>
                                    <g id="note12" class="note">
                                        <g class="notehead" id="note12.notehead">
                                            <use xlink:href="#E0A4-i1tm93" x="7880" y="1245" height="720px" width="720px"/>
                                        </g>
                                        <g id="note12.accidental" class="accid"/>
                                    </g>
                                </g>
                            </g>
                        </g>
                    </g>
                    <g id="barline2" class="barLine">
                        <path id="barline2.barline_tok1" d="M8760 705 L8760 1425" stroke="currentColor" stroke-width="27" class="barline_tok"/>
                        <path id="barline2.barline_tok2" d="M8890 705 L8890 1425" stroke="currentColor" stroke-width="90" class="barline_tok"/>
                        <g id="barline2.repeat_backward1" class="repeat">
                            <use xlink:href="#E044-i1tm93" x="8643" y="975" height="720px" width="720px"/>
                            <use xlink:href="#E044-i1tm93" x="8643" y="1155" height="720px" width="720px"/>
                        </g>
                    </g>
                </g>
                <g id="pP1_m4" class="measure">
                    <g id="swir6uu" class="staff">
                        <path d="M8935 705 L11148 705" stroke="currentColor" stroke-width="13"/>
                        <path d="M8935 885 L11148 885" stroke="currentColor" stroke-width="13"/>
                        <path d="M8935 1065 L11148 1065" stroke="currentColor" stroke-width="13"/>
                        <path d="M8935 1245 L11148 1245" stroke="currentColor" stroke-width="13"/>
                        <path d="M8935 1425 L11148 1425" stroke="currentColor" stroke-width="13"/>
                        <g class="ledgerLines above">
                            <path d="M10207 525 L10529 525" stroke="currentColor" stroke-width="22"/>
                            <path d="M10207 345 L10529 345" stroke="currentColor" stroke-width="22"/>
                        </g>
                        <g class="ledgerLines below">
                            <path d="M9517 1605 L9839 1605" stroke="currentColor" stroke-width="22"/>
                        </g>
                        <g id="l10nrmfg" class="layer">
                            <g id="rest4" class="rest">
                                <use xlink:href="#E4E6-i1tm93" x="9115" y="1065" height="720px" width="720px"/>
                            </g>
                            <g id="note13.tremolo_single" class="bTrem">
                                <use xlink:href="#E220-i1tm93" x="9782" y="885" height="720px" width="720px" id="note13.tremolo_single.line1" class="bTrem_line"/>
                                <g id="chord.note13_note14" class="chord">
                                    <g id="chord.note13_note14.stem" class="stem">
                                        <path d="M9782 1577 L9782 525" stroke="currentColor" stroke-width="18"/>
                                    </g>
                                    <g id="note13" class="note">
                                        <g class="notehead" id="note13.notehead">
                                            <use xlink:href="#E0A4-i1tm93" x="9565" y="1605" height="720px" width="720px"/>
                                        </g>
                                        <g id="note13.accidental" class="accid"/>
                                    </g>
                                    <g id="note14" class="note">
                                        <g class="notehead" id="note14.notehead">
                                            <use xlink:href="#E0A4-i1tm93" x="9565" y="1155" height="720px" width="720px"/>
                                        </g>
                                    </g>
                                </g>
                            </g>
                            <g id="note15.tremolo_single" class="bTrem">
                                <use xlink:href="#E221-i1tm93" x="10264" y="768" height="720px" width="720px" id="note15.tremolo_single.line1" class="bTrem_line"/>
                                <g id="note15" class="note">
                                    <g class="notehead" id="note15.notehead">
                                        <use xlink:href="#E0A4-i1tm93" x="10255" y="345" height="720px" width="720px"/>
                                    </g>
                                    <g id="note15.dots_parent" class="dots">
                                        <ellipse cx="10571" cy="255" rx="36" ry="36" id="note15.dot1" class="single_dot"/>
                                    </g>
                                    <g id="note15.stem" class="stem">
                                        <path d="M10264 373 L10264 1065" stroke="currentColor" stroke-width="18"/>
                                    </g>
                                    <g id="note15.accidental" class="accid"/>
                                </g>
                            </g>
                        </g>
                    </g>
                    <g id="pP1_m4.right_barline" class="barLine">
                        <path id="pP1_m4.right_barline.barline_tok1" d="M11135 705 L11135 1425" stroke="currentColor" stroke-width="27" class="barline_tok"/>
                    </g>
                </g>
                <g id="pP1_m5" class="measure">
                    <g id="s6wqetw" class="staff">
                        <path d="M11148 705 L13101 705" stroke="currentColor" stroke-width="13"/>
                        <path d="M11148 885 L13101 885" stroke="currentColor" stroke-width="13"/>
                        <path d="M11148 1065 L13101 1065" stroke="currentColor" stroke-width="13"/>
                        <path d="M11148 1245 L13101 1245" stroke="currentColor" stroke-width="13"/>
                        <path d="M11148 1425 L13101 1425" stroke="currentColor" stroke-width="13"/>
                        <g class="ledgerLines above">
                            <path d="M11280 525 L11602 525" stroke="currentColor" stroke-width="22"/>
                            <path d="M12160 525 L12482 525" stroke="currentColor" stroke-width="22"/>
                            <path d="M11280 345 L11602 345" stroke="currentColor" stroke-width="22"/>
                            <path d="M12160 345 L12482 345" stroke="currentColor" stroke-width="22"/>
                        </g>
                        <g id="l2nnvdl" class="layer">
                            <g id="note16.tremolo_single" class="bTrem">
                                <use xlink:href="#E221-i1tm93" x="11337" y="768" height="720px" width="720px" id="note16.tremolo_single.line1" class="bTrem_line"/>
                                <g id="note16" class="note">
                                    <g class="notehead" id="note16.notehead">
                                        <use xlink:href="#E0A4-i1tm93" x="11328" y="255" height="720px" width="720px"/>
                                    </g>
                                    <g id="note16.dots_parent" class="dots">
                                        <ellipse cx="11644" cy="255" rx="36" ry="36" id="note16.dot1" class="single_dot"/>
                                    </g>
                                    <g id="note16.stem" class="stem">
                                        <path d="M11337 283 L11337 1065" stroke="currentColor" stroke-width="18"/>
                                    </g>
                                </g>
                            </g>
                            <g id="note17.tremolo_single" class="bTrem">
                                <use xlink:href="#E221-i1tm93" x="12217" y="768" height="720px" width="720px" id="note17.tremolo_single.line1" class="bTrem_line"/>
                                <g id="note17" class="note">
                                    <g class="notehead" id="note17.notehead">
                                        <use xlink:href="#E0A4-i1tm93" x="12208" y="255" height="720px" width="720px"/>
                                    </g>
                                    <g id="note17.dots_parent" class="dots">
                                        <ellipse cx="12524" cy="255" rx="36" ry="36" id="note17.dot1" class="single_dot"/>
                                    </g>
                                    <g id="note17.stem" class="stem">
                                        <path d="M12217 283 L12217 1065" stroke="currentColor" stroke-width="18"/>
                                    </g>
                                    <g id="note17.accidental" class="accid">
                                        <use xlink:href="#E262-i1tm93" x="11996" y="255" height="720px" width="720px"/>
                                    </g>
                                </g>
                            </g>
                        </g>
                    </g>
                    <g id="pP1_m5.right_barline" class="barLine">
                        <path id="pP1_m5.right_barline.barline_tok1" d="M13088 705 L13088 1425" stroke="currentColor" stroke-width="27" class="barline_tok"/>
                    </g>
                </g>
                <g id="pP1_m6" class="measure">
                    <g id="s1lbyhaw" class="staff">
                        <path d="M13101 705 L15598 705" stroke="currentColor" stroke-width="13"/>
                        <path d="M13101 885 L15598 885" stroke="currentColor" stroke-width="13"/>
                        <path d="M13101 1065 L15598 1065" stroke="currentColor" stroke-width="13"/>
                        <path d="M13101 1245 L15598 1245" stroke="currentColor" stroke-width="13"/>
                        <path d="M13101 1425 L15598 1425" stroke="currentColor" stroke-width="13"/>
                        <g class="ledgerLines above">
                            <path d="M13233 525 L13555 525" stroke="currentColor" stroke-width="22"/>
                            <path d="M13233 345 L13555 345" stroke="currentColor" stroke-width="22"/>
                            <path d="M13233 165 L13555 165" stroke="currentColor" stroke-width="22"/>
                        </g>
                        <g class="ledgerLines below">
                            <path d="M13683 1605 L14005 1605" stroke="currentColor" stroke-width="22"/>
                            <path d="M14847 1605 L15169 1605" stroke="currentColor" stroke-width="22"/>
                        </g>
                        <g id="llut85x" class="layer">
                            <g id="note18" class="note">
                                <g class="notehead" id="note18.notehead">
                                    <use xlink:href="#E0A4-i1tm93" x="13281" y="165" height="720px" width="720px"/>
                                </g>
                                <g id="note18.stem" class="stem">
                                    <path d="M13290 193 L13290 1065" stroke="currentColor" stroke-width="18"/>
                                    <g id="note18.stem.flag" class="flag">
                                        <use xlink:href="#E241-i1tm93" x="13281" y="1065" height="720px" width="720px"/>
                                    </g>
                                </g>
                            </g>
                            <g id="note19.tremolo_single" class="bTrem">
                                <use xlink:href="#E220-i1tm93" x="13948" y="885" height="720px" width="720px" id="note19.tremolo_single.line1" class="bTrem_line"/>
                                <g id="chord.note19_note20" class="chord">
                                    <g id="chord.note19_note20.stem" class="stem">
                                        <path d="M13948 1577 L13948 525" stroke="currentColor" stroke-width="18"/>
                                    </g>
                                    <g id="note19" class="note">
                                        <g class="notehead" id="note19.notehead">
                                            <use xlink:href="#E0A4-i1tm93" x="13731" y="1605" height="720px" width="720px"/>
                                        </g>
                                        <g id="note19.accidental" class="accid"/>
                                    </g>
                                    <g id="note20" class="note">
                                        <g class="notehead" id="note20.notehead">
                                            <use xlink:href="#E0A4-i1tm93" x="13731" y="1155" height="720px" width="720px"/>
                                        </g>
                                    </g>
                                </g>
                            </g>
                            <g id="rest5" class="rest">
                                <use xlink:href="#E4E6-i1tm93" x="14421" y="1065" height="720px" width="720px"/>
                            </g>
                            <g id="note21.tremolo_single" class="bTrem">
                                <use xlink:href="#E220-i1tm93" x="15112" y="885" height="720px" width="720px" id="note21.tremolo_single.line1" class="bTrem_line"/>
                                <g id="chord.note21_note22" class="chord">
                                    <g id="chord.note21_note22.stem" class="stem">
                                        <path d="M15112 1667 L15112 615" stroke="currentColor" stroke-width="18"/>
                                    </g>
                                    <g id="note21" class="note">
                                        <g class="notehead" id="note21.notehead">
                                            <use xlink:href="#E0A4-i1tm93" x="14895" y="1695" height="720px" width="720px"/>
                                        </g>
                                    </g>
                                    <g id="note22" class="note">
                                        <g class="notehead" id="note22.notehead">
                                            <use xlink:href="#E0A4-i1tm93" x="14895" y="1245" height="720px" width="720px"/>
                                        </g>
                                        <g id="note22.accidental" class="accid">
                                            <use xlink:href="#E262-i1tm93" x="14709" y="1245" height="720px" width="720px"/>
                                        </g>
                                    </g>
                                </g>
                            </g>
                        </g>
                    </g>
                    <g id="pP1_m6.right_barline" class="barLine">
                        <path id="pP1_m6.right_barline.barline_tok1" d="M15585 705 L15585 1425" stroke="currentColor" stroke-width="27" class="barline_tok"/>
                    </g>
                </g>
                <g id="s1xt8ag6" class="systemMilestoneEnd shpmb85"/>
            </g>
            <g id="p1pa8kwq" class="pageMilestoneEnd s1oezgm8"/>
            <g id="p15ojaat" class="pageMilestoneEnd m182zv0n"/>
        </g>
    </svg>
</svg>