<svg xmlns="http://www.w3.org/2000/svg" xmlns:xlink="http://www.w3.org/1999/xlink" xmlns:mei="http://www.music-encoding.org/ns/mei" width="1959px" height="280px" version="1.1" overflow="visible">
    <desc>Engraved by Verovio 4.3.0-dev-ba68db3-dirty</desc>
    <defs>
        <symbol id="E086-17lyzkx" viewBox="0 0 1000 1000" overflow="inherit">
            <path transform="scale(1,-1)" d="M284 -91c0 37 -28 92 -67 92c-35 0 -65 -54 -65 -111c0 -52 22 -104 68 -104c47 0 64 68 64 123zM230 214c-36 0 -90 -33 -90 -184l2 -36c40 24 81 36 120 36c80 0 140 -48 140 -121c0 -99 -99 -159 -182 -159c-160 0 -200 173 -200 244c0 21 2 43 7 71l10 35 c26 85 73 115 98 126c41 19 74 24 103 24c93 0 142 -63 142 -105c0 -58 -52 -72 -73 -72c-33 0 -59 24 -65 35c-3 5 -6 14 -7 25l11 30c6 15 9 27 9 35c0 11 -9 16 -25 16z"/>
        </symbol>
        <symbol id="E088-17lyzkx" viewBox="0 0 1000 1000" overflow="inherit">
            <path transform="scale(1,-1)" d="M195 -214c76 0 88 58 90 68c0 34 -35 60 -57 73l-52 29c-21 10 -32 17 -34 20c-39 -33 -58 -54 -62 -92c5 -23 23 -98 115 -98zM301 135c0 61 -72 76 -113 76c-40 0 -77 -17 -77 -51c3 -21 15 -38 26 -50c17 -15 33 -26 48 -34l65 -28c34 27 51 56 51 87zM176 -250 c-57 0 -166 26 -166 132c0 47 30 86 89 116c-33 15 -79 60 -79 119c0 79 85 132 178 132h18c5 0 21 1 28 -1c25 0 126 -30 126 -110c0 -37 -23 -76 -69 -116c43 -25 83 -71 83 -119c0 -101 -118 -153 -208 -153z"/>
        </symbol>
        <symbol id="E0A4-17lyzkx" viewBox="0 0 1000 1000" overflow="inherit">
            <path transform="scale(1,-1)" d="M0 -39c0 68 73 172 200 172c66 0 114 -37 114 -95c0 -84 -106 -171 -218 -171c-64 0 -96 30 -96 94z"/>
        </symbol>
        <symbol id="E062-17lyzkx" viewBox="0 0 1000 1000" overflow="inherit">
            <path transform="scale(1,-1)" d="M582 -120c0 32 26 58 58 58s58 -26 58 -58s-26 -58 -58 -58s-58 26 -58 58zM582 120c0 32 26 58 58 58s58 -26 58 -58s-26 -58 -58 -58s-58 26 -58 58zM158 96c51 0 73 -14 88 -49l16 -39c0 -17 -2 -30 -7 -40c-3 -11 -10 -21 -19 -31c-17 -18 -49 -43 -84 -43 c-55 0 -77 13 -112 44c-24 21 -35 55 -35 100c0 46 14 81 32 112c30 52 71 79 137 93l36 6l26 2c154 0 235 -68 274 -182c11 -32 18 -68 18 -107c0 -103 -26 -182 -68 -250c-89 -145 -234 -230 -412 -288l-30 -5c-9 0 -14 3 -14 8c3 10 5 11 10 16c35 15 70 30 96 44l78 43 c96 57 162 136 197 258c9 33 17 60 22 100c3 22 5 35 6 39c-7 69 -16 115 -23 140s-4 22 -16 40c-8 12 -19 23 -31 34c-24 21 -62 44 -118 44c-48 0 -84 -8 -113 -28c-28 -19 -42 -44 -42 -73v-16c2 -5 3 -9 4 -11c24 22 52 39 84 39z"/>
        </symbol>
        <symbol id="E262-17lyzkx" viewBox="0 0 1000 1000" overflow="inherit">
            <path transform="scale(1,-1)" d="M136 186v169h17v-164l44 14v-91l-44 -14v-165l44 12v-91l-44 -13v-155h-17v150l-76 -22v-155h-17v149l-43 -13v90l43 14v167l-43 -14v92l43 13v169h17v-163zM60 73v-167l76 22v168z"/>
        </symbol>
        <symbol id="E4E5-17lyzkx" viewBox="0 0 1000 1000" overflow="inherit">
            <path transform="scale(1,-1)" d="M107 292c-13 24 -30 49 -52 71c-1 1 0 2 0 3l-2 2c3 3 4 4 6 4c12 0 26 -7 40 -20s44 -40 89 -81c26 -24 28 -29 46 -47c4 -4 8 -9 10 -14c6 -8 8 -16 8 -27c0 -19 -12 -40 -36 -61c-28 -23 -49 -38 -61 -73c-4 -11 -7 -27 -10 -50c13 -43 34 -83 59 -121 c31 -47 59 -79 101 -129c-8 0 -26 7 -54 20l-62 29l-21 6l-23 1c-25 0 -45 -10 -60 -30l-4 -14l-1 -12c0 -33 20 -56 39 -78c8 -9 17 -18 26 -26c17 -15 27 -24 28 -30l-3 -3c-11 5 -19 10 -25 15c-9 3 -37 21 -45 26c-24 14 -45 32 -63 51c-19 21 -37 44 -37 71 c0 63 27 95 80 95c41 0 86 -18 136 -52c-19 26 -37 48 -55 66c-23 23 -48 44 -73 65c-28 23 -47 40 -58 53s-17 26 -18 39c75 64 113 125 113 183c0 27 -7 48 -18 68z"/>
        </symbol>
        <symbol id="E4E6-17lyzkx" viewBox="0 0 1000 1000" overflow="inherit">
            <path transform="scale(1,-1)" d="M0 123c7 34 33 56 69 60c29 -3 43 -9 53 -29c4 -8 7 -15 10 -22c0 -21 -1 -25 -11 -35c-5 -8 -18 -14 -40 -20l12 -3l15 -1c44 0 97 26 122 56c10 11 18 26 24 42c7 1 15 2 22 3l-140 -424h-36l111 330c-10 -6 -27 -12 -53 -16l-52 -8h-10l-20 1c-1 0 -8 3 -21 6 c-37 9 -55 28 -55 60z"/>
        </symbol>
        <symbol id="E4A0-17lyzkx" viewBox="0 0 1000 1000" overflow="inherit">
            <path transform="scale(1,-1)" d="M0 236l347 -119l-347 -117v33l252 84l-252 86v33z"/>
        </symbol>
    </defs>
    <style type="text/css">g.page-margin{font-family:Times,serif;} g.ending, g.fing, g.reh, g.tempo{font-weight:bold;} g.dir, g.dynam, g.mNum{font-style:italic;} g.label{font-weight:normal;}</style>
    <svg class="definition-scale" color="black" viewBox="0 0 19590 2800">
        <g class="page-margin" transform="translate(500, 500)">
            <g id="m1ap5anc" class="mdiv pageMilestone"/>
            <g id="s1h072m2" class="score pageMilestone"/>
            <g id="s7c2gwf" class="system">
                <g id="lj3wgna" class="label">
                    <text x="1105" y="990" text-anchor="end" font-size="0px">
                        <tspan id="t1mj3m4y" class="text">
                            <tspan font-size="405px">Piano</tspan>
                        </tspan>
                    </text>
                </g>
                <g id="s1kroyk4" class="section systemMilestone"/>
                <g id="pP1_m1" class="measure">
                    <g id="s1fps6ke" class="staff">
                        <path d="M1285 540 L5811 540" stroke="currentColor" stroke-width="13"/>
                        <path d="M1285 720 L5811 720" stroke="currentColor" stroke-width="13"/>
                        <path d="M1285 900 L5811 900" stroke="currentColor" stroke-width="13"/>
                        <path d="M1285 1080 L5811 1080" stroke="currentColor" stroke-width="13"/>
                        <path d="M1285 1260 L5811 1260" stroke="currentColor" stroke-width="13"/>
                        <g id="clef1_1" class="clef">
                            <use xlink:href="#E062-17lyzkx" x="1373" y="720" height="720px" width="720px"/>
                        </g>
                        <g id="key1_1" class="keySig">
                            <g id="key1_1.accidental1" class="keyAccid">
                                <use xlink:href="#E262-17lyzkx" x="2054" y="720" height="720px" width="720px"/>
                            </g>
                            <g id="key1_1.accidental2" class="keyAccid">
                                <use xlink:href="#E262-17lyzkx" x="2232" y="990" height="720px" width="720px"/>
                            </g>
                        </g>
                        <g id="time1_1" class="meterSig">
                            <use xlink:href="#E086-17lyzkx" x="2539" y="720" height="720px" width="720px"/>
                            <use xlink:href="#E088-17lyzkx" x="2546" y="1080" height="720px" width="720px"/>
                        </g>
                        <g id="l1n73vci" class="layer">
                            <g id="beam1_parent" class="beam_parent">
                                <polygon points="3098,1485 4016,1305 4016,1215 3098,1395" id="beam1" class="beam"/>
                                <g id="note1" class="note">
                                    <g class="notehead" id="note1.notehead">
                                        <use xlink:href="#E0A4-17lyzkx" x="3098" y="900" height="720px" width="720px"/>
                                    </g>
                                    <g id="note1.stem" class="stem">
                                        <path d="M3107 928 L3107 1467" stroke="currentColor" stroke-width="18"/>
                                    </g>
                                </g>
                                <g id="note2" class="note">
                                    <g class="notehead" id="note2.notehead">
                                        <use xlink:href="#E0A4-17lyzkx" x="3548" y="720" height="720px" width="720px"/>
                                    </g>
                                    <g id="note2.stem" class="stem">
                                        <path d="M3557 748 L3557 1377" stroke="currentColor" stroke-width="18"/>
                                    </g>
                                    <g id="note2.accidental" class="accid"/>
                                </g>
                                <g id="note3" class="note">
                                    <g class="notehead" id="note3.notehead">
                                        <use xlink:href="#E0A4-17lyzkx" x="3998" y="540" height="720px" width="720px"/>
                                    </g>
                                    <g id="note3.stem" class="stem">
                                        <path d="M4007 568 L4007 1287" stroke="currentColor" stroke-width="18"/>
                                    </g>
                                </g>
                            </g>
                            <g id="beam2_parent" class="beam_parent">
                                <polygon points="4448,1485 5366,1485 5366,1395 4448,1395" id="beam2" class="beam"/>
                                <g id="note4" class="note">
                                    <g class="notehead" id="note4.notehead">
                                        <use xlink:href="#E0A4-17lyzkx" x="4448" y="900" height="720px" width="720px"/>
                                    </g>
                                    <g id="note4.stem" class="stem">
                                        <path d="M4457 928 L4457 1467" stroke="currentColor" stroke-width="18"/>
                                    </g>
                                </g>
                                <g id="note5" class="note">
                                    <g class="notehead" id="note5.notehead">
                                        <use xlink:href="#E0A4-17lyzkx" x="4898" y="720" height="720px" width="720px"/>
                                    </g>
                                    <g id="note5.stem" class="stem">
                                        <path d="M4907 748 L4907 1467" stroke="currentColor" stroke-width="18"/>
                                    </g>
                                    <g id="note5.accidental" class="accid"/>
                                </g>
                                <g id="note6" class="note">
                                    <g class="notehead" id="note6.notehead">
                                        <use xlink:href="#E0A4-17lyzkx" x="5348" y="900" height="720px" width="720px"/>
                                    </g>
                                    <g id="note6.stem" class="stem">
                                        <path d="M5357 928 L5357 1467" stroke="currentColor" stroke-width="18"/>
                                    </g>
                                </g>
                            </g>
                        </g>
                    </g>
                    <g id="pP1_m1.right_barline" class="barLine">
                        <path id="pP1_m1.right_barline.barline_tok1" d="M5798 540 L5798 1260" stroke="currentColor" stroke-width="27" class="barline_tok"/>
                    </g>
                </g>
                <g id="pP1_m2" class="measure">
                    <g id="s4ct23l" class="staff">
                        <path d="M5811 540 L8284 540" stroke="currentColor" stroke-width="13"/>
                        <path d="M5811 720 L8284 720" stroke="currentColor" stroke-width="13"/>
                        <path d="M5811 900 L8284 900" stroke="currentColor" stroke-width="13"/>
                        <path d="M5811 1080 L8284 1080" stroke="currentColor" stroke-width="13"/>
                        <path d="M5811 1260 L8284 1260" stroke="currentColor" stroke-width="13"/>
                        <g id="l1st4odg" class="layer">
                            <g id="note7" class="note">
                                <g class="notehead" id="note7.notehead">
                                    <use xlink:href="#E0A4-17lyzkx" x="5991" y="540" height="720px" width="720px"/>
                                </g>
                                <g id="note7.stem" class="stem">
                                    <path d="M6000 568 L6000 1170" stroke="currentColor" stroke-width="18"/>
                                </g>
                            </g>
                            <g id="rest1" class="rest">
                                <use xlink:href="#E4E6-17lyzkx" x="6681" y="900" height="720px" width="720px"/>
                            </g>
                            <g id="note8" class="note">
                                <g class="notehead" id="note8.notehead">
                                    <use xlink:href="#E0A4-17lyzkx" x="7131" y="1170" height="720px" width="720px"/>
                                </g>
                                <g id="note8.stem" class="stem">
                                    <path d="M7140 1198 L7140 1680" stroke="currentColor" stroke-width="18"/>
                                </g>
                                <g id="note8.articulation1.accent" class="artic">
                                    <use xlink:href="#E4A0-17lyzkx" x="7120" y="473" height="720px" width="720px"/>
                                </g>
                            </g>
                            <g id="rest2" class="rest">
                                <use xlink:href="#E4E6-17lyzkx" x="7821" y="900" height="720px" width="720px"/>
                            </g>
                        </g>
                    </g>
                    <g id="pP1_m2.right_barline" class="barLine">
                        <path id="pP1_m2.right_barline.barline_tok1" d="M8271 540 L8271 1260" stroke="currentColor" stroke-width="27" class="barline_tok"/>
                    </g>
                </g>
                <g id="pP1_m3" class="measure">
                    <g id="se8hbmr" class="staff">
                        <path d="M8284 540 L11177 540" stroke="currentColor" stroke-width="13"/>
                        <path d="M8284 720 L11177 720" stroke="currentColor" stroke-width="13"/>
                        <path d="M8284 900 L11177 900" stroke="currentColor" stroke-width="13"/>
                        <path d="M8284 1080 L11177 1080" stroke="currentColor" stroke-width="13"/>
                        <path d="M8284 1260 L11177 1260" stroke="currentColor" stroke-width="13"/>
                        <g class="ledgerLines above">
                            <path d="M10216 360 L10538 360" stroke="currentColor" stroke-width="22"/>
                        </g>
                        <g id="l81ix2h" class="layer">
                            <g id="beam3_parent" class="beam_parent">
                                <polygon points="8464,1665 9382,1485 9382,1395 8464,1575" id="beam3" class="beam"/>
                                <g id="note9" class="note">
                                    <g class="notehead" id="note9.notehead">
                                        <use xlink:href="#E0A4-17lyzkx" x="8464" y="1170" height="720px" width="720px"/>
                                    </g>
                                    <g id="note9.stem" class="stem">
                                        <path d="M8473 1198 L8473 1647" stroke="currentColor" stroke-width="18"/>
                                    </g>
                                </g>
                                <g id="note10" class="note">
                                    <g class="notehead" id="note10.notehead">
                                        <use xlink:href="#E0A4-17lyzkx" x="8914" y="990" height="720px" width="720px"/>
                                    </g>
                                    <g id="note10.stem" class="stem">
                                        <path d="M8923 1018 L8923 1557" stroke="currentColor" stroke-width="18"/>
                                    </g>
                                    <g id="note10.accidental" class="accid"/>
                                </g>
                                <g id="note11" class="note">
                                    <g class="notehead" id="note11.notehead">
                                        <use xlink:href="#E0A4-17lyzkx" x="9364" y="810" height="720px" width="720px"/>
                                    </g>
                                    <g id="note11.stem" class="stem">
                                        <path d="M9373 838 L9373 1467" stroke="currentColor" stroke-width="18"/>
                                    </g>
                                </g>
                            </g>
                            <g id="beam4_parent" class="beam_parent">
                                <polygon points="9814,1125 10732,1125 10732,1035 9814,1035" id="beam4" class="beam"/>
                                <g id="note12" class="note">
                                    <g class="notehead" id="note12.notehead">
                                        <use xlink:href="#E0A4-17lyzkx" x="9814" y="540" height="720px" width="720px"/>
                                    </g>
                                    <g id="note12.stem" class="stem">
                                        <path d="M9823 568 L9823 1107" stroke="currentColor" stroke-width="18"/>
                                    </g>
                                </g>
                                <g id="note13" class="note">
                                    <g class="notehead" id="note13.notehead">
                                        <use xlink:href="#E0A4-17lyzkx" x="10264" y="360" height="720px" width="720px"/>
                                    </g>
                                    <g id="note13.stem" class="stem">
                                        <path d="M10273 388 L10273 1107" stroke="currentColor" stroke-width="18"/>
                                    </g>
                                    <g id="note13.accidental" class="accid"/>
                                </g>
                                <g id="note14" class="note">
                                    <g class="notehead" id="note14.notehead">
                                        <use xlink:href="#E0A4-17lyzkx" x="10714" y="540" height="720px" width="720px"/>
                                    </g>
                                    <g id="note14.stem" class="stem">
                                        <path d="M10723 568 L10723 1107" stroke="currentColor" stroke-width="18"/>
                                    </g>
                                </g>
                            </g>
                        </g>
                    </g>
                    <g id="pP1_m3.right_barline" class="barLine">
                        <path id="pP1_m3.right_barline.barline_tok1" d="M11164 540 L11164 1260" stroke="currentColor" stroke-width="27" class="barline_tok"/>
                    </g>
                </g>
                <g id="pP1_m4" class="measure">
                    <g id="stmlcma" class="staff">
                        <path d="M11177 540 L13650 540" stroke="currentColor" stroke-width="13"/>
                        <path d="M11177 720 L13650 720" stroke="currentColor" stroke-width="13"/>
                        <path d="M11177 900 L13650 900" stroke="currentColor" stroke-width="13"/>
                        <path d="M11177 1080 L13650 1080" stroke="currentColor" stroke-width="13"/>
                        <path d="M11177 1260 L13650 1260" stroke="currentColor" stroke-width="13"/>
                        <g class="ledgerLines above">
                            <path d="M11309 360 L11631 360" stroke="currentColor" stroke-width="22"/>
                        </g>
                        <g id="ljqzim2" class="layer">
                            <g id="note15" class="note">
                                <g class="notehead" id="note15.notehead">
                                    <use xlink:href="#E0A4-17lyzkx" x="11357" y="270" height="720px" width="720px"/>
                                </g>
                                <g id="note15.stem" class="stem">
                                    <path d="M11366 298 L11366 900" stroke="currentColor" stroke-width="18"/>
                                </g>
                            </g>
                            <g id="rest3" class="rest">
                                <use xlink:href="#E4E6-17lyzkx" x="12047" y="900" height="720px" width="720px"/>
                            </g>
                            <g id="note16" class="note">
                                <g class="notehead" id="note16.notehead">
                                    <use xlink:href="#E0A4-17lyzkx" x="12497" y="900" height="720px" width="720px"/>
                                </g>
                                <g id="note16.stem" class="stem">
                                    <path d="M12506 928 L12506 1500" stroke="currentColor" stroke-width="18"/>
                                </g>
                                <g id="note16.articulation1.accent" class="artic">
                                    <use xlink:href="#E4A0-17lyzkx" x="12486" y="473" height="720px" width="720px"/>
                                </g>
                            </g>
                            <g id="rest4" class="rest">
                                <use xlink:href="#E4E6-17lyzkx" x="13187" y="900" height="720px" width="720px"/>
                            </g>
                        </g>
                    </g>
                    <g id="pP1_m4.right_barline" class="barLine">
                        <path id="pP1_m4.right_barline.barline_tok1" d="M13637 540 L13637 1260" stroke="currentColor" stroke-width="27" class="barline_tok"/>
                    </g>
                </g>
                <g id="pP1_m5" class="measure">
                    <g id="s1thbf58" class="staff">
                        <path d="M13650 540 L16123 540" stroke="currentColor" stroke-width="13"/>
                        <path d="M13650 720 L16123 720" stroke="currentColor" stroke-width="13"/>
                        <path d="M13650 900 L16123 900" stroke="currentColor" stroke-width="13"/>
                        <path d="M13650 1080 L16123 1080" stroke="currentColor" stroke-width="13"/>
                        <path d="M13650 1260 L16123 1260" stroke="currentColor" stroke-width="13"/>
                        <g id="l1gl1va9" class="layer">
                            <g id="note17" class="note">
                                <g class="notehead" id="note17.notehead">
                                    <use xlink:href="#E0A4-17lyzkx" x="13830" y="630" height="720px" width="720px"/>
                                </g>
                                <g id="note17.stem" class="stem">
                                    <path d="M13839 658 L13839 1260" stroke="currentColor" stroke-width="18"/>
                                </g>
                            </g>
                            <g id="rest5" class="rest">
                                <use xlink:href="#E4E6-17lyzkx" x="14520" y="900" height="720px" width="720px"/>
                            </g>
                            <g id="rest6" class="rest">
                                <use xlink:href="#E4E5-17lyzkx" x="14970" y="900" height="720px" width="720px"/>
                            </g>
                            <g id="rest7" class="rest">
                                <use xlink:href="#E4E6-17lyzkx" x="15660" y="900" height="720px" width="720px"/>
                            </g>
                        </g>
                    </g>
                    <g id="pP1_m5.right_barline" class="barLine">
                        <path id="pP1_m5.right_barline.barline_tok1" d="M16110 540 L16110 1260" stroke="currentColor" stroke-width="27" class="barline_tok"/>
                    </g>
                </g>
                <g id="pP1_m6" class="measure">
                    <g id="suedw69" class="staff">
                        <path d="M16123 540 L18596 540" stroke="currentColor" stroke-width="13"/>
                        <path d="M16123 720 L18596 720" stroke="currentColor" stroke-width="13"/>
                        <path d="M16123 900 L18596 900" stroke="currentColor" stroke-width="13"/>
                        <path d="M16123 1080 L18596 1080" stroke="currentColor" stroke-width="13"/>
                        <path d="M16123 1260 L18596 1260" stroke="currentColor" stroke-width="13"/>
                        <g id="llmxi0i" class="layer">
                            <g id="note18" class="note">
                                <g class="notehead" id="note18.notehead">
                                    <use xlink:href="#E0A4-17lyzkx" x="16303" y="540" height="720px" width="720px"/>
                                </g>
                                <g id="note18.stem" class="stem">
                                    <path d="M16312 568 L16312 1170" stroke="currentColor" stroke-width="18"/>
                                </g>
                            </g>
                            <g id="rest8" class="rest">
                                <use xlink:href="#E4E6-17lyzkx" x="16993" y="900" height="720px" width="720px"/>
                            </g>
                            <g id="rest9" class="rest">
                                <use xlink:href="#E4E5-17lyzkx" x="17443" y="900" height="720px" width="720px"/>
                            </g>
                            <g id="rest10" class="rest">
                                <use xlink:href="#E4E6-17lyzkx" x="18133" y="900" height="720px" width="720px"/>
                            </g>
                        </g>
                    </g>
                    <g id="pP1_m6.right_barline" class="barLine">
                        <path id="pP1_m6.right_barline.barline_tok1" d="M18583 540 L18583 1260" stroke="currentColor" stroke-width="27" class="barline_tok"/>
                    </g>
                </g>
                <g id="sfmiyrx" class="systemMilestoneEnd s1kroyk4"/>
            </g>
            <g id="p1rx8326" class="pageMilestoneEnd s1h072m2"/>
            <g id="p1m3bdrq" class="pageMilestoneEnd m1ap5anc"/>
        </g>
    </svg>
</svg>