<svg xmlns="http://www.w3.org/2000/svg" xmlns:xlink="http://www.w3.org/1999/xlink" xmlns:mei="http://www.music-encoding.org/ns/mei" width="1880px" height="280px" version="1.1" overflow="visible">
    <desc>Engraved by Verovio 4.3.0-dev-ba68db3-dirty</desc>
    <defs>
        <symbol id="E0A3-1mtovwi" viewBox="0 0 1000 1000" overflow="inherit">
            <path transform="scale(1,-1)" d="M278 64c0 22 -17 39 -43 39c-12 0 -26 -3 -41 -10c-85 -43 -165 -94 -165 -156c5 -25 15 -32 49 -32c67 11 200 95 200 159zM0 -36c0 68 73 174 200 174c66 0 114 -39 114 -97c0 -84 -106 -173 -218 -173c-64 0 -96 32 -96 96z"/>
        </symbol>
        <symbol id="E086-1mtovwi" viewBox="0 0 1000 1000" overflow="inherit">
            <path transform="scale(1,-1)" d="M284 -91c0 37 -28 92 -67 92c-35 0 -65 -54 -65 -111c0 -52 22 -104 68 -104c47 0 64 68 64 123zM230 214c-36 0 -90 -33 -90 -184l2 -36c40 24 81 36 120 36c80 0 140 -48 140 -121c0 -99 -99 -159 -182 -159c-160 0 -200 173 -200 244c0 21 2 43 7 71l10 35 c26 85 73 115 98 126c41 19 74 24 103 24c93 0 142 -63 142 -105c0 -58 -52 -72 -73 -72c-33 0 -59 24 -65 35c-3 5 -6 14 -7 25l11 30c6 15 9 27 9 35c0 11 -9 16 -25 16z"/>
        </symbol>
        <symbol id="E088-1mtovwi" viewBox="0 0 1000 1000" overflow="inherit">
            <path transform="scale(1,-1)" d="M195 -214c76 0 88 58 90 68c0 34 -35 60 -57 73l-52 29c-21 10 -32 17 -34 20c-39 -33 -58 -54 -62 -92c5 -23 23 -98 115 -98zM301 135c0 61 -72 76 -113 76c-40 0 -77 -17 -77 -51c3 -21 15 -38 26 -50c17 -15 33 -26 48 -34l65 -28c34 27 51 56 51 87zM176 -250 c-57 0 -166 26 -166 132c0 47 30 86 89 116c-33 15 -79 60 -79 119c0 79 85 132 178 132h18c5 0 21 1 28 -1c25 0 126 -30 126 -110c0 -37 -23 -76 -69 -116c43 -25 83 -71 83 -119c0 -101 -118 -153 -208 -153z"/>
        </symbol>
        <symbol id="E0A4-1mtovwi" viewBox="0 0 1000 1000" overflow="inherit">
            <path transform="scale(1,-1)" d="M0 -39c0 68 73 172 200 172c66 0 114 -37 114 -95c0 -84 -106 -171 -218 -171c-64 0 -96 30 -96 94z"/>
        </symbol>
        <symbol id="E050-1mtovwi" viewBox="0 0 1000 1000" overflow="inherit">
            <path transform="scale(1,-1)" d="M441 -245c-23 -4 -48 -6 -76 -6c-59 0 -102 7 -130 20c-88 42 -150 93 -187 154c-26 44 -43 103 -48 176c0 6 -1 13 -1 19c0 54 15 111 45 170c29 57 65 106 110 148s96 85 153 127c-3 16 -8 46 -13 92c-4 43 -5 73 -5 89c0 117 16 172 69 257c34 54 64 82 89 82 c21 0 43 -30 69 -92s39 -115 41 -159v-15c0 -109 -21 -162 -67 -241c-13 -20 -63 -90 -98 -118c-13 -9 -25 -19 -37 -29l31 -181c8 1 18 2 28 2c58 0 102 -12 133 -35c59 -43 92 -104 98 -184c1 -7 1 -15 1 -22c0 -123 -87 -209 -181 -248c8 -57 17 -110 25 -162 c5 -31 6 -58 6 -80c0 -30 -5 -53 -14 -70c-35 -64 -88 -99 -158 -103c-5 0 -11 -1 -16 -1c-37 0 -72 10 -108 27c-50 24 -77 59 -80 105v11c0 29 7 55 20 76c18 28 45 42 79 44h6c49 0 93 -42 97 -87v-9c0 -51 -34 -86 -105 -106c17 -24 51 -36 102 -36c62 0 116 43 140 85 c9 16 13 41 13 74c0 20 -1 42 -5 67c-8 53 -18 106 -26 159zM461 939c-95 0 -135 -175 -135 -286c0 -24 2 -48 5 -71c50 39 92 82 127 128c40 53 60 100 60 140v8c-4 53 -22 81 -55 81h-2zM406 119l54 -326c73 25 110 78 110 161c0 7 0 15 -1 23c-7 95 -57 142 -151 142h-12 zM382 117c-72 -2 -128 -47 -128 -120v-7c2 -46 43 -99 75 -115c-3 -2 -7 -5 -10 -10c-70 33 -116 88 -123 172v11c0 68 44 126 88 159c23 17 49 29 78 36l-29 170c-21 -13 -52 -37 -92 -73c-50 -44 -86 -84 -109 -119c-45 -69 -67 -130 -67 -182v-13c5 -68 35 -127 93 -176 s125 -73 203 -73c25 0 50 3 75 9c-19 111 -36 221 -54 331z"/>
        </symbol>
        <symbol id="E262-1mtovwi" viewBox="0 0 1000 1000" overflow="inherit">
            <path transform="scale(1,-1)" d="M136 186v169h17v-164l44 14v-91l-44 -14v-165l44 12v-91l-44 -13v-155h-17v150l-76 -22v-155h-17v149l-43 -13v90l43 14v167l-43 -14v92l43 13v169h17v-163zM60 73v-167l76 22v168z"/>
        </symbol>
        <symbol id="E4E6-1mtovwi" viewBox="0 0 1000 1000" overflow="inherit">
            <path transform="scale(1,-1)" d="M0 123c7 34 33 56 69 60c29 -3 43 -9 53 -29c4 -8 7 -15 10 -22c0 -21 -1 -25 -11 -35c-5 -8 -18 -14 -40 -20l12 -3l15 -1c44 0 97 26 122 56c10 11 18 26 24 42c7 1 15 2 22 3l-140 -424h-36l111 330c-10 -6 -27 -12 -53 -16l-52 -8h-10l-20 1c-1 0 -8 3 -21 6 c-37 9 -55 28 -55 60z"/>
        </symbol>
        <symbol id="E220-1mtovwi" viewBox="0 0 1000 1000" overflow="inherit">
            <path transform="scale(1,-1)" d="M-163 -25l326 150v-100l-326 -150v100z"/>
        </symbol>
        <symbol id="E221-1mtovwi" viewBox="0 0 1000 1000" overflow="inherit">
            <path transform="scale(1,-1)" d="M-163 -112l326 150v-100l-326 -150v100zM-163 63l326 150v-100l-326 -150v100z"/>
        </symbol>
        <symbol id="E4A0-1mtovwi" viewBox="0 0 1000 1000" overflow="inherit">
            <path transform="scale(1,-1)" d="M0 236l347 -119l-347 -117v33l252 84l-252 86v33z"/>
        </symbol>
    </defs>
    <style type="text/css">g.page-margin{font-family:Times,serif;} g.ending, g.fing, g.reh, g.tempo{font-weight:bold;} g.dir, g.dynam, g.mNum{font-style:italic;} g.label{font-weight:normal;}</style>
    <svg class="definition-scale" color="black" viewBox="0 0 18800 2800">
        <g class="page-margin" transform="translate(500, 500)">
            <g id="m19kc6rr" class="mdiv pageMilestone"/>
            <g id="snbe48r" class="score pageMilestone"/>
            <g id="s1v4e8wq" class="system">
                <g id="ljllxem" class="label">
                    <text x="1105" y="990" text-anchor="end" font-size="0px">
                        <tspan id="t12lndu0" class="text">
                            <tspan font-size="405px">Piano</tspan>
                        </tspan>
                    </text>
                </g>
                <g id="s1bgpjf6" class="section systemMilestone"/>
                <g id="pP1_m1" class="measure">
                    <g id="srmh14l" class="staff">
                        <path d="M1285 540 L4417 540" stroke="currentColor" stroke-width="13"/>
                        <path d="M1285 720 L4417 720" stroke="currentColor" stroke-width="13"/>
                        <path d="M1285 900 L4417 900" stroke="currentColor" stroke-width="13"/>
                        <path d="M1285 1080 L4417 1080" stroke="currentColor" stroke-width="13"/>
                        <path d="M1285 1260 L4417 1260" stroke="currentColor" stroke-width="13"/>
                        <g id="clef1_1" class="clef">
                            <use xlink:href="#E050-1mtovwi" x="1375" y="1080" height="720px" width="720px"/>
                        </g>
                        <g id="key1_1" class="keySig">
                            <g id="key1_1.accidental1" class="keyAccid">
                                <use xlink:href="#E262-1mtovwi" x="2020" y="540" height="720px" width="720px"/>
                            </g>
                            <g id="key1_1.accidental2" class="keyAccid">
                                <use xlink:href="#E262-1mtovwi" x="2198" y="810" height="720px" width="720px"/>
                            </g>
                        </g>
                        <g id="time1_1" class="meterSig">
                            <use xlink:href="#E086-1mtovwi" x="2505" y="720" height="720px" width="720px"/>
                            <use xlink:href="#E088-1mtovwi" x="2512" y="1080" height="720px" width="720px"/>
                        </g>
                        <g id="lbd4o5j" class="layer">
                            <g id="note1.tremolo_single" class="bTrem">
                                <use xlink:href="#E221-1mtovwi" x="3073" y="1323" height="720px" width="720px" id="note1.tremolo_single.line1" class="bTrem_line"/>
                                <g id="chord.note1_note2" class="chord">
                                    <g id="chord.note1_note2.dots_parent" class="dots">
                                        <ellipse cx="3380" cy="990" rx="36" ry="36" class="single_dot" id="note1.dot1"/>
                                        <ellipse cx="3380" cy="450" rx="36" ry="36" class="single_dot" id="note2.dot1"/>
                                    </g>
                                    <g id="chord.note1_note2.stem" class="stem">
                                        <path d="M3073 565 L3073 1560" stroke="currentColor" stroke-width="18"/>
                                    </g>
                                    <g id="note1" class="note">
                                        <g class="notehead" id="note1.notehead">
                                            <use xlink:href="#E0A3-1mtovwi" x="3064" y="990" height="720px" width="720px"/>
                                        </g>
                                    </g>
                                    <g id="note2" class="note">
                                        <g class="notehead" id="note2.notehead">
                                            <use xlink:href="#E0A3-1mtovwi" x="3064" y="540" height="720px" width="720px"/>
                                        </g>
                                        <g id="note2.accidental" class="accid"/>
                                    </g>
                                </g>
                            </g>
                        </g>
                    </g>
                    <g id="pP1_m1.right_barline" class="barLine">
                        <path id="pP1_m1.right_barline.barline_tok1" d="M4404 540 L4404 1260" stroke="currentColor" stroke-width="27" class="barline_tok"/>
                    </g>
                </g>
                <g id="pP1_m2" class="measure">
                    <g id="sanu3mx" class="staff">
                        <path d="M4417 540 L6890 540" stroke="currentColor" stroke-width="13"/>
                        <path d="M4417 720 L6890 720" stroke="currentColor" stroke-width="13"/>
                        <path d="M4417 900 L6890 900" stroke="currentColor" stroke-width="13"/>
                        <path d="M4417 1080 L6890 1080" stroke="currentColor" stroke-width="13"/>
                        <path d="M4417 1260 L6890 1260" stroke="currentColor" stroke-width="13"/>
                        <g id="ldntzdt" class="layer">
                            <g id="chord.note3_note4" class="chord">
                                <g id="chord.note3_note4.stem" class="stem">
                                    <path d="M4606 658 L4606 1560" stroke="currentColor" stroke-width="18"/>
                                </g>
                                <g id="note3" class="note">
                                    <g class="notehead" id="note3.notehead">
                                        <use xlink:href="#E0A4-1mtovwi" x="4597" y="990" height="720px" width="720px"/>
                                    </g>
                                </g>
                                <g id="note4" class="note">
                                    <g class="notehead" id="note4.notehead">
                                        <use xlink:href="#E0A4-1mtovwi" x="4597" y="630" height="720px" width="720px"/>
                                    </g>
                                </g>
                            </g>
                            <g id="rest1" class="rest">
                                <use xlink:href="#E4E6-1mtovwi" x="5287" y="900" height="720px" width="720px"/>
                            </g>
                            <g id="chord.note5_note6" class="chord">
                                <g id="chord.note5_note6.stem" class="stem">
                                    <path d="M5746 568 L5746 1560" stroke="currentColor" stroke-width="18"/>
                                </g>
                                <g id="note5.articulation1.accent" class="artic">
                                    <use xlink:href="#E4A0-1mtovwi" x="5726" y="383" height="720px" width="720px"/>
                                </g>
                                <g id="note5" class="note">
                                    <g class="notehead" id="note5.notehead">
                                        <use xlink:href="#E0A4-1mtovwi" x="5737" y="990" height="720px" width="720px"/>
                                    </g>
                                </g>
                                <g id="note6" class="note">
                                    <g class="notehead" id="note6.notehead">
                                        <use xlink:href="#E0A4-1mtovwi" x="5737" y="540" height="720px" width="720px"/>
                                    </g>
                                    <g id="note6.accidental" class="accid"/>
                                </g>
                            </g>
                            <g id="rest2" class="rest">
                                <use xlink:href="#E4E6-1mtovwi" x="6427" y="900" height="720px" width="720px"/>
                            </g>
                        </g>
                    </g>
                    <g id="pP1_m2.right_barline" class="barLine">
                        <path id="pP1_m2.right_barline.barline_tok1" d="M6877 540 L6877 1260" stroke="currentColor" stroke-width="27" class="barline_tok"/>
                    </g>
                </g>
                <g id="pP1_m3" class="measure">
                    <g id="s1cmlag9" class="staff">
                        <path d="M6890 540 L8423 540" stroke="currentColor" stroke-width="13"/>
                        <path d="M6890 720 L8423 720" stroke="currentColor" stroke-width="13"/>
                        <path d="M6890 900 L8423 900" stroke="currentColor" stroke-width="13"/>
                        <path d="M6890 1080 L8423 1080" stroke="currentColor" stroke-width="13"/>
                        <path d="M6890 1260 L8423 1260" stroke="currentColor" stroke-width="13"/>
                        <g id="l1ii2r2v" class="layer">
                            <g id="note7.tremolo_single" class="bTrem">
                                <use xlink:href="#E221-1mtovwi" x="7079" y="1323" height="720px" width="720px" id="note7.tremolo_single.line1" class="bTrem_line"/>
                                <g id="chord.note7_note8" class="chord">
                                    <g id="chord.note7_note8.dots_parent" class="dots">
                                        <ellipse cx="7386" cy="990" rx="36" ry="36" class="single_dot" id="note7.dot1"/>
                                        <ellipse cx="7386" cy="630" rx="36" ry="36" class="single_dot" id="note8.dot1"/>
                                    </g>
                                    <g id="chord.note7_note8.stem" class="stem">
                                        <path d="M7079 655 L7079 1560" stroke="currentColor" stroke-width="18"/>
                                    </g>
                                    <g id="note7" class="note">
                                        <g class="notehead" id="note7.notehead">
                                            <use xlink:href="#E0A3-1mtovwi" x="7070" y="990" height="720px" width="720px"/>
                                        </g>
                                    </g>
                                    <g id="note8" class="note">
                                        <g class="notehead" id="note8.notehead">
                                            <use xlink:href="#E0A3-1mtovwi" x="7070" y="630" height="720px" width="720px"/>
                                        </g>
                                    </g>
                                </g>
                            </g>
                        </g>
                    </g>
                    <g id="pP1_m3.right_barline" class="barLine">
                        <path id="pP1_m3.right_barline.barline_tok1" d="M8410 540 L8410 1260" stroke="currentColor" stroke-width="27" class="barline_tok"/>
                    </g>
                </g>
                <g id="pP1_m4" class="measure">
                    <g id="s1bn1kq0" class="staff">
                        <path d="M8423 540 L10896 540" stroke="currentColor" stroke-width="13"/>
                        <path d="M8423 720 L10896 720" stroke="currentColor" stroke-width="13"/>
                        <path d="M8423 900 L10896 900" stroke="currentColor" stroke-width="13"/>
                        <path d="M8423 1080 L10896 1080" stroke="currentColor" stroke-width="13"/>
                        <path d="M8423 1260 L10896 1260" stroke="currentColor" stroke-width="13"/>
                        <g id="lh9813n" class="layer">
                            <g id="chord.note9_note10" class="chord">
                                <g id="chord.note9_note10.stem" class="stem">
                                    <path d="M8612 568 L8612 1560" stroke="currentColor" stroke-width="18"/>
                                </g>
                                <g id="note9" class="note">
                                    <g class="notehead" id="note9.notehead">
                                        <use xlink:href="#E0A4-1mtovwi" x="8603" y="990" height="720px" width="720px"/>
                                    </g>
                                </g>
                                <g id="note10" class="note">
                                    <g class="notehead" id="note10.notehead">
                                        <use xlink:href="#E0A4-1mtovwi" x="8603" y="540" height="720px" width="720px"/>
                                    </g>
                                    <g id="note10.accidental" class="accid"/>
                                </g>
                            </g>
                            <g id="rest3" class="rest">
                                <use xlink:href="#E4E6-1mtovwi" x="9293" y="900" height="720px" width="720px"/>
                            </g>
                            <g id="chord.note11_note12" class="chord">
                                <g id="chord.note11_note12.stem" class="stem">
                                    <path d="M9752 568 L9752 1560" stroke="currentColor" stroke-width="18"/>
                                </g>
                                <g id="note11.articulation1.accent" class="artic">
                                    <use xlink:href="#E4A0-1mtovwi" x="9732" y="383" height="720px" width="720px"/>
                                </g>
                                <g id="note11" class="note">
                                    <g class="notehead" id="note11.notehead">
                                        <use xlink:href="#E0A4-1mtovwi" x="9743" y="990" height="720px" width="720px"/>
                                    </g>
                                </g>
                                <g id="note12" class="note">
                                    <g class="notehead" id="note12.notehead">
                                        <use xlink:href="#E0A4-1mtovwi" x="9743" y="540" height="720px" width="720px"/>
                                    </g>
                                    <g id="note12.accidental" class="accid"/>
                                </g>
                            </g>
                            <g id="rest4" class="rest">
                                <use xlink:href="#E4E6-1mtovwi" x="10433" y="900" height="720px" width="720px"/>
                            </g>
                        </g>
                    </g>
                    <g id="pP1_m4.right_barline" class="barLine">
                        <path id="pP1_m4.right_barline.barline_tok1" d="M10883 540 L10883 1260" stroke="currentColor" stroke-width="27" class="barline_tok"/>
                    </g>
                </g>
                <g id="pP1_m5" class="measure">
                    <g id="s10ff8xy" class="staff">
                        <path d="M10896 540 L13199 540" stroke="currentColor" stroke-width="13"/>
                        <path d="M10896 720 L13199 720" stroke="currentColor" stroke-width="13"/>
                        <path d="M10896 900 L13199 900" stroke="currentColor" stroke-width="13"/>
                        <path d="M10896 1080 L13199 1080" stroke="currentColor" stroke-width="13"/>
                        <path d="M10896 1260 L13199 1260" stroke="currentColor" stroke-width="13"/>
                        <g id="l16vf1z4" class="layer">
                            <g id="rest5" class="rest">
                                <use xlink:href="#E4E6-1mtovwi" x="11076" y="900" height="720px" width="720px"/>
                            </g>
                            <g id="note13.tremolo_single" class="bTrem">
                                <use xlink:href="#E220-1mtovwi" x="11743" y="900" height="720px" width="720px" id="note13.tremolo_single.line1" class="bTrem_line"/>
                                <g id="note13" class="note">
                                    <g class="notehead" id="note13.notehead">
                                        <use xlink:href="#E0A4-1mtovwi" x="11526" y="1260" height="720px" width="720px"/>
                                    </g>
                                    <g id="note13.stem" class="stem">
                                        <path d="M11743 1232 L11743 630" stroke="currentColor" stroke-width="18"/>
                                    </g>
                                </g>
                            </g>
                            <g id="note14.tremolo_single" class="bTrem">
                                <use xlink:href="#E220-1mtovwi" x="12433" y="900" height="720px" width="720px" id="note14.tremolo_single.line1" class="bTrem_line"/>
                                <g id="note14" class="note">
                                    <g class="notehead" id="note14.notehead">
                                        <use xlink:href="#E0A4-1mtovwi" x="12216" y="1260" height="720px" width="720px"/>
                                    </g>
                                    <g id="note14.dots_parent" class="dots">
                                        <ellipse cx="12532" cy="1170" rx="36" ry="36" id="note14.dot1" class="single_dot"/>
                                    </g>
                                    <g id="note14.stem" class="stem">
                                        <path d="M12433 1232 L12433 630" stroke="currentColor" stroke-width="18"/>
                                    </g>
                                </g>
                            </g>
                        </g>
                    </g>
                    <g id="pP1_m5.right_barline" class="barLine">
                        <path id="pP1_m5.right_barline.barline_tok1" d="M13186 540 L13186 1260" stroke="currentColor" stroke-width="27" class="barline_tok"/>
                    </g>
                </g>
                <g id="pP1_m6" class="measure">
                    <g id="sn5emc5" class="staff">
                        <path d="M13199 540 L15502 540" stroke="currentColor" stroke-width="13"/>
                        <path d="M13199 720 L15502 720" stroke="currentColor" stroke-width="13"/>
                        <path d="M13199 900 L15502 900" stroke="currentColor" stroke-width="13"/>
                        <path d="M13199 1080 L15502 1080" stroke="currentColor" stroke-width="13"/>
                        <path d="M13199 1260 L15502 1260" stroke="currentColor" stroke-width="13"/>
                        <g id="lqraafx" class="layer">
                            <g id="rest6" class="rest">
                                <use xlink:href="#E4E6-1mtovwi" x="13379" y="900" height="720px" width="720px"/>
                            </g>
                            <g id="note15.tremolo_single" class="bTrem">
                                <use xlink:href="#E220-1mtovwi" x="14046" y="1080" height="720px" width="720px" id="note15.tremolo_single.line1" class="bTrem_line"/>
                                <g id="note15" class="note">
                                    <g class="notehead" id="note15.notehead">
                                        <use xlink:href="#E0A4-1mtovwi" x="13829" y="1350" height="720px" width="720px"/>
                                    </g>
                                    <g id="note15.stem" class="stem">
                                        <path d="M14046 1322 L14046 720" stroke="currentColor" stroke-width="18"/>
                                    </g>
                                </g>
                            </g>
                            <g id="note16.tremolo_single" class="bTrem">
                                <use xlink:href="#E220-1mtovwi" x="14736" y="1080" height="720px" width="720px" id="note16.tremolo_single.line1" class="bTrem_line"/>
                                <g id="note16" class="note">
                                    <g class="notehead" id="note16.notehead">
                                        <use xlink:href="#E0A4-1mtovwi" x="14519" y="1350" height="720px" width="720px"/>
                                    </g>
                                    <g id="note16.dots_parent" class="dots">
                                        <ellipse cx="14835" cy="1350" rx="36" ry="36" id="note16.dot1" class="single_dot"/>
                                    </g>
                                    <g id="note16.stem" class="stem">
                                        <path d="M14736 1322 L14736 720" stroke="currentColor" stroke-width="18"/>
                                    </g>
                                </g>
                            </g>
                        </g>
                    </g>
                    <g id="pP1_m6.right_barline" class="barLine">
                        <path id="pP1_m6.right_barline.barline_tok1" d="M15489 540 L15489 1260" stroke="currentColor" stroke-width="27" class="barline_tok"/>
                    </g>
                </g>
                <g id="pP1_m7" class="measure">
                    <g id="s1jh8fyq" class="staff">
                        <path d="M15502 540 L17805 540" stroke="currentColor" stroke-width="13"/>
                        <path d="M15502 720 L17805 720" stroke="currentColor" stroke-width="13"/>
                        <path d="M15502 900 L17805 900" stroke="currentColor" stroke-width="13"/>
                        <path d="M15502 1080 L17805 1080" stroke="currentColor" stroke-width="13"/>
                        <path d="M15502 1260 L17805 1260" stroke="currentColor" stroke-width="13"/>
                        <g class="ledgerLines below">
                            <path d="M16084 1440 L16406 1440" stroke="currentColor" stroke-width="22"/>
                            <path d="M16774 1440 L17096 1440" stroke="currentColor" stroke-width="22"/>
                        </g>
                        <g id="l4b08v0" class="layer">
                            <g id="rest7" class="rest">
                                <use xlink:href="#E4E6-1mtovwi" x="15682" y="900" height="720px" width="720px"/>
                            </g>
                            <g id="note17.tremolo_single" class="bTrem">
                                <use xlink:href="#E220-1mtovwi" x="16349" y="1080" height="720px" width="720px" id="note17.tremolo_single.line1" class="bTrem_line"/>
                                <g id="note17" class="note">
                                    <g class="notehead" id="note17.notehead">
                                        <use xlink:href="#E0A4-1mtovwi" x="16132" y="1440" height="720px" width="720px"/>
                                    </g>
                                    <g id="note17.stem" class="stem">
                                        <path d="M16349 1412 L16349 810" stroke="currentColor" stroke-width="18"/>
                                    </g>
                                    <g id="note17.accidental" class="accid"/>
                                </g>
                            </g>
                            <g id="note18.tremolo_single" class="bTrem">
                                <use xlink:href="#E220-1mtovwi" x="17039" y="1080" height="720px" width="720px" id="note18.tremolo_single.line1" class="bTrem_line"/>
                                <g id="note18" class="note">
                                    <g class="notehead" id="note18.notehead">
                                        <use xlink:href="#E0A4-1mtovwi" x="16822" y="1440" height="720px" width="720px"/>
                                    </g>
                                    <g id="note18.dots_parent" class="dots">
                                        <ellipse cx="17138" cy="1350" rx="36" ry="36" id="note18.dot1" class="single_dot"/>
                                    </g>
                                    <g id="note18.stem" class="stem">
                                        <path d="M17039 1412 L17039 810" stroke="currentColor" stroke-width="18"/>
                                    </g>
                                    <g id="note18.accidental" class="accid"/>
                                </g>
                            </g>
                        </g>
                    </g>
                    <g id="pP1_m7.right_barline" class="barLine">
                        <path id="pP1_m7.right_barline.barline_tok1" d="M17792 540 L17792 1260" stroke="currentColor" stroke-width="27" class="barline_tok"/>
                    </g>
                </g>
                <g id="s13c9nwn" class="systemMilestoneEnd s1bgpjf6"/>
            </g>
            <g id="pznyrgs" class="pageMilestoneEnd snbe48r"/>
            <g id="p1uofe7l" class="pageMilestoneEnd m19kc6rr"/>
        </g>
    </svg>
</svg>