<svg xmlns="http://www.w3.org/2000/svg" xmlns:xlink="http://www.w3.org/1999/xlink" xmlns:mei="http://www.music-encoding.org/ns/mei" width="2591px" height="280px" version="1.1" overflow="visible">
    <desc>Engraved by Verovio 4.3.0-dev-ba68db3-dirty</desc>
    <defs>
        <symbol id="E0A3-1qdnbjo" viewBox="0 0 1000 1000" overflow="inherit">
            <path transform="scale(1,-1)" d="M278 64c0 22 -17 39 -43 39c-12 0 -26 -3 -41 -10c-85 -43 -165 -94 -165 -156c5 -25 15 -32 49 -32c67 11 200 95 200 159zM0 -36c0 68 73 174 200 174c66 0 114 -39 114 -97c0 -84 -106 -173 -218 -173c-64 0 -96 32 -96 96z"/>
        </symbol>
        <symbol id="E082-1qdnbjo" viewBox="0 0 1000 1000" overflow="inherit">
            <path transform="scale(1,-1)" d="M124 -185c-18 0 -55 -14 -65 -65h-36l-3 30c0 25 6 45 18 63c11 19 22 30 39 43l121 82l37 29c15 11 27 29 38 54c12 24 18 47 18 70c0 40 -19 88 -94 88c-25 0 -32 0 -50 -8c-14 -5 -23 -12 -26 -22c3 -9 7 -15 10 -18l24 -17c12 -7 17 -11 27 -21c5 -7 7 -16 7 -27 c0 -12 0 -57 -79 -74c-30 0 -76 26 -76 94c0 66 81 135 197 135c72 0 181 -32 181 -150c0 -53 -32 -95 -113 -133l-91 -41c-26 -11 -45 -23 -57 -37l49 7c84 0 115 -41 148 -41c20 0 33 20 39 61h35c0 -152 -68 -168 -114 -168c-17 0 -65 0 -79 7h10l-28 17 c-49 37 -69 40 -87 42z"/>
        </symbol>
        <symbol id="E084-1qdnbjo" viewBox="0 0 1000 1000" overflow="inherit">
            <path transform="scale(1,-1)" d="M20 -78c84 97 114 180 134 329h170c-13 -32 -82 -132 -99 -151l-84 -97c-33 -36 -59 -63 -80 -81h162v102l127 123v-225h57v-39h-57v-34c0 -43 19 -65 57 -65v-34h-244v36c48 0 60 26 60 70v27h-203v39z"/>
        </symbol>
        <symbol id="E0A4-1qdnbjo" viewBox="0 0 1000 1000" overflow="inherit">
            <path transform="scale(1,-1)" d="M0 -39c0 68 73 172 200 172c66 0 114 -37 114 -95c0 -84 -106 -171 -218 -171c-64 0 -96 30 -96 94z"/>
        </symbol>
        <symbol id="E4E5-1qdnbjo" viewBox="0 0 1000 1000" overflow="inherit">
            <path transform="scale(1,-1)" d="M107 292c-13 24 -30 49 -52 71c-1 1 0 2 0 3l-2 2c3 3 4 4 6 4c12 0 26 -7 40 -20s44 -40 89 -81c26 -24 28 -29 46 -47c4 -4 8 -9 10 -14c6 -8 8 -16 8 -27c0 -19 -12 -40 -36 -61c-28 -23 -49 -38 -61 -73c-4 -11 -7 -27 -10 -50c13 -43 34 -83 59 -121 c31 -47 59 -79 101 -129c-8 0 -26 7 -54 20l-62 29l-21 6l-23 1c-25 0 -45 -10 -60 -30l-4 -14l-1 -12c0 -33 20 -56 39 -78c8 -9 17 -18 26 -26c17 -15 27 -24 28 -30l-3 -3c-11 5 -19 10 -25 15c-9 3 -37 21 -45 26c-24 14 -45 32 -63 51c-19 21 -37 44 -37 71 c0 63 27 95 80 95c41 0 86 -18 136 -52c-19 26 -37 48 -55 66c-23 23 -48 44 -73 65c-28 23 -47 40 -58 53s-17 26 -18 39c75 64 113 125 113 183c0 27 -7 48 -18 68z"/>
        </symbol>
    </defs>
    <style type="text/css">g.page-margin{font-family:Times,serif;} g.ending, g.fing, g.reh, g.tempo{font-weight:bold;} g.dir, g.dynam, g.mNum{font-style:italic;} g.label{font-weight:normal;}</style>
    <svg class="definition-scale" color="black" viewBox="0 0 25910 2800">
        <g class="page-margin" transform="translate(500, 500)">
            <g id="mf7kzk2" class="mdiv pageMilestone"/>
            <g id="s12jmxyp" class="score pageMilestone"/>
            <g id="srhlraz" class="system">
                <g id="l1qb6kzn" class="label">
                    <text x="1105" y="990" text-anchor="end" font-size="0px">
                        <tspan id="t1dz9k2f" class="text">
                            <tspan font-size="405px">Piano</tspan>
                        </tspan>
                    </text>
                </g>
                <g id="smm35r2" class="section systemMilestone"/>
                <g id="pP1_m1" class="measure">
                    <g id="s1470ikd" class="staff">
                        <path d="M1285 540 L3537 540" stroke="currentColor" stroke-width="13"/>
                        <path d="M1285 720 L3537 720" stroke="currentColor" stroke-width="13"/>
                        <path d="M1285 900 L3537 900" stroke="currentColor" stroke-width="13"/>
                        <path d="M1285 1080 L3537 1080" stroke="currentColor" stroke-width="13"/>
                        <path d="M1285 1260 L3537 1260" stroke="currentColor" stroke-width="13"/>
                        <g id="clef1_1" class="clef" visibility="hidden"/>
                        <g id="key1_1" class="keySig" visibility="hidden"/>
                        <g id="time1_1" class="meterSig">
                            <use xlink:href="#E082-1qdnbjo" x="1361" y="720" height="720px" width="720px"/>
                            <use xlink:href="#E084-1qdnbjo" x="1366" y="1080" height="720px" width="720px"/>
                        </g>
                        <g id="l8eb1gk" class="layer">
                            <g id="beam1_parent" class="beam_parent">
                                <polygon points="1934,1665 2402,1620 2402,1530 1934,1575" id="beam1" class="beam"/>
                                <g id="note1" class="note">
                                    <g class="notehead" id="note1.notehead">
                                        <use xlink:href="#E0A4-1qdnbjo" x="1934" y="1080" height="720px" width="720px"/>
                                    </g>
                                    <g id="note1.stem" class="stem">
                                        <path d="M1943 1108 L1943 1647" stroke="currentColor" stroke-width="18"/>
                                    </g>
                                </g>
                                <g id="note2" class="note">
                                    <g class="notehead" id="note2.notehead">
                                        <use xlink:href="#E0A4-1qdnbjo" x="2384" y="990" height="720px" width="720px"/>
                                    </g>
                                    <g id="note2.stem" class="stem">
                                        <path d="M2393 1018 L2393 1602" stroke="currentColor" stroke-width="18"/>
                                    </g>
                                </g>
                            </g>
                            <g id="note3" class="note">
                                <g class="notehead" id="note3.notehead">
                                    <use xlink:href="#E0A4-1qdnbjo" x="2834" y="900" height="720px" width="720px"/>
                                </g>
                                <g id="note3.stem" class="stem">
                                    <path d="M2843 928 L2843 1500" stroke="currentColor" stroke-width="18"/>
                                </g>
                                <g id="note3.accidental" class="accid"/>
                            </g>
                        </g>
                    </g>
                    <g id="tied1" class="tie">
                        <path d="M3105,855 C3236,701 3537,701 3672,855 C3518,750 3255,750 3105,855" stroke="currentColor" stroke-linecap="round" stroke-linejoin="round" stroke-width="9"/>
                    </g>
                    <g id="pP1_m1.right_barline" class="barLine">
                        <path id="pP1_m1.right_barline.barline_tok1" d="M3524 540 L3524 1260" stroke="currentColor" stroke-width="27" class="barline_tok"/>
                    </g>
                </g>
                <g id="pP1_m2" class="measure">
                    <g id="ssnoe8l" class="staff">
                        <path d="M3537 540 L5530 540" stroke="currentColor" stroke-width="13"/>
                        <path d="M3537 720 L5530 720" stroke="currentColor" stroke-width="13"/>
                        <path d="M3537 900 L5530 900" stroke="currentColor" stroke-width="13"/>
                        <path d="M3537 1080 L5530 1080" stroke="currentColor" stroke-width="13"/>
                        <path d="M3537 1260 L5530 1260" stroke="currentColor" stroke-width="13"/>
                        <g id="lj42hmr" class="layer">
                            <g id="beam2_parent" class="beam_parent">
                                <polygon points="3717,1485 5085,1305 5085,1215 3717,1395" id="beam2" class="beam"/>
                                <g id="note4" class="note">
                                    <g class="notehead" id="note4.notehead">
                                        <use xlink:href="#E0A4-1qdnbjo" x="3717" y="900" height="720px" width="720px"/>
                                    </g>
                                    <g id="note4.stem" class="stem">
                                        <path d="M3726 928 L3726 1467" stroke="currentColor" stroke-width="18"/>
                                    </g>
                                    <g id="note4.accidental" class="accid"/>
                                </g>
                                <g id="note5" class="note">
                                    <g class="notehead" id="note5.notehead">
                                        <use xlink:href="#E0A4-1qdnbjo" x="4167" y="810" height="720px" width="720px"/>
                                    </g>
                                    <g id="note5.stem" class="stem">
                                        <path d="M4176 838 L4176 1407" stroke="currentColor" stroke-width="18"/>
                                    </g>
                                </g>
                                <g id="note6" class="note">
                                    <g class="notehead" id="note6.notehead">
                                        <use xlink:href="#E0A4-1qdnbjo" x="4617" y="720" height="720px" width="720px"/>
                                    </g>
                                    <g id="note6.stem" class="stem">
                                        <path d="M4626 748 L4626 1347" stroke="currentColor" stroke-width="18"/>
                                    </g>
                                </g>
                                <g id="note7" class="note">
                                    <g class="notehead" id="note7.notehead">
                                        <use xlink:href="#E0A4-1qdnbjo" x="5067" y="630" height="720px" width="720px"/>
                                    </g>
                                    <g id="note7.stem" class="stem">
                                        <path d="M5076 658 L5076 1287" stroke="currentColor" stroke-width="18"/>
                                    </g>
                                </g>
                            </g>
                        </g>
                    </g>
                    <g id="pP1_m2.right_barline" class="barLine">
                        <path id="pP1_m2.right_barline.barline_tok1" d="M5517 540 L5517 1260" stroke="currentColor" stroke-width="27" class="barline_tok"/>
                    </g>
                </g>
                <g id="pP1_m3" class="measure">
                    <g id="s1yboker" class="staff">
                        <path d="M5530 540 L7509 540" stroke="currentColor" stroke-width="13"/>
                        <path d="M5530 720 L7509 720" stroke="currentColor" stroke-width="13"/>
                        <path d="M5530 900 L7509 900" stroke="currentColor" stroke-width="13"/>
                        <path d="M5530 1080 L7509 1080" stroke="currentColor" stroke-width="13"/>
                        <path d="M5530 1260 L7509 1260" stroke="currentColor" stroke-width="13"/>
                        <g id="l3b773p" class="layer">
                            <g id="note8" class="note">
                                <g class="notehead" id="note8.notehead">
                                    <use xlink:href="#E0A4-1qdnbjo" x="5710" y="540" height="720px" width="720px"/>
                                </g>
                                <g id="note8.stem" class="stem">
                                    <path d="M5719 568 L5719 1170" stroke="currentColor" stroke-width="18"/>
                                </g>
                            </g>
                            <g id="beam3_parent" class="beam_parent">
                                <polygon points="6400,1125 7184,1305 7184,1215 6400,1035" id="beam3" class="beam"/>
                                <polygon points="6859,1096 7184,1170 7184,1080 6859,1006" id="beam4" class="beam"/>
                                <g id="note9" class="note">
                                    <g class="notehead" id="note9.notehead">
                                        <use xlink:href="#E0A4-1qdnbjo" x="6400" y="450" height="720px" width="720px"/>
                                    </g>
                                    <g id="note9.stem" class="stem">
                                        <path d="M6409 478 L6409 1107" stroke="currentColor" stroke-width="18"/>
                                    </g>
                                </g>
                                <g id="note10" class="note">
                                    <g class="notehead" id="note10.notehead">
                                        <use xlink:href="#E0A4-1qdnbjo" x="6850" y="540" height="720px" width="720px"/>
                                    </g>
                                    <g id="note10.stem" class="stem">
                                        <path d="M6859 568 L6859 1213" stroke="currentColor" stroke-width="18"/>
                                    </g>
                                </g>
                                <g id="note11" class="note">
                                    <g class="notehead" id="note11.notehead">
                                        <use xlink:href="#E0A4-1qdnbjo" x="7166" y="720" height="720px" width="720px"/>
                                    </g>
                                    <g id="note11.stem" class="stem">
                                        <path d="M7175 748 L7175 1287" stroke="currentColor" stroke-width="18"/>
                                    </g>
                                </g>
                            </g>
                        </g>
                    </g>
                    <g id="pP1_m3.right_barline" class="barLine">
                        <path id="pP1_m3.right_barline.barline_tok1" d="M7496 540 L7496 1260" stroke="currentColor" stroke-width="27" class="barline_tok"/>
                    </g>
                </g>
                <g id="pP1_m4" class="measure">
                    <g id="shz491x" class="staff">
                        <path d="M7509 540 L9880 540" stroke="currentColor" stroke-width="13"/>
                        <path d="M7509 720 L9880 720" stroke="currentColor" stroke-width="13"/>
                        <path d="M7509 900 L9880 900" stroke="currentColor" stroke-width="13"/>
                        <path d="M7509 1080 L9880 1080" stroke="currentColor" stroke-width="13"/>
                        <path d="M7509 1260 L9880 1260" stroke="currentColor" stroke-width="13"/>
                        <g class="ledgerLines above">
                            <path d="M8407 360 L8729 360" stroke="currentColor" stroke-width="22"/>
                        </g>
                        <g id="l1rc3gb5" class="layer">
                            <g id="beam5_parent" class="beam_parent">
                                <polygon points="7689,1440 8473,1260 8473,1170 7689,1350" id="beam5" class="beam"/>
                                <polygon points="8148,1200 8473,1125 8473,1035 8148,1110" id="beam6" class="beam"/>
                                <g id="note12" class="note">
                                    <g class="notehead" id="note12.notehead">
                                        <use xlink:href="#E0A4-1qdnbjo" x="7689" y="810" height="720px" width="720px"/>
                                    </g>
                                    <g id="note12.stem" class="stem">
                                        <path d="M7698 838 L7698 1422" stroke="currentColor" stroke-width="18"/>
                                    </g>
                                </g>
                                <g id="note13" class="note">
                                    <g class="notehead" id="note13.notehead">
                                        <use xlink:href="#E0A4-1qdnbjo" x="8139" y="540" height="720px" width="720px"/>
                                    </g>
                                    <g id="note13.stem" class="stem">
                                        <path d="M8148 568 L8148 1317" stroke="currentColor" stroke-width="18"/>
                                    </g>
                                </g>
                                <g id="note14" class="note">
                                    <g class="notehead" id="note14.notehead">
                                        <use xlink:href="#E0A4-1qdnbjo" x="8455" y="360" height="720px" width="720px"/>
                                    </g>
                                    <g id="note14.stem" class="stem">
                                        <path d="M8464 388 L8464 1242" stroke="currentColor" stroke-width="18"/>
                                    </g>
                                </g>
                            </g>
                            <g id="beam7_parent" class="beam_parent">
                                <polygon points="8771,1440 9555,1260 9555,1170 8771,1350" id="beam7" class="beam"/>
                                <polygon points="9230,1200 9555,1125 9555,1035 9230,1110" id="beam8" class="beam"/>
                                <g id="note15" class="note">
                                    <g class="notehead" id="note15.notehead">
                                        <use xlink:href="#E0A4-1qdnbjo" x="8771" y="810" height="720px" width="720px"/>
                                    </g>
                                    <g id="note15.stem" class="stem">
                                        <path d="M8780 838 L8780 1422" stroke="currentColor" stroke-width="18"/>
                                    </g>
                                </g>
                                <g id="note16" class="note">
                                    <g class="notehead" id="note16.notehead">
                                        <use xlink:href="#E0A4-1qdnbjo" x="9221" y="630" height="720px" width="720px"/>
                                    </g>
                                    <g id="note16.stem" class="stem">
                                        <path d="M9230 658 L9230 1317" stroke="currentColor" stroke-width="18"/>
                                    </g>
                                </g>
                                <g id="note17" class="note">
                                    <g class="notehead" id="note17.notehead">
                                        <use xlink:href="#E0A4-1qdnbjo" x="9537" y="450" height="720px" width="720px"/>
                                    </g>
                                    <g id="note17.stem" class="stem">
                                        <path d="M9546 478 L9546 1242" stroke="currentColor" stroke-width="18"/>
                                    </g>
                                </g>
                            </g>
                        </g>
                    </g>
                    <g id="pP1_m4.right_barline" class="barLine">
                        <path id="pP1_m4.right_barline.barline_tok1" d="M9867 540 L9867 1260" stroke="currentColor" stroke-width="27" class="barline_tok"/>
                    </g>
                </g>
                <g id="pP1_m5" class="measure">
                    <g id="s1hghxhn" class="staff">
                        <path d="M9880 540 L11859 540" stroke="currentColor" stroke-width="13"/>
                        <path d="M9880 720 L11859 720" stroke="currentColor" stroke-width="13"/>
                        <path d="M9880 900 L11859 900" stroke="currentColor" stroke-width="13"/>
                        <path d="M9880 1080 L11859 1080" stroke="currentColor" stroke-width="13"/>
                        <path d="M9880 1260 L11859 1260" stroke="currentColor" stroke-width="13"/>
                        <g id="ljsm82l" class="layer">
                            <g id="note18" class="note">
                                <g class="notehead" id="note18.notehead">
                                    <use xlink:href="#E0A4-1qdnbjo" x="10060" y="540" height="720px" width="720px"/>
                                </g>
                                <g id="note18.stem" class="stem">
                                    <path d="M10069 568 L10069 1170" stroke="currentColor" stroke-width="18"/>
                                </g>
                            </g>
                            <g id="beam9_parent" class="beam_parent">
                                <polygon points="10750,1125 11534,1305 11534,1215 10750,1035" id="beam9" class="beam"/>
                                <polygon points="11209,1096 11534,1170 11534,1080 11209,1006" id="beam10" class="beam"/>
                                <g id="note19" class="note">
                                    <g class="notehead" id="note19.notehead">
                                        <use xlink:href="#E0A4-1qdnbjo" x="10750" y="450" height="720px" width="720px"/>
                                    </g>
                                    <g id="note19.stem" class="stem">
                                        <path d="M10759 478 L10759 1107" stroke="currentColor" stroke-width="18"/>
                                    </g>
                                </g>
                                <g id="note20" class="note">
                                    <g class="notehead" id="note20.notehead">
                                        <use xlink:href="#E0A4-1qdnbjo" x="11200" y="540" height="720px" width="720px"/>
                                    </g>
                                    <g id="note20.stem" class="stem">
                                        <path d="M11209 568 L11209 1213" stroke="currentColor" stroke-width="18"/>
                                    </g>
                                </g>
                                <g id="note21" class="note">
                                    <g class="notehead" id="note21.notehead">
                                        <use xlink:href="#E0A4-1qdnbjo" x="11516" y="720" height="720px" width="720px"/>
                                    </g>
                                    <g id="note21.stem" class="stem">
                                        <path d="M11525 748 L11525 1287" stroke="currentColor" stroke-width="18"/>
                                    </g>
                                </g>
                            </g>
                        </g>
                    </g>
                    <g id="pP1_m5.right_barline" class="barLine">
                        <path id="pP1_m5.right_barline.barline_tok1" d="M11846 540 L11846 1260" stroke="currentColor" stroke-width="27" class="barline_tok"/>
                    </g>
                </g>
                <g id="pP1_m6" class="measure">
                    <g id="s11g6e1" class="staff">
                        <path d="M11859 540 L14230 540" stroke="currentColor" stroke-width="13"/>
                        <path d="M11859 720 L14230 720" stroke="currentColor" stroke-width="13"/>
                        <path d="M11859 900 L14230 900" stroke="currentColor" stroke-width="13"/>
                        <path d="M11859 1080 L14230 1080" stroke="currentColor" stroke-width="13"/>
                        <path d="M11859 1260 L14230 1260" stroke="currentColor" stroke-width="13"/>
                        <g class="ledgerLines above">
                            <path d="M12757 360 L13079 360" stroke="currentColor" stroke-width="22"/>
                        </g>
                        <g id="l52lua0" class="layer">
                            <g id="beam11_parent" class="beam_parent">
                                <polygon points="12039,1440 12823,1260 12823,1170 12039,1350" id="beam11" class="beam"/>
                                <polygon points="12498,1200 12823,1125 12823,1035 12498,1110" id="beam12" class="beam"/>
                                <g id="note22" class="note">
                                    <g class="notehead" id="note22.notehead">
                                        <use xlink:href="#E0A4-1qdnbjo" x="12039" y="810" height="720px" width="720px"/>
                                    </g>
                                    <g id="note22.stem" class="stem">
                                        <path d="M12048 838 L12048 1422" stroke="currentColor" stroke-width="18"/>
                                    </g>
                                </g>
                                <g id="note23" class="note">
                                    <g class="notehead" id="note23.notehead">
                                        <use xlink:href="#E0A4-1qdnbjo" x="12489" y="540" height="720px" width="720px"/>
                                    </g>
                                    <g id="note23.stem" class="stem">
                                        <path d="M12498 568 L12498 1317" stroke="currentColor" stroke-width="18"/>
                                    </g>
                                </g>
                                <g id="note24" class="note">
                                    <g class="notehead" id="note24.notehead">
                                        <use xlink:href="#E0A4-1qdnbjo" x="12805" y="360" height="720px" width="720px"/>
                                    </g>
                                    <g id="note24.stem" class="stem">
                                        <path d="M12814 388 L12814 1242" stroke="currentColor" stroke-width="18"/>
                                    </g>
                                </g>
                            </g>
                            <g id="beam13_parent" class="beam_parent">
                                <polygon points="13121,1440 13905,1260 13905,1170 13121,1350" id="beam13" class="beam"/>
                                <polygon points="13580,1200 13905,1125 13905,1035 13580,1110" id="beam14" class="beam"/>
                                <g id="note25" class="note">
                                    <g class="notehead" id="note25.notehead">
                                        <use xlink:href="#E0A4-1qdnbjo" x="13121" y="810" height="720px" width="720px"/>
                                    </g>
                                    <g id="note25.stem" class="stem">
                                        <path d="M13130 838 L13130 1422" stroke="currentColor" stroke-width="18"/>
                                    </g>
                                </g>
                                <g id="note26" class="note">
                                    <g class="notehead" id="note26.notehead">
                                        <use xlink:href="#E0A4-1qdnbjo" x="13571" y="630" height="720px" width="720px"/>
                                    </g>
                                    <g id="note26.stem" class="stem">
                                        <path d="M13580 658 L13580 1317" stroke="currentColor" stroke-width="18"/>
                                    </g>
                                </g>
                                <g id="note27" class="note">
                                    <g class="notehead" id="note27.notehead">
                                        <use xlink:href="#E0A4-1qdnbjo" x="13887" y="450" height="720px" width="720px"/>
                                    </g>
                                    <g id="note27.stem" class="stem">
                                        <path d="M13896 478 L13896 1242" stroke="currentColor" stroke-width="18"/>
                                    </g>
                                </g>
                            </g>
                        </g>
                    </g>
                    <g id="pP1_m6.right_barline" class="barLine">
                        <path id="pP1_m6.right_barline.barline_tok1" d="M14217 540 L14217 1260" stroke="currentColor" stroke-width="27" class="barline_tok"/>
                    </g>
                </g>
                <g id="pP1_m7" class="measure">
                    <g id="s1v157mf" class="staff">
                        <path d="M14230 540 L15803 540" stroke="currentColor" stroke-width="13"/>
                        <path d="M14230 720 L15803 720" stroke="currentColor" stroke-width="13"/>
                        <path d="M14230 900 L15803 900" stroke="currentColor" stroke-width="13"/>
                        <path d="M14230 1080 L15803 1080" stroke="currentColor" stroke-width="13"/>
                        <path d="M14230 1260 L15803 1260" stroke="currentColor" stroke-width="13"/>
                        <g id="lgkn862" class="layer">
                            <g id="note28" class="note">
                                <g class="notehead" id="note28.notehead">
                                    <use xlink:href="#E0A4-1qdnbjo" x="14410" y="540" height="720px" width="720px"/>
                                </g>
                                <g id="note28.stem" class="stem">
                                    <path d="M14419 568 L14419 1170" stroke="currentColor" stroke-width="18"/>
                                </g>
                            </g>
                            <g id="note29" class="note">
                                <g class="notehead" id="note29.notehead">
                                    <use xlink:href="#E0A4-1qdnbjo" x="15100" y="450" height="720px" width="720px"/>
                                </g>
                                <g id="note29.stem" class="stem">
                                    <path d="M15109 478 L15109 1080" stroke="currentColor" stroke-width="18"/>
                                </g>
                            </g>
                        </g>
                    </g>
                    <g id="pP1_m7.right_barline" class="barLine">
                        <path id="pP1_m7.right_barline.barline_tok1" d="M15790 540 L15790 1260" stroke="currentColor" stroke-width="27" class="barline_tok"/>
                    </g>
                </g>
                <g id="pP1_m8" class="measure">
                    <g id="s1ha8fpk" class="staff">
                        <path d="M15803 540 L17376 540" stroke="currentColor" stroke-width="13"/>
                        <path d="M15803 720 L17376 720" stroke="currentColor" stroke-width="13"/>
                        <path d="M15803 900 L17376 900" stroke="currentColor" stroke-width="13"/>
                        <path d="M15803 1080 L17376 1080" stroke="currentColor" stroke-width="13"/>
                        <path d="M15803 1260 L17376 1260" stroke="currentColor" stroke-width="13"/>
                        <g id="l1ogcm4l" class="layer">
                            <g id="note30" class="note">
                                <g class="notehead" id="note30.notehead">
                                    <use xlink:href="#E0A4-1qdnbjo" x="15983" y="540" height="720px" width="720px"/>
                                </g>
                                <g id="note30.stem" class="stem">
                                    <path d="M15992 568 L15992 1170" stroke="currentColor" stroke-width="18"/>
                                </g>
                            </g>
                            <g id="note31" class="note">
                                <g class="notehead" id="note31.notehead">
                                    <use xlink:href="#E0A4-1qdnbjo" x="16673" y="630" height="720px" width="720px"/>
                                </g>
                                <g id="note31.stem" class="stem">
                                    <path d="M16682 658 L16682 1260" stroke="currentColor" stroke-width="18"/>
                                </g>
                            </g>
                        </g>
                    </g>
                    <g id="pP1_m8.right_barline" class="barLine">
                        <path id="pP1_m8.right_barline.barline_tok1" d="M17363 540 L17363 1260" stroke="currentColor" stroke-width="27" class="barline_tok"/>
                    </g>
                </g>
                <g id="pP1_m9" class="measure">
                    <g id="s1d2u29u" class="staff">
                        <path d="M17376 540 L18949 540" stroke="currentColor" stroke-width="13"/>
                        <path d="M17376 720 L18949 720" stroke="currentColor" stroke-width="13"/>
                        <path d="M17376 900 L18949 900" stroke="currentColor" stroke-width="13"/>
                        <path d="M17376 1080 L18949 1080" stroke="currentColor" stroke-width="13"/>
                        <path d="M17376 1260 L18949 1260" stroke="currentColor" stroke-width="13"/>
                        <g id="l1mjr03g" class="layer">
                            <g id="note32" class="note">
                                <g class="notehead" id="note32.notehead">
                                    <use xlink:href="#E0A4-1qdnbjo" x="17556" y="540" height="720px" width="720px"/>
                                </g>
                                <g id="note32.stem" class="stem">
                                    <path d="M17565 568 L17565 1170" stroke="currentColor" stroke-width="18"/>
                                </g>
                            </g>
                            <g id="note33" class="note">
                                <g class="notehead" id="note33.notehead">
                                    <use xlink:href="#E0A4-1qdnbjo" x="18246" y="540" height="720px" width="720px"/>
                                </g>
                                <g id="note33.stem" class="stem">
                                    <path d="M18255 568 L18255 1170" stroke="currentColor" stroke-width="18"/>
                                </g>
                            </g>
                        </g>
                    </g>
                    <g id="pP1_m9.right_barline" class="barLine">
                        <path id="pP1_m9.right_barline.barline_tok1" d="M18936 540 L18936 1260" stroke="currentColor" stroke-width="27" class="barline_tok"/>
                    </g>
                </g>
                <g id="pP1_m10" class="measure">
                    <g id="sqnd934" class="staff">
                        <path d="M18949 540 L20522 540" stroke="currentColor" stroke-width="13"/>
                        <path d="M18949 720 L20522 720" stroke="currentColor" stroke-width="13"/>
                        <path d="M18949 900 L20522 900" stroke="currentColor" stroke-width="13"/>
                        <path d="M18949 1080 L20522 1080" stroke="currentColor" stroke-width="13"/>
                        <path d="M18949 1260 L20522 1260" stroke="currentColor" stroke-width="13"/>
                        <g id="l1arypik" class="layer">
                            <g id="note34" class="note">
                                <g class="notehead" id="note34.notehead">
                                    <use xlink:href="#E0A4-1qdnbjo" x="19129" y="540" height="720px" width="720px"/>
                                </g>
                                <g id="note34.stem" class="stem">
                                    <path d="M19138 568 L19138 1170" stroke="currentColor" stroke-width="18"/>
                                </g>
                            </g>
                            <g id="note35" class="note">
                                <g class="notehead" id="note35.notehead">
                                    <use xlink:href="#E0A4-1qdnbjo" x="19819" y="540" height="720px" width="720px"/>
                                </g>
                                <g id="note35.stem" class="stem">
                                    <path d="M19828 568 L19828 1170" stroke="currentColor" stroke-width="18"/>
                                </g>
                            </g>
                        </g>
                    </g>
                    <g id="pP1_m10.right_barline" class="barLine">
                        <path id="pP1_m10.right_barline.barline_tok1" d="M20509 540 L20509 1260" stroke="currentColor" stroke-width="27" class="barline_tok"/>
                    </g>
                </g>
                <g id="pP1_m11" class="measure">
                    <g id="s1lryk11" class="staff">
                        <path d="M20522 540 L22095 540" stroke="currentColor" stroke-width="13"/>
                        <path d="M20522 720 L22095 720" stroke="currentColor" stroke-width="13"/>
                        <path d="M20522 900 L22095 900" stroke="currentColor" stroke-width="13"/>
                        <path d="M20522 1080 L22095 1080" stroke="currentColor" stroke-width="13"/>
                        <path d="M20522 1260 L22095 1260" stroke="currentColor" stroke-width="13"/>
                        <g id="lhy8ynv" class="layer">
                            <g id="note36" class="note">
                                <g class="notehead" id="note36.notehead">
                                    <use xlink:href="#E0A4-1qdnbjo" x="20702" y="540" height="720px" width="720px"/>
                                </g>
                                <g id="note36.stem" class="stem">
                                    <path d="M20711 568 L20711 1170" stroke="currentColor" stroke-width="18"/>
                                </g>
                            </g>
                            <g id="rest1" class="rest">
                                <use xlink:href="#E4E5-1qdnbjo" x="21392" y="900" height="720px" width="720px"/>
                            </g>
                        </g>
                    </g>
                    <g id="pP1_m11.right_barline" class="barLine">
                        <path id="pP1_m11.right_barline.barline_tok1" d="M22082 540 L22082 1260" stroke="currentColor" stroke-width="27" class="barline_tok"/>
                    </g>
                </g>
                <g id="pP1_m12" class="measure">
                    <g id="snaq6hl" class="staff">
                        <path d="M22095 540 L23668 540" stroke="currentColor" stroke-width="13"/>
                        <path d="M22095 720 L23668 720" stroke="currentColor" stroke-width="13"/>
                        <path d="M22095 900 L23668 900" stroke="currentColor" stroke-width="13"/>
                        <path d="M22095 1080 L23668 1080" stroke="currentColor" stroke-width="13"/>
                        <path d="M22095 1260 L23668 1260" stroke="currentColor" stroke-width="13"/>
                        <g id="key2" class="keySig" visibility="hidden"/>
                        <g id="l1r8zgqf" class="layer">
                            <g id="note37" class="note">
                                <g class="notehead" id="note37.notehead">
                                    <use xlink:href="#E0A4-1qdnbjo" x="22275" y="540" height="720px" width="720px"/>
                                </g>
                                <g id="note37.stem" class="stem">
                                    <path d="M22284 568 L22284 1170" stroke="currentColor" stroke-width="18"/>
                                </g>
                            </g>
                            <g id="rest2" class="rest">
                                <use xlink:href="#E4E5-1qdnbjo" x="22965" y="900" height="720px" width="720px"/>
                            </g>
                        </g>
                    </g>
                    <g id="pP1_m12.right_barline" class="barLine">
                        <path id="pP1_m12.right_barline.barline_tok1" d="M23655 540 L23655 1260" stroke="currentColor" stroke-width="27" class="barline_tok"/>
                    </g>
                </g>
                <g id="pP1_m13" class="measure">
                    <g id="s40l88a" class="staff">
                        <path d="M23668 540 L24911 540" stroke="currentColor" stroke-width="13"/>
                        <path d="M23668 720 L24911 720" stroke="currentColor" stroke-width="13"/>
                        <path d="M23668 900 L24911 900" stroke="currentColor" stroke-width="13"/>
                        <path d="M23668 1080 L24911 1080" stroke="currentColor" stroke-width="13"/>
                        <path d="M23668 1260 L24911 1260" stroke="currentColor" stroke-width="13"/>
                        <g id="l199vjgv" class="layer">
                            <g id="note38" class="note">
                                <g class="notehead" id="note38.notehead">
                                    <use xlink:href="#E0A3-1qdnbjo" x="23848" y="1170" height="720px" width="720px"/>
                                </g>
                                <g id="note38.stem" class="stem">
                                    <path d="M24065 1142 L24065 540" stroke="currentColor" stroke-width="18"/>
                                </g>
                            </g>
                        </g>
                    </g>
                    <g id="pP1_m13.right_barline" class="barLine">
                        <path id="pP1_m13.right_barline.barline_tok1" d="M24898 540 L24898 1260" stroke="currentColor" stroke-width="27" class="barline_tok"/>
                    </g>
                </g>
                <g id="s1hacfyt" class="systemMilestoneEnd smm35r2"/>
            </g>
            <g id="p1vefm99" class="pageMilestoneEnd s12jmxyp"/>
            <g id="p183szib" class="pageMilestoneEnd mf7kzk2"/>
        </g>
    </svg>
</svg>