<svg xmlns="http://www.w3.org/2000/svg" xmlns:xlink="http://www.w3.org/1999/xlink" xmlns:mei="http://www.music-encoding.org/ns/mei" width="2457px" height="280px" version="1.1" overflow="visible">
    <desc>Engraved by Verovio 4.3.0-dev-ba68db3-dirty</desc>
    <defs>
        <symbol id="E082-1vugq7q" viewBox="0 0 1000 1000" overflow="inherit">
            <path transform="scale(1,-1)" d="M124 -185c-18 0 -55 -14 -65 -65h-36l-3 30c0 25 6 45 18 63c11 19 22 30 39 43l121 82l37 29c15 11 27 29 38 54c12 24 18 47 18 70c0 40 -19 88 -94 88c-25 0 -32 0 -50 -8c-14 -5 -23 -12 -26 -22c3 -9 7 -15 10 -18l24 -17c12 -7 17 -11 27 -21c5 -7 7 -16 7 -27 c0 -12 0 -57 -79 -74c-30 0 -76 26 -76 94c0 66 81 135 197 135c72 0 181 -32 181 -150c0 -53 -32 -95 -113 -133l-91 -41c-26 -11 -45 -23 -57 -37l49 7c84 0 115 -41 148 -41c20 0 33 20 39 61h35c0 -152 -68 -168 -114 -168c-17 0 -65 0 -79 7h10l-28 17 c-49 37 -69 40 -87 42z"/>
        </symbol>
        <symbol id="E084-1vugq7q" viewBox="0 0 1000 1000" overflow="inherit">
            <path transform="scale(1,-1)" d="M20 -78c84 97 114 180 134 329h170c-13 -32 -82 -132 -99 -151l-84 -97c-33 -36 -59 -63 -80 -81h162v102l127 123v-225h57v-39h-57v-34c0 -43 19 -65 57 -65v-34h-244v36c48 0 60 26 60 70v27h-203v39z"/>
        </symbol>
        <symbol id="E0A4-1vugq7q" viewBox="0 0 1000 1000" overflow="inherit">
            <path transform="scale(1,-1)" d="M0 -39c0 68 73 172 200 172c66 0 114 -37 114 -95c0 -84 -106 -171 -218 -171c-64 0 -96 30 -96 94z"/>
        </symbol>
        <symbol id="E240-1vugq7q" viewBox="0 0 1000 1000" overflow="inherit">
            <path transform="scale(1,-1)" d="M179 -646c15 29 29 55 46 102c18 49 30 108 30 138c0 105 -80 173 -168 200c-18 5 -47 9 -87 16v190h22c8 0 33 -61 71 -95c4 -3 -2 3 61 -56c62 -58 122 -137 122 -241c0 -38 -13 -106 -35 -163c-20 -51 -43 -99 -66 -132c-6 -5 -10 -7 -13 -7s-5 2 -5 5l4 10 c1 3 14 25 18 33z"/>
        </symbol>
        <symbol id="E241-1vugq7q" viewBox="0 0 1000 1000" overflow="inherit">
            <path transform="scale(1,-1)" d="M179 646c-4 8 -17 30 -18 33l-4 10c0 3 2 5 5 5s7 -2 13 -7c23 -33 46 -81 66 -132c22 -57 35 -125 35 -163c0 -104 -60 -183 -122 -241c-63 -59 -57 -53 -61 -56c-38 -34 -63 -95 -71 -95h-22v190c40 7 69 11 87 16c88 27 168 95 168 200c0 30 -12 89 -30 138 c-17 47 -31 73 -46 102z"/>
        </symbol>
        <symbol id="E4E5-1vugq7q" viewBox="0 0 1000 1000" overflow="inherit">
            <path transform="scale(1,-1)" d="M107 292c-13 24 -30 49 -52 71c-1 1 0 2 0 3l-2 2c3 3 4 4 6 4c12 0 26 -7 40 -20s44 -40 89 -81c26 -24 28 -29 46 -47c4 -4 8 -9 10 -14c6 -8 8 -16 8 -27c0 -19 -12 -40 -36 -61c-28 -23 -49 -38 -61 -73c-4 -11 -7 -27 -10 -50c13 -43 34 -83 59 -121 c31 -47 59 -79 101 -129c-8 0 -26 7 -54 20l-62 29l-21 6l-23 1c-25 0 -45 -10 -60 -30l-4 -14l-1 -12c0 -33 20 -56 39 -78c8 -9 17 -18 26 -26c17 -15 27 -24 28 -30l-3 -3c-11 5 -19 10 -25 15c-9 3 -37 21 -45 26c-24 14 -45 32 -63 51c-19 21 -37 44 -37 71 c0 63 27 95 80 95c41 0 86 -18 136 -52c-19 26 -37 48 -55 66c-23 23 -48 44 -73 65c-28 23 -47 40 -58 53s-17 26 -18 39c75 64 113 125 113 183c0 27 -7 48 -18 68z"/>
        </symbol>
        <symbol id="E4E6-1vugq7q" viewBox="0 0 1000 1000" overflow="inherit">
            <path transform="scale(1,-1)" d="M0 123c7 34 33 56 69 60c29 -3 43 -9 53 -29c4 -8 7 -15 10 -22c0 -21 -1 -25 -11 -35c-5 -8 -18 -14 -40 -20l12 -3l15 -1c44 0 97 26 122 56c10 11 18 26 24 42c7 1 15 2 22 3l-140 -424h-36l111 330c-10 -6 -27 -12 -53 -16l-52 -8h-10l-20 1c-1 0 -8 3 -21 6 c-37 9 -55 28 -55 60z"/>
        </symbol>
        <symbol id="E220-1vugq7q" viewBox="0 0 1000 1000" overflow="inherit">
            <path transform="scale(1,-1)" d="M-163 -25l326 150v-100l-326 -150v100z"/>
        </symbol>
    </defs>
    <style type="text/css">g.page-margin{font-family:Times,serif;} g.ending, g.fing, g.reh, g.tempo{font-weight:bold;} g.dir, g.dynam, g.mNum{font-style:italic;} g.label{font-weight:normal;}</style>
    <svg class="definition-scale" color="black" viewBox="0 0 24570 2800">
        <g class="page-margin" transform="translate(500, 500)">
            <g id="m1x3gu4r" class="mdiv pageMilestone"/>
            <g id="syq2zww" class="score pageMilestone"/>
            <g id="s1b4v40b" class="system">
                <g id="l12fgahf" class="label">
                    <text x="1105" y="990" text-anchor="end" font-size="0px">
                        <tspan id="t1m00lau" class="text">
                            <tspan font-size="405px">Piano</tspan>
                        </tspan>
                    </text>
                </g>
                <g id="seago19" class="section systemMilestone"/>
                <g id="pP1_m1" class="measure">
                    <g id="s17v5ie7" class="staff">
                        <path d="M1285 540 L3537 540" stroke="currentColor" stroke-width="13"/>
                        <path d="M1285 720 L3537 720" stroke="currentColor" stroke-width="13"/>
                        <path d="M1285 900 L3537 900" stroke="currentColor" stroke-width="13"/>
                        <path d="M1285 1080 L3537 1080" stroke="currentColor" stroke-width="13"/>
                        <path d="M1285 1260 L3537 1260" stroke="currentColor" stroke-width="13"/>
                        <g id="clef1_1" class="clef" visibility="hidden"/>
                        <g id="key1_1" class="keySig" visibility="hidden"/>
                        <g id="time1_1" class="meterSig">
                            <use xlink:href="#E082-1vugq7q" x="1361" y="720" height="720px" width="720px"/>
                            <use xlink:href="#E084-1vugq7q" x="1366" y="1080" height="720px" width="720px"/>
                        </g>
                        <g id="l23h4i8" class="layer">
                            <g id="note1" class="note">
                                <g class="notehead" id="note1.notehead">
                                    <use xlink:href="#E0A4-1vugq7q" x="1934" y="540" height="720px" width="720px"/>
                                </g>
                                <g id="note1.stem" class="stem">
                                    <path d="M1943 568 L1943 1170" stroke="currentColor" stroke-width="18"/>
                                    <g id="note1.stem.flag" class="flag">
                                        <use xlink:href="#E241-1vugq7q" x="1934" y="1170" height="720px" width="720px"/>
                                    </g>
                                </g>
                            </g>
                            <g id="rest1" class="rest">
                                <use xlink:href="#E4E6-1vugq7q" x="2384" y="900" height="720px" width="720px"/>
                            </g>
                            <g id="rest2" class="rest">
                                <use xlink:href="#E4E5-1vugq7q" x="2834" y="900" height="720px" width="720px"/>
                            </g>
                        </g>
                    </g>
                    <g id="pP1_m1.right_barline" class="barLine">
                        <path id="pP1_m1.right_barline.barline_tok1" d="M3524 540 L3524 1260" stroke="currentColor" stroke-width="27" class="barline_tok"/>
                    </g>
                </g>
                <g id="pP1_m2" class="measure">
                    <g id="s1s6gctd" class="staff">
                        <path d="M3537 540 L5320 540" stroke="currentColor" stroke-width="13"/>
                        <path d="M3537 720 L5320 720" stroke="currentColor" stroke-width="13"/>
                        <path d="M3537 900 L5320 900" stroke="currentColor" stroke-width="13"/>
                        <path d="M3537 1080 L5320 1080" stroke="currentColor" stroke-width="13"/>
                        <path d="M3537 1260 L5320 1260" stroke="currentColor" stroke-width="13"/>
                        <g id="l1595gou" class="layer">
                            <g id="note2" class="note">
                                <g class="notehead" id="note2.notehead">
                                    <use xlink:href="#E0A4-1vugq7q" x="3717" y="900" height="720px" width="720px"/>
                                </g>
                                <g id="note2.stem" class="stem">
                                    <path d="M3726 928 L3726 1500" stroke="currentColor" stroke-width="18"/>
                                    <g id="note2.stem.flag" class="flag">
                                        <use xlink:href="#E241-1vugq7q" x="3717" y="1500" height="720px" width="720px"/>
                                    </g>
                                </g>
                            </g>
                            <g id="rest3" class="rest">
                                <use xlink:href="#E4E6-1vugq7q" x="4167" y="900" height="720px" width="720px"/>
                            </g>
                            <g id="rest4" class="rest">
                                <use xlink:href="#E4E5-1vugq7q" x="4617" y="900" height="720px" width="720px"/>
                            </g>
                        </g>
                    </g>
                    <g id="pP1_m2.right_barline" class="barLine">
                        <path id="pP1_m2.right_barline.barline_tok1" d="M5307 540 L5307 1260" stroke="currentColor" stroke-width="27" class="barline_tok"/>
                    </g>
                </g>
                <g id="pP1_m3" class="measure">
                    <g id="s193szvm" class="staff">
                        <path d="M5320 540 L7103 540" stroke="currentColor" stroke-width="13"/>
                        <path d="M5320 720 L7103 720" stroke="currentColor" stroke-width="13"/>
                        <path d="M5320 900 L7103 900" stroke="currentColor" stroke-width="13"/>
                        <path d="M5320 1080 L7103 1080" stroke="currentColor" stroke-width="13"/>
                        <path d="M5320 1260 L7103 1260" stroke="currentColor" stroke-width="13"/>
                        <g id="l1oy5fwc" class="layer">
                            <g id="note3" class="note">
                                <g class="notehead" id="note3.notehead">
                                    <use xlink:href="#E0A4-1vugq7q" x="5500" y="630" height="720px" width="720px"/>
                                </g>
                                <g id="note3.stem" class="stem">
                                    <path d="M5509 658 L5509 1260" stroke="currentColor" stroke-width="18"/>
                                    <g id="note3.stem.flag" class="flag">
                                        <use xlink:href="#E241-1vugq7q" x="5500" y="1260" height="720px" width="720px"/>
                                    </g>
                                </g>
                            </g>
                            <g id="rest5" class="rest">
                                <use xlink:href="#E4E6-1vugq7q" x="5950" y="900" height="720px" width="720px"/>
                            </g>
                            <g id="rest6" class="rest">
                                <use xlink:href="#E4E5-1vugq7q" x="6400" y="900" height="720px" width="720px"/>
                            </g>
                        </g>
                    </g>
                    <g id="pP1_m3.right_barline" class="barLine">
                        <path id="pP1_m3.right_barline.barline_tok1" d="M7090 540 L7090 1260" stroke="currentColor" stroke-width="27" class="barline_tok"/>
                    </g>
                </g>
                <g id="pP1_m4" class="measure">
                    <g id="s16whhze" class="staff">
                        <path d="M7103 540 L8886 540" stroke="currentColor" stroke-width="13"/>
                        <path d="M7103 720 L8886 720" stroke="currentColor" stroke-width="13"/>
                        <path d="M7103 900 L8886 900" stroke="currentColor" stroke-width="13"/>
                        <path d="M7103 1080 L8886 1080" stroke="currentColor" stroke-width="13"/>
                        <path d="M7103 1260 L8886 1260" stroke="currentColor" stroke-width="13"/>
                        <g id="l19uk1wg" class="layer">
                            <g id="note4" class="note">
                                <g class="notehead" id="note4.notehead">
                                    <use xlink:href="#E0A4-1vugq7q" x="7283" y="540" height="720px" width="720px"/>
                                </g>
                                <g id="note4.stem" class="stem">
                                    <path d="M7292 568 L7292 1170" stroke="currentColor" stroke-width="18"/>
                                    <g id="note4.stem.flag" class="flag">
                                        <use xlink:href="#E241-1vugq7q" x="7283" y="1170" height="720px" width="720px"/>
                                    </g>
                                </g>
                            </g>
                            <g id="rest7" class="rest">
                                <use xlink:href="#E4E6-1vugq7q" x="7733" y="900" height="720px" width="720px"/>
                            </g>
                            <g id="rest8" class="rest">
                                <use xlink:href="#E4E5-1vugq7q" x="8183" y="900" height="720px" width="720px"/>
                            </g>
                        </g>
                    </g>
                    <g id="pP1_m4.right_barline" class="barLine">
                        <path id="pP1_m4.right_barline.barline_tok1" d="M8873 540 L8873 1260" stroke="currentColor" stroke-width="27" class="barline_tok"/>
                    </g>
                </g>
                <g id="pP1_m5" class="measure">
                    <g id="su9xiv4" class="staff">
                        <path d="M8886 540 L10715 540" stroke="currentColor" stroke-width="13"/>
                        <path d="M8886 720 L10715 720" stroke="currentColor" stroke-width="13"/>
                        <path d="M8886 900 L10715 900" stroke="currentColor" stroke-width="13"/>
                        <path d="M8886 1080 L10715 1080" stroke="currentColor" stroke-width="13"/>
                        <path d="M8886 1260 L10715 1260" stroke="currentColor" stroke-width="13"/>
                        <g id="l1hdmqln" class="layer">
                            <g id="note5" class="note">
                                <g class="notehead" id="note5.notehead">
                                    <use xlink:href="#E0A4-1vugq7q" x="9066" y="1170" height="720px" width="720px"/>
                                </g>
                                <g id="note5.stem" class="stem">
                                    <path d="M9283 1142 L9283 540" stroke="currentColor" stroke-width="18"/>
                                    <g id="note5.stem.flag" class="flag">
                                        <use xlink:href="#E240-1vugq7q" x="9274" y="540" height="720px" width="720px"/>
                                    </g>
                                </g>
                            </g>
                            <g id="rest9" class="rest">
                                <use xlink:href="#E4E6-1vugq7q" x="9562" y="900" height="720px" width="720px"/>
                            </g>
                            <g id="rest10" class="rest">
                                <use xlink:href="#E4E5-1vugq7q" x="10012" y="900" height="720px" width="720px"/>
                            </g>
                        </g>
                    </g>
                    <g id="pP1_m5.right_barline" class="barLine">
                        <path id="pP1_m5.right_barline.barline_tok1" d="M10702 540 L10702 1260" stroke="currentColor" stroke-width="27" class="barline_tok"/>
                    </g>
                </g>
                <g id="pP1_m6" class="measure">
                    <g id="sghplcg" class="staff">
                        <path d="M10715 540 L12498 540" stroke="currentColor" stroke-width="13"/>
                        <path d="M10715 720 L12498 720" stroke="currentColor" stroke-width="13"/>
                        <path d="M10715 900 L12498 900" stroke="currentColor" stroke-width="13"/>
                        <path d="M10715 1080 L12498 1080" stroke="currentColor" stroke-width="13"/>
                        <path d="M10715 1260 L12498 1260" stroke="currentColor" stroke-width="13"/>
                        <g id="l1sgqm9d" class="layer">
                            <g id="note6" class="note">
                                <g class="notehead" id="note6.notehead">
                                    <use xlink:href="#E0A4-1vugq7q" x="10895" y="900" height="720px" width="720px"/>
                                </g>
                                <g id="note6.stem" class="stem">
                                    <path d="M10904 928 L10904 1500" stroke="currentColor" stroke-width="18"/>
                                    <g id="note6.stem.flag" class="flag">
                                        <use xlink:href="#E241-1vugq7q" x="10895" y="1500" height="720px" width="720px"/>
                                    </g>
                                </g>
                            </g>
                            <g id="rest11" class="rest">
                                <use xlink:href="#E4E6-1vugq7q" x="11345" y="900" height="720px" width="720px"/>
                            </g>
                            <g id="rest12" class="rest">
                                <use xlink:href="#E4E5-1vugq7q" x="11795" y="900" height="720px" width="720px"/>
                            </g>
                        </g>
                    </g>
                    <g id="pP1_m6.right_barline" class="barLine">
                        <path id="pP1_m6.right_barline.barline_tok1" d="M12485 540 L12485 1260" stroke="currentColor" stroke-width="27" class="barline_tok"/>
                    </g>
                </g>
                <g id="pP1_m7" class="measure">
                    <g id="s1riu9g6" class="staff">
                        <path d="M12498 540 L14281 540" stroke="currentColor" stroke-width="13"/>
                        <path d="M12498 720 L14281 720" stroke="currentColor" stroke-width="13"/>
                        <path d="M12498 900 L14281 900" stroke="currentColor" stroke-width="13"/>
                        <path d="M12498 1080 L14281 1080" stroke="currentColor" stroke-width="13"/>
                        <path d="M12498 1260 L14281 1260" stroke="currentColor" stroke-width="13"/>
                        <g id="lihtkm3" class="layer">
                            <g id="note7" class="note">
                                <g class="notehead" id="note7.notehead">
                                    <use xlink:href="#E0A4-1vugq7q" x="12678" y="630" height="720px" width="720px"/>
                                </g>
                                <g id="note7.stem" class="stem">
                                    <path d="M12687 658 L12687 1260" stroke="currentColor" stroke-width="18"/>
                                    <g id="note7.stem.flag" class="flag">
                                        <use xlink:href="#E241-1vugq7q" x="12678" y="1260" height="720px" width="720px"/>
                                    </g>
                                </g>
                            </g>
                            <g id="rest13" class="rest">
                                <use xlink:href="#E4E6-1vugq7q" x="13128" y="900" height="720px" width="720px"/>
                            </g>
                            <g id="rest14" class="rest">
                                <use xlink:href="#E4E5-1vugq7q" x="13578" y="900" height="720px" width="720px"/>
                            </g>
                        </g>
                    </g>
                    <g id="pP1_m7.right_barline" class="barLine">
                        <path id="pP1_m7.right_barline.barline_tok1" d="M14268 540 L14268 1260" stroke="currentColor" stroke-width="27" class="barline_tok"/>
                    </g>
                </g>
                <g id="pP1_m8" class="measure">
                    <g id="sw4b86o" class="staff">
                        <path d="M14281 540 L16064 540" stroke="currentColor" stroke-width="13"/>
                        <path d="M14281 720 L16064 720" stroke="currentColor" stroke-width="13"/>
                        <path d="M14281 900 L16064 900" stroke="currentColor" stroke-width="13"/>
                        <path d="M14281 1080 L16064 1080" stroke="currentColor" stroke-width="13"/>
                        <path d="M14281 1260 L16064 1260" stroke="currentColor" stroke-width="13"/>
                        <g id="lytyqr9" class="layer">
                            <g id="note8" class="note">
                                <g class="notehead" id="note8.notehead">
                                    <use xlink:href="#E0A4-1vugq7q" x="14461" y="540" height="720px" width="720px"/>
                                </g>
                                <g id="note8.stem" class="stem">
                                    <path d="M14470 568 L14470 1170" stroke="currentColor" stroke-width="18"/>
                                    <g id="note8.stem.flag" class="flag">
                                        <use xlink:href="#E241-1vugq7q" x="14461" y="1170" height="720px" width="720px"/>
                                    </g>
                                </g>
                            </g>
                            <g id="rest15" class="rest">
                                <use xlink:href="#E4E6-1vugq7q" x="14911" y="900" height="720px" width="720px"/>
                            </g>
                            <g id="rest16" class="rest">
                                <use xlink:href="#E4E5-1vugq7q" x="15361" y="900" height="720px" width="720px"/>
                            </g>
                        </g>
                    </g>
                    <g id="pP1_m8.right_barline" class="barLine">
                        <path id="pP1_m8.right_barline.barline_tok1" d="M16051 540 L16051 1260" stroke="currentColor" stroke-width="27" class="barline_tok"/>
                    </g>
                </g>
                <g id="pP1_m9" class="measure">
                    <g id="s1qb2u2x" class="staff">
                        <path d="M16064 540 L17893 540" stroke="currentColor" stroke-width="13"/>
                        <path d="M16064 720 L17893 720" stroke="currentColor" stroke-width="13"/>
                        <path d="M16064 900 L17893 900" stroke="currentColor" stroke-width="13"/>
                        <path d="M16064 1080 L17893 1080" stroke="currentColor" stroke-width="13"/>
                        <path d="M16064 1260 L17893 1260" stroke="currentColor" stroke-width="13"/>
                        <g id="l1azlr5k" class="layer">
                            <g id="note9" class="note">
                                <g class="notehead" id="note9.notehead">
                                    <use xlink:href="#E0A4-1vugq7q" x="16244" y="1170" height="720px" width="720px"/>
                                </g>
                                <g id="note9.stem" class="stem">
                                    <path d="M16461 1142 L16461 540" stroke="currentColor" stroke-width="18"/>
                                    <g id="note9.stem.flag" class="flag">
                                        <use xlink:href="#E240-1vugq7q" x="16452" y="540" height="720px" width="720px"/>
                                    </g>
                                </g>
                            </g>
                            <g id="rest17" class="rest">
                                <use xlink:href="#E4E6-1vugq7q" x="16740" y="900" height="720px" width="720px"/>
                            </g>
                            <g id="rest18" class="rest">
                                <use xlink:href="#E4E5-1vugq7q" x="17190" y="900" height="720px" width="720px"/>
                            </g>
                        </g>
                    </g>
                    <g id="pP1_m9.right_barline" class="barLine">
                        <path id="pP1_m9.right_barline.barline_tok1" d="M17880 540 L17880 1260" stroke="currentColor" stroke-width="27" class="barline_tok"/>
                    </g>
                </g>
                <g id="pP1_m10" class="measure">
                    <g id="sz1wrn8" class="staff">
                        <path d="M17893 540 L19416 540" stroke="currentColor" stroke-width="13"/>
                        <path d="M17893 720 L19416 720" stroke="currentColor" stroke-width="13"/>
                        <path d="M17893 900 L19416 900" stroke="currentColor" stroke-width="13"/>
                        <path d="M17893 1080 L19416 1080" stroke="currentColor" stroke-width="13"/>
                        <path d="M17893 1260 L19416 1260" stroke="currentColor" stroke-width="13"/>
                        <g id="l1v6fbr8" class="layer">
                            <g id="note10.tremolo_single" class="bTrem">
                                <use xlink:href="#E220-1vugq7q" x="18082" y="1260" height="720px" width="720px" id="note10.tremolo_single.line1" class="bTrem_line"/>
                                <g id="note10" class="note">
                                    <g class="notehead" id="note10.notehead">
                                        <use xlink:href="#E0A4-1vugq7q" x="18073" y="900" height="720px" width="720px"/>
                                    </g>
                                    <g id="note10.dots_parent" class="dots">
                                        <ellipse cx="18389" cy="810" rx="36" ry="36" id="note10.dot1" class="single_dot"/>
                                    </g>
                                    <g id="note10.stem" class="stem">
                                        <path d="M18082 928 L18082 1500" stroke="currentColor" stroke-width="18"/>
                                    </g>
                                </g>
                            </g>
                            <g id="rest19" class="rest">
                                <use xlink:href="#E4E6-1vugq7q" x="18953" y="900" height="720px" width="720px"/>
                            </g>
                        </g>
                    </g>
                    <g id="pP1_m10.right_barline" class="barLine">
                        <path id="pP1_m10.right_barline.barline_tok1" d="M19403 540 L19403 1260" stroke="currentColor" stroke-width="27" class="barline_tok"/>
                    </g>
                </g>
                <g id="pP1_m11" class="measure">
                    <g id="s15zgfh4" class="staff">
                        <path d="M19416 540 L21577 540" stroke="currentColor" stroke-width="13"/>
                        <path d="M19416 720 L21577 720" stroke="currentColor" stroke-width="13"/>
                        <path d="M19416 900 L21577 900" stroke="currentColor" stroke-width="13"/>
                        <path d="M19416 1080 L21577 1080" stroke="currentColor" stroke-width="13"/>
                        <path d="M19416 1260 L21577 1260" stroke="currentColor" stroke-width="13"/>
                        <g id="key2" class="keySig" visibility="hidden"/>
                        <g id="l1ibnl61" class="layer">
                            <g id="note11" class="note">
                                <g class="notehead" id="note11.notehead">
                                    <use xlink:href="#E0A4-1vugq7q" x="19596" y="900" height="720px" width="720px"/>
                                </g>
                                <g id="note11.stem" class="stem">
                                    <path d="M19605 928 L19605 1500" stroke="currentColor" stroke-width="18"/>
                                </g>
                            </g>
                            <g id="beam1_parent" class="beam_parent">
                                <polygon points="20286,1575 21252,1575 21252,1485 20286,1485" id="beam1" class="beam"/>
                                <polygon points="20286,1440 21252,1440 21252,1350 20286,1350" id="beam2" class="beam"/>
                                <g id="note12" class="note">
                                    <g class="notehead" id="note12.notehead">
                                        <use xlink:href="#E0A4-1vugq7q" x="20286" y="900" height="720px" width="720px"/>
                                    </g>
                                    <g id="note12.stem" class="stem">
                                        <path d="M20295 928 L20295 1557" stroke="currentColor" stroke-width="18"/>
                                    </g>
                                </g>
                                <g id="note13" class="note">
                                    <g class="notehead" id="note13.notehead">
                                        <use xlink:href="#E0A4-1vugq7q" x="20602" y="990" height="720px" width="720px"/>
                                    </g>
                                    <g id="note13.stem" class="stem">
                                        <path d="M20611 1018 L20611 1557" stroke="currentColor" stroke-width="18"/>
                                    </g>
                                    <g id="note13.accidental" class="accid"/>
                                </g>
                                <g id="note14" class="note">
                                    <g class="notehead" id="note14.notehead">
                                        <use xlink:href="#E0A4-1vugq7q" x="20918" y="900" height="720px" width="720px"/>
                                    </g>
                                    <g id="note14.stem" class="stem">
                                        <path d="M20927 928 L20927 1557" stroke="currentColor" stroke-width="18"/>
                                    </g>
                                </g>
                                <g id="note15" class="note">
                                    <g class="notehead" id="note15.notehead">
                                        <use xlink:href="#E0A4-1vugq7q" x="21234" y="720" height="720px" width="720px"/>
                                    </g>
                                    <g id="note15.stem" class="stem">
                                        <path d="M21243 748 L21243 1557" stroke="currentColor" stroke-width="18"/>
                                    </g>
                                    <g id="note15.accidental" class="accid"/>
                                </g>
                            </g>
                        </g>
                    </g>
                    <g id="tied1" class="tie">
                        <path d="M19867,855 C19947,701 20158,701 20241,855 C20133,750 19972,750 19867,855" stroke="currentColor" stroke-linecap="round" stroke-linejoin="round" stroke-width="9"/>
                    </g>
                    <g id="pP1_m11.right_barline" class="barLine">
                        <path id="pP1_m11.right_barline.barline_tok1" d="M21564 540 L21564 1260" stroke="currentColor" stroke-width="27" class="barline_tok"/>
                    </g>
                </g>
                <g id="pP1_m12" class="measure">
                    <g id="s1b2drxj" class="staff">
                        <path d="M21577 540 L23570 540" stroke="currentColor" stroke-width="13"/>
                        <path d="M21577 720 L23570 720" stroke="currentColor" stroke-width="13"/>
                        <path d="M21577 900 L23570 900" stroke="currentColor" stroke-width="13"/>
                        <path d="M21577 1080 L23570 1080" stroke="currentColor" stroke-width="13"/>
                        <path d="M21577 1260 L23570 1260" stroke="currentColor" stroke-width="13"/>
                        <g id="l1q3k4h3" class="layer">
                            <g id="beam3_parent" class="beam_parent">
                                <polygon points="21757,1350 22225,1395 22225,1305 21757,1260" id="beam3" class="beam"/>
                                <g id="note16" class="note">
                                    <g class="notehead" id="note16.notehead">
                                        <use xlink:href="#E0A4-1vugq7q" x="21757" y="540" height="720px" width="720px"/>
                                    </g>
                                    <g id="note16.stem" class="stem">
                                        <path d="M21766 568 L21766 1332" stroke="currentColor" stroke-width="18"/>
                                    </g>
                                </g>
                                <g id="note17" class="note">
                                    <g class="notehead" id="note17.notehead">
                                        <use xlink:href="#E0A4-1vugq7q" x="22207" y="720" height="720px" width="720px"/>
                                    </g>
                                    <g id="note17.stem" class="stem">
                                        <path d="M22216 748 L22216 1377" stroke="currentColor" stroke-width="18"/>
                                    </g>
                                    <g id="note17.accidental" class="accid"/>
                                </g>
                            </g>
                            <g id="note18" class="note">
                                <g class="notehead" id="note18.notehead">
                                    <use xlink:href="#E0A4-1vugq7q" x="22657" y="900" height="720px" width="720px"/>
                                </g>
                                <g id="note18.stem" class="stem">
                                    <path d="M22666 928 L22666 1500" stroke="currentColor" stroke-width="18"/>
                                    <g id="note18.stem.flag" class="flag">
                                        <use xlink:href="#E241-1vugq7q" x="22657" y="1500" height="720px" width="720px"/>
                                    </g>
                                </g>
                            </g>
                            <g id="rest20" class="rest">
                                <use xlink:href="#E4E6-1vugq7q" x="23107" y="900" height="720px" width="720px"/>
                            </g>
                        </g>
                    </g>
                    <g id="pP1_m12.right_barline" class="barLine">
                        <path id="pP1_m12.right_barline.barline_tok1" d="M23557 540 L23557 1260" stroke="currentColor" stroke-width="27" class="barline_tok"/>
                    </g>
                </g>
                <g id="s1gn967o" class="systemMilestoneEnd seago19"/>
            </g>
            <g id="p1ybm1tq" class="pageMilestoneEnd syq2zww"/>
            <g id="pnt3b1x" class="pageMilestoneEnd m1x3gu4r"/>
        </g>
    </svg>
</svg>