<svg xmlns="http://www.w3.org/2000/svg" xmlns:xlink="http://www.w3.org/1999/xlink" xmlns:mei="http://www.music-encoding.org/ns/mei" width="1555px" height="284px" version="1.1" overflow="visible">
    <desc>Engraved by Verovio 4.3.0-dev-ba68db3-dirty</desc>
    <defs>
        <symbol id="E0A3-1ys2cv" viewBox="0 0 1000 1000" overflow="inherit">
            <path transform="scale(1,-1)" d="M278 64c0 22 -17 39 -43 39c-12 0 -26 -3 -41 -10c-85 -43 -165 -94 -165 -156c5 -25 15 -32 49 -32c67 11 200 95 200 159zM0 -36c0 68 73 174 200 174c66 0 114 -39 114 -97c0 -84 -106 -173 -218 -173c-64 0 -96 32 -96 96z"/>
        </symbol>
        <symbol id="E086-1ys2cv" viewBox="0 0 1000 1000" overflow="inherit">
            <path transform="scale(1,-1)" d="M284 -91c0 37 -28 92 -67 92c-35 0 -65 -54 -65 -111c0 -52 22 -104 68 -104c47 0 64 68 64 123zM230 214c-36 0 -90 -33 -90 -184l2 -36c40 24 81 36 120 36c80 0 140 -48 140 -121c0 -99 -99 -159 -182 -159c-160 0 -200 173 -200 244c0 21 2 43 7 71l10 35 c26 85 73 115 98 126c41 19 74 24 103 24c93 0 142 -63 142 -105c0 -58 -52 -72 -73 -72c-33 0 -59 24 -65 35c-3 5 -6 14 -7 25l11 30c6 15 9 27 9 35c0 11 -9 16 -25 16z"/>
        </symbol>
        <symbol id="E088-1ys2cv" viewBox="0 0 1000 1000" overflow="inherit">
            <path transform="scale(1,-1)" d="M195 -214c76 0 88 58 90 68c0 34 -35 60 -57 73l-52 29c-21 10 -32 17 -34 20c-39 -33 -58 -54 -62 -92c5 -23 23 -98 115 -98zM301 135c0 61 -72 76 -113 76c-40 0 -77 -17 -77 -51c3 -21 15 -38 26 -50c17 -15 33 -26 48 -34l65 -28c34 27 51 56 51 87zM176 -250 c-57 0 -166 26 -166 132c0 47 30 86 89 116c-33 15 -79 60 -79 119c0 79 85 132 178 132h18c5 0 21 1 28 -1c25 0 126 -30 126 -110c0 -37 -23 -76 -69 -116c43 -25 83 -71 83 -119c0 -101 -118 -153 -208 -153z"/>
        </symbol>
        <symbol id="E0A4-1ys2cv" viewBox="0 0 1000 1000" overflow="inherit">
            <path transform="scale(1,-1)" d="M0 -39c0 68 73 172 200 172c66 0 114 -37 114 -95c0 -84 -106 -171 -218 -171c-64 0 -96 30 -96 94z"/>
        </symbol>
        <symbol id="E262-1ys2cv" viewBox="0 0 1000 1000" overflow="inherit">
            <path transform="scale(1,-1)" d="M136 186v169h17v-164l44 14v-91l-44 -14v-165l44 12v-91l-44 -13v-155h-17v150l-76 -22v-155h-17v149l-43 -13v90l43 14v167l-43 -14v92l43 13v169h17v-163zM60 73v-167l76 22v168z"/>
        </symbol>
        <symbol id="E241-1ys2cv" viewBox="0 0 1000 1000" overflow="inherit">
            <path transform="scale(1,-1)" d="M179 646c-4 8 -17 30 -18 33l-4 10c0 3 2 5 5 5s7 -2 13 -7c23 -33 46 -81 66 -132c22 -57 35 -125 35 -163c0 -104 -60 -183 -122 -241c-63 -59 -57 -53 -61 -56c-38 -34 -63 -95 -71 -95h-22v190c40 7 69 11 87 16c88 27 168 95 168 200c0 30 -12 89 -30 138 c-17 47 -31 73 -46 102z"/>
        </symbol>
        <symbol id="E4E5-1ys2cv" viewBox="0 0 1000 1000" overflow="inherit">
            <path transform="scale(1,-1)" d="M107 292c-13 24 -30 49 -52 71c-1 1 0 2 0 3l-2 2c3 3 4 4 6 4c12 0 26 -7 40 -20s44 -40 89 -81c26 -24 28 -29 46 -47c4 -4 8 -9 10 -14c6 -8 8 -16 8 -27c0 -19 -12 -40 -36 -61c-28 -23 -49 -38 -61 -73c-4 -11 -7 -27 -10 -50c13 -43 34 -83 59 -121 c31 -47 59 -79 101 -129c-8 0 -26 7 -54 20l-62 29l-21 6l-23 1c-25 0 -45 -10 -60 -30l-4 -14l-1 -12c0 -33 20 -56 39 -78c8 -9 17 -18 26 -26c17 -15 27 -24 28 -30l-3 -3c-11 5 -19 10 -25 15c-9 3 -37 21 -45 26c-24 14 -45 32 -63 51c-19 21 -37 44 -37 71 c0 63 27 95 80 95c41 0 86 -18 136 -52c-19 26 -37 48 -55 66c-23 23 -48 44 -73 65c-28 23 -47 40 -58 53s-17 26 -18 39c75 64 113 125 113 183c0 27 -7 48 -18 68z"/>
        </symbol>
        <symbol id="E4E6-1ys2cv" viewBox="0 0 1000 1000" overflow="inherit">
            <path transform="scale(1,-1)" d="M0 123c7 34 33 56 69 60c29 -3 43 -9 53 -29c4 -8 7 -15 10 -22c0 -21 -1 -25 -11 -35c-5 -8 -18 -14 -40 -20l12 -3l15 -1c44 0 97 26 122 56c10 11 18 26 24 42c7 1 15 2 22 3l-140 -424h-36l111 330c-10 -6 -27 -12 -53 -16l-52 -8h-10l-20 1c-1 0 -8 3 -21 6 c-37 9 -55 28 -55 60z"/>
        </symbol>
        <symbol id="E883-1ys2cv" viewBox="0 0 1000 1000" overflow="inherit">
            <path transform="scale(1,-1)" d="M161 326c52 0 94 -17 94 -68c0 -50 -40 -76 -82 -94c26 -21 39 -42 39 -64c0 -52 -56 -100 -118 -100h-12c-40 0 -82 23 -82 56c0 30 12 49 37 49c17 0 31 -16 34 -31c0 -5 -4 -12 -11 -21c-7 -5 -13 -10 -13 -21l11 -9l17 -4c21 0 40 12 56 37c13 21 19 45 19 70 c-9 30 -28 35 -66 35l6 23c34 0 60 4 77 13c20 11 30 35 30 70c0 28 -12 38 -39 40l-20 -3c-8 -3 -12 -9 -12 -16c2 -7 4 -11 5 -14l4 -11l3 -10l-3 -12c-5 -6 -11 -11 -20 -13c-2 0 -4 -1 -6 -1c-16 0 -30 13 -30 28c0 39 43 71 82 71z"/>
        </symbol>
    </defs>
    <style type="text/css">g.page-margin{font-family:Times,serif;} g.ending, g.fing, g.reh, g.tempo{font-weight:bold;} g.dir, g.dynam, g.mNum{font-style:italic;} g.label{font-weight:normal;}</style>
    <svg class="definition-scale" color="black" viewBox="0 0 15550 2840">
        <g class="page-margin" transform="translate(500, 500)">
            <g id="m7eqk17" class="mdiv pageMilestone"/>
            <g id="si5nso8" class="score pageMilestone"/>
            <g id="s17vzvyf" class="system">
                <g id="lbtajih" class="label">
                    <text x="1105" y="990" text-anchor="end" font-size="0px">
                        <tspan id="t1jej9sw" class="text">
                            <tspan font-size="405px">Piano</tspan>
                        </tspan>
                    </text>
                </g>
                <g id="s1agdg0s" class="section systemMilestone"/>
                <g id="pP1_m1" class="measure">
                    <g id="s1vmtvtl" class="staff">
                        <path d="M1285 540 L4213 540" stroke="currentColor" stroke-width="13"/>
                        <path d="M1285 720 L4213 720" stroke="currentColor" stroke-width="13"/>
                        <path d="M1285 900 L4213 900" stroke="currentColor" stroke-width="13"/>
                        <path d="M1285 1080 L4213 1080" stroke="currentColor" stroke-width="13"/>
                        <path d="M1285 1260 L4213 1260" stroke="currentColor" stroke-width="13"/>
                        <g id="clef1_1" class="clef" visibility="hidden"/>
                        <g id="key1_1" class="keySig" visibility="hidden"/>
                        <g id="time1_1" class="meterSig">
                            <use xlink:href="#E086-1ys2cv" x="1361" y="720" height="720px" width="720px"/>
                            <use xlink:href="#E088-1ys2cv" x="1368" y="1080" height="720px" width="720px"/>
                        </g>
                        <g class="ledgerLines below">
                            <path d="M1872 1440 L2194 1440" stroke="currentColor" stroke-width="22"/>
                        </g>
                        <g id="l1tuzblm" class="layer">
                            <g id="chord.note1_note2" class="chord">
                                <g id="chord.note1_note2.stem" class="stem">
                                    <path d="M2137 1412 L2137 360" stroke="currentColor" stroke-width="18"/>
                                </g>
                                <g id="note1" class="note">
                                    <g class="notehead" id="note1.notehead">
                                        <use xlink:href="#E0A4-1ys2cv" x="1920" y="1440" height="720px" width="720px"/>
                                    </g>
                                    <g id="note1.accidental" class="accid"/>
                                </g>
                                <g id="note2" class="note">
                                    <g class="notehead" id="note2.notehead">
                                        <use xlink:href="#E0A4-1ys2cv" x="1920" y="990" height="720px" width="720px"/>
                                    </g>
                                </g>
                            </g>
                            <g id="rest1" class="rest">
                                <use xlink:href="#E4E6-1ys2cv" x="2610" y="900" height="720px" width="720px"/>
                            </g>
                            <g id="chord.note3_note4" class="chord">
                                <g id="chord.note3_note4.stem" class="stem">
                                    <path d="M3069 658 L3069 1560" stroke="currentColor" stroke-width="18"/>
                                </g>
                                <g id="note3" class="note">
                                    <g class="notehead" id="note3.notehead">
                                        <use xlink:href="#E0A4-1ys2cv" x="3060" y="990" height="720px" width="720px"/>
                                    </g>
                                </g>
                                <g id="note4" class="note">
                                    <g class="notehead" id="note4.notehead">
                                        <use xlink:href="#E0A4-1ys2cv" x="3060" y="630" height="720px" width="720px"/>
                                    </g>
                                </g>
                            </g>
                            <g id="rest2" class="rest">
                                <use xlink:href="#E4E6-1ys2cv" x="3750" y="900" height="720px" width="720px"/>
                            </g>
                        </g>
                    </g>
                    <g id="pP1_m1.right_barline" class="barLine">
                        <path id="pP1_m1.right_barline.barline_tok1" d="M4200 540 L4200 1260" stroke="currentColor" stroke-width="27" class="barline_tok"/>
                    </g>
                </g>
                <g id="pP1_m2" class="measure">
                    <g id="s186b2z2" class="staff">
                        <path d="M4213 540 L5746 540" stroke="currentColor" stroke-width="13"/>
                        <path d="M4213 720 L5746 720" stroke="currentColor" stroke-width="13"/>
                        <path d="M4213 900 L5746 900" stroke="currentColor" stroke-width="13"/>
                        <path d="M4213 1080 L5746 1080" stroke="currentColor" stroke-width="13"/>
                        <path d="M4213 1260 L5746 1260" stroke="currentColor" stroke-width="13"/>
                        <g id="l15nrs9d" class="layer">
                            <g id="chord.note5_note6" class="chord">
                                <g id="chord.note5_note6.dots_parent" class="dots">
                                    <ellipse cx="4709" cy="990" rx="36" ry="36" class="single_dot" id="note5.dot1"/>
                                    <ellipse cx="4709" cy="450" rx="36" ry="36" class="single_dot" id="note6.dot1"/>
                                </g>
                                <g id="chord.note5_note6.stem" class="stem">
                                    <path d="M4402 475 L4402 1560" stroke="currentColor" stroke-width="18"/>
                                </g>
                                <g id="note5" class="note">
                                    <g class="notehead" id="note5.notehead">
                                        <use xlink:href="#E0A3-1ys2cv" x="4393" y="990" height="720px" width="720px"/>
                                    </g>
                                </g>
                                <g id="note6" class="note">
                                    <g class="notehead" id="note6.notehead">
                                        <use xlink:href="#E0A3-1ys2cv" x="4393" y="450" height="720px" width="720px"/>
                                    </g>
                                </g>
                            </g>
                        </g>
                    </g>
                    <g id="pP1_m2.right_barline" class="barLine">
                        <path id="pP1_m2.right_barline.barline_tok1" d="M5733 540 L5733 1260" stroke="currentColor" stroke-width="27" class="barline_tok"/>
                    </g>
                </g>
                <g id="pP1_m3" class="measure">
                    <g id="s1loikjb" class="staff">
                        <path d="M5746 540 L7189 540" stroke="currentColor" stroke-width="13"/>
                        <path d="M5746 720 L7189 720" stroke="currentColor" stroke-width="13"/>
                        <path d="M5746 900 L7189 900" stroke="currentColor" stroke-width="13"/>
                        <path d="M5746 1080 L7189 1080" stroke="currentColor" stroke-width="13"/>
                        <path d="M5746 1260 L7189 1260" stroke="currentColor" stroke-width="13"/>
                        <g id="l4ejkfi" class="layer">
                            <g id="pP1_m3.multi-rest.8" class="multiRest">
                                <rect x="5926" y="810" height="180" width="1056"/>
                                <rect x="5926" y="720" height="360" width="36"/>
                                <rect x="6946" y="720" height="360" width="36"/>
                                <use xlink:href="#E088-1ys2cv" x="6309" y="270" height="720px" width="720px"/>
                            </g>
                        </g>
                    </g>
                    <g id="pP1_m3.right_barline" class="barLine">
                        <path id="pP1_m3.right_barline.barline_tok1" d="M7176 540 L7176 1260" stroke="currentColor" stroke-width="27" class="barline_tok"/>
                    </g>
                </g>
                <g id="pP1_m11" class="measure">
                    <g id="s1yo09st" class="staff">
                        <path d="M7189 540 L9670 540" stroke="currentColor" stroke-width="13"/>
                        <path d="M7189 720 L9670 720" stroke="currentColor" stroke-width="13"/>
                        <path d="M7189 900 L9670 900" stroke="currentColor" stroke-width="13"/>
                        <path d="M7189 1080 L9670 1080" stroke="currentColor" stroke-width="13"/>
                        <path d="M7189 1260 L9670 1260" stroke="currentColor" stroke-width="13"/>
                        <g id="l1hjsjk5" class="layer">
                            <g id="rest11" class="rest">
                                <use xlink:href="#E4E5-1ys2cv" x="7369" y="900" height="720px" width="720px"/>
                            </g>
                            <g id="rest12" class="rest">
                                <use xlink:href="#E4E6-1ys2cv" x="8059" y="900" height="720px" width="720px"/>
                            </g>
                            <g id="beam1_parent" class="beam_parent">
                                <polygon points="8509,1710 9345,1710 9345,1620 8509,1620" id="beam1" class="beam"/>
                                <polygon points="8509,1575 9345,1575 9345,1485 8509,1485" id="beam2" class="beam"/>
                                <g id="tuplet1" class="tuplet">
                                    <g id="tuplet1.number" class="tupletNum">
                                        <use xlink:href="#E883-1ys2cv" x="8939" y="477" height="720px" width="720px"/>
                                    </g>
                                    <g id="tuplet1.bracket" class="tupletBracket">
                                        <polyline stroke="currentColor" stroke-width="18" stroke-linecap="butt" stroke-linejoin="miter" fill="none" points="8518,477 8518,360 8894,360 "/>
                                        <polyline stroke="currentColor" stroke-width="18" stroke-linecap="butt" stroke-linejoin="miter" fill="none" points="9544,477 9544,360 9167,360 "/>
                                    </g>
                                    <g id="note7" class="note">
                                        <g class="notehead" id="note7.notehead">
                                            <use xlink:href="#E0A4-1ys2cv" x="8509" y="900" height="720px" width="720px"/>
                                        </g>
                                        <g id="note7.stem" class="stem">
                                            <path d="M8518 928 L8518 1692" stroke="currentColor" stroke-width="18"/>
                                        </g>
                                    </g>
                                    <g id="note8" class="note">
                                        <g class="notehead" id="note8.notehead">
                                            <use xlink:href="#E0A4-1ys2cv" x="8825" y="990" height="720px" width="720px"/>
                                        </g>
                                        <g id="note8.stem" class="stem">
                                            <path d="M8834 1018 L8834 1692" stroke="currentColor" stroke-width="18"/>
                                        </g>
                                    </g>
                                    <g id="note9" class="note">
                                        <g class="notehead" id="note9.notehead">
                                            <use xlink:href="#E0A4-1ys2cv" x="9327" y="1080" height="720px" width="720px"/>
                                        </g>
                                        <g id="note9.stem" class="stem">
                                            <path d="M9336 1108 L9336 1692" stroke="currentColor" stroke-width="18"/>
                                        </g>
                                        <g id="note9.accidental" class="accid">
                                            <use xlink:href="#E262-1ys2cv" x="9141" y="1080" height="720px" width="720px"/>
                                        </g>
                                    </g>
                                </g>
                            </g>
                        </g>
                    </g>
                    <g id="pP1_m11.right_barline" class="barLine">
                        <path id="pP1_m11.right_barline.barline_tok1" d="M9657 540 L9657 1260" stroke="currentColor" stroke-width="27" class="barline_tok"/>
                    </g>
                </g>
                <g id="pP1_m12" class="measure">
                    <g id="s1ro4c0c" class="staff">
                        <path d="M9670 540 L12361 540" stroke="currentColor" stroke-width="13"/>
                        <path d="M9670 720 L12361 720" stroke="currentColor" stroke-width="13"/>
                        <path d="M9670 900 L12361 900" stroke="currentColor" stroke-width="13"/>
                        <path d="M9670 1080 L12361 1080" stroke="currentColor" stroke-width="13"/>
                        <path d="M9670 1260 L12361 1260" stroke="currentColor" stroke-width="13"/>
                        <g id="l1k6w2s8" class="layer">
                            <g id="beam3_parent" class="beam_parent">
                                <polygon points="9850,1800 10318,1845 10318,1755 9850,1710" id="beam3" class="beam"/>
                                <g id="note10" class="note">
                                    <g class="notehead" id="note10.notehead">
                                        <use xlink:href="#E0A4-1ys2cv" x="9850" y="990" height="720px" width="720px"/>
                                    </g>
                                    <g id="note10.stem" class="stem">
                                        <path d="M9859 1018 L9859 1782" stroke="currentColor" stroke-width="18"/>
                                    </g>
                                </g>
                                <g id="chord.note11_note12" class="chord">
                                    <g id="chord.note11_note12.stem" class="stem">
                                        <path d="M10309 748 L10309 1827" stroke="currentColor" stroke-width="18"/>
                                    </g>
                                    <g id="note11" class="note">
                                        <g class="notehead" id="note11.notehead">
                                            <use xlink:href="#E0A4-1ys2cv" x="10300" y="1350" height="720px" width="720px"/>
                                        </g>
                                    </g>
                                    <g id="note12" class="note">
                                        <g class="notehead" id="note12.notehead">
                                            <use xlink:href="#E0A4-1ys2cv" x="10300" y="720" height="720px" width="720px"/>
                                        </g>
                                    </g>
                                </g>
                            </g>
                            <g id="note13" class="note">
                                <g class="notehead" id="note13.notehead">
                                    <use xlink:href="#E0A4-1ys2cv" x="10750" y="990" height="720px" width="720px"/>
                                </g>
                                <g id="note13.stem" class="stem">
                                    <path d="M10759 1018 L10759 1560" stroke="currentColor" stroke-width="18"/>
                                    <g id="note13.stem.flag" class="flag">
                                        <use xlink:href="#E241-1ys2cv" x="10750" y="1560" height="720px" width="720px"/>
                                    </g>
                                </g>
                            </g>
                            <g id="beam4_parent" class="beam_parent">
                                <polygon points="11200,1710 12036,1710 12036,1620 11200,1620" id="beam4" class="beam"/>
                                <polygon points="11200,1575 12036,1575 12036,1485 11200,1485" id="beam5" class="beam"/>
                                <g id="tuplet2" class="tuplet">
                                    <g id="tuplet2.number" class="tupletNum">
                                        <use xlink:href="#E883-1ys2cv" x="11630" y="477" height="720px" width="720px"/>
                                    </g>
                                    <g id="tuplet2.bracket" class="tupletBracket">
                                        <polyline stroke="currentColor" stroke-width="18" stroke-linecap="butt" stroke-linejoin="miter" fill="none" points="11209,477 11209,360 11585,360 "/>
                                        <polyline stroke="currentColor" stroke-width="18" stroke-linecap="butt" stroke-linejoin="miter" fill="none" points="12235,477 12235,360 11858,360 "/>
                                    </g>
                                    <g id="note14" class="note">
                                        <g class="notehead" id="note14.notehead">
                                            <use xlink:href="#E0A4-1ys2cv" x="11200" y="900" height="720px" width="720px"/>
                                        </g>
                                        <g id="note14.stem" class="stem">
                                            <path d="M11209 928 L11209 1692" stroke="currentColor" stroke-width="18"/>
                                        </g>
                                    </g>
                                    <g id="note15" class="note">
                                        <g class="notehead" id="note15.notehead">
                                            <use xlink:href="#E0A4-1ys2cv" x="11516" y="990" height="720px" width="720px"/>
                                        </g>
                                        <g id="note15.stem" class="stem">
                                            <path d="M11525 1018 L11525 1692" stroke="currentColor" stroke-width="18"/>
                                        </g>
                                    </g>
                                    <g id="note16" class="note">
                                        <g class="notehead" id="note16.notehead">
                                            <use xlink:href="#E0A4-1ys2cv" x="12018" y="1080" height="720px" width="720px"/>
                                        </g>
                                        <g id="note16.stem" class="stem">
                                            <path d="M12027 1108 L12027 1692" stroke="currentColor" stroke-width="18"/>
                                        </g>
                                        <g id="note16.accidental" class="accid">
                                            <use xlink:href="#E262-1ys2cv" x="11832" y="1080" height="720px" width="720px"/>
                                        </g>
                                    </g>
                                </g>
                            </g>
                        </g>
                    </g>
                    <g id="pP1_m12.right_barline" class="barLine">
                        <path id="pP1_m12.right_barline.barline_tok1" d="M12348 540 L12348 1260" stroke="currentColor" stroke-width="27" class="barline_tok"/>
                    </g>
                </g>
                <g id="pP1_m13" class="measure">
                    <g id="svy71ma" class="staff">
                        <path d="M12361 540 L14550 540" stroke="currentColor" stroke-width="13"/>
                        <path d="M12361 720 L14550 720" stroke="currentColor" stroke-width="13"/>
                        <path d="M12361 900 L14550 900" stroke="currentColor" stroke-width="13"/>
                        <path d="M12361 1080 L14550 1080" stroke="currentColor" stroke-width="13"/>
                        <path d="M12361 1260 L14550 1260" stroke="currentColor" stroke-width="13"/>
                        <g id="lzi6eet" class="layer">
                            <g id="beam6_parent" class="beam_parent">
                                <polygon points="12541,1800 13009,1845 13009,1755 12541,1710" id="beam6" class="beam"/>
                                <g id="note17" class="note">
                                    <g class="notehead" id="note17.notehead">
                                        <use xlink:href="#E0A4-1ys2cv" x="12541" y="990" height="720px" width="720px"/>
                                    </g>
                                    <g id="note17.stem" class="stem">
                                        <path d="M12550 1018 L12550 1782" stroke="currentColor" stroke-width="18"/>
                                    </g>
                                </g>
                                <g id="chord.note18_note19" class="chord">
                                    <g id="chord.note18_note19.stem" class="stem">
                                        <path d="M13000 748 L13000 1827" stroke="currentColor" stroke-width="18"/>
                                    </g>
                                    <g id="note18" class="note">
                                        <g class="notehead" id="note18.notehead">
                                            <use xlink:href="#E0A4-1ys2cv" x="12991" y="1350" height="720px" width="720px"/>
                                        </g>
                                    </g>
                                    <g id="note19" class="note">
                                        <g class="notehead" id="note19.notehead">
                                            <use xlink:href="#E0A4-1ys2cv" x="12991" y="720" height="720px" width="720px"/>
                                        </g>
                                    </g>
                                </g>
                            </g>
                            <g id="beam7_parent" class="beam_parent">
                                <polygon points="13441,1530 14225,1350 14225,1260 13441,1440" id="beam7" class="beam"/>
                                <polygon points="13900,1290 14225,1215 14225,1125 13900,1200" id="beam8" class="beam"/>
                                <g id="note20" class="note">
                                    <g class="notehead" id="note20.notehead">
                                        <use xlink:href="#E0A4-1ys2cv" x="13441" y="990" height="720px" width="720px"/>
                                    </g>
                                    <g id="note20.stem" class="stem">
                                        <path d="M13450 1018 L13450 1512" stroke="currentColor" stroke-width="18"/>
                                    </g>
                                </g>
                                <g id="note21" class="note">
                                    <g class="notehead" id="note21.notehead">
                                        <use xlink:href="#E0A4-1ys2cv" x="13891" y="810" height="720px" width="720px"/>
                                    </g>
                                    <g id="note21.stem" class="stem">
                                        <path d="M13900 838 L13900 1407" stroke="currentColor" stroke-width="18"/>
                                    </g>
                                    <g id="note21.accidental" class="accid"/>
                                </g>
                                <g id="note22" class="note">
                                    <g class="notehead" id="note22.notehead">
                                        <use xlink:href="#E0A4-1ys2cv" x="14207" y="720" height="720px" width="720px"/>
                                    </g>
                                    <g id="note22.stem" class="stem">
                                        <path d="M14216 748 L14216 1332" stroke="currentColor" stroke-width="18"/>
                                    </g>
                                </g>
                            </g>
                        </g>
                    </g>
                    <g id="pP1_m13.right_barline" class="barLine">
                        <path id="pP1_m13.right_barline.barline_tok1" d="M14537 540 L14537 1260" stroke="currentColor" stroke-width="27" class="barline_tok"/>
                    </g>
                </g>
                <g id="szistrx" class="systemMilestoneEnd s1agdg0s"/>
            </g>
            <g id="p17786zq" class="pageMilestoneEnd si5nso8"/>
            <g id="pao7ba5" class="pageMilestoneEnd m7eqk17"/>
        </g>
    </svg>
</svg>