<svg xmlns="http://www.w3.org/2000/svg" xmlns:xlink="http://www.w3.org/1999/xlink" xmlns:mei="http://www.music-encoding.org/ns/mei" width="1775px" height="280px" version="1.1" overflow="visible">
    <desc>Engraved by Verovio 4.3.0-dev-ba68db3-dirty</desc>
    <defs>
        <symbol id="E086-9tgz1e" viewBox="0 0 1000 1000" overflow="inherit">
            <path transform="scale(1,-1)" d="M284 -91c0 37 -28 92 -67 92c-35 0 -65 -54 -65 -111c0 -52 22 -104 68 -104c47 0 64 68 64 123zM230 214c-36 0 -90 -33 -90 -184l2 -36c40 24 81 36 120 36c80 0 140 -48 140 -121c0 -99 -99 -159 -182 -159c-160 0 -200 173 -200 244c0 21 2 43 7 71l10 35 c26 85 73 115 98 126c41 19 74 24 103 24c93 0 142 -63 142 -105c0 -58 -52 -72 -73 -72c-33 0 -59 24 -65 35c-3 5 -6 14 -7 25l11 30c6 15 9 27 9 35c0 11 -9 16 -25 16z"/>
        </symbol>
        <symbol id="E088-9tgz1e" viewBox="0 0 1000 1000" overflow="inherit">
            <path transform="scale(1,-1)" d="M195 -214c76 0 88 58 90 68c0 34 -35 60 -57 73l-52 29c-21 10 -32 17 -34 20c-39 -33 -58 -54 -62 -92c5 -23 23 -98 115 -98zM301 135c0 61 -72 76 -113 76c-40 0 -77 -17 -77 -51c3 -21 15 -38 26 -50c17 -15 33 -26 48 -34l65 -28c34 27 51 56 51 87zM176 -250 c-57 0 -166 26 -166 132c0 47 30 86 89 116c-33 15 -79 60 -79 119c0 79 85 132 178 132h18c5 0 21 1 28 -1c25 0 126 -30 126 -110c0 -37 -23 -76 -69 -116c43 -25 83 -71 83 -119c0 -101 -118 -153 -208 -153z"/>
        </symbol>
        <symbol id="E0A4-9tgz1e" viewBox="0 0 1000 1000" overflow="inherit">
            <path transform="scale(1,-1)" d="M0 -39c0 68 73 172 200 172c66 0 114 -37 114 -95c0 -84 -106 -171 -218 -171c-64 0 -96 30 -96 94z"/>
        </symbol>
        <symbol id="E262-9tgz1e" viewBox="0 0 1000 1000" overflow="inherit">
            <path transform="scale(1,-1)" d="M136 186v169h17v-164l44 14v-91l-44 -14v-165l44 12v-91l-44 -13v-155h-17v150l-76 -22v-155h-17v149l-43 -13v90l43 14v167l-43 -14v92l43 13v169h17v-163zM60 73v-167l76 22v168z"/>
        </symbol>
        <symbol id="E261-9tgz1e" viewBox="0 0 1000 1000" overflow="inherit">
            <path transform="scale(1,-1)" d="M0 -188v539h18v-191l139 22v-533h-17v186zM18 -100l122 17v176l-122 -19v-174z"/>
        </symbol>
        <symbol id="E240-9tgz1e" viewBox="0 0 1000 1000" overflow="inherit">
            <path transform="scale(1,-1)" d="M179 -646c15 29 29 55 46 102c18 49 30 108 30 138c0 105 -80 173 -168 200c-18 5 -47 9 -87 16v190h22c8 0 33 -61 71 -95c4 -3 -2 3 61 -56c62 -58 122 -137 122 -241c0 -38 -13 -106 -35 -163c-20 -51 -43 -99 -66 -132c-6 -5 -10 -7 -13 -7s-5 2 -5 5l4 10 c1 3 14 25 18 33z"/>
        </symbol>
        <symbol id="E241-9tgz1e" viewBox="0 0 1000 1000" overflow="inherit">
            <path transform="scale(1,-1)" d="M179 646c-4 8 -17 30 -18 33l-4 10c0 3 2 5 5 5s7 -2 13 -7c23 -33 46 -81 66 -132c22 -57 35 -125 35 -163c0 -104 -60 -183 -122 -241c-63 -59 -57 -53 -61 -56c-38 -34 -63 -95 -71 -95h-22v190c40 7 69 11 87 16c88 27 168 95 168 200c0 30 -12 89 -30 138 c-17 47 -31 73 -46 102z"/>
        </symbol>
        <symbol id="E4E5-9tgz1e" viewBox="0 0 1000 1000" overflow="inherit">
            <path transform="scale(1,-1)" d="M107 292c-13 24 -30 49 -52 71c-1 1 0 2 0 3l-2 2c3 3 4 4 6 4c12 0 26 -7 40 -20s44 -40 89 -81c26 -24 28 -29 46 -47c4 -4 8 -9 10 -14c6 -8 8 -16 8 -27c0 -19 -12 -40 -36 -61c-28 -23 -49 -38 -61 -73c-4 -11 -7 -27 -10 -50c13 -43 34 -83 59 -121 c31 -47 59 -79 101 -129c-8 0 -26 7 -54 20l-62 29l-21 6l-23 1c-25 0 -45 -10 -60 -30l-4 -14l-1 -12c0 -33 20 -56 39 -78c8 -9 17 -18 26 -26c17 -15 27 -24 28 -30l-3 -3c-11 5 -19 10 -25 15c-9 3 -37 21 -45 26c-24 14 -45 32 -63 51c-19 21 -37 44 -37 71 c0 63 27 95 80 95c41 0 86 -18 136 -52c-19 26 -37 48 -55 66c-23 23 -48 44 -73 65c-28 23 -47 40 -58 53s-17 26 -18 39c75 64 113 125 113 183c0 27 -7 48 -18 68z"/>
        </symbol>
        <symbol id="E4E6-9tgz1e" viewBox="0 0 1000 1000" overflow="inherit">
            <path transform="scale(1,-1)" d="M0 123c7 34 33 56 69 60c29 -3 43 -9 53 -29c4 -8 7 -15 10 -22c0 -21 -1 -25 -11 -35c-5 -8 -18 -14 -40 -20l12 -3l15 -1c44 0 97 26 122 56c10 11 18 26 24 42c7 1 15 2 22 3l-140 -424h-36l111 330c-10 -6 -27 -12 -53 -16l-52 -8h-10l-20 1c-1 0 -8 3 -21 6 c-37 9 -55 28 -55 60z"/>
        </symbol>
        <symbol id="E243-9tgz1e" viewBox="0 0 1000 1000" overflow="inherit">
            <path transform="scale(1,-1)" d="M216 730c-5 8 -10 13 -11 16l-4 10c0 3 2 5 5 5s7 -2 13 -7c35 -42 57 -101 57 -172c0 -34 -6 -65 -17 -94c10 -31 17 -64 17 -96c0 -104 -60 -183 -122 -241c-63 -59 -57 -53 -61 -56c-38 -34 -63 -95 -71 -95h-22v190v190c40 7 69 11 87 16c116 36 175 111 175 197 c0 44 -15 91 -46 137zM248 463c-23 -48 -58 -89 -94 -122c-63 -59 -57 -53 -61 -56c-30 -27 -44 -71 -53 -88c20 3 36 6 47 9c88 27 168 95 168 200c0 19 -3 39 -7 57z"/>
        </symbol>
    </defs>
    <style type="text/css">g.page-margin{font-family:Times,serif;} g.ending, g.fing, g.reh, g.tempo{font-weight:bold;} g.dir, g.dynam, g.mNum{font-style:italic;} g.label{font-weight:normal;}</style>
    <svg class="definition-scale" color="black" viewBox="0 0 17750 2800">
        <g class="page-margin" transform="translate(500, 500)">
            <g id="mff8iqm" class="mdiv pageMilestone"/>
            <g id="sf8gu99" class="score pageMilestone"/>
            <g id="s1vifevx" class="system">
                <g id="l11347gi" class="label">
                    <text x="1088" y="990" text-anchor="end" font-size="0px">
                        <tspan id="tfhv90u" class="text">
                            <tspan font-size="405px">Viol&#237;</tspan>
                        </tspan>
                    </text>
                </g>
                <g id="s1w338wb" class="section systemMilestone"/>
                <g id="pP1_m1" class="measure">
                    <g id="sl2qvl3" class="staff">
                        <path d="M1268 540 L4588 540" stroke="currentColor" stroke-width="13"/>
                        <path d="M1268 720 L4588 720" stroke="currentColor" stroke-width="13"/>
                        <path d="M1268 900 L4588 900" stroke="currentColor" stroke-width="13"/>
                        <path d="M1268 1080 L4588 1080" stroke="currentColor" stroke-width="13"/>
                        <path d="M1268 1260 L4588 1260" stroke="currentColor" stroke-width="13"/>
                        <g id="clef1_1" class="clef" visibility="hidden"/>
                        <g id="key1_1" class="keySig" visibility="hidden"/>
                        <g id="time1_1" class="meterSig">
                            <use xlink:href="#E086-9tgz1e" x="1344" y="720" height="720px" width="720px"/>
                            <use xlink:href="#E088-9tgz1e" x="1351" y="1080" height="720px" width="720px"/>
                        </g>
                        <g id="lpe3c2f" class="layer">
                            <g id="note1" class="note">
                                <g class="notehead" id="note1.notehead">
                                    <use xlink:href="#E0A4-9tgz1e" x="1903" y="720" height="720px" width="720px"/>
                                </g>
                                <g id="note1.stem" class="stem">
                                    <path d="M1912 748 L1912 1350" stroke="currentColor" stroke-width="18"/>
                                </g>
                            </g>
                            <g id="beam1_parent" class="beam_parent">
                                <polygon points="2593,1530 2927,1575 2927,1485 2593,1440" id="beam1" class="beam"/>
                                <polygon points="2593,1395 2927,1440 2927,1350 2593,1305" id="beam2" class="beam"/>
                                <g id="note2" class="note">
                                    <g class="notehead" id="note2.notehead">
                                        <use xlink:href="#E0A4-9tgz1e" x="2593" y="810" height="720px" width="720px"/>
                                    </g>
                                    <g id="note2.stem" class="stem">
                                        <path d="M2602 838 L2602 1512" stroke="currentColor" stroke-width="18"/>
                                    </g>
                                </g>
                                <g id="note3" class="note">
                                    <g class="notehead" id="note3.notehead">
                                        <use xlink:href="#E0A4-9tgz1e" x="2909" y="900" height="720px" width="720px"/>
                                    </g>
                                    <g id="note3.stem" class="stem">
                                        <path d="M2918 928 L2918 1557" stroke="currentColor" stroke-width="18"/>
                                    </g>
                                </g>
                            </g>
                            <g id="note4" class="note">
                                <g class="notehead" id="note4.notehead">
                                    <use xlink:href="#E0A4-9tgz1e" x="3225" y="900" height="720px" width="720px"/>
                                </g>
                                <g id="note4.stem" class="stem">
                                    <path d="M3234 928 L3234 1500" stroke="currentColor" stroke-width="18"/>
                                    <g id="note4.stem.flag" class="flag">
                                        <use xlink:href="#E241-9tgz1e" x="3225" y="1500" height="720px" width="720px"/>
                                    </g>
                                </g>
                            </g>
                            <g id="rest1" class="rest">
                                <use xlink:href="#E4E6-9tgz1e" x="3675" y="900" height="720px" width="720px"/>
                            </g>
                            <g id="note5" class="note">
                                <g class="notehead" id="note5.notehead">
                                    <use xlink:href="#E0A4-9tgz1e" x="4125" y="900" height="720px" width="720px"/>
                                </g>
                                <g id="note5.stem" class="stem">
                                    <path d="M4134 928 L4134 1500" stroke="currentColor" stroke-width="18"/>
                                    <g id="note5.stem.flag" class="flag">
                                        <use xlink:href="#E241-9tgz1e" x="4125" y="1500" height="720px" width="720px"/>
                                    </g>
                                </g>
                            </g>
                        </g>
                    </g>
                    <g id="pP1_m1.right_barline" class="barLine">
                        <path id="pP1_m1.right_barline.barline_tok1" d="M4575 540 L4575 1260" stroke="currentColor" stroke-width="27" class="barline_tok"/>
                    </g>
                </g>
                <g id="pP1_m2" class="measure">
                    <g id="spykdjr" class="staff">
                        <path d="M4588 540 L7905 540" stroke="currentColor" stroke-width="13"/>
                        <path d="M4588 720 L7905 720" stroke="currentColor" stroke-width="13"/>
                        <path d="M4588 900 L7905 900" stroke="currentColor" stroke-width="13"/>
                        <path d="M4588 1080 L7905 1080" stroke="currentColor" stroke-width="13"/>
                        <path d="M4588 1260 L7905 1260" stroke="currentColor" stroke-width="13"/>
                        <g id="l96hhqq" class="layer">
                            <g id="note6" class="note">
                                <g class="notehead" id="note6.notehead">
                                    <use xlink:href="#E0A4-9tgz1e" x="4768" y="990" height="720px" width="720px"/>
                                </g>
                                <g id="note6.stem" class="stem">
                                    <path d="M4985 962 L4985 360" stroke="currentColor" stroke-width="18"/>
                                    <g id="note6.stem.flag" class="flag">
                                        <use xlink:href="#E240-9tgz1e" x="4976" y="360" height="720px" width="720px"/>
                                    </g>
                                </g>
                            </g>
                            <g id="note7" class="note">
                                <g class="notehead" id="note7.notehead">
                                    <use xlink:href="#E0A4-9tgz1e" x="5264" y="720" height="720px" width="720px"/>
                                </g>
                                <g id="note7.stem" class="stem">
                                    <path d="M5273 748 L5273 1350" stroke="currentColor" stroke-width="18"/>
                                    <g id="note7.stem.flag" class="flag">
                                        <use xlink:href="#E241-9tgz1e" x="5264" y="1350" height="720px" width="720px"/>
                                    </g>
                                </g>
                            </g>
                            <g id="note8" class="note">
                                <g class="notehead" id="note8.notehead">
                                    <use xlink:href="#E0A4-9tgz1e" x="5714" y="540" height="720px" width="720px"/>
                                </g>
                                <g id="note8.stem" class="stem">
                                    <path d="M5723 568 L5723 1170" stroke="currentColor" stroke-width="18"/>
                                    <g id="note8.stem.flag" class="flag">
                                        <use xlink:href="#E241-9tgz1e" x="5714" y="1170" height="720px" width="720px"/>
                                    </g>
                                </g>
                                <g id="note8.accidental" class="accid"/>
                            </g>
                            <g id="beam3_parent" class="beam_parent">
                                <polygon points="6164,1170 6762,1260 6762,1170 6164,1080" id="beam3" class="beam"/>
                                <polygon points="6536,1093 6762,1125 6762,1035 6536,1003" id="beam4" class="beam"/>
                                <g id="note9" class="note">
                                    <g class="notehead" id="note9.notehead">
                                        <use xlink:href="#E0A4-9tgz1e" x="6164" y="540" height="720px" width="720px"/>
                                    </g>
                                    <g id="note9.dots_parent" class="dots">
                                        <ellipse cx="6480" cy="450" rx="36" ry="36" id="note9.dot1" class="single_dot"/>
                                    </g>
                                    <g id="note9.stem" class="stem">
                                        <path d="M6173 568 L6173 1152" stroke="currentColor" stroke-width="18"/>
                                    </g>
                                    <g id="note9.accidental" class="accid"/>
                                </g>
                                <g id="note10" class="note">
                                    <g class="notehead" id="note10.notehead">
                                        <use xlink:href="#E0A4-9tgz1e" x="6744" y="630" height="720px" width="720px"/>
                                    </g>
                                    <g id="note10.stem" class="stem">
                                        <path d="M6753 658 L6753 1242" stroke="currentColor" stroke-width="18"/>
                                    </g>
                                </g>
                            </g>
                            <g id="note11" class="note">
                                <g class="notehead" id="note11.notehead">
                                    <use xlink:href="#E0A4-9tgz1e" x="7060" y="900" height="720px" width="720px"/>
                                </g>
                                <g id="note11.stem" class="stem">
                                    <path d="M7069 928 L7069 1500" stroke="currentColor" stroke-width="18"/>
                                    <g id="note11.stem.flag" class="flag">
                                        <use xlink:href="#E243-9tgz1e" x="7060" y="1500" height="720px" width="720px"/>
                                    </g>
                                </g>
                            </g>
                            <g id="note12" class="note">
                                <g class="notehead" id="note12.notehead">
                                    <use xlink:href="#E0A4-9tgz1e" x="7562" y="810" height="720px" width="720px"/>
                                </g>
                                <g id="note12.stem" class="stem">
                                    <path d="M7571 838 L7571 1440" stroke="currentColor" stroke-width="18"/>
                                    <g id="note12.stem.flag" class="flag">
                                        <use xlink:href="#E243-9tgz1e" x="7562" y="1440" height="720px" width="720px"/>
                                    </g>
                                </g>
                                <g id="note12.accidental" class="accid">
                                    <use xlink:href="#E262-9tgz1e" x="7376" y="810" height="720px" width="720px"/>
                                </g>
                            </g>
                        </g>
                    </g>
                    <g id="pP1_m2.right_barline" class="barLine">
                        <path id="pP1_m2.right_barline.barline_tok1" d="M7892 540 L7892 1260" stroke="currentColor" stroke-width="27" class="barline_tok"/>
                    </g>
                </g>
                <g id="pP1_m3" class="measure">
                    <g id="s5wn7oa" class="staff">
                        <path d="M7905 540 L10774 540" stroke="currentColor" stroke-width="13"/>
                        <path d="M7905 720 L10774 720" stroke="currentColor" stroke-width="13"/>
                        <path d="M7905 900 L10774 900" stroke="currentColor" stroke-width="13"/>
                        <path d="M7905 1080 L10774 1080" stroke="currentColor" stroke-width="13"/>
                        <path d="M7905 1260 L10774 1260" stroke="currentColor" stroke-width="13"/>
                        <g id="l1p0ql4j" class="layer">
                            <g id="note13" class="note">
                                <g class="notehead" id="note13.notehead">
                                    <use xlink:href="#E0A4-9tgz1e" x="8271" y="810" height="720px" width="720px"/>
                                </g>
                                <g id="note13.stem" class="stem">
                                    <path d="M8280 838 L8280 1440" stroke="currentColor" stroke-width="18"/>
                                    <g id="note13.stem.flag" class="flag">
                                        <use xlink:href="#E241-9tgz1e" x="8271" y="1440" height="720px" width="720px"/>
                                    </g>
                                </g>
                                <g id="note13.accidental" class="accid">
                                    <use xlink:href="#E262-9tgz1e" x="8085" y="810" height="720px" width="720px"/>
                                </g>
                            </g>
                            <g id="note14" class="note">
                                <g class="notehead" id="note14.notehead">
                                    <use xlink:href="#E0A4-9tgz1e" x="8721" y="720" height="720px" width="720px"/>
                                </g>
                                <g id="note14.stem" class="stem">
                                    <path d="M8730 748 L8730 1350" stroke="currentColor" stroke-width="18"/>
                                    <g id="note14.stem.flag" class="flag">
                                        <use xlink:href="#E241-9tgz1e" x="8721" y="1350" height="720px" width="720px"/>
                                    </g>
                                </g>
                            </g>
                            <g id="rest2" class="rest">
                                <use xlink:href="#E4E6-9tgz1e" x="9171" y="900" height="720px" width="720px"/>
                            </g>
                            <g id="rest3" class="rest">
                                <use xlink:href="#E4E5-9tgz1e" x="9621" y="900" height="720px" width="720px"/>
                            </g>
                            <g id="rest4" class="rest">
                                <use xlink:href="#E4E6-9tgz1e" x="10311" y="900" height="720px" width="720px"/>
                            </g>
                        </g>
                    </g>
                    <g id="pP1_m3.right_barline" class="barLine">
                        <path id="pP1_m3.right_barline.barline_tok1" d="M10761 540 L10761 1260" stroke="currentColor" stroke-width="27" class="barline_tok"/>
                    </g>
                </g>
                <g id="pP1_m4" class="measure">
                    <g id="s1ijwg8y" class="staff">
                        <path d="M10774 540 L13221 540" stroke="currentColor" stroke-width="13"/>
                        <path d="M10774 720 L13221 720" stroke="currentColor" stroke-width="13"/>
                        <path d="M10774 900 L13221 900" stroke="currentColor" stroke-width="13"/>
                        <path d="M10774 1080 L13221 1080" stroke="currentColor" stroke-width="13"/>
                        <path d="M10774 1260 L13221 1260" stroke="currentColor" stroke-width="13"/>
                        <g id="l1428njv" class="layer">
                            <g id="note15" class="note">
                                <g class="notehead" id="note15.notehead">
                                    <use xlink:href="#E0A4-9tgz1e" x="10954" y="720" height="720px" width="720px"/>
                                </g>
                                <g id="note15.dots_parent" class="dots">
                                    <ellipse cx="11270" cy="630" rx="36" ry="36" id="note15.dot1" class="single_dot"/>
                                </g>
                                <g id="note15.stem" class="stem">
                                    <path d="M10963 748 L10963 1350" stroke="currentColor" stroke-width="18"/>
                                </g>
                            </g>
                            <g id="note16" class="note">
                                <g class="notehead" id="note16.notehead">
                                    <use xlink:href="#E0A4-9tgz1e" x="11834" y="720" height="720px" width="720px"/>
                                </g>
                                <g id="note16.stem" class="stem">
                                    <path d="M11843 748 L11843 1350" stroke="currentColor" stroke-width="18"/>
                                    <g id="note16.stem.flag" class="flag">
                                        <use xlink:href="#E241-9tgz1e" x="11834" y="1350" height="720px" width="720px"/>
                                    </g>
                                </g>
                            </g>
                            <g id="note17" class="note">
                                <g class="notehead" id="note17.notehead">
                                    <use xlink:href="#E0A4-9tgz1e" x="12284" y="630" height="720px" width="720px"/>
                                </g>
                                <g id="note17.stem" class="stem">
                                    <path d="M12293 658 L12293 1260" stroke="currentColor" stroke-width="18"/>
                                    <g id="note17.stem.flag" class="flag">
                                        <use xlink:href="#E241-9tgz1e" x="12284" y="1260" height="720px" width="720px"/>
                                    </g>
                                </g>
                            </g>
                            <g id="note18" class="note">
                                <g class="notehead" id="note18.notehead">
                                    <use xlink:href="#E0A4-9tgz1e" x="12758" y="540" height="720px" width="720px"/>
                                </g>
                                <g id="note18.stem" class="stem">
                                    <path d="M12767 568 L12767 1170" stroke="currentColor" stroke-width="18"/>
                                    <g id="note18.stem.flag" class="flag">
                                        <use xlink:href="#E241-9tgz1e" x="12758" y="1170" height="720px" width="720px"/>
                                    </g>
                                </g>
                                <g id="note18.accidental" class="accid">
                                    <use xlink:href="#E261-9tgz1e" x="12600" y="540" height="720px" width="720px"/>
                                </g>
                            </g>
                        </g>
                    </g>
                    <g id="pP1_m4.right_barline" class="barLine">
                        <path id="pP1_m4.right_barline.barline_tok1" d="M13208 540 L13208 1260" stroke="currentColor" stroke-width="27" class="barline_tok"/>
                    </g>
                </g>
                <g id="pP1_m5" class="measure">
                    <g id="s1phx1dg" class="staff">
                        <path d="M13221 540 L16756 540" stroke="currentColor" stroke-width="13"/>
                        <path d="M13221 720 L16756 720" stroke="currentColor" stroke-width="13"/>
                        <path d="M13221 900 L16756 900" stroke="currentColor" stroke-width="13"/>
                        <path d="M13221 1080 L16756 1080" stroke="currentColor" stroke-width="13"/>
                        <path d="M13221 1260 L16756 1260" stroke="currentColor" stroke-width="13"/>
                        <g id="l13lbeyz" class="layer">
                            <g id="beam5_parent" class="beam_parent">
                                <polygon points="13559,1440 14589,1620 14589,1530 13559,1350" id="beam5" class="beam"/>
                                <polygon points="13559,1305 14589,1485 14589,1395 13559,1215" id="beam6" class="beam"/>
                                <g id="note19" class="note">
                                    <g class="notehead" id="note19.notehead">
                                        <use xlink:href="#E0A4-9tgz1e" x="13559" y="540" height="720px" width="720px"/>
                                    </g>
                                    <g id="note19.dots_parent" class="dots">
                                        <ellipse cx="13875" cy="450" rx="36" ry="36" id="note19.dot1" class="single_dot"/>
                                    </g>
                                    <g id="note19.stem" class="stem">
                                        <path d="M13568 568 L13568 1422" stroke="currentColor" stroke-width="18"/>
                                    </g>
                                    <g id="note19.accidental" class="accid">
                                        <use xlink:href="#E261-9tgz1e" x="13401" y="540" height="720px" width="720px"/>
                                    </g>
                                </g>
                                <g id="note20" class="note">
                                    <g class="notehead" id="note20.notehead">
                                        <use xlink:href="#E0A4-9tgz1e" x="13939" y="720" height="720px" width="720px"/>
                                    </g>
                                    <g id="note20.stem" class="stem">
                                        <path d="M13948 748 L13948 1490" stroke="currentColor" stroke-width="18"/>
                                    </g>
                                </g>
                                <g id="note21" class="note">
                                    <g class="notehead" id="note21.notehead">
                                        <use xlink:href="#E0A4-9tgz1e" x="14255" y="900" height="720px" width="720px"/>
                                    </g>
                                    <g id="note21.stem" class="stem">
                                        <path d="M14264 928 L14264 1546" stroke="currentColor" stroke-width="18"/>
                                    </g>
                                </g>
                                <g id="note22" class="note">
                                    <g class="notehead" id="note22.notehead">
                                        <use xlink:href="#E0A4-9tgz1e" x="14571" y="990" height="720px" width="720px"/>
                                    </g>
                                    <g id="note22.stem" class="stem">
                                        <path d="M14580 1018 L14580 1602" stroke="currentColor" stroke-width="18"/>
                                    </g>
                                </g>
                            </g>
                            <g id="note23" class="note">
                                <g class="notehead" id="note23.notehead">
                                    <use xlink:href="#E0A4-9tgz1e" x="15073" y="1080" height="720px" width="720px"/>
                                </g>
                                <g id="note23.stem" class="stem">
                                    <path d="M15082 1108 L15082 1620" stroke="currentColor" stroke-width="18"/>
                                    <g id="note23.stem.flag" class="flag">
                                        <use xlink:href="#E241-9tgz1e" x="15073" y="1620" height="720px" width="720px"/>
                                    </g>
                                </g>
                                <g id="note23.accidental" class="accid">
                                    <use xlink:href="#E262-9tgz1e" x="14887" y="1080" height="720px" width="720px"/>
                                </g>
                            </g>
                            <g id="rest5" class="rest">
                                <use xlink:href="#E4E6-9tgz1e" x="15523" y="900" height="720px" width="720px"/>
                                <g id="rest5.dots_parent" class="dots">
                                    <ellipse cx="15811" cy="810" rx="36" ry="36" id="rest5.dot1" class="single_dot"/>
                                </g>
                            </g>
                            <g id="note24" class="note">
                                <g class="notehead" id="note24.notehead">
                                    <use xlink:href="#E0A4-9tgz1e" x="16103" y="630" height="720px" width="720px"/>
                                </g>
                                <g id="note24.stem" class="stem">
                                    <path d="M16112 658 L16112 1260" stroke="currentColor" stroke-width="18"/>
                                    <g id="note24.stem.flag" class="flag">
                                        <use xlink:href="#E241-9tgz1e" x="16103" y="1260" height="720px" width="720px"/>
                                    </g>
                                </g>
                            </g>
                            <g id="rest6" class="space"/>
                        </g>
                    </g>
                    <g id="pP1_m5.right_barline" class="barLine">
                        <path id="pP1_m5.right_barline.barline_tok1" d="M16743 540 L16743 1260" stroke="currentColor" stroke-width="27" class="barline_tok"/>
                    </g>
                </g>
                <g id="s1wakali" class="systemMilestoneEnd s1w338wb"/>
            </g>
            <g id="phlgfq9" class="pageMilestoneEnd sf8gu99"/>
            <g id="p1xe0jd5" class="pageMilestoneEnd mff8iqm"/>
        </g>
    </svg>
</svg>