<svg xmlns="http://www.w3.org/2000/svg" xmlns:xlink="http://www.w3.org/1999/xlink" xmlns:mei="http://www.music-encoding.org/ns/mei" width="1578px" height="280px" version="1.1" overflow="visible">
    <desc>Engraved by Verovio 4.3.0-dev-ba68db3-dirty</desc>
    <defs>
        <symbol id="E086-1pnx79h" viewBox="0 0 1000 1000" overflow="inherit">
            <path transform="scale(1,-1)" d="M284 -91c0 37 -28 92 -67 92c-35 0 -65 -54 -65 -111c0 -52 22 -104 68 -104c47 0 64 68 64 123zM230 214c-36 0 -90 -33 -90 -184l2 -36c40 24 81 36 120 36c80 0 140 -48 140 -121c0 -99 -99 -159 -182 -159c-160 0 -200 173 -200 244c0 21 2 43 7 71l10 35 c26 85 73 115 98 126c41 19 74 24 103 24c93 0 142 -63 142 -105c0 -58 -52 -72 -73 -72c-33 0 -59 24 -65 35c-3 5 -6 14 -7 25l11 30c6 15 9 27 9 35c0 11 -9 16 -25 16z"/>
        </symbol>
        <symbol id="E088-1pnx79h" viewBox="0 0 1000 1000" overflow="inherit">
            <path transform="scale(1,-1)" d="M195 -214c76 0 88 58 90 68c0 34 -35 60 -57 73l-52 29c-21 10 -32 17 -34 20c-39 -33 -58 -54 -62 -92c5 -23 23 -98 115 -98zM301 135c0 61 -72 76 -113 76c-40 0 -77 -17 -77 -51c3 -21 15 -38 26 -50c17 -15 33 -26 48 -34l65 -28c34 27 51 56 51 87zM176 -250 c-57 0 -166 26 -166 132c0 47 30 86 89 116c-33 15 -79 60 -79 119c0 79 85 132 178 132h18c5 0 21 1 28 -1c25 0 126 -30 126 -110c0 -37 -23 -76 -69 -116c43 -25 83 -71 83 -119c0 -101 -118 -153 -208 -153z"/>
        </symbol>
        <symbol id="E0A4-1pnx79h" viewBox="0 0 1000 1000" overflow="inherit">
            <path transform="scale(1,-1)" d="M0 -39c0 68 73 172 200 172c66 0 114 -37 114 -95c0 -84 -106 -171 -218 -171c-64 0 -96 30 -96 94z"/>
        </symbol>
        <symbol id="E262-1pnx79h" viewBox="0 0 1000 1000" overflow="inherit">
            <path transform="scale(1,-1)" d="M136 186v169h17v-164l44 14v-91l-44 -14v-165l44 12v-91l-44 -13v-155h-17v150l-76 -22v-155h-17v149l-43 -13v90l43 14v167l-43 -14v92l43 13v169h17v-163zM60 73v-167l76 22v168z"/>
        </symbol>
        <symbol id="E241-1pnx79h" viewBox="0 0 1000 1000" overflow="inherit">
            <path transform="scale(1,-1)" d="M179 646c-4 8 -17 30 -18 33l-4 10c0 3 2 5 5 5s7 -2 13 -7c23 -33 46 -81 66 -132c22 -57 35 -125 35 -163c0 -104 -60 -183 -122 -241c-63 -59 -57 -53 -61 -56c-38 -34 -63 -95 -71 -95h-22v190c40 7 69 11 87 16c88 27 168 95 168 200c0 30 -12 89 -30 138 c-17 47 -31 73 -46 102z"/>
        </symbol>
        <symbol id="E243-1pnx79h" viewBox="0 0 1000 1000" overflow="inherit">
            <path transform="scale(1,-1)" d="M216 730c-5 8 -10 13 -11 16l-4 10c0 3 2 5 5 5s7 -2 13 -7c35 -42 57 -101 57 -172c0 -34 -6 -65 -17 -94c10 -31 17 -64 17 -96c0 -104 -60 -183 -122 -241c-63 -59 -57 -53 -61 -56c-38 -34 -63 -95 -71 -95h-22v190v190c40 7 69 11 87 16c116 36 175 111 175 197 c0 44 -15 91 -46 137zM248 463c-23 -48 -58 -89 -94 -122c-63 -59 -57 -53 -61 -56c-30 -27 -44 -71 -53 -88c20 3 36 6 47 9c88 27 168 95 168 200c0 19 -3 39 -7 57z"/>
        </symbol>
    </defs>
    <style type="text/css">g.page-margin{font-family:Times,serif;} g.ending, g.fing, g.reh, g.tempo{font-weight:bold;} g.dir, g.dynam, g.mNum{font-style:italic;} g.label{font-weight:normal;}</style>
    <svg class="definition-scale" color="black" viewBox="0 0 15780 2800">
        <g class="page-margin" transform="translate(500, 500)">
            <g id="m8w3aw3" class="mdiv pageMilestone"/>
            <g id="s16epth3" class="score pageMilestone"/>
            <g id="s19lrj0w" class="system">
                <g id="l18xoohi" class="label">
                    <text x="1088" y="990" text-anchor="end" font-size="0px">
                        <tspan id="t1v6uhk0" class="text">
                            <tspan font-size="405px">Viol&#237;</tspan>
                        </tspan>
                    </text>
                </g>
                <g id="s7112fo" class="section systemMilestone"/>
                <g id="pP1_m1" class="measure">
                    <g id="stjxde3" class="staff">
                        <path d="M1268 540 L4146 540" stroke="currentColor" stroke-width="13"/>
                        <path d="M1268 720 L4146 720" stroke="currentColor" stroke-width="13"/>
                        <path d="M1268 900 L4146 900" stroke="currentColor" stroke-width="13"/>
                        <path d="M1268 1080 L4146 1080" stroke="currentColor" stroke-width="13"/>
                        <path d="M1268 1260 L4146 1260" stroke="currentColor" stroke-width="13"/>
                        <g id="clef1_1" class="clef" visibility="hidden"/>
                        <g id="key1_1" class="keySig" visibility="hidden"/>
                        <g id="time1_1" class="meterSig">
                            <use xlink:href="#E086-1pnx79h" x="1344" y="720" height="720px" width="720px"/>
                            <use xlink:href="#E088-1pnx79h" x="1351" y="1080" height="720px" width="720px"/>
                        </g>
                        <g id="l1njnqee" class="layer">
                            <g id="note1" class="note">
                                <g class="notehead" id="note1.notehead">
                                    <use xlink:href="#E0A4-1pnx79h" x="1903" y="630" height="720px" width="720px"/>
                                </g>
                                <g id="note1.dots_parent" class="dots">
                                    <ellipse cx="2219" cy="630" rx="36" ry="36" id="note1.dot1" class="single_dot"/>
                                </g>
                                <g id="note1.stem" class="stem">
                                    <path d="M1912 658 L1912 1260" stroke="currentColor" stroke-width="18"/>
                                </g>
                            </g>
                            <g id="beam1_parent" class="beam_parent">
                                <polygon points="2783,1575 3251,1530 3251,1440 2783,1485" id="beam1" class="beam"/>
                                <g id="note2" class="note">
                                    <g class="notehead" id="note2.notehead">
                                        <use xlink:href="#E0A4-1pnx79h" x="2783" y="990" height="720px" width="720px"/>
                                    </g>
                                    <g id="note2.stem" class="stem">
                                        <path d="M2792 1018 L2792 1557" stroke="currentColor" stroke-width="18"/>
                                    </g>
                                </g>
                                <g id="note3" class="note">
                                    <g class="notehead" id="note3.notehead">
                                        <use xlink:href="#E0A4-1pnx79h" x="3233" y="900" height="720px" width="720px"/>
                                    </g>
                                    <g id="note3.stem" class="stem">
                                        <path d="M3242 928 L3242 1512" stroke="currentColor" stroke-width="18"/>
                                    </g>
                                </g>
                            </g>
                            <g id="note4" class="note">
                                <g class="notehead" id="note4.notehead">
                                    <use xlink:href="#E0A4-1pnx79h" x="3683" y="810" height="720px" width="720px"/>
                                </g>
                                <g id="note4.stem" class="stem">
                                    <path d="M3692 838 L3692 1440" stroke="currentColor" stroke-width="18"/>
                                    <g id="note4.stem.flag" class="flag">
                                        <use xlink:href="#E241-1pnx79h" x="3683" y="1440" height="720px" width="720px"/>
                                    </g>
                                </g>
                            </g>
                        </g>
                    </g>
                    <g id="pP1_m1.right_barline" class="barLine">
                        <path id="pP1_m1.right_barline.barline_tok1" d="M4133 540 L4133 1260" stroke="currentColor" stroke-width="27" class="barline_tok"/>
                    </g>
                </g>
                <g id="pP1_m2" class="measure">
                    <g id="st5cmjj" class="staff">
                        <path d="M4146 540 L6359 540" stroke="currentColor" stroke-width="13"/>
                        <path d="M4146 720 L6359 720" stroke="currentColor" stroke-width="13"/>
                        <path d="M4146 900 L6359 900" stroke="currentColor" stroke-width="13"/>
                        <path d="M4146 1080 L6359 1080" stroke="currentColor" stroke-width="13"/>
                        <path d="M4146 1260 L6359 1260" stroke="currentColor" stroke-width="13"/>
                        <g id="l15nlis6" class="layer">
                            <g id="note5" class="note">
                                <g class="notehead" id="note5.notehead">
                                    <use xlink:href="#E0A4-1pnx79h" x="4326" y="720" height="720px" width="720px"/>
                                </g>
                                <g id="note5.dots_parent" class="dots">
                                    <ellipse cx="4642" cy="630" rx="36" ry="36" id="note5.dot1" class="single_dot"/>
                                </g>
                                <g id="note5.stem" class="stem">
                                    <path d="M4335 748 L4335 1350" stroke="currentColor" stroke-width="18"/>
                                </g>
                            </g>
                            <g id="note6" class="note">
                                <g class="notehead" id="note6.notehead">
                                    <use xlink:href="#E0A4-1pnx79h" x="5206" y="720" height="720px" width="720px"/>
                                </g>
                                <g id="note6.stem" class="stem">
                                    <path d="M5215 748 L5215 1350" stroke="currentColor" stroke-width="18"/>
                                </g>
                            </g>
                            <g id="note7" class="note">
                                <g class="notehead" id="note7.notehead">
                                    <use xlink:href="#E0A4-1pnx79h" x="5896" y="810" height="720px" width="720px"/>
                                </g>
                                <g id="note7.stem" class="stem">
                                    <path d="M5905 838 L5905 1440" stroke="currentColor" stroke-width="18"/>
                                    <g id="note7.stem.flag" class="flag">
                                        <use xlink:href="#E241-1pnx79h" x="5896" y="1440" height="720px" width="720px"/>
                                    </g>
                                </g>
                            </g>
                        </g>
                    </g>
                    <g id="tied1" class="tie">
                        <path d="M4597,518 C4728,364 5029,364 5161,518 C5010,413 4747,413 4597,518" stroke="currentColor" stroke-linecap="round" stroke-linejoin="round" stroke-width="9"/>
                    </g>
                    <g id="pP1_m2.right_barline" class="barLine">
                        <path id="pP1_m2.right_barline.barline_tok1" d="M6346 540 L6346 1260" stroke="currentColor" stroke-width="27" class="barline_tok"/>
                    </g>
                </g>
                <g id="pP1_m3" class="measure">
                    <g id="s1irz29" class="staff">
                        <path d="M6359 540 L9052 540" stroke="currentColor" stroke-width="13"/>
                        <path d="M6359 720 L9052 720" stroke="currentColor" stroke-width="13"/>
                        <path d="M6359 900 L9052 900" stroke="currentColor" stroke-width="13"/>
                        <path d="M6359 1080 L9052 1080" stroke="currentColor" stroke-width="13"/>
                        <path d="M6359 1260 L9052 1260" stroke="currentColor" stroke-width="13"/>
                        <g id="l1y421x8" class="layer">
                            <g id="note8" class="note">
                                <g class="notehead" id="note8.notehead">
                                    <use xlink:href="#E0A4-1pnx79h" x="6539" y="900" height="720px" width="720px"/>
                                </g>
                                <g id="note8.stem" class="stem">
                                    <path d="M6548 928 L6548 1500" stroke="currentColor" stroke-width="18"/>
                                    <g id="note8.stem.flag" class="flag">
                                        <use xlink:href="#E241-1pnx79h" x="6539" y="1500" height="720px" width="720px"/>
                                    </g>
                                </g>
                            </g>
                            <g id="note9" class="note">
                                <g class="notehead" id="note9.notehead">
                                    <use xlink:href="#E0A4-1pnx79h" x="6989" y="720" height="720px" width="720px"/>
                                </g>
                                <g id="note9.stem" class="stem">
                                    <path d="M6998 748 L6998 1350" stroke="currentColor" stroke-width="18"/>
                                </g>
                            </g>
                            <g id="note10" class="note">
                                <g class="notehead" id="note10.notehead">
                                    <use xlink:href="#E0A4-1pnx79h" x="7679" y="720" height="720px" width="720px"/>
                                </g>
                                <g id="note10.stem" class="stem">
                                    <path d="M7688 748 L7688 1350" stroke="currentColor" stroke-width="18"/>
                                    <g id="note10.stem.flag" class="flag">
                                        <use xlink:href="#E241-1pnx79h" x="7679" y="1350" height="720px" width="720px"/>
                                    </g>
                                </g>
                            </g>
                            <g id="note11" class="note">
                                <g class="notehead" id="note11.notehead">
                                    <use xlink:href="#E0A4-1pnx79h" x="8129" y="630" height="720px" width="720px"/>
                                </g>
                                <g id="note11.dots_parent" class="dots">
                                    <ellipse cx="8445" cy="630" rx="36" ry="36" id="note11.dot1" class="single_dot"/>
                                </g>
                                <g id="note11.stem" class="stem">
                                    <path d="M8138 658 L8138 1260" stroke="currentColor" stroke-width="18"/>
                                    <g id="note11.stem.flag" class="flag">
                                        <use xlink:href="#E241-1pnx79h" x="8129" y="1260" height="720px" width="720px"/>
                                    </g>
                                </g>
                            </g>
                            <g id="note12" class="note">
                                <g class="notehead" id="note12.notehead">
                                    <use xlink:href="#E0A4-1pnx79h" x="8709" y="900" height="720px" width="720px"/>
                                </g>
                                <g id="note12.stem" class="stem">
                                    <path d="M8718 928 L8718 1500" stroke="currentColor" stroke-width="18"/>
                                    <g id="note12.stem.flag" class="flag">
                                        <use xlink:href="#E243-1pnx79h" x="8709" y="1500" height="720px" width="720px"/>
                                    </g>
                                </g>
                            </g>
                        </g>
                    </g>
                    <g id="pP1_m3.right_barline" class="barLine">
                        <path id="pP1_m3.right_barline.barline_tok1" d="M9039 540 L9039 1260" stroke="currentColor" stroke-width="27" class="barline_tok"/>
                    </g>
                </g>
                <g id="pP1_m4" class="measure">
                    <g id="sjztjwg" class="staff">
                        <path d="M9052 540 L11745 540" stroke="currentColor" stroke-width="13"/>
                        <path d="M9052 720 L11745 720" stroke="currentColor" stroke-width="13"/>
                        <path d="M9052 900 L11745 900" stroke="currentColor" stroke-width="13"/>
                        <path d="M9052 1080 L11745 1080" stroke="currentColor" stroke-width="13"/>
                        <path d="M9052 1260 L11745 1260" stroke="currentColor" stroke-width="13"/>
                        <g id="lnxz7u5" class="layer">
                            <g id="note13" class="note">
                                <g class="notehead" id="note13.notehead">
                                    <use xlink:href="#E0A4-1pnx79h" x="9232" y="720" height="720px" width="720px"/>
                                </g>
                                <g id="note13.stem" class="stem">
                                    <path d="M9241 748 L9241 1350" stroke="currentColor" stroke-width="18"/>
                                    <g id="note13.stem.flag" class="flag">
                                        <use xlink:href="#E241-1pnx79h" x="9232" y="1350" height="720px" width="720px"/>
                                    </g>
                                </g>
                            </g>
                            <g id="note14" class="note">
                                <g class="notehead" id="note14.notehead">
                                    <use xlink:href="#E0A4-1pnx79h" x="9682" y="810" height="720px" width="720px"/>
                                </g>
                                <g id="note14.stem" class="stem">
                                    <path d="M9691 838 L9691 1440" stroke="currentColor" stroke-width="18"/>
                                </g>
                            </g>
                            <g id="beam2_parent" class="beam_parent">
                                <polygon points="10372,1485 10840,1440 10840,1350 10372,1395" id="beam2" class="beam"/>
                                <g id="note15" class="note">
                                    <g class="notehead" id="note15.notehead">
                                        <use xlink:href="#E0A4-1pnx79h" x="10372" y="810" height="720px" width="720px"/>
                                    </g>
                                    <g id="note15.stem" class="stem">
                                        <path d="M10381 838 L10381 1467" stroke="currentColor" stroke-width="18"/>
                                    </g>
                                </g>
                                <g id="note16" class="note">
                                    <g class="notehead" id="note16.notehead">
                                        <use xlink:href="#E0A4-1pnx79h" x="10822" y="720" height="720px" width="720px"/>
                                    </g>
                                    <g id="note16.dots_parent" class="dots">
                                        <ellipse cx="11138" cy="630" rx="36" ry="36" id="note16.dot1" class="single_dot"/>
                                    </g>
                                    <g id="note16.stem" class="stem">
                                        <path d="M10831 748 L10831 1422" stroke="currentColor" stroke-width="18"/>
                                    </g>
                                </g>
                            </g>
                            <g id="note17" class="note">
                                <g class="notehead" id="note17.notehead">
                                    <use xlink:href="#E0A4-1pnx79h" x="11402" y="990" height="720px" width="720px"/>
                                </g>
                                <g id="note17.stem" class="stem">
                                    <path d="M11411 1018 L11411 1560" stroke="currentColor" stroke-width="18"/>
                                    <g id="note17.stem.flag" class="flag">
                                        <use xlink:href="#E243-1pnx79h" x="11402" y="1560" height="720px" width="720px"/>
                                    </g>
                                </g>
                                <g id="note17.accidental" class="accid">
                                    <use xlink:href="#E262-1pnx79h" x="11216" y="990" height="720px" width="720px"/>
                                </g>
                            </g>
                        </g>
                    </g>
                    <g id="pP1_m4.right_barline" class="barLine">
                        <path id="pP1_m4.right_barline.barline_tok1" d="M11732 540 L11732 1260" stroke="currentColor" stroke-width="27" class="barline_tok"/>
                    </g>
                </g>
                <g id="pP1_m5" class="measure">
                    <g id="s1omh54r" class="staff">
                        <path d="M11745 540 L14786 540" stroke="currentColor" stroke-width="13"/>
                        <path d="M11745 720 L14786 720" stroke="currentColor" stroke-width="13"/>
                        <path d="M11745 900 L14786 900" stroke="currentColor" stroke-width="13"/>
                        <path d="M11745 1080 L14786 1080" stroke="currentColor" stroke-width="13"/>
                        <path d="M11745 1260 L14786 1260" stroke="currentColor" stroke-width="13"/>
                        <g id="lwi3qqh" class="layer">
                            <g id="note18" class="note">
                                <g class="notehead" id="note18.notehead">
                                    <use xlink:href="#E0A4-1pnx79h" x="11925" y="900" height="720px" width="720px"/>
                                </g>
                                <g id="note18.stem" class="stem">
                                    <path d="M11934 928 L11934 1500" stroke="currentColor" stroke-width="18"/>
                                    <g id="note18.stem.flag" class="flag">
                                        <use xlink:href="#E241-1pnx79h" x="11925" y="1500" height="720px" width="720px"/>
                                    </g>
                                </g>
                            </g>
                            <g id="note19" class="note">
                                <g class="notehead" id="note19.notehead">
                                    <use xlink:href="#E0A4-1pnx79h" x="12375" y="900" height="720px" width="720px"/>
                                </g>
                                <g id="note19.stem" class="stem">
                                    <path d="M12384 928 L12384 1500" stroke="currentColor" stroke-width="18"/>
                                </g>
                            </g>
                            <g id="beam3_parent" class="beam_parent">
                                <polygon points="13065,1485 14299,1440 14299,1350 13065,1395" id="beam3" class="beam"/>
                                <polygon points="13974,1317 14299,1305 14299,1215 13974,1227" id="beam4" class="beam"/>
                                <g id="note20" class="note">
                                    <g class="notehead" id="note20.notehead">
                                        <use xlink:href="#E0A4-1pnx79h" x="13065" y="900" height="720px" width="720px"/>
                                    </g>
                                    <g id="note20.stem" class="stem">
                                        <path d="M13074 928 L13074 1467" stroke="currentColor" stroke-width="18"/>
                                    </g>
                                </g>
                                <g id="note21" class="note">
                                    <g class="notehead" id="note21.notehead">
                                        <use xlink:href="#E0A4-1pnx79h" x="13515" y="450" height="720px" width="720px"/>
                                    </g>
                                    <g id="note21.stem" class="stem">
                                        <path d="M13524 478 L13524 1451" stroke="currentColor" stroke-width="18"/>
                                    </g>
                                </g>
                                <g id="note22" class="note">
                                    <g class="notehead" id="note22.notehead">
                                        <use xlink:href="#E0A4-1pnx79h" x="13965" y="630" height="720px" width="720px"/>
                                    </g>
                                    <g id="note22.stem" class="stem">
                                        <path d="M13974 658 L13974 1434" stroke="currentColor" stroke-width="18"/>
                                    </g>
                                </g>
                                <g id="note23" class="note">
                                    <g class="notehead" id="note23.notehead">
                                        <use xlink:href="#E0A4-1pnx79h" x="14281" y="810" height="720px" width="720px"/>
                                    </g>
                                    <g id="note23.stem" class="stem">
                                        <path d="M14290 838 L14290 1422" stroke="currentColor" stroke-width="18"/>
                                    </g>
                                </g>
                            </g>
                        </g>
                    </g>
                    <g id="tied2" class="tie">
                        <path d="M12646,855 C12726,701 12937,701 13020,855 C12912,750 12751,750 12646,855" stroke="currentColor" stroke-linecap="round" stroke-linejoin="round" stroke-width="9"/>
                    </g>
                    <g id="barline1" class="barLine">
                        <path id="barline1.barline_tok1" d="M14611 540 L14611 1260" stroke="currentColor" stroke-width="27" class="barline_tok"/>
                        <path id="barline1.barline_tok2" d="M14741 540 L14741 1260" stroke="currentColor" stroke-width="90" class="barline_tok"/>
                    </g>
                </g>
                <g id="sx1uyi6" class="systemMilestoneEnd s7112fo"/>
            </g>
            <g id="pyujwnm" class="pageMilestoneEnd s16epth3"/>
            <g id="p1gn9wvk" class="pageMilestoneEnd m8w3aw3"/>
        </g>
    </svg>
</svg>