<svg xmlns="http://www.w3.org/2000/svg" xmlns:xlink="http://www.w3.org/1999/xlink" xmlns:mei="http://www.music-encoding.org/ns/mei" width="1673px" height="280px" version="1.1" overflow="visible">
    <desc>Engraved by Verovio 4.3.0-dev-ba68db3-dirty</desc>
    <defs>
        <symbol id="E086-luk7lz" viewBox="0 0 1000 1000" overflow="inherit">
            <path transform="scale(1,-1)" d="M284 -91c0 37 -28 92 -67 92c-35 0 -65 -54 -65 -111c0 -52 22 -104 68 -104c47 0 64 68 64 123zM230 214c-36 0 -90 -33 -90 -184l2 -36c40 24 81 36 120 36c80 0 140 -48 140 -121c0 -99 -99 -159 -182 -159c-160 0 -200 173 -200 244c0 21 2 43 7 71l10 35 c26 85 73 115 98 126c41 19 74 24 103 24c93 0 142 -63 142 -105c0 -58 -52 -72 -73 -72c-33 0 -59 24 -65 35c-3 5 -6 14 -7 25l11 30c6 15 9 27 9 35c0 11 -9 16 -25 16z"/>
        </symbol>
        <symbol id="E088-luk7lz" viewBox="0 0 1000 1000" overflow="inherit">
            <path transform="scale(1,-1)" d="M195 -214c76 0 88 58 90 68c0 34 -35 60 -57 73l-52 29c-21 10 -32 17 -34 20c-39 -33 -58 -54 -62 -92c5 -23 23 -98 115 -98zM301 135c0 61 -72 76 -113 76c-40 0 -77 -17 -77 -51c3 -21 15 -38 26 -50c17 -15 33 -26 48 -34l65 -28c34 27 51 56 51 87zM176 -250 c-57 0 -166 26 -166 132c0 47 30 86 89 116c-33 15 -79 60 -79 119c0 79 85 132 178 132h18c5 0 21 1 28 -1c25 0 126 -30 126 -110c0 -37 -23 -76 -69 -116c43 -25 83 -71 83 -119c0 -101 -118 -153 -208 -153z"/>
        </symbol>
        <symbol id="E0A4-luk7lz" viewBox="0 0 1000 1000" overflow="inherit">
            <path transform="scale(1,-1)" d="M0 -39c0 68 73 172 200 172c66 0 114 -37 114 -95c0 -84 -106 -171 -218 -171c-64 0 -96 30 -96 94z"/>
        </symbol>
        <symbol id="E260-luk7lz" viewBox="0 0 1000 1000" overflow="inherit">
            <path transform="scale(1,-1)" d="M20 110c32 16 54 27 93 27c26 0 35 -3 54 -13c13 -7 24 -20 27 -38l4 -25c0 -28 -16 -57 -45 -89c-23 -25 -39 -44 -65 -68l-88 -79v644h20v-359zM90 106c-32 0 -48 -10 -70 -29v-194c31 31 54 59 71 84c21 32 32 59 32 84c0 9 1 16 1 20c0 14 -3 21 -11 30l-8 3z"/>
        </symbol>
        <symbol id="E241-luk7lz" viewBox="0 0 1000 1000" overflow="inherit">
            <path transform="scale(1,-1)" d="M179 646c-4 8 -17 30 -18 33l-4 10c0 3 2 5 5 5s7 -2 13 -7c23 -33 46 -81 66 -132c22 -57 35 -125 35 -163c0 -104 -60 -183 -122 -241c-63 -59 -57 -53 -61 -56c-38 -34 -63 -95 -71 -95h-22v190c40 7 69 11 87 16c88 27 168 95 168 200c0 30 -12 89 -30 138 c-17 47 -31 73 -46 102z"/>
        </symbol>
        <symbol id="E4E5-luk7lz" viewBox="0 0 1000 1000" overflow="inherit">
            <path transform="scale(1,-1)" d="M107 292c-13 24 -30 49 -52 71c-1 1 0 2 0 3l-2 2c3 3 4 4 6 4c12 0 26 -7 40 -20s44 -40 89 -81c26 -24 28 -29 46 -47c4 -4 8 -9 10 -14c6 -8 8 -16 8 -27c0 -19 -12 -40 -36 -61c-28 -23 -49 -38 -61 -73c-4 -11 -7 -27 -10 -50c13 -43 34 -83 59 -121 c31 -47 59 -79 101 -129c-8 0 -26 7 -54 20l-62 29l-21 6l-23 1c-25 0 -45 -10 -60 -30l-4 -14l-1 -12c0 -33 20 -56 39 -78c8 -9 17 -18 26 -26c17 -15 27 -24 28 -30l-3 -3c-11 5 -19 10 -25 15c-9 3 -37 21 -45 26c-24 14 -45 32 -63 51c-19 21 -37 44 -37 71 c0 63 27 95 80 95c41 0 86 -18 136 -52c-19 26 -37 48 -55 66c-23 23 -48 44 -73 65c-28 23 -47 40 -58 53s-17 26 -18 39c75 64 113 125 113 183c0 27 -7 48 -18 68z"/>
        </symbol>
        <symbol id="E4E6-luk7lz" viewBox="0 0 1000 1000" overflow="inherit">
            <path transform="scale(1,-1)" d="M0 123c7 34 33 56 69 60c29 -3 43 -9 53 -29c4 -8 7 -15 10 -22c0 -21 -1 -25 -11 -35c-5 -8 -18 -14 -40 -20l12 -3l15 -1c44 0 97 26 122 56c10 11 18 26 24 42c7 1 15 2 22 3l-140 -424h-36l111 330c-10 -6 -27 -12 -53 -16l-52 -8h-10l-20 1c-1 0 -8 3 -21 6 c-37 9 -55 28 -55 60z"/>
        </symbol>
        <symbol id="E243-luk7lz" viewBox="0 0 1000 1000" overflow="inherit">
            <path transform="scale(1,-1)" d="M216 730c-5 8 -10 13 -11 16l-4 10c0 3 2 5 5 5s7 -2 13 -7c35 -42 57 -101 57 -172c0 -34 -6 -65 -17 -94c10 -31 17 -64 17 -96c0 -104 -60 -183 -122 -241c-63 -59 -57 -53 -61 -56c-38 -34 -63 -95 -71 -95h-22v190v190c40 7 69 11 87 16c116 36 175 111 175 197 c0 44 -15 91 -46 137zM248 463c-23 -48 -58 -89 -94 -122c-63 -59 -57 -53 -61 -56c-30 -27 -44 -71 -53 -88c20 3 36 6 47 9c88 27 168 95 168 200c0 19 -3 39 -7 57z"/>
        </symbol>
    </defs>
    <style type="text/css">g.page-margin{font-family:Times,serif;} g.ending, g.fing, g.reh, g.tempo{font-weight:bold;} g.dir, g.dynam, g.mNum{font-style:italic;} g.label{font-weight:normal;}</style>
    <svg class="definition-scale" color="black" viewBox="0 0 16730 2800">
        <g class="page-margin" transform="translate(500, 500)">
            <g id="maafwgt" class="mdiv pageMilestone"/>
            <g id="s12u1kci" class="score pageMilestone"/>
            <g id="s1su67hh" class="system">
                <g id="lj5f3g9" class="label">
                    <text x="1088" y="990" text-anchor="end" font-size="0px">
                        <tspan id="t1f4s0ak" class="text">
                            <tspan font-size="405px">Viol&#237;</tspan>
                        </tspan>
                    </text>
                </g>
                <g id="s1jx23pf" class="section systemMilestone"/>
                <g id="pP1_m1" class="measure">
                    <g id="s1ho42zc" class="staff">
                        <path d="M1268 540 L4626 540" stroke="currentColor" stroke-width="13"/>
                        <path d="M1268 720 L4626 720" stroke="currentColor" stroke-width="13"/>
                        <path d="M1268 900 L4626 900" stroke="currentColor" stroke-width="13"/>
                        <path d="M1268 1080 L4626 1080" stroke="currentColor" stroke-width="13"/>
                        <path d="M1268 1260 L4626 1260" stroke="currentColor" stroke-width="13"/>
                        <g id="clef1_1" class="clef" visibility="hidden"/>
                        <g id="key1_1" class="keySig" visibility="hidden"/>
                        <g id="time1_1" class="meterSig">
                            <use xlink:href="#E086-luk7lz" x="1344" y="720" height="720px" width="720px"/>
                            <use xlink:href="#E088-luk7lz" x="1351" y="1080" height="720px" width="720px"/>
                        </g>
                        <g id="l1o41ls6" class="layer">
                            <g id="note1" class="note">
                                <g class="notehead" id="note1.notehead">
                                    <use xlink:href="#E0A4-luk7lz" x="1903" y="630" height="720px" width="720px"/>
                                </g>
                                <g id="note1.stem" class="stem">
                                    <path d="M1912 658 L1912 1260" stroke="currentColor" stroke-width="18"/>
                                    <g id="note1.stem.flag" class="flag">
                                        <use xlink:href="#E241-luk7lz" x="1903" y="1260" height="720px" width="720px"/>
                                    </g>
                                </g>
                            </g>
                            <g id="note2" class="note">
                                <g class="notehead" id="note2.notehead">
                                    <use xlink:href="#E0A4-luk7lz" x="2353" y="900" height="720px" width="720px"/>
                                </g>
                                <g id="note2.stem" class="stem">
                                    <path d="M2362 928 L2362 1500" stroke="currentColor" stroke-width="18"/>
                                    <g id="note2.stem.flag" class="flag">
                                        <use xlink:href="#E241-luk7lz" x="2353" y="1500" height="720px" width="720px"/>
                                    </g>
                                </g>
                            </g>
                            <g id="note3" class="note">
                                <g class="notehead" id="note3.notehead">
                                    <use xlink:href="#E0A4-luk7lz" x="2803" y="810" height="720px" width="720px"/>
                                </g>
                                <g id="note3.stem" class="stem">
                                    <path d="M2812 838 L2812 1440" stroke="currentColor" stroke-width="18"/>
                                    <g id="note3.stem.flag" class="flag">
                                        <use xlink:href="#E241-luk7lz" x="2803" y="1440" height="720px" width="720px"/>
                                    </g>
                                </g>
                            </g>
                            <g id="beam1_parent" class="beam_parent">
                                <polygon points="3253,1440 3721,1485 3721,1395 3253,1350" id="beam1" class="beam"/>
                                <g id="note4" class="note">
                                    <g class="notehead" id="note4.notehead">
                                        <use xlink:href="#E0A4-luk7lz" x="3253" y="720" height="720px" width="720px"/>
                                    </g>
                                    <g id="note4.stem" class="stem">
                                        <path d="M3262 748 L3262 1422" stroke="currentColor" stroke-width="18"/>
                                    </g>
                                </g>
                                <g id="note5" class="note">
                                    <g class="notehead" id="note5.notehead">
                                        <use xlink:href="#E0A4-luk7lz" x="3703" y="810" height="720px" width="720px"/>
                                    </g>
                                    <g id="note5.dots_parent" class="dots">
                                        <ellipse cx="4019" cy="810" rx="36" ry="36" id="note5.dot1" class="single_dot"/>
                                    </g>
                                    <g id="note5.stem" class="stem">
                                        <path d="M3712 838 L3712 1467" stroke="currentColor" stroke-width="18"/>
                                    </g>
                                </g>
                            </g>
                            <g id="note6" class="note">
                                <g class="notehead" id="note6.notehead">
                                    <use xlink:href="#E0A4-luk7lz" x="4283" y="900" height="720px" width="720px"/>
                                </g>
                                <g id="note6.stem" class="stem">
                                    <path d="M4292 928 L4292 1500" stroke="currentColor" stroke-width="18"/>
                                    <g id="note6.stem.flag" class="flag">
                                        <use xlink:href="#E243-luk7lz" x="4283" y="1500" height="720px" width="720px"/>
                                    </g>
                                </g>
                            </g>
                        </g>
                    </g>
                    <g id="pP1_m1.right_barline" class="barLine">
                        <path id="pP1_m1.right_barline.barline_tok1" d="M4613 540 L4613 1260" stroke="currentColor" stroke-width="27" class="barline_tok"/>
                    </g>
                </g>
                <g id="pP1_m2" class="measure">
                    <g id="slglyft" class="staff">
                        <path d="M4626 540 L7099 540" stroke="currentColor" stroke-width="13"/>
                        <path d="M4626 720 L7099 720" stroke="currentColor" stroke-width="13"/>
                        <path d="M4626 900 L7099 900" stroke="currentColor" stroke-width="13"/>
                        <path d="M4626 1080 L7099 1080" stroke="currentColor" stroke-width="13"/>
                        <path d="M4626 1260 L7099 1260" stroke="currentColor" stroke-width="13"/>
                        <g id="lzgft4k" class="layer">
                            <g id="note7" class="note">
                                <g class="notehead" id="note7.notehead">
                                    <use xlink:href="#E0A4-luk7lz" x="4806" y="990" height="720px" width="720px"/>
                                </g>
                                <g id="note7.stem" class="stem">
                                    <path d="M4815 1018 L4815 1560" stroke="currentColor" stroke-width="18"/>
                                </g>
                            </g>
                            <g id="rest1" class="rest">
                                <use xlink:href="#E4E6-luk7lz" x="5496" y="900" height="720px" width="720px"/>
                            </g>
                            <g id="rest2" class="rest">
                                <use xlink:href="#E4E5-luk7lz" x="5946" y="900" height="720px" width="720px"/>
                            </g>
                            <g id="rest3" class="rest">
                                <use xlink:href="#E4E6-luk7lz" x="6636" y="900" height="720px" width="720px"/>
                            </g>
                        </g>
                    </g>
                    <g id="pP1_m2.right_barline" class="barLine">
                        <path id="pP1_m2.right_barline.barline_tok1" d="M7086 540 L7086 1260" stroke="currentColor" stroke-width="27" class="barline_tok"/>
                    </g>
                </g>
                <g id="pP1_m3" class="measure">
                    <g id="s1e6c08y" class="staff">
                        <path d="M7099 540 L9581 540" stroke="currentColor" stroke-width="13"/>
                        <path d="M7099 720 L9581 720" stroke="currentColor" stroke-width="13"/>
                        <path d="M7099 900 L9581 900" stroke="currentColor" stroke-width="13"/>
                        <path d="M7099 1080 L9581 1080" stroke="currentColor" stroke-width="13"/>
                        <path d="M7099 1260 L9581 1260" stroke="currentColor" stroke-width="13"/>
                        <g id="l1m4hc42" class="layer">
                            <g id="note8" class="note">
                                <g class="notehead" id="note8.notehead">
                                    <use xlink:href="#E0A4-luk7lz" x="7279" y="810" height="720px" width="720px"/>
                                </g>
                                <g id="note8.dots_parent" class="dots">
                                    <ellipse cx="7595" cy="810" rx="36" ry="36" id="note8.dot1" class="single_dot"/>
                                </g>
                                <g id="note8.stem" class="stem">
                                    <path d="M7288 838 L7288 1440" stroke="currentColor" stroke-width="18"/>
                                </g>
                            </g>
                            <g id="note9" class="note">
                                <g class="notehead" id="note9.notehead">
                                    <use xlink:href="#E0A4-luk7lz" x="8159" y="810" height="720px" width="720px"/>
                                </g>
                                <g id="note9.stem" class="stem">
                                    <path d="M8168 838 L8168 1440" stroke="currentColor" stroke-width="18"/>
                                    <g id="note9.stem.flag" class="flag">
                                        <use xlink:href="#E241-luk7lz" x="8159" y="1440" height="720px" width="720px"/>
                                    </g>
                                </g>
                            </g>
                            <g id="note10" class="note">
                                <g class="notehead" id="note10.notehead">
                                    <use xlink:href="#E0A4-luk7lz" x="8609" y="720" height="720px" width="720px"/>
                                </g>
                                <g id="note10.dots_parent" class="dots">
                                    <ellipse cx="8925" cy="630" rx="36" ry="36" id="note10.dot1" class="single_dot"/>
                                </g>
                                <g id="note10.stem" class="stem">
                                    <path d="M8618 748 L8618 1350" stroke="currentColor" stroke-width="18"/>
                                    <g id="note10.stem.flag" class="flag">
                                        <use xlink:href="#E241-luk7lz" x="8609" y="1350" height="720px" width="720px"/>
                                    </g>
                                </g>
                            </g>
                            <g id="note11" class="note">
                                <g class="notehead" id="note11.notehead">
                                    <use xlink:href="#E0A4-luk7lz" x="9238" y="630" height="720px" width="720px"/>
                                </g>
                                <g id="note11.stem" class="stem">
                                    <path d="M9247 658 L9247 1260" stroke="currentColor" stroke-width="18"/>
                                    <g id="note11.stem.flag" class="flag">
                                        <use xlink:href="#E243-luk7lz" x="9238" y="1260" height="720px" width="720px"/>
                                    </g>
                                </g>
                                <g id="note11.accidental" class="accid">
                                    <use xlink:href="#E260-luk7lz" x="9051" y="630" height="720px" width="720px"/>
                                </g>
                            </g>
                        </g>
                    </g>
                    <g id="pP1_m3.right_barline" class="barLine">
                        <path id="pP1_m3.right_barline.barline_tok1" d="M9568 540 L9568 1260" stroke="currentColor" stroke-width="27" class="barline_tok"/>
                    </g>
                </g>
                <g id="pP1_m4" class="measure">
                    <g id="s4yf7qy" class="staff">
                        <path d="M9581 540 L13207 540" stroke="currentColor" stroke-width="13"/>
                        <path d="M9581 720 L13207 720" stroke="currentColor" stroke-width="13"/>
                        <path d="M9581 900 L13207 900" stroke="currentColor" stroke-width="13"/>
                        <path d="M9581 1080 L13207 1080" stroke="currentColor" stroke-width="13"/>
                        <path d="M9581 1260 L13207 1260" stroke="currentColor" stroke-width="13"/>
                        <g id="ltouqsl" class="layer">
                            <g id="beam2_parent" class="beam_parent">
                                <polygon points="9948,1350 11546,1710 11546,1620 9948,1260" id="beam2" class="beam"/>
                                <polygon points="9948,1215 11546,1575 11546,1485 9948,1125" id="beam3" class="beam"/>
                                <g id="note12" class="note">
                                    <g class="notehead" id="note12.notehead">
                                        <use xlink:href="#E0A4-luk7lz" x="9948" y="630" height="720px" width="720px"/>
                                    </g>
                                    <g id="note12.stem" class="stem">
                                        <path d="M9957 658 L9957 1332" stroke="currentColor" stroke-width="18"/>
                                    </g>
                                    <g id="note12.accidental" class="accid">
                                        <use xlink:href="#E260-luk7lz" x="9761" y="630" height="720px" width="720px"/>
                                    </g>
                                </g>
                                <g id="note13" class="note">
                                    <g class="notehead" id="note13.notehead">
                                        <use xlink:href="#E0A4-luk7lz" x="10264" y="720" height="720px" width="720px"/>
                                    </g>
                                    <g id="note13.stem" class="stem">
                                        <path d="M10273 748 L10273 1404" stroke="currentColor" stroke-width="18"/>
                                    </g>
                                </g>
                                <g id="note14" class="note">
                                    <g class="notehead" id="note14.notehead">
                                        <use xlink:href="#E0A4-luk7lz" x="10580" y="630" height="720px" width="720px"/>
                                    </g>
                                    <g id="note14.stem" class="stem">
                                        <path d="M10589 658 L10589 1476" stroke="currentColor" stroke-width="18"/>
                                    </g>
                                    <g id="note14.accidental" class="accid"/>
                                </g>
                                <g id="note15" class="note">
                                    <g class="notehead" id="note15.notehead">
                                        <use xlink:href="#E0A4-luk7lz" x="10896" y="810" height="720px" width="720px"/>
                                    </g>
                                    <g id="note15.stem" class="stem">
                                        <path d="M10905 838 L10905 1548" stroke="currentColor" stroke-width="18"/>
                                    </g>
                                </g>
                                <g id="note16" class="note">
                                    <g class="notehead" id="note16.notehead">
                                        <use xlink:href="#E0A4-luk7lz" x="11212" y="990" height="720px" width="720px"/>
                                    </g>
                                    <g id="note16.stem" class="stem">
                                        <path d="M11221 1018 L11221 1620" stroke="currentColor" stroke-width="18"/>
                                    </g>
                                </g>
                                <g id="note17" class="note">
                                    <g class="notehead" id="note17.notehead">
                                        <use xlink:href="#E0A4-luk7lz" x="11528" y="1080" height="720px" width="720px"/>
                                    </g>
                                    <g id="note17.stem" class="stem">
                                        <path d="M11537 1108 L11537 1692" stroke="currentColor" stroke-width="18"/>
                                    </g>
                                </g>
                            </g>
                            <g id="note18" class="note">
                                <g class="notehead" id="note18.notehead">
                                    <use xlink:href="#E0A4-luk7lz" x="11844" y="1170" height="720px" width="720px"/>
                                </g>
                                <g id="note18.stem" class="stem">
                                    <path d="M11853 1198 L11853 1710" stroke="currentColor" stroke-width="18"/>
                                    <g id="note18.stem.flag" class="flag">
                                        <use xlink:href="#E241-luk7lz" x="11844" y="1710" height="720px" width="720px"/>
                                    </g>
                                </g>
                                <g id="note18.accidental" class="accid"/>
                            </g>
                            <g id="rest4" class="rest">
                                <use xlink:href="#E4E6-luk7lz" x="12294" y="900" height="720px" width="720px"/>
                            </g>
                            <g id="rest5" class="rest">
                                <use xlink:href="#E4E6-luk7lz" x="12744" y="900" height="720px" width="720px"/>
                            </g>
                        </g>
                    </g>
                    <g id="pP1_m4.right_barline" class="barLine">
                        <path id="pP1_m4.right_barline.barline_tok1" d="M13194 540 L13194 1260" stroke="currentColor" stroke-width="27" class="barline_tok"/>
                    </g>
                </g>
                <g id="pP1_m5" class="measure">
                    <g id="s1blqsi8" class="staff">
                        <path d="M13207 540 L15733 540" stroke="currentColor" stroke-width="13"/>
                        <path d="M13207 720 L15733 720" stroke="currentColor" stroke-width="13"/>
                        <path d="M13207 900 L15733 900" stroke="currentColor" stroke-width="13"/>
                        <path d="M13207 1080 L15733 1080" stroke="currentColor" stroke-width="13"/>
                        <path d="M13207 1260 L15733 1260" stroke="currentColor" stroke-width="13"/>
                        <g id="l99n4in" class="layer">
                            <g id="note19" class="note">
                                <g class="notehead" id="note19.notehead">
                                    <use xlink:href="#E0A4-luk7lz" x="13387" y="1080" height="720px" width="720px"/>
                                </g>
                                <g id="note19.stem" class="stem">
                                    <path d="M13396 1108 L13396 1620" stroke="currentColor" stroke-width="18"/>
                                </g>
                            </g>
                            <g id="note20" class="note">
                                <g class="notehead" id="note20.notehead">
                                    <use xlink:href="#E0A4-luk7lz" x="14077" y="990" height="720px" width="720px"/>
                                </g>
                                <g id="note20.stem" class="stem">
                                    <path d="M14086 1018 L14086 1560" stroke="currentColor" stroke-width="18"/>
                                    <g id="note20.stem.flag" class="flag">
                                        <use xlink:href="#E241-luk7lz" x="14077" y="1560" height="720px" width="720px"/>
                                    </g>
                                </g>
                            </g>
                            <g id="note21" class="note">
                                <g class="notehead" id="note21.notehead">
                                    <use xlink:href="#E0A4-luk7lz" x="14580" y="900" height="720px" width="720px"/>
                                </g>
                                <g id="note21.stem" class="stem">
                                    <path d="M14589 928 L14589 1500" stroke="currentColor" stroke-width="18"/>
                                </g>
                                <g id="note21.accidental" class="accid">
                                    <use xlink:href="#E260-luk7lz" x="14393" y="900" height="720px" width="720px"/>
                                </g>
                            </g>
                            <g id="note22" class="note">
                                <g class="notehead" id="note22.notehead">
                                    <use xlink:href="#E0A4-luk7lz" x="15270" y="810" height="720px" width="720px"/>
                                </g>
                                <g id="note22.stem" class="stem">
                                    <path d="M15279 838 L15279 1440" stroke="currentColor" stroke-width="18"/>
                                    <g id="note22.stem.flag" class="flag">
                                        <use xlink:href="#E241-luk7lz" x="15270" y="1440" height="720px" width="720px"/>
                                    </g>
                                </g>
                            </g>
                        </g>
                    </g>
                    <g id="pP1_m5.right_barline" class="barLine">
                        <path id="pP1_m5.right_barline.barline_tok1" d="M15720 540 L15720 1260" stroke="currentColor" stroke-width="27" class="barline_tok"/>
                    </g>
                </g>
                <g id="s1xvv8o9" class="systemMilestoneEnd s1jx23pf"/>
            </g>
            <g id="pi8y167" class="pageMilestoneEnd s12u1kci"/>
            <g id="p1yo1tw7" class="pageMilestoneEnd maafwgt"/>
        </g>
    </svg>
</svg>