<svg xmlns="http://www.w3.org/2000/svg" xmlns:xlink="http://www.w3.org/1999/xlink" xmlns:mei="http://www.music-encoding.org/ns/mei" width="2289px" height="280px" version="1.1" overflow="visible">
    <desc>Engraved by Verovio 4.3.0-dev-ba68db3-dirty</desc>
    <defs>
        <symbol id="E0A3-1olmner" viewBox="0 0 1000 1000" overflow="inherit">
            <path transform="scale(1,-1)" d="M278 64c0 22 -17 39 -43 39c-12 0 -26 -3 -41 -10c-85 -43 -165 -94 -165 -156c5 -25 15 -32 49 -32c67 11 200 95 200 159zM0 -36c0 68 73 174 200 174c66 0 114 -39 114 -97c0 -84 -106 -173 -218 -173c-64 0 -96 32 -96 96z"/>
        </symbol>
        <symbol id="E082-1olmner" viewBox="0 0 1000 1000" overflow="inherit">
            <path transform="scale(1,-1)" d="M124 -185c-18 0 -55 -14 -65 -65h-36l-3 30c0 25 6 45 18 63c11 19 22 30 39 43l121 82l37 29c15 11 27 29 38 54c12 24 18 47 18 70c0 40 -19 88 -94 88c-25 0 -32 0 -50 -8c-14 -5 -23 -12 -26 -22c3 -9 7 -15 10 -18l24 -17c12 -7 17 -11 27 -21c5 -7 7 -16 7 -27 c0 -12 0 -57 -79 -74c-30 0 -76 26 -76 94c0 66 81 135 197 135c72 0 181 -32 181 -150c0 -53 -32 -95 -113 -133l-91 -41c-26 -11 -45 -23 -57 -37l49 7c84 0 115 -41 148 -41c20 0 33 20 39 61h35c0 -152 -68 -168 -114 -168c-17 0 -65 0 -79 7h10l-28 17 c-49 37 -69 40 -87 42z"/>
        </symbol>
        <symbol id="E084-1olmner" viewBox="0 0 1000 1000" overflow="inherit">
            <path transform="scale(1,-1)" d="M20 -78c84 97 114 180 134 329h170c-13 -32 -82 -132 -99 -151l-84 -97c-33 -36 -59 -63 -80 -81h162v102l127 123v-225h57v-39h-57v-34c0 -43 19 -65 57 -65v-34h-244v36c48 0 60 26 60 70v27h-203v39z"/>
        </symbol>
        <symbol id="E0A4-1olmner" viewBox="0 0 1000 1000" overflow="inherit">
            <path transform="scale(1,-1)" d="M0 -39c0 68 73 172 200 172c66 0 114 -37 114 -95c0 -84 -106 -171 -218 -171c-64 0 -96 30 -96 94z"/>
        </symbol>
        <symbol id="E261-1olmner" viewBox="0 0 1000 1000" overflow="inherit">
            <path transform="scale(1,-1)" d="M0 -188v539h18v-191l139 22v-533h-17v186zM18 -100l122 17v176l-122 -19v-174z"/>
        </symbol>
        <symbol id="E260-1olmner" viewBox="0 0 1000 1000" overflow="inherit">
            <path transform="scale(1,-1)" d="M20 110c32 16 54 27 93 27c26 0 35 -3 54 -13c13 -7 24 -20 27 -38l4 -25c0 -28 -16 -57 -45 -89c-23 -25 -39 -44 -65 -68l-88 -79v644h20v-359zM90 106c-32 0 -48 -10 -70 -29v-194c31 31 54 59 71 84c21 32 32 59 32 84c0 9 1 16 1 20c0 14 -3 21 -11 30l-8 3z"/>
        </symbol>
        <symbol id="E240-1olmner" viewBox="0 0 1000 1000" overflow="inherit">
            <path transform="scale(1,-1)" d="M179 -646c15 29 29 55 46 102c18 49 30 108 30 138c0 105 -80 173 -168 200c-18 5 -47 9 -87 16v190h22c8 0 33 -61 71 -95c4 -3 -2 3 61 -56c62 -58 122 -137 122 -241c0 -38 -13 -106 -35 -163c-20 -51 -43 -99 -66 -132c-6 -5 -10 -7 -13 -7s-5 2 -5 5l4 10 c1 3 14 25 18 33z"/>
        </symbol>
        <symbol id="E241-1olmner" viewBox="0 0 1000 1000" overflow="inherit">
            <path transform="scale(1,-1)" d="M179 646c-4 8 -17 30 -18 33l-4 10c0 3 2 5 5 5s7 -2 13 -7c23 -33 46 -81 66 -132c22 -57 35 -125 35 -163c0 -104 -60 -183 -122 -241c-63 -59 -57 -53 -61 -56c-38 -34 -63 -95 -71 -95h-22v190c40 7 69 11 87 16c88 27 168 95 168 200c0 30 -12 89 -30 138 c-17 47 -31 73 -46 102z"/>
        </symbol>
        <symbol id="E4E5-1olmner" viewBox="0 0 1000 1000" overflow="inherit">
            <path transform="scale(1,-1)" d="M107 292c-13 24 -30 49 -52 71c-1 1 0 2 0 3l-2 2c3 3 4 4 6 4c12 0 26 -7 40 -20s44 -40 89 -81c26 -24 28 -29 46 -47c4 -4 8 -9 10 -14c6 -8 8 -16 8 -27c0 -19 -12 -40 -36 -61c-28 -23 -49 -38 -61 -73c-4 -11 -7 -27 -10 -50c13 -43 34 -83 59 -121 c31 -47 59 -79 101 -129c-8 0 -26 7 -54 20l-62 29l-21 6l-23 1c-25 0 -45 -10 -60 -30l-4 -14l-1 -12c0 -33 20 -56 39 -78c8 -9 17 -18 26 -26c17 -15 27 -24 28 -30l-3 -3c-11 5 -19 10 -25 15c-9 3 -37 21 -45 26c-24 14 -45 32 -63 51c-19 21 -37 44 -37 71 c0 63 27 95 80 95c41 0 86 -18 136 -52c-19 26 -37 48 -55 66c-23 23 -48 44 -73 65c-28 23 -47 40 -58 53s-17 26 -18 39c75 64 113 125 113 183c0 27 -7 48 -18 68z"/>
        </symbol>
        <symbol id="E220-1olmner" viewBox="0 0 1000 1000" overflow="inherit">
            <path transform="scale(1,-1)" d="M-163 -25l326 150v-100l-326 -150v100z"/>
        </symbol>
        <symbol id="E4A0-1olmner" viewBox="0 0 1000 1000" overflow="inherit">
            <path transform="scale(1,-1)" d="M0 236l347 -119l-347 -117v33l252 84l-252 86v33z"/>
        </symbol>
    </defs>
    <style type="text/css">g.page-margin{font-family:Times,serif;} g.ending, g.fing, g.reh, g.tempo{font-weight:bold;} g.dir, g.dynam, g.mNum{font-style:italic;} g.label{font-weight:normal;}</style>
    <svg class="definition-scale" color="black" viewBox="0 0 22890 2800">
        <g class="page-margin" transform="translate(500, 500)">
            <g id="mb1kr72" class="mdiv pageMilestone"/>
            <g id="sqrncvx" class="score pageMilestone"/>
            <g id="s1x8wacl" class="system">
                <g id="l12xg537" class="label">
                    <text x="1105" y="990" text-anchor="end" font-size="0px">
                        <tspan id="tiw4f4l" class="text">
                            <tspan font-size="405px">Piano</tspan>
                        </tspan>
                    </text>
                </g>
                <g id="s17vj5o6" class="section systemMilestone"/>
                <g id="pP1_m1" class="measure">
                    <g id="s164e5j0" class="staff">
                        <path d="M1285 540 L2997 540" stroke="currentColor" stroke-width="13"/>
                        <path d="M1285 720 L2997 720" stroke="currentColor" stroke-width="13"/>
                        <path d="M1285 900 L2997 900" stroke="currentColor" stroke-width="13"/>
                        <path d="M1285 1080 L2997 1080" stroke="currentColor" stroke-width="13"/>
                        <path d="M1285 1260 L2997 1260" stroke="currentColor" stroke-width="13"/>
                        <g id="clef1_1" class="clef" visibility="hidden"/>
                        <g id="key1_1" class="keySig" visibility="hidden"/>
                        <g id="time1_1" class="meterSig">
                            <use xlink:href="#E082-1olmner" x="1361" y="720" height="720px" width="720px"/>
                            <use xlink:href="#E084-1olmner" x="1366" y="1080" height="720px" width="720px"/>
                        </g>
                        <g id="lle8tcu" class="layer">
                            <g id="note1" class="note">
                                <g class="notehead" id="note1.notehead">
                                    <use xlink:href="#E0A3-1olmner" x="1934" y="1080" height="720px" width="720px"/>
                                </g>
                                <g id="note1.stem" class="stem">
                                    <path d="M2151 1052 L2151 450" stroke="currentColor" stroke-width="18"/>
                                </g>
                            </g>
                        </g>
                    </g>
                    <g id="pP1_m1.right_barline" class="barLine">
                        <path id="pP1_m1.right_barline.barline_tok1" d="M2984 540 L2984 1260" stroke="currentColor" stroke-width="27" class="barline_tok"/>
                    </g>
                </g>
                <g id="pP1_m2" class="measure">
                    <g id="s1xu1uia" class="staff">
                        <path d="M2997 540 L4570 540" stroke="currentColor" stroke-width="13"/>
                        <path d="M2997 720 L4570 720" stroke="currentColor" stroke-width="13"/>
                        <path d="M2997 900 L4570 900" stroke="currentColor" stroke-width="13"/>
                        <path d="M2997 1080 L4570 1080" stroke="currentColor" stroke-width="13"/>
                        <path d="M2997 1260 L4570 1260" stroke="currentColor" stroke-width="13"/>
                        <g id="lfco1z8" class="layer">
                            <g id="note2" class="note">
                                <g class="notehead" id="note2.notehead">
                                    <use xlink:href="#E0A4-1olmner" x="3177" y="1080" height="720px" width="720px"/>
                                </g>
                                <g id="note2.stem" class="stem">
                                    <path d="M3394 1052 L3394 450" stroke="currentColor" stroke-width="18"/>
                                </g>
                            </g>
                            <g id="rest1" class="rest">
                                <use xlink:href="#E4E5-1olmner" x="3867" y="900" height="720px" width="720px"/>
                            </g>
                        </g>
                    </g>
                    <g id="pP1_m2.right_barline" class="barLine">
                        <path id="pP1_m2.right_barline.barline_tok1" d="M4557 540 L4557 1260" stroke="currentColor" stroke-width="27" class="barline_tok"/>
                    </g>
                </g>
                <g id="pP1_m3" class="measure">
                    <g id="ssxsk8h" class="staff">
                        <path d="M4570 540 L5813 540" stroke="currentColor" stroke-width="13"/>
                        <path d="M4570 720 L5813 720" stroke="currentColor" stroke-width="13"/>
                        <path d="M4570 900 L5813 900" stroke="currentColor" stroke-width="13"/>
                        <path d="M4570 1080 L5813 1080" stroke="currentColor" stroke-width="13"/>
                        <path d="M4570 1260 L5813 1260" stroke="currentColor" stroke-width="13"/>
                        <g id="l1mbzsue" class="layer">
                            <g id="note3" class="note">
                                <g class="notehead" id="note3.notehead">
                                    <use xlink:href="#E0A3-1olmner" x="4750" y="1080" height="720px" width="720px"/>
                                </g>
                                <g id="note3.stem" class="stem">
                                    <path d="M4967 1052 L4967 450" stroke="currentColor" stroke-width="18"/>
                                </g>
                            </g>
                        </g>
                    </g>
                    <g id="pP1_m3.right_barline" class="barLine">
                        <path id="pP1_m3.right_barline.barline_tok1" d="M5800 540 L5800 1260" stroke="currentColor" stroke-width="27" class="barline_tok"/>
                    </g>
                </g>
                <g id="pP1_m4" class="measure">
                    <g id="s2xmml4" class="staff">
                        <path d="M5813 540 L7386 540" stroke="currentColor" stroke-width="13"/>
                        <path d="M5813 720 L7386 720" stroke="currentColor" stroke-width="13"/>
                        <path d="M5813 900 L7386 900" stroke="currentColor" stroke-width="13"/>
                        <path d="M5813 1080 L7386 1080" stroke="currentColor" stroke-width="13"/>
                        <path d="M5813 1260 L7386 1260" stroke="currentColor" stroke-width="13"/>
                        <g id="ljj8vdk" class="layer">
                            <g id="note4" class="note">
                                <g class="notehead" id="note4.notehead">
                                    <use xlink:href="#E0A4-1olmner" x="5993" y="1170" height="720px" width="720px"/>
                                </g>
                                <g id="note4.stem" class="stem">
                                    <path d="M6210 1142 L6210 540" stroke="currentColor" stroke-width="18"/>
                                </g>
                            </g>
                            <g id="rest2" class="rest">
                                <use xlink:href="#E4E5-1olmner" x="6683" y="900" height="720px" width="720px"/>
                            </g>
                        </g>
                    </g>
                    <g id="pP1_m4.right_barline" class="barLine">
                        <path id="pP1_m4.right_barline.barline_tok1" d="M7373 540 L7373 1260" stroke="currentColor" stroke-width="27" class="barline_tok"/>
                    </g>
                </g>
                <g id="pP1_m5" class="measure">
                    <g id="s1fxi15" class="staff">
                        <path d="M7386 540 L8959 540" stroke="currentColor" stroke-width="13"/>
                        <path d="M7386 720 L8959 720" stroke="currentColor" stroke-width="13"/>
                        <path d="M7386 900 L8959 900" stroke="currentColor" stroke-width="13"/>
                        <path d="M7386 1080 L8959 1080" stroke="currentColor" stroke-width="13"/>
                        <path d="M7386 1260 L8959 1260" stroke="currentColor" stroke-width="13"/>
                        <g id="llsl03l" class="layer">
                            <g id="note5.tremolo_beam" class="fTrem">
                                <polygon points="7656,1430 8184,1497 8184,1407 7656,1340" id="note5.tremolo_beam.line1" class="fTrem_line"/>
                                <polygon points="7656,1295 8184,1362 8184,1272 7656,1205" id="note5.tremolo_beam.line2" class="fTrem_line"/>
                                <g id="note5" class="note">
                                    <g class="notehead" id="note5.notehead">
                                        <use xlink:href="#E0A3-1olmner" x="7566" y="810" height="720px" width="720px"/>
                                    </g>
                                    <g id="note5.stem" class="stem">
                                        <path d="M7575 835 L7575 1422" stroke="currentColor" stroke-width="18"/>
                                    </g>
                                </g>
                                <g id="note6" class="note">
                                    <g class="notehead" id="note6.notehead">
                                        <use xlink:href="#E0A3-1olmner" x="8256" y="900" height="720px" width="720px"/>
                                    </g>
                                    <g id="note6.stem" class="stem">
                                        <path d="M8265 925 L8265 1512" stroke="currentColor" stroke-width="18"/>
                                    </g>
                                    <g id="note6.accidental" class="accid">
                                        <use xlink:href="#E261-1olmner" x="8098" y="900" height="720px" width="720px"/>
                                    </g>
                                </g>
                            </g>
                        </g>
                    </g>
                    <g id="pP1_m5.right_barline" class="barLine">
                        <path id="pP1_m5.right_barline.barline_tok1" d="M8946 540 L8946 1260" stroke="currentColor" stroke-width="27" class="barline_tok"/>
                    </g>
                </g>
                <g id="pP1_m6" class="measure">
                    <g id="s158ozp2" class="staff">
                        <path d="M8959 540 L11513 540" stroke="currentColor" stroke-width="13"/>
                        <path d="M8959 720 L11513 720" stroke="currentColor" stroke-width="13"/>
                        <path d="M8959 900 L11513 900" stroke="currentColor" stroke-width="13"/>
                        <path d="M8959 1080 L11513 1080" stroke="currentColor" stroke-width="13"/>
                        <path d="M8959 1260 L11513 1260" stroke="currentColor" stroke-width="13"/>
                        <g id="l3hu804" class="layer">
                            <g id="beam1_parent" class="beam_parent">
                                <polygon points="9139,1575 10292,1575 10292,1485 9139,1485" id="beam1" class="beam"/>
                                <polygon points="9139,1440 10292,1440 10292,1350 9139,1350" id="beam2" class="beam"/>
                                <g id="note7" class="note">
                                    <g class="notehead" id="note7.notehead">
                                        <use xlink:href="#E0A4-1olmner" x="9139" y="810" height="720px" width="720px"/>
                                    </g>
                                    <g id="note7.stem" class="stem">
                                        <path d="M9148 838 L9148 1557" stroke="currentColor" stroke-width="18"/>
                                    </g>
                                </g>
                                <g id="note8" class="note">
                                    <g class="notehead" id="note8.notehead">
                                        <use xlink:href="#E0A4-1olmner" x="9455" y="990" height="720px" width="720px"/>
                                    </g>
                                    <g id="note8.stem" class="stem">
                                        <path d="M9464 1018 L9464 1557" stroke="currentColor" stroke-width="18"/>
                                    </g>
                                </g>
                                <g id="note9" class="note">
                                    <g class="notehead" id="note9.notehead">
                                        <use xlink:href="#E0A4-1olmner" x="9958" y="900" height="720px" width="720px"/>
                                    </g>
                                    <g id="note9.stem" class="stem">
                                        <path d="M9967 928 L9967 1557" stroke="currentColor" stroke-width="18"/>
                                    </g>
                                    <g id="note9.accidental" class="accid">
                                        <use xlink:href="#E260-1olmner" x="9771" y="900" height="720px" width="720px"/>
                                    </g>
                                </g>
                                <g id="note10" class="note">
                                    <g class="notehead" id="note10.notehead">
                                        <use xlink:href="#E0A4-1olmner" x="10274" y="810" height="720px" width="720px"/>
                                    </g>
                                    <g id="note10.stem" class="stem">
                                        <path d="M10283 838 L10283 1557" stroke="currentColor" stroke-width="18"/>
                                    </g>
                                </g>
                            </g>
                            <g id="beam3_parent" class="beam_parent">
                                <polygon points="10590,1350 11188,1440 11188,1350 10590,1260" id="beam3" class="beam"/>
                                <polygon points="10962,1273 11188,1305 11188,1215 10962,1183" id="beam4" class="beam"/>
                                <g id="note11" class="note">
                                    <g class="notehead" id="note11.notehead">
                                        <use xlink:href="#E0A4-1olmner" x="10590" y="720" height="720px" width="720px"/>
                                    </g>
                                    <g id="note11.dots_parent" class="dots">
                                        <ellipse cx="10906" cy="630" rx="36" ry="36" id="note11.dot1" class="single_dot"/>
                                    </g>
                                    <g id="note11.stem" class="stem">
                                        <path d="M10599 748 L10599 1332" stroke="currentColor" stroke-width="18"/>
                                    </g>
                                </g>
                                <g id="note12" class="note">
                                    <g class="notehead" id="note12.notehead">
                                        <use xlink:href="#E0A4-1olmner" x="11170" y="810" height="720px" width="720px"/>
                                    </g>
                                    <g id="note12.stem" class="stem">
                                        <path d="M11179 838 L11179 1422" stroke="currentColor" stroke-width="18"/>
                                    </g>
                                </g>
                            </g>
                        </g>
                    </g>
                    <g id="pP1_m6.right_barline" class="barLine">
                        <path id="pP1_m6.right_barline.barline_tok1" d="M11500 540 L11500 1260" stroke="currentColor" stroke-width="27" class="barline_tok"/>
                    </g>
                </g>
                <g id="pP1_m7" class="measure">
                    <g id="s1vuiyxm" class="staff">
                        <path d="M11513 540 L13296 540" stroke="currentColor" stroke-width="13"/>
                        <path d="M11513 720 L13296 720" stroke="currentColor" stroke-width="13"/>
                        <path d="M11513 900 L13296 900" stroke="currentColor" stroke-width="13"/>
                        <path d="M11513 1080 L13296 1080" stroke="currentColor" stroke-width="13"/>
                        <path d="M11513 1260 L13296 1260" stroke="currentColor" stroke-width="13"/>
                        <g id="lnh4kc1" class="layer">
                            <g id="note13" class="note">
                                <g class="notehead" id="note13.notehead">
                                    <use xlink:href="#E0A4-1olmner" x="11693" y="810" height="720px" width="720px"/>
                                </g>
                                <g id="note13.stem" class="stem">
                                    <path d="M11702 838 L11702 1440" stroke="currentColor" stroke-width="18"/>
                                    <g id="note13.stem.flag" class="flag">
                                        <use xlink:href="#E241-1olmner" x="11693" y="1440" height="720px" width="720px"/>
                                    </g>
                                </g>
                            </g>
                            <g id="note14" class="note">
                                <g class="notehead" id="note14.notehead">
                                    <use xlink:href="#E0A4-1olmner" x="12143" y="900" height="720px" width="720px"/>
                                </g>
                                <g id="note14.stem" class="stem">
                                    <path d="M12152 928 L12152 1500" stroke="currentColor" stroke-width="18"/>
                                </g>
                                <g id="note14.accidental" class="accid"/>
                                <g id="note14.articulation1.accent" class="artic">
                                    <use xlink:href="#E4A0-1olmner" x="12132" y="473" height="720px" width="720px"/>
                                </g>
                            </g>
                            <g id="note15" class="note">
                                <g class="notehead" id="note15.notehead">
                                    <use xlink:href="#E0A4-1olmner" x="12833" y="990" height="720px" width="720px"/>
                                </g>
                                <g id="note15.stem" class="stem">
                                    <path d="M12842 1018 L12842 1560" stroke="currentColor" stroke-width="18"/>
                                    <g id="note15.stem.flag" class="flag">
                                        <use xlink:href="#E241-1olmner" x="12833" y="1560" height="720px" width="720px"/>
                                    </g>
                                </g>
                            </g>
                        </g>
                    </g>
                    <g id="pP1_m7.right_barline" class="barLine">
                        <path id="pP1_m7.right_barline.barline_tok1" d="M13283 540 L13283 1260" stroke="currentColor" stroke-width="27" class="barline_tok"/>
                    </g>
                </g>
                <g id="pP1_m8" class="measure">
                    <g id="s13i48zg" class="staff">
                        <path d="M13296 540 L14869 540" stroke="currentColor" stroke-width="13"/>
                        <path d="M13296 720 L14869 720" stroke="currentColor" stroke-width="13"/>
                        <path d="M13296 900 L14869 900" stroke="currentColor" stroke-width="13"/>
                        <path d="M13296 1080 L14869 1080" stroke="currentColor" stroke-width="13"/>
                        <path d="M13296 1260 L14869 1260" stroke="currentColor" stroke-width="13"/>
                        <g id="l1qo7l6" class="layer">
                            <g id="note16" class="note">
                                <g class="notehead" id="note16.notehead">
                                    <use xlink:href="#E0A4-1olmner" x="13476" y="900" height="720px" width="720px"/>
                                </g>
                                <g id="note16.stem" class="stem">
                                    <path d="M13485 928 L13485 1500" stroke="currentColor" stroke-width="18"/>
                                </g>
                                <g id="note16.accidental" class="accid"/>
                            </g>
                            <g id="rest3" class="rest">
                                <use xlink:href="#E4E5-1olmner" x="14166" y="900" height="720px" width="720px"/>
                            </g>
                        </g>
                    </g>
                    <g id="pP1_m8.right_barline" class="barLine">
                        <path id="pP1_m8.right_barline.barline_tok1" d="M14856 540 L14856 1260" stroke="currentColor" stroke-width="27" class="barline_tok"/>
                    </g>
                </g>
                <g id="pP1_m9" class="measure">
                    <g id="s1gml289" class="staff">
                        <path d="M14869 540 L16442 540" stroke="currentColor" stroke-width="13"/>
                        <path d="M14869 720 L16442 720" stroke="currentColor" stroke-width="13"/>
                        <path d="M14869 900 L16442 900" stroke="currentColor" stroke-width="13"/>
                        <path d="M14869 1080 L16442 1080" stroke="currentColor" stroke-width="13"/>
                        <path d="M14869 1260 L16442 1260" stroke="currentColor" stroke-width="13"/>
                        <g id="lir3mic" class="layer">
                            <g id="note17.tremolo_beam" class="fTrem">
                                <polygon points="15139,1520 15667,1587 15667,1497 15139,1430" id="note17.tremolo_beam.line1" class="fTrem_line"/>
                                <polygon points="15139,1385 15667,1452 15667,1362 15139,1295" id="note17.tremolo_beam.line2" class="fTrem_line"/>
                                <g id="note17" class="note">
                                    <g class="notehead" id="note17.notehead">
                                        <use xlink:href="#E0A3-1olmner" x="15049" y="900" height="720px" width="720px"/>
                                    </g>
                                    <g id="note17.stem" class="stem">
                                        <path d="M15058 925 L15058 1512" stroke="currentColor" stroke-width="18"/>
                                    </g>
                                    <g id="note17.accidental" class="accid"/>
                                </g>
                                <g id="note18" class="note">
                                    <g class="notehead" id="note18.notehead">
                                        <use xlink:href="#E0A3-1olmner" x="15739" y="990" height="720px" width="720px"/>
                                    </g>
                                    <g id="note18.stem" class="stem">
                                        <path d="M15748 1015 L15748 1602" stroke="currentColor" stroke-width="18"/>
                                    </g>
                                </g>
                            </g>
                        </g>
                    </g>
                    <g id="pP1_m9.right_barline" class="barLine">
                        <path id="pP1_m9.right_barline.barline_tok1" d="M16429 540 L16429 1260" stroke="currentColor" stroke-width="27" class="barline_tok"/>
                    </g>
                </g>
                <g id="pP1_m10" class="measure">
                    <g id="s1pn7fy6" class="staff">
                        <path d="M16442 540 L18809 540" stroke="currentColor" stroke-width="13"/>
                        <path d="M16442 720 L18809 720" stroke="currentColor" stroke-width="13"/>
                        <path d="M16442 900 L18809 900" stroke="currentColor" stroke-width="13"/>
                        <path d="M16442 1080 L18809 1080" stroke="currentColor" stroke-width="13"/>
                        <path d="M16442 1260 L18809 1260" stroke="currentColor" stroke-width="13"/>
                        <g id="l1sxltgh" class="layer">
                            <g id="beam5_parent" class="beam_parent">
                                <polygon points="16622,1665 17588,1665 17588,1575 16622,1575" id="beam5" class="beam"/>
                                <polygon points="16622,1530 17588,1530 17588,1440 16622,1440" id="beam6" class="beam"/>
                                <g id="note19" class="note">
                                    <g class="notehead" id="note19.notehead">
                                        <use xlink:href="#E0A4-1olmner" x="16622" y="900" height="720px" width="720px"/>
                                    </g>
                                    <g id="note19.stem" class="stem">
                                        <path d="M16631 928 L16631 1647" stroke="currentColor" stroke-width="18"/>
                                    </g>
                                    <g id="note19.accidental" class="accid"/>
                                </g>
                                <g id="note20" class="note">
                                    <g class="notehead" id="note20.notehead">
                                        <use xlink:href="#E0A4-1olmner" x="16938" y="1080" height="720px" width="720px"/>
                                    </g>
                                    <g id="note20.stem" class="stem">
                                        <path d="M16947 1108 L16947 1647" stroke="currentColor" stroke-width="18"/>
                                    </g>
                                </g>
                                <g id="note21" class="note">
                                    <g class="notehead" id="note21.notehead">
                                        <use xlink:href="#E0A4-1olmner" x="17254" y="990" height="720px" width="720px"/>
                                    </g>
                                    <g id="note21.stem" class="stem">
                                        <path d="M17263 1018 L17263 1647" stroke="currentColor" stroke-width="18"/>
                                    </g>
                                </g>
                                <g id="note22" class="note">
                                    <g class="notehead" id="note22.notehead">
                                        <use xlink:href="#E0A4-1olmner" x="17570" y="900" height="720px" width="720px"/>
                                    </g>
                                    <g id="note22.stem" class="stem">
                                        <path d="M17579 928 L17579 1647" stroke="currentColor" stroke-width="18"/>
                                    </g>
                                    <g id="note22.accidental" class="accid"/>
                                </g>
                            </g>
                            <g id="beam7_parent" class="beam_parent">
                                <polygon points="17886,1440 18484,1530 18484,1440 17886,1350" id="beam7" class="beam"/>
                                <polygon points="18258,1363 18484,1395 18484,1305 18258,1273" id="beam8" class="beam"/>
                                <g id="note23" class="note">
                                    <g class="notehead" id="note23.notehead">
                                        <use xlink:href="#E0A4-1olmner" x="17886" y="810" height="720px" width="720px"/>
                                    </g>
                                    <g id="note23.dots_parent" class="dots">
                                        <ellipse cx="18202" cy="810" rx="36" ry="36" id="note23.dot1" class="single_dot"/>
                                    </g>
                                    <g id="note23.stem" class="stem">
                                        <path d="M17895 838 L17895 1422" stroke="currentColor" stroke-width="18"/>
                                    </g>
                                </g>
                                <g id="note24" class="note">
                                    <g class="notehead" id="note24.notehead">
                                        <use xlink:href="#E0A4-1olmner" x="18466" y="900" height="720px" width="720px"/>
                                    </g>
                                    <g id="note24.stem" class="stem">
                                        <path d="M18475 928 L18475 1512" stroke="currentColor" stroke-width="18"/>
                                    </g>
                                    <g id="note24.accidental" class="accid"/>
                                </g>
                            </g>
                        </g>
                    </g>
                    <g id="pP1_m10.right_barline" class="barLine">
                        <path id="pP1_m10.right_barline.barline_tok1" d="M18796 540 L18796 1260" stroke="currentColor" stroke-width="27" class="barline_tok"/>
                    </g>
                </g>
                <g id="pP1_m11" class="measure">
                    <g id="s1qwm9m7" class="staff">
                        <path d="M18809 540 L20652 540" stroke="currentColor" stroke-width="13"/>
                        <path d="M18809 720 L20652 720" stroke="currentColor" stroke-width="13"/>
                        <path d="M18809 900 L20652 900" stroke="currentColor" stroke-width="13"/>
                        <path d="M18809 1080 L20652 1080" stroke="currentColor" stroke-width="13"/>
                        <path d="M18809 1260 L20652 1260" stroke="currentColor" stroke-width="13"/>
                        <g id="lwy8vzj" class="layer">
                            <g id="note25" class="note">
                                <g class="notehead" id="note25.notehead">
                                    <use xlink:href="#E0A4-1olmner" x="18989" y="900" height="720px" width="720px"/>
                                </g>
                                <g id="note25.stem" class="stem">
                                    <path d="M18998 928 L18998 1500" stroke="currentColor" stroke-width="18"/>
                                    <g id="note25.stem.flag" class="flag">
                                        <use xlink:href="#E241-1olmner" x="18989" y="1500" height="720px" width="720px"/>
                                    </g>
                                </g>
                                <g id="note25.accidental" class="accid"/>
                            </g>
                            <g id="note26" class="note">
                                <g class="notehead" id="note26.notehead">
                                    <use xlink:href="#E0A4-1olmner" x="19439" y="990" height="720px" width="720px"/>
                                </g>
                                <g id="note26.stem" class="stem">
                                    <path d="M19448 1018 L19448 1560" stroke="currentColor" stroke-width="18"/>
                                </g>
                            </g>
                            <g id="note27" class="note">
                                <g class="notehead" id="note27.notehead">
                                    <use xlink:href="#E0A4-1olmner" x="20129" y="1080" height="720px" width="720px"/>
                                </g>
                                <g id="note27.stem" class="stem">
                                    <path d="M20346 1052 L20346 450" stroke="currentColor" stroke-width="18"/>
                                    <g id="note27.stem.flag" class="flag">
                                        <use xlink:href="#E240-1olmner" x="20337" y="450" height="720px" width="720px"/>
                                    </g>
                                </g>
                            </g>
                        </g>
                    </g>
                    <g id="pP1_m11.right_barline" class="barLine">
                        <path id="pP1_m11.right_barline.barline_tok1" d="M20639 540 L20639 1260" stroke="currentColor" stroke-width="27" class="barline_tok"/>
                    </g>
                </g>
                <g id="pP1_m12" class="measure">
                    <g id="sgil2i2" class="staff">
                        <path d="M20652 540 L21895 540" stroke="currentColor" stroke-width="13"/>
                        <path d="M20652 720 L21895 720" stroke="currentColor" stroke-width="13"/>
                        <path d="M20652 900 L21895 900" stroke="currentColor" stroke-width="13"/>
                        <path d="M20652 1080 L21895 1080" stroke="currentColor" stroke-width="13"/>
                        <path d="M20652 1260 L21895 1260" stroke="currentColor" stroke-width="13"/>
                        <g id="key2" class="keySig" visibility="hidden"/>
                        <g id="l1fz6bug" class="layer">
                            <g id="note28.tremolo_single" class="bTrem">
                                <use xlink:href="#E220-1olmner" x="20841" y="1260" height="720px" width="720px" id="note28.tremolo_single.line1" class="bTrem_line"/>
                                <g id="note28" class="note">
                                    <g class="notehead" id="note28.notehead">
                                        <use xlink:href="#E0A3-1olmner" x="20832" y="990" height="720px" width="720px"/>
                                    </g>
                                    <g id="note28.stem" class="stem">
                                        <path d="M20841 1015 L20841 1560" stroke="currentColor" stroke-width="18"/>
                                    </g>
                                </g>
                            </g>
                        </g>
                    </g>
                    <g id="pP1_m12.right_barline" class="barLine">
                        <path id="pP1_m12.right_barline.barline_tok1" d="M21882 540 L21882 1260" stroke="currentColor" stroke-width="27" class="barline_tok"/>
                    </g>
                </g>
                <g id="sv6gzhx" class="systemMilestoneEnd s17vj5o6"/>
            </g>
            <g id="p4d15hd" class="pageMilestoneEnd sqrncvx"/>
            <g id="p17wxxe3" class="pageMilestoneEnd mb1kr72"/>
        </g>
    </svg>
</svg>