<svg xmlns="http://www.w3.org/2000/svg" xmlns:xlink="http://www.w3.org/1999/xlink" xmlns:mei="http://www.music-encoding.org/ns/mei" width="2175px" height="317px" version="1.1" overflow="visible">
    <desc>Engraved by Verovio 4.3.0-dev-ba68db3-dirty</desc>
    <defs>
        <symbol id="E0A3-1lt6hou" viewBox="0 0 1000 1000" overflow="inherit">
            <path transform="scale(1,-1)" d="M278 64c0 22 -17 39 -43 39c-12 0 -26 -3 -41 -10c-85 -43 -165 -94 -165 -156c5 -25 15 -32 49 -32c67 11 200 95 200 159zM0 -36c0 68 73 174 200 174c66 0 114 -39 114 -97c0 -84 -106 -173 -218 -173c-64 0 -96 32 -96 96z"/>
        </symbol>
        <symbol id="E081-1lt6hou" viewBox="0 0 1000 1000" overflow="inherit">
            <path transform="scale(1,-1)" d="M68 -250v36c23 0 40 6 49 18c8 14 12 33 12 57v250l-82 -129l-27 13l107 255h128v-394c0 -24 5 -42 14 -53s25 -17 47 -17v-36h-248z"/>
        </symbol>
        <symbol id="E082-1lt6hou" viewBox="0 0 1000 1000" overflow="inherit">
            <path transform="scale(1,-1)" d="M124 -185c-18 0 -55 -14 -65 -65h-36l-3 30c0 25 6 45 18 63c11 19 22 30 39 43l121 82l37 29c15 11 27 29 38 54c12 24 18 47 18 70c0 40 -19 88 -94 88c-25 0 -32 0 -50 -8c-14 -5 -23 -12 -26 -22c3 -9 7 -15 10 -18l24 -17c12 -7 17 -11 27 -21c5 -7 7 -16 7 -27 c0 -12 0 -57 -79 -74c-30 0 -76 26 -76 94c0 66 81 135 197 135c72 0 181 -32 181 -150c0 -53 -32 -95 -113 -133l-91 -41c-26 -11 -45 -23 -57 -37l49 7c84 0 115 -41 148 -41c20 0 33 20 39 61h35c0 -152 -68 -168 -114 -168c-17 0 -65 0 -79 7h10l-28 17 c-49 37 -69 40 -87 42z"/>
        </symbol>
        <symbol id="E084-1lt6hou" viewBox="0 0 1000 1000" overflow="inherit">
            <path transform="scale(1,-1)" d="M20 -78c84 97 114 180 134 329h170c-13 -32 -82 -132 -99 -151l-84 -97c-33 -36 -59 -63 -80 -81h162v102l127 123v-225h57v-39h-57v-34c0 -43 19 -65 57 -65v-34h-244v36c48 0 60 26 60 70v27h-203v39z"/>
        </symbol>
        <symbol id="E087-1lt6hou" viewBox="0 0 1000 1000" overflow="inherit">
            <path transform="scale(1,-1)" d="M350 125c-11 -9 -53 -46 -95 -46c-18 2 -33 8 -44 17c-17 19 -33 34 -48 45c-13 11 -27 17 -42 17c-23 0 -45 -22 -64 -66h-37v155h37c4 -18 11 -28 21 -30c8 1 15 3 22 8l10 5l14 10c3 2 14 6 21 7l11 2c8 1 33 1 42 1c39 0 57 -7 90 -43c11 -15 26 -23 44 -26 c27 3 45 29 54 70l38 -1c-1 -9 -11 -88 -29 -124c-5 -13 -12 -28 -21 -46l-33 -60c-55 -92 -69 -162 -69 -270h-174c0 45 11 86 33 122c23 35 59 74 106 117c99 84 113 96 113 136z"/>
        </symbol>
        <symbol id="E0A4-1lt6hou" viewBox="0 0 1000 1000" overflow="inherit">
            <path transform="scale(1,-1)" d="M0 -39c0 68 73 172 200 172c66 0 114 -37 114 -95c0 -84 -106 -171 -218 -171c-64 0 -96 30 -96 94z"/>
        </symbol>
        <symbol id="E262-1lt6hou" viewBox="0 0 1000 1000" overflow="inherit">
            <path transform="scale(1,-1)" d="M136 186v169h17v-164l44 14v-91l-44 -14v-165l44 12v-91l-44 -13v-155h-17v150l-76 -22v-155h-17v149l-43 -13v90l43 14v167l-43 -14v92l43 13v169h17v-163zM60 73v-167l76 22v168z"/>
        </symbol>
        <symbol id="E261-1lt6hou" viewBox="0 0 1000 1000" overflow="inherit">
            <path transform="scale(1,-1)" d="M0 -188v539h18v-191l139 22v-533h-17v186zM18 -100l122 17v176l-122 -19v-174z"/>
        </symbol>
        <symbol id="E260-1lt6hou" viewBox="0 0 1000 1000" overflow="inherit">
            <path transform="scale(1,-1)" d="M20 110c32 16 54 27 93 27c26 0 35 -3 54 -13c13 -7 24 -20 27 -38l4 -25c0 -28 -16 -57 -45 -89c-23 -25 -39 -44 -65 -68l-88 -79v644h20v-359zM90 106c-32 0 -48 -10 -70 -29v-194c31 31 54 59 71 84c21 32 32 59 32 84c0 9 1 16 1 20c0 14 -3 21 -11 30l-8 3z"/>
        </symbol>
        <symbol id="E241-1lt6hou" viewBox="0 0 1000 1000" overflow="inherit">
            <path transform="scale(1,-1)" d="M179 646c-4 8 -17 30 -18 33l-4 10c0 3 2 5 5 5s7 -2 13 -7c23 -33 46 -81 66 -132c22 -57 35 -125 35 -163c0 -104 -60 -183 -122 -241c-63 -59 -57 -53 -61 -56c-38 -34 -63 -95 -71 -95h-22v190c40 7 69 11 87 16c88 27 168 95 168 200c0 30 -12 89 -30 138 c-17 47 -31 73 -46 102z"/>
        </symbol>
        <symbol id="E4E5-1lt6hou" viewBox="0 0 1000 1000" overflow="inherit">
            <path transform="scale(1,-1)" d="M107 292c-13 24 -30 49 -52 71c-1 1 0 2 0 3l-2 2c3 3 4 4 6 4c12 0 26 -7 40 -20s44 -40 89 -81c26 -24 28 -29 46 -47c4 -4 8 -9 10 -14c6 -8 8 -16 8 -27c0 -19 -12 -40 -36 -61c-28 -23 -49 -38 -61 -73c-4 -11 -7 -27 -10 -50c13 -43 34 -83 59 -121 c31 -47 59 -79 101 -129c-8 0 -26 7 -54 20l-62 29l-21 6l-23 1c-25 0 -45 -10 -60 -30l-4 -14l-1 -12c0 -33 20 -56 39 -78c8 -9 17 -18 26 -26c17 -15 27 -24 28 -30l-3 -3c-11 5 -19 10 -25 15c-9 3 -37 21 -45 26c-24 14 -45 32 -63 51c-19 21 -37 44 -37 71 c0 63 27 95 80 95c41 0 86 -18 136 -52c-19 26 -37 48 -55 66c-23 23 -48 44 -73 65c-28 23 -47 40 -58 53s-17 26 -18 39c75 64 113 125 113 183c0 27 -7 48 -18 68z"/>
        </symbol>
        <symbol id="E4E6-1lt6hou" viewBox="0 0 1000 1000" overflow="inherit">
            <path transform="scale(1,-1)" d="M0 123c7 34 33 56 69 60c29 -3 43 -9 53 -29c4 -8 7 -15 10 -22c0 -21 -1 -25 -11 -35c-5 -8 -18 -14 -40 -20l12 -3l15 -1c44 0 97 26 122 56c10 11 18 26 24 42c7 1 15 2 22 3l-140 -424h-36l111 330c-10 -6 -27 -12 -53 -16l-52 -8h-10l-20 1c-1 0 -8 3 -21 6 c-37 9 -55 28 -55 60z"/>
        </symbol>
        <symbol id="E220-1lt6hou" viewBox="0 0 1000 1000" overflow="inherit">
            <path transform="scale(1,-1)" d="M-163 -25l326 150v-100l-326 -150v100z"/>
        </symbol>
        <symbol id="E4E3-1lt6hou" viewBox="0 0 1000 1000" overflow="inherit">
            <path transform="scale(1,-1)" d="M0 -115v105c0 9 1 10 10 10h280c9 0 10 -1 10 -10v-105c0 -9 -1 -10 -10 -10h-280c-9 0 -10 1 -10 10z"/>
        </symbol>
        <symbol id="E4E1-1lt6hou" viewBox="0 0 1000 1000" overflow="inherit">
            <path transform="scale(1,-1)" d="M0 -240v480c0 8 2 10 10 10h105c8 0 10 -2 10 -10v-480c0 -8 -2 -10 -10 -10h-105c-8 0 -10 2 -10 10z"/>
        </symbol>
        <symbol id="E044-1lt6hou" viewBox="0 0 1000 1000" overflow="inherit">
            <path transform="scale(1,-1)" d="M0 0c0 28 22 50 50 50s50 -22 50 -50s-22 -50 -50 -50s-50 22 -50 50z"/>
        </symbol>
    </defs>
    <style type="text/css">g.page-margin{font-family:Times,serif;} g.ending, g.fing, g.reh, g.tempo{font-weight:bold;} g.dir, g.dynam, g.mNum{font-style:italic;} g.label{font-weight:normal;}</style>
    <svg class="definition-scale" color="black" viewBox="0 0 21750 3170">
        <g class="page-margin" transform="translate(500, 500)">
            <g id="mpeebe3" class="mdiv pageMilestone"/>
            <g id="sr8kss" class="score pageMilestone"/>
            <g id="svklrwg" class="system">
                <g id="l1fn80dq" class="label">
                    <text x="1105" y="1367" text-anchor="end" font-size="0px">
                        <tspan id="t1odwjut" class="text">
                            <tspan font-size="405px">Piano</tspan>
                        </tspan>
                    </text>
                </g>
                <g id="sn9l37t" class="section systemMilestone"/>
                <g id="pP1_m1" class="measure">
                    <g id="s9ip7o3" class="staff">
                        <path d="M1285 917 L3800 917" stroke="currentColor" stroke-width="13"/>
                        <path d="M1285 1097 L3800 1097" stroke="currentColor" stroke-width="13"/>
                        <path d="M1285 1277 L3800 1277" stroke="currentColor" stroke-width="13"/>
                        <path d="M1285 1457 L3800 1457" stroke="currentColor" stroke-width="13"/>
                        <path d="M1285 1637 L3800 1637" stroke="currentColor" stroke-width="13"/>
                        <g id="clef1_1" class="clef" visibility="hidden"/>
                        <g id="key1_1" class="keySig" visibility="hidden"/>
                        <g id="time1_1" class="meterSig">
                            <use xlink:href="#E082-1lt6hou" x="1361" y="1097" height="720px" width="720px"/>
                            <use xlink:href="#E084-1lt6hou" x="1366" y="1457" height="720px" width="720px"/>
                        </g>
                        <g id="lxjeblm" class="layer">
                            <g id="beam1_parent" class="beam_parent">
                                <polygon points="1934,1862 3355,1817 3355,1727 1934,1772" id="beam1" class="beam"/>
                                <g id="note1" class="note">
                                    <g class="notehead" id="note1.notehead">
                                        <use xlink:href="#E0A4-1lt6hou" x="1934" y="1187" height="720px" width="720px"/>
                                    </g>
                                    <g id="note1.stem" class="stem">
                                        <path d="M1943 1215 L1943 1844" stroke="currentColor" stroke-width="18"/>
                                    </g>
                                </g>
                                <g id="note2" class="note">
                                    <g class="notehead" id="note2.notehead">
                                        <use xlink:href="#E0A4-1lt6hou" x="2384" y="917" height="720px" width="720px"/>
                                    </g>
                                    <g id="note2.stem" class="stem">
                                        <path d="M2393 945 L2393 1830" stroke="currentColor" stroke-width="18"/>
                                    </g>
                                </g>
                                <g id="note3" class="note">
                                    <g class="notehead" id="note3.notehead">
                                        <use xlink:href="#E0A4-1lt6hou" x="2887" y="1007" height="720px" width="720px"/>
                                    </g>
                                    <g id="note3.stem" class="stem">
                                        <path d="M2896 1035 L2896 1814" stroke="currentColor" stroke-width="18"/>
                                    </g>
                                    <g id="note3.accidental" class="accid">
                                        <use xlink:href="#E260-1lt6hou" x="2700" y="1007" height="720px" width="720px"/>
                                    </g>
                                </g>
                                <g id="note4" class="note">
                                    <g class="notehead" id="note4.notehead">
                                        <use xlink:href="#E0A4-1lt6hou" x="3337" y="1007" height="720px" width="720px"/>
                                    </g>
                                    <g id="note4.stem" class="stem">
                                        <path d="M3346 1035 L3346 1799" stroke="currentColor" stroke-width="18"/>
                                    </g>
                                    <g id="note4.accidental" class="accid"/>
                                </g>
                            </g>
                        </g>
                    </g>
                    <g id="pP1_m1.right_barline" class="barLine">
                        <path id="pP1_m1.right_barline.barline_tok1" d="M3787 917 L3787 1637" stroke="currentColor" stroke-width="27" class="barline_tok"/>
                    </g>
                </g>
                <g id="pP1_m2" class="measure">
                    <g id="sx108kr" class="staff">
                        <path d="M3800 917 L5309 917" stroke="currentColor" stroke-width="13"/>
                        <path d="M3800 1097 L5309 1097" stroke="currentColor" stroke-width="13"/>
                        <path d="M3800 1277 L5309 1277" stroke="currentColor" stroke-width="13"/>
                        <path d="M3800 1457 L5309 1457" stroke="currentColor" stroke-width="13"/>
                        <path d="M3800 1637 L5309 1637" stroke="currentColor" stroke-width="13"/>
                        <g id="l2bs2r5" class="layer">
                            <g id="note5.tremolo_single" class="bTrem">
                                <use xlink:href="#E220-1lt6hou" x="4255" y="1277" height="720px" width="720px" id="note5.tremolo_single.line1" class="bTrem_line"/>
                                <g id="note5" class="note">
                                    <g class="notehead" id="note5.notehead">
                                        <use xlink:href="#E0A3-1lt6hou" x="4246" y="1007" height="720px" width="720px"/>
                                    </g>
                                    <g id="note5.stem" class="stem">
                                        <path d="M4255 1032 L4255 1637" stroke="currentColor" stroke-width="18"/>
                                    </g>
                                    <g id="note5.accidental" class="accid">
                                        <use xlink:href="#E261-1lt6hou" x="3980" y="1007" height="720px" width="720px"/>
                                    </g>
                                </g>
                            </g>
                        </g>
                    </g>
                    <g id="pP1_m2.right_barline" class="barLine">
                        <path id="pP1_m2.right_barline.barline_tok1" d="M5296 917 L5296 1637" stroke="currentColor" stroke-width="27" class="barline_tok"/>
                    </g>
                </g>
                <g id="pP1_m3" class="measure">
                    <g id="sj5ldt5" class="staff">
                        <path d="M5309 917 L6552 917" stroke="currentColor" stroke-width="13"/>
                        <path d="M5309 1097 L6552 1097" stroke="currentColor" stroke-width="13"/>
                        <path d="M5309 1277 L6552 1277" stroke="currentColor" stroke-width="13"/>
                        <path d="M5309 1457 L6552 1457" stroke="currentColor" stroke-width="13"/>
                        <path d="M5309 1637 L6552 1637" stroke="currentColor" stroke-width="13"/>
                        <g id="l1hrpugs" class="layer">
                            <g id="note6.tremolo_single" class="bTrem">
                                <use xlink:href="#E220-1lt6hou" x="5498" y="1277" height="720px" width="720px" id="note6.tremolo_single.line1" class="bTrem_line"/>
                                <g id="note6" class="note">
                                    <g class="notehead" id="note6.notehead">
                                        <use xlink:href="#E0A3-1lt6hou" x="5489" y="917" height="720px" width="720px"/>
                                    </g>
                                    <g id="note6.stem" class="stem">
                                        <path d="M5498 942 L5498 1547" stroke="currentColor" stroke-width="18"/>
                                    </g>
                                </g>
                            </g>
                        </g>
                    </g>
                    <g id="pP1_m3.right_barline" class="barLine">
                        <path id="pP1_m3.right_barline.barline_tok1" d="M6539 917 L6539 1637" stroke="currentColor" stroke-width="27" class="barline_tok"/>
                    </g>
                </g>
                <g id="pP1_m4" class="measure">
                    <g id="s15rciix" class="staff">
                        <path d="M6552 917 L8707 917" stroke="currentColor" stroke-width="13"/>
                        <path d="M6552 1097 L8707 1097" stroke="currentColor" stroke-width="13"/>
                        <path d="M6552 1277 L8707 1277" stroke="currentColor" stroke-width="13"/>
                        <path d="M6552 1457 L8707 1457" stroke="currentColor" stroke-width="13"/>
                        <path d="M6552 1637 L8707 1637" stroke="currentColor" stroke-width="13"/>
                        <g id="l484y9l" class="layer">
                            <g id="beam2_parent" class="beam_parent">
                                <polygon points="6732,1817 8100,1817 8100,1727 6732,1727" id="beam2" class="beam"/>
                                <g id="note7" class="note">
                                    <g class="notehead" id="note7.notehead">
                                        <use xlink:href="#E0A4-1lt6hou" x="6732" y="1007" height="720px" width="720px"/>
                                    </g>
                                    <g id="note7.stem" class="stem">
                                        <path d="M6741 1035 L6741 1799" stroke="currentColor" stroke-width="18"/>
                                    </g>
                                </g>
                                <g id="note8" class="note">
                                    <g class="notehead" id="note8.notehead">
                                        <use xlink:href="#E0A4-1lt6hou" x="7182" y="1187" height="720px" width="720px"/>
                                    </g>
                                    <g id="note8.stem" class="stem">
                                        <path d="M7191 1215 L7191 1799" stroke="currentColor" stroke-width="18"/>
                                    </g>
                                </g>
                                <g id="note9" class="note">
                                    <g class="notehead" id="note9.notehead">
                                        <use xlink:href="#E0A4-1lt6hou" x="7632" y="1187" height="720px" width="720px"/>
                                    </g>
                                    <g id="note9.stem" class="stem">
                                        <path d="M7641 1215 L7641 1799" stroke="currentColor" stroke-width="18"/>
                                    </g>
                                </g>
                                <g id="note10" class="note">
                                    <g class="notehead" id="note10.notehead">
                                        <use xlink:href="#E0A4-1lt6hou" x="8082" y="1187" height="720px" width="720px"/>
                                    </g>
                                    <g id="note10.stem" class="stem">
                                        <path d="M8091 1215 L8091 1799" stroke="currentColor" stroke-width="18"/>
                                    </g>
                                </g>
                            </g>
                        </g>
                    </g>
                    <g id="barline1" class="barLine">
                        <path id="barline1.barline_tok1" d="M8532 917 L8532 1637" stroke="currentColor" stroke-width="27" class="barline_tok"/>
                        <path id="barline1.barline_tok2" d="M8662 917 L8662 1637" stroke="currentColor" stroke-width="90" class="barline_tok"/>
                        <g id="barline1.repeat_backward1" class="repeat">
                            <use xlink:href="#E044-1lt6hou" x="8415" y="1187" height="720px" width="720px"/>
                            <use xlink:href="#E044-1lt6hou" x="8415" y="1367" height="720px" width="720px"/>
                        </g>
                    </g>
                </g>
                <g id="eip2g21" class="ending systemMilestone">
                    <g class="voltaBracket" id="eip2g21.bracket">
                        <text x="8767" y="334" font-size="0px">
                            <tspan id="t1u5wgej" class="text">
                                <tspan font-size="405px">1.</tspan>
                            </tspan>
                        </text>
                        <path d="M8694 6 L20718 6" stroke="currentColor" stroke-width="13" stroke-linecap="square"/>
                        <path d="M8694 6 L8694 334" stroke="currentColor" stroke-width="13" stroke-linecap="square"/>
                        <path d="M20718 6 L20718 334" stroke="currentColor" stroke-width="13" stroke-linecap="square"/>
                    </g>
                </g>
                <g id="pP1_m5" class="measure">
                    <g id="szgjp52" class="staff">
                        <path d="M8707 917 L10280 917" stroke="currentColor" stroke-width="13"/>
                        <path d="M8707 1097 L10280 1097" stroke="currentColor" stroke-width="13"/>
                        <path d="M8707 1277 L10280 1277" stroke="currentColor" stroke-width="13"/>
                        <path d="M8707 1457 L10280 1457" stroke="currentColor" stroke-width="13"/>
                        <path d="M8707 1637 L10280 1637" stroke="currentColor" stroke-width="13"/>
                        <g id="l1ijb6wl" class="layer">
                            <g id="note11" class="note">
                                <g class="notehead" id="note11.notehead">
                                    <use xlink:href="#E0A4-1lt6hou" x="8887" y="1007" height="720px" width="720px"/>
                                </g>
                                <g id="note11.stem" class="stem">
                                    <path d="M8896 1035 L8896 1637" stroke="currentColor" stroke-width="18"/>
                                </g>
                            </g>
                            <g id="rest1" class="rest">
                                <use xlink:href="#E4E5-1lt6hou" x="9577" y="1277" height="720px" width="720px"/>
                            </g>
                        </g>
                    </g>
                    <g id="pP1_m5.right_barline" class="barLine">
                        <path id="pP1_m5.right_barline.barline_tok1" d="M10267 917 L10267 1637" stroke="currentColor" stroke-width="27" class="barline_tok"/>
                    </g>
                </g>
                <g id="pP1_m6" class="measure">
                    <g id="sjmexpw" class="staff">
                        <path d="M10280 917 L11657 917" stroke="currentColor" stroke-width="13"/>
                        <path d="M10280 1097 L11657 1097" stroke="currentColor" stroke-width="13"/>
                        <path d="M10280 1277 L11657 1277" stroke="currentColor" stroke-width="13"/>
                        <path d="M10280 1457 L11657 1457" stroke="currentColor" stroke-width="13"/>
                        <path d="M10280 1637 L11657 1637" stroke="currentColor" stroke-width="13"/>
                        <g id="l14lpcdo" class="layer">
                            <g id="pP1_m6.multi-rest.7" class="multiRest">
                                <rect x="10460" y="1187" height="180" width="990"/>
                                <rect x="10460" y="1097" height="360" width="36"/>
                                <rect x="11414" y="1097" height="360" width="36"/>
                                <use xlink:href="#E087-1lt6hou" x="10795" y="647" height="720px" width="720px"/>
                            </g>
                        </g>
                    </g>
                    <g id="pP1_m6.right_barline" class="barLine">
                        <path id="pP1_m6.right_barline.barline_tok1" d="M11644 917 L11644 1637" stroke="currentColor" stroke-width="27" class="barline_tok"/>
                    </g>
                </g>
                <g id="pP1_m13" class="measure">
                    <g id="sekaj0g" class="staff">
                        <path d="M11657 917 L13034 917" stroke="currentColor" stroke-width="13"/>
                        <path d="M11657 1097 L13034 1097" stroke="currentColor" stroke-width="13"/>
                        <path d="M11657 1277 L13034 1277" stroke="currentColor" stroke-width="13"/>
                        <path d="M11657 1457 L13034 1457" stroke="currentColor" stroke-width="13"/>
                        <path d="M11657 1637 L13034 1637" stroke="currentColor" stroke-width="13"/>
                        <g id="l1vd7992" class="layer">
                            <g id="pP1_m13.multi-rest.4" class="multiRest">
                                <use xlink:href="#E4E1-1lt6hou" x="12287" y="1277" height="720px" width="720px"/>
                                <use xlink:href="#E084-1lt6hou" x="12178" y="647" height="720px" width="720px"/>
                            </g>
                        </g>
                    </g>
                    <g id="pP1_m13.right_barline" class="barLine">
                        <path id="pP1_m13.right_barline.barline_tok1" d="M13021 917 L13021 1637" stroke="currentColor" stroke-width="27" class="barline_tok"/>
                    </g>
                </g>
                <g id="pP1_m17" class="measure">
                    <g id="sqp5h08" class="staff">
                        <path d="M13034 917 L15037 917" stroke="currentColor" stroke-width="13"/>
                        <path d="M13034 1097 L15037 1097" stroke="currentColor" stroke-width="13"/>
                        <path d="M13034 1277 L15037 1277" stroke="currentColor" stroke-width="13"/>
                        <path d="M13034 1457 L15037 1457" stroke="currentColor" stroke-width="13"/>
                        <path d="M13034 1637 L15037 1637" stroke="currentColor" stroke-width="13"/>
                        <g id="lf4zicf" class="layer">
                            <g id="rest13" class="rest">
                                <use xlink:href="#E4E5-1lt6hou" x="13214" y="1277" height="720px" width="720px"/>
                            </g>
                            <g id="rest14" class="rest">
                                <use xlink:href="#E4E6-1lt6hou" x="13904" y="1277" height="720px" width="720px"/>
                            </g>
                            <g id="beam3_parent" class="beam_parent">
                                <polygon points="14378,2132 14712,2087 14712,1997 14378,2042" id="beam3" class="beam"/>
                                <polygon points="14378,1997 14712,1952 14712,1862 14378,1907" id="beam4" class="beam"/>
                                <g id="note12" class="note">
                                    <g class="notehead" id="note12.notehead">
                                        <use xlink:href="#E0A4-1lt6hou" x="14378" y="1457" height="720px" width="720px"/>
                                    </g>
                                    <g id="note12.stem" class="stem">
                                        <path d="M14387 1485 L14387 2114" stroke="currentColor" stroke-width="18"/>
                                    </g>
                                    <g id="note12.accidental" class="accid">
                                        <use xlink:href="#E262-1lt6hou" x="14192" y="1457" height="720px" width="720px"/>
                                    </g>
                                </g>
                                <g id="note13" class="note">
                                    <g class="notehead" id="note13.notehead">
                                        <use xlink:href="#E0A4-1lt6hou" x="14694" y="1367" height="720px" width="720px"/>
                                    </g>
                                    <g id="note13.stem" class="stem">
                                        <path d="M14703 1395 L14703 2069" stroke="currentColor" stroke-width="18"/>
                                    </g>
                                </g>
                            </g>
                        </g>
                    </g>
                    <g id="pP1_m17.right_barline" class="barLine">
                        <path id="pP1_m17.right_barline.barline_tok1" d="M15024 917 L15024 1637" stroke="currentColor" stroke-width="27" class="barline_tok"/>
                    </g>
                </g>
                <g id="pP1_m18" class="measure">
                    <g id="s1e16cxo" class="staff">
                        <path d="M15037 917 L17394 917" stroke="currentColor" stroke-width="13"/>
                        <path d="M15037 1097 L17394 1097" stroke="currentColor" stroke-width="13"/>
                        <path d="M15037 1277 L17394 1277" stroke="currentColor" stroke-width="13"/>
                        <path d="M15037 1457 L17394 1457" stroke="currentColor" stroke-width="13"/>
                        <path d="M15037 1637 L17394 1637" stroke="currentColor" stroke-width="13"/>
                        <g id="lcgv5nq" class="layer">
                            <g id="beam5_parent" class="beam_parent">
                                <polygon points="15217,1907 16183,2087 16183,1997 15217,1817" id="beam5" class="beam"/>
                                <polygon points="15217,1772 16183,1952 16183,1862 15217,1682" id="beam6" class="beam"/>
                                <g id="note14" class="note">
                                    <g class="notehead" id="note14.notehead">
                                        <use xlink:href="#E0A4-1lt6hou" x="15217" y="1187" height="720px" width="720px"/>
                                    </g>
                                    <g id="note14.stem" class="stem">
                                        <path d="M15226 1215 L15226 1889" stroke="currentColor" stroke-width="18"/>
                                    </g>
                                </g>
                                <g id="note15" class="note">
                                    <g class="notehead" id="note15.notehead">
                                        <use xlink:href="#E0A4-1lt6hou" x="15533" y="1277" height="720px" width="720px"/>
                                    </g>
                                    <g id="note15.stem" class="stem">
                                        <path d="M15542 1305 L15542 1949" stroke="currentColor" stroke-width="18"/>
                                    </g>
                                    <g id="note15.accidental" class="accid"/>
                                </g>
                                <g id="note16" class="note">
                                    <g class="notehead" id="note16.notehead">
                                        <use xlink:href="#E0A4-1lt6hou" x="15849" y="1367" height="720px" width="720px"/>
                                    </g>
                                    <g id="note16.stem" class="stem">
                                        <path d="M15858 1395 L15858 2009" stroke="currentColor" stroke-width="18"/>
                                    </g>
                                </g>
                                <g id="note17" class="note">
                                    <g class="notehead" id="note17.notehead">
                                        <use xlink:href="#E0A4-1lt6hou" x="16165" y="1457" height="720px" width="720px"/>
                                    </g>
                                    <g id="note17.stem" class="stem">
                                        <path d="M16174 1485 L16174 2069" stroke="currentColor" stroke-width="18"/>
                                    </g>
                                </g>
                            </g>
                            <g id="note18" class="note">
                                <g class="notehead" id="note18.notehead">
                                    <use xlink:href="#E0A4-1lt6hou" x="16481" y="1547" height="720px" width="720px"/>
                                </g>
                                <g id="note18.stem" class="stem">
                                    <path d="M16490 1575 L16490 2087" stroke="currentColor" stroke-width="18"/>
                                    <g id="note18.stem.flag" class="flag">
                                        <use xlink:href="#E241-1lt6hou" x="16481" y="2087" height="720px" width="720px"/>
                                    </g>
                                </g>
                            </g>
                            <g id="rest15" class="rest">
                                <use xlink:href="#E4E6-1lt6hou" x="16931" y="1277" height="720px" width="720px"/>
                            </g>
                        </g>
                    </g>
                    <g id="pP1_m18.right_barline" class="barLine">
                        <path id="pP1_m18.right_barline.barline_tok1" d="M17381 917 L17381 1637" stroke="currentColor" stroke-width="27" class="barline_tok"/>
                    </g>
                </g>
                <g id="pP1_m19" class="measure">
                    <g id="sqvdg1w" class="staff">
                        <path d="M17394 917 L18771 917" stroke="currentColor" stroke-width="13"/>
                        <path d="M17394 1097 L18771 1097" stroke="currentColor" stroke-width="13"/>
                        <path d="M17394 1277 L18771 1277" stroke="currentColor" stroke-width="13"/>
                        <path d="M17394 1457 L18771 1457" stroke="currentColor" stroke-width="13"/>
                        <path d="M17394 1637 L18771 1637" stroke="currentColor" stroke-width="13"/>
                        <g id="l1lpev2y" class="layer">
                            <g id="pP1_m19.multi-rest.1" class="multiRest">
                                <use xlink:href="#E4E3-1lt6hou" x="17961" y="1097" height="720px" width="720px"/>
                                <use xlink:href="#E081-1lt6hou" x="17948" y="647" height="720px" width="720px"/>
                            </g>
                        </g>
                    </g>
                    <g id="pP1_m19.right_barline" class="barLine">
                        <path id="pP1_m19.right_barline.barline_tok1" d="M18758 917 L18758 1637" stroke="currentColor" stroke-width="27" class="barline_tok"/>
                    </g>
                </g>
                <g id="pP1_m20" class="measure">
                    <g id="s31dym8" class="staff">
                        <path d="M18771 917 L20750 917" stroke="currentColor" stroke-width="13"/>
                        <path d="M18771 1097 L20750 1097" stroke="currentColor" stroke-width="13"/>
                        <path d="M18771 1277 L20750 1277" stroke="currentColor" stroke-width="13"/>
                        <path d="M18771 1457 L20750 1457" stroke="currentColor" stroke-width="13"/>
                        <path d="M18771 1637 L20750 1637" stroke="currentColor" stroke-width="13"/>
                        <g id="ludouvw" class="layer">
                            <g id="rest17" class="rest">
                                <use xlink:href="#E4E5-1lt6hou" x="18951" y="1277" height="720px" width="720px"/>
                            </g>
                            <g id="rest18" class="rest">
                                <use xlink:href="#E4E6-1lt6hou" x="19641" y="1277" height="720px" width="720px"/>
                            </g>
                            <g id="beam7_parent" class="beam_parent">
                                <polygon points="20091,1862 20425,1817 20425,1727 20091,1772" id="beam7" class="beam"/>
                                <polygon points="20091,1727 20425,1682 20425,1592 20091,1637" id="beam8" class="beam"/>
                                <g id="note19" class="note">
                                    <g class="notehead" id="note19.notehead">
                                        <use xlink:href="#E0A4-1lt6hou" x="20091" y="1187" height="720px" width="720px"/>
                                    </g>
                                    <g id="note19.stem" class="stem">
                                        <path d="M20100 1215 L20100 1844" stroke="currentColor" stroke-width="18"/>
                                    </g>
                                </g>
                                <g id="note20" class="note">
                                    <g class="notehead" id="note20.notehead">
                                        <use xlink:href="#E0A4-1lt6hou" x="20407" y="1097" height="720px" width="720px"/>
                                    </g>
                                    <g id="note20.stem" class="stem">
                                        <path d="M20416 1125 L20416 1799" stroke="currentColor" stroke-width="18"/>
                                    </g>
                                </g>
                            </g>
                        </g>
                    </g>
                    <g id="pP1_m20.right_barline" class="barLine">
                        <path id="pP1_m20.right_barline.barline_tok1" d="M20737 917 L20737 1637" stroke="currentColor" stroke-width="27" class="barline_tok"/>
                    </g>
                </g>
                <g id="s5y2rsf" class="systemMilestoneEnd eip2g21"/>
                <g id="s3h1xbh" class="systemMilestoneEnd sn9l37t"/>
            </g>
            <g id="p1ezjhmy" class="pageMilestoneEnd sr8kss"/>
            <g id="pnw1s04" class="pageMilestoneEnd mpeebe3"/>
        </g>
    </svg>
</svg>