<svg xmlns="http://www.w3.org/2000/svg" xmlns:xlink="http://www.w3.org/1999/xlink" xmlns:mei="http://www.music-encoding.org/ns/mei" width="2301px" height="298px" version="1.1" overflow="visible">
    <desc>Engraved by Verovio 4.3.0-dev-ba68db3-dirty</desc>
    <defs>
        <symbol id="E0A3-12lsa0a" viewBox="0 0 1000 1000" overflow="inherit">
            <path transform="scale(1,-1)" d="M278 64c0 22 -17 39 -43 39c-12 0 -26 -3 -41 -10c-85 -43 -165 -94 -165 -156c5 -25 15 -32 49 -32c67 11 200 95 200 159zM0 -36c0 68 73 174 200 174c66 0 114 -39 114 -97c0 -84 -106 -173 -218 -173c-64 0 -96 32 -96 96z"/>
        </symbol>
        <symbol id="E082-12lsa0a" viewBox="0 0 1000 1000" overflow="inherit">
            <path transform="scale(1,-1)" d="M124 -185c-18 0 -55 -14 -65 -65h-36l-3 30c0 25 6 45 18 63c11 19 22 30 39 43l121 82l37 29c15 11 27 29 38 54c12 24 18 47 18 70c0 40 -19 88 -94 88c-25 0 -32 0 -50 -8c-14 -5 -23 -12 -26 -22c3 -9 7 -15 10 -18l24 -17c12 -7 17 -11 27 -21c5 -7 7 -16 7 -27 c0 -12 0 -57 -79 -74c-30 0 -76 26 -76 94c0 66 81 135 197 135c72 0 181 -32 181 -150c0 -53 -32 -95 -113 -133l-91 -41c-26 -11 -45 -23 -57 -37l49 7c84 0 115 -41 148 -41c20 0 33 20 39 61h35c0 -152 -68 -168 -114 -168c-17 0 -65 0 -79 7h10l-28 17 c-49 37 -69 40 -87 42z"/>
        </symbol>
        <symbol id="E083-12lsa0a" viewBox="0 0 1000 1000" overflow="inherit">
            <path transform="scale(1,-1)" d="M208 250c97 0 177 -52 177 -116c0 -69 -40 -111 -118 -125c56 -5 125 -44 125 -116c0 -31 -10 -57 -31 -78c-19 -21 -45 -38 -78 -49l-50 -11c-15 -3 -36 -7 -55 -7c-50 0 -86 16 -113 38c-16 10 -23 18 -34 34c-7 13 -11 25 -11 38c0 43 27 83 68 83l3 -2 c61 0 75 -42 75 -70c0 -19 -24 -42 -26 -57c7 -17 20 -25 37 -25c44 0 94 29 94 78c0 75 -34 125 -138 125v36c84 0 131 22 131 98c0 54 -37 88 -87 88c-26 0 -43 -7 -51 -22c15 -22 44 -16 44 -70c0 -37 -37 -62 -71 -62c-22 0 -69 15 -69 76c0 79 101 116 178 116z"/>
        </symbol>
        <symbol id="E084-12lsa0a" viewBox="0 0 1000 1000" overflow="inherit">
            <path transform="scale(1,-1)" d="M20 -78c84 97 114 180 134 329h170c-13 -32 -82 -132 -99 -151l-84 -97c-33 -36 -59 -63 -80 -81h162v102l127 123v-225h57v-39h-57v-34c0 -43 19 -65 57 -65v-34h-244v36c48 0 60 26 60 70v27h-203v39z"/>
        </symbol>
        <symbol id="E0A4-12lsa0a" viewBox="0 0 1000 1000" overflow="inherit">
            <path transform="scale(1,-1)" d="M0 -39c0 68 73 172 200 172c66 0 114 -37 114 -95c0 -84 -106 -171 -218 -171c-64 0 -96 30 -96 94z"/>
        </symbol>
        <symbol id="E261-12lsa0a" viewBox="0 0 1000 1000" overflow="inherit">
            <path transform="scale(1,-1)" d="M0 -188v539h18v-191l139 22v-533h-17v186zM18 -100l122 17v176l-122 -19v-174z"/>
        </symbol>
        <symbol id="E240-12lsa0a" viewBox="0 0 1000 1000" overflow="inherit">
            <path transform="scale(1,-1)" d="M179 -646c15 29 29 55 46 102c18 49 30 108 30 138c0 105 -80 173 -168 200c-18 5 -47 9 -87 16v190h22c8 0 33 -61 71 -95c4 -3 -2 3 61 -56c62 -58 122 -137 122 -241c0 -38 -13 -106 -35 -163c-20 -51 -43 -99 -66 -132c-6 -5 -10 -7 -13 -7s-5 2 -5 5l4 10 c1 3 14 25 18 33z"/>
        </symbol>
        <symbol id="E241-12lsa0a" viewBox="0 0 1000 1000" overflow="inherit">
            <path transform="scale(1,-1)" d="M179 646c-4 8 -17 30 -18 33l-4 10c0 3 2 5 5 5s7 -2 13 -7c23 -33 46 -81 66 -132c22 -57 35 -125 35 -163c0 -104 -60 -183 -122 -241c-63 -59 -57 -53 -61 -56c-38 -34 -63 -95 -71 -95h-22v190c40 7 69 11 87 16c88 27 168 95 168 200c0 30 -12 89 -30 138 c-17 47 -31 73 -46 102z"/>
        </symbol>
        <symbol id="E4E5-12lsa0a" viewBox="0 0 1000 1000" overflow="inherit">
            <path transform="scale(1,-1)" d="M107 292c-13 24 -30 49 -52 71c-1 1 0 2 0 3l-2 2c3 3 4 4 6 4c12 0 26 -7 40 -20s44 -40 89 -81c26 -24 28 -29 46 -47c4 -4 8 -9 10 -14c6 -8 8 -16 8 -27c0 -19 -12 -40 -36 -61c-28 -23 -49 -38 -61 -73c-4 -11 -7 -27 -10 -50c13 -43 34 -83 59 -121 c31 -47 59 -79 101 -129c-8 0 -26 7 -54 20l-62 29l-21 6l-23 1c-25 0 -45 -10 -60 -30l-4 -14l-1 -12c0 -33 20 -56 39 -78c8 -9 17 -18 26 -26c17 -15 27 -24 28 -30l-3 -3c-11 5 -19 10 -25 15c-9 3 -37 21 -45 26c-24 14 -45 32 -63 51c-19 21 -37 44 -37 71 c0 63 27 95 80 95c41 0 86 -18 136 -52c-19 26 -37 48 -55 66c-23 23 -48 44 -73 65c-28 23 -47 40 -58 53s-17 26 -18 39c75 64 113 125 113 183c0 27 -7 48 -18 68z"/>
        </symbol>
        <symbol id="E4E6-12lsa0a" viewBox="0 0 1000 1000" overflow="inherit">
            <path transform="scale(1,-1)" d="M0 123c7 34 33 56 69 60c29 -3 43 -9 53 -29c4 -8 7 -15 10 -22c0 -21 -1 -25 -11 -35c-5 -8 -18 -14 -40 -20l12 -3l15 -1c44 0 97 26 122 56c10 11 18 26 24 42c7 1 15 2 22 3l-140 -424h-36l111 330c-10 -6 -27 -12 -53 -16l-52 -8h-10l-20 1c-1 0 -8 3 -21 6 c-37 9 -55 28 -55 60z"/>
        </symbol>
        <symbol id="E4E3-12lsa0a" viewBox="0 0 1000 1000" overflow="inherit">
            <path transform="scale(1,-1)" d="M0 -115v105c0 9 1 10 10 10h280c9 0 10 -1 10 -10v-105c0 -9 -1 -10 -10 -10h-280c-9 0 -10 1 -10 10z"/>
        </symbol>
        <symbol id="E4E2-12lsa0a" viewBox="0 0 1000 1000" overflow="inherit">
            <path transform="scale(1,-1)" d="M0 10v230c0 8 2 10 10 10h105c8 0 10 -2 10 -10v-230c0 -8 -2 -10 -10 -10h-105c-8 0 -10 2 -10 10z"/>
        </symbol>
        <symbol id="E4E1-12lsa0a" viewBox="0 0 1000 1000" overflow="inherit">
            <path transform="scale(1,-1)" d="M0 -240v480c0 8 2 10 10 10h105c8 0 10 -2 10 -10v-480c0 -8 -2 -10 -10 -10h-105c-8 0 -10 2 -10 10z"/>
        </symbol>
    </defs>
    <style type="text/css">g.page-margin{font-family:Times,serif;} g.ending, g.fing, g.reh, g.tempo{font-weight:bold;} g.dir, g.dynam, g.mNum{font-style:italic;} g.label{font-weight:normal;}</style>
    <svg class="definition-scale" color="black" viewBox="0 0 23010 2980">
        <g class="page-margin" transform="translate(500, 500)">
            <g id="m1efxrya" class="mdiv pageMilestone"/>
            <g id="s1s3ggtl" class="score pageMilestone"/>
            <g id="s121f9ni" class="system">
                <g id="lnu5dtd" class="label">
                    <text x="1105" y="990" text-anchor="end" font-size="0px">
                        <tspan id="tj7fv52" class="text">
                            <tspan font-size="405px">Piano</tspan>
                        </tspan>
                    </text>
                </g>
                <g id="s14fjni1" class="section systemMilestone"/>
                <g id="pP1_m1" class="measure">
                    <g id="s14dcv8m" class="staff">
                        <path d="M1285 540 L4283 540" stroke="currentColor" stroke-width="13"/>
                        <path d="M1285 720 L4283 720" stroke="currentColor" stroke-width="13"/>
                        <path d="M1285 900 L4283 900" stroke="currentColor" stroke-width="13"/>
                        <path d="M1285 1080 L4283 1080" stroke="currentColor" stroke-width="13"/>
                        <path d="M1285 1260 L4283 1260" stroke="currentColor" stroke-width="13"/>
                        <g id="clef1_1" class="clef" visibility="hidden"/>
                        <g id="key1_1" class="keySig" visibility="hidden"/>
                        <g id="time1_1" class="meterSig">
                            <use xlink:href="#E082-12lsa0a" x="1361" y="720" height="720px" width="720px"/>
                            <use xlink:href="#E084-12lsa0a" x="1366" y="1080" height="720px" width="720px"/>
                        </g>
                        <g id="lw1d9b2" class="layer">
                            <g id="beam1_parent" class="beam_parent">
                                <polygon points="1934,1260 2402,1260 2402,1170 1934,1170" id="beam1" class="beam"/>
                                <g id="note1" class="note">
                                    <g class="notehead" id="note1.notehead">
                                        <use xlink:href="#E0A4-12lsa0a" x="1934" y="630" height="720px" width="720px"/>
                                    </g>
                                    <g id="note1.stem" class="stem">
                                        <path d="M1943 658 L1943 1242" stroke="currentColor" stroke-width="18"/>
                                    </g>
                                </g>
                                <g id="note2" class="note">
                                    <g class="notehead" id="note2.notehead">
                                        <use xlink:href="#E0A4-12lsa0a" x="2384" y="630" height="720px" width="720px"/>
                                    </g>
                                    <g id="note2.stem" class="stem">
                                        <path d="M2393 658 L2393 1242" stroke="currentColor" stroke-width="18"/>
                                    </g>
                                </g>
                            </g>
                            <g id="beam2_parent" class="beam_parent">
                                <polygon points="2834,1350 3958,1530 3958,1440 2834,1260" id="beam2" class="beam"/>
                                <polygon points="2834,1215 3958,1395 3958,1305 2834,1125" id="beam3" class="beam"/>
                                <g id="note3" class="note">
                                    <g class="notehead" id="note3.notehead">
                                        <use xlink:href="#E0A4-12lsa0a" x="2834" y="630" height="720px" width="720px"/>
                                    </g>
                                    <g id="note3.stem" class="stem">
                                        <path d="M2843 658 L2843 1332" stroke="currentColor" stroke-width="18"/>
                                    </g>
                                </g>
                                <g id="note4" class="note">
                                    <g class="notehead" id="note4.notehead">
                                        <use xlink:href="#E0A4-12lsa0a" x="3150" y="720" height="720px" width="720px"/>
                                    </g>
                                    <g id="note4.stem" class="stem">
                                        <path d="M3159 748 L3159 1384" stroke="currentColor" stroke-width="18"/>
                                    </g>
                                </g>
                                <g id="note5" class="note">
                                    <g class="notehead" id="note5.notehead">
                                        <use xlink:href="#E0A4-12lsa0a" x="3466" y="810" height="720px" width="720px"/>
                                    </g>
                                    <g id="note5.stem" class="stem">
                                        <path d="M3475 838 L3475 1435" stroke="currentColor" stroke-width="18"/>
                                    </g>
                                </g>
                                <g id="note6" class="note">
                                    <g class="notehead" id="note6.notehead">
                                        <use xlink:href="#E0A4-12lsa0a" x="3940" y="900" height="720px" width="720px"/>
                                    </g>
                                    <g id="note6.stem" class="stem">
                                        <path d="M3949 928 L3949 1512" stroke="currentColor" stroke-width="18"/>
                                    </g>
                                    <g id="note6.accidental" class="accid">
                                        <use xlink:href="#E261-12lsa0a" x="3782" y="900" height="720px" width="720px"/>
                                    </g>
                                </g>
                            </g>
                        </g>
                    </g>
                    <g id="pP1_m1.right_barline" class="barLine">
                        <path id="pP1_m1.right_barline.barline_tok1" d="M4270 540 L4270 1260" stroke="currentColor" stroke-width="27" class="barline_tok"/>
                    </g>
                </g>
                <g id="pP1_m2" class="measure">
                    <g id="sn1e6ii" class="staff">
                        <path d="M4283 540 L6262 540" stroke="currentColor" stroke-width="13"/>
                        <path d="M4283 720 L6262 720" stroke="currentColor" stroke-width="13"/>
                        <path d="M4283 900 L6262 900" stroke="currentColor" stroke-width="13"/>
                        <path d="M4283 1080 L6262 1080" stroke="currentColor" stroke-width="13"/>
                        <path d="M4283 1260 L6262 1260" stroke="currentColor" stroke-width="13"/>
                        <g id="l1kns54w" class="layer">
                            <g id="note7" class="note">
                                <g class="notehead" id="note7.notehead">
                                    <use xlink:href="#E0A4-12lsa0a" x="4463" y="990" height="720px" width="720px"/>
                                </g>
                                <g id="note7.stem" class="stem">
                                    <path d="M4472 1018 L4472 1560" stroke="currentColor" stroke-width="18"/>
                                </g>
                            </g>
                            <g id="rest1" class="rest">
                                <use xlink:href="#E4E6-12lsa0a" x="5153" y="900" height="720px" width="720px"/>
                            </g>
                            <g id="beam4_parent" class="beam_parent">
                                <polygon points="5603,1665 5937,1620 5937,1530 5603,1575" id="beam4" class="beam"/>
                                <polygon points="5603,1530 5937,1485 5937,1395 5603,1440" id="beam5" class="beam"/>
                                <g id="note8" class="note">
                                    <g class="notehead" id="note8.notehead">
                                        <use xlink:href="#E0A4-12lsa0a" x="5603" y="990" height="720px" width="720px"/>
                                    </g>
                                    <g id="note8.stem" class="stem">
                                        <path d="M5612 1018 L5612 1647" stroke="currentColor" stroke-width="18"/>
                                    </g>
                                </g>
                                <g id="note9" class="note">
                                    <g class="notehead" id="note9.notehead">
                                        <use xlink:href="#E0A4-12lsa0a" x="5919" y="900" height="720px" width="720px"/>
                                    </g>
                                    <g id="note9.stem" class="stem">
                                        <path d="M5928 928 L5928 1602" stroke="currentColor" stroke-width="18"/>
                                    </g>
                                    <g id="note9.accidental" class="accid"/>
                                </g>
                            </g>
                        </g>
                    </g>
                    <g id="pP1_m2.right_barline" class="barLine">
                        <path id="pP1_m2.right_barline.barline_tok1" d="M6249 540 L6249 1260" stroke="currentColor" stroke-width="27" class="barline_tok"/>
                    </g>
                </g>
                <g id="pP1_m3" class="measure">
                    <g id="slz4alw" class="staff">
                        <path d="M6262 540 L8371 540" stroke="currentColor" stroke-width="13"/>
                        <path d="M6262 720 L8371 720" stroke="currentColor" stroke-width="13"/>
                        <path d="M6262 900 L8371 900" stroke="currentColor" stroke-width="13"/>
                        <path d="M6262 1080 L8371 1080" stroke="currentColor" stroke-width="13"/>
                        <path d="M6262 1260 L8371 1260" stroke="currentColor" stroke-width="13"/>
                        <g id="lwwyzkv" class="layer">
                            <g id="note10" class="note">
                                <g class="notehead" id="note10.notehead">
                                    <use xlink:href="#E0A4-12lsa0a" x="6442" y="810" height="720px" width="720px"/>
                                </g>
                                <g id="note10.stem" class="stem">
                                    <path d="M6451 838 L6451 1440" stroke="currentColor" stroke-width="18"/>
                                </g>
                            </g>
                            <g id="beam6_parent" class="beam_parent">
                                <polygon points="7132,1800 8046,1800 8046,1710 7132,1710" id="beam6" class="beam"/>
                                <polygon points="7721,1665 8046,1665 8046,1575 7721,1575" id="beam7" class="beam"/>
                                <polygon points="7721,1530 8046,1530 8046,1440 7721,1440" id="beam8" class="beam"/>
                                <g id="note11" class="note">
                                    <g class="notehead" id="note11.notehead">
                                        <use xlink:href="#E0A4-12lsa0a" x="7132" y="810" height="720px" width="720px"/>
                                    </g>
                                    <g id="note11.dots_parent" class="dots">
                                        <ellipse cx="7448" cy="810" rx="36" ry="36" id="note11.dot1" class="single_dot"/>
                                    </g>
                                    <g id="note11.stem" class="stem">
                                        <path d="M7141 838 L7141 1782" stroke="currentColor" stroke-width="18"/>
                                    </g>
                                </g>
                                <g id="note12" class="note">
                                    <g class="notehead" id="note12.notehead">
                                        <use xlink:href="#E0A4-12lsa0a" x="7712" y="1080" height="720px" width="720px"/>
                                    </g>
                                    <g id="note12.stem" class="stem">
                                        <path d="M7721 1108 L7721 1782" stroke="currentColor" stroke-width="18"/>
                                    </g>
                                </g>
                                <g id="note13" class="note">
                                    <g class="notehead" id="note13.notehead">
                                        <use xlink:href="#E0A4-12lsa0a" x="8028" y="990" height="720px" width="720px"/>
                                    </g>
                                    <g id="note13.stem" class="stem">
                                        <path d="M8037 1018 L8037 1782" stroke="currentColor" stroke-width="18"/>
                                    </g>
                                </g>
                            </g>
                        </g>
                    </g>
                    <g id="tied1" class="tie">
                        <path d="M6713,765 C6793,611 7004,611 7087,765 C6979,660 6818,660 6713,765" stroke="currentColor" stroke-linecap="round" stroke-linejoin="round" stroke-width="9"/>
                    </g>
                    <g id="pP1_m3.right_barline" class="barLine">
                        <path id="pP1_m3.right_barline.barline_tok1" d="M8358 540 L8358 1260" stroke="currentColor" stroke-width="27" class="barline_tok"/>
                    </g>
                </g>
                <g id="pP1_m4" class="measure">
                    <g id="s2d14iu" class="staff">
                        <path d="M8371 540 L11002 540" stroke="currentColor" stroke-width="13"/>
                        <path d="M8371 720 L11002 720" stroke="currentColor" stroke-width="13"/>
                        <path d="M8371 900 L11002 900" stroke="currentColor" stroke-width="13"/>
                        <path d="M8371 1080 L11002 1080" stroke="currentColor" stroke-width="13"/>
                        <path d="M8371 1260 L11002 1260" stroke="currentColor" stroke-width="13"/>
                        <g id="l12i7ah0" class="layer">
                            <g id="beam9_parent" class="beam_parent">
                                <polygon points="8551,1980 9465,1980 9465,1890 8551,1890" id="beam9" class="beam"/>
                                <polygon points="9140,1845 9465,1845 9465,1755 9140,1755" id="beam10" class="beam"/>
                                <polygon points="9140,1710 9465,1710 9465,1620 9140,1620" id="beam11" class="beam"/>
                                <g id="note14" class="note">
                                    <g class="notehead" id="note14.notehead">
                                        <use xlink:href="#E0A4-12lsa0a" x="8551" y="900" height="720px" width="720px"/>
                                    </g>
                                    <g id="note14.dots_parent" class="dots">
                                        <ellipse cx="8867" cy="810" rx="36" ry="36" id="note14.dot1" class="single_dot"/>
                                    </g>
                                    <g id="note14.stem" class="stem">
                                        <path d="M8560 928 L8560 1962" stroke="currentColor" stroke-width="18"/>
                                    </g>
                                    <g id="note14.accidental" class="accid"/>
                                </g>
                                <g id="note15" class="note">
                                    <g class="notehead" id="note15.notehead">
                                        <use xlink:href="#E0A4-12lsa0a" x="9131" y="1260" height="720px" width="720px"/>
                                    </g>
                                    <g id="note15.stem" class="stem">
                                        <path d="M9140 1288 L9140 1962" stroke="currentColor" stroke-width="18"/>
                                    </g>
                                </g>
                                <g id="note16" class="note">
                                    <g class="notehead" id="note16.notehead">
                                        <use xlink:href="#E0A4-12lsa0a" x="9447" y="1170" height="720px" width="720px"/>
                                    </g>
                                    <g id="note16.stem" class="stem">
                                        <path d="M9456 1198 L9456 1962" stroke="currentColor" stroke-width="18"/>
                                    </g>
                                </g>
                            </g>
                            <g id="beam12_parent" class="beam_parent">
                                <polygon points="9971,450 10885,630 10885,720 9971,540" id="beam12" class="beam"/>
                                <polygon points="10560,702 10885,765 10885,855 10560,792" id="beam13" class="beam"/>
                                <polygon points="10560,837 10885,900 10885,990 10560,927" id="beam14" class="beam"/>
                                <g id="note17" class="note">
                                    <g class="notehead" id="note17.notehead">
                                        <use xlink:href="#E0A4-12lsa0a" x="9763" y="1080" height="720px" width="720px"/>
                                    </g>
                                    <g id="note17.dots_parent" class="dots">
                                        <ellipse cx="10079" cy="990" rx="36" ry="36" id="note17.dot1" class="single_dot"/>
                                    </g>
                                    <g id="note17.stem" class="stem">
                                        <path d="M9980 1052 L9980 468" stroke="currentColor" stroke-width="18"/>
                                    </g>
                                </g>
                                <g id="note18" class="note">
                                    <g class="notehead" id="note18.notehead">
                                        <use xlink:href="#E0A4-12lsa0a" x="10343" y="1350" height="720px" width="720px"/>
                                    </g>
                                    <g id="note18.stem" class="stem">
                                        <path d="M10560 1322 L10560 585" stroke="currentColor" stroke-width="18"/>
                                    </g>
                                </g>
                                <g id="note19" class="note">
                                    <g class="notehead" id="note19.notehead">
                                        <use xlink:href="#E0A4-12lsa0a" x="10659" y="1260" height="720px" width="720px"/>
                                    </g>
                                    <g id="note19.stem" class="stem">
                                        <path d="M10876 1232 L10876 648" stroke="currentColor" stroke-width="18"/>
                                    </g>
                                </g>
                            </g>
                        </g>
                    </g>
                    <g id="pP1_m4.right_barline" class="barLine">
                        <path id="pP1_m4.right_barline.barline_tok1" d="M10989 540 L10989 1260" stroke="currentColor" stroke-width="27" class="barline_tok"/>
                    </g>
                </g>
                <g id="pP1_m5" class="measure">
                    <g id="s5h3jre" class="staff">
                        <path d="M11002 540 L13419 540" stroke="currentColor" stroke-width="13"/>
                        <path d="M11002 720 L13419 720" stroke="currentColor" stroke-width="13"/>
                        <path d="M11002 900 L13419 900" stroke="currentColor" stroke-width="13"/>
                        <path d="M11002 1080 L13419 1080" stroke="currentColor" stroke-width="13"/>
                        <path d="M11002 1260 L13419 1260" stroke="currentColor" stroke-width="13"/>
                        <g id="l9bg9yz" class="layer">
                            <g id="note20" class="note">
                                <g class="notehead" id="note20.notehead">
                                    <use xlink:href="#E0A4-12lsa0a" x="11182" y="1170" height="720px" width="720px"/>
                                </g>
                                <g id="note20.stem" class="stem">
                                    <path d="M11399 1142 L11399 540" stroke="currentColor" stroke-width="18"/>
                                    <g id="note20.stem.flag" class="flag">
                                        <use xlink:href="#E240-12lsa0a" x="11390" y="540" height="720px" width="720px"/>
                                    </g>
                                </g>
                            </g>
                            <g id="rest2" class="rest">
                                <use xlink:href="#E4E6-12lsa0a" x="11678" y="900" height="720px" width="720px"/>
                            </g>
                            <g id="beam15_parent" class="beam_parent">
                                <polygon points="12128,1530 13094,1710 13094,1620 12128,1440" id="beam15" class="beam"/>
                                <polygon points="12128,1395 13094,1575 13094,1485 12128,1305" id="beam16" class="beam"/>
                                <g id="note21" class="note">
                                    <g class="notehead" id="note21.notehead">
                                        <use xlink:href="#E0A4-12lsa0a" x="12128" y="810" height="720px" width="720px"/>
                                    </g>
                                    <g id="note21.stem" class="stem">
                                        <path d="M12137 838 L12137 1512" stroke="currentColor" stroke-width="18"/>
                                    </g>
                                </g>
                                <g id="note22" class="note">
                                    <g class="notehead" id="note22.notehead">
                                        <use xlink:href="#E0A4-12lsa0a" x="12444" y="900" height="720px" width="720px"/>
                                    </g>
                                    <g id="note22.stem" class="stem">
                                        <path d="M12453 928 L12453 1572" stroke="currentColor" stroke-width="18"/>
                                    </g>
                                    <g id="note22.accidental" class="accid"/>
                                </g>
                                <g id="note23" class="note">
                                    <g class="notehead" id="note23.notehead">
                                        <use xlink:href="#E0A4-12lsa0a" x="12760" y="990" height="720px" width="720px"/>
                                    </g>
                                    <g id="note23.stem" class="stem">
                                        <path d="M12769 1018 L12769 1632" stroke="currentColor" stroke-width="18"/>
                                    </g>
                                </g>
                                <g id="note24" class="note">
                                    <g class="notehead" id="note24.notehead">
                                        <use xlink:href="#E0A4-12lsa0a" x="13076" y="1080" height="720px" width="720px"/>
                                    </g>
                                    <g id="note24.stem" class="stem">
                                        <path d="M13085 1108 L13085 1692" stroke="currentColor" stroke-width="18"/>
                                    </g>
                                </g>
                            </g>
                        </g>
                    </g>
                    <g id="pP1_m5.right_barline" class="barLine">
                        <path id="pP1_m5.right_barline.barline_tok1" d="M13406 540 L13406 1260" stroke="currentColor" stroke-width="27" class="barline_tok"/>
                    </g>
                </g>
                <g id="pP1_m6" class="measure">
                    <g id="s1ve37q" class="staff">
                        <path d="M13419 540 L14992 540" stroke="currentColor" stroke-width="13"/>
                        <path d="M13419 720 L14992 720" stroke="currentColor" stroke-width="13"/>
                        <path d="M13419 900 L14992 900" stroke="currentColor" stroke-width="13"/>
                        <path d="M13419 1080 L14992 1080" stroke="currentColor" stroke-width="13"/>
                        <path d="M13419 1260 L14992 1260" stroke="currentColor" stroke-width="13"/>
                        <g id="lkwjz9n" class="layer">
                            <g id="note25" class="note">
                                <g class="notehead" id="note25.notehead">
                                    <use xlink:href="#E0A4-12lsa0a" x="13599" y="1170" height="720px" width="720px"/>
                                </g>
                                <g id="note25.stem" class="stem">
                                    <path d="M13816 1142 L13816 540" stroke="currentColor" stroke-width="18"/>
                                </g>
                            </g>
                            <g id="rest3" class="rest">
                                <use xlink:href="#E4E5-12lsa0a" x="14289" y="900" height="720px" width="720px"/>
                            </g>
                        </g>
                    </g>
                    <g id="pP1_m6.right_barline" class="barLine">
                        <path id="pP1_m6.right_barline.barline_tok1" d="M14979 540 L14979 1260" stroke="currentColor" stroke-width="27" class="barline_tok"/>
                    </g>
                </g>
                <g id="pP1_m7" class="measure">
                    <g id="s1sfdq3i" class="staff">
                        <path d="M14992 540 L16369 540" stroke="currentColor" stroke-width="13"/>
                        <path d="M14992 720 L16369 720" stroke="currentColor" stroke-width="13"/>
                        <path d="M14992 900 L16369 900" stroke="currentColor" stroke-width="13"/>
                        <path d="M14992 1080 L16369 1080" stroke="currentColor" stroke-width="13"/>
                        <path d="M14992 1260 L16369 1260" stroke="currentColor" stroke-width="13"/>
                        <g id="l1e1zcmi" class="layer">
                            <g id="pP1_m7.multi-rest.3" class="multiRest">
                                <use xlink:href="#E4E2-12lsa0a" x="15469" y="900" height="720px" width="720px"/>
                                <use xlink:href="#E4E3-12lsa0a" x="15649" y="720" height="720px" width="720px"/>
                                <use xlink:href="#E083-12lsa0a" x="15519" y="270" height="720px" width="720px"/>
                            </g>
                        </g>
                    </g>
                    <g id="pP1_m7.right_barline" class="barLine">
                        <path id="pP1_m7.right_barline.barline_tok1" d="M16356 540 L16356 1260" stroke="currentColor" stroke-width="27" class="barline_tok"/>
                    </g>
                </g>
                <g id="pP1_m10" class="measure">
                    <g id="s7yjaqa" class="staff">
                        <path d="M16369 540 L18152 540" stroke="currentColor" stroke-width="13"/>
                        <path d="M16369 720 L18152 720" stroke="currentColor" stroke-width="13"/>
                        <path d="M16369 900 L18152 900" stroke="currentColor" stroke-width="13"/>
                        <path d="M16369 1080 L18152 1080" stroke="currentColor" stroke-width="13"/>
                        <path d="M16369 1260 L18152 1260" stroke="currentColor" stroke-width="13"/>
                        <g id="lfu51ku" class="layer">
                            <g id="note26" class="note">
                                <g class="notehead" id="note26.notehead">
                                    <use xlink:href="#E0A4-12lsa0a" x="16549" y="990" height="720px" width="720px"/>
                                </g>
                                <g id="note26.stem" class="stem">
                                    <path d="M16558 1018 L16558 1560" stroke="currentColor" stroke-width="18"/>
                                </g>
                            </g>
                            <g id="note27" class="note">
                                <g class="notehead" id="note27.notehead">
                                    <use xlink:href="#E0A4-12lsa0a" x="17239" y="990" height="720px" width="720px"/>
                                </g>
                                <g id="note27.stem" class="stem">
                                    <path d="M17248 1018 L17248 1560" stroke="currentColor" stroke-width="18"/>
                                    <g id="note27.stem.flag" class="flag">
                                        <use xlink:href="#E241-12lsa0a" x="17239" y="1560" height="720px" width="720px"/>
                                    </g>
                                </g>
                            </g>
                            <g id="rest7" class="rest">
                                <use xlink:href="#E4E6-12lsa0a" x="17689" y="900" height="720px" width="720px"/>
                            </g>
                        </g>
                    </g>
                    <g id="tied2" class="tie">
                        <path d="M16820,945 C16900,791 17111,791 17194,945 C17086,840 16925,840 16820,945" stroke="currentColor" stroke-linecap="round" stroke-linejoin="round" stroke-width="9"/>
                    </g>
                    <g id="pP1_m10.right_barline" class="barLine">
                        <path id="pP1_m10.right_barline.barline_tok1" d="M18139 540 L18139 1260" stroke="currentColor" stroke-width="27" class="barline_tok"/>
                    </g>
                </g>
                <g id="pP1_m11" class="measure">
                    <g id="s1eqhg8g" class="staff">
                        <path d="M18152 540 L19529 540" stroke="currentColor" stroke-width="13"/>
                        <path d="M18152 720 L19529 720" stroke="currentColor" stroke-width="13"/>
                        <path d="M18152 900 L19529 900" stroke="currentColor" stroke-width="13"/>
                        <path d="M18152 1080 L19529 1080" stroke="currentColor" stroke-width="13"/>
                        <path d="M18152 1260 L19529 1260" stroke="currentColor" stroke-width="13"/>
                        <g id="l1a76rg9" class="layer">
                            <g id="pP1_m11.multi-rest.4" class="multiRest">
                                <use xlink:href="#E4E1-12lsa0a" x="18782" y="900" height="720px" width="720px"/>
                                <use xlink:href="#E084-12lsa0a" x="18673" y="270" height="720px" width="720px"/>
                            </g>
                        </g>
                    </g>
                    <g id="pP1_m11.right_barline" class="barLine">
                        <path id="pP1_m11.right_barline.barline_tok1" d="M19516 540 L19516 1260" stroke="currentColor" stroke-width="27" class="barline_tok"/>
                    </g>
                </g>
                <g id="pP1_m15" class="measure">
                    <g id="shszlvl" class="staff">
                        <path d="M19529 540 L20772 540" stroke="currentColor" stroke-width="13"/>
                        <path d="M19529 720 L20772 720" stroke="currentColor" stroke-width="13"/>
                        <path d="M19529 900 L20772 900" stroke="currentColor" stroke-width="13"/>
                        <path d="M19529 1080 L20772 1080" stroke="currentColor" stroke-width="13"/>
                        <path d="M19529 1260 L20772 1260" stroke="currentColor" stroke-width="13"/>
                        <g id="l6y59km" class="layer">
                            <g id="note28" class="note">
                                <g class="notehead" id="note28.notehead">
                                    <use xlink:href="#E0A3-12lsa0a" x="19709" y="900" height="720px" width="720px"/>
                                </g>
                                <g id="note28.stem" class="stem">
                                    <path d="M19718 925 L19718 1500" stroke="currentColor" stroke-width="18"/>
                                </g>
                                <g id="note28.accidental" class="accid"/>
                            </g>
                        </g>
                    </g>
                    <g id="pP1_m15.right_barline" class="barLine">
                        <path id="pP1_m15.right_barline.barline_tok1" d="M20759 540 L20759 1260" stroke="currentColor" stroke-width="27" class="barline_tok"/>
                    </g>
                </g>
                <g id="pP1_m16" class="measure">
                    <g id="s1hslzs5" class="staff">
                        <path d="M20772 540 L22015 540" stroke="currentColor" stroke-width="13"/>
                        <path d="M20772 720 L22015 720" stroke="currentColor" stroke-width="13"/>
                        <path d="M20772 900 L22015 900" stroke="currentColor" stroke-width="13"/>
                        <path d="M20772 1080 L22015 1080" stroke="currentColor" stroke-width="13"/>
                        <path d="M20772 1260 L22015 1260" stroke="currentColor" stroke-width="13"/>
                        <g id="l1yg7jl7" class="layer">
                            <g id="note29" class="note">
                                <g class="notehead" id="note29.notehead">
                                    <use xlink:href="#E0A3-12lsa0a" x="20952" y="990" height="720px" width="720px"/>
                                </g>
                                <g id="note29.stem" class="stem">
                                    <path d="M20961 1015 L20961 1560" stroke="currentColor" stroke-width="18"/>
                                </g>
                            </g>
                        </g>
                    </g>
                    <g id="pP1_m16.right_barline" class="barLine">
                        <path id="pP1_m16.right_barline.barline_tok1" d="M22002 540 L22002 1260" stroke="currentColor" stroke-width="27" class="barline_tok"/>
                    </g>
                </g>
                <g id="sss4ofw" class="systemMilestoneEnd s14fjni1"/>
            </g>
            <g id="p1ekazrx" class="pageMilestoneEnd s1s3ggtl"/>
            <g id="p1ajna5" class="pageMilestoneEnd m1efxrya"/>
        </g>
    </svg>
</svg>