<svg xmlns="http://www.w3.org/2000/svg" xmlns:xlink="http://www.w3.org/1999/xlink" xmlns:mei="http://www.music-encoding.org/ns/mei" width="2321px" height="280px" version="1.1" overflow="visible">
    <desc>Engraved by Verovio 4.3.0-dev-ba68db3-dirty</desc>
    <defs>
        <symbol id="E082-mfsoli" viewBox="0 0 1000 1000" overflow="inherit">
            <path transform="scale(1,-1)" d="M124 -185c-18 0 -55 -14 -65 -65h-36l-3 30c0 25 6 45 18 63c11 19 22 30 39 43l121 82l37 29c15 11 27 29 38 54c12 24 18 47 18 70c0 40 -19 88 -94 88c-25 0 -32 0 -50 -8c-14 -5 -23 -12 -26 -22c3 -9 7 -15 10 -18l24 -17c12 -7 17 -11 27 -21c5 -7 7 -16 7 -27 c0 -12 0 -57 -79 -74c-30 0 -76 26 -76 94c0 66 81 135 197 135c72 0 181 -32 181 -150c0 -53 -32 -95 -113 -133l-91 -41c-26 -11 -45 -23 -57 -37l49 7c84 0 115 -41 148 -41c20 0 33 20 39 61h35c0 -152 -68 -168 -114 -168c-17 0 -65 0 -79 7h10l-28 17 c-49 37 -69 40 -87 42z"/>
        </symbol>
        <symbol id="E084-mfsoli" viewBox="0 0 1000 1000" overflow="inherit">
            <path transform="scale(1,-1)" d="M20 -78c84 97 114 180 134 329h170c-13 -32 -82 -132 -99 -151l-84 -97c-33 -36 -59 -63 -80 -81h162v102l127 123v-225h57v-39h-57v-34c0 -43 19 -65 57 -65v-34h-244v36c48 0 60 26 60 70v27h-203v39z"/>
        </symbol>
        <symbol id="E0A4-mfsoli" viewBox="0 0 1000 1000" overflow="inherit">
            <path transform="scale(1,-1)" d="M0 -39c0 68 73 172 200 172c66 0 114 -37 114 -95c0 -84 -106 -171 -218 -171c-64 0 -96 30 -96 94z"/>
        </symbol>
        <symbol id="E262-mfsoli" viewBox="0 0 1000 1000" overflow="inherit">
            <path transform="scale(1,-1)" d="M136 186v169h17v-164l44 14v-91l-44 -14v-165l44 12v-91l-44 -13v-155h-17v150l-76 -22v-155h-17v149l-43 -13v90l43 14v167l-43 -14v92l43 13v169h17v-163zM60 73v-167l76 22v168z"/>
        </symbol>
        <symbol id="E263-mfsoli" viewBox="0 0 1000 1000" overflow="inherit">
            <path transform="scale(1,-1)" d="M0 120h74v-54l15 -17h79l15 16v55h74v-72h-59l-25 -28v-38l25 -32h59v-70h-75v55l-14 15h-80l-14 -15v-55h-74v72h60l26 30v38l-28 29h-58v71z"/>
        </symbol>
        <symbol id="E240-mfsoli" viewBox="0 0 1000 1000" overflow="inherit">
            <path transform="scale(1,-1)" d="M179 -646c15 29 29 55 46 102c18 49 30 108 30 138c0 105 -80 173 -168 200c-18 5 -47 9 -87 16v190h22c8 0 33 -61 71 -95c4 -3 -2 3 61 -56c62 -58 122 -137 122 -241c0 -38 -13 -106 -35 -163c-20 -51 -43 -99 -66 -132c-6 -5 -10 -7 -13 -7s-5 2 -5 5l4 10 c1 3 14 25 18 33z"/>
        </symbol>
        <symbol id="E241-mfsoli" viewBox="0 0 1000 1000" overflow="inherit">
            <path transform="scale(1,-1)" d="M179 646c-4 8 -17 30 -18 33l-4 10c0 3 2 5 5 5s7 -2 13 -7c23 -33 46 -81 66 -132c22 -57 35 -125 35 -163c0 -104 -60 -183 -122 -241c-63 -59 -57 -53 -61 -56c-38 -34 -63 -95 -71 -95h-22v190c40 7 69 11 87 16c88 27 168 95 168 200c0 30 -12 89 -30 138 c-17 47 -31 73 -46 102z"/>
        </symbol>
        <symbol id="E4E5-mfsoli" viewBox="0 0 1000 1000" overflow="inherit">
            <path transform="scale(1,-1)" d="M107 292c-13 24 -30 49 -52 71c-1 1 0 2 0 3l-2 2c3 3 4 4 6 4c12 0 26 -7 40 -20s44 -40 89 -81c26 -24 28 -29 46 -47c4 -4 8 -9 10 -14c6 -8 8 -16 8 -27c0 -19 -12 -40 -36 -61c-28 -23 -49 -38 -61 -73c-4 -11 -7 -27 -10 -50c13 -43 34 -83 59 -121 c31 -47 59 -79 101 -129c-8 0 -26 7 -54 20l-62 29l-21 6l-23 1c-25 0 -45 -10 -60 -30l-4 -14l-1 -12c0 -33 20 -56 39 -78c8 -9 17 -18 26 -26c17 -15 27 -24 28 -30l-3 -3c-11 5 -19 10 -25 15c-9 3 -37 21 -45 26c-24 14 -45 32 -63 51c-19 21 -37 44 -37 71 c0 63 27 95 80 95c41 0 86 -18 136 -52c-19 26 -37 48 -55 66c-23 23 -48 44 -73 65c-28 23 -47 40 -58 53s-17 26 -18 39c75 64 113 125 113 183c0 27 -7 48 -18 68z"/>
        </symbol>
        <symbol id="E4E6-mfsoli" viewBox="0 0 1000 1000" overflow="inherit">
            <path transform="scale(1,-1)" d="M0 123c7 34 33 56 69 60c29 -3 43 -9 53 -29c4 -8 7 -15 10 -22c0 -21 -1 -25 -11 -35c-5 -8 -18 -14 -40 -20l12 -3l15 -1c44 0 97 26 122 56c10 11 18 26 24 42c7 1 15 2 22 3l-140 -424h-36l111 330c-10 -6 -27 -12 -53 -16l-52 -8h-10l-20 1c-1 0 -8 3 -21 6 c-37 9 -55 28 -55 60z"/>
        </symbol>
        <symbol id="E510-mfsoli" viewBox="0 0 1000 1000" overflow="inherit">
            <path transform="scale(1,-1)" d="M86 180c-15 17 -25 40 -28 67c0 11 3 22 8 33s13 21 23 29c21 15 47 23 78 23c29 0 53 -9 71 -27s27 -37 28 -58c0 -17 -6 -32 -17 -45s-28 -25 -51 -36c21 -25 32 -52 32 -80c0 -23 -10 -44 -30 -61c-21 -16 -51 -24 -90 -24c-34 0 -61 8 -80 25s-29 37 -30 60 c0 18 7 36 22 55c13 16 34 29 64 39zM98 168c-19 -12 -34 -25 -43 -38s-14 -28 -15 -44c2 -23 9 -38 21 -47s30 -15 55 -18c17 0 29 4 38 12s13 21 14 38c-3 21 -26 54 -70 97zM187 180c26 20 39 44 39 71c0 17 -5 31 -16 44s-25 19 -42 20c-28 0 -44 -15 -47 -44l2 -12 c7 -22 29 -48 64 -79z"/>
        </symbol>
    </defs>
    <style type="text/css">g.page-margin{font-family:Times,serif;} g.ending, g.fing, g.reh, g.tempo{font-weight:bold;} g.dir, g.dynam, g.mNum{font-style:italic;} g.label{font-weight:normal;}</style>
    <svg class="definition-scale" color="black" viewBox="0 0 23210 2800">
        <g class="page-margin" transform="translate(500, 500)">
            <g id="m1bwqgn5" class="mdiv pageMilestone"/>
            <g id="s139oxqt" class="score pageMilestone"/>
            <g id="s1g4qczf" class="system">
                <g id="l1om0h3e" class="label">
                    <text x="1105" y="990" text-anchor="end" font-size="0px">
                        <tspan id="tm6cdzn" class="text">
                            <tspan font-size="405px">Piano</tspan>
                        </tspan>
                    </text>
                </g>
                <g id="sof8laq" class="section systemMilestone"/>
                <g id="pP1_m1" class="measure">
                    <g id="skz8mog" class="staff">
                        <path d="M1285 540 L3533 540" stroke="currentColor" stroke-width="13"/>
                        <path d="M1285 720 L3533 720" stroke="currentColor" stroke-width="13"/>
                        <path d="M1285 900 L3533 900" stroke="currentColor" stroke-width="13"/>
                        <path d="M1285 1080 L3533 1080" stroke="currentColor" stroke-width="13"/>
                        <path d="M1285 1260 L3533 1260" stroke="currentColor" stroke-width="13"/>
                        <g id="clef1_1" class="clef" visibility="hidden"/>
                        <g id="key1_1" class="keySig" visibility="hidden"/>
                        <g id="time1_1" class="meterSig">
                            <use xlink:href="#E082-mfsoli" x="1361" y="720" height="720px" width="720px"/>
                            <use xlink:href="#E084-mfsoli" x="1366" y="1080" height="720px" width="720px"/>
                        </g>
                        <g id="l12j7u2f" class="layer">
                            <g id="beam1_parent" class="beam_parent">
                                <polygon points="1934,1710 2532,1530 2532,1440 1934,1620" id="beam1" class="beam"/>
                                <polygon points="2306,1460 2532,1395 2532,1305 2306,1370" id="beam2" class="beam"/>
                                <g id="note1" class="note">
                                    <g class="notehead" id="note1.notehead">
                                        <use xlink:href="#E0A4-mfsoli" x="1934" y="1260" height="720px" width="720px"/>
                                    </g>
                                    <g id="note1.dots_parent" class="dots">
                                        <ellipse cx="2250" cy="1170" rx="36" ry="36" id="note1.dot1" class="single_dot"/>
                                    </g>
                                    <g id="note1.stem" class="stem">
                                        <path d="M1943 1288 L1943 1692" stroke="currentColor" stroke-width="18"/>
                                    </g>
                                </g>
                                <g id="note2" class="note">
                                    <g class="notehead" id="note2.notehead">
                                        <use xlink:href="#E0A4-mfsoli" x="2514" y="810" height="720px" width="720px"/>
                                    </g>
                                    <g id="note2.stem" class="stem">
                                        <path d="M2523 838 L2523 1512" stroke="currentColor" stroke-width="18"/>
                                    </g>
                                    <g id="note2.accidental" class="accid"/>
                                </g>
                            </g>
                            <g id="note3" class="note">
                                <g class="notehead" id="note3.notehead">
                                    <use xlink:href="#E0A4-mfsoli" x="2830" y="810" height="720px" width="720px"/>
                                </g>
                                <g id="note3.stem" class="stem">
                                    <path d="M2839 838 L2839 1440" stroke="currentColor" stroke-width="18"/>
                                </g>
                                <g id="note3.accidental" class="accid"/>
                            </g>
                        </g>
                    </g>
                    <g id="tied1" class="tie">
                        <path d="M3101,765 C3232,611 3533,611 3668,765 C3514,660 3251,660 3101,765" stroke="currentColor" stroke-linecap="round" stroke-linejoin="round" stroke-width="9"/>
                    </g>
                    <g id="pP1_m1.right_barline" class="barLine">
                        <path id="pP1_m1.right_barline.barline_tok1" d="M3520 540 L3520 1260" stroke="currentColor" stroke-width="27" class="barline_tok"/>
                    </g>
                </g>
                <g id="pP1_m2" class="measure">
                    <g id="s89n7rv" class="staff">
                        <path d="M3533 540 L6643 540" stroke="currentColor" stroke-width="13"/>
                        <path d="M3533 720 L6643 720" stroke="currentColor" stroke-width="13"/>
                        <path d="M3533 900 L6643 900" stroke="currentColor" stroke-width="13"/>
                        <path d="M3533 1080 L6643 1080" stroke="currentColor" stroke-width="13"/>
                        <path d="M3533 1260 L6643 1260" stroke="currentColor" stroke-width="13"/>
                        <g id="lvy3emj" class="layer">
                            <g id="beam3_parent" class="beam_parent">
                                <polygon points="3713,1485 4497,1485 4497,1395 3713,1395" id="beam3" class="beam"/>
                                <polygon points="4172,1350 4497,1350 4497,1260 4172,1260" id="beam4" class="beam"/>
                                <g id="note4" class="note">
                                    <g class="notehead" id="note4.notehead">
                                        <use xlink:href="#E0A4-mfsoli" x="3713" y="810" height="720px" width="720px"/>
                                    </g>
                                    <g id="note4.stem" class="stem">
                                        <path d="M3722 838 L3722 1467" stroke="currentColor" stroke-width="18"/>
                                    </g>
                                    <g id="note4.accidental" class="accid"/>
                                </g>
                                <g id="note5" class="note">
                                    <g class="notehead" id="note5.notehead">
                                        <use xlink:href="#E0A4-mfsoli" x="4163" y="900" height="720px" width="720px"/>
                                    </g>
                                    <g id="note5.stem" class="stem">
                                        <path d="M4172 928 L4172 1467" stroke="currentColor" stroke-width="18"/>
                                    </g>
                                </g>
                                <g id="note6" class="note">
                                    <g class="notehead" id="note6.notehead">
                                        <use xlink:href="#E0A4-mfsoli" x="4479" y="810" height="720px" width="720px"/>
                                    </g>
                                    <g id="note6.stem" class="stem">
                                        <path d="M4488 838 L4488 1467" stroke="currentColor" stroke-width="18"/>
                                    </g>
                                    <g id="note6.accidental" class="accid"/>
                                </g>
                            </g>
                            <g id="note7" class="note">
                                <g class="notehead" id="note7.notehead">
                                    <use xlink:href="#E0A4-mfsoli" x="4795" y="630" height="540px" width="540px"/>
                                </g>
                                <g id="note7.stem" class="stem">
                                    <path d="M4955 609 L4955 248" stroke="currentColor" stroke-width="18"/>
                                    <path d="M4888 516 L5089 315" stroke="currentColor" stroke-width="21"/>
                                    <g id="note7.stem.flag" class="flag">
                                        <use xlink:href="#E240-mfsoli" x="4946" y="248" height="540px" width="540px"/>
                                    </g>
                                </g>
                            </g>
                            <g id="beam5_parent" class="beam_parent">
                                <polygon points="5352,1440 6318,1620 6318,1530 5352,1350" id="beam5" class="beam"/>
                                <polygon points="5352,1305 6318,1485 6318,1395 5352,1215" id="beam6" class="beam"/>
                                <g id="note8" class="note">
                                    <g class="notehead" id="note8.notehead">
                                        <use xlink:href="#E0A4-mfsoli" x="5352" y="720" height="720px" width="720px"/>
                                    </g>
                                    <g id="note8.stem" class="stem">
                                        <path d="M5361 748 L5361 1422" stroke="currentColor" stroke-width="18"/>
                                    </g>
                                    <g id="note8.accidental" class="accid">
                                        <use xlink:href="#E262-mfsoli" x="5166" y="720" height="720px" width="720px"/>
                                    </g>
                                </g>
                                <g id="note9" class="note">
                                    <g class="notehead" id="note9.notehead">
                                        <use xlink:href="#E0A4-mfsoli" x="5668" y="810" height="720px" width="720px"/>
                                    </g>
                                    <g id="note9.stem" class="stem">
                                        <path d="M5677 838 L5677 1482" stroke="currentColor" stroke-width="18"/>
                                    </g>
                                    <g id="note9.accidental" class="accid"/>
                                </g>
                                <g id="note10" class="note">
                                    <g class="notehead" id="note10.notehead">
                                        <use xlink:href="#E0A4-mfsoli" x="5984" y="900" height="720px" width="720px"/>
                                    </g>
                                    <g id="note10.stem" class="stem">
                                        <path d="M5993 928 L5993 1542" stroke="currentColor" stroke-width="18"/>
                                    </g>
                                </g>
                                <g id="note11" class="note">
                                    <g class="notehead" id="note11.notehead">
                                        <use xlink:href="#E0A4-mfsoli" x="6300" y="990" height="720px" width="720px"/>
                                    </g>
                                    <g id="note11.stem" class="stem">
                                        <path d="M6309 1018 L6309 1602" stroke="currentColor" stroke-width="18"/>
                                    </g>
                                </g>
                            </g>
                        </g>
                    </g>
                    <g id="pP1_m2.right_barline" class="barLine">
                        <path id="pP1_m2.right_barline.barline_tok1" d="M6630 540 L6630 1260" stroke="currentColor" stroke-width="27" class="barline_tok"/>
                    </g>
                </g>
                <g id="pP1_m3" class="measure">
                    <g id="sqj8b74" class="staff">
                        <path d="M6643 540 L9664 540" stroke="currentColor" stroke-width="13"/>
                        <path d="M6643 720 L9664 720" stroke="currentColor" stroke-width="13"/>
                        <path d="M6643 900 L9664 900" stroke="currentColor" stroke-width="13"/>
                        <path d="M6643 1080 L9664 1080" stroke="currentColor" stroke-width="13"/>
                        <path d="M6643 1260 L9664 1260" stroke="currentColor" stroke-width="13"/>
                        <g id="lu9sj4k" class="layer">
                            <g id="beam7_parent" class="beam_parent">
                                <polygon points="7009,1755 7889,1755 7889,1665 7009,1665" id="beam7" class="beam"/>
                                <polygon points="7564,1620 7889,1620 7889,1530 7564,1530" id="beam8" class="beam"/>
                                <g id="note12" class="note">
                                    <g class="notehead" id="note12.notehead">
                                        <use xlink:href="#E0A4-mfsoli" x="7009" y="1080" height="720px" width="720px"/>
                                    </g>
                                    <g id="note12.stem" class="stem">
                                        <path d="M7018 1108 L7018 1737" stroke="currentColor" stroke-width="18"/>
                                    </g>
                                    <g id="note12.accidental" class="accid">
                                        <use xlink:href="#E262-mfsoli" x="6823" y="1080" height="720px" width="720px"/>
                                    </g>
                                </g>
                                <g id="note13" class="note">
                                    <g class="notehead" id="note13.notehead">
                                        <use xlink:href="#E0A4-mfsoli" x="7555" y="1170" height="720px" width="720px"/>
                                    </g>
                                    <g id="note13.stem" class="stem">
                                        <path d="M7564 1198 L7564 1737" stroke="currentColor" stroke-width="18"/>
                                    </g>
                                    <g id="note13.accidental" class="accid">
                                        <use xlink:href="#E263-mfsoli" x="7325" y="1170" height="720px" width="720px"/>
                                    </g>
                                </g>
                                <g id="note14" class="note">
                                    <g class="notehead" id="note14.notehead">
                                        <use xlink:href="#E0A4-mfsoli" x="7871" y="1080" height="720px" width="720px"/>
                                    </g>
                                    <g id="note14.stem" class="stem">
                                        <path d="M7880 1108 L7880 1737" stroke="currentColor" stroke-width="18"/>
                                    </g>
                                    <g id="note14.accidental" class="accid"/>
                                </g>
                            </g>
                            <g id="beam9_parent" class="beam_parent">
                                <polygon points="8187,1620 9339,1800 9339,1710 8187,1530" id="beam9" class="beam"/>
                                <polygon points="8187,1485 9339,1665 9339,1575 8187,1395" id="beam10" class="beam"/>
                                <g id="note15" class="note">
                                    <g class="notehead" id="note15.notehead">
                                        <use xlink:href="#E0A4-mfsoli" x="8187" y="900" height="720px" width="720px"/>
                                    </g>
                                    <g id="note15.stem" class="stem">
                                        <path d="M8196 928 L8196 1602" stroke="currentColor" stroke-width="18"/>
                                    </g>
                                </g>
                                <g id="note16" class="note">
                                    <g class="notehead" id="note16.notehead">
                                        <use xlink:href="#E0A4-mfsoli" x="8503" y="990" height="720px" width="720px"/>
                                    </g>
                                    <g id="note16.stem" class="stem">
                                        <path d="M8512 1018 L8512 1653" stroke="currentColor" stroke-width="18"/>
                                    </g>
                                </g>
                                <g id="note17" class="note">
                                    <g class="notehead" id="note17.notehead">
                                        <use xlink:href="#E0A4-mfsoli" x="8819" y="1080" height="720px" width="720px"/>
                                    </g>
                                    <g id="note17.stem" class="stem">
                                        <path d="M8828 1108 L8828 1703" stroke="currentColor" stroke-width="18"/>
                                    </g>
                                    <g id="note17.accidental" class="accid"/>
                                </g>
                                <g id="note18" class="note">
                                    <g class="notehead" id="note18.notehead">
                                        <use xlink:href="#E0A4-mfsoli" x="9321" y="1170" height="720px" width="720px"/>
                                    </g>
                                    <g id="note18.stem" class="stem">
                                        <path d="M9330 1198 L9330 1782" stroke="currentColor" stroke-width="18"/>
                                    </g>
                                    <g id="note18.accidental" class="accid">
                                        <use xlink:href="#E262-mfsoli" x="9135" y="1170" height="720px" width="720px"/>
                                    </g>
                                </g>
                            </g>
                        </g>
                    </g>
                    <g id="pP1_m3.right_barline" class="barLine">
                        <path id="pP1_m3.right_barline.barline_tok1" d="M9651 540 L9651 1260" stroke="currentColor" stroke-width="27" class="barline_tok"/>
                    </g>
                </g>
                <g id="pP1_m4" class="measure">
                    <g id="s1cj73gc" class="staff">
                        <path d="M9664 540 L11237 540" stroke="currentColor" stroke-width="13"/>
                        <path d="M9664 720 L11237 720" stroke="currentColor" stroke-width="13"/>
                        <path d="M9664 900 L11237 900" stroke="currentColor" stroke-width="13"/>
                        <path d="M9664 1080 L11237 1080" stroke="currentColor" stroke-width="13"/>
                        <path d="M9664 1260 L11237 1260" stroke="currentColor" stroke-width="13"/>
                        <g id="l1jza1rk" class="layer">
                            <g id="note19" class="note">
                                <g class="notehead" id="note19.notehead">
                                    <use xlink:href="#E0A4-mfsoli" x="9844" y="1260" height="720px" width="720px"/>
                                </g>
                                <g id="note19.stem" class="stem">
                                    <path d="M10061 1232 L10061 630" stroke="currentColor" stroke-width="18"/>
                                </g>
                            </g>
                            <g id="rest1" class="rest">
                                <use xlink:href="#E4E5-mfsoli" x="10534" y="900" height="720px" width="720px"/>
                            </g>
                        </g>
                    </g>
                    <g id="pP1_m4.right_barline" class="barLine">
                        <path id="pP1_m4.right_barline.barline_tok1" d="M11224 540 L11224 1260" stroke="currentColor" stroke-width="27" class="barline_tok"/>
                    </g>
                </g>
                <g id="pP1_m5" class="measure">
                    <g id="skwjuzp" class="staff">
                        <path d="M11237 540 L13590 540" stroke="currentColor" stroke-width="13"/>
                        <path d="M11237 720 L13590 720" stroke="currentColor" stroke-width="13"/>
                        <path d="M11237 900 L13590 900" stroke="currentColor" stroke-width="13"/>
                        <path d="M11237 1080 L13590 1080" stroke="currentColor" stroke-width="13"/>
                        <path d="M11237 1260 L13590 1260" stroke="currentColor" stroke-width="13"/>
                        <g id="l17sv93r" class="layer">
                            <g id="beam11_parent" class="beam_parent">
                                <polygon points="11417,1800 12379,1800 12379,1710 11417,1710" id="beam11" class="beam"/>
                                <polygon points="12054,1665 12379,1665 12379,1575 12054,1575" id="beam12" class="beam"/>
                                <polygon points="12054,1530 12379,1530 12379,1440 12054,1440" id="beam13" class="beam"/>
                                <g id="note20" class="note">
                                    <g class="notehead" id="note20.notehead">
                                        <use xlink:href="#E0A4-mfsoli" x="11417" y="990" height="720px" width="720px"/>
                                    </g>
                                    <g id="note20.dots_parent" class="dots">
                                        <ellipse cx="11733" cy="990" rx="36" ry="36" id="note20.dot1" class="single_dot"/>
                                    </g>
                                    <g id="note20.stem" class="stem">
                                        <path d="M11426 1018 L11426 1782" stroke="currentColor" stroke-width="18"/>
                                    </g>
                                </g>
                                <g id="note21" class="note">
                                    <g class="notehead" id="note21.notehead">
                                        <use xlink:href="#E0A4-mfsoli" x="12045" y="1080" height="720px" width="720px"/>
                                    </g>
                                    <g id="note21.stem" class="stem">
                                        <path d="M12054 1108 L12054 1782" stroke="currentColor" stroke-width="18"/>
                                    </g>
                                    <g id="note21.accidental" class="accid">
                                        <use xlink:href="#E262-mfsoli" x="11859" y="1080" height="720px" width="720px"/>
                                    </g>
                                </g>
                                <g id="note22" class="note">
                                    <g class="notehead" id="note22.notehead">
                                        <use xlink:href="#E0A4-mfsoli" x="12361" y="990" height="720px" width="720px"/>
                                    </g>
                                    <g id="note22.stem" class="stem">
                                        <path d="M12370 1018 L12370 1782" stroke="currentColor" stroke-width="18"/>
                                    </g>
                                </g>
                            </g>
                            <g id="beam14_parent" class="beam_parent">
                                <polygon points="12677,1530 13145,1575 13145,1485 12677,1440" id="beam14" class="beam"/>
                                <g id="note23" class="note">
                                    <g class="notehead" id="note23.notehead">
                                        <use xlink:href="#E0A4-mfsoli" x="12677" y="900" height="720px" width="720px"/>
                                    </g>
                                    <g id="note23.stem" class="stem">
                                        <path d="M12686 928 L12686 1512" stroke="currentColor" stroke-width="18"/>
                                    </g>
                                </g>
                                <g id="note24" class="note">
                                    <g class="notehead" id="note24.notehead">
                                        <use xlink:href="#E0A4-mfsoli" x="13127" y="990" height="720px" width="720px"/>
                                    </g>
                                    <g id="note24.stem" class="stem">
                                        <path d="M13136 1018 L13136 1557" stroke="currentColor" stroke-width="18"/>
                                    </g>
                                </g>
                            </g>
                        </g>
                    </g>
                    <g id="octave-shift1" class="octave">
                        <use xlink:href="#E510-mfsoli" x="11966" y="450" height="720px" width="720px"/>
                        <path d="M12176 220 L13466 220" stroke="currentColor" stroke-width="18" stroke-linecap="square" stroke-dasharray="36 72"/>
                        <polyline stroke="currentColor" stroke-width="18" fill="none" points="13466,400 13466,220 13376,220 "/>
                    </g>
                    <g id="pP1_m5.right_barline" class="barLine">
                        <path id="pP1_m5.right_barline.barline_tok1" d="M13577 540 L13577 1260" stroke="currentColor" stroke-width="27" class="barline_tok"/>
                    </g>
                </g>
                <g id="pP1_m6" class="measure">
                    <g id="s3jqrpf" class="staff">
                        <path d="M13590 540 L15895 540" stroke="currentColor" stroke-width="13"/>
                        <path d="M13590 720 L15895 720" stroke="currentColor" stroke-width="13"/>
                        <path d="M13590 900 L15895 900" stroke="currentColor" stroke-width="13"/>
                        <path d="M13590 1080 L15895 1080" stroke="currentColor" stroke-width="13"/>
                        <path d="M13590 1260 L15895 1260" stroke="currentColor" stroke-width="13"/>
                        <g id="lgalz2w" class="layer">
                            <g id="beam15_parent" class="beam_parent">
                                <polygon points="13978,360 14892,360 14892,450 13978,450" id="beam15" class="beam"/>
                                <polygon points="14567,495 14892,495 14892,585 14567,585" id="beam16" class="beam"/>
                                <polygon points="14567,630 14892,630 14892,720 14567,720" id="beam17" class="beam"/>
                                <g id="note25" class="note">
                                    <g class="notehead" id="note25.notehead">
                                        <use xlink:href="#E0A4-mfsoli" x="13770" y="1080" height="720px" width="720px"/>
                                    </g>
                                    <g id="note25.dots_parent" class="dots">
                                        <ellipse cx="14086" cy="990" rx="36" ry="36" id="note25.dot1" class="single_dot"/>
                                    </g>
                                    <g id="note25.stem" class="stem">
                                        <path d="M13987 1052 L13987 378" stroke="currentColor" stroke-width="18"/>
                                    </g>
                                </g>
                                <g id="note26" class="note">
                                    <g class="notehead" id="note26.notehead">
                                        <use xlink:href="#E0A4-mfsoli" x="14350" y="1170" height="720px" width="720px"/>
                                    </g>
                                    <g id="note26.stem" class="stem">
                                        <path d="M14567 1142 L14567 378" stroke="currentColor" stroke-width="18"/>
                                    </g>
                                    <g id="note26.accidental" class="accid"/>
                                </g>
                                <g id="note27" class="note">
                                    <g class="notehead" id="note27.notehead">
                                        <use xlink:href="#E0A4-mfsoli" x="14666" y="1080" height="720px" width="720px"/>
                                    </g>
                                    <g id="note27.stem" class="stem">
                                        <path d="M14883 1052 L14883 378" stroke="currentColor" stroke-width="18"/>
                                    </g>
                                </g>
                            </g>
                            <g id="beam18_parent" class="beam_parent">
                                <polygon points="15190,315 15658,360 15658,450 15190,405" id="beam18" class="beam"/>
                                <g id="note28" class="note">
                                    <g class="notehead" id="note28.notehead">
                                        <use xlink:href="#E0A4-mfsoli" x="14982" y="990" height="720px" width="720px"/>
                                    </g>
                                    <g id="note28.stem" class="stem">
                                        <path d="M15199 962 L15199 333" stroke="currentColor" stroke-width="18"/>
                                    </g>
                                </g>
                                <g id="note29" class="note">
                                    <g class="notehead" id="note29.notehead">
                                        <use xlink:href="#E0A4-mfsoli" x="15432" y="1080" height="720px" width="720px"/>
                                    </g>
                                    <g id="note29.stem" class="stem">
                                        <path d="M15649 1052 L15649 378" stroke="currentColor" stroke-width="18"/>
                                    </g>
                                </g>
                            </g>
                        </g>
                    </g>
                    <g id="pP1_m6.right_barline" class="barLine">
                        <path id="pP1_m6.right_barline.barline_tok1" d="M15882 540 L15882 1260" stroke="currentColor" stroke-width="27" class="barline_tok"/>
                    </g>
                </g>
                <g id="pP1_m7" class="measure">
                    <g id="svmlz3c" class="staff">
                        <path d="M15895 540 L18434 540" stroke="currentColor" stroke-width="13"/>
                        <path d="M15895 720 L18434 720" stroke="currentColor" stroke-width="13"/>
                        <path d="M15895 900 L18434 900" stroke="currentColor" stroke-width="13"/>
                        <path d="M15895 1080 L18434 1080" stroke="currentColor" stroke-width="13"/>
                        <path d="M15895 1260 L18434 1260" stroke="currentColor" stroke-width="13"/>
                        <g id="lpq4b85" class="layer">
                            <g id="beam19_parent" class="beam_parent">
                                <polygon points="16283,360 17245,360 17245,450 16283,450" id="beam19" class="beam"/>
                                <polygon points="16920,495 17245,495 17245,585 16920,585" id="beam20" class="beam"/>
                                <polygon points="16920,630 17245,630 17245,720 16920,720" id="beam21" class="beam"/>
                                <g id="note30" class="note">
                                    <g class="notehead" id="note30.notehead">
                                        <use xlink:href="#E0A4-mfsoli" x="16075" y="1170" height="720px" width="720px"/>
                                    </g>
                                    <g id="note30.dots_parent" class="dots">
                                        <ellipse cx="16391" cy="1170" rx="36" ry="36" id="note30.dot1" class="single_dot"/>
                                    </g>
                                    <g id="note30.stem" class="stem">
                                        <path d="M16292 1142 L16292 378" stroke="currentColor" stroke-width="18"/>
                                    </g>
                                    <g id="note30.accidental" class="accid"/>
                                </g>
                                <g id="note31" class="note">
                                    <g class="notehead" id="note31.notehead">
                                        <use xlink:href="#E0A4-mfsoli" x="16703" y="1260" height="720px" width="720px"/>
                                    </g>
                                    <g id="note31.stem" class="stem">
                                        <path d="M16920 1232 L16920 378" stroke="currentColor" stroke-width="18"/>
                                    </g>
                                    <g id="note31.accidental" class="accid">
                                        <use xlink:href="#E262-mfsoli" x="16517" y="1260" height="720px" width="720px"/>
                                    </g>
                                </g>
                                <g id="note32" class="note">
                                    <g class="notehead" id="note32.notehead">
                                        <use xlink:href="#E0A4-mfsoli" x="17019" y="1170" height="720px" width="720px"/>
                                    </g>
                                    <g id="note32.stem" class="stem">
                                        <path d="M17236 1142 L17236 378" stroke="currentColor" stroke-width="18"/>
                                    </g>
                                    <g id="note32.accidental" class="accid"/>
                                </g>
                            </g>
                            <g id="beam22_parent" class="beam_parent">
                                <polygon points="17729,405 18197,450 18197,540 17729,495" id="beam22" class="beam"/>
                                <g id="note33" class="note">
                                    <g class="notehead" id="note33.notehead">
                                        <use xlink:href="#E0A4-mfsoli" x="17521" y="1080" height="720px" width="720px"/>
                                    </g>
                                    <g id="note33.stem" class="stem">
                                        <path d="M17738 1052 L17738 423" stroke="currentColor" stroke-width="18"/>
                                    </g>
                                    <g id="note33.accidental" class="accid">
                                        <use xlink:href="#E262-mfsoli" x="17335" y="1080" height="720px" width="720px"/>
                                    </g>
                                </g>
                                <g id="note34" class="note">
                                    <g class="notehead" id="note34.notehead">
                                        <use xlink:href="#E0A4-mfsoli" x="17971" y="1170" height="720px" width="720px"/>
                                    </g>
                                    <g id="note34.stem" class="stem">
                                        <path d="M18188 1142 L18188 468" stroke="currentColor" stroke-width="18"/>
                                    </g>
                                    <g id="note34.accidental" class="accid"/>
                                </g>
                            </g>
                        </g>
                    </g>
                    <g id="pP1_m7.right_barline" class="barLine">
                        <path id="pP1_m7.right_barline.barline_tok1" d="M18421 540 L18421 1260" stroke="currentColor" stroke-width="27" class="barline_tok"/>
                    </g>
                </g>
                <g id="pP1_m8" class="measure">
                    <g id="s1x6yin8" class="staff">
                        <path d="M18434 540 L20217 540" stroke="currentColor" stroke-width="13"/>
                        <path d="M18434 720 L20217 720" stroke="currentColor" stroke-width="13"/>
                        <path d="M18434 900 L20217 900" stroke="currentColor" stroke-width="13"/>
                        <path d="M18434 1080 L20217 1080" stroke="currentColor" stroke-width="13"/>
                        <path d="M18434 1260 L20217 1260" stroke="currentColor" stroke-width="13"/>
                        <g id="l1hxcgw6" class="layer">
                            <g id="note35" class="note">
                                <g class="notehead" id="note35.notehead">
                                    <use xlink:href="#E0A4-mfsoli" x="18614" y="1260" height="720px" width="720px"/>
                                </g>
                                <g id="note35.stem" class="stem">
                                    <path d="M18831 1232 L18831 630" stroke="currentColor" stroke-width="18"/>
                                </g>
                            </g>
                            <g id="rest2" class="rest">
                                <use xlink:href="#E4E6-mfsoli" x="19304" y="900" height="720px" width="720px"/>
                            </g>
                            <g id="note36" class="note">
                                <g class="notehead" id="note36.notehead">
                                    <use xlink:href="#E0A4-mfsoli" x="19754" y="630" height="720px" width="720px"/>
                                </g>
                                <g id="note36.stem" class="stem">
                                    <path d="M19763 658 L19763 1260" stroke="currentColor" stroke-width="18"/>
                                    <g id="note36.stem.flag" class="flag">
                                        <use xlink:href="#E241-mfsoli" x="19754" y="1260" height="720px" width="720px"/>
                                    </g>
                                </g>
                            </g>
                        </g>
                    </g>
                    <g id="pP1_m8.right_barline" class="barLine">
                        <path id="pP1_m8.right_barline.barline_tok1" d="M20204 540 L20204 1260" stroke="currentColor" stroke-width="27" class="barline_tok"/>
                    </g>
                </g>
                <g id="pP1_m9" class="measure">
                    <g id="s15d5f3y" class="staff">
                        <path d="M20217 540 L22210 540" stroke="currentColor" stroke-width="13"/>
                        <path d="M20217 720 L22210 720" stroke="currentColor" stroke-width="13"/>
                        <path d="M20217 900 L22210 900" stroke="currentColor" stroke-width="13"/>
                        <path d="M20217 1080 L22210 1080" stroke="currentColor" stroke-width="13"/>
                        <path d="M20217 1260 L22210 1260" stroke="currentColor" stroke-width="13"/>
                        <g id="key2" class="keySig" visibility="hidden"/>
                        <g id="l1qhsmqq" class="layer">
                            <g id="beam23_parent" class="beam_parent">
                                <polygon points="20397,1350 21765,1530 21765,1440 20397,1260" id="beam23" class="beam"/>
                                <g id="note37" class="note">
                                    <g class="notehead" id="note37.notehead">
                                        <use xlink:href="#E0A4-mfsoli" x="20397" y="720" height="720px" width="720px"/>
                                    </g>
                                    <g id="note37.stem" class="stem">
                                        <path d="M20406 748 L20406 1332" stroke="currentColor" stroke-width="18"/>
                                    </g>
                                </g>
                                <g id="note38" class="note">
                                    <g class="notehead" id="note38.notehead">
                                        <use xlink:href="#E0A4-mfsoli" x="20847" y="810" height="720px" width="720px"/>
                                    </g>
                                    <g id="note38.stem" class="stem">
                                        <path d="M20856 838 L20856 1392" stroke="currentColor" stroke-width="18"/>
                                    </g>
                                    <g id="note38.accidental" class="accid"/>
                                </g>
                                <g id="note39" class="note">
                                    <g class="notehead" id="note39.notehead">
                                        <use xlink:href="#E0A4-mfsoli" x="21297" y="900" height="720px" width="720px"/>
                                    </g>
                                    <g id="note39.stem" class="stem">
                                        <path d="M21306 928 L21306 1452" stroke="currentColor" stroke-width="18"/>
                                    </g>
                                </g>
                                <g id="note40" class="note">
                                    <g class="notehead" id="note40.notehead">
                                        <use xlink:href="#E0A4-mfsoli" x="21747" y="990" height="720px" width="720px"/>
                                    </g>
                                    <g id="note40.stem" class="stem">
                                        <path d="M21756 1018 L21756 1512" stroke="currentColor" stroke-width="18"/>
                                    </g>
                                </g>
                            </g>
                        </g>
                    </g>
                    <g id="octave-shift2" class="octave">
                        <use xlink:href="#E510-mfsoli" x="20318" y="450" height="720px" width="720px"/>
                        <path d="M20528 220 L22086 220" stroke="currentColor" stroke-width="18" stroke-linecap="square" stroke-dasharray="36 72"/>
                        <polyline stroke="currentColor" stroke-width="18" fill="none" points="22086,400 22086,220 21996,220 "/>
                    </g>
                    <g id="pP1_m9.right_barline" class="barLine">
                        <path id="pP1_m9.right_barline.barline_tok1" d="M22197 540 L22197 1260" stroke="currentColor" stroke-width="27" class="barline_tok"/>
                    </g>
                </g>
                <g id="s113x6w6" class="systemMilestoneEnd sof8laq"/>
            </g>
            <g id="pimd08c" class="pageMilestoneEnd s139oxqt"/>
            <g id="peom2cc" class="pageMilestoneEnd m1bwqgn5"/>
        </g>
    </svg>
</svg>