<svg xmlns="http://www.w3.org/2000/svg" xmlns:xlink="http://www.w3.org/1999/xlink" xmlns:mei="http://www.music-encoding.org/ns/mei" width="1579px" height="280px" version="1.1" overflow="visible">
    <desc>Engraved by Verovio 4.3.0-dev-ba68db3-dirty</desc>
    <defs>
        <symbol id="E081-z3cvde" viewBox="0 0 1000 1000" overflow="inherit">
            <path transform="scale(1,-1)" d="M68 -250v36c23 0 40 6 49 18c8 14 12 33 12 57v250l-82 -129l-27 13l107 255h128v-394c0 -24 5 -42 14 -53s25 -17 47 -17v-36h-248z"/>
        </symbol>
        <symbol id="E086-z3cvde" viewBox="0 0 1000 1000" overflow="inherit">
            <path transform="scale(1,-1)" d="M284 -91c0 37 -28 92 -67 92c-35 0 -65 -54 -65 -111c0 -52 22 -104 68 -104c47 0 64 68 64 123zM230 214c-36 0 -90 -33 -90 -184l2 -36c40 24 81 36 120 36c80 0 140 -48 140 -121c0 -99 -99 -159 -182 -159c-160 0 -200 173 -200 244c0 21 2 43 7 71l10 35 c26 85 73 115 98 126c41 19 74 24 103 24c93 0 142 -63 142 -105c0 -58 -52 -72 -73 -72c-33 0 -59 24 -65 35c-3 5 -6 14 -7 25l11 30c6 15 9 27 9 35c0 11 -9 16 -25 16z"/>
        </symbol>
        <symbol id="E088-z3cvde" viewBox="0 0 1000 1000" overflow="inherit">
            <path transform="scale(1,-1)" d="M195 -214c76 0 88 58 90 68c0 34 -35 60 -57 73l-52 29c-21 10 -32 17 -34 20c-39 -33 -58 -54 -62 -92c5 -23 23 -98 115 -98zM301 135c0 61 -72 76 -113 76c-40 0 -77 -17 -77 -51c3 -21 15 -38 26 -50c17 -15 33 -26 48 -34l65 -28c34 27 51 56 51 87zM176 -250 c-57 0 -166 26 -166 132c0 47 30 86 89 116c-33 15 -79 60 -79 119c0 79 85 132 178 132h18c5 0 21 1 28 -1c25 0 126 -30 126 -110c0 -37 -23 -76 -69 -116c43 -25 83 -71 83 -119c0 -101 -118 -153 -208 -153z"/>
        </symbol>
        <symbol id="E0A4-z3cvde" viewBox="0 0 1000 1000" overflow="inherit">
            <path transform="scale(1,-1)" d="M0 -39c0 68 73 172 200 172c66 0 114 -37 114 -95c0 -84 -106 -171 -218 -171c-64 0 -96 30 -96 94z"/>
        </symbol>
        <symbol id="E050-z3cvde" viewBox="0 0 1000 1000" overflow="inherit">
            <path transform="scale(1,-1)" d="M441 -245c-23 -4 -48 -6 -76 -6c-59 0 -102 7 -130 20c-88 42 -150 93 -187 154c-26 44 -43 103 -48 176c0 6 -1 13 -1 19c0 54 15 111 45 170c29 57 65 106 110 148s96 85 153 127c-3 16 -8 46 -13 92c-4 43 -5 73 -5 89c0 117 16 172 69 257c34 54 64 82 89 82 c21 0 43 -30 69 -92s39 -115 41 -159v-15c0 -109 -21 -162 -67 -241c-13 -20 -63 -90 -98 -118c-13 -9 -25 -19 -37 -29l31 -181c8 1 18 2 28 2c58 0 102 -12 133 -35c59 -43 92 -104 98 -184c1 -7 1 -15 1 -22c0 -123 -87 -209 -181 -248c8 -57 17 -110 25 -162 c5 -31 6 -58 6 -80c0 -30 -5 -53 -14 -70c-35 -64 -88 -99 -158 -103c-5 0 -11 -1 -16 -1c-37 0 -72 10 -108 27c-50 24 -77 59 -80 105v11c0 29 7 55 20 76c18 28 45 42 79 44h6c49 0 93 -42 97 -87v-9c0 -51 -34 -86 -105 -106c17 -24 51 -36 102 -36c62 0 116 43 140 85 c9 16 13 41 13 74c0 20 -1 42 -5 67c-8 53 -18 106 -26 159zM461 939c-95 0 -135 -175 -135 -286c0 -24 2 -48 5 -71c50 39 92 82 127 128c40 53 60 100 60 140v8c-4 53 -22 81 -55 81h-2zM406 119l54 -326c73 25 110 78 110 161c0 7 0 15 -1 23c-7 95 -57 142 -151 142h-12 zM382 117c-72 -2 -128 -47 -128 -120v-7c2 -46 43 -99 75 -115c-3 -2 -7 -5 -10 -10c-70 33 -116 88 -123 172v11c0 68 44 126 88 159c23 17 49 29 78 36l-29 170c-21 -13 -52 -37 -92 -73c-50 -44 -86 -84 -109 -119c-45 -69 -67 -130 -67 -182v-13c5 -68 35 -127 93 -176 s125 -73 203 -73c25 0 50 3 75 9c-19 111 -36 221 -54 331z"/>
        </symbol>
        <symbol id="E262-z3cvde" viewBox="0 0 1000 1000" overflow="inherit">
            <path transform="scale(1,-1)" d="M136 186v169h17v-164l44 14v-91l-44 -14v-165l44 12v-91l-44 -13v-155h-17v150l-76 -22v-155h-17v149l-43 -13v90l43 14v167l-43 -14v92l43 13v169h17v-163zM60 73v-167l76 22v168z"/>
        </symbol>
        <symbol id="E241-z3cvde" viewBox="0 0 1000 1000" overflow="inherit">
            <path transform="scale(1,-1)" d="M179 646c-4 8 -17 30 -18 33l-4 10c0 3 2 5 5 5s7 -2 13 -7c23 -33 46 -81 66 -132c22 -57 35 -125 35 -163c0 -104 -60 -183 -122 -241c-63 -59 -57 -53 -61 -56c-38 -34 -63 -95 -71 -95h-22v190c40 7 69 11 87 16c88 27 168 95 168 200c0 30 -12 89 -30 138 c-17 47 -31 73 -46 102z"/>
        </symbol>
        <symbol id="E4E6-z3cvde" viewBox="0 0 1000 1000" overflow="inherit">
            <path transform="scale(1,-1)" d="M0 123c7 34 33 56 69 60c29 -3 43 -9 53 -29c4 -8 7 -15 10 -22c0 -21 -1 -25 -11 -35c-5 -8 -18 -14 -40 -20l12 -3l15 -1c44 0 97 26 122 56c10 11 18 26 24 42c7 1 15 2 22 3l-140 -424h-36l111 330c-10 -6 -27 -12 -53 -16l-52 -8h-10l-20 1c-1 0 -8 3 -21 6 c-37 9 -55 28 -55 60z"/>
        </symbol>
        <symbol id="E243-z3cvde" viewBox="0 0 1000 1000" overflow="inherit">
            <path transform="scale(1,-1)" d="M216 730c-5 8 -10 13 -11 16l-4 10c0 3 2 5 5 5s7 -2 13 -7c35 -42 57 -101 57 -172c0 -34 -6 -65 -17 -94c10 -31 17 -64 17 -96c0 -104 -60 -183 -122 -241c-63 -59 -57 -53 -61 -56c-38 -34 -63 -95 -71 -95h-22v190v190c40 7 69 11 87 16c116 36 175 111 175 197 c0 44 -15 91 -46 137zM248 463c-23 -48 -58 -89 -94 -122c-63 -59 -57 -53 -61 -56c-30 -27 -44 -71 -53 -88c20 3 36 6 47 9c88 27 168 95 168 200c0 19 -3 39 -7 57z"/>
        </symbol>
    </defs>
    <style type="text/css">g.page-margin{font-family:Times,serif;} g.ending, g.fing, g.reh, g.tempo{font-weight:bold;} g.dir, g.dynam, g.mNum{font-style:italic;} g.label{font-weight:normal;}</style>
    <svg class="definition-scale" color="black" viewBox="0 0 15790 2800">
        <g class="page-margin" transform="translate(500, 500)">
            <g id="m1uphl6b" class="mdiv pageMilestone"/>
            <g id="sqk207q" class="score pageMilestone"/>
            <g id="s1eeounk" class="system">
                <g id="lo4v61d" class="label">
                    <text x="1088" y="990" text-anchor="end" font-size="0px">
                        <tspan id="t1izbytp" class="text">
                            <tspan font-size="405px">Viol&#237;</tspan>
                        </tspan>
                    </text>
                </g>
                <g id="s1oynqhy" class="section systemMilestone"/>
                <g id="pP1_m1" class="measure">
                    <g id="s1d4z5bf" class="staff">
                        <path d="M1268 540 L4393 540" stroke="currentColor" stroke-width="13"/>
                        <path d="M1268 720 L4393 720" stroke="currentColor" stroke-width="13"/>
                        <path d="M1268 900 L4393 900" stroke="currentColor" stroke-width="13"/>
                        <path d="M1268 1080 L4393 1080" stroke="currentColor" stroke-width="13"/>
                        <path d="M1268 1260 L4393 1260" stroke="currentColor" stroke-width="13"/>
                        <g id="clef1_1" class="clef">
                            <use xlink:href="#E050-z3cvde" x="1358" y="1080" height="720px" width="720px"/>
                        </g>
                        <g id="key1_1" class="keySig">
                            <g id="key1_1.accidental1" class="keyAccid">
                                <use xlink:href="#E262-z3cvde" x="2003" y="540" height="720px" width="720px"/>
                            </g>
                        </g>
                        <g id="time1_1" class="meterSig">
                            <use xlink:href="#E086-z3cvde" x="2310" y="720" height="720px" width="720px"/>
                            <use xlink:href="#E088-z3cvde" x="2317" y="1080" height="720px" width="720px"/>
                        </g>
                        <g id="l156ke4f" class="layer">
                            <g id="pP1_m1.multi-rest.11" class="multiRest">
                                <rect x="2869" y="810" height="180" width="1316"/>
                                <rect x="2869" y="720" height="360" width="36"/>
                                <rect x="4149" y="720" height="360" width="36"/>
                                <use xlink:href="#E081-z3cvde" x="3285" y="270" height="720px" width="720px"/>
                                <use xlink:href="#E081-z3cvde" x="3526" y="270" height="720px" width="720px"/>
                            </g>
                        </g>
                    </g>
                    <g id="pP1_m1.right_barline" class="barLine">
                        <path id="pP1_m1.right_barline.barline_tok1" d="M4380 540 L4380 1260" stroke="currentColor" stroke-width="27" class="barline_tok"/>
                    </g>
                </g>
                <g id="pP1_m12" class="measure">
                    <g id="soh1wvb" class="staff">
                        <path d="M4393 540 L6802 540" stroke="currentColor" stroke-width="13"/>
                        <path d="M4393 720 L6802 720" stroke="currentColor" stroke-width="13"/>
                        <path d="M4393 900 L6802 900" stroke="currentColor" stroke-width="13"/>
                        <path d="M4393 1080 L6802 1080" stroke="currentColor" stroke-width="13"/>
                        <path d="M4393 1260 L6802 1260" stroke="currentColor" stroke-width="13"/>
                        <g id="legwxey" class="layer">
                            <g id="note1" class="note">
                                <g class="notehead" id="note1.notehead">
                                    <use xlink:href="#E0A4-z3cvde" x="4573" y="900" height="720px" width="720px"/>
                                </g>
                                <g id="note1.dots_parent" class="dots">
                                    <ellipse cx="4889" cy="810" rx="36" ry="36" id="note1.dot1" class="single_dot"/>
                                </g>
                                <g id="note1.stem" class="stem">
                                    <path d="M4582 928 L4582 1500" stroke="currentColor" stroke-width="18"/>
                                </g>
                            </g>
                            <g id="note2" class="note">
                                <g class="notehead" id="note2.notehead">
                                    <use xlink:href="#E0A4-z3cvde" x="5453" y="720" height="720px" width="720px"/>
                                </g>
                                <g id="note2.stem" class="stem">
                                    <path d="M5462 748 L5462 1350" stroke="currentColor" stroke-width="18"/>
                                </g>
                            </g>
                            <g id="note3" class="note">
                                <g class="notehead" id="note3.notehead">
                                    <use xlink:href="#E0A4-z3cvde" x="6143" y="720" height="720px" width="720px"/>
                                </g>
                                <g id="note3.stem" class="stem">
                                    <path d="M6152 748 L6152 1350" stroke="currentColor" stroke-width="18"/>
                                    <g id="note3.stem.flag" class="flag">
                                        <use xlink:href="#E243-z3cvde" x="6143" y="1350" height="720px" width="720px"/>
                                    </g>
                                </g>
                            </g>
                            <g id="note4" class="note">
                                <g class="notehead" id="note4.notehead">
                                    <use xlink:href="#E0A4-z3cvde" x="6459" y="810" height="720px" width="720px"/>
                                </g>
                                <g id="note4.stem" class="stem">
                                    <path d="M6468 838 L6468 1440" stroke="currentColor" stroke-width="18"/>
                                    <g id="note4.stem.flag" class="flag">
                                        <use xlink:href="#E243-z3cvde" x="6459" y="1440" height="720px" width="720px"/>
                                    </g>
                                </g>
                            </g>
                        </g>
                    </g>
                    <g id="tied1" class="tie">
                        <path d="M5724,675 C5804,521 6015,521 6098,675 C5990,570 5829,570 5724,675" stroke="currentColor" stroke-linecap="round" stroke-linejoin="round" stroke-width="9"/>
                    </g>
                    <g id="pP1_m12.right_barline" class="barLine">
                        <path id="pP1_m12.right_barline.barline_tok1" d="M6789 540 L6789 1260" stroke="currentColor" stroke-width="27" class="barline_tok"/>
                    </g>
                </g>
                <g id="pP1_m13" class="measure">
                    <g id="sv5egvt" class="staff">
                        <path d="M6802 540 L9225 540" stroke="currentColor" stroke-width="13"/>
                        <path d="M6802 720 L9225 720" stroke="currentColor" stroke-width="13"/>
                        <path d="M6802 900 L9225 900" stroke="currentColor" stroke-width="13"/>
                        <path d="M6802 1080 L9225 1080" stroke="currentColor" stroke-width="13"/>
                        <path d="M6802 1260 L9225 1260" stroke="currentColor" stroke-width="13"/>
                        <g id="l16n7r9n" class="layer">
                            <g id="note5" class="note">
                                <g class="notehead" id="note5.notehead">
                                    <use xlink:href="#E0A4-z3cvde" x="6982" y="900" height="720px" width="720px"/>
                                </g>
                                <g id="note5.dots_parent" class="dots">
                                    <ellipse cx="7298" cy="810" rx="36" ry="36" id="note5.dot1" class="single_dot"/>
                                </g>
                                <g id="note5.stem" class="stem">
                                    <path d="M6991 928 L6991 1500" stroke="currentColor" stroke-width="18"/>
                                </g>
                            </g>
                            <g id="note6" class="note">
                                <g class="notehead" id="note6.notehead">
                                    <use xlink:href="#E0A4-z3cvde" x="7862" y="990" height="720px" width="720px"/>
                                </g>
                                <g id="note6.stem" class="stem">
                                    <path d="M7871 1018 L7871 1560" stroke="currentColor" stroke-width="18"/>
                                    <g id="note6.stem.flag" class="flag">
                                        <use xlink:href="#E241-z3cvde" x="7862" y="1560" height="720px" width="720px"/>
                                    </g>
                                </g>
                            </g>
                            <g id="rest12" class="rest">
                                <use xlink:href="#E4E6-z3cvde" x="8312" y="900" height="720px" width="720px"/>
                            </g>
                            <g id="rest13" class="rest">
                                <use xlink:href="#E4E6-z3cvde" x="8762" y="900" height="720px" width="720px"/>
                            </g>
                        </g>
                    </g>
                    <g id="pP1_m13.right_barline" class="barLine">
                        <path id="pP1_m13.right_barline.barline_tok1" d="M9212 540 L9212 1260" stroke="currentColor" stroke-width="27" class="barline_tok"/>
                    </g>
                </g>
                <g id="pP1_m14" class="measure">
                    <g id="so7i5me" class="staff">
                        <path d="M9225 540 L12166 540" stroke="currentColor" stroke-width="13"/>
                        <path d="M9225 720 L12166 720" stroke="currentColor" stroke-width="13"/>
                        <path d="M9225 900 L12166 900" stroke="currentColor" stroke-width="13"/>
                        <path d="M9225 1080 L12166 1080" stroke="currentColor" stroke-width="13"/>
                        <path d="M9225 1260 L12166 1260" stroke="currentColor" stroke-width="13"/>
                        <g id="lz2dt7y" class="layer">
                            <g id="note7" class="note">
                                <g class="notehead" id="note7.notehead">
                                    <use xlink:href="#E0A4-z3cvde" x="9405" y="810" height="720px" width="720px"/>
                                </g>
                                <g id="note7.stem" class="stem">
                                    <path d="M9414 838 L9414 1440" stroke="currentColor" stroke-width="18"/>
                                    <g id="note7.stem.flag" class="flag">
                                        <use xlink:href="#E241-z3cvde" x="9405" y="1440" height="720px" width="720px"/>
                                    </g>
                                </g>
                            </g>
                            <g id="note8" class="note">
                                <g class="notehead" id="note8.notehead">
                                    <use xlink:href="#E0A4-z3cvde" x="9855" y="990" height="720px" width="720px"/>
                                </g>
                                <g id="note8.dots_parent" class="dots">
                                    <ellipse cx="10171" cy="990" rx="36" ry="36" id="note8.dot1" class="single_dot"/>
                                </g>
                                <g id="note8.stem" class="stem">
                                    <path d="M9864 1018 L9864 1560" stroke="currentColor" stroke-width="18"/>
                                    <g id="note8.stem.flag" class="flag">
                                        <use xlink:href="#E241-z3cvde" x="9855" y="1560" height="720px" width="720px"/>
                                    </g>
                                </g>
                            </g>
                            <g id="note9" class="note">
                                <g class="notehead" id="note9.notehead">
                                    <use xlink:href="#E0A4-z3cvde" x="10435" y="630" height="720px" width="720px"/>
                                </g>
                                <g id="note9.stem" class="stem">
                                    <path d="M10444 658 L10444 1260" stroke="currentColor" stroke-width="18"/>
                                    <g id="note9.stem.flag" class="flag">
                                        <use xlink:href="#E243-z3cvde" x="10435" y="1260" height="720px" width="720px"/>
                                    </g>
                                </g>
                            </g>
                            <g id="beam1_parent" class="beam_parent">
                                <polygon points="10751,1350 11219,1395 11219,1305 10751,1260" id="beam1" class="beam"/>
                                <g id="note10" class="note">
                                    <g class="notehead" id="note10.notehead">
                                        <use xlink:href="#E0A4-z3cvde" x="10751" y="630" height="720px" width="720px"/>
                                    </g>
                                    <g id="note10.stem" class="stem">
                                        <path d="M10760 658 L10760 1332" stroke="currentColor" stroke-width="18"/>
                                    </g>
                                </g>
                                <g id="note11" class="note">
                                    <g class="notehead" id="note11.notehead">
                                        <use xlink:href="#E0A4-z3cvde" x="11201" y="720" height="720px" width="720px"/>
                                    </g>
                                    <g id="note11.stem" class="stem">
                                        <path d="M11210 748 L11210 1377" stroke="currentColor" stroke-width="18"/>
                                    </g>
                                </g>
                            </g>
                            <g id="note12" class="note">
                                <g class="notehead" id="note12.notehead">
                                    <use xlink:href="#E0A4-z3cvde" x="11703" y="810" height="720px" width="720px"/>
                                </g>
                                <g id="note12.stem" class="stem">
                                    <path d="M11712 838 L11712 1440" stroke="currentColor" stroke-width="18"/>
                                    <g id="note12.stem.flag" class="flag">
                                        <use xlink:href="#E241-z3cvde" x="11703" y="1440" height="720px" width="720px"/>
                                    </g>
                                </g>
                                <g id="note12.accidental" class="accid">
                                    <use xlink:href="#E262-z3cvde" x="11517" y="810" height="720px" width="720px"/>
                                </g>
                            </g>
                        </g>
                    </g>
                    <g id="pP1_m14.right_barline" class="barLine">
                        <path id="pP1_m14.right_barline.barline_tok1" d="M12153 540 L12153 1260" stroke="currentColor" stroke-width="27" class="barline_tok"/>
                    </g>
                </g>
                <g id="pP1_m15" class="measure">
                    <g id="s1qf71cs" class="staff">
                        <path d="M12166 540 L14792 540" stroke="currentColor" stroke-width="13"/>
                        <path d="M12166 720 L14792 720" stroke="currentColor" stroke-width="13"/>
                        <path d="M12166 900 L14792 900" stroke="currentColor" stroke-width="13"/>
                        <path d="M12166 1080 L14792 1080" stroke="currentColor" stroke-width="13"/>
                        <path d="M12166 1260 L14792 1260" stroke="currentColor" stroke-width="13"/>
                        <g id="lj660tx" class="layer">
                            <g id="note13" class="note">
                                <g class="notehead" id="note13.notehead">
                                    <use xlink:href="#E0A4-z3cvde" x="12346" y="720" height="720px" width="720px"/>
                                </g>
                                <g id="note13.stem" class="stem">
                                    <path d="M12355 748 L12355 1350" stroke="currentColor" stroke-width="18"/>
                                </g>
                            </g>
                            <g id="beam2_parent" class="beam_parent">
                                <polygon points="13036,1530 13370,1575 13370,1485 13036,1440" id="beam2" class="beam"/>
                                <polygon points="13036,1395 13370,1440 13370,1350 13036,1305" id="beam3" class="beam"/>
                                <g id="note14" class="note">
                                    <g class="notehead" id="note14.notehead">
                                        <use xlink:href="#E0A4-z3cvde" x="13036" y="810" height="720px" width="720px"/>
                                    </g>
                                    <g id="note14.stem" class="stem">
                                        <path d="M13045 838 L13045 1512" stroke="currentColor" stroke-width="18"/>
                                    </g>
                                </g>
                                <g id="note15" class="note">
                                    <g class="notehead" id="note15.notehead">
                                        <use xlink:href="#E0A4-z3cvde" x="13352" y="900" height="720px" width="720px"/>
                                    </g>
                                    <g id="note15.stem" class="stem">
                                        <path d="M13361 928 L13361 1557" stroke="currentColor" stroke-width="18"/>
                                    </g>
                                </g>
                            </g>
                            <g id="rest14" class="space"/>
                            <g id="rest15" class="space"/>
                        </g>
                    </g>
                </g>
                <g id="sj206qz" class="systemMilestoneEnd s1oynqhy"/>
            </g>
            <g id="p1nxoise" class="pageMilestoneEnd sqk207q"/>
            <g id="p2du0el" class="pageMilestoneEnd m1uphl6b"/>
        </g>
    </svg>
</svg>